<svg xmlns="http://www.w3.org/2000/svg" width="280" height="280" viewBox="0 0 280 280"><path fill-rule="evenodd" d="M97.306 243.575c-1.567-3.36-3.024-6.856-4.333-10.41C88.75 221.49 85.268 207.453 82.807 192h-42.03c12.16 23.154 32.187 41.53 56.53 51.575zM30.578 164h49.04c-.557-7.842-.856-15.875-.868-24 .012-8.125.31-16.158.867-24h-49.04C28.89 123.732 28 131.762 28 140s.89 16.268 2.578 24zm84.463 28c2.04 11.223 4.74 21.35 8 30.196 3.665 10.16 7.124 16.72 11.468 21.608 1.89 2.258 2.6 2.91 4.206 3.72.49.325.658.492.73.566.034.033.05.048.065.05.014.002.03-.005.054-.017.055-.026.17-.077.443-.123.275.046.388.097.445.123.026.012.04.02.054.017.017-.002.03-.017.064-.05.074-.074.24-.24.732-.565 1.605-.81 2.315-1.463 4.204-3.72 4.345-4.89 7.804-11.448 11.468-21.61 3.26-8.844 5.96-18.972 7.992-30.195h-49.92zm53.39-28h-56.85c-.553-7.673-.835-15.687-.822-24-.012-8.313.27-16.327.825-24h56.85c.556 7.673.838 15.687.825 24 .014 8.313-.27 16.327-.823 24zm28.77 28c-2.46 15.453-5.942 29.49-10.166 41.166-1.31 3.553-2.766 7.05-4.333 10.41 24.34-10.046 44.37-28.422 56.528-51.576h-42.03zm52.23-28h-49.04c.556-7.842.855-15.875.867-24-.01-8.125-.31-16.158-.866-24h49.04c1.688 7.732 2.577 15.762 2.577 24s-.89 16.268-2.576 24zM123.038 57.804c-3.26 8.845-5.96 18.973-7.997 30.196h49.92c-2.03-11.223-4.73-21.35-7.99-30.196-3.662-10.16-7.12-16.72-11.465-21.608-1.89-2.258-2.6-2.91-4.205-3.72-.49-.325-.66-.492-.733-.566-.032-.033-.047-.047-.063-.05-.016-.002-.03.005-.056.017-.057.026-.17.077-.445.123-.276-.046-.39-.097-.446-.123-.026-.012-.04-.018-.054-.017-.016.003-.03.017-.063.05-.075.074-.24.24-.733.565-1.606.81-2.316 1.463-4.205 3.72-4.342 4.89-7.8 11.448-11.465 21.61zM197.19 88h42.03c-12.16-23.154-32.187-41.53-56.53-51.575 1.568 3.36 3.025 6.856 4.334 10.41C191.25 58.51 194.73 72.545 197.192 88zM40.777 88h42.03c2.46-15.454 5.942-29.49 10.166-41.166 1.31-3.553 2.766-7.05 4.333-10.41C72.964 46.47 52.936 64.847 40.778 88zM0 140c0 77.32 62.68 140 140 140s140-62.68 140-140S217.32 0 140 0 0 62.68 0 140z"/></svg>
