<?xml version="1.0" encoding="UTF-8"?>
<svg width="240px" height="240px" viewBox="0 0 240 240" version="1.1" xmlns="http://www.w3.org/2000/svg" xmlns:xlink="http://www.w3.org/1999/xlink">
    <!-- Generator: Sketch Beta 47 (45241) - http://www.bohemiancoding.com/sketch -->
    <title>skype</title>
    <desc>Created with Sketch Beta.</desc>
    <defs></defs>
    <g id="Symbols" stroke="none" stroke-width="1" fill="none" fill-rule="evenodd">
        <g id="skype" fill="#F5A623">
            <g id="export" transform="translate(10.000000, 10.000000)">
                <path d="M128.663786,100.150173 L105.561622,94.9760513 C96.7821724,92.9478457 86.8633087,90.1143231 86.8633087,81.739341 C86.8633087,73.35494 93.6181804,67.3880595 106.440509,67.3880595 C132.251527,67.3880595 130.123366,85.3436445 142.942555,85.3436445 C149.677024,85.3436445 155.488662,81.5870686 155.488662,74.712833 C155.488662,58.6253322 129.811047,46.7873303 108.209268,46.7873303 C84.7633973,46.7873303 60.1577097,56.4527033 60.1577097,83.2463668 C60.1577097,96.1235887 64.566268,110.030611 89.6945793,116.396226 L120.915458,124.257877 C130.347796,126.625164 133.133552,132.000222 133.133552,136.836834 C133.133552,144.899422 124.746463,153.451793 110.398638,153.451793 C82.3904033,153.451793 86.2888934,131.055192 71.2881815,131.055192 C64.5411569,131.055192 59.2694064,135.681447 59.2694064,142.367304 C59.2694064,155.432904 75.2996713,173.21267 110.398638,173.21267 C143.785345,173.21267 160.730594,156.398343 160.730594,134.657925 C160.730594,120.604909 153.964736,105.848615 128.663786,100.150173 M158.46198,204.310173 C150.473082,204.310173 142.626196,202.235133 135.770229,198.310704 L130.832987,195.490858 L125.255117,196.473938 C120.341543,197.341826 115.208641,197.782081 109.987377,197.782081 C61.5837792,197.782081 22.2010242,158.402083 22.2010242,109.996055 C22.2010242,104.870785 22.6475693,99.7439373 23.5327701,94.7575295 L24.5221121,89.1636004 L21.6834737,84.2482015 C17.7545078,77.368221 15.6764162,69.5146286 15.6764162,61.53322 C15.6764162,36.2508697 36.2427381,15.6803592 61.5159296,15.6803592 C69.5221838,15.6803592 77.3690703,17.7538212 84.2076801,21.6719385 L89.141767,24.5107195 L94.7196362,23.5260617 C99.6963264,22.6550183 104.833962,22.2131847 109.987377,22.2131847 C158.400442,22.2131847 197.783197,61.5916052 197.783197,109.996055 C197.783197,115.176554 197.33823,120.306558 196.460918,125.247204 L195.474732,130.831666 L198.297592,135.762844 C202.226557,142.630201 204.303071,150.47906 204.303071,158.463624 C204.303071,183.742818 183.738327,204.310173 158.46198,204.310173 L158.46198,204.310173 Z M211.897494,127.970793 C212.932595,122.135433 213.475392,116.150166 213.475392,109.996055 C213.475392,52.8464556 167.143574,6.52020169 109.987377,6.52020169 C103.850932,6.52020169 97.8517637,7.04409012 92.0230086,8.08082112 C83.033724,2.92556969 72.6132859,0 61.5159296,0 C27.5453646,0 0,27.5530595 0,61.534798 C0,72.6295555 2.90964383,83.0442049 8.07725962,92.0197391 C7.05635965,97.8661445 6.52934173,103.865614 6.52934173,109.996055 C6.52934173,167.14881 52.850114,213.460863 109.987377,213.460863 C116.123822,213.460863 122.135613,212.935396 127.972258,211.909711 C136.959964,217.069696 147.369357,220 158.46198,220 C192.442012,220 220,192.46272 220,158.462046 C220,147.356243 217.049331,136.952639 211.897494,127.970793 L211.897494,127.970793 Z" id="skype"></path>
            </g>
        </g>
    </g>
</svg>