<svg xmlns="http://www.w3.org/2000/svg" xmlns:xlink="http://www.w3.org/1999/xlink" width="280" height="280" viewBox="0 0 280 280"><path id="a" d="M0 140c0 77.32 62.68 140 140 140s140-62.68 140-140S217.32 0 140 0 0 62.68 0 140zm240 0c0 55.228-44.772 100-100 100S40 195.228 40 140 84.772 40 140 40s100 44.772 100 100zm-90-56c0-7.732-6.268-14-14-14s-14 6.268-14 14v52c0 3.797 1.512 7.242 3.966 9.764.906.953 1.962 1.793 3.158 2.484l51.962 30c6.696 3.866 15.258 1.572 19.124-5.124 3.866-6.696 1.572-15.258-5.124-19.124L150 127.97V84z"/></svg>
