<svg data-name="ICONS" xmlns="http://www.w3.org/2000/svg" viewBox="0 0 72 72"><defs><linearGradient id="a" x1="11.467" y1="7.804" x2="63.639" y2="69.981" gradientUnits="userSpaceOnUse"><stop offset="0" stop-color="#fff" stop-opacity="0"/><stop offset=".862" stop-color="#5e5e5e" stop-opacity=".063"/><stop offset="1" stop-opacity=".1"/></linearGradient><linearGradient id="b" x1="57" y1="24.844" x2="57" y2="20.146" gradientUnits="userSpaceOnUse"><stop offset="0" stop-color="#828282" stop-opacity="0"/><stop offset=".862" stop-color="#303030" stop-opacity=".063"/><stop offset="1" stop-opacity=".1"/></linearGradient><linearGradient id="c" x1="25.966" y1="65.803" x2="26.798" y2="58.018" gradientUnits="userSpaceOnUse"><stop offset="0" stop-color="#828282" stop-opacity="0"/><stop offset=".862" stop-color="#303030" stop-opacity=".126"/><stop offset="1" stop-opacity=".2"/></linearGradient><linearGradient id="d" x1="53.792" y1="23.208" x2="62.501" y2="14.499" gradientUnits="userSpaceOnUse"><stop offset="0" stop-color="#fff" stop-opacity="0"/><stop offset=".446" stop-color="#fff" stop-opacity=".008"/><stop offset=".636" stop-color="#fff" stop-opacity=".036"/><stop offset=".776" stop-color="#fff" stop-opacity=".085"/><stop offset=".892" stop-color="#fff" stop-opacity=".154"/><stop offset=".993" stop-color="#fff" stop-opacity=".243"/><stop offset="1" stop-color="#fff" stop-opacity=".25"/></linearGradient><linearGradient id="e" x1="21.5" y1="58.75" x2="21.5" y2="21.167" gradientUnits="userSpaceOnUse"><stop offset="0" stop-color="#fff" stop-opacity="0"/><stop offset=".526" stop-color="#fff" stop-opacity=".007"/><stop offset=".715" stop-color="#fff" stop-opacity=".034"/><stop offset=".85" stop-color="#fff" stop-opacity=".08"/><stop offset=".959" stop-color="#fff" stop-opacity=".146"/><stop offset="1" stop-color="#fff" stop-opacity=".18"/></linearGradient></defs><path fill="#fff" d="M65 67H17V5h34l14 14v48z"/><path d="M52 4H16v64h50V18zm0 3l11 11H52zm12 59H18V6h32v14h14z" fill="#949494"/><path d="M57 38v19H34V38h23m2-2H32v23h27V36z" fill="#c8c8c8"/><path d="M48 26v10H32V26h16m2-2H30v14h20V24z" fill="#c8c8c8"/><path fill="#f7a8ab" d="M37 24h13v5H37zM37 36h22v5H37z"/><path fill="#c8c8c8" d="M40 31h5v2h-5zM47 43h7v2h-7zM47 48h7v2h-7zM47 53h7v2h-7z"/><path fill="#f7a8ab" d="M40 43h4v2h-4zM40 48h4v2h-4zM40 53h4v2h-4z"/><path fill="#a23739" d="M6 25l31-5v40L6 55V25z"/><path d="M30 49h-4.229l-1.225-4.004h-6.128L17.205 49H13l6.271-18h4.602zm-6.343-7.117l-1.85-6.05a8.154 8.154 0 0 1-.289-1.62h-.096a7.163 7.163 0 0 1-.3 1.57l-1.875 6.1z" fill="#fff"/><path d="M52 4H16v19.387L6 25v30l10 1.613V68h50V18z" fill="url(#a)"/><path fill="url(#b)" d="M50 20h14v5H50z"/><path fill="url(#c)" d="M37 65H16v-8.38L37 60v5z"/><path fill="url(#d)" d="M66 18L52 4H16v2h34v14h14v48h2V18z"/><path fill="url(#e)" d="M37 20L6 25v30l31 5V20z"/></svg>