<svg data-name="ICONS" xmlns="http://www.w3.org/2000/svg" xmlns:xlink="http://www.w3.org/1999/xlink" viewBox="0 0 72 72"><defs><linearGradient id="c" x1="15.392" y1="11.441" x2="60.055" y2="64.667" gradientUnits="userSpaceOnUse"><stop offset="0" stop-opacity="0"/><stop offset=".862" stop-opacity=".126"/><stop offset="1" stop-opacity=".2"/></linearGradient><linearGradient id="d" x1="53.033" y1="12.691" x2="51.628" y2="28.755" gradientUnits="userSpaceOnUse"><stop offset="0" stop-color="#828282" stop-opacity="0"/><stop offset=".859" stop-color="#454545" stop-opacity=".117"/><stop offset="1" stop-opacity=".25"/></linearGradient><linearGradient id="b" x1="12.5" y1="24.626" x2="12.5" y2="21.588" gradientUnits="userSpaceOnUse"><stop offset="0" stop-color="#fff" stop-opacity="0"/><stop offset=".207" stop-color="#fff" stop-opacity=".016"/><stop offset=".421" stop-color="#fff" stop-opacity=".065"/><stop offset=".639" stop-color="#fff" stop-opacity=".146"/><stop offset=".857" stop-color="#fff" stop-opacity=".259"/><stop offset="1" stop-color="#fff" stop-opacity=".35"/></linearGradient><linearGradient id="a" x1="12.5" y1="27.813" x2="12.5" y2="26.294" gradientUnits="userSpaceOnUse"><stop offset="0" stop-color="#828282" stop-opacity="0"/><stop offset=".997" stop-opacity=".07"/></linearGradient><linearGradient id="e" x1="10.5" y1="32.72" x2="10.5" y2="30.441" xlink:href="#a"/><linearGradient id="f" x1="14.5" y1="32.72" x2="14.5" y2="30.441" xlink:href="#a"/><linearGradient id="g" y1="37.72" y2="35.441" xlink:href="#a"/><linearGradient id="h" y1="41.813" y2="40.294" xlink:href="#b"/><linearGradient id="i" y1="29.813" y2="28.294" xlink:href="#b"/><linearGradient id="j" y1="45.813" y2="44.294" xlink:href="#b"/><linearGradient id="k" y1="43.813" y2="42.294" xlink:href="#a"/></defs><path fill="#a6a6a6" d="M4 58V21h32l7-7h25v44H4z"/><path fill="#828282" d="M43 14l-7 7 7 7h25V14H43z"/><path fill="url(#c)" d="M4 58V21h32l7-7h25v44H4z"/><path fill="url(#d)" d="M43 14l-7 7 7 7h25V14H43z"/><path fill="#fff" opacity=".15" d="M68 28v1H42.542L34.5 21H36l7.042 7H68z"/><path fill="#eaeaea" d="M9 21h7v5H9z"/><path fill="url(#b)" d="M9 21h7v4H9z"/><path fill="url(#a)" d="M9 26h7v2H9z"/><path d="M12.846 28H8v14h9V28zM16 40H9V30h3v5h1v-5h3z" fill="#eaeaea"/><path fill="url(#e)" d="M9 30h3v3H9z"/><path fill="url(#f)" d="M13 30h3v3h-3z"/><path fill="url(#g)" d="M12 35h1v3h-1z"/><path fill="url(#h)" d="M9 40h7v2H9z"/><path fill="url(#i)" d="M8 28h9v2H8z"/><path fill="#eaeaea" d="M9 44h7v14H9z"/><path fill="url(#j)" d="M9 44h7v2H9z"/><path fill="url(#k)" d="M8 42h9v2H8z"/></svg>