<svg id="ICONS" xmlns="http://www.w3.org/2000/svg" viewBox="0 0 72 72"><defs><style>.cls-1{fill:#a6a6a6;}</style></defs><title>Artboard 231</title><path class="cls-1" d="M28,13V54.07c-2.28-2.6-6.34-4.33-11-4.33C9.83,49.73,4,53.82,4,58.87S9.83,68,17,68s13-4.09,13-9.13V15L66,7V44.87C63.67,42.31,59.64,40.6,55,40.6c-7.15,0-12.94,4.09-12.94,9.13S47.88,58.87,55,58.87,67.76,54.92,68,50V4ZM17,66C11,66,6,62.73,6,58.87S11,51.73,17,51.73,27.91,55,27.91,58.87,22.9,66,17,66ZM55,56.87c-5.93,0-10.94-3.27-10.94-7.13S49.1,42.6,55,42.6,66,45.87,66,49.73,61,56.87,55,56.87Z"/></svg>