<svg data-name="ICONS" xmlns="http://www.w3.org/2000/svg" viewBox="0 0 72 72"><defs><linearGradient id="a" x1="11.467" y1="7.804" x2="63.639" y2="69.981" gradientUnits="userSpaceOnUse"><stop offset="0" stop-color="#fff" stop-opacity="0"/><stop offset=".862" stop-color="#5e5e5e" stop-opacity=".063"/><stop offset="1" stop-opacity=".1"/></linearGradient><linearGradient id="b" x1="57" y1="24.844" x2="57" y2="20.146" gradientUnits="userSpaceOnUse"><stop offset="0" stop-color="#828282" stop-opacity="0"/><stop offset=".862" stop-color="#303030" stop-opacity=".063"/><stop offset="1" stop-opacity=".1"/></linearGradient><linearGradient id="c" x1="25.917" y1="66.767" x2="26.848" y2="58.053" gradientUnits="userSpaceOnUse"><stop offset="0" stop-color="#828282" stop-opacity="0"/><stop offset=".862" stop-color="#303030" stop-opacity=".126"/><stop offset="1" stop-opacity=".2"/></linearGradient><linearGradient id="d" x1="21.5" y1="58.75" x2="21.5" y2="21.167" gradientUnits="userSpaceOnUse"><stop offset="0" stop-color="#fff" stop-opacity="0"/><stop offset=".526" stop-color="#fff" stop-opacity=".007"/><stop offset=".715" stop-color="#fff" stop-opacity=".034"/><stop offset=".85" stop-color="#fff" stop-opacity=".08"/><stop offset=".959" stop-color="#fff" stop-opacity=".146"/><stop offset="1" stop-color="#fff" stop-opacity=".18"/></linearGradient><linearGradient id="e" x1="53.792" y1="23.208" x2="62.501" y2="14.499" gradientUnits="userSpaceOnUse"><stop offset="0" stop-color="#fff" stop-opacity="0"/><stop offset=".446" stop-color="#fff" stop-opacity=".008"/><stop offset=".636" stop-color="#fff" stop-opacity=".036"/><stop offset=".776" stop-color="#fff" stop-opacity=".085"/><stop offset=".892" stop-color="#fff" stop-opacity=".154"/><stop offset=".993" stop-color="#fff" stop-opacity=".243"/><stop offset="1" stop-color="#fff" stop-opacity=".25"/></linearGradient></defs><path fill="#fff" d="M65 67H17V5h34l14 14v48z"/><path d="M52 4H16v64h50V18zm0 3l11 11H52zm12 59H18V6h32v14h14z" fill="#949494"/><path fill="#008641" d="M6 25l31-5v40L6 55V25z"/><path d="M30 49h-4.9l-3.159-5.862a5.053 5.053 0 0 1-.37-1.205h-.052a9.044 9.044 0 0 1-.422 1.255L17.925 49H13l5.846-9-5.347-9h5.027l2.622 5.397a9.23 9.23 0 0 1 .55 1.52h.051q.154-.528.576-1.57L25.242 31h4.605l-5.5 8.925z" fill="#fff"/><path d="M54 57h-3v-3h-.08a6.274 6.274 0 0 1-5.776 3.45 6.089 6.089 0 0 1-4.392-1.519 5.322 5.322 0 0 1-1.586-4.031q0-5.381 6.198-6.263l5.629-.806q0-4.894-3.869-4.894A9.125 9.125 0 0 0 41 42.3v-3.15a11.443 11.443 0 0 1 6.38-1.8q6.62 0 6.62 7.162zm-3-9.47l-4.462.615a7.245 7.245 0 0 0-3.108 1.02 2.944 2.944 0 0 0-1.048 2.593 2.823 2.823 0 0 0 .967 2.213 3.734 3.734 0 0 0 2.574.858 4.756 4.756 0 0 0 3.64-1.545A5.519 5.519 0 0 0 51 49.374zM61.08 53l-2.926 9h-2.14l2.14-9z" fill="#8bbf8a"/><path d="M52 4H16v19.387L6 25v30l10 1.613V68h50V18z" fill="url(#a)"/><path fill="url(#b)" d="M50 20h14v5H50z"/><path fill="url(#c)" d="M37 66H16v-9.38L37 60v6z"/><path fill="url(#d)" d="M37 20L6 25v30l31 5V20z"/><path fill="url(#e)" d="M66 18L52 4H16v2h34v14h14v48h2V18z"/><path fill="url(#b)" d="M50 20h14v5H50z"/><path fill="url(#d)" d="M37 20L6 25v30l31 5V20z"/><path fill="url(#e)" d="M66 18L52 4H16v2h34v14h14v48h2V18z"/></svg>