<svg data-name="ICONS" xmlns="http://www.w3.org/2000/svg" xmlns:xlink="http://www.w3.org/1999/xlink" viewBox="0 0 72 72"><defs><linearGradient id="a" x1="8" y1="12" x2="8" y2="48" gradientUnits="userSpaceOnUse"><stop offset="0" stop-opacity="0"/><stop offset=".859" stop-opacity=".07"/><stop offset="1" stop-opacity=".15"/></linearGradient><linearGradient id="b" x1="17" y1="4" x2="17" y2="48" xlink:href="#a"/><linearGradient id="c" x1="64" y1="4" x2="64" y2="41" xlink:href="#a"/><linearGradient id="d" x1="19.332" y1="34.135" x2="56.115" y2="77.972" gradientUnits="userSpaceOnUse"><stop offset="0" stop-opacity="0"/><stop offset=".862" stop-opacity=".126"/><stop offset="1" stop-opacity=".2"/></linearGradient></defs><path fill="#c8c8c8" d="M16 4v8H7v36h2V14h7v34h2V6h45v35h2V4H16z"/><path fill="url(#a)" d="M7 12h2v36H7z"/><path fill="url(#b)" d="M16 4h2v44h-2z"/><path fill="url(#c)" d="M63 4h2v37h-2z"/><path fill="#a6a6a6" d="M43 40l-7 7H4v21h64V40H43z"/><path fill="url(#d)" d="M4 68V47h32l7-7h25v28H4z"/><path fill="#fff" opacity=".15" d="M4 47v2h33l9-9h-3l-7 7H4z"/></svg>