<svg id="ICONS" xmlns="http://www.w3.org/2000/svg" xmlns:xlink="http://www.w3.org/1999/xlink" viewBox="0 0 72 72"><defs><style>.cls-1{fill:#a6a6a6;}.cls-2{fill:url(#linear-gradient);}.cls-3{fill:#c8c8c8;}.cls-4{fill:#fff;opacity:0.15;}.cls-5{fill:url(#linear-gradient-2);}.cls-6{fill:url(#linear-gradient-3);}.cls-7{fill:url(#linear-gradient-4);}</style><linearGradient id="linear-gradient" x1="19.33" y1="34.14" x2="56.12" y2="77.97" gradientUnits="userSpaceOnUse"><stop offset="0" stop-opacity="0"/><stop offset="0.86" stop-opacity="0.13"/><stop offset="1" stop-opacity="0.2"/></linearGradient><linearGradient id="linear-gradient-2" x1="9" y1="12" x2="9" y2="47" gradientUnits="userSpaceOnUse"><stop offset="0" stop-opacity="0"/><stop offset="0.86" stop-opacity="0.07"/><stop offset="1" stop-opacity="0.15"/></linearGradient><linearGradient id="linear-gradient-3" x1="17" y1="4" x2="17" y2="47" xlink:href="#linear-gradient-2"/><linearGradient id="linear-gradient-4" x1="63" y1="4" x2="63" y2="40" xlink:href="#linear-gradient-2"/></defs><title>Artboard 231</title><polygon class="cls-1" points="4 68 4 47 36 47 43 40 68 40 68 68 4 68"/><polygon class="cls-2" points="4 68 4 47 36 47 43 40 68 40 68 68 4 68"/><polygon class="cls-3" points="16 4 16 12 8 12 8 47 10 47 10 14 16 14 16 47 18 47 18 6 62 6 62 40 64 40 64 4 16 4"/><polygon class="cls-4" points="4 47 4 48 36.46 48 44.5 40 43 40 35.96 47 4 47"/><rect class="cls-5" x="8" y="12" width="2" height="35"/><rect class="cls-6" x="16" y="4" width="2" height="43"/><rect class="cls-7" x="62" y="4" width="2" height="36"/></svg>