<svg data-name="ICONS" xmlns="http://www.w3.org/2000/svg" viewBox="0 0 72 72"><defs><linearGradient id="a" x1="11.467" y1="7.804" x2="63.639" y2="69.981" gradientUnits="userSpaceOnUse"><stop offset="0" stop-color="#fff" stop-opacity="0"/><stop offset=".862" stop-color="#5e5e5e" stop-opacity=".063"/><stop offset="1" stop-opacity=".1"/></linearGradient><linearGradient id="b" x1="57" y1="24.844" x2="57" y2="20.146" gradientUnits="userSpaceOnUse"><stop offset="0" stop-color="#828282" stop-opacity="0"/><stop offset=".862" stop-color="#303030" stop-opacity=".063"/><stop offset="1" stop-opacity=".1"/></linearGradient><linearGradient id="c" x1="25.966" y1="65.803" x2="26.798" y2="58.018" gradientUnits="userSpaceOnUse"><stop offset="0" stop-color="#828282" stop-opacity="0"/><stop offset=".862" stop-color="#303030" stop-opacity=".126"/><stop offset="1" stop-opacity=".2"/></linearGradient><linearGradient id="d" x1="21.5" y1="58.75" x2="21.5" y2="21.167" gradientUnits="userSpaceOnUse"><stop offset="0" stop-color="#fff" stop-opacity="0"/><stop offset=".526" stop-color="#fff" stop-opacity=".007"/><stop offset=".715" stop-color="#fff" stop-opacity=".034"/><stop offset=".85" stop-color="#fff" stop-opacity=".08"/><stop offset=".959" stop-color="#fff" stop-opacity=".146"/><stop offset="1" stop-color="#fff" stop-opacity=".18"/></linearGradient><linearGradient id="e" x1="53.792" y1="23.208" x2="62.501" y2="14.499" gradientUnits="userSpaceOnUse"><stop offset="0" stop-color="#fff" stop-opacity="0"/><stop offset=".446" stop-color="#fff" stop-opacity=".008"/><stop offset=".636" stop-color="#fff" stop-opacity=".036"/><stop offset=".776" stop-color="#fff" stop-opacity=".085"/><stop offset=".892" stop-color="#fff" stop-opacity=".154"/><stop offset=".993" stop-color="#fff" stop-opacity=".243"/><stop offset="1" stop-color="#fff" stop-opacity=".25"/></linearGradient></defs><path fill="#fff" d="M65 67H17V5h34l14 14v48z"/><path d="M52 4H16v64h50V18zm0 3l11 11H52zm12 59H18V6h32v14h14z" fill="#949494"/><path fill="#c8c8c8" d="M37 50h22v2H37zM37 55h22v2H37zM37 45h22v2H37zM37 40h22v2H37zM37 35h22v2H37zM37 30h22v2H37zM37 25h22v2H37zM23 11h14v2H23z"/><path fill="#2c5898" d="M6 25l31-5v40L6 55V25z"/><path d="M32 33l-3.936 16h-3.718l-2.472-10.265a9.159 9.159 0 0 1-.24-1.796h-.04a11.655 11.655 0 0 1-.27 1.796L18.788 49h-3.874L11 33h3.666l2.098 10.656a13.644 13.644 0 0 1 .197 1.83h.063a9.46 9.46 0 0 1 .301-1.875L20.025 33h3.594l2.44 10.745a14.121 14.121 0 0 1 .24 1.718h.04a12.342 12.342 0 0 1 .219-1.785L28.614 33z" fill="#fff"/><path d="M52 4H16v19.387L6 25v30l10 1.613V68h50V18z" fill="url(#a)"/><path fill="url(#b)" d="M50 20h14v5H50z"/><path fill="url(#c)" d="M37 65H16v-8.38L37 60v5z"/><path fill="url(#d)" d="M37 20L6 25v30l31 5V20z"/><path fill="url(#e)" d="M66 18L52 4H16v2h34v14h14v48h2V18z"/></svg>