<svg id="ICONS" xmlns="http://www.w3.org/2000/svg" xmlns:xlink="http://www.w3.org/1999/xlink" viewBox="0 0 72 72"><defs><style>.cls-1{fill:#fff;}.cls-2{fill:#acbbe3;}.cls-3{fill:#a6a6a6;}.cls-4{fill:#2c5898;}.cls-5{fill:#c8c8c8;}.cls-6{fill:url(#linear-gradient);}.cls-7{fill:url(#linear-gradient-2);}.cls-8{fill:url(#linear-gradient-3);}.cls-9{fill:url(#linear-gradient-4);}.cls-10{fill:url(#linear-gradient-5);}.cls-11{fill:url(#linear-gradient-6);}</style><linearGradient id="linear-gradient" x1="17.84" y1="11.56" x2="59.16" y2="64.44" gradientUnits="userSpaceOnUse"><stop offset="0" stop-color="#fff" stop-opacity="0"/><stop offset="0.86" stop-color="#5e5e5e" stop-opacity="0.06"/><stop offset="1" stop-opacity="0.1"/></linearGradient><linearGradient id="linear-gradient-2" x1="40.73" y1="13.07" x2="41.26" y2="3.11" gradientUnits="userSpaceOnUse"><stop offset="0" stop-color="#fff" stop-opacity="0"/><stop offset="0.45" stop-color="#fff" stop-opacity="0.01"/><stop offset="0.64" stop-color="#fff" stop-opacity="0.04"/><stop offset="0.78" stop-color="#fff" stop-opacity="0.08"/><stop offset="0.89" stop-color="#fff" stop-opacity="0.15"/><stop offset="0.99" stop-color="#fff" stop-opacity="0.24"/><stop offset="1" stop-color="#fff" stop-opacity="0.25"/></linearGradient><linearGradient id="linear-gradient-3" x1="34.12" y1="28" x2="65.61" y2="68.3" xlink:href="#linear-gradient"/><linearGradient id="linear-gradient-4" x1="41" y1="67.84" x2="41" y2="63.15" gradientUnits="userSpaceOnUse"><stop offset="0" stop-color="#828282" stop-opacity="0"/><stop offset="0.86" stop-color="#303030" stop-opacity="0.06"/><stop offset="1" stop-opacity="0.1"/></linearGradient><linearGradient id="linear-gradient-5" x1="26.02" y1="65.29" x2="26.8" y2="58" gradientUnits="userSpaceOnUse"><stop offset="0" stop-color="#828282" stop-opacity="0"/><stop offset="0.86" stop-color="#303030" stop-opacity="0.13"/><stop offset="1" stop-opacity="0.2"/></linearGradient><linearGradient id="linear-gradient-6" x1="21.5" y1="58.75" x2="21.5" y2="21.17" gradientUnits="userSpaceOnUse"><stop offset="0" stop-color="#fff" stop-opacity="0"/><stop offset="0.53" stop-color="#fff" stop-opacity="0.01"/><stop offset="0.72" stop-color="#fff" stop-opacity="0.03"/><stop offset="0.85" stop-color="#fff" stop-opacity="0.08"/><stop offset="0.96" stop-color="#fff" stop-opacity="0.15"/><stop offset="1" stop-color="#fff" stop-opacity="0.18"/></linearGradient></defs><title>Artboard 231</title><polygon class="cls-1" points="61 4 16 4 16 63 21 63 21 68 66 68 66 9 61 4"/><polygon class="cls-2" points="61 4 16 4 16 13 61 13 61 7 66 12 66 9 61 4"/><polygon class="cls-3" points="64 10 64 66 23 66 23 63 61 63 61 13 59 13 59 61 23 61 21 61 18 61 18 13 16 13 16 63 21 63 21 68 66 68 66 12 64 10"/><polygon class="cls-4" points="6 25 37 20 37 60 6 55 6 25"/><rect class="cls-5" x="23" y="16" width="9" height="2"/><path class="cls-1" d="M32,33,28.06,49H24.35L21.87,38.74a9.16,9.16,0,0,1-.24-1.8h0a11.66,11.66,0,0,1-.27,1.8L18.79,49H14.92L11,33h3.67l2.1,10.66a13.64,13.64,0,0,1,.2,1.83H17a9.45,9.45,0,0,1,.3-1.87L20,33h3.59l2.44,10.75a14.11,14.11,0,0,1,.24,1.72h0a12.33,12.33,0,0,1,.22-1.79L28.61,33Z"/><rect class="cls-5" x="37" y="50" width="19" height="2"/><rect class="cls-5" x="37" y="55" width="19" height="2"/><rect class="cls-5" x="37" y="45" width="19" height="2"/><rect class="cls-5" x="37" y="40" width="19" height="2"/><rect class="cls-5" x="37" y="35" width="19" height="2"/><rect class="cls-5" x="37" y="30" width="19" height="2"/><rect class="cls-5" x="37" y="25" width="19" height="2"/><rect class="cls-6" x="16" y="13" width="45" height="50"/><polygon class="cls-7" points="61 4 16 4 16 13 61 13 61 7 66 12 66 9 61 4"/><polygon class="cls-8" points="61 7 61 63 21 63 21 68 66 68 66 12 61 7"/><rect class="cls-9" x="21" y="63" width="40" height="5"/><polygon class="cls-10" points="37 65 21 65 21 63 16 63 16 56.62 37 60 37 65"/><polygon class="cls-11" points="37 20 6 25 6 55 37 60 37 20"/></svg>