<svg data-name="ICONS" xmlns="http://www.w3.org/2000/svg" xmlns:xlink="http://www.w3.org/1999/xlink" viewBox="0 0 72 72"><defs><linearGradient id="a" x1="17.843" y1="11.56" x2="59.157" y2="64.44" gradientUnits="userSpaceOnUse"><stop offset="0" stop-color="#fff" stop-opacity="0"/><stop offset=".862" stop-color="#5e5e5e" stop-opacity=".063"/><stop offset="1" stop-opacity=".1"/></linearGradient><linearGradient id="b" x1="40.735" y1="13.066" x2="41.256" y2="3.106" gradientUnits="userSpaceOnUse"><stop offset="0" stop-color="#fff" stop-opacity="0"/><stop offset=".446" stop-color="#fff" stop-opacity=".008"/><stop offset=".636" stop-color="#fff" stop-opacity=".036"/><stop offset=".776" stop-color="#fff" stop-opacity=".085"/><stop offset=".892" stop-color="#fff" stop-opacity=".154"/><stop offset=".993" stop-color="#fff" stop-opacity=".243"/><stop offset="1" stop-color="#fff" stop-opacity=".25"/></linearGradient><linearGradient id="c" x1="34.123" y1="27.998" x2="65.613" y2="68.303" xlink:href="#a"/><linearGradient id="d" x1="41" y1="67.844" x2="41" y2="63.146" gradientUnits="userSpaceOnUse"><stop offset="0" stop-color="#828282" stop-opacity="0"/><stop offset=".862" stop-color="#303030" stop-opacity=".063"/><stop offset="1" stop-opacity=".1"/></linearGradient><linearGradient id="e" x1="26.021" y1="65.291" x2="26.8" y2="58.003" gradientUnits="userSpaceOnUse"><stop offset="0" stop-color="#828282" stop-opacity="0"/><stop offset=".862" stop-color="#303030" stop-opacity=".126"/><stop offset="1" stop-opacity=".2"/></linearGradient><linearGradient id="f" x1="21.5" y1="58.75" x2="21.5" y2="21.167" gradientUnits="userSpaceOnUse"><stop offset="0" stop-color="#fff" stop-opacity="0"/><stop offset=".526" stop-color="#fff" stop-opacity=".007"/><stop offset=".715" stop-color="#fff" stop-opacity=".034"/><stop offset=".85" stop-color="#fff" stop-opacity=".08"/><stop offset=".959" stop-color="#fff" stop-opacity=".146"/><stop offset="1" stop-color="#fff" stop-opacity=".18"/></linearGradient></defs><path fill="#fff" d="M61 4H16v59h5v5h45V9l-5-5z"/><path fill="#2c5898" d="M61 4H16v9h45V7l5 5V9l-5-5z"/><path fill="#949494" d="M64 10v56H23v-3h38V13h-2v48H18V13h-2v50h5v5h45V12l-2-2z"/><path fill="#2c5898" d="M6 25l31-5v40L6 55V25z"/><path fill="#c8c8c8" d="M23 16h9v2h-9z"/><path d="M32 33l-3.936 16h-3.718l-2.472-10.265a9.159 9.159 0 0 1-.24-1.796h-.04a11.66 11.66 0 0 1-.27 1.796L18.788 49h-3.874L11 33h3.666l2.098 10.656a13.643 13.643 0 0 1 .197 1.83h.063a9.454 9.454 0 0 1 .301-1.875L20.025 33h3.594l2.44 10.745a14.113 14.113 0 0 1 .24 1.718h.04a12.333 12.333 0 0 1 .219-1.785L28.614 33z" fill="#fff"/><path fill="#c8c8c8" d="M37 50h19v2H37zM37 55h19v2H37zM37 45h19v2H37zM37 40h19v2H37zM37 35h19v2H37zM37 30h19v2H37zM37 25h19v2H37z"/><path fill="url(#a)" d="M16 13h45v50H16z"/><path fill="url(#b)" d="M61 4H16v9h45V7l5 5V9l-5-5z"/><path fill="url(#c)" d="M61 7v56H21v5h45V12l-5-5z"/><path fill="url(#d)" d="M21 63h40v5H21z"/><path fill="url(#e)" d="M37 65H21v-2h-5v-6.38L37 60v5z"/><path fill="url(#f)" d="M37 20L6 25v30l31 5V20z"/></svg>