<svg id="ICONS" xmlns="http://www.w3.org/2000/svg" xmlns:xlink="http://www.w3.org/1999/xlink" viewBox="0 0 72 72"><defs><style>.cls-1{fill:#fff;}.cls-2{fill:#a6a6a6;}.cls-3{fill:#c8c8c8;}.cls-4{fill:#69afe5;}.cls-5{fill:url(#linear-gradient);}.cls-6{fill:url(#linear-gradient-2);}</style><linearGradient id="linear-gradient" x1="12.99" y1="8.57" x2="59.11" y2="63.55" gradientUnits="userSpaceOnUse"><stop offset="0" stop-color="#fff" stop-opacity="0"/><stop offset="0.86" stop-color="#5e5e5e" stop-opacity="0.06"/><stop offset="1" stop-opacity="0.1"/></linearGradient><linearGradient id="linear-gradient-2" x1="35.97" y1="36.03" x2="63.97" y2="8.7" gradientUnits="userSpaceOnUse"><stop offset="0" stop-color="#fff" stop-opacity="0"/><stop offset="0.45" stop-color="#fff" stop-opacity="0.01"/><stop offset="0.64" stop-color="#fff" stop-opacity="0.04"/><stop offset="0.78" stop-color="#fff" stop-opacity="0.08"/><stop offset="0.89" stop-color="#fff" stop-opacity="0.15"/><stop offset="0.99" stop-color="#fff" stop-opacity="0.24"/><stop offset="1" stop-color="#fff" stop-opacity="0.25"/></linearGradient></defs><title>Artboard 231</title><rect class="cls-1" x="5" y="14" width="62" height="44"/><path class="cls-2" d="M4,13V59H68V13ZM66,57H6V15H66Z"/><rect class="cls-3" x="11" y="20" width="11" height="2"/><rect class="cls-3" x="11" y="25" width="11" height="2"/><rect class="cls-3" x="22" y="42" width="28" height="2" transform="translate(72 86) rotate(180)"/><rect class="cls-3" x="22" y="37" width="28" height="2" transform="translate(72 76) rotate(180)"/><rect class="cls-3" x="22" y="47" width="28" height="2" transform="translate(72 96) rotate(180)"/><path class="cls-4" d="M59,22v7H52V22h7m2-2H50V31H61V20Z"/><rect class="cls-5" x="4" y="13" width="64" height="46"/><polygon class="cls-6" points="68 13 4 13 4 15 6 15 66 15 66 57 66 59 68 59 68 13"/></svg>