<svg data-name="ICONS" xmlns="http://www.w3.org/2000/svg" viewBox="0 0 72 72"><defs><linearGradient id="a" x1="12.987" y1="8.574" x2="59.115" y2="63.547" gradientUnits="userSpaceOnUse"><stop offset="0" stop-color="#fff" stop-opacity="0"/><stop offset=".862" stop-color="#5e5e5e" stop-opacity=".063"/><stop offset="1" stop-opacity=".1"/></linearGradient><linearGradient id="b" x1="35.967" y1="36.032" x2="63.967" y2="8.698" gradientUnits="userSpaceOnUse"><stop offset="0" stop-color="#fff" stop-opacity="0"/><stop offset=".446" stop-color="#fff" stop-opacity=".008"/><stop offset=".636" stop-color="#fff" stop-opacity=".036"/><stop offset=".776" stop-color="#fff" stop-opacity=".085"/><stop offset=".892" stop-color="#fff" stop-opacity=".154"/><stop offset=".993" stop-color="#fff" stop-opacity=".243"/><stop offset="1" stop-color="#fff" stop-opacity=".25"/></linearGradient></defs><path fill="#fff" d="M5 14h62v44H5z"/><path d="M4 13v46h64V13zm62 44H6V15h60z" fill="#949494"/><path fill="#c8c8c8" d="M11 20h11v2H11zM11 25h11v2H11zM50 44H22v-2h28zM50 39H22v-2h28zM50 49H22v-2h28z"/><path d="M59 22v7h-7v-7h7m2-2H50v11h11V20z" fill="#69afe5"/><path fill="url(#a)" d="M4 13h64v46H4z"/><path fill="url(#b)" d="M68 13H4v2h62v44h2V13z"/></svg>