<svg data-name="ICONS" xmlns="http://www.w3.org/2000/svg" viewBox="0 0 72 72"><defs><linearGradient id="a" x1="12.987" y1="8.574" x2="59.115" y2="63.547" gradientUnits="userSpaceOnUse"><stop offset="0" stop-color="#fff" stop-opacity="0"/><stop offset=".862" stop-color="#5e5e5e" stop-opacity=".063"/><stop offset="1" stop-opacity=".1"/></linearGradient><linearGradient id="b" x1="35.141" y1="36.838" x2="63.97" y2="8.696" gradientUnits="userSpaceOnUse"><stop offset="0" stop-color="#fff" stop-opacity="0"/><stop offset=".446" stop-color="#fff" stop-opacity=".008"/><stop offset=".636" stop-color="#fff" stop-opacity=".036"/><stop offset=".776" stop-color="#fff" stop-opacity=".085"/><stop offset=".892" stop-color="#fff" stop-opacity=".154"/><stop offset=".993" stop-color="#fff" stop-opacity=".243"/><stop offset="1" stop-color="#fff" stop-opacity=".25"/></linearGradient></defs><path fill="#fff" d="M4 13h64v46H4z"/><path d="M4 13v46h64V13zm62 44H6V15h60z" fill="#949494"/><path fill="#c8c8c8" d="M46 22h15v2H46zM46 27h15v2H46zM46 32h15v2H46zM46 37h15v2H46zM46 42h8v2h-8z"/><path fill="#69afe5" d="M21 22h20v28H21z"/><path fill="#949494" d="M62 15h2v2h-2zM58 15h2v2h-2zM5 15h51v2H5z"/><path fill="#eaeaea" d="M6 17h12v40H6z"/><path fill="#c8c8c8" d="M9 22h6v2H9zM9 27h6v2H9zM9 32h6v2H9zM9 37h6v2H9z"/><path fill="url(#a)" d="M4 13h64v46H4z"/><path fill="url(#b)" d="M68 13H4v4h52v-2h2v2h2v-2h2v2h2v-2h2v44h2V13z"/></svg>