<svg id="ICONS" xmlns="http://www.w3.org/2000/svg" xmlns:xlink="http://www.w3.org/1999/xlink" viewBox="0 0 72 72"><defs><style>.cls-1{fill:#fff;}.cls-2{fill:#a6a6a6;}.cls-3{fill:url(#linear-gradient);}.cls-4{fill:url(#linear-gradient-2);}.cls-5{fill:url(#linear-gradient-3);}.cls-6{fill:url(#linear-gradient-4);}</style><linearGradient id="linear-gradient" x1="36" y1="22" x2="36" y2="54" gradientUnits="userSpaceOnUse"><stop offset="0" stop-color="#f7903b"/><stop offset="1" stop-color="#ff5c0d"/></linearGradient><linearGradient id="linear-gradient-2" x1="6.47" y1="7.8" x2="58.64" y2="69.98" gradientUnits="userSpaceOnUse"><stop offset="0" stop-color="#fff" stop-opacity="0"/><stop offset="0.86" stop-color="#5e5e5e" stop-opacity="0.06"/><stop offset="1" stop-opacity="0.1"/></linearGradient><linearGradient id="linear-gradient-3" x1="52" y1="24.84" x2="52" y2="20.15" gradientUnits="userSpaceOnUse"><stop offset="0" stop-color="#828282" stop-opacity="0"/><stop offset="0.86" stop-color="#303030" stop-opacity="0.06"/><stop offset="1" stop-opacity="0.1"/></linearGradient><linearGradient id="linear-gradient-4" x1="48.79" y1="23.21" x2="57.5" y2="14.5" gradientUnits="userSpaceOnUse"><stop offset="0" stop-color="#fff" stop-opacity="0"/><stop offset="0.45" stop-color="#fff" stop-opacity="0.01"/><stop offset="0.64" stop-color="#fff" stop-opacity="0.04"/><stop offset="0.78" stop-color="#fff" stop-opacity="0.08"/><stop offset="0.89" stop-color="#fff" stop-opacity="0.15"/><stop offset="0.99" stop-color="#fff" stop-opacity="0.24"/><stop offset="1" stop-color="#fff" stop-opacity="0.25"/></linearGradient></defs><title>Artboard 231</title><polygon class="cls-1" points="60 67 12 67 12 5 46 5 60 19 60 67"/><path class="cls-2" d="M47,4H11V68H61V18Zm0,3L58,18H47ZM59,66H13V6H45V20H59Z"/><path class="cls-3" d="M40.75,43.53H28.35l-2.17,4.94a7.68,7.68,0,0,0-.8,2.72,1.57,1.57,0,0,0,.7,1.26,6.18,6.18,0,0,0,3,.7V54H19v-.85a5.51,5.51,0,0,0,2.6-.9,14.07,14.07,0,0,0,2.67-4.5L35.53,22h.83L47.5,48a11.85,11.85,0,0,0,2.44,4.07,5.06,5.06,0,0,0,3.06,1V54H40.37v-.85A4.82,4.82,0,0,0,43,52.52a1.59,1.59,0,0,0,.67-1.29A9.4,9.4,0,0,0,42.68,48Zm-.66-1.71L34.65,29.18,29.08,41.82Z"/><path class="cls-4" d="M61,18,47,4H11V68H61Z"/><rect class="cls-5" x="45" y="20" width="14" height="5"/><polygon class="cls-6" points="61 18 47 4 11 4 11 6 45 6 45 20 59 20 59 68 61 68 61 18"/></svg>