<svg data-name="ICONS" xmlns="http://www.w3.org/2000/svg" viewBox="0 0 72 72"><defs><linearGradient id="a" x1="36" y1="22" x2="36" y2="54" gradientUnits="userSpaceOnUse"><stop offset="0" stop-color="#f7903b"/><stop offset="1" stop-color="#ff5c0d"/></linearGradient><linearGradient id="b" x1="6.467" y1="7.804" x2="58.639" y2="69.981" gradientUnits="userSpaceOnUse"><stop offset="0" stop-color="#fff" stop-opacity="0"/><stop offset=".862" stop-color="#5e5e5e" stop-opacity=".063"/><stop offset="1" stop-opacity=".1"/></linearGradient><linearGradient id="c" x1="52" y1="24.844" x2="52" y2="20.146" gradientUnits="userSpaceOnUse"><stop offset="0" stop-color="#828282" stop-opacity="0"/><stop offset=".862" stop-color="#303030" stop-opacity=".063"/><stop offset="1" stop-opacity=".1"/></linearGradient><linearGradient id="d" x1="48.792" y1="23.208" x2="57.501" y2="14.499" gradientUnits="userSpaceOnUse"><stop offset="0" stop-color="#fff" stop-opacity="0"/><stop offset=".446" stop-color="#fff" stop-opacity=".008"/><stop offset=".636" stop-color="#fff" stop-opacity=".036"/><stop offset=".776" stop-color="#fff" stop-opacity=".085"/><stop offset=".892" stop-color="#fff" stop-opacity=".154"/><stop offset=".993" stop-color="#fff" stop-opacity=".243"/><stop offset="1" stop-color="#fff" stop-opacity=".25"/></linearGradient></defs><path fill="#fff" d="M60 67H12V5h34l14 14v48z"/><path d="M47 4H11v64h50V18zm0 3l11 11H47zm12 59H13V6h32v14h14z" fill="#949494"/><path d="M40.746 43.526H28.35l-2.172 4.937a7.679 7.679 0 0 0-.803 2.722 1.567 1.567 0 0 0 .697 1.257 6.176 6.176 0 0 0 3.01.704V54H19v-.854a5.51 5.51 0 0 0 2.597-.9 14.07 14.07 0 0 0 2.668-4.498L35.528 22h.826L47.5 48.025a11.85 11.85 0 0 0 2.443 4.072A5.065 5.065 0 0 0 53 53.147V54H40.368v-.854a4.815 4.815 0 0 0 2.585-.623 1.592 1.592 0 0 0 .673-1.292 9.397 9.397 0 0 0-.944-3.206zm-.661-1.708l-5.43-12.643-5.573 12.643z" fill="url(#a)"/><path d="M61 18L47 4H11v64h50z" fill="url(#b)"/><path fill="url(#c)" d="M45 20h14v5H45z"/><path fill="url(#d)" d="M61 18L47 4H11v2h34v14h14v48h2V18z"/></svg>