<svg data-name="ICONS" xmlns="http://www.w3.org/2000/svg" viewBox="0 0 72 72"><defs><linearGradient id="a" x1="6.467" y1="7.804" x2="58.639" y2="69.981" gradientUnits="userSpaceOnUse"><stop offset="0" stop-color="#fff" stop-opacity="0"/><stop offset=".862" stop-color="#5e5e5e" stop-opacity=".063"/><stop offset="1" stop-opacity=".1"/></linearGradient><linearGradient id="b" x1="52" y1="24.844" x2="52" y2="20.146" gradientUnits="userSpaceOnUse"><stop offset="0" stop-color="#828282" stop-opacity="0"/><stop offset=".862" stop-color="#303030" stop-opacity=".063"/><stop offset="1" stop-opacity=".1"/></linearGradient><linearGradient id="c" x1="48.792" y1="23.208" x2="57.501" y2="14.499" gradientUnits="userSpaceOnUse"><stop offset="0" stop-color="#fff" stop-opacity="0"/><stop offset=".446" stop-color="#fff" stop-opacity=".008"/><stop offset=".636" stop-color="#fff" stop-opacity=".036"/><stop offset=".776" stop-color="#fff" stop-opacity=".085"/><stop offset=".892" stop-color="#fff" stop-opacity=".154"/><stop offset=".993" stop-color="#fff" stop-opacity=".243"/><stop offset="1" stop-color="#fff" stop-opacity=".25"/></linearGradient></defs><path fill="#fff" d="M60 67H12V5h34l14 14v48z"/><path d="M47 4H11v64h50V18zm0 3l11 11H47zm12 59H13V6h32v14h14z" fill="#949494"/><path fill="#c8c8c8" d="M18 57h36v2H18zM18 52h36v2H18z"/><path d="M36 22a13 13 0 1 0 13 13 13 13 0 0 0-13-13zm9.786 8H42a15.817 15.817 0 0 0-2.003-5.237A11.049 11.049 0 0 1 45.786 30zM40.5 35a23.402 23.402 0 0 1-.194 3h-8.612a23.31 23.31 0 0 1 0-6h8.612a23.402 23.402 0 0 1 .194 3zM36 46c-1.323 0-3.074-2.238-3.95-6h7.9c-.876 3.762-2.627 6-3.95 6zm-3.95-16c.876-3.762 2.627-6 3.95-6s3.074 2.238 3.95 6zm-.047-5.237A15.817 15.817 0 0 0 30 30h-3.786a11.049 11.049 0 0 1 5.789-5.237zM25.427 32h4.254a24.965 24.965 0 0 0 0 6h-4.254a10.764 10.764 0 0 1 0-6zm.787 8H30a15.817 15.817 0 0 0 2.003 5.237A11.049 11.049 0 0 1 26.214 40zm13.783 5.237A15.817 15.817 0 0 0 42 40h3.786a11.049 11.049 0 0 1-5.789 5.237zM46.573 38H42.32a24.965 24.965 0 0 0 0-6h4.254a10.764 10.764 0 0 1 0 6z" fill="#69afe5"/><path d="M61 18L47 4H11v64h50z" fill="url(#a)"/><path fill="url(#b)" d="M45 20h14v5H45z"/><path fill="url(#c)" d="M61 18L47 4H11v2h34v14h14v48h2V18z"/></svg>