<svg id="ICONS" xmlns="http://www.w3.org/2000/svg" xmlns:xlink="http://www.w3.org/1999/xlink" viewBox="0 0 72 72"><defs><style>.cls-1{fill:#fff;}.cls-2{fill:#a6a6a6;}.cls-3{fill:url(#linear-gradient);}.cls-4{fill:url(#linear-gradient-2);}</style><linearGradient id="linear-gradient" x1="12.99" y1="8.57" x2="59.11" y2="63.55" gradientUnits="userSpaceOnUse"><stop offset="0" stop-color="#fff" stop-opacity="0"/><stop offset="0.86" stop-color="#5e5e5e" stop-opacity="0.06"/><stop offset="1" stop-opacity="0.1"/></linearGradient><linearGradient id="linear-gradient-2" x1="35.97" y1="36.03" x2="63.97" y2="8.7" gradientUnits="userSpaceOnUse"><stop offset="0" stop-color="#fff" stop-opacity="0"/><stop offset="0.45" stop-color="#fff" stop-opacity="0.01"/><stop offset="0.64" stop-color="#fff" stop-opacity="0.04"/><stop offset="0.78" stop-color="#fff" stop-opacity="0.08"/><stop offset="0.89" stop-color="#fff" stop-opacity="0.15"/><stop offset="0.99" stop-color="#fff" stop-opacity="0.24"/><stop offset="1" stop-color="#fff" stop-opacity="0.25"/></linearGradient></defs><title>Artboard 231</title><rect class="cls-1" x="4" y="13" width="64" height="46"/><path class="cls-2" d="M4,13V59H68V13ZM66,57H6V15H66Z"/><rect class="cls-2" x="12" y="15" width="2" height="2"/><rect class="cls-2" x="8" y="15" width="2" height="2"/><rect class="cls-2" x="16" y="15" width="50" height="2"/><path class="cls-2" d="M36.5,23A14.5,14.5,0,1,0,51,37.5,14.5,14.5,0,0,0,36.5,23Zm10.91,9H43.19A17.64,17.64,0,0,0,41,26.16,12.32,12.32,0,0,1,47.41,32Zm-5.66,5.5a27.3,27.3,0,0,1-.23,3.5h-10a27.2,27.2,0,0,1,0-7h10A27.3,27.3,0,0,1,41.75,37.5ZM36.5,49.69c-1.48,0-3.43-2.5-4.41-6.69h8.81C39.93,47.2,38,49.69,36.5,49.69ZM32.09,32c1-4.2,2.93-6.69,4.41-6.69s3.43,2.5,4.41,6.69ZM32,26.16A17.64,17.64,0,0,0,29.81,32H25.59A12.32,12.32,0,0,1,32,26.16ZM24.61,34h5a29.13,29.13,0,0,0,0,7h-5a12.56,12.56,0,0,1,0-7Zm1,9h4.22A17.64,17.64,0,0,0,32,48.84,12.32,12.32,0,0,1,25.59,43ZM41,48.84A17.64,17.64,0,0,0,43.19,43h4.22A12.32,12.32,0,0,1,41,48.84ZM48.39,41h-5a29.13,29.13,0,0,0,0-7h5a12.56,12.56,0,0,1,0,7Z"/><rect class="cls-3" x="4" y="13" width="64" height="46"/><polygon class="cls-4" points="68 13 4 13 4 15 16 15 16 17 66 17 66 57 66 59 68 59 68 13"/></svg>