<svg data-name="ICONS" xmlns="http://www.w3.org/2000/svg" viewBox="0 0 72 72"><defs><linearGradient id="a" x1="12.987" y1="8.574" x2="59.115" y2="63.547" gradientUnits="userSpaceOnUse"><stop offset="0" stop-color="#fff" stop-opacity="0"/><stop offset=".862" stop-color="#5e5e5e" stop-opacity=".063"/><stop offset="1" stop-opacity=".1"/></linearGradient><linearGradient id="b" x1="35.967" y1="36.032" x2="63.967" y2="8.698" gradientUnits="userSpaceOnUse"><stop offset="0" stop-color="#fff" stop-opacity="0"/><stop offset=".446" stop-color="#fff" stop-opacity=".008"/><stop offset=".636" stop-color="#fff" stop-opacity=".036"/><stop offset=".776" stop-color="#fff" stop-opacity=".085"/><stop offset=".892" stop-color="#fff" stop-opacity=".154"/><stop offset=".993" stop-color="#fff" stop-opacity=".243"/><stop offset="1" stop-color="#fff" stop-opacity=".25"/></linearGradient></defs><path fill="#fff" d="M4 13h64v46H4z"/><path d="M4 13v46h64V13zm62 44H6V15h60z" fill="#949494"/><path fill="#949494" d="M12 15h2v2h-2zM8 15h2v2H8zM16 15h50v2H16z"/><path d="M36.5 23A14.5 14.5 0 1 0 51 37.5 14.5 14.5 0 0 0 36.5 23zm10.915 9h-4.222a17.642 17.642 0 0 0-2.235-5.841A12.324 12.324 0 0 1 47.415 32zm-5.665 5.5a27.303 27.303 0 0 1-.226 3.5H31.476a27.196 27.196 0 0 1 0-7h10.048a27.303 27.303 0 0 1 .226 3.5zM36.5 49.692c-1.476 0-3.428-2.496-4.405-6.692h8.81c-.977 4.196-2.93 6.692-4.405 6.692zM32.095 32c.977-4.196 2.93-6.692 4.405-6.692s3.428 2.496 4.405 6.692zm-.053-5.841A17.642 17.642 0 0 0 29.807 32h-4.222a12.324 12.324 0 0 1 6.457-5.841zM24.608 34h4.964a29.126 29.126 0 0 0 0 7h-4.964a12.558 12.558 0 0 1 0-7zm.977 9h4.222a17.642 17.642 0 0 0 2.235 5.841A12.324 12.324 0 0 1 25.585 43zm15.373 5.841A17.642 17.642 0 0 0 43.193 43h4.222a12.324 12.324 0 0 1-6.457 5.841zM48.392 41h-4.964a29.126 29.126 0 0 0 0-7h4.964a12.558 12.558 0 0 1 0 7z" fill="#a6a6a6"/><path fill="url(#a)" d="M4 13h64v46H4z"/><path fill="url(#b)" d="M68 13H4v2h12v2h50v42h2V13z"/></svg>