<svg xmlns="http://www.w3.org/2000/svg" xmlns:xlink="http://www.w3.org/1999/xlink" viewBox="0 0 72 72"><defs><style>.cls-1{fill:#fff;}.cls-2{fill:#a6a6a6;}.cls-3{fill:#c8c8c8;}.cls-4{fill:#69afe5;}.cls-5{fill:url(#linear-gradient);}.cls-6{fill:url(#linear-gradient-2);}.cls-7{fill:url(#linear-gradient-3);}</style><linearGradient id="linear-gradient" x1="6.47" y1="7.8" x2="58.64" y2="69.98" gradientUnits="userSpaceOnUse"><stop offset="0" stop-color="#fff" stop-opacity="0"/><stop offset="0.86" stop-color="#5e5e5e" stop-opacity="0.06"/><stop offset="1" stop-opacity="0.1"/></linearGradient><linearGradient id="linear-gradient-2" x1="52" y1="24.84" x2="52" y2="20.15" gradientUnits="userSpaceOnUse"><stop offset="0" stop-color="#828282" stop-opacity="0"/><stop offset="0.86" stop-color="#303030" stop-opacity="0.06"/><stop offset="1" stop-opacity="0.1"/></linearGradient><linearGradient id="linear-gradient-3" x1="48.79" y1="23.21" x2="57.5" y2="14.5" gradientUnits="userSpaceOnUse"><stop offset="0" stop-color="#fff" stop-opacity="0"/><stop offset="0.45" stop-color="#fff" stop-opacity="0.01"/><stop offset="0.64" stop-color="#fff" stop-opacity="0.04"/><stop offset="0.78" stop-color="#fff" stop-opacity="0.08"/><stop offset="0.89" stop-color="#fff" stop-opacity="0.15"/><stop offset="0.99" stop-color="#fff" stop-opacity="0.24"/><stop offset="1" stop-color="#fff" stop-opacity="0.25"/></linearGradient></defs><title>Artboard 263-72</title><g id="ICONS"><polygon class="cls-1" points="60 67 12 67 12 5 46 5 60 19 60 67"/><path class="cls-2" d="M47,4H11V68H61V18Zm0,3L58,18H47ZM59,66H13V6H45V20H59Z"/><rect class="cls-3" x="22" y="27" width="32" height="2"/><rect class="cls-3" x="22" y="35" width="27" height="2"/><rect class="cls-3" x="22" y="39" width="27" height="2"/><rect class="cls-3" x="22" y="43" width="22" height="2"/><rect class="cls-3" x="22" y="47" width="22" height="2"/><rect class="cls-3" x="22" y="51" width="32" height="2"/><rect class="cls-3" x="22" y="55" width="32" height="2"/><rect class="cls-4" x="18" y="27" width="2" height="2"/><rect class="cls-3" x="22" y="31" width="32" height="2"/><rect class="cls-4" x="18" y="31" width="2" height="2"/><rect class="cls-4" x="18" y="35" width="2" height="2"/><rect class="cls-4" x="18" y="39" width="2" height="2"/><rect class="cls-4" x="18" y="43" width="2" height="2"/><rect class="cls-4" x="18" y="47" width="2" height="2"/><rect class="cls-4" x="18" y="51" width="2" height="2"/><rect class="cls-4" x="18" y="55" width="2" height="2"/><rect class="cls-3" x="22" y="59" width="32" height="2"/><rect class="cls-4" x="18" y="59" width="2" height="2"/></g><g id="SHADOW_OVERLAY" data-name="SHADOW OVERLAY"><path class="cls-5" d="M61,18,47,4H11V68H61Z"/><rect class="cls-6" x="45" y="20" width="14" height="5"/><polygon class="cls-7" points="61 18 47 4 11 4 11 6 45 6 45 20 59 20 59 68 61 68 61 18"/></g></svg>