<svg id="ICONS" xmlns="http://www.w3.org/2000/svg" xmlns:xlink="http://www.w3.org/1999/xlink" viewBox="0 0 72 72"><defs><style>.cls-1{fill:#fff;}.cls-2{fill:#a6a6a6;}.cls-3{fill:url(#linear-gradient);}.cls-4{fill:url(#linear-gradient-2);}.cls-5{fill:url(#linear-gradient-3);}.cls-6{fill:url(#linear-gradient-4);}</style><linearGradient id="linear-gradient" x1="11.23" y1="8" x2="58.88" y2="64.78" gradientUnits="userSpaceOnUse"><stop offset="0" stop-color="#fff" stop-opacity="0"/><stop offset="0.86" stop-color="#5e5e5e" stop-opacity="0.06"/><stop offset="1" stop-opacity="0.1"/></linearGradient><linearGradient id="linear-gradient-2" x1="52" y1="24.84" x2="52" y2="20.15" gradientUnits="userSpaceOnUse"><stop offset="0" stop-color="#828282" stop-opacity="0"/><stop offset="0.86" stop-color="#303030" stop-opacity="0.06"/><stop offset="1" stop-opacity="0.1"/></linearGradient><linearGradient id="linear-gradient-3" x1="2700.76" y1="18.97" x2="2655.08" y2="77.44" gradientTransform="matrix(-1, 0, 0, 1, 2699, 0)" xlink:href="#linear-gradient"/><linearGradient id="linear-gradient-4" x1="36" y1="67.84" x2="36" y2="63.15" xlink:href="#linear-gradient-2"/></defs><title>Artboard 231</title><polygon class="cls-1" points="47 4 16 4 16 9 11 9 11 68 56 68 56 63 61 63 61 18 47 4"/><path class="cls-2" d="M47,4H16V9H11V68H56V63h5V18Zm0,3L58,18H47Zm7,59H13V11h3V63H54Zm5-5H18V6H45V20H59Z"/><path class="cls-3" d="M47,4H16V63H61V18Z"/><rect class="cls-4" x="45" y="20" width="14" height="5"/><polygon class="cls-5" points="16 9 16 63 56 63 56 68 11 68 11 9 16 9"/><rect class="cls-6" x="16" y="63" width="40" height="5"/></svg>