<svg data-name="ICONS" xmlns="http://www.w3.org/2000/svg" viewBox="0 0 72 72"><defs><linearGradient id="a" x1="13.929" y1="5.738" x2="64.036" y2="65.453" gradientUnits="userSpaceOnUse"><stop offset="0" stop-color="#fff" stop-opacity="0"/><stop offset=".862" stop-color="#5e5e5e" stop-opacity=".063"/><stop offset="1" stop-opacity=".1"/></linearGradient><linearGradient id="b" x1="25.966" y1="65.803" x2="26.798" y2="58.018" gradientUnits="userSpaceOnUse"><stop offset="0" stop-color="#828282" stop-opacity="0"/><stop offset=".862" stop-color="#303030" stop-opacity=".126"/><stop offset="1" stop-opacity=".2"/></linearGradient><linearGradient id="c" x1="21.5" y1="58.75" x2="21.5" y2="21.167" gradientUnits="userSpaceOnUse"><stop offset="0" stop-color="#fff" stop-opacity="0"/><stop offset=".526" stop-color="#fff" stop-opacity=".007"/><stop offset=".715" stop-color="#fff" stop-opacity=".034"/><stop offset=".85" stop-color="#fff" stop-opacity=".08"/><stop offset=".959" stop-color="#fff" stop-opacity=".146"/><stop offset="1" stop-color="#fff" stop-opacity=".18"/></linearGradient><linearGradient id="d" x1="52.264" y1="22.235" x2="68.212" y2="6.288" gradientUnits="userSpaceOnUse"><stop offset="0" stop-color="#fff" stop-opacity="0"/><stop offset=".446" stop-color="#fff" stop-opacity=".008"/><stop offset=".636" stop-color="#fff" stop-opacity=".036"/><stop offset=".776" stop-color="#fff" stop-opacity=".085"/><stop offset=".892" stop-color="#fff" stop-opacity=".154"/><stop offset=".993" stop-color="#fff" stop-opacity=".243"/><stop offset="1" stop-color="#fff" stop-opacity=".25"/></linearGradient></defs><path fill="#fff" d="M17 5h43v4h5v12h-5v46H17V5z"/><path d="M59 6v4h5v10h-5v46H18V6h41m2-2H16v64h45V22h5V8h-5V4z" fill="#949494"/><path fill="#7719aa" d="M6 25l31-5v40L6 55V25z"/><path d="M29 49h-3.79l-6.873-11.31a16.551 16.551 0 0 1-.837-1.493h-.047q.093.954.093 2.912V49H14V31h4.047l6.616 10.958q.453.74.837 1.469h.047a20.694 20.694 0 0 1-.093-2.473V31H29z" fill="#fff"/><path fill="#c8c8c8" d="M37 50h17v2H37zM37 55h17v2H37zM37 45h17v2H37zM37 40h17v2H37zM37 35h17v2H37zM37 30h17v2H37zM37 25h17v2H37zM23 11h14v2H23z"/><path d="M61 8V4H16v19.387L6 25v30l10 1.613V68h45V22h5V8z" fill="url(#a)"/><path fill="url(#b)" d="M37 65H16v-8.38L37 60v5z"/><path fill="url(#c)" d="M37 20L6 25v30l31 5V20z"/><path d="M59 6v4h5v10h-5v46H18V6h41m2-2H16v64h45V22h5V8h-5V4z" fill="url(#d)"/></svg>