<svg id="ICONS" xmlns="http://www.w3.org/2000/svg" xmlns:xlink="http://www.w3.org/1999/xlink" viewBox="0 0 72 72"><defs><style>.cls-1{fill:#fff;}.cls-2{fill:#a6a6a6;}.cls-3{fill:#803a7a;}.cls-4{fill:#c8c8c8;}.cls-5{fill:url(#linear-gradient);}.cls-6{fill:url(#linear-gradient-2);}.cls-7{fill:url(#linear-gradient-3);}.cls-8{fill:url(#linear-gradient-4);}</style><linearGradient id="linear-gradient" x1="13.93" y1="5.74" x2="64.04" y2="65.45" gradientUnits="userSpaceOnUse"><stop offset="0" stop-color="#fff" stop-opacity="0"/><stop offset="0.86" stop-color="#5e5e5e" stop-opacity="0.06"/><stop offset="1" stop-opacity="0.1"/></linearGradient><linearGradient id="linear-gradient-2" x1="25.97" y1="65.8" x2="26.8" y2="58.02" gradientUnits="userSpaceOnUse"><stop offset="0" stop-color="#828282" stop-opacity="0"/><stop offset="0.86" stop-color="#303030" stop-opacity="0.13"/><stop offset="1" stop-opacity="0.2"/></linearGradient><linearGradient id="linear-gradient-3" x1="21.5" y1="58.75" x2="21.5" y2="21.17" gradientUnits="userSpaceOnUse"><stop offset="0" stop-color="#fff" stop-opacity="0"/><stop offset="0.53" stop-color="#fff" stop-opacity="0.01"/><stop offset="0.72" stop-color="#fff" stop-opacity="0.03"/><stop offset="0.85" stop-color="#fff" stop-opacity="0.08"/><stop offset="0.96" stop-color="#fff" stop-opacity="0.15"/><stop offset="1" stop-color="#fff" stop-opacity="0.18"/></linearGradient><linearGradient id="linear-gradient-4" x1="52.26" y1="22.24" x2="68.21" y2="6.29" gradientUnits="userSpaceOnUse"><stop offset="0" stop-color="#fff" stop-opacity="0"/><stop offset="0.45" stop-color="#fff" stop-opacity="0.01"/><stop offset="0.64" stop-color="#fff" stop-opacity="0.04"/><stop offset="0.78" stop-color="#fff" stop-opacity="0.08"/><stop offset="0.89" stop-color="#fff" stop-opacity="0.15"/><stop offset="0.99" stop-color="#fff" stop-opacity="0.24"/><stop offset="1" stop-color="#fff" stop-opacity="0.25"/></linearGradient></defs><title>Artboard 231</title><polygon class="cls-1" points="17 5 60 5 60 9 65 9 65 21 60 21 60 67 17 67 17 5"/><path class="cls-2" d="M59,6v4h5V20H59V66H18V6H59m2-2H16V68H61V22h5V8H61V4Z"/><polygon class="cls-3" points="6 25 37 20 37 60 6 55 6 25"/><path class="cls-1" d="M29,49H25.21L18.34,37.69a16.55,16.55,0,0,1-.84-1.49h0q.09,1,.09,2.91V49H14V31h4l6.62,11q.45.74.84,1.47h0A20.69,20.69,0,0,1,25.45,41V31H29Z"/><rect class="cls-4" x="37" y="50" width="17" height="2"/><rect class="cls-4" x="37" y="55" width="17" height="2"/><rect class="cls-4" x="37" y="45" width="17" height="2"/><rect class="cls-4" x="37" y="40" width="17" height="2"/><rect class="cls-4" x="37" y="35" width="17" height="2"/><rect class="cls-4" x="37" y="30" width="17" height="2"/><rect class="cls-4" x="37" y="25" width="17" height="2"/><rect class="cls-4" x="23" y="11" width="14" height="2"/><path class="cls-5" d="M61,8V4H16V23.39L6,25V55l10,1.61V68H61V22h5V8Z"/><polygon class="cls-6" points="37 65 16 65 16 56.62 37 60 37 65"/><polygon class="cls-7" points="37 20 6 25 6 55 37 60 37 20"/><path class="cls-8" d="M59,6v4h5V20H59V66H18V6H59m2-2H16V68H61V22h5V8H61V4Z"/></svg>