<svg id="ICONS" xmlns="http://www.w3.org/2000/svg" xmlns:xlink="http://www.w3.org/1999/xlink" viewBox="0 0 64 64"><defs><style>.cls-1{fill:#a6a6a6;}.cls-2{fill:#fff;}.cls-3{fill:#c8c8c8;}.cls-4{fill:#803a7a;}.cls-5{fill:url(#linear-gradient);}.cls-6{fill:url(#linear-gradient-2);}.cls-7{fill:url(#linear-gradient-3);}.cls-8{fill:url(#linear-gradient-4);}.cls-9{fill:url(#linear-gradient-5);}.cls-10{fill:url(#linear-gradient-6);}.cls-11{fill:url(#linear-gradient-7);}</style><linearGradient id="linear-gradient" x1="12.14" y1="5.56" x2="56.24" y2="58.12" gradientUnits="userSpaceOnUse"><stop offset="0" stop-color="#fff" stop-opacity="0"/><stop offset="0.86" stop-color="#5e5e5e" stop-opacity="0.06"/><stop offset="1" stop-opacity="0.1"/></linearGradient><linearGradient id="linear-gradient-2" x1="19" y1="52.87" x2="19" y2="19.05" gradientUnits="userSpaceOnUse"><stop offset="0" stop-color="#fff" stop-opacity="0"/><stop offset="0.53" stop-color="#fff" stop-opacity="0.01"/><stop offset="0.72" stop-color="#fff" stop-opacity="0.03"/><stop offset="0.85" stop-color="#fff" stop-opacity="0.08"/><stop offset="0.96" stop-color="#fff" stop-opacity="0.15"/><stop offset="1" stop-color="#fff" stop-opacity="0.18"/></linearGradient><linearGradient id="linear-gradient-3" x1="57.88" y1="26" x2="53.99" y2="26" gradientUnits="userSpaceOnUse"><stop offset="0" stop-color="#a6a6a6" stop-opacity="0"/><stop offset="1" stop-opacity="0.1"/></linearGradient><linearGradient id="linear-gradient-4" x1="57.88" y1="36" x2="53.99" y2="36" xlink:href="#linear-gradient-3"/><linearGradient id="linear-gradient-5" x1="57.88" y1="46" x2="53.99" y2="46" xlink:href="#linear-gradient-3"/><linearGradient id="linear-gradient-6" x1="45.04" y1="20.96" x2="60.87" y2="5.13" gradientUnits="userSpaceOnUse"><stop offset="0" stop-color="#fff" stop-opacity="0"/><stop offset="0.45" stop-color="#fff" stop-opacity="0.01"/><stop offset="0.64" stop-color="#fff" stop-opacity="0.04"/><stop offset="0.78" stop-color="#fff" stop-opacity="0.08"/><stop offset="0.89" stop-color="#fff" stop-opacity="0.15"/><stop offset="0.99" stop-color="#fff" stop-opacity="0.24"/><stop offset="1" stop-color="#fff" stop-opacity="0.25"/></linearGradient><linearGradient id="linear-gradient-7" x1="20.54" y1="58.8" x2="21.26" y2="52.03" gradientUnits="userSpaceOnUse"><stop offset="0" stop-color="#828282" stop-opacity="0"/><stop offset="0.86" stop-color="#303030" stop-opacity="0.13"/><stop offset="1" stop-opacity="0.2"/></linearGradient></defs><title>Artboard 230</title><rect class="cls-1" x="10" y="50" width="6" height="2" rx="1" ry="1"/><polygon class="cls-2" points="15 5 53 5 53 9 57 9 57 19 53 19 53 59 15 59 15 5"/><path class="cls-1" d="M52,6v4h4v8H52V58H16V6H52m2-2H14V60H54V20h4V8H54V4Z"/><rect class="cls-3" x="32" y="20" width="12" height="2"/><rect class="cls-3" x="32" y="24" width="12" height="2"/><rect class="cls-3" x="32" y="28" width="12" height="2"/><rect class="cls-1" x="54" y="22" width="4" height="8"/><rect class="cls-1" x="54" y="32" width="4" height="8"/><rect class="cls-1" x="54" y="42" width="4" height="8"/><polygon class="cls-4" points="6 22 32 18 32 54 6 50 6 22"/><path class="cls-2" d="M27,44H23L15.63,33.95a14.32,14.32,0,0,1-.89-1.33h0a24.44,24.44,0,0,1,.1,2.59V44H11V28h4.32l7.06,9.74q.48.66.89,1.31h0a15.4,15.4,0,0,1-.1-2.2V28H27Z"/><rect class="cls-1" x="10" y="6" width="6" height="2" rx="1" ry="1"/><rect class="cls-1" x="10" y="12" width="6" height="2" rx="1" ry="1"/><rect class="cls-1" x="10" y="18" width="6" height="2" rx="1" ry="1"/><rect class="cls-1" x="10" y="56" width="6" height="2" rx="1" ry="1"/><path class="cls-5" d="M54,4H14V60H54V20h4V8H54V4Z"/><polygon class="cls-6" points="32 18 6 22 6 50 32 54 32 18"/><rect class="cls-7" x="54" y="22" width="4" height="8"/><rect class="cls-8" x="54" y="32" width="4" height="8"/><rect class="cls-9" x="54" y="42" width="4" height="8"/><path class="cls-10" d="M52,6v4h4v8H52V58H16V6H52m2-2H14V60H54V20h4V8H54V4Z"/><path class="cls-11" d="M15.84,51.51l-5.76-.89A1,1,0,0,0,10,51a1,1,0,0,0,1,1h3v4H11a1,1,0,0,0,0,2H32V54L15.83,51.52Z"/></svg>