<svg data-name="ICONS" xmlns="http://www.w3.org/2000/svg" xmlns:xlink="http://www.w3.org/1999/xlink" viewBox="0 0 72 72"><defs><linearGradient id="b" x1="13.929" y1="5.738" x2="64.036" y2="65.453" gradientUnits="userSpaceOnUse"><stop offset="0" stop-color="#fff" stop-opacity="0"/><stop offset=".862" stop-color="#5e5e5e" stop-opacity=".063"/><stop offset="1" stop-opacity=".1"/></linearGradient><linearGradient id="c" x1="23.491" y1="67.234" x2="24.528" y2="57.532" gradientUnits="userSpaceOnUse"><stop offset="0" stop-color="#828282" stop-opacity="0"/><stop offset=".862" stop-color="#303030" stop-opacity=".126"/><stop offset="1" stop-opacity=".2"/></linearGradient><linearGradient id="d" x1="21.5" y1="58.75" x2="21.5" y2="21.167" gradientUnits="userSpaceOnUse"><stop offset="0" stop-color="#fff" stop-opacity="0"/><stop offset=".526" stop-color="#fff" stop-opacity=".007"/><stop offset=".715" stop-color="#fff" stop-opacity=".034"/><stop offset=".85" stop-color="#fff" stop-opacity=".08"/><stop offset=".959" stop-color="#fff" stop-opacity=".146"/><stop offset="1" stop-color="#fff" stop-opacity=".18"/></linearGradient><linearGradient id="a" x1="65.844" y1="29.001" x2="60.987" y2="29.001" gradientUnits="userSpaceOnUse"><stop offset="0" stop-color="#a6a6a6" stop-opacity="0"/><stop offset="1" stop-opacity=".1"/></linearGradient><linearGradient id="e" x1="65.844" y1="41.001" x2="60.987" y2="41.001" xlink:href="#a"/><linearGradient id="f" x1="65.844" y1="53.001" x2="60.987" y2="53.001" xlink:href="#a"/><linearGradient id="g" x1="11.25" y1="63.25" x2="66.25" y2="8.25" gradientUnits="userSpaceOnUse"><stop offset="0" stop-color="#fff" stop-opacity="0"/><stop offset=".446" stop-color="#fff" stop-opacity=".008"/><stop offset=".636" stop-color="#fff" stop-opacity=".036"/><stop offset=".776" stop-color="#fff" stop-opacity=".085"/><stop offset=".892" stop-color="#fff" stop-opacity=".154"/><stop offset=".993" stop-color="#fff" stop-opacity=".243"/><stop offset="1" stop-color="#fff" stop-opacity=".25"/></linearGradient></defs><path d="M59 6v4h5v10h-5v46H18V6h41M16 4v64h45V22h5V8h-5V4" fill="#949494"/><rect x="11" y="6" width="7" height="2" rx="1" ry="1" fill="#949494"/><rect x="11" y="12" width="7" height="2" rx="1" ry="1" fill="#949494"/><rect x="11" y="18" width="7" height="2" rx="1" ry="1" fill="#949494"/><rect x="11" y="64" width="7" height="2" rx="1" ry="1" fill="#949494"/><rect x="11" y="58" width="7" height="2" rx="1" ry="1" fill="#949494"/><path fill="#fff" d="M17 5h43v4h5v12h-5v46H17V5z"/><path d="M59 6v4h5v10h-5v46H18V6h41m2-2H16v64h45V22h5V8h-5V4z" fill="#949494"/><path fill="#c8c8c8" d="M37 27h13v2H37zM37 22h13v2H37zM37 32h13v2H37z"/><path fill="#949494" d="M61 24h5v10h-5zM61 36h5v10h-5zM61 48h5v10h-5z"/><path fill="#7719aa" d="M6 25l31-5v40L6 55V25z"/><path d="M29 49h-3.79l-6.873-11.31a16.551 16.551 0 0 1-.837-1.493h-.047q.093.954.093 2.912V49H14V31h4.047l6.616 10.958q.453.74.837 1.469h.047a20.694 20.694 0 0 1-.093-2.473V31H29z" fill="#fff"/><path d="M61 8V4H16v19.387L6 25v30l10 1.613V68h45V22h5V8z" fill="url(#b)"/><path d="M16 56.62V58h-4a1 1 0 0 0 0 2h4v4h-4a1 1 0 0 0 0 2h25v-6z" fill="url(#c)"/><path fill="url(#d)" d="M37 20L6 25v30l31 5V20z"/><path fill="url(#a)" d="M61 24h5v10.001h-5z"/><path fill="url(#e)" d="M61 36h5v10.001h-5z"/><path fill="url(#f)" d="M61 48h5v10.001h-5z"/><path d="M59 6v4h5v10h-5v46H18V6h41m2-2H16v64h45V22h5V8h-5V4z" fill="url(#g)"/></svg>