<svg id="ICONS" xmlns="http://www.w3.org/2000/svg" xmlns:xlink="http://www.w3.org/1999/xlink" viewBox="0 0 72 72"><defs><style>.cls-1{fill:#fff;}.cls-2{fill:#a6a6a6;}.cls-3{fill:#c8c8c8;}.cls-4{fill:#d65532;}.cls-5{fill:url(#linear-gradient);}.cls-6{fill:url(#linear-gradient-2);}.cls-7{fill:url(#linear-gradient-3);}.cls-8{fill:url(#linear-gradient-4);}.cls-9{fill:url(#linear-gradient-5);}.cls-10{fill:url(#linear-gradient-6);}.cls-11{fill:url(#linear-gradient-7);}.cls-12{fill:url(#linear-gradient-8);}.cls-13{fill:url(#linear-gradient-9);}.cls-14{fill:url(#linear-gradient-10);}.cls-15{fill:url(#linear-gradient-11);}</style><linearGradient id="linear-gradient" x1="6.47" y1="7.8" x2="58.64" y2="69.98" gradientUnits="userSpaceOnUse"><stop offset="0" stop-color="#fff" stop-opacity="0"/><stop offset="0.86" stop-color="#5e5e5e" stop-opacity="0.06"/><stop offset="1" stop-opacity="0.1"/></linearGradient><linearGradient id="linear-gradient-2" x1="52" y1="24.84" x2="52" y2="20.15" gradientUnits="userSpaceOnUse"><stop offset="0" stop-color="#828282" stop-opacity="0"/><stop offset="0.86" stop-color="#303030" stop-opacity="0.06"/><stop offset="1" stop-opacity="0.1"/></linearGradient><linearGradient id="linear-gradient-3" x1="16" y1="64.84" x2="16" y2="60.15" xlink:href="#linear-gradient-2"/><linearGradient id="linear-gradient-4" x1="36" y1="65.87" x2="36" y2="62.12" xlink:href="#linear-gradient-2"/><linearGradient id="linear-gradient-5" x1="36" y1="49.87" x2="36" y2="46.12" xlink:href="#linear-gradient-2"/><linearGradient id="linear-gradient-6" x1="56" y1="64.84" x2="56" y2="60.15" xlink:href="#linear-gradient-2"/><linearGradient id="linear-gradient-7" x1="15" y1="52.25" x2="15" y2="46.18" gradientUnits="userSpaceOnUse"><stop offset="0" stop-color="#fff" stop-opacity="0"/><stop offset="0.34" stop-color="#fff" stop-opacity="0.04"/><stop offset="0.9" stop-color="#fff" stop-opacity="0.13"/><stop offset="1" stop-color="#fff" stop-opacity="0.15"/></linearGradient><linearGradient id="linear-gradient-8" x1="57" y1="52.25" x2="57" y2="46.18" xlink:href="#linear-gradient-7"/><linearGradient id="linear-gradient-9" x1="36" y1="61.72" x2="36" y2="59.44" xlink:href="#linear-gradient-7"/><linearGradient id="linear-gradient-10" x1="36" y1="52.07" x2="36" y2="44.47" xlink:href="#linear-gradient-7"/><linearGradient id="linear-gradient-11" x1="48.79" y1="23.21" x2="57.5" y2="14.5" gradientUnits="userSpaceOnUse"><stop offset="0" stop-color="#fff" stop-opacity="0"/><stop offset="0.45" stop-color="#fff" stop-opacity="0.01"/><stop offset="0.64" stop-color="#fff" stop-opacity="0.04"/><stop offset="0.78" stop-color="#fff" stop-opacity="0.08"/><stop offset="0.89" stop-color="#fff" stop-opacity="0.15"/><stop offset="0.99" stop-color="#fff" stop-opacity="0.24"/><stop offset="1" stop-color="#fff" stop-opacity="0.25"/></linearGradient></defs><title>Artboard 231</title><polygon class="cls-1" points="60 67 12 67 12 5 46 5 60 19 60 67"/><path class="cls-2" d="M47,4H11V68H61V18Zm0,3L58,18H47ZM59,66H13V6H45V20H59Z"/><rect class="cls-3" x="18" y="35" width="36" height="2"/><rect class="cls-3" x="18" y="30" width="36" height="2"/><rect class="cls-3" x="18" y="25" width="36" height="2"/><rect class="cls-3" x="18" y="11" width="14" height="2"/><path class="cls-4" d="M45,46V59H27V46H45m3-3H24V62H48V43Z"/><rect class="cls-4" x="9" y="45" width="12" height="15"/><rect class="cls-4" x="51" y="45" width="12" height="15"/><path class="cls-5" d="M63,45H61V18L47,4H11V45H9V60h2v8H61V60h2Z"/><rect class="cls-6" x="45" y="20" width="14" height="5"/><rect class="cls-7" x="11" y="60" width="10" height="5"/><rect class="cls-8" x="24" y="62" width="24" height="4"/><rect class="cls-9" x="27" y="46" width="18" height="4"/><rect class="cls-10" x="51" y="60" width="10" height="5"/><rect class="cls-11" x="9" y="45" width="12" height="8"/><rect class="cls-12" x="51" y="45" width="12" height="8"/><rect class="cls-13" x="27" y="59" width="18" height="3"/><polygon class="cls-14" points="48 53 45 53 45 46 27 46 27 53 24 53 24 43 48 43 48 53"/><polygon class="cls-15" points="61 18 47 4 11 4 11 6 45 6 45 20 59 20 59 68 61 68 61 18"/></svg>