<svg data-name="ICONS" xmlns="http://www.w3.org/2000/svg" xmlns:xlink="http://www.w3.org/1999/xlink" viewBox="0 0 72 72"><defs><linearGradient id="c" x1="6.467" y1="7.804" x2="58.639" y2="69.981" gradientUnits="userSpaceOnUse"><stop offset="0" stop-color="#fff" stop-opacity="0"/><stop offset=".862" stop-color="#5e5e5e" stop-opacity=".063"/><stop offset="1" stop-opacity=".1"/></linearGradient><linearGradient id="a" x1="52" y1="24.844" x2="52" y2="20.146" gradientUnits="userSpaceOnUse"><stop offset="0" stop-color="#828282" stop-opacity="0"/><stop offset=".862" stop-color="#303030" stop-opacity=".063"/><stop offset="1" stop-opacity=".1"/></linearGradient><linearGradient id="d" x1="16" y1="64.844" x2="16" y2="60.146" xlink:href="#a"/><linearGradient id="e" x1="36" y1="65.875" x2="36" y2="62.117" xlink:href="#a"/><linearGradient id="f" x1="36" y1="49.875" x2="36" y2="46.117" xlink:href="#a"/><linearGradient id="g" x1="56" y1="64.844" x2="56" y2="60.146" xlink:href="#a"/><linearGradient id="b" x1="15" y1="52.253" x2="15" y2="46.176" gradientUnits="userSpaceOnUse"><stop offset="0" stop-color="#fff" stop-opacity="0"/><stop offset=".343" stop-color="#fff" stop-opacity=".035"/><stop offset=".9" stop-color="#fff" stop-opacity=".13"/><stop offset="1" stop-color="#fff" stop-opacity=".15"/></linearGradient><linearGradient id="h" x1="57" y1="52.253" x2="57" y2="46.176" xlink:href="#b"/><linearGradient id="i" x1="36" y1="61.72" x2="36" y2="59.441" xlink:href="#b"/><linearGradient id="j" x1="36" y1="52.066" x2="36" y2="44.471" xlink:href="#b"/><linearGradient id="k" x1="48.792" y1="23.208" x2="57.501" y2="14.499" gradientUnits="userSpaceOnUse"><stop offset="0" stop-color="#fff" stop-opacity="0"/><stop offset=".446" stop-color="#fff" stop-opacity=".008"/><stop offset=".636" stop-color="#fff" stop-opacity=".036"/><stop offset=".776" stop-color="#fff" stop-opacity=".085"/><stop offset=".892" stop-color="#fff" stop-opacity=".154"/><stop offset=".993" stop-color="#fff" stop-opacity=".243"/><stop offset="1" stop-color="#fff" stop-opacity=".25"/></linearGradient></defs><path fill="#fff" d="M60 67H12V5h34l14 14v48z"/><path d="M47 4H11v64h50V18zm0 3l11 11H47zm12 59H13V6h32v14h14z" fill="#949494"/><path fill="#c8c8c8" d="M18 35h36v2H18zM18 30h36v2H18zM18 25h36v2H18zM18 11h14v2H18z"/><path d="M45 46v13H27V46h18m3-3H24v19h24V43zM9 45h12v15H9zM51 45h12v15H51z" fill="#d65532"/><path d="M63 45h-2V18L47 4H11v41H9v15h2v8h50v-8h2z" fill="url(#c)"/><path fill="url(#a)" d="M45 20h14v5H45z"/><path fill="url(#d)" d="M11 60h10v5H11z"/><path fill="url(#e)" d="M24 62h24v4H24z"/><path fill="url(#f)" d="M27 46h18v4H27z"/><path fill="url(#g)" d="M51 60h10v5H51z"/><path fill="url(#b)" d="M9 45h12v8H9z"/><path fill="url(#h)" d="M51 45h12v8H51z"/><path fill="url(#i)" d="M27 59h18v3H27z"/><path fill="url(#j)" d="M48 53h-3v-7H27v7h-3V43h24v10z"/><path fill="url(#k)" d="M61 18L47 4H11v2h34v14h14v48h2V18z"/></svg>