<svg id="ICONS" xmlns="http://www.w3.org/2000/svg" viewBox="0 0 72 72"><defs><style>.cls-1{fill:#a6a6a6;}</style></defs><title>Artboard 231</title><path class="cls-1" d="M4,13V59H68V13ZM66,57H6V15H66Z"/><path class="cls-1" d="M57.5,22A2.5,2.5,0,1,1,55,24.5,2.5,2.5,0,0,1,57.5,22m0-2A4.5,4.5,0,1,0,62,24.5,4.5,4.5,0,0,0,57.5,20Z"/><polygon class="cls-1" points="66 53.41 66 50.59 48 32.59 37.5 43.09 20 25.59 6 39.59 6 42.41 20 28.41 36.09 44.5 37.5 45.91 48.59 57 51.41 57 38.91 44.5 48 35.41 66 53.41"/></svg>