<svg data-name="ICONS" xmlns="http://www.w3.org/2000/svg" viewBox="0 0 72 72"><defs><linearGradient id="a" x1="12.987" y1="8.574" x2="59.115" y2="63.547" gradientUnits="userSpaceOnUse"><stop offset="0" stop-color="#fff" stop-opacity="0"/><stop offset=".862" stop-color="#5e5e5e" stop-opacity=".063"/><stop offset="1" stop-opacity=".1"/></linearGradient><linearGradient id="b" x1="35.967" y1="36.032" x2="63.967" y2="8.698" gradientUnits="userSpaceOnUse"><stop offset="0" stop-color="#fff" stop-opacity="0"/><stop offset=".446" stop-color="#fff" stop-opacity=".008"/><stop offset=".636" stop-color="#fff" stop-opacity=".036"/><stop offset=".776" stop-color="#fff" stop-opacity=".085"/><stop offset=".892" stop-color="#fff" stop-opacity=".154"/><stop offset=".993" stop-color="#fff" stop-opacity=".243"/><stop offset="1" stop-color="#fff" stop-opacity=".25"/></linearGradient></defs><path fill="#fff" d="M4 13h64v46H4z"/><path d="M4 13v46h64V13zm62 44H6V15h60z" fill="#949494"/><path d="M57.5 22a2.5 2.5 0 1 1-2.5 2.5 2.503 2.503 0 0 1 2.5-2.5m0-2a4.5 4.5 0 1 0 4.5 4.5 4.5 4.5 0 0 0-4.5-4.5z" fill="#f5ba9d"/><path fill="#7dbab2" d="M66 53.414v-2.828l-18-18-10.5 10.5-17.5-17.5-14 14v2.828l14-14L36.086 44.5l1.414 1.414L48.586 57h2.828l-12.5-12.5L48 35.414l18 18z"/><path fill="url(#a)" d="M4 13h64v46H4z"/><path fill="url(#b)" d="M68 13H4v2h62v44h2V13z"/></svg>