<svg data-name="ICONS" xmlns="http://www.w3.org/2000/svg" viewBox="0 0 72 72"><defs><linearGradient id="a" x1="11.467" y1="7.804" x2="63.639" y2="69.981" gradientUnits="userSpaceOnUse"><stop offset="0" stop-color="#fff" stop-opacity="0"/><stop offset=".862" stop-color="#5e5e5e" stop-opacity=".063"/><stop offset="1" stop-opacity=".1"/></linearGradient><linearGradient id="b" x1="57" y1="24.844" x2="57" y2="20.146" gradientUnits="userSpaceOnUse"><stop offset="0" stop-color="#828282" stop-opacity="0"/><stop offset=".862" stop-color="#303030" stop-opacity=".063"/><stop offset="1" stop-opacity=".1"/></linearGradient><linearGradient id="c" x1="53.792" y1="23.208" x2="62.501" y2="14.499" gradientUnits="userSpaceOnUse"><stop offset="0" stop-color="#fff" stop-opacity="0"/><stop offset=".446" stop-color="#fff" stop-opacity=".008"/><stop offset=".636" stop-color="#fff" stop-opacity=".036"/><stop offset=".776" stop-color="#fff" stop-opacity=".085"/><stop offset=".892" stop-color="#fff" stop-opacity=".154"/><stop offset=".993" stop-color="#fff" stop-opacity=".243"/><stop offset="1" stop-color="#fff" stop-opacity=".25"/></linearGradient></defs><path fill="#fff" d="M65 67H17V5h34l14 14v48z"/><path d="M66 18L52 4H16v7h2V6h32v14h14v46H23v2h43zm-14 0V7l11 11z" fill="#949494"/><path fill="#d04727" d="M23 56l-7-7-7 7v5l5-5v12h4V56l5 5v-5z"/><path fill="gray" d="M6 11h38v2H6zM15 42h20v2H15z"/><path fill="gray" d="M26 36v8h-2v-8z"/><path d="M39 13v22H11V13h28m2-2H9v26h32V11z" fill="gray"/><path fill="#c8c8c8" d="M14 18h3v13h-3z"/><path fill="#f5ba9d" d="M20 21h3v10h-3z"/><path fill="#c8c8c8" d="M26 24h3v7h-3z"/><path fill="#f5ba9d" d="M32 27h3v4h-3z"/><path d="M66 18L52 4H16v64h50z" fill="url(#a)"/><path fill="url(#b)" d="M50 20h14v5H50z"/><path fill="url(#c)" d="M66 18L52 4H16v2h34v14h14v48h2V18z"/></svg>