<svg id="ICONS" xmlns="http://www.w3.org/2000/svg" xmlns:xlink="http://www.w3.org/1999/xlink" viewBox="0 0 72 72"><defs><style>.cls-1{fill:#fff;}.cls-2{fill:#a6a6a6;}.cls-3{fill:#d04727;}.cls-4{fill:gray;}.cls-5{fill:#c8c8c8;}.cls-6{fill:#f5ba9d;}.cls-7{fill:url(#linear-gradient);}.cls-8{fill:url(#linear-gradient-2);}.cls-9{fill:url(#linear-gradient-3);}</style><linearGradient id="linear-gradient" x1="11.47" y1="7.8" x2="63.64" y2="69.98" gradientUnits="userSpaceOnUse"><stop offset="0" stop-color="#fff" stop-opacity="0"/><stop offset="0.86" stop-color="#5e5e5e" stop-opacity="0.06"/><stop offset="1" stop-opacity="0.1"/></linearGradient><linearGradient id="linear-gradient-2" x1="57" y1="24.84" x2="57" y2="20.15" gradientUnits="userSpaceOnUse"><stop offset="0" stop-color="#828282" stop-opacity="0"/><stop offset="0.86" stop-color="#303030" stop-opacity="0.06"/><stop offset="1" stop-opacity="0.1"/></linearGradient><linearGradient id="linear-gradient-3" x1="53.79" y1="23.21" x2="62.5" y2="14.5" gradientUnits="userSpaceOnUse"><stop offset="0" stop-color="#fff" stop-opacity="0"/><stop offset="0.45" stop-color="#fff" stop-opacity="0.01"/><stop offset="0.64" stop-color="#fff" stop-opacity="0.04"/><stop offset="0.78" stop-color="#fff" stop-opacity="0.08"/><stop offset="0.89" stop-color="#fff" stop-opacity="0.15"/><stop offset="0.99" stop-color="#fff" stop-opacity="0.24"/><stop offset="1" stop-color="#fff" stop-opacity="0.25"/></linearGradient></defs><title>Artboard 231</title><rect class="cls-1" x="9" y="13" width="32" height="24"/><polygon class="cls-1" points="65 67 17 67 17 5 51 5 65 19 65 67"/><path class="cls-2" d="M66,18,52,4H16v7h2V6H50V20H64V66H23v2H66ZM52,18V7L63,18Z"/><polygon class="cls-3" points="23 56 16 49 9 56 9 61 14 56 14 68 18 68 18 56 23 61 23 56"/><rect class="cls-4" x="6" y="11" width="38" height="2"/><rect class="cls-4" x="15" y="42" width="20" height="2"/><rect class="cls-4" x="21" y="39" width="8" height="2" transform="translate(65 15) rotate(90)"/><path class="cls-4" d="M39,13V35H11V13H39m2-2H9V37H41V11Z"/><rect class="cls-5" x="14" y="18" width="3" height="13"/><rect class="cls-6" x="20" y="21" width="3" height="10"/><rect class="cls-5" x="26" y="24" width="3" height="7"/><rect class="cls-6" x="32" y="27" width="3" height="4"/><path class="cls-7" d="M66,18,52,4H16V68H66Z"/><rect class="cls-8" x="50" y="20" width="14" height="5"/><polygon class="cls-9" points="66 18 52 4 16 4 16 6 50 6 50 20 64 20 64 68 66 68 66 18"/></svg>