<svg id="ICONS" xmlns="http://www.w3.org/2000/svg" xmlns:xlink="http://www.w3.org/1999/xlink" viewBox="0 0 72 72"><defs><style>.cls-1{fill:#fff;}.cls-2{fill:#f5ba9d;}.cls-3{fill:#a6a6a6;}.cls-4{fill:#c8c8c8;}.cls-5{fill:#f04e23;}.cls-6{fill:url(#linear-gradient);}.cls-7{fill:url(#linear-gradient-2);}.cls-8{fill:url(#linear-gradient-3);}.cls-9{fill:url(#linear-gradient-4);}.cls-10{fill:url(#linear-gradient-5);}</style><linearGradient id="linear-gradient" x1="11.47" y1="7.8" x2="63.64" y2="69.98" gradientUnits="userSpaceOnUse"><stop offset="0" stop-color="#fff" stop-opacity="0"/><stop offset="0.86" stop-color="#5e5e5e" stop-opacity="0.06"/><stop offset="1" stop-opacity="0.1"/></linearGradient><linearGradient id="linear-gradient-2" x1="57" y1="24.84" x2="57" y2="20.15" gradientUnits="userSpaceOnUse"><stop offset="0" stop-color="#828282" stop-opacity="0"/><stop offset="0.86" stop-color="#303030" stop-opacity="0.06"/><stop offset="1" stop-opacity="0.1"/></linearGradient><linearGradient id="linear-gradient-3" x1="25.97" y1="65.8" x2="26.8" y2="58.02" gradientUnits="userSpaceOnUse"><stop offset="0" stop-color="#828282" stop-opacity="0"/><stop offset="0.86" stop-color="#303030" stop-opacity="0.13"/><stop offset="1" stop-opacity="0.2"/></linearGradient><linearGradient id="linear-gradient-4" x1="21.5" y1="58.75" x2="21.5" y2="21.17" gradientUnits="userSpaceOnUse"><stop offset="0" stop-color="#fff" stop-opacity="0"/><stop offset="0.53" stop-color="#fff" stop-opacity="0.01"/><stop offset="0.72" stop-color="#fff" stop-opacity="0.03"/><stop offset="0.85" stop-color="#fff" stop-opacity="0.08"/><stop offset="0.96" stop-color="#fff" stop-opacity="0.15"/><stop offset="1" stop-color="#fff" stop-opacity="0.18"/></linearGradient><linearGradient id="linear-gradient-5" x1="53.79" y1="23.21" x2="62.5" y2="14.5" gradientUnits="userSpaceOnUse"><stop offset="0" stop-color="#fff" stop-opacity="0"/><stop offset="0.45" stop-color="#fff" stop-opacity="0.01"/><stop offset="0.64" stop-color="#fff" stop-opacity="0.04"/><stop offset="0.78" stop-color="#fff" stop-opacity="0.08"/><stop offset="0.89" stop-color="#fff" stop-opacity="0.15"/><stop offset="0.99" stop-color="#fff" stop-opacity="0.24"/><stop offset="1" stop-color="#fff" stop-opacity="0.25"/></linearGradient></defs><title>Artboard 231</title><polygon class="cls-1" points="65 67 17 67 17 5 51 5 65 19 65 67"/><path class="cls-2" d="M56,27H43V14a12.94,12.94,0,0,1,8,2.75V19h2.25A12.94,12.94,0,0,1,56,27Z"/><path class="cls-3" d="M52,4H16V68H66V18Zm0,3L63,18H52ZM64,66H18V6H50V20H64Z"/><path class="cls-4" d="M26,29A15,15,0,0,1,41,14V29H56a15,15,0,0,1-30,0Z"/><rect class="cls-4" x="37" y="56" width="22" height="2"/><rect class="cls-4" x="37" y="51" width="22" height="2"/><polygon class="cls-5" points="6 25 37 20 37 60 6 55 6 25"/><path class="cls-1" d="M19,42.8V49H15V31h6.28Q28,31,28,36.74a5.53,5.53,0,0,1-1.93,4.39,7.58,7.58,0,0,1-5.15,1.68Zm0-8.69v5.61h1.58q3.2,0,3.2-2.84t-3.2-2.77Z"/><path class="cls-6" d="M52,4H16V23.39L6,25V55l10,1.61V68H66V18Z"/><rect class="cls-7" x="50" y="20" width="14" height="5"/><polygon class="cls-8" points="37 65 16 65 16 56.62 37 60 37 65"/><polygon class="cls-9" points="37 20 6 25 6 55 37 60 37 20"/><polygon class="cls-10" points="66 18 52 4 16 4 16 6 50 6 50 20 64 20 64 68 66 68 66 18"/></svg>