<?xml version="1.0" encoding="UTF-8" standalone="no"?>
<svg
   xmlns:dc="http://purl.org/dc/elements/1.1/"
   xmlns:cc="http://creativecommons.org/ns#"
   xmlns:rdf="http://www.w3.org/1999/02/22-rdf-syntax-ns#"
   xmlns:svg="http://www.w3.org/2000/svg"
   xmlns="http://www.w3.org/2000/svg"
   xmlns:sodipodi="http://sodipodi.sourceforge.net/DTD/sodipodi-0.dtd"
   xmlns:inkscape="http://www.inkscape.org/namespaces/inkscape"
   width="72"
   height="72"
   viewBox="0 0 72 72"
   version="1.1"
   id="svg4586"
   sodipodi:docname="PraiseGift.svg"
   inkscape:version="0.92.2 5c3e80d, 2017-08-06">
  <metadata
     id="metadata4592">
    <rdf:RDF>
      <cc:Work
         rdf:about="">
        <dc:format>image/svg+xml</dc:format>
        <dc:type
           rdf:resource="http://purl.org/dc/dcmitype/StillImage" />
      </cc:Work>
    </rdf:RDF>
  </metadata>
  <defs
     id="defs4590" />
  <sodipodi:namedview
     pagecolor="#ffffff"
     bordercolor="#666666"
     borderopacity="1"
     objecttolerance="10"
     gridtolerance="10"
     guidetolerance="10"
     inkscape:pageopacity="0"
     inkscape:pageshadow="2"
     inkscape:window-width="1166"
     inkscape:window-height="474"
     id="namedview4588"
     showgrid="false"
     inkscape:zoom="1.5733333"
     inkscape:cx="74.996012"
     inkscape:cy="75.000076"
     inkscape:window-x="0"
     inkscape:window-y="0"
     inkscape:window-maximized="0"
     inkscape:current-layer="svg4586" />
  <circle
     transform="rotate(-88.789)"
     cx="-35.231121"
     cy="36.752796"
     id="ellipse4574"
     r="36"
     style="fill:#386cbb;stroke-width:0.47999999" />
  <path
     d="M 40.653273,23.424934 35.517376,13.393135 c -1.199976,-2.351953 -4.367913,-2.735946 -6.143877,-0.815984 -1.679967,1.871962 -1.103978,4.799904 1.151977,5.903882 z"
     id="path4576"
     inkscape:connector-curvature="0"
     style="fill:#ffc56c;stroke-width:0.47999039" />
  <path
     d="m 32.445437,23.424934 5.135897,-10.031799 c 1.199976,-2.351953 4.367913,-2.735946 6.143878,-0.815984 1.679966,1.871962 1.103978,4.799904 -1.151977,5.903882 z"
     id="path4578"
     inkscape:connector-curvature="0"
     style="fill:#ffc56c;stroke-width:0.47999039" />
  <path
     d="m 49.245101,58.080244 h -25.48749 c -3.263935,0 -5.903882,-2.59195 -6.047879,-5.80789 l -1.00798,-26.01548 c -0.143997,-3.45593 2.591948,-6.287871 6.047879,-6.287871 H 50.30108 c 3.455931,0 6.191876,2.879941 6.047879,6.287871 l -1.00798,26.01548 c -0.143997,3.26394 -2.831943,5.80789 -6.095878,5.80789 z"
     id="path4580"
     inkscape:connector-curvature="0"
     style="fill:#fb7f78;stroke-width:0.47999039" />
  <path
     d="M 55.676973,41.760564 H 17.277741 l -0.239996,-6.57587 h 38.975221 z"
     id="path4582"
     inkscape:connector-curvature="0"
     style="fill:#ffc56c;stroke-width:0.47999039" />
  <path
     d="m 33.30942,19.873005 h 6.527869 V 57.840244 H 33.30942 Z"
     id="path4584"
     inkscape:connector-curvature="0"
     style="fill:#ffc56c;stroke-width:0.47999039" />
</svg>
