<?xml version="1.0" encoding="UTF-8" standalone="no"?>
<svg
   xmlns:dc="http://purl.org/dc/elements/1.1/"
   xmlns:cc="http://creativecommons.org/ns#"
   xmlns:rdf="http://www.w3.org/1999/02/22-rdf-syntax-ns#"
   xmlns:svg="http://www.w3.org/2000/svg"
   xmlns="http://www.w3.org/2000/svg"
   xmlns:sodipodi="http://sodipodi.sourceforge.net/DTD/sodipodi-0.dtd"
   xmlns:inkscape="http://www.inkscape.org/namespaces/inkscape"
   width="72"
   height="71.987877"
   viewBox="0 0 72 71.987877"
   version="1.1"
   id="svg188"
   sodipodi:docname="PraiseGraduationCapHC.svg"
   inkscape:version="0.92.2 5c3e80d, 2017-08-06">
  <metadata
     id="metadata194">
    <rdf:RDF>
      <cc:Work
         rdf:about="">
        <dc:format>image/svg+xml</dc:format>
        <dc:type
           rdf:resource="http://purl.org/dc/dcmitype/StillImage" />
      </cc:Work>
    </rdf:RDF>
  </metadata>
  <defs
     id="defs192" />
  <sodipodi:namedview
     pagecolor="#ffffff"
     bordercolor="#666666"
     borderopacity="1"
     objecttolerance="10"
     gridtolerance="10"
     guidetolerance="10"
     inkscape:pageopacity="0"
     inkscape:pageshadow="2"
     inkscape:window-width="1151"
     inkscape:window-height="614"
     id="namedview190"
     showgrid="false"
     inkscape:zoom="1.5733333"
     inkscape:cx="75.037568"
     inkscape:cy="74.993301"
     inkscape:window-x="0"
     inkscape:window-y="0"
     inkscape:window-maximized="0"
     inkscape:current-layer="svg188" />
  <circle
     transform="rotate(-88.267038)"
     cx="-34.888607"
     cy="37.078098"
     id="ellipse172"
     r="35.993938"
     style="stroke-width:0.47991917" />
  <path
     d="M 36.013502,1.4844941e-4 V 1.1040094 h 1.055867 c 9.310829,0.287964 17.949742,4.175475 24.332939,10.9426226 6.383197,6.767149 9.742775,15.646033 9.454811,24.956863 -0.287964,9.11885 -4.031493,17.66178 -10.606666,23.99698 -6.527179,6.3832 -15.118098,9.88676 -24.236951,9.88676 H 34.957635 C 25.646806,70.599265 17.007893,66.711755 10.624696,59.944605 4.1935052,53.129465 0.83392785,44.250585 1.1218916,34.939755 1.4098554,25.820895 5.1533844,17.277974 11.728557,10.942771 18.30373,4.6075684 26.894649,1.1040094 36.013502,1.1040094 V 1.4844941e-4 m 0,0 C 16.623941,1.4844941e-4 0.641952,15.40621 0.01803048,34.891755 -0.60589103,54.761255 15.040141,71.367165 34.909641,71.943095 h 1.103861 c 19.389561,0 35.37155,-15.40606 35.947478,-34.89161 C 72.584901,17.181986 56.93887,0.57607545 37.069369,1.4844941e-4 Z"
     id="path174"
     inkscape:connector-curvature="0"
     style="fill:#ffffff;stroke-width:0.47993961" />
  <path
     d="m 54.683153,45.258455 c 0,5.66329 -7.823015,10.27071 -17.421808,10.27071 -9.598792,0 -17.421808,-4.60742 -17.421808,-10.27071 v -10.3187 l 34.843616,-0.86389 z"
     id="path176"
     inkscape:connector-curvature="0"
     style="fill:#ffffff;stroke-width:0.47993961" />
  <path
     d="M 37.261345,17.757914 9.7608048,33.163975 37.261345,48.570035 64.80988,33.163975 Z"
     id="path178"
     inkscape:connector-curvature="0"
     style="fill:#ffffff;stroke-width:0.47993961" />
  <path
     d="M 37.261345,17.757914 64.80988,33.163975 37.309339,48.570035 9.7608048,33.163975 37.261345,17.757914 m 0,-1.871765 c -0.287964,0 -0.623921,0.09599 -0.911885,0.23997 L 8.8969135,31.532185 c -0.5759275,0.33595 -0.9598792,0.95988 -0.9598792,1.5838 0,0.62392 0.3359577,1.29583 0.9598792,1.5838 l 27.5005405,15.40606 c 0.287964,0.14398 0.575927,0.23997 0.911885,0.23997 0.335958,0 0.623922,-0.096 0.911885,-0.23997 l 27.500541,-15.40606 c 0.575927,-0.33596 0.959879,-0.95988 0.959879,-1.5838 0,-0.62392 -0.335958,-1.29584 -0.959879,-1.5838 L 38.17323,16.126119 c -0.287963,-0.143982 -0.575927,-0.23997 -0.911885,-0.23997 z"
     id="path180"
     inkscape:connector-curvature="0"
     style="stroke-width:0.47993961" />
  <ellipse
     cx="38.029247"
     cy="32.204094"
     rx="1.8237705"
     ry="1.391825"
     id="ellipse182"
     style="stroke-width:0.47993961" />
  <path
     d="m 56.170966,35.707655 c -3.311583,-1.15185 -17.80576,-4.03149 -18.429681,-4.12748 -0.383952,-0.096 -0.71991,0.14398 -0.815898,0.52793 -0.09599,0.38396 0.191976,0.71991 0.527934,0.8159 0.143982,0.048 15.02211,2.97563 18.237706,4.07949 0.383951,0.14398 0.671915,0.38395 0.911885,0.7679 l 1.199849,-0.67191 c -0.383952,-0.67192 -0.911885,-1.15186 -1.631795,-1.39183 z"
     id="path184"
     inkscape:connector-curvature="0"
     style="stroke-width:0.47993961" />
  <path
     d="m 57.17884,47.082225 c -0.04799,0.43195 -0.09599,0.8159 -0.09599,1.15185 -0.23997,3.02362 1.82377,6.67117 1.919758,6.81515 0.143982,0.23997 0.335958,0.33596 0.575928,0.33596 0.09599,0 0.239969,-0.048 0.335957,-0.096 0.335958,-0.19198 0.431946,-0.62392 0.23997,-0.95988 0,-0.048 -1.967752,-3.45557 -1.727782,-5.99925 0.04799,-0.28796 0.04799,-0.67191 0.09599,-1.10386 0.287964,-3.02362 0.767904,-7.67903 -0.719909,-10.12672 l -1.199849,0.67191 c 1.295837,2.01575 0.815897,6.95913 0.575928,9.31083 z"
     id="path186"
     inkscape:connector-curvature="0"
     style="fill:#ffffff;stroke-width:0.47993961" />
</svg>
