<?xml version="1.0" encoding="UTF-8" standalone="no"?>
<svg
   xmlns:dc="http://purl.org/dc/elements/1.1/"
   xmlns:cc="http://creativecommons.org/ns#"
   xmlns:rdf="http://www.w3.org/1999/02/22-rdf-syntax-ns#"
   xmlns:svg="http://www.w3.org/2000/svg"
   xmlns="http://www.w3.org/2000/svg"
   xmlns:sodipodi="http://sodipodi.sourceforge.net/DTD/sodipodi-0.dtd"
   xmlns:inkscape="http://www.inkscape.org/namespaces/inkscape"
   width="72"
   height="71.98764"
   viewBox="0 0 72 71.98764"
   version="1.1"
   id="svg246"
   sodipodi:docname="PraiseLightbulbHC.svg"
   inkscape:version="0.92.2 5c3e80d, 2017-08-06">
  <metadata
     id="metadata252">
    <rdf:RDF>
      <cc:Work
         rdf:about="">
        <dc:format>image/svg+xml</dc:format>
        <dc:type
           rdf:resource="http://purl.org/dc/dcmitype/StillImage" />
      </cc:Work>
    </rdf:RDF>
  </metadata>
  <defs
     id="defs250" />
  <sodipodi:namedview
     pagecolor="#ffffff"
     bordercolor="#666666"
     borderopacity="1"
     objecttolerance="10"
     gridtolerance="10"
     guidetolerance="10"
     inkscape:pageopacity="0"
     inkscape:pageshadow="2"
     inkscape:window-width="1163"
     inkscape:window-height="626"
     id="namedview248"
     showgrid="false"
     inkscape:zoom="1.5733333"
     inkscape:cx="75.037568"
     inkscape:cy="74.99982"
     inkscape:window-x="0"
     inkscape:window-y="0"
     inkscape:window-maximized="0"
     inkscape:current-layer="svg246" />
  <circle
     transform="rotate(-88.267)"
     cx="-34.889816"
     cy="37.07967"
     id="ellipse238"
     r="35.992424"
     style="stroke-width:0.47989899" />
  <path
     d="m 36.011893,0 v 1.103811 h 1.05582 c 9.310413,0.287951 17.948941,4.175289 24.331853,10.942135 6.382911,6.766847 9.742339,15.645336 9.454388,24.955746 -0.287951,9.11845 -4.031313,17.66099 -10.606192,23.99591 -6.526887,6.38291 -15.117423,9.88631 -24.235869,9.88631 h -1.05582 C 25.645661,70.595962 17.007133,66.708632 10.624221,59.941782 4.1933179,53.126942 0.83389059,44.248452 1.1218415,34.938042 1.4097924,25.819602 5.1531542,17.277054 11.728033,10.942134 18.302912,4.607214 26.893448,1.103811 36.011893,1.103811 V 0 m 0,0 C 16.623199,0 0.64192331,15.405373 0.01802967,34.890052 -0.60586397,54.758662 15.039469,71.363832 34.908082,71.939732 h 1.103811 c 19.388695,0 35.369971,-15.40537 35.945873,-34.89005 C 72.581659,17.181071 56.936326,0.575901 37.067713,0 Z"
     id="path240"
     inkscape:connector-curvature="0"
     style="fill:#ffffff;stroke-width:0.47991818" />
  <path
     d="m 26.605497,53.126942 h 18.956768 v 5.13513 c 0,3.55139 -2.879509,6.4309 -6.430903,6.4309 h -6.094961 c -3.551395,0 -6.430904,-2.87951 -6.430904,-6.4309 z m 26.635459,-28.79509 c 0,-9.358405 -8.302584,-16.845129 -18.236891,-16.221235 -8.542543,0.575902 -15.405374,7.246765 -15.8373,15.405375 -0.143975,2.87951 0.479918,5.61504 1.727706,8.01463 3.023484,5.80701 5.039141,11.99796 5.711026,18.47685 l 0.143975,1.34377 h 18.956769 l 0.143975,-1.34377 c 0.623894,-6.28693 2.351599,-12.47787 5.471068,-18.04492 1.199795,-2.30361 1.919672,-4.89517 1.919672,-7.6307 z"
     id="path242"
     inkscape:connector-curvature="0"
     style="fill:#ffffff;stroke-width:0.47991818" />
  <path
     d="m 32.124556,52.407062 -3.023484,-24.90775 c -0.04799,-0.28795 0.04799,-0.52791 0.239959,-0.76787 0.191967,-0.19197 0.431926,-0.33594 0.719877,-0.33594 h 11.710004 c 0.287951,0 0.52791,0.096 0.719877,0.33594 0.191967,0.19197 0.287951,0.47992 0.239959,0.76787 l -2.831517,24.90775 -1.919673,-0.23996 2.735534,-23.85193 H 31.16472 l 2.879509,23.85193 z"
     id="path244"
     inkscape:connector-curvature="0"
     style="stroke-width:0.47991818" />
</svg>
