<?xml version="1.0" encoding="UTF-8" standalone="no"?>
<svg
   xmlns:dc="http://purl.org/dc/elements/1.1/"
   xmlns:cc="http://creativecommons.org/ns#"
   xmlns:rdf="http://www.w3.org/1999/02/22-rdf-syntax-ns#"
   xmlns:svg="http://www.w3.org/2000/svg"
   xmlns="http://www.w3.org/2000/svg"
   xmlns:sodipodi="http://sodipodi.sourceforge.net/DTD/sodipodi-0.dtd"
   xmlns:inkscape="http://www.inkscape.org/namespaces/inkscape"
   width="72.000008"
   height="72"
   viewBox="0 0 72.000008 72"
   version="1.1"
   id="svg4464"
   sodipodi:docname="PraiseCoffee.svg"
   inkscape:version="0.92.2 5c3e80d, 2017-08-06">
  <metadata
     id="metadata4470">
    <rdf:RDF>
      <cc:Work
         rdf:about="">
        <dc:format>image/svg+xml</dc:format>
        <dc:type
           rdf:resource="http://purl.org/dc/dcmitype/StillImage" />
      </cc:Work>
    </rdf:RDF>
  </metadata>
  <defs
     id="defs4468" />
  <sodipodi:namedview
     pagecolor="#ffffff"
     bordercolor="#666666"
     borderopacity="1"
     objecttolerance="10"
     gridtolerance="10"
     guidetolerance="10"
     inkscape:pageopacity="0"
     inkscape:pageshadow="2"
     inkscape:window-width="1222"
     inkscape:window-height="465"
     id="namedview4466"
     showgrid="false"
     inkscape:zoom="1.5733333"
     inkscape:cx="75.006001"
     inkscape:cy="74.999826"
     inkscape:window-x="0"
     inkscape:window-y="0"
     inkscape:window-maximized="0"
     inkscape:current-layer="svg4464" />
  <ellipse
     transform="rotate(-88.266999)"
     cx="-34.894825"
     cy="37.072247"
     rx="36"
     ry="36.000004"
     id="ellipse4456"
     style="fill:#9ac3ff;stroke-width:0.47999999" />
  <path
     d="m 37.204371,54.191364 h -7.920317 c -5.952238,0 -10.75243,-4.80019 -10.75243,-10.75243 V 21.21405 c 0,-1.200048 0.960038,-2.160086 2.160086,-2.160086 h 25.105004 c 1.200048,0 2.160087,0.960038 2.160087,2.160086 v 22.176884 c 0,6.00024 -4.800192,10.80043 -10.75243,10.80043 z"
     id="path4458"
     inkscape:connector-curvature="0"
     style="fill:#d1423b;stroke-width:0.48001921" />
  <path
     d="m 46.612747,45.023004 v -3.50414 c 0.624025,0 3.024121,-0.43202 8.112324,-6.24025 1.200048,-1.34406 1.200048,-3.31213 0.096,-4.75219 -1.104044,-1.34406 -2.928117,-1.77607 -4.51218,-1.00804 l -2.544102,1.24805 -1.536061,-3.16813 2.544101,-1.24805 c 3.072123,-1.48806 6.672267,-0.67203 8.784352,1.96808 2.208088,2.73611 2.112084,6.62427 -0.192008,9.26437 -4.416177,5.0402 -7.920317,7.4403 -10.75243,7.4403 z"
     id="path4460"
     inkscape:connector-curvature="0"
     style="fill:#d1423b;stroke-width:0.48001921" />
  <path
     d="m 45.844716,19.101966 h -25.24901 c -1.152046,0 -2.064082,0.912036 -2.064082,2.064082 v 5.568226 h 29.377175 v -5.568226 c 0,-1.152046 -0.912037,-2.064082 -2.064083,-2.064082 z"
     id="path4462"
     inkscape:connector-curvature="0"
     style="fill:#fb7f78;stroke-width:0.48001921" />
</svg>
