<?xml version="1.0" encoding="UTF-8" standalone="no"?>
<svg
   xmlns:dc="http://purl.org/dc/elements/1.1/"
   xmlns:cc="http://creativecommons.org/ns#"
   xmlns:rdf="http://www.w3.org/1999/02/22-rdf-syntax-ns#"
   xmlns:svg="http://www.w3.org/2000/svg"
   xmlns="http://www.w3.org/2000/svg"
   xmlns:sodipodi="http://sodipodi.sourceforge.net/DTD/sodipodi-0.dtd"
   xmlns:inkscape="http://www.inkscape.org/namespaces/inkscape"
   width="72"
   height="71.987877"
   viewBox="0 0 72 71.987877"
   version="1.1"
   id="svg488"
   sodipodi:docname="PraiseStarHC.svg"
   inkscape:version="0.92.2 5c3e80d, 2017-08-06">
  <metadata
     id="metadata494">
    <rdf:RDF>
      <cc:Work
         rdf:about="">
        <dc:format>image/svg+xml</dc:format>
        <dc:type
           rdf:resource="http://purl.org/dc/dcmitype/StillImage" />
      </cc:Work>
    </rdf:RDF>
  </metadata>
  <defs
     id="defs492" />
  <sodipodi:namedview
     pagecolor="#ffffff"
     bordercolor="#666666"
     borderopacity="1"
     objecttolerance="10"
     gridtolerance="10"
     guidetolerance="10"
     inkscape:pageopacity="0"
     inkscape:pageshadow="2"
     inkscape:window-width="1264"
     inkscape:window-height="541"
     id="namedview490"
     showgrid="false"
     inkscape:zoom="1.5733333"
     inkscape:cx="75.037568"
     inkscape:cy="74.993301"
     inkscape:window-x="0"
     inkscape:window-y="0"
     inkscape:window-maximized="0"
     inkscape:current-layer="svg488" />
  <circle
     transform="rotate(-88.267038)"
     cx="-34.888607"
     cy="37.078098"
     id="ellipse482"
     r="35.993938"
     style="stroke-width:0.47991917" />
  <path
     d="M 36.013502,1.4844941e-4 V 1.1040094 h 1.055867 c 9.310829,0.287964 17.949742,4.175475 24.332939,10.9426226 6.383197,6.767149 9.742775,15.646033 9.454811,24.956863 -0.287964,9.11885 -4.031493,17.66178 -10.606666,23.99698 -6.527179,6.3832 -15.118098,9.88676 -24.236951,9.88676 H 34.957635 C 25.646806,70.599265 17.007893,66.711755 10.624696,59.944605 4.1935052,53.129465 0.83392785,44.250585 1.1218916,34.939755 1.4098554,25.820895 5.1533844,17.277974 11.728557,10.942771 18.30373,4.6075684 26.894649,1.1040094 36.013502,1.1040094 V 1.4844941e-4 m 0,0 C 16.623941,1.4844941e-4 0.641952,15.40621 0.01803048,34.891755 -0.60589103,54.761255 15.040141,71.367165 34.909641,71.943095 h 1.103861 c 19.389561,0 35.37155,-15.40606 35.947478,-34.89161 C 72.584901,17.181986 56.93887,0.57607545 37.069369,1.4844941e-4 Z"
     id="path484"
     inkscape:connector-curvature="0"
     style="fill:#ffffff;stroke-width:0.47993961" />
  <path
     d="m 36.685418,47.226205 -11.950497,6.28721 2.30371,-13.29433 -9.646786,-9.40681 13.342321,-1.96776 5.951252,-12.094474 5.999245,12.094474 13.342321,1.96776 -9.646786,9.40681 2.255716,13.29433 z"
     id="path486"
     inkscape:connector-curvature="0"
     style="fill:#ffffff;stroke-width:0.47993961" />
</svg>
