<?xml version="1.0" encoding="UTF-8" standalone="no"?>
<svg
   xmlns:dc="http://purl.org/dc/elements/1.1/"
   xmlns:cc="http://creativecommons.org/ns#"
   xmlns:rdf="http://www.w3.org/1999/02/22-rdf-syntax-ns#"
   xmlns:svg="http://www.w3.org/2000/svg"
   xmlns="http://www.w3.org/2000/svg"
   xmlns:sodipodi="http://sodipodi.sourceforge.net/DTD/sodipodi-0.dtd"
   xmlns:inkscape="http://www.inkscape.org/namespaces/inkscape"
   width="72"
   height="71.963928"
   viewBox="0 0 72 71.963928"
   version="1.1"
   id="svg516"
   sodipodi:docname="PraiseThumbsUpHC.svg"
   inkscape:version="0.92.2 5c3e80d, 2017-08-06">
  <metadata
     id="metadata522">
    <rdf:RDF>
      <cc:Work
         rdf:about="">
        <dc:format>image/svg+xml</dc:format>
        <dc:type
           rdf:resource="http://purl.org/dc/dcmitype/StillImage" />
      </cc:Work>
    </rdf:RDF>
  </metadata>
  <defs
     id="defs520" />
  <sodipodi:namedview
     pagecolor="#ffffff"
     bordercolor="#666666"
     borderopacity="1"
     objecttolerance="10"
     gridtolerance="10"
     guidetolerance="10"
     inkscape:pageopacity="0"
     inkscape:pageshadow="2"
     inkscape:window-width="1252"
     inkscape:window-height="559"
     id="namedview518"
     showgrid="false"
     inkscape:zoom="1.5733333"
     inkscape:cx="75.037568"
     inkscape:cy="74.9"
     inkscape:window-x="0"
     inkscape:window-y="0"
     inkscape:window-maximized="0"
     inkscape:current-layer="svg516" />
  <path
     d="M 36.024004,71.483849 H 34.919821 C 25.462253,71.195799 16.676797,67.259149 10.195723,60.345999 3.7146485,53.432859 0.30608349,44.407359 0.59413123,34.949789 0.88217898,25.636249 4.6748076,16.994817 11.347914,10.561751 18.02102,4.080677 26.758468,0.528088 36.024004,0.528088 h 1.104183 c 9.457567,0.288048 18.243024,4.2247 24.724098,11.137846 6.481074,6.913146 9.889639,15.890635 9.601592,25.396205 -0.288048,9.26554 -4.128685,17.95498 -10.753783,24.38805 -6.673106,6.48107 -15.410554,10.03366 -24.67609,10.03366 z"
     id="path510"
     inkscape:connector-curvature="0"
     style="stroke-width:0.48007959" />
  <path
     d="m 36.024004,0 v 1.104184 h 1.056175 c 19.251191,0.576095 34.421705,16.706769 33.84561,35.957955 -0.288048,9.12152 -4.032668,17.66693 -10.609759,24.00398 -6.57709,6.33705 -15.170514,9.84163 -24.292026,9.84163 H 34.967829 C 25.654285,70.619709 17.012853,66.731059 10.627794,59.961939 4.194728,53.144809 0.83417102,44.263339 1.1222187,34.949789 1.4102665,25.828279 5.1548872,17.282865 11.731977,10.945815 18.309067,4.608764 26.902492,1.104184 36.024004,1.104184 V 0 m 0,0 C 16.628789,0 0.64213919,15.410555 0.01803574,34.901789 -0.60606771,54.777079 15.044526,71.387829 34.919821,71.963929 h 1.104183 c 19.395215,0 35.381865,-15.41055 35.95796,-34.90179 C 72.606067,17.186849 56.955473,0.576096 37.080179,0 Z"
     id="path512"
     inkscape:connector-curvature="0"
     style="fill:#ffffff;stroke-width:0.48007959" />
  <path
     d="m 13.124208,33.173499 h 11.425894 v 17.90697 H 13.124208 Z m 14.306371,-0.72012 c 2.448406,-0.81613 4.848804,-2.73645 5.952987,-4.56076 1.104183,-1.8243 7.681273,-8.017324 8.785456,-11.761945 1.104183,-3.74462 2.83247,-4.2247 4.896812,-2.11235 3.456573,3.504581 -2.400398,12.722105 -2.400398,12.722105 0.672112,2.35239 13.490236,-1.92031 13.490236,3.50458 0,1.48825 -0.768127,1.82431 -0.768127,2.9765 0,1.15219 2.256374,0.86414 2.256374,3.07251 0,2.20836 -1.392231,2.06434 -1.392231,3.12051 0,1.00817 1.008167,0.72012 1.008167,3.12052 0,2.06434 -2.208366,2.4004 -2.208366,3.26454 0,0.86415 0.336056,0.91215 0.336056,2.92849 0,6.6731 -23.04382,2.59243 -29.956966,2.59243 z"
     id="path514"
     inkscape:connector-curvature="0"
     style="fill:#ffffff;stroke-width:0.48007959" />
</svg>
