<?xml version="1.0" encoding="UTF-8" standalone="no"?>
<svg
   xmlns:dc="http://purl.org/dc/elements/1.1/"
   xmlns:cc="http://creativecommons.org/ns#"
   xmlns:rdf="http://www.w3.org/1999/02/22-rdf-syntax-ns#"
   xmlns:svg="http://www.w3.org/2000/svg"
   xmlns="http://www.w3.org/2000/svg"
   xmlns:sodipodi="http://sodipodi.sourceforge.net/DTD/sodipodi-0.dtd"
   xmlns:inkscape="http://www.inkscape.org/namespaces/inkscape"
   width="72"
   height="71.987877"
   viewBox="0 0 72 71.987877"
   version="1.1"
   id="svg4888"
   sodipodi:docname="PraiseGlassesHC.svg"
   inkscape:version="0.92.2 5c3e80d, 2017-08-06">
  <metadata
     id="metadata4894">
    <rdf:RDF>
      <cc:Work
         rdf:about="">
        <dc:format>image/svg+xml</dc:format>
        <dc:type
           rdf:resource="http://purl.org/dc/dcmitype/StillImage" />
      </cc:Work>
    </rdf:RDF>
  </metadata>
  <defs
     id="defs4892" />
  <sodipodi:namedview
     pagecolor="#ffffff"
     bordercolor="#666666"
     borderopacity="1"
     objecttolerance="10"
     gridtolerance="10"
     guidetolerance="10"
     inkscape:pageopacity="0"
     inkscape:pageshadow="2"
     inkscape:window-width="1363"
     inkscape:window-height="577"
     id="namedview4890"
     showgrid="false"
     inkscape:zoom="1.5733333"
     inkscape:cx="75.037568"
     inkscape:cy="74.993301"
     inkscape:window-x="0"
     inkscape:window-y="0"
     inkscape:window-maximized="0"
     inkscape:current-layer="svg4888" />
  <circle
     transform="rotate(-88.267038)"
     cx="-34.888607"
     cy="37.078098"
     id="ellipse4872"
     r="35.993938"
     style="stroke-width:0.47991917" />
  <path
     d="M 36.013502,1.4844941e-4 V 1.1040094 h 1.055867 c 9.310829,0.287964 17.949742,4.175475 24.332939,10.9426226 6.383197,6.767149 9.742775,15.646033 9.454811,24.956863 -0.287964,9.11885 -4.031493,17.66178 -10.606666,23.99698 -6.527179,6.3832 -15.118098,9.88676 -24.236951,9.88676 H 34.957635 C 25.646806,70.599265 17.007893,66.711755 10.624696,59.944605 4.1935052,53.129465 0.83392785,44.250585 1.1218916,34.939755 1.4098554,25.820895 5.1533844,17.277974 11.728557,10.942771 18.30373,4.6075684 26.894649,1.1040094 36.013502,1.1040094 V 1.4844941e-4 m 0,0 C 16.623941,1.4844941e-4 0.641952,15.40621 0.01803048,34.891755 -0.60589103,54.761255 15.040141,71.367165 34.909641,71.943095 h 1.103861 c 19.389561,0 35.37155,-15.40606 35.947478,-34.89161 C 72.584901,17.181986 56.93887,0.57607545 37.069369,1.4844941e-4 Z"
     id="path4874"
     inkscape:connector-curvature="0"
     style="fill:#ffffff;stroke-width:0.47993961" />
  <path
     d="m 33.32584,35.803645 h 5.471312 v 2.30371 H 33.32584 Z"
     id="path4876"
     inkscape:connector-curvature="0"
     style="fill:#ffffff;stroke-width:0.47993961" />
  <path
     d="M 26.318722,47.466175 H 14.224243 c -1.535807,0 -2.78365,-1.15185 -2.879638,-2.68766 l -0.431945,-7.919 c -0.09599,-1.6318 1.199849,-3.02362 2.879637,-3.02362 h 16.269954 c 1.82377,0 3.167601,1.63179 2.831644,3.40757 l -1.19985,5.80727 c -0.527933,2.54368 -2.783649,4.41544 -5.375323,4.41544 z"
     id="path4878"
     inkscape:connector-curvature="0"
     style="stroke-width:0.47993961" />
  <path
     d="m 30.014257,33.835895 c 1.82377,0 3.167601,1.63179 2.831644,3.40757 l -1.151856,5.80727 c -0.527933,2.54368 -2.783649,4.41544 -5.375323,4.41544 H 14.224243 c -1.535807,0 -2.78365,-1.15185 -2.879638,-2.68766 l -0.431945,-7.919 c -0.09599,-1.6318 1.199849,-3.02362 2.879637,-3.02362 h 16.22196 m 0,-2.35171 H 13.744304 c -1.439819,0 -2.78365,0.62392 -3.7915233,1.5838 -1.0078732,1.05587 -1.4878129,2.44769 -1.3918249,3.83952 l 0.4319456,7.919 c 0.1919759,2.73566 2.4476916,4.89539 5.1353536,4.89539 h 12.094479 c 3.743529,0 6.91113,-2.63967 7.63104,-6.28721 l 1.199849,-5.75928 c 0.287964,-1.5358 -0.09599,-3.07161 -1.103861,-4.27146 -0.95988,-1.24784 -2.399698,-1.91976 -3.935505,-1.91976 z"
     id="path4880"
     inkscape:connector-curvature="0"
     style="fill:#ffffff;stroke-width:0.47993961" />
  <path
     d="m 46.092234,47.466175 h 12.094479 c 1.535807,0 2.78365,-1.15185 2.879637,-2.68766 l 0.431946,-7.919 c 0.09599,-1.6318 -1.199849,-3.02362 -2.879638,-3.02362 H 42.348705 c -1.82377,0 -3.167601,1.63179 -2.831644,3.40757 l 1.103861,5.80727 c 0.575928,2.54368 2.831644,4.41544 5.471312,4.41544 z"
     id="path4882"
     inkscape:connector-curvature="0"
     style="stroke-width:0.47993961" />
  <path
     d="m 58.618658,33.835895 c 1.631795,0 2.927632,1.39182 2.879638,3.02362 l -0.431946,7.919 c -0.09599,1.53581 -1.34383,2.68766 -2.879637,2.68766 H 46.092234 c -2.591674,0 -4.84739,-1.87176 -5.375324,-4.41544 l -1.103861,-5.80727 c -0.335957,-1.77578 1.007873,-3.40757 2.831644,-3.40757 h 16.173965 m 0,-2.35171 H 42.348705 c -1.583801,0 -3.023619,0.67192 -3.983499,1.91976 -1.007873,1.19985 -1.391825,2.78365 -1.103861,4.27146 l 1.151855,5.80727 c 0.671916,3.64754 3.935505,6.28721 7.63104,6.28721 h 12.094479 c 2.735656,0 5.039366,-2.15973 5.135354,-4.89538 l 0.431945,-7.91901 c 0.09599,-1.43982 -0.431945,-2.83164 -1.391824,-3.83951 -0.95988,-1.00788 -2.303711,-1.6318 -3.695536,-1.6318 z"
     id="path4884"
     inkscape:connector-curvature="0"
     style="fill:#ffffff;stroke-width:0.47993961" />
  <path
     d="m 11.296611,34.747775 c -0.335957,0 -0.671915,-0.19197 -0.911885,-0.47994 -0.383951,-0.52793 -0.23997,-1.24784 0.23997,-1.5838 l 18.573663,-13.82226 c 0.47994,-0.335958 1.151856,-0.287964 1.583801,0.191976 l 2.591674,3.119604 c 0.431946,0.47994 0.335958,1.19985 -0.143982,1.6318 -0.479939,0.43194 -1.199849,0.33596 -1.631794,-0.14398 l -1.919759,-2.25572 -17.709772,13.10235 c -0.143982,0.19198 -0.431946,0.23997 -0.671916,0.23997 z m 49.817733,0 c -0.239969,0 -0.479939,-0.096 -0.671915,-0.23997 L 42.684663,21.357461 40.764904,23.613175 c -0.431945,0.47994 -1.103861,0.57593 -1.631794,0.14398 -0.47994,-0.43194 -0.575928,-1.10386 -0.143982,-1.63179 l 2.591674,-3.119608 c 0.383951,-0.47994 1.103861,-0.575928 1.583801,-0.191976 l 18.573663,13.822264 c 0.527934,0.38395 0.623921,1.10386 0.23997,1.5838 -0.143982,0.38395 -0.527934,0.52793 -0.863892,0.52793 z"
     id="path4886"
     inkscape:connector-curvature="0"
     style="fill:#ffffff;stroke-width:0.47993961" />
</svg>
