<?xml version="1.0" encoding="UTF-8" standalone="no"?>
<svg
   xmlns:dc="http://purl.org/dc/elements/1.1/"
   xmlns:cc="http://creativecommons.org/ns#"
   xmlns:rdf="http://www.w3.org/1999/02/22-rdf-syntax-ns#"
   xmlns:svg="http://www.w3.org/2000/svg"
   xmlns="http://www.w3.org/2000/svg"
   xmlns:sodipodi="http://sodipodi.sourceforge.net/DTD/sodipodi-0.dtd"
   xmlns:inkscape="http://www.inkscape.org/namespaces/inkscape"
   width="72"
   height="71.98764"
   viewBox="0 0 72 71.98764"
   version="1.1"
   id="svg312"
   sodipodi:docname="PraiseMonocleHC.svg"
   inkscape:version="0.92.2 5c3e80d, 2017-08-06">
  <metadata
     id="metadata318">
    <rdf:RDF>
      <cc:Work
         rdf:about="">
        <dc:format>image/svg+xml</dc:format>
        <dc:type
           rdf:resource="http://purl.org/dc/dcmitype/StillImage" />
      </cc:Work>
    </rdf:RDF>
  </metadata>
  <defs
     id="defs316" />
  <sodipodi:namedview
     pagecolor="#ffffff"
     bordercolor="#666666"
     borderopacity="1"
     objecttolerance="10"
     gridtolerance="10"
     guidetolerance="10"
     inkscape:pageopacity="0"
     inkscape:pageshadow="2"
     inkscape:window-width="1252"
     inkscape:window-height="660"
     id="namedview314"
     showgrid="false"
     inkscape:zoom="1.5733333"
     inkscape:cx="75.037568"
     inkscape:cy="74.99982"
     inkscape:window-x="0"
     inkscape:window-y="0"
     inkscape:window-maximized="0"
     inkscape:current-layer="svg312" />
  <circle
     transform="rotate(-88.267)"
     cx="-34.889816"
     cy="37.07967"
     id="ellipse304"
     r="35.992424"
     style="stroke-width:0.47989899" />
  <path
     d="m 36.011893,0 v 1.103811 h 1.05582 c 9.310413,0.287951 17.948941,4.175289 24.331853,10.942135 6.382911,6.766847 9.742339,15.645336 9.454388,24.955746 -0.287951,9.11845 -4.031313,17.66099 -10.606192,23.99591 -6.526887,6.38291 -15.117423,9.88631 -24.235869,9.88631 h -1.05582 C 25.645661,70.595962 17.007133,66.708632 10.624221,59.941782 4.1933179,53.126942 0.83389059,44.248452 1.1218415,34.938042 1.4097924,25.819602 5.1531542,17.277054 11.728033,10.942134 18.302912,4.607214 26.893448,1.103811 36.011893,1.103811 V 0 m 0,0 C 16.623199,0 0.64192331,15.405373 0.01802967,34.890052 -0.60586397,54.758662 15.039469,71.363832 34.908082,71.939732 h 1.103811 c 19.388695,0 35.369971,-15.40537 35.945873,-34.89005 C 72.581659,17.181071 56.936326,0.575901 37.067713,0 Z"
     id="path306"
     inkscape:connector-curvature="0"
     style="fill:#ffffff;stroke-width:0.47991818" />
  <path
     d="m 10.86418,45.448252 c 1.82369,0 3.071477,4.27127 6.862831,4.27127 3.791353,0 5.950985,-8.97447 13.965619,-8.97447 3.119468,0 5.087133,2.44758 5.087133,5.80701 0,3.93533 -4.511231,9.07046 -12.813816,9.07046 -14.4455373,0 -14.7334882,-10.17427 -13.101767,-10.17427 z"
     id="path308"
     inkscape:connector-curvature="0"
     style="fill:#ffffff;stroke-width:0.47991818" />
  <path
     d="m 61.927476,45.448252 c -1.82369,0 -3.071477,4.27127 -6.862831,4.27127 -3.791353,0 -5.950985,-8.97447 -14.013611,-8.97447 -3.119468,0 -5.087132,2.44758 -5.087132,5.80701 0,3.93533 4.511231,9.07046 12.813815,9.07046 14.445538,0 14.78148,-10.17427 13.149759,-10.17427 z M 48.777717,33.978212 c -5.231108,0 -9.454388,-4.22328 -9.454388,-9.45439 0,-5.231111 4.22328,-9.454391 9.454388,-9.454391 5.231108,0 9.454389,4.22328 9.454389,9.454391 -0.04799,5.23111 -4.271272,9.45439 -9.454389,9.45439 z m 0,-16.317223 c -3.791353,0 -6.86283,3.071476 -6.86283,6.862833 0,3.79135 3.071477,6.86283 6.86283,6.86283 3.791354,0 6.86283,-3.07148 6.86283,-6.86283 0,-3.743365 -3.071476,-6.862833 -6.86283,-6.862833 z"
     id="path310"
     inkscape:connector-curvature="0"
     style="fill:#ffffff;stroke-width:0.47991818" />
</svg>
