<?xml version="1.0" encoding="UTF-8" standalone="no"?>
<svg
   xmlns:dc="http://purl.org/dc/elements/1.1/"
   xmlns:cc="http://creativecommons.org/ns#"
   xmlns:rdf="http://www.w3.org/1999/02/22-rdf-syntax-ns#"
   xmlns:svg="http://www.w3.org/2000/svg"
   xmlns="http://www.w3.org/2000/svg"
   xmlns:sodipodi="http://sodipodi.sourceforge.net/DTD/sodipodi-0.dtd"
   xmlns:inkscape="http://www.inkscape.org/namespaces/inkscape"
   width="72"
   height="72.467834"
   viewBox="0 0 72 72.467834"
   version="1.1"
   id="svg4566"
   sodipodi:docname="PraiseDoubleRainbowHC.svg"
   inkscape:version="0.92.2 5c3e80d, 2017-08-06">
  <metadata
     id="metadata4572">
    <rdf:RDF>
      <cc:Work
         rdf:about="">
        <dc:format>image/svg+xml</dc:format>
        <dc:type
           rdf:resource="http://purl.org/dc/dcmitype/StillImage" />
      </cc:Work>
    </rdf:RDF>
  </metadata>
  <defs
     id="defs4570" />
  <sodipodi:namedview
     pagecolor="#ffffff"
     bordercolor="#666666"
     borderopacity="1"
     objecttolerance="10"
     gridtolerance="10"
     guidetolerance="10"
     inkscape:pageopacity="0"
     inkscape:pageshadow="2"
     inkscape:window-width="1245"
     inkscape:window-height="449"
     id="namedview4568"
     showgrid="false"
     inkscape:zoom="1.5733333"
     inkscape:cx="75.038"
     inkscape:cy="76.012453"
     inkscape:window-x="0"
     inkscape:window-y="0"
     inkscape:window-maximized="0"
     inkscape:current-layer="svg4566" />
  <circle
     cx="36.009014"
     cy="35.990986"
     r="35.990986"
     id="circle4548"
     style="stroke-width:0.47987983" />
  <path
     d="M 36.009014,7.486084e-6 V 1.1037305 h 1.055736 c 9.309668,0.287928 17.947505,4.174955 24.329906,10.9412595 6.382402,6.766305 9.74156,15.644079 9.453632,24.953749 -0.287927,9.11772 -4.03099,17.65958 -10.605343,23.99399 -6.526366,6.3824 -15.116214,9.88553 -24.233931,9.88553 H 34.953279 C 25.64361,70.590329 17.005774,66.703299 10.623372,59.936999 4.1929826,53.122699 0.83382391,44.244929 1.1217518,34.935259 1.4096797,25.817539 5.1527422,17.27568 11.727096,10.941267 18.301449,4.6068535 26.891298,1.1037305 36.009014,1.1037305 V 7.486084e-6 m 0,0 C 16.62187,7.486084e-6 0.64187199,15.404149 0.01802823,34.887269 -0.60581552,54.754289 15.038266,71.358139 34.905291,71.933989 h 1.103723 c 19.387145,0 35.367142,-15.40414 35.942998,-34.88726 C 72.575856,17.179704 56.931774,0.57586349 37.06475,7.486084e-6 Z"
     id="path4550"
     inkscape:connector-curvature="0"
     style="fill:#ffffff;stroke-width:0.47987983" />
  <path
     d="m 57.699582,28.696819 c -0.09598,-0.76781 -0.287928,-1.53561 -0.623844,-2.20745 -2.207447,-4.51087 -9.069729,-5.710566 -15.356154,-2.63934 -9.357656,4.55886 -32.0079836,20.15496 -25.769546,32.91976 2.207447,4.51087 9.069728,5.71057 15.356154,2.68733 3.311171,2.83129 9.069728,3.21519 14.396394,0.57585 5.47063,-2.68732 8.733813,-7.67807 8.349909,-12.09297 1.055736,-0.28793 2.159459,-0.67183 3.215195,-1.1997 6.286425,-3.07123 9.549608,-9.21369 7.342161,-13.77255 -1.247688,-2.44739 -3.839039,-3.93501 -6.910269,-4.27093 z"
     id="path4552"
     inkscape:connector-curvature="0"
     style="fill:#ffffff;stroke-width:0.47987983" />
  <path
     d="m 38.888293,18.811295 10.653332,10.797294 c 2.543363,2.59135 2.639339,6.76631 0.143964,9.45363 l -9.885524,10.74931 c -2.639339,2.87928 -7.15021,2.97526 -9.933512,0.19195 l -11.90102,-11.80504 z"
     id="path4554"
     inkscape:connector-curvature="0"
     style="stroke-width:0.47987983" />
  <path
     stroke-miterlimit="10"
     d="m 39.224209,49.859519 c -1.103724,0.86378 -2.495375,1.39165 -3.935015,1.39165 -1.679579,0 -3.263182,-0.67183 -4.462882,-1.87153 l -26.9692453,-26.96924 -0.2879279,0.71981 26.7293052,26.7773 c 2.735315,2.73531 7.198198,2.73531 9.933512,0 L 6.9762855,16.651836 C 6.8323216,16.843788 6.6883576,17.083728 6.5923817,17.27568 Z"
     id="path4556"
     inkscape:connector-curvature="0"
     style="fill:#ffffff;stroke:#ffffff;stroke-width:0.95975965;stroke-miterlimit:10" />
  <path
     stroke-miterlimit="10"
     d="M 11.007276,11.709074 44.214959,44.916759 40.279944,48.851769 7.4081773,16.027993 C 7.2642134,16.219944 7.1202494,16.411896 6.9762855,16.651836 L 40.231956,49.907509 45.222707,44.916759 11.487156,11.181206 c -0.143964,0.191952 -0.335916,0.335916 -0.47988,0.527868 z"
     id="path4558"
     inkscape:connector-curvature="0"
     style="fill:#ffffff;stroke:#ffffff;stroke-width:0.95975965;stroke-miterlimit:10" />
  <path
     stroke-miterlimit="10"
     d="m 49.157721,39.926009 -3.935014,3.93501 -33.207683,-33.159692 c -0.191952,0.143964 -0.335916,0.335915 -0.527868,0.479879 l 33.735551,33.735553 4.99075,-4.99075 L 17.005774,6.7663125 c -0.191952,0.143964 -0.431892,0.287928 -0.623844,0.383904 z"
     id="path4560"
     inkscape:connector-curvature="0"
     style="fill:#ffffff;stroke:#ffffff;stroke-width:0.95975965;stroke-miterlimit:10" />
  <path
     stroke-miterlimit="10"
     d="m 49.637601,30.568349 c 2.303423,2.30342 2.447387,5.90252 0.47988,8.3979 L 17.533641,6.3824085 c -0.191952,0.143964 -0.431891,0.23994 -0.623843,0.383904 L 50.117481,39.973999 c 2.735315,-2.73532 2.735315,-7.1982 0,-9.93352 L 23.532139,3.4071535 l -0.71982,0.287928 z"
     id="path4562"
     inkscape:connector-curvature="0"
     style="fill:#ffffff;stroke:#ffffff;stroke-width:0.95975965;stroke-miterlimit:10" />
  <circle
     transform="rotate(-88.267038)"
     cx="-35.979618"
     cy="37.665031"
     id="ellipse4564"
     r="35.365631"
     style="fill:none;stroke-width:0.47985935" />
</svg>
