<?xml version="1.0" encoding="UTF-8" standalone="no"?>
<svg
   xmlns:dc="http://purl.org/dc/elements/1.1/"
   xmlns:cc="http://creativecommons.org/ns#"
   xmlns:rdf="http://www.w3.org/1999/02/22-rdf-syntax-ns#"
   xmlns:svg="http://www.w3.org/2000/svg"
   xmlns="http://www.w3.org/2000/svg"
   xmlns:sodipodi="http://sodipodi.sourceforge.net/DTD/sodipodi-0.dtd"
   xmlns:inkscape="http://www.inkscape.org/namespaces/inkscape"
   width="72"
   height="72"
   viewBox="0 0 72 72"
   version="1.1"
   id="svg502"
   sodipodi:docname="PraiseThumbsUp.svg"
   inkscape:version="0.92.2 5c3e80d, 2017-08-06">
  <metadata
     id="metadata508">
    <rdf:RDF>
      <cc:Work
         rdf:about="">
        <dc:format>image/svg+xml</dc:format>
        <dc:type
           rdf:resource="http://purl.org/dc/dcmitype/StillImage" />
      </cc:Work>
    </rdf:RDF>
  </metadata>
  <defs
     id="defs506" />
  <sodipodi:namedview
     pagecolor="#ffffff"
     bordercolor="#666666"
     borderopacity="1"
     objecttolerance="10"
     gridtolerance="10"
     guidetolerance="10"
     inkscape:pageopacity="0"
     inkscape:pageshadow="2"
     inkscape:window-width="1304"
     inkscape:window-height="553"
     id="namedview504"
     showgrid="false"
     inkscape:zoom="1.5733333"
     inkscape:cx="75.005999"
     inkscape:cy="74.999825"
     inkscape:window-x="0"
     inkscape:window-y="0"
     inkscape:window-maximized="0"
     inkscape:current-layer="svg502" />
  <circle
     transform="rotate(-88.267)"
     cx="-34.894825"
     cy="37.072243"
     id="ellipse496"
     r="36"
     style="fill:#f8ae41;stroke-width:0.47999999" />
  <path
     d="m 13.107405,33.166525 h 11.424457 v 17.90472 H 13.107405 Z"
     id="path498"
     inkscape:connector-curvature="0"
     style="fill:#386cbb;stroke-width:0.48001921" />
  <path
     d="m 27.411977,32.446495 c 2.448098,-0.81603 4.848194,-2.73611 5.952238,-4.56018 1.104044,-1.82407 7.680307,-8.01632 8.784351,-11.760469 1.104045,-3.74415 2.832114,-4.224169 4.896196,-2.112085 3.456138,3.50414 -2.400096,12.720514 -2.400096,12.720514 0.672027,2.35209 13.48854,-1.92008 13.48854,3.50414 0,1.48805 -0.768031,1.82407 -0.768031,2.97611 0,1.15205 2.25609,0.86404 2.25609,3.07213 0,2.20809 -1.392055,2.06408 -1.392055,3.12012 0,1.00804 1.00804,0.72003 1.00804,3.12013 0,2.06408 -2.208088,2.40009 -2.208088,3.26413 0,0.86403 0.336013,0.91203 0.336013,2.92811 0,6.67227 -23.040922,2.59211 -29.953198,2.59211 z"
     id="path500"
     inkscape:connector-curvature="0"
     style="fill:#ffffff;stroke-width:0.48001921" />
</svg>
