<?xml version="1.0" encoding="UTF-8" standalone="no"?>
<svg
   xmlns:dc="http://purl.org/dc/elements/1.1/"
   xmlns:cc="http://creativecommons.org/ns#"
   xmlns:rdf="http://www.w3.org/1999/02/22-rdf-syntax-ns#"
   xmlns:svg="http://www.w3.org/2000/svg"
   xmlns="http://www.w3.org/2000/svg"
   xmlns:sodipodi="http://sodipodi.sourceforge.net/DTD/sodipodi-0.dtd"
   xmlns:inkscape="http://www.inkscape.org/namespaces/inkscape"
   viewBox="0 0 72 71.98764"
   version="1.1"
   id="svg4130"
   sodipodi:docname="PraiseAceHC.svg"
   width="72"
   height="71.98764"
   inkscape:version="0.92.2 5c3e80d, 2017-08-06">
  <metadata
     id="metadata4136">
    <rdf:RDF>
      <cc:Work
         rdf:about="">
        <dc:format>image/svg+xml</dc:format>
        <dc:type
           rdf:resource="http://purl.org/dc/dcmitype/StillImage" />
      </cc:Work>
    </rdf:RDF>
  </metadata>
  <defs
     id="defs4134" />
  <sodipodi:namedview
     pagecolor="#ffffff"
     bordercolor="#666666"
     borderopacity="1"
     objecttolerance="10"
     gridtolerance="10"
     guidetolerance="10"
     inkscape:pageopacity="0"
     inkscape:pageshadow="2"
     inkscape:window-width="903"
     inkscape:window-height="595"
     id="namedview4132"
     showgrid="false"
     inkscape:zoom="2.2250293"
     inkscape:cx="21.105695"
     inkscape:cy="39.045241"
     inkscape:window-x="0"
     inkscape:window-y="0"
     inkscape:window-maximized="0"
     inkscape:current-layer="svg4130" />
  <circle
     transform="rotate(-88.267)"
     cx="-34.889816"
     cy="37.07967"
     id="ellipse4122"
     r="35.992424"
     style="stroke-width:0.47989899" />
  <path
     d="m 36.011893,0 v 1.103811 h 1.05582 c 9.310413,0.287951 17.948941,4.175289 24.331853,10.942135 6.382911,6.766847 9.742339,15.645336 9.454388,24.955746 -0.287951,9.11845 -4.031313,17.66099 -10.606192,23.99591 -6.526887,6.38291 -15.117423,9.88631 -24.235869,9.88631 h -1.05582 C 25.645661,70.595962 17.007133,66.708632 10.624221,59.941782 4.1933179,53.126942 0.8338906,44.248452 1.1218415,34.938042 1.4097924,25.819602 5.1531542,17.277054 11.728033,10.942134 18.302912,4.607214 26.893448,1.103811 36.011893,1.103811 V 0 m 0,0 C 16.623199,0 0.64192332,15.405373 0.01802968,34.890052 -0.60586396,54.758662 15.039469,71.363832 34.908082,71.939732 h 1.103811 c 19.388695,0 35.369971,-15.40537 35.945873,-34.89005 C 72.581659,17.181071 56.936326,0.575901 37.067713,0 Z"
     id="path4124"
     inkscape:connector-curvature="0"
     style="fill:#ffffff;stroke-width:0.47991818" />
  <path
     d="m 36.635787,37.529602 c 0,0 1.919673,9.64636 9.694347,9.64636 2.87951,0 7.10279,-2.54357 7.10279,-8.73452 0,-12.42988 -17.421031,-23.036069 -17.421031,-23.036069 0,0 -18.140907,11.949959 -18.140907,21.932259 0,7.00681 2.975493,10.70218 8.206601,10.70218 8.782503,0 10.5582,-10.51021 10.5582,-10.51021 z M 21.566356,22.652142 20.702503,20.396523 h -4.415247 l -0.815861,2.255619 h -2.975493 l 4.799182,-11.422057 h 2.687542 l 4.75119,11.422057 z M 18.49488,13.72566 16.719182,18.47685 h 3.503403 z m 35.130011,33.354312 0.863853,2.25562 h 4.415247 l 0.815861,-2.25562 h 2.975493 l -4.799182,11.42205 h -2.687542 l -4.75119,-11.42205 z m 3.071476,8.92648 1.775698,-4.75119 h -3.503403 z"
     id="path4126"
     inkscape:connector-curvature="0"
     style="fill:#ffffff;stroke-width:0.47991818" />
  <path
     d="m 36.635787,37.529602 -4.415247,15.2614 h 9.070454 z"
     id="path4128"
     inkscape:connector-curvature="0"
     style="fill:#ffffff;stroke-width:0.47991818" />
</svg>
