<?xml version="1.0" encoding="UTF-8" standalone="no"?>
<svg
   xmlns:dc="http://purl.org/dc/elements/1.1/"
   xmlns:cc="http://creativecommons.org/ns#"
   xmlns:rdf="http://www.w3.org/1999/02/22-rdf-syntax-ns#"
   xmlns:svg="http://www.w3.org/2000/svg"
   xmlns="http://www.w3.org/2000/svg"
   xmlns:sodipodi="http://sodipodi.sourceforge.net/DTD/sodipodi-0.dtd"
   xmlns:inkscape="http://www.inkscape.org/namespaces/inkscape"
   width="72"
   height="72"
   viewBox="0 0 72 72"
   version="1.1"
   id="svg4864"
   sodipodi:docname="PraiseGlasses.svg"
   inkscape:version="0.92.2 5c3e80d, 2017-08-06">
  <metadata
     id="metadata4870">
    <rdf:RDF>
      <cc:Work
         rdf:about="">
        <dc:format>image/svg+xml</dc:format>
        <dc:type
           rdf:resource="http://purl.org/dc/dcmitype/StillImage" />
      </cc:Work>
    </rdf:RDF>
  </metadata>
  <defs
     id="defs4868" />
  <sodipodi:namedview
     pagecolor="#ffffff"
     bordercolor="#666666"
     borderopacity="1"
     objecttolerance="10"
     gridtolerance="10"
     guidetolerance="10"
     inkscape:pageopacity="0"
     inkscape:pageshadow="2"
     inkscape:window-width="1281"
     inkscape:window-height="488"
     id="namedview4866"
     showgrid="false"
     inkscape:zoom="1.5733333"
     inkscape:cx="75.005999"
     inkscape:cy="74.999825"
     inkscape:window-x="0"
     inkscape:window-y="0"
     inkscape:window-maximized="0"
     inkscape:current-layer="svg4864" />
  <circle
     transform="rotate(-88.267)"
     cx="-34.894825"
     cy="37.072243"
     id="ellipse4850"
     r="36"
     style="opacity:0.8;fill:#fb7f78;stroke-width:0.47999999" />
  <path
     stroke-miterlimit="10"
     d="m 33.700228,34.846595 h 5.856235 v 2.4961 h -5.856235 z"
     id="path4852"
     inkscape:connector-curvature="0"
     style="fill:#9e3028;stroke:#9e3028;stroke-width:0.24000961;stroke-miterlimit:10" />
  <path
     d="m 26.067923,47.423095 h -13.00852 c -1.632065,0 -2.976119,-1.29605 -3.0721228,-2.92811 L 9.507261,35.950635 c -0.096004,-1.77607 1.296052,-3.26413 3.072123,-3.26413 h 17.5207 c 1.968079,0 3.408137,1.77607 3.024121,3.69615 l -1.24805,6.28825 c -0.528021,2.73611 -2.976119,4.75219 -5.808232,4.75219 z"
     id="path4854"
     inkscape:connector-curvature="0"
     style="fill:#ffffff;stroke-width:0.48001921" />
  <path
     stroke-miterlimit="10"
     d="m 30.052083,32.686505 c 1.968078,0 3.408136,1.77607 3.02412,3.69615 l -1.248049,6.28825 c -0.528022,2.78411 -2.976119,4.75219 -5.808233,4.75219 H 13.059403 c -1.632065,0 -2.976119,-1.29605 -3.0721228,-2.92811 L 9.507261,35.950635 c -0.096004,-1.77607 1.296052,-3.26413 3.072123,-3.26413 h 17.472699 m 0,-2.4961 H 12.579384 c -1.536062,0 -3.0241211,0.62403 -4.0801633,1.72807 -1.0560422,1.10405 -1.5840634,2.64011 -1.5360614,4.17617 l 0.4800192,8.54434 c 0.1440057,2.97612 2.6401055,5.28021 5.5682225,5.28021 h 13.056522 c 4.032161,0 7.4883,-2.83211 8.25633,-6.76827 l 1.24805,-6.28825 c 0.336014,-1.63207 -0.096,-3.31213 -1.152046,-4.60818 -1.104044,-1.34406 -2.688107,-2.06409 -4.368174,-2.06409 z"
     id="path4856"
     inkscape:connector-curvature="0"
     style="fill:#9e3028;stroke:#9e3028;stroke-width:0.24000961;stroke-miterlimit:10" />
  <path
     d="m 47.380776,47.423095 h 13.056522 c 1.632065,0 2.976119,-1.29605 3.072123,-2.92811 l 0.480019,-8.54435 c 0.096,-1.77607 -1.296052,-3.26413 -3.072123,-3.26413 H 43.396616 c -1.968078,0 -3.408136,1.77607 -3.024121,3.69615 l 1.24805,6.28825 c 0.528021,2.73611 2.928117,4.75219 5.760231,4.75219 z"
     id="path4858"
     inkscape:connector-curvature="0"
     style="fill:#ffffff;stroke-width:0.48001921" />
  <path
     stroke-miterlimit="10"
     d="m 60.917317,32.686505 c 1.776071,0 3.168127,1.48806 3.072123,3.26413 l -0.480019,8.54435 c -0.096,1.63206 -1.440058,2.92811 -3.072123,2.92811 H 47.380776 c -2.832114,0 -5.23221,-2.01608 -5.808233,-4.75219 l -1.24805,-6.28825 c -0.384015,-1.92008 1.104045,-3.69615 3.024121,-3.69615 h 17.568703 m 0,-2.4961 H 43.396616 c -1.680067,0 -3.26413,0.72003 -4.320173,2.01608 -1.056042,1.29606 -1.488059,2.97612 -1.152046,4.60819 l 1.24805,6.28825 c 0.768031,3.93616 4.224169,6.81627 8.208329,6.81627 h 13.056522 c 2.976119,0 5.424217,-2.30409 5.568223,-5.28021 l 0.480019,-8.54434 c 0.096,-1.53606 -0.480019,-3.02412 -1.536062,-4.17617 -1.00804,-1.10404 -2.496099,-1.72807 -4.032161,-1.72807 z"
     id="path4860"
     inkscape:connector-curvature="0"
     style="fill:#9e3028;stroke:#9e3028;stroke-width:0.24000961;stroke-miterlimit:10" />
  <path
     stroke-miterlimit="10"
     d="m 9.8912764,33.694545 c -0.3840154,0 -0.7680307,-0.192 -1.0080403,-0.52802 -0.4320173,-0.57602 -0.2880116,-1.34405 0.2400096,-1.72807 L 29.188048,16.509861 c 0.528021,-0.384015 1.296052,-0.288011 1.680067,0.192008 l 2.832113,3.360134 c 0.432018,0.528021 0.384016,1.296052 -0.144005,1.776071 -0.528021,0.432021 -1.296052,0.384011 -1.776071,-0.144006 L 29.764071,19.24597 10.659307,33.454535 c -0.24001,0.14401 -0.480019,0.24001 -0.7680306,0.24001 z m 53.7621506,0 c -0.24001,0 -0.528022,-0.096 -0.768031,-0.24001 L 43.780632,19.24597 41.716549,21.694068 c -0.432017,0.528017 -1.24805,0.576027 -1.776071,0.144006 -0.528021,-0.432017 -0.576023,-1.24805 -0.144006,-1.776071 l 2.832114,-3.360134 c 0.432017,-0.528021 1.152046,-0.576023 1.680067,-0.192008 l 20.064802,14.928594 c 0.576023,0.43202 0.672027,1.20005 0.24001,1.72807 -0.192008,0.33602 -0.576023,0.52802 -0.960038,0.52802 z"
     id="path4862"
     inkscape:connector-curvature="0"
     style="fill:#9e3028;stroke:#9e3028;stroke-width:0.24000961;stroke-miterlimit:10" />
</svg>
