<?xml version="1.0" encoding="UTF-8" standalone="no"?>
<svg
   xmlns:dc="http://purl.org/dc/elements/1.1/"
   xmlns:cc="http://creativecommons.org/ns#"
   xmlns:rdf="http://www.w3.org/1999/02/22-rdf-syntax-ns#"
   xmlns:svg="http://www.w3.org/2000/svg"
   xmlns="http://www.w3.org/2000/svg"
   xmlns:xlink="http://www.w3.org/1999/xlink"
   xmlns:sodipodi="http://sodipodi.sourceforge.net/DTD/sodipodi-0.dtd"
   xmlns:inkscape="http://www.inkscape.org/namespaces/inkscape"
   width="72"
   height="72"
   viewBox="0 0 72 72"
   version="1.1"
   id="svg164"
   sodipodi:docname="PraiseGraduationCap.svg"
   inkscape:version="0.92.2 5c3e80d, 2017-08-06">
  <metadata
     id="metadata170">
    <rdf:RDF>
      <cc:Work
         rdf:about="">
        <dc:format>image/svg+xml</dc:format>
        <dc:type
           rdf:resource="http://purl.org/dc/dcmitype/StillImage" />
      </cc:Work>
    </rdf:RDF>
  </metadata>
  <defs
     id="defs168" />
  <sodipodi:namedview
     pagecolor="#ffffff"
     bordercolor="#666666"
     borderopacity="1"
     objecttolerance="10"
     gridtolerance="10"
     guidetolerance="10"
     inkscape:pageopacity="0"
     inkscape:pageshadow="2"
     inkscape:window-width="1212"
     inkscape:window-height="672"
     id="namedview166"
     showgrid="false"
     inkscape:zoom="3.1348401"
     inkscape:cx="47.93833"
     inkscape:cy="29.887043"
     inkscape:window-x="0"
     inkscape:window-y="0"
     inkscape:window-maximized="0"
     inkscape:current-layer="svg164" />
  <circle
     transform="rotate(-88.267)"
     cx="-34.894825"
     cy="37.072243"
     id="ellipse152"
     r="36"
     style="opacity:0.8;fill:#fb7f78;stroke-width:0.47999999" />
  <path
     d="m 53.621025,45.263015 c 0,5.66422 -7.824313,10.27241 -17.424697,10.27241 -9.600384,0 -17.472699,-4.60819 -17.472699,-10.27241 v -10.32042 l 34.849394,-0.86403 z"
     id="path154"
     inkscape:connector-curvature="0"
     style="fill:#386cbb;stroke-width:0.48001921" />
  <path
     d="M 36.148326,17.757911 8.6432265,33.166525 36.148326,48.575145 63.701428,33.166525 Z"
     id="path156"
     inkscape:connector-curvature="0"
     style="fill:#6c98d9;stroke-width:0.48001921" />
  <path
     d="M 36.148326,17.757911 63.653427,33.166525 36.148326,48.575145 8.6432265,33.166525 36.148326,17.757911 m 0,-1.392056 -0.576023,0.336014 -27.5050996,15.408616 -1.8240729,1.05604 1.8240729,1.05604 27.5050996,15.40862 0.576023,0.33601 0.576023,-0.33601 27.505101,-15.40862 1.824073,-1.05604 -1.824073,-1.05604 -27.505101,-15.408616 z"
     id="path158"
     inkscape:connector-curvature="0"
     style="fill:#f9a0a0;stroke-width:0.48001921" />
  <path
     d="m 59.621265,56.063445 c -0.240009,0 -0.480019,-0.14401 -0.624025,-0.38402 -0.096,-0.144 -2.25609,-3.98416 -2.01608,-7.15228 0.048,-0.33602 0.048,-0.72003 0.096,-1.20005 0.288011,-2.88012 0.960038,-9.69639 -1.536062,-10.56042 -3.360134,-1.15205 -18.960758,-4.27217 -19.104764,-4.27217 -0.384015,-0.096 -0.624025,-0.43202 -0.576023,-0.86404 0.096,-0.38401 0.432017,-0.62402 0.864034,-0.57602 0.624025,0.144 15.840634,3.12012 19.296772,4.36817 3.600144,1.24805 2.928117,8.01632 2.4961,12.04848 -0.048,0.43202 -0.096,0.81604 -0.096,1.15205 -0.240009,2.68811 1.824073,6.28825 1.824073,6.28825 0.192008,0.33602 0.096,0.76803 -0.288011,0.96004 -0.096,0.14401 -0.24001,0.19201 -0.336014,0.19201 z"
     id="path160"
     inkscape:connector-curvature="0"
     style="fill:#19345d;stroke-width:0.48001921" />
  <ellipse
     cx="37.060364"
     cy="31.822479"
     rx="1.9200768"
     ry="1.4400576"
     id="ellipse162"
     style="fill:#19345d;stroke-width:0.48001921" />
  <use
     x="0"
     y="0"
     xlink:href="#ellipse152"
     id="use4251" />
  <use
     x="0"
     y="0"
     xlink:href="#path154"
     id="use4253" />
  <use
     x="0"
     y="0"
     xlink:href="#path156"
     id="use4255" />
  <use
     x="0"
     y="0"
     xlink:href="#path158"
     id="use4257" />
  <use
     x="0"
     y="0"
     xlink:href="#path160"
     id="use4259" />
  <use
     x="0"
     y="0"
     xlink:href="#ellipse162"
     id="use4261" />
  <circle
     style="opacity:0.8;fill:#fb7f78;stroke-width:0.47999999"
     r="36"
     id="use4263"
     cy="37.072243"
     cx="-34.894825"
     transform="rotate(-88.267)" />
  <path
     style="fill:#386cbb;stroke-width:0.48001921"
     inkscape:connector-curvature="0"
     id="use4265"
     d="m 53.621025,45.263015 c 0,5.66422 -7.824313,10.27241 -17.424697,10.27241 -9.600384,0 -17.472699,-4.60819 -17.472699,-10.27241 v -10.32042 l 34.849394,-0.86403 z" />
  <path
     style="fill:#6c98d9;stroke-width:0.48001921"
     inkscape:connector-curvature="0"
     id="use4267"
     d="M 36.148326,17.757911 8.6432265,33.166525 36.148326,48.575145 63.701428,33.166525 Z" />
  <path
     style="fill:#f9a0a0;stroke-width:0.48001921"
     inkscape:connector-curvature="0"
     id="use4269"
     d="M 36.148326,17.757911 63.653427,33.166525 36.148326,48.575145 8.6432265,33.166525 36.148326,17.757911 m 0,-1.392056 -0.576023,0.336014 -27.5050996,15.408616 -1.8240729,1.05604 1.8240729,1.05604 27.5050996,15.40862 0.576023,0.33601 0.576023,-0.33601 27.505101,-15.40862 1.824073,-1.05604 -1.824073,-1.05604 -27.505101,-15.408616 z" />
  <path
     style="fill:#19345d;stroke-width:0.48001921"
     inkscape:connector-curvature="0"
     id="use4271"
     d="m 59.621265,56.063445 c -0.240009,0 -0.480019,-0.14401 -0.624025,-0.38402 -0.096,-0.144 -2.25609,-3.98416 -2.01608,-7.15228 0.048,-0.33602 0.048,-0.72003 0.096,-1.20005 0.288011,-2.88012 0.960038,-9.69639 -1.536062,-10.56042 -3.360134,-1.15205 -18.960758,-4.27217 -19.104764,-4.27217 -0.384015,-0.096 -0.624025,-0.43202 -0.576023,-0.86404 0.096,-0.38401 0.432017,-0.62402 0.864034,-0.57602 0.624025,0.144 15.840634,3.12012 19.296772,4.36817 3.600144,1.24805 2.928117,8.01632 2.4961,12.04848 -0.048,0.43202 -0.096,0.81604 -0.096,1.15205 -0.240009,2.68811 1.824073,6.28825 1.824073,6.28825 0.192008,0.33602 0.096,0.76803 -0.288011,0.96004 -0.096,0.14401 -0.24001,0.19201 -0.336014,0.19201 z" />
  <ellipse
     style="fill:#19345d;stroke-width:0.48001921"
     id="use4273"
     ry="1.4400576"
     rx="1.9200768"
     cy="31.822479"
     cx="37.060364" />
  <use
     x="0"
     y="0"
     xlink:href="#use4263"
     id="use4287" />
  <use
     x="0"
     y="0"
     xlink:href="#use4265"
     id="use4289" />
  <use
     x="0"
     y="0"
     xlink:href="#use4267"
     id="use4291" />
  <use
     x="0"
     y="0"
     xlink:href="#use4269"
     id="use4293" />
  <use
     x="0"
     y="0"
     xlink:href="#use4271"
     id="use4295" />
  <use
     x="0"
     y="0"
     xlink:href="#use4273"
     id="use4297" />
</svg>
