<?xml version="1.0" encoding="UTF-8" standalone="no"?>
<svg
   xmlns:dc="http://purl.org/dc/elements/1.1/"
   xmlns:cc="http://creativecommons.org/ns#"
   xmlns:rdf="http://www.w3.org/1999/02/22-rdf-syntax-ns#"
   xmlns:svg="http://www.w3.org/2000/svg"
   xmlns="http://www.w3.org/2000/svg"
   xmlns:sodipodi="http://sodipodi.sourceforge.net/DTD/sodipodi-0.dtd"
   xmlns:inkscape="http://www.inkscape.org/namespaces/inkscape"
   width="72"
   height="72"
   viewBox="0 0 72 72"
   version="1.1"
   id="svg474"
   sodipodi:docname="PraiseStar.svg"
   inkscape:version="0.92.2 5c3e80d, 2017-08-06">
  <metadata
     id="metadata480">
    <rdf:RDF>
      <cc:Work
         rdf:about="">
        <dc:format>image/svg+xml</dc:format>
        <dc:type
           rdf:resource="http://purl.org/dc/dcmitype/StillImage" />
      </cc:Work>
    </rdf:RDF>
  </metadata>
  <defs
     id="defs478" />
  <sodipodi:namedview
     pagecolor="#ffffff"
     bordercolor="#666666"
     borderopacity="1"
     objecttolerance="10"
     gridtolerance="10"
     guidetolerance="10"
     inkscape:pageopacity="0"
     inkscape:pageshadow="2"
     inkscape:window-width="1272"
     inkscape:window-height="546"
     id="namedview476"
     showgrid="false"
     inkscape:zoom="1.5733333"
     inkscape:cx="75.005999"
     inkscape:cy="74.999825"
     inkscape:window-x="0"
     inkscape:window-y="0"
     inkscape:window-maximized="0"
     inkscape:current-layer="svg474" />
  <circle
     transform="rotate(-88.267)"
     cx="-34.894825"
     cy="37.072243"
     id="ellipse466"
     r="36"
     style="fill:#f8ae41;stroke-width:0.47999999" />
  <path
     d="m 36.628346,49.391175 -15.888636,8.35234 3.024121,-17.71271 -12.816513,-12.5285 17.760711,-2.54411 7.920317,-16.1286409 7.968318,16.1286409 17.712709,2.54411 -12.816513,12.5285 3.024121,17.71271 z"
     id="path468"
     inkscape:connector-curvature="0"
     style="fill:#ffffff;stroke-width:0.48001921" />
  <path
     d="m 36.628346,44.734995 -11.280452,5.90423 2.160087,-12.5285 -9.120365,-8.92836 12.624505,-1.82407 5.616225,-11.424457 5.664226,11.424457 12.576503,1.82407 -9.120365,8.92836 2.160087,12.5285 z"
     id="path470"
     inkscape:connector-curvature="0"
     style="fill:#ffe98f;stroke-width:0.48001921" />
  <path
     d="m 36.628346,39.742795 -6.336254,3.31213 1.200048,-7.05628 -5.136205,-5.04021 7.104284,-1.00804 3.168127,-6.43225 3.168126,6.43225 7.104284,1.00804 -5.136205,5.04021 1.200048,7.05628 z"
     id="path472"
     inkscape:connector-curvature="0"
     style="fill:#fcd700;stroke-width:0.48001921" />
</svg>
