<?xml version="1.0" encoding="UTF-8" standalone="no"?>
<svg
   xmlns:dc="http://purl.org/dc/elements/1.1/"
   xmlns:cc="http://creativecommons.org/ns#"
   xmlns:rdf="http://www.w3.org/1999/02/22-rdf-syntax-ns#"
   xmlns:svg="http://www.w3.org/2000/svg"
   xmlns="http://www.w3.org/2000/svg"
   xmlns:sodipodi="http://sodipodi.sourceforge.net/DTD/sodipodi-0.dtd"
   xmlns:inkscape="http://www.inkscape.org/namespaces/inkscape"
   width="72"
   height="72"
   viewBox="0 0 72 72"
   version="1.1"
   id="svg362"
   sodipodi:docname="PraiseNinjaCat.svg"
   inkscape:version="0.92.2 5c3e80d, 2017-08-06">
  <metadata
     id="metadata368">
    <rdf:RDF>
      <cc:Work
         rdf:about="">
        <dc:format>image/svg+xml</dc:format>
        <dc:type
           rdf:resource="http://purl.org/dc/dcmitype/StillImage" />
      </cc:Work>
    </rdf:RDF>
  </metadata>
  <defs
     id="defs366" />
  <sodipodi:namedview
     pagecolor="#ffffff"
     bordercolor="#666666"
     borderopacity="1"
     objecttolerance="10"
     gridtolerance="10"
     guidetolerance="10"
     inkscape:pageopacity="0"
     inkscape:pageshadow="2"
     inkscape:window-width="1120"
     inkscape:window-height="528"
     id="namedview364"
     showgrid="false"
     inkscape:zoom="1.5733333"
     inkscape:cx="75"
     inkscape:cy="75"
     inkscape:window-x="0"
     inkscape:window-y="0"
     inkscape:window-maximized="0"
     inkscape:current-layer="svg362" />
  <circle
     cx="36"
     cy="36"
     r="36"
     id="circle344"
     style="fill:#84ca4b;stroke-width:0.47999999" />
  <path
     d="m 63.024,31.344 c 0,0 -2.64,0.864 -5.664,-0.144 -3.024,-1.008 -4.656,-4.368 -4.656,-4.368 0,0 2.928,-0.48 5.952,0.528 3.024,1.008 4.368,3.984 4.368,3.984 z"
     id="path346"
     inkscape:connector-curvature="0"
     style="fill:#d1423b;stroke-width:0.47999999" />
  <path
     d="m 63.6,24.096 c 0,0 -1.536,2.304 -4.56,3.36 -3.024,1.056 -6.336,-0.576 -6.336,-0.576 0,0 2.016,-2.16 5.04,-3.216 3.024,-1.056 5.856,0.432 5.856,0.432 z"
     id="path348"
     inkscape:connector-curvature="0"
     style="fill:#d1423b;stroke-width:0.47999999" />
  <path
     d="m 23.232,10.704 c 0,0 4.176,11.088 12.336,11.088 10.848,0 13.488,-11.088 13.488,-11.088 0,0 4.32,26.112 15.744,31.872 l -6.96,0.528 6.576,7.68 -6.288,-0.288 2.496,4.992 -11.04,-4.56 c -3.312,7.968 -21.936,8.016 -25.44,0.672 l -11.184,5.376 5.472,-7.68 -9.12,3.264 4.272,-6.624 -6.384,0.096 c 0,0 13.92,-20.304 16.032,-35.328 z"
     id="path350"
     inkscape:connector-curvature="0"
     style="fill:#495361;stroke-width:0.47999999" />
  <path
     d="m 22.272,37.296 c 0,5.52 7.92,-0.096 13.728,-0.096 5.808,0 14.304,6.144 14.304,0.096 0,-3.36 -6.144,-7.104 -14.304,-7.104 -7.2,0 -13.728,3.888 -13.728,7.104 z"
     id="path352"
     inkscape:connector-curvature="0"
     style="fill:#ffffff;stroke-width:0.47999999" />
  <path
     d="m 26.688,47.328 c 1.344,2.784 12.432,3.024 9.648,-4.128 -2.16,-5.76 -12.576,-1.872 -9.648,4.128 z"
     id="path354"
     inkscape:connector-curvature="0"
     style="fill:#a8b0bd;stroke-width:0.47999999" />
  <path
     d="m 46.944,47.568 c -2.448,3.168 -12.048,1.056 -9.456,-4.32 2.64,-5.616 13.536,-1.008 9.456,4.32 z"
     id="path356"
     inkscape:connector-curvature="0"
     style="fill:#a8b0bd;stroke-width:0.47999999" />
  <path
     d="m 44.928,37.2 c -0.864,0 -1.536,-0.672 -1.536,-1.536 V 34.8 c 0,-0.864 0.672,-1.536 1.536,-1.536 0.864,0 1.536,0.672 1.536,1.536 v 0.864 c 0,0.864 -0.672,1.536 -1.536,1.536 z m -16.272,0 c -0.864,0 -1.536,-0.672 -1.536,-1.536 V 34.8 c 0,-0.864 0.672,-1.536 1.536,-1.536 0.864,0 1.536,0.672 1.536,1.536 v 0.864 c 0,0.864 -0.672,1.536 -1.536,1.536 z"
     id="path358"
     inkscape:connector-curvature="0"
     style="fill:#495361;stroke-width:0.47999999" />
  <path
     d="m 37.008,44.592 2.784,-3.6 h -5.28 z M 54.384,28.656 H 17.136 l 2.016,-4.416 h 33.456 z"
     id="path360"
     inkscape:connector-curvature="0"
     style="fill:#d1423b;stroke-width:0.47999999" />
</svg>
