<?xml version="1.0" encoding="UTF-8" standalone="no"?>
<svg
   xmlns:dc="http://purl.org/dc/elements/1.1/"
   xmlns:cc="http://creativecommons.org/ns#"
   xmlns:rdf="http://www.w3.org/1999/02/22-rdf-syntax-ns#"
   xmlns:svg="http://www.w3.org/2000/svg"
   xmlns="http://www.w3.org/2000/svg"
   xmlns:sodipodi="http://sodipodi.sourceforge.net/DTD/sodipodi-0.dtd"
   xmlns:inkscape="http://www.inkscape.org/namespaces/inkscape"
   width="72"
   height="71.98764"
   viewBox="0 0 72 71.98764"
   version="1.1"
   id="svg390"
   sodipodi:docname="PraiseNinjaCatHC.svg"
   inkscape:version="0.92.2 5c3e80d, 2017-08-06">
  <metadata
     id="metadata396">
    <rdf:RDF>
      <cc:Work
         rdf:about="">
        <dc:format>image/svg+xml</dc:format>
        <dc:type
           rdf:resource="http://purl.org/dc/dcmitype/StillImage" />
      </cc:Work>
    </rdf:RDF>
  </metadata>
  <defs
     id="defs394" />
  <sodipodi:namedview
     pagecolor="#ffffff"
     bordercolor="#666666"
     borderopacity="1"
     objecttolerance="10"
     gridtolerance="10"
     guidetolerance="10"
     inkscape:pageopacity="0"
     inkscape:pageshadow="2"
     inkscape:window-width="1310"
     inkscape:window-height="535"
     id="namedview392"
     showgrid="false"
     inkscape:zoom="1.5733333"
     inkscape:cx="75.037568"
     inkscape:cy="74.99982"
     inkscape:window-x="0"
     inkscape:window-y="0"
     inkscape:window-maximized="0"
     inkscape:current-layer="svg390" />
  <circle
     transform="rotate(-88.267)"
     cx="-34.889816"
     cy="37.07967"
     id="ellipse370"
     r="35.992424"
     style="stroke-width:0.47989899" />
  <path
     d="m 36.011893,0 v 1.103811 h 1.05582 c 9.310413,0.287951 17.948941,4.175289 24.331853,10.942135 6.382911,6.766847 9.742339,15.645336 9.454388,24.955746 -0.287951,9.11845 -4.031313,17.66099 -10.606192,23.99591 -6.526887,6.38291 -15.117423,9.88631 -24.235869,9.88631 h -1.05582 C 25.645661,70.595962 17.007133,66.708632 10.624221,59.941782 4.1933179,53.126942 0.83389059,44.248452 1.1218415,34.938042 1.4097924,25.819602 5.1531542,17.277054 11.728033,10.942134 18.302912,4.607214 26.893448,1.103811 36.011893,1.103811 V 0 m 0,0 C 16.623199,0 0.64192331,15.405373 0.01802967,34.890052 -0.60586397,54.758662 15.039469,71.363832 34.908082,71.939732 h 1.103811 c 19.388695,0 35.369971,-15.40537 35.945873,-34.89005 C 72.581659,17.181071 56.936326,0.575901 37.067713,0 Z"
     id="path372"
     inkscape:connector-curvature="0"
     style="fill:#ffffff;stroke-width:0.47991818" />
  <path
     d="m 63.031287,31.338662 c 0,0 -2.63955,0.86385 -5.663034,-0.14398 -3.023485,-1.00783 -4.655207,-4.36726 -4.655207,-4.36726 0,0 2.927501,-0.47991 5.950986,0.52791 3.023484,1.00783 4.367255,3.98333 4.367255,3.98333 z"
     id="path374"
     inkscape:connector-curvature="0"
     style="fill:#ffffff;stroke-width:0.47991818" />
  <path
     d="m 63.607189,24.091892 c 0,0 -1.535738,2.30361 -4.559223,3.35943 -3.023484,1.05582 -6.33492,-0.5759 -6.33492,-0.5759 0,0 2.015657,-2.15964 5.039141,-3.21546 2.975493,-1.05582 5.855002,0.43193 5.855002,0.43193 z"
     id="path376"
     inkscape:connector-curvature="0"
     style="fill:#ffffff;stroke-width:0.47991818" />
  <path
     d="m 36.683779,57.734162 c -4.607215,0 -10.366233,-1.34378 -12.717832,-5.18312 l -10.5582,5.03914 c -0.287951,0.14398 -0.671886,0.048 -0.863853,-0.19197 -0.191967,-0.23996 -0.239959,-0.62389 -0.04799,-0.91184 l 4.127297,-5.75902 -6.9588138,2.44758 c -0.2879509,0.096 -0.6238936,0 -0.8158609,-0.23996 -0.1919673,-0.23996 -0.1919673,-0.5759 -0.047992,-0.86385 l 3.5513947,-5.47107 -5.1351247,0.14398 c -0.287951,0 -0.5279101,-0.14398 -0.6718855,-0.38394 -0.1439755,-0.23995 -0.095984,-0.52791 0.047992,-0.76786 0.1439755,-0.19197 13.8696352,-20.30054 15.9332832,-34.98604 0.04799,-0.335943 0.335943,-0.575902 0.623894,-0.623894 0.335943,-0.04799 0.671886,0.143975 0.767869,0.479918 0.09598,0.09598 4.127297,10.606192 11.710004,10.606192 10.126274,0 12.765824,-10.414225 12.765824,-10.5582 0.09598,-0.335943 0.431926,-0.575902 0.719877,-0.575902 0.335943,0 0.623894,0.287951 0.719877,0.623894 0.04799,0.239959 4.415248,25.819602 15.357382,31.338662 0.287951,0.14397 0.431927,0.47991 0.383935,0.81586 -0.04799,0.33594 -0.335943,0.5759 -0.671886,0.5759 l -5.471067,0.38393 5.615043,6.57488 c 0.191967,0.23996 0.239959,0.52791 0.09598,0.81586 -0.143975,0.28795 -0.383934,0.43193 -0.671885,0.43193 l -5.039141,-0.23996 1.967665,3.88734 c 0.143975,0.28795 0.09598,0.62389 -0.09598,0.81586 -0.191967,0.23996 -0.52791,0.28795 -0.815861,0.19197 l -10.366236,-4.27128 c -1.871681,3.45541 -6.814838,5.75902 -12.861807,5.85501 z M 24.30189,50.871332 c 0.09598,0 0.143975,0 0.239959,0.048 0.191967,0.048 0.335943,0.19196 0.431926,0.38393 1.679714,3.59939 7.342748,5.08713 12.189922,4.99115 5.855002,-0.14397 10.510208,-2.3516 11.853979,-5.61504 0.143976,-0.38394 0.575902,-0.52791 0.959837,-0.38394 l 9.214429,3.79136 -1.631722,-3.26345 c -0.09598,-0.23996 -0.09598,-0.52791 0.04799,-0.71987 0.143975,-0.23996 0.383934,-0.33595 0.671885,-0.33595 l 4.559223,0.19197 -5.471067,-6.38291 c -0.191967,-0.19197 -0.239959,-0.47992 -0.143976,-0.76787 0.09598,-0.28795 0.335943,-0.43193 0.623894,-0.43193 l 4.703198,-0.33594 c -4.079304,-3.02348 -7.582707,-8.83049 -10.5582,-17.27705 -1.535738,-4.463243 -2.543566,-8.734515 -3.119468,-11.326073 -1.535738,3.455411 -5.327092,9.118443 -13.293734,9.118443 -3.599386,0 -7.006805,-2.015654 -9.838323,-5.854999 C 24.781808,15.453365 24.061931,14.157586 23.534021,13.149758 20.894471,25.867592 11.39209,40.937022 8.5605734,45.256282 l 5.0871326,-0.096 c 0.287951,0 0.52791,0.14397 0.671885,0.38393 0.143976,0.23996 0.143976,0.52791 0,0.76787 l -3.119468,4.84718 7.102789,-2.54357 c 0.287951,-0.096 0.623894,0 0.815861,0.23996 0.191968,0.23996 0.191968,0.62389 0,0.86385 l -3.791353,5.37509 8.638527,-4.1273 c 0.09598,-0.096 0.191967,-0.096 0.335943,-0.096 z"
     id="path378"
     inkscape:connector-curvature="0"
     style="fill:#ffffff;stroke-width:0.47991818" />
  <path
     d="m 22.286233,37.289642 c 0,5.51906 7.91865,-0.096 13.72566,-0.096 5.807011,0 14.301562,6.14295 14.301562,0.096 0,-3.35943 -6.142952,-7.10279 -14.301562,-7.10279 -7.198772,0 -13.72566,3.88734 -13.72566,7.10279 z"
     id="path380"
     inkscape:connector-curvature="0"
     style="fill:#ffffff;stroke-width:0.47991818" />
  <path
     d="m 26.701481,47.319932 c 1.343771,2.78353 13.629676,2.44758 9.646355,-4.1273 -3.311435,-5.61504 -12.573856,-1.87168 -9.646355,4.1273 z"
     id="path382"
     inkscape:connector-curvature="0"
     style="fill:#ffffff;stroke-width:0.47991818" />
  <path
     d="m 46.570094,47.559892 c -2.447583,3.16746 -12.861808,0.5759 -9.454389,-4.31926 3.887338,-5.61505 13.533693,-1.00783 9.454389,4.31926 z"
     id="path384"
     inkscape:connector-curvature="0"
     style="fill:#ffffff;stroke-width:0.47991818" />
  <path
     d="m 44.938372,37.193662 c -0.863853,0 -1.535738,-0.67189 -1.535738,-1.53574 v -0.86385 c 0,-0.86386 0.671885,-1.53574 1.535738,-1.53574 0.863852,0 1.535738,0.67188 1.535738,1.53574 v 0.86385 c 0,0.86385 -0.671886,1.53574 -1.535738,1.53574 z m -16.269227,0 c -0.863853,0 -1.535738,-0.67189 -1.535738,-1.53574 v -0.86385 c 0,-0.86386 0.671885,-1.53574 1.535738,-1.53574 0.863853,0 1.535738,0.67188 1.535738,1.53574 v 0.86385 c 0,0.86385 -0.671885,1.53574 -1.535738,1.53574 z"
     id="path386"
     inkscape:connector-curvature="0"
     style="stroke-width:0.47991818" />
  <path
     d="m 39.899231,41.224972 -3.071477,3.07148 -3.071476,-3.07148 h 6.142953 m 0,-0.71988 h -6.190945 c -0.287951,0 -0.575902,0.19197 -0.671885,0.43193 -0.09598,0.28795 -0.04799,0.5759 0.143975,0.81586 l 3.071477,3.07148 c 0.143975,0.14397 0.335942,0.19196 0.52791,0.19196 0.191967,0 0.383934,-0.048 0.52791,-0.19196 l 3.071476,-3.07148 c 0.143975,-0.14398 0.239959,-0.33594 0.239959,-0.52791 0.04799,-0.38393 -0.287951,-0.71988 -0.719877,-0.71988 z m 0,1.43976 z M 54.39276,28.651112 H 17.151109 l 2.015656,-4.41524 h 33.450298 z"
     id="path388"
     inkscape:connector-curvature="0"
     style="fill:#ffffff;stroke-width:0.47991818" />
</svg>
