<?xml version="1.0" encoding="UTF-8" standalone="no"?>
<svg
   xmlns:dc="http://purl.org/dc/elements/1.1/"
   xmlns:cc="http://creativecommons.org/ns#"
   xmlns:rdf="http://www.w3.org/1999/02/22-rdf-syntax-ns#"
   xmlns:svg="http://www.w3.org/2000/svg"
   xmlns="http://www.w3.org/2000/svg"
   xmlns:sodipodi="http://sodipodi.sourceforge.net/DTD/sodipodi-0.dtd"
   xmlns:inkscape="http://www.inkscape.org/namespaces/inkscape"
   width="72"
   height="72"
   viewBox="0 0 72 72"
   version="1.1"
   id="svg262"
   sodipodi:docname="PraiseMoney.svg"
   inkscape:version="0.92.2 5c3e80d, 2017-08-06">
  <metadata
     id="metadata268">
    <rdf:RDF>
      <cc:Work
         rdf:about="">
        <dc:format>image/svg+xml</dc:format>
        <dc:type
           rdf:resource="http://purl.org/dc/dcmitype/StillImage" />
      </cc:Work>
    </rdf:RDF>
  </metadata>
  <defs
     id="defs266" />
  <sodipodi:namedview
     pagecolor="#ffffff"
     bordercolor="#666666"
     borderopacity="1"
     objecttolerance="10"
     gridtolerance="10"
     guidetolerance="10"
     inkscape:pageopacity="0"
     inkscape:pageshadow="2"
     inkscape:window-width="1002"
     inkscape:window-height="628"
     id="namedview264"
     showgrid="false"
     inkscape:zoom="1.5733333"
     inkscape:cx="75"
     inkscape:cy="75"
     inkscape:window-x="0"
     inkscape:window-y="0"
     inkscape:window-maximized="0"
     inkscape:current-layer="svg262" />
  <circle
     cx="36"
     cy="36"
     r="36"
     id="circle254"
     style="fill:#84ca4b;stroke-width:0.47999999" />
  <path
     d="m 42.768,23.424 v -4.32 l 3.648,-8.16 C 46.944,9.648 46.032,8.208 44.592,8.208 H 28.608 c -1.344,0 -2.304,1.344 -1.824,2.64 l 3.072,8.064 v 4.32 c -8.64,4.608 -16.272,17.808 -16.272,24.384 0,8.016 10.368,14.544 23.136,14.544 12.768,0 23.136,-6.528 23.136,-14.544 0,-6.48 -8.256,-19.392 -17.088,-24.192 z"
     id="path256"
     inkscape:connector-curvature="0"
     style="fill:#495361;stroke-width:0.47999999" />
  <path
     d="m 29.856,19.104 h 12.912 v 4.128 H 29.856 Z"
     id="path258"
     inkscape:connector-curvature="0"
     style="fill:#19345d;stroke-width:0.47999999" />
  <path
     d="m 44.304,44.592 c -0.432,-0.768 -1.008,-1.392 -1.68,-1.92 -0.672,-0.528 -1.44,-0.96 -2.256,-1.344 -0.768,-0.336 -1.536,-0.624 -2.304,-0.864 v -7.872 c 0.672,0 1.344,0.192 2.016,0.48 0.768,0.336 1.344,0.816 1.776,1.488 l 0.192,0.288 2.4,-1.92 -0.192,-0.24 C 43.92,32.352 43.584,32.016 43.152,31.68 42.72,31.344 42.288,31.056 41.76,30.768 41.232,30.528 40.656,30.288 39.984,30.144 39.408,30 38.784,29.952 38.064,29.904 V 27.792 H 35.808 V 30 c -0.768,0.096 -1.536,0.288 -2.256,0.528 -0.816,0.336 -1.536,0.768 -2.16,1.296 -0.624,0.528 -1.152,1.2 -1.536,1.968 -0.384,0.768 -0.576,1.632 -0.576,2.544 0,1.008 0.192,1.872 0.624,2.592 0.432,0.72 0.96,1.344 1.584,1.824 0.624,0.48 1.392,0.912 2.16,1.248 0.72,0.288 1.44,0.528 2.16,0.768 v 8.208 c -0.24,0 -0.528,-0.048 -0.816,-0.144 -0.432,-0.096 -0.864,-0.288 -1.296,-0.48 -0.432,-0.24 -0.864,-0.48 -1.296,-0.816 -0.432,-0.336 -0.816,-0.672 -1.152,-1.104 l -0.192,-0.24 -2.544,1.68 0.192,0.24 c 0.72,0.912 1.728,1.728 3.024,2.4 1.2,0.624 2.592,1.008 4.08,1.152 v 2.064 h 2.256 v -2.16 c 0.912,-0.096 1.728,-0.288 2.496,-0.576 0.864,-0.336 1.632,-0.768 2.304,-1.296 0.672,-0.528 1.152,-1.2 1.536,-1.968 0.384,-0.768 0.576,-1.584 0.576,-2.496 -0.048,-0.96 -0.24,-1.92 -0.672,-2.64 z m -2.448,2.736 c 0,0.72 -0.144,1.344 -0.432,1.776 -0.288,0.48 -0.624,0.864 -1.056,1.152 -0.384,0.288 -0.864,0.48 -1.344,0.624 -0.384,0.096 -0.72,0.144 -1.056,0.144 v -7.536 c 1.056,0.336 1.968,0.816 2.688,1.44 0.864,0.624 1.248,1.392 1.2,2.4 z m -7.2,-8.016 c -0.48,-0.24 -0.864,-0.48 -1.248,-0.768 -0.336,-0.288 -0.624,-0.576 -0.816,-0.96 -0.192,-0.336 -0.288,-0.768 -0.288,-1.296 0,-0.48 0.096,-0.96 0.288,-1.392 0.192,-0.432 0.432,-0.816 0.768,-1.152 0.336,-0.336 0.72,-0.576 1.2,-0.816 0.384,-0.144 0.768,-0.288 1.2,-0.336 v 7.152 c -0.336,-0.096 -0.72,-0.24 -1.104,-0.432 z"
     id="path260"
     inkscape:connector-curvature="0"
     style="fill:#fcd700;stroke-width:0.47999999" />
</svg>
