<svg data-name="ICONS" xmlns="http://www.w3.org/2000/svg" viewBox="0 0 72 72"><defs><linearGradient id="a" x1="-5754.953" y1="-5753.005" x2="-5704.433" y2="-5692.798" gradientTransform="matrix(0 -1 -1 0 -5690 -5690)" gradientUnits="userSpaceOnUse"><stop offset="0" stop-color="#fff" stop-opacity="0"/><stop offset=".862" stop-color="#5e5e5e" stop-opacity=".063"/><stop offset="1" stop-opacity=".1"/></linearGradient><linearGradient id="b" x1="-6703" y1="37.344" x2="-6703" y2="32.646" gradientTransform="matrix(-1 0 0 1 -6644.5 -2.5)" gradientUnits="userSpaceOnUse"><stop offset="0" stop-color="#828282" stop-opacity="0"/><stop offset=".862" stop-color="#303030" stop-opacity=".063"/><stop offset="1" stop-opacity=".1"/></linearGradient><linearGradient id="c" x1="-5714.541" y1="-5737.459" x2="-5705.999" y2="-5746.001" gradientTransform="matrix(0 -1 -1 0 -5690 -5690)" gradientUnits="userSpaceOnUse"><stop offset="0" stop-color="#fff" stop-opacity="0"/><stop offset=".446" stop-color="#fff" stop-opacity=".008"/><stop offset=".636" stop-color="#fff" stop-opacity=".036"/><stop offset=".776" stop-color="#fff" stop-opacity=".085"/><stop offset=".892" stop-color="#fff" stop-opacity=".154"/><stop offset=".993" stop-color="#fff" stop-opacity=".243"/><stop offset="1" stop-color="#fff" stop-opacity=".25"/></linearGradient></defs><path fill="#fff" d="M5 14v44h62V28L53 14H5z"/><path d="M44 38V23.152c-5.585-.047-12.102 5.539-12.102 13.452a13.498 13.498 0 0 0 13.498 13.498c6.982 0 13.499-6.517 13.452-12.102z" fill="#c8c8c8"/><path d="M46 36h12.986c.047-6.516-6.47-13.033-12.986-12.986z" fill="#d14c32"/><path fill="#c8c8c8" d="M11 48h15v2H11zM11 43h15v2H11zM11 38h15v2H11zM11 33h15v2H11zM11 28h15v2H11zM11 23h15v2H11z"/><path d="M53 13H4v46h64V28zm0 15V16l12 12zm-2-13v15h15v27H6V15z" fill="#949494"/><path d="M4 13v46h64V28L53 13z" fill="url(#a)"/><path fill="url(#b)" d="M51 30h15v5H51z"/><path fill="url(#c)" d="M53 13l15 15v31h-2V30H51V15H4v-2h49z"/><path fill="#fff" d="M53 28V16l12 12H53z"/></svg>