<svg data-name="ICONS" xmlns="http://www.w3.org/2000/svg" viewBox="0 0 72 72"><defs><linearGradient id="a" x1="57" y1="24.844" x2="57" y2="20.146" gradientUnits="userSpaceOnUse"><stop offset="0" stop-color="#828282" stop-opacity="0"/><stop offset=".862" stop-color="#303030" stop-opacity=".063"/><stop offset="1" stop-opacity=".1"/></linearGradient><linearGradient id="b" x1="25.966" y1="65.803" x2="26.798" y2="58.018" gradientUnits="userSpaceOnUse"><stop offset="0" stop-color="#828282" stop-opacity="0"/><stop offset=".862" stop-color="#303030" stop-opacity=".126"/><stop offset="1" stop-opacity=".2"/></linearGradient><linearGradient id="c" x1="53.792" y1="23.208" x2="62.501" y2="14.499" gradientUnits="userSpaceOnUse"><stop offset="0" stop-color="#fff" stop-opacity="0"/><stop offset=".446" stop-color="#fff" stop-opacity=".008"/><stop offset=".636" stop-color="#fff" stop-opacity=".036"/><stop offset=".776" stop-color="#fff" stop-opacity=".085"/><stop offset=".892" stop-color="#fff" stop-opacity=".154"/><stop offset=".993" stop-color="#fff" stop-opacity=".243"/><stop offset="1" stop-color="#fff" stop-opacity=".25"/></linearGradient><linearGradient id="d" x1="21.5" y1="58.75" x2="21.5" y2="21.167" gradientUnits="userSpaceOnUse"><stop offset="0" stop-color="#fff" stop-opacity="0"/><stop offset=".526" stop-color="#fff" stop-opacity=".007"/><stop offset=".715" stop-color="#fff" stop-opacity=".034"/><stop offset=".85" stop-color="#fff" stop-opacity=".08"/><stop offset=".959" stop-color="#fff" stop-opacity=".146"/><stop offset="1" stop-color="#fff" stop-opacity=".18"/></linearGradient><linearGradient id="e" x1="11.467" y1="7.804" x2="63.639" y2="69.981" gradientUnits="userSpaceOnUse"><stop offset="0" stop-color="#fff" stop-opacity="0"/><stop offset=".862" stop-color="#5e5e5e" stop-opacity=".063"/><stop offset="1" stop-opacity=".1"/></linearGradient></defs><path fill="#fff" d="M65 67H17V5h34l14 14v48z"/><path d="M52 4H16v64h50V18zm0 3l11 11H52zm12 59H18V6h32v14h14z" fill="#949494"/><path d="M57 38v17H34V39h23m2-2H32v20h27z" fill="#c8c8c8"/><path d="M48 26v11H32V26h16m2-2H30v15h20V24z" fill="#c8c8c8"/><path fill="#7dbab2" d="M47 41h7v2h-7z"/><path fill="#c8c8c8" d="M37 41h7v12h-7z"/><path fill="#7dbab2" d="M37 28h8v2h-8zM37 33h8v2h-8zM47 46h7v2h-7zM47 51h7v2h-7z"/><path fill="#0b7669" d="M6 25l31-5v40L6 55V25z"/><path d="M19.007 42.8V49H15V31h6.277Q28 31 28 36.736a5.534 5.534 0 0 1-1.93 4.388 7.585 7.585 0 0 1-5.153 1.675zm0-8.687v5.61h1.575q3.2 0 3.2-2.836 0-2.774-3.2-2.774z" fill="#fff"/><path fill="url(#a)" d="M50 20h14v5H50z"/><path fill="url(#b)" d="M37 65H16v-8.38L37 60v5z"/><path fill="url(#c)" d="M66 18L52 4H16v2h34v14h14v48h2V18z"/><path fill="url(#d)" d="M37 20L6 25v30l31 5V20z"/><path d="M52 4H16v19.387L6 25v30l10 1.613V68h50V18z" fill="url(#e)"/></svg>