<svg data-name="ICONS" xmlns="http://www.w3.org/2000/svg" viewBox="0 0 72 72"><defs><linearGradient id="a" x1="6.467" y1="7.804" x2="58.639" y2="69.981" gradientUnits="userSpaceOnUse"><stop offset="0" stop-color="#fff" stop-opacity="0"/><stop offset=".862" stop-color="#5e5e5e" stop-opacity=".063"/><stop offset="1" stop-opacity=".1"/></linearGradient><linearGradient id="b" x1="52" y1="24.844" x2="52" y2="20.146" gradientUnits="userSpaceOnUse"><stop offset="0" stop-color="#828282" stop-opacity="0"/><stop offset=".862" stop-color="#303030" stop-opacity=".063"/><stop offset="1" stop-opacity=".1"/></linearGradient><linearGradient id="c" x1="48.792" y1="23.208" x2="57.501" y2="14.499" gradientUnits="userSpaceOnUse"><stop offset="0" stop-color="#fff" stop-opacity="0"/><stop offset=".446" stop-color="#fff" stop-opacity=".008"/><stop offset=".636" stop-color="#fff" stop-opacity=".036"/><stop offset=".776" stop-color="#fff" stop-opacity=".085"/><stop offset=".892" stop-color="#fff" stop-opacity=".154"/><stop offset=".993" stop-color="#fff" stop-opacity=".243"/><stop offset="1" stop-color="#fff" stop-opacity=".25"/></linearGradient></defs><path fill="#fff" d="M60 67H12V5h34l14 14v48z"/><path d="M47 4H11v64h50V18zm0 3l11 11H47zm12 59H13V6h32v14h14z" fill="#949494"/><path d="M30.307 11L29.21 24.012q-.086.911-.086 1.2a1.28 1.28 0 0 0 .16.704 1.245 1.245 0 0 0 .55.496 3 3 0 0 0 1.166.161l-.117.427h-5.69l.117-.427h.245a1.852 1.852 0 0 0 1.13-.323 1.406 1.406 0 0 0 .479-.726 9.672 9.672 0 0 0 .224-1.685l.17-1.984h-4.134l-1.47 2.157a6.53 6.53 0 0 0-.63 1.044 1.597 1.597 0 0 0-.127.594.847.847 0 0 0 .277.635 1.372 1.372 0 0 0 .916.288l-.117.427H18l.117-.427a2.179 2.179 0 0 0 1.39-.57 14.104 14.104 0 0 0 1.796-2.29L29.934 11zm-2.11 3.842l-4.187 6.171h3.634z" fill="#0078d7"/><path fill="#69afe5" d="M38 35h16v12H38zM34 25h20v2H34z"/><path fill="#0078d7" d="M18 30h36v2H18z"/><path fill="#c8c8c8" d="M18 35h17v2H18zM18 40h17v2H18zM18 45h17v2H18zM18 50h36v2H18zM18 55h36v2H18z"/><path fill="#69afe5" d="M34 20h6v2h-6z"/><path d="M61 18L47 4H11v64h50z" fill="url(#a)"/><path fill="url(#b)" d="M45 20h14v5H45z"/><path fill="url(#c)" d="M61 18L47 4H11v2h34v14h14v48h2V18z"/></svg>