<svg id="ICONS" xmlns="http://www.w3.org/2000/svg" xmlns:xlink="http://www.w3.org/1999/xlink" viewBox="0 0 72 72"><defs><style>.cls-1{fill:#a6a6a6;}.cls-2{fill:#828282;}.cls-3{fill:url(#linear-gradient);}.cls-4{fill:url(#linear-gradient-2);}.cls-5{fill:#fff;opacity:0.15;}.cls-6{fill:#eaeaea;}</style><linearGradient id="linear-gradient" x1="14.9" y1="10.85" x2="60.55" y2="65.25" gradientUnits="userSpaceOnUse"><stop offset="0" stop-opacity="0"/><stop offset="0.86" stop-opacity="0.13"/><stop offset="1" stop-opacity="0.2"/></linearGradient><linearGradient id="linear-gradient-2" x1="53.03" y1="11.69" x2="51.63" y2="27.75" gradientUnits="userSpaceOnUse"><stop offset="0" stop-color="#828282" stop-opacity="0"/><stop offset="0.86" stop-color="#454545" stop-opacity="0.12"/><stop offset="1" stop-opacity="0.25"/></linearGradient></defs><title>Artboard 231</title><polygon class="cls-1" points="4 59 4 20 36 20 43 13 68 13 68 59 4 59"/><polygon class="cls-2" points="43 13 36 20 43 27 68 27 68 13 43 13"/><polygon class="cls-3" points="4 59 4 20 36 20 43 13 68 13 68 59 4 59"/><polygon class="cls-4" points="43 13 36 20 43 27 68 27 68 13 43 13"/><polygon class="cls-5" points="68 27 68 28 42.54 28 34.5 20 36 20 43.04 27 68 27"/><path class="cls-6" d="M14.11,50.9a2.5,2.5,0,1,0-3.23,0A3.5,3.5,0,0,0,9,54h1a2.5,2.5,0,0,1,5,0h1A3.5,3.5,0,0,0,14.11,50.9ZM11,49a1.5,1.5,0,1,1,1.5,1.5A1.5,1.5,0,0,1,11,49Z"/><path class="cls-6" d="M19.11,45.9a2.5,2.5,0,1,0-3.23,0A3.5,3.5,0,0,0,14,49h1a2.5,2.5,0,0,1,5,0h1A3.5,3.5,0,0,0,19.11,45.9ZM16,44a1.5,1.5,0,1,1,1.5,1.5A1.5,1.5,0,0,1,16,44Z"/></svg>