<svg id="ICONS" xmlns="http://www.w3.org/2000/svg" xmlns:xlink="http://www.w3.org/1999/xlink" viewBox="0 0 72 72"><defs><style>.cls-1{fill:#fff;}.cls-2{fill:#a6a6a6;}.cls-3{fill:#c8c8c8;}.cls-4{fill:#0078d7;}.cls-5{fill:#b3d3e8;}.cls-6{fill:url(#linear-gradient);}.cls-7{fill:url(#linear-gradient-2);}.cls-8{fill:url(#linear-gradient-3);}.cls-9{fill:url(#linear-gradient-4);}.cls-10{fill:url(#linear-gradient-5);}</style><linearGradient id="linear-gradient" x1="11.47" y1="7.8" x2="63.64" y2="69.98" gradientUnits="userSpaceOnUse"><stop offset="0" stop-color="#fff" stop-opacity="0"/><stop offset="0.86" stop-color="#5e5e5e" stop-opacity="0.06"/><stop offset="1" stop-opacity="0.1"/></linearGradient><linearGradient id="linear-gradient-2" x1="57" y1="24.84" x2="57" y2="20.15" gradientUnits="userSpaceOnUse"><stop offset="0" stop-color="#828282" stop-opacity="0"/><stop offset="0.86" stop-color="#303030" stop-opacity="0.06"/><stop offset="1" stop-opacity="0.1"/></linearGradient><linearGradient id="linear-gradient-3" x1="25.97" y1="65.8" x2="26.8" y2="58.02" gradientUnits="userSpaceOnUse"><stop offset="0" stop-color="#828282" stop-opacity="0"/><stop offset="0.86" stop-color="#303030" stop-opacity="0.13"/><stop offset="1" stop-opacity="0.2"/></linearGradient><linearGradient id="linear-gradient-4" x1="21.5" y1="58.75" x2="21.5" y2="21.17" gradientUnits="userSpaceOnUse"><stop offset="0" stop-color="#fff" stop-opacity="0"/><stop offset="0.53" stop-color="#fff" stop-opacity="0.01"/><stop offset="0.72" stop-color="#fff" stop-opacity="0.03"/><stop offset="0.85" stop-color="#fff" stop-opacity="0.08"/><stop offset="0.96" stop-color="#fff" stop-opacity="0.15"/><stop offset="1" stop-color="#fff" stop-opacity="0.18"/></linearGradient><linearGradient id="linear-gradient-5" x1="53.79" y1="23.21" x2="62.5" y2="14.5" gradientUnits="userSpaceOnUse"><stop offset="0" stop-color="#fff" stop-opacity="0"/><stop offset="0.45" stop-color="#fff" stop-opacity="0.01"/><stop offset="0.64" stop-color="#fff" stop-opacity="0.04"/><stop offset="0.78" stop-color="#fff" stop-opacity="0.08"/><stop offset="0.89" stop-color="#fff" stop-opacity="0.15"/><stop offset="0.99" stop-color="#fff" stop-opacity="0.24"/><stop offset="1" stop-color="#fff" stop-opacity="0.25"/></linearGradient></defs><title>Artboard 231</title><polygon class="cls-1" points="65 67 17 67 17 5 51 5 65 19 65 67"/><path class="cls-2" d="M52,4H16V68H66V18Zm0,3L63,18H52ZM64,66H18V6H50V20H64Z"/><rect class="cls-3" x="37" y="50" width="22" height="2"/><rect class="cls-3" x="37" y="55" width="22" height="2"/><rect class="cls-3" x="37" y="45" width="22" height="2"/><polygon class="cls-4" points="6 25 37 20 37 60 6 55 6 25"/><rect class="cls-5" x="37" y="25" width="22" height="17"/><path class="cls-1" d="M15.08,48V44.14a8.32,8.32,0,0,0,2.5,1.33,8.67,8.67,0,0,0,2.72.44,6.57,6.57,0,0,0,1.41-.13,3.45,3.45,0,0,0,1-.37,1.68,1.68,0,0,0,.6-.56,1.3,1.3,0,0,0,.2-.7,1.43,1.43,0,0,0-.32-.91,3.32,3.32,0,0,0-.87-.74,9.25,9.25,0,0,0-1.3-.66q-.75-.32-1.62-.64a8.35,8.35,0,0,1-3.31-2.08,4.3,4.3,0,0,1-1.09-3,4.41,4.41,0,0,1,.59-2.34,4.82,4.82,0,0,1,1.62-1.61,7.61,7.61,0,0,1,2.37-.93,13.23,13.23,0,0,1,2.85-.3,18.74,18.74,0,0,1,2.62.16,11.12,11.12,0,0,1,2.11.5V35.3a6.54,6.54,0,0,0-1-.53A8.64,8.64,0,0,0,25,34.38a9.54,9.54,0,0,0-1.18-.22,9.11,9.11,0,0,0-1.12-.07,6.28,6.28,0,0,0-1.32.13,3.55,3.55,0,0,0-1,.36,1.88,1.88,0,0,0-.63.55,1.23,1.23,0,0,0-.22.72,1.3,1.3,0,0,0,.25.78,2.74,2.74,0,0,0,.71.66,7.66,7.66,0,0,0,1.12.61q.66.3,1.49.61a17.23,17.23,0,0,1,2,.93,7.2,7.2,0,0,1,1.55,1.11,4.31,4.31,0,0,1,1,1.41,4.62,4.62,0,0,1-1.89,5.9,7.44,7.44,0,0,1-2.4.88,15.08,15.08,0,0,1-2.89.27,17.46,17.46,0,0,1-3-.24A9.51,9.51,0,0,1,15.08,48Z"/><path class="cls-6" d="M52,4H16V23.39L6,25V55l10,1.61V68H66V18Z"/><rect class="cls-7" x="50" y="20" width="14" height="5"/><polygon class="cls-8" points="37 65 16 65 16 56.62 37 60 37 65"/><polygon class="cls-9" points="37 20 6 25 6 55 37 60 37 20"/><polygon class="cls-10" points="66 18 52 4 16 4 16 6 50 6 50 20 64 20 64 68 66 68 66 18"/></svg>