<svg data-name="ICONS" xmlns="http://www.w3.org/2000/svg" viewBox="0 0 72 72"><defs><linearGradient id="a" x1="-2967.953" y1="-2966.005" x2="-2917.433" y2="-2905.798" gradientTransform="matrix(0 -1 -1 0 -2903 -2903)" gradientUnits="userSpaceOnUse"><stop offset="0" stop-color="#fff" stop-opacity="0"/><stop offset=".862" stop-color="#5e5e5e" stop-opacity=".063"/><stop offset="1" stop-opacity=".1"/></linearGradient><linearGradient id="b" x1="-2927.541" y1="-2950.459" x2="-2918.999" y2="-2959.001" gradientTransform="matrix(0 -1 -1 0 -2903 -2903)" gradientUnits="userSpaceOnUse"><stop offset="0" stop-color="#fff" stop-opacity="0"/><stop offset=".446" stop-color="#fff" stop-opacity=".008"/><stop offset=".636" stop-color="#fff" stop-opacity=".036"/><stop offset=".776" stop-color="#fff" stop-opacity=".085"/><stop offset=".892" stop-color="#fff" stop-opacity=".154"/><stop offset=".993" stop-color="#fff" stop-opacity=".243"/><stop offset="1" stop-color="#fff" stop-opacity=".25"/></linearGradient><linearGradient id="c" x1="-497" y1="37.344" x2="-497" y2="32.646" gradientTransform="matrix(-1 0 0 1 -438.5 -2.5)" gradientUnits="userSpaceOnUse"><stop offset="0" stop-color="#828282" stop-opacity="0"/><stop offset=".862" stop-color="#303030" stop-opacity=".063"/><stop offset="1" stop-opacity=".1"/></linearGradient></defs><path fill="#fff" d="M5 14v44h62V28L53 14H5z"/><path fill="#c8c8c8" d="M49 26h10v3H49zM49 20h8v3h-8z"/><path d="M53 13H4v46h64V28zm0 15V16l12 12zm-2-13v15h15v27H6V15z" fill="#949494"/><path fill="#fff" d="M53 28V16l12 12H53z"/><path fill="#217346" d="M10 50h10v3H10zM10 44h10v3H10zM10 38h10v3H10zM10 32h10v3H10zM10 26h10v3H10zM10 20h10v3H10z"/><path fill="#c8c8c8" d="M23 50h10v3H23zM23 44h10v3H23zM23 38h10v3H23zM23 32h10v3H23zM23 26h10v3H23zM23 20h10v3H23zM36 50h10v3H36zM36 44h10v3H36zM36 38h10v3H36zM36 32h10v3H36zM36 26h10v3H36zM36 20h10v3H36zM49 50h10v3H49zM49 44h10v3H49zM49 38h10v3H49zM49 32h10v3H49z"/><path d="M4 13v46h64V28L53 13z" fill="url(#a)"/><path fill="url(#b)" d="M53 13l15 15v31h-2V30H51V15H4v-2h49z"/><path fill="url(#c)" d="M51 30h15v5H51z"/></svg>