<svg id="ICONS" xmlns="http://www.w3.org/2000/svg" xmlns:xlink="http://www.w3.org/1999/xlink" viewBox="0 0 72 72"><defs><style>.cls-1{fill:#fff;}.cls-2{fill:#949494;}.cls-3{fill:url(#linear-gradient);}.cls-4{fill:url(#linear-gradient-2);}.cls-5{fill:url(#linear-gradient-3);}.cls-6{fill:#99cdc7;}.cls-7{fill:#c8c8c8;}.cls-8{fill:#008272;}.cls-9{fill:url(#linear-gradient-4);}.cls-10{fill:url(#linear-gradient-5);}</style><linearGradient id="linear-gradient" x1="11.46685" y1="7.80376" x2="63.63949" y2="69.9807" gradientUnits="userSpaceOnUse"><stop offset="0" stop-color="#fff" stop-opacity="0"/><stop offset="0.86247" stop-color="#5e5e5e" stop-opacity="0.06315"/><stop offset="1" stop-opacity="0.1"/></linearGradient><linearGradient id="linear-gradient-2" x1="57" y1="24.84375" x2="57" y2="20.14584" gradientUnits="userSpaceOnUse"><stop offset="0" stop-color="#828282" stop-opacity="0"/><stop offset="0.86247" stop-color="#303030" stop-opacity="0.06315"/><stop offset="1" stop-opacity="0.1"/></linearGradient><linearGradient id="linear-gradient-3" x1="53.79167" y1="23.20833" x2="62.5009" y2="14.4991" gradientUnits="userSpaceOnUse"><stop offset="0" stop-color="#fff" stop-opacity="0"/><stop offset="0.44604" stop-color="#fff" stop-opacity="0.00799"/><stop offset="0.63551" stop-color="#fff" stop-opacity="0.03616"/><stop offset="0.77636" stop-color="#fff" stop-opacity="0.08493"/><stop offset="0.8924" stop-color="#fff" stop-opacity="0.15385"/><stop offset="0.99328" stop-color="#fff" stop-opacity="0.24291"/><stop offset="1" stop-color="#fff" stop-opacity="0.25"/></linearGradient><linearGradient id="linear-gradient-4" x1="25.96638" y1="65.80322" x2="26.79833" y2="58.01844" gradientUnits="userSpaceOnUse"><stop offset="0" stop-color="#828282" stop-opacity="0"/><stop offset="0.86247" stop-color="#303030" stop-opacity="0.12631"/><stop offset="1" stop-opacity="0.2"/></linearGradient><linearGradient id="linear-gradient-5" x1="21.5" y1="57.75" x2="21.5" y2="20.16676" gradientUnits="userSpaceOnUse"><stop offset="0" stop-color="#fff" stop-opacity="0"/><stop offset="0.52587" stop-color="#fff" stop-opacity="0.00735"/><stop offset="0.71529" stop-color="#fff" stop-opacity="0.03396"/><stop offset="0.8503" stop-color="#fff" stop-opacity="0.0803"/><stop offset="0.95875" stop-color="#fff" stop-opacity="0.14595"/><stop offset="1" stop-color="#fff" stop-opacity="0.18"/></linearGradient></defs><title>72_sway</title><polygon class="cls-1" points="65 67 17 67 17 5 51 5 65 19 65 67"/><path class="cls-2" d="M52,4H16V68H66V18Zm0,3L63,18H52ZM64,66H18V6H50V20H64Z"/><path class="cls-3" d="M66,18,52,4H16V68H66Z"/><rect class="cls-4" x="50" y="20" width="14" height="5"/><polygon class="cls-5" points="66 18 52 4 16 4 16 6 50 6 50 20 64 20 64 68 66 68 66 18"/><polygon class="cls-6" points="38.75 30 26 45 51.5 45 38.75 30"/><rect class="cls-7" x="34" y="48" width="11" height="2"/><rect class="cls-7" x="47" y="48" width="12" height="2"/><rect class="cls-7" x="34" y="52" width="11" height="2"/><rect class="cls-7" x="47" y="52" width="12" height="2"/><rect class="cls-7" x="34" y="56" width="11" height="2"/><rect class="cls-7" x="47" y="56" width="12" height="2"/><rect class="cls-6" x="54.5" y="25.5" width="4.5" height="4.5" rx="2.25" ry="2.25"/><polygon class="cls-6" points="51.5 36 44 45 59 45 51.5 36"/><polygon class="cls-8" points="6 25 37 20 37 60 6 55 6 25"/><path class="cls-1" d="M15.07927,48.029V44.145a8.31625,8.31625,0,0,0,2.497,1.3293,8.66744,8.66744,0,0,0,2.72154.44278,6.56675,6.56675,0,0,0,1.40728-.13351,3.454,3.454,0,0,0,1.00407-.37044,1.68415,1.68415,0,0,0,.60085-.55833,1.304,1.304,0,0,0,.19817-.69767,1.42729,1.42729,0,0,0-.31707-.91031,3.31627,3.31627,0,0,0-.86561-.74039,9.25174,9.25174,0,0,0-1.30106-.65543q-.753-.31533-1.625-.64329a8.34576,8.34576,0,0,1-3.30972-2.07553A4.30435,4.30435,0,0,1,15,36.1706a4.41064,4.41064,0,0,1,.59451-2.33672,4.82008,4.82008,0,0,1,1.61866-1.608,7.60587,7.60587,0,0,1,2.37118-.92828A13.22636,13.22636,0,0,1,22.438,31a18.743,18.743,0,0,1,2.62272.16361,11.1221,11.1221,0,0,1,2.107.504V35.2967a6.537,6.537,0,0,0-1.03735-.53406,8.64527,8.64527,0,0,0-1.15574-.38209,9.54423,9.54423,0,0,0-1.18215-.22478,9.10764,9.10764,0,0,0-1.11663-.07283,6.28267,6.28267,0,0,0-1.32114.12769,3.54736,3.54736,0,0,0-1.00406.35781,1.88085,1.88085,0,0,0-.63415.552,1.23053,1.23053,0,0,0-.22459.72243,1.297,1.297,0,0,0,.251.78263,2.74368,2.74368,0,0,0,.71341.65542,7.65539,7.65539,0,0,0,1.123.60688q.6603.29786,1.49288.61319a17.22574,17.22574,0,0,1,2.04143.92877,7.20109,7.20109,0,0,1,1.55207,1.11034,4.314,4.314,0,0,1,.99085,1.41427,4.621,4.621,0,0,1-1.88922,5.89885,7.43581,7.43581,0,0,1-2.39761.87973A15.07644,15.07644,0,0,1,20.48272,49a17.456,17.456,0,0,1-2.96622-.24275A9.50968,9.50968,0,0,1,15.07927,48.029Z"/><polygon class="cls-9" points="37 65 16 65 16 56.62 37 60 37 65"/><polygon class="cls-10" points="37 19 6 24 6 54 37 59 37 19"/></svg>