<svg id="ICONS" xmlns="http://www.w3.org/2000/svg" xmlns:xlink="http://www.w3.org/1999/xlink" viewBox="0 0 72 72"><defs><style>.cls-1{fill:#fff;}.cls-2{fill:#a6a6a6;}.cls-3{fill:#c8c8c8;}.cls-4{fill:url(#linear-gradient);}.cls-5{fill:url(#linear-gradient-2);}.cls-6{fill:url(#linear-gradient-3);}</style><linearGradient id="linear-gradient" x1="6.47" y1="7.8" x2="58.64" y2="69.98" gradientUnits="userSpaceOnUse"><stop offset="0" stop-color="#fff" stop-opacity="0"/><stop offset="0.86" stop-color="#5e5e5e" stop-opacity="0.06"/><stop offset="1" stop-opacity="0.1"/></linearGradient><linearGradient id="linear-gradient-2" x1="52" y1="24.84" x2="52" y2="20.15" gradientUnits="userSpaceOnUse"><stop offset="0" stop-color="#828282" stop-opacity="0"/><stop offset="0.86" stop-color="#303030" stop-opacity="0.06"/><stop offset="1" stop-opacity="0.1"/></linearGradient><linearGradient id="linear-gradient-3" x1="48.79" y1="23.21" x2="57.5" y2="14.5" gradientUnits="userSpaceOnUse"><stop offset="0" stop-color="#fff" stop-opacity="0"/><stop offset="0.45" stop-color="#fff" stop-opacity="0.01"/><stop offset="0.64" stop-color="#fff" stop-opacity="0.04"/><stop offset="0.78" stop-color="#fff" stop-opacity="0.08"/><stop offset="0.89" stop-color="#fff" stop-opacity="0.15"/><stop offset="0.99" stop-color="#fff" stop-opacity="0.24"/><stop offset="1" stop-color="#fff" stop-opacity="0.25"/></linearGradient></defs><title>Artboard 231</title><polygon class="cls-1" points="60 67 12 67 12 5 46 5 60 19 60 67"/><path class="cls-2" d="M47,4H11V68H61V18Zm0,3L58,18H47ZM59,66H13V6H45V20H59Z"/><path class="cls-3" d="M38.06,33.15c0,.07,0,.13,0,.2s0,.13,0,.2,0,.13,0,.2,0,.13,0,.2L41,35.77l-1.79,4.31-3.35-.76q-.27.29-.56.56L36,43.21,31.71,45,29.9,42.09h-.81L27.27,45l-4.32-1.79.77-3.34q-.29-.27-.56-.56l-3.35.76L18,35.77,20.92,34c0-.07,0-.13,0-.2s0-.13,0-.2,0-.13,0-.2,0-.13,0-.2L18,31.34,19.79,27l3.35.76q.27-.29.56-.56l-.77-3.34,4.32-1.79L29.08,25h.81l1.82-2.91L36,23.89l-.77,3.34q.29.27.56.56L39.19,27,41,31.34Zm-1.32,1.46,0-.53q0-.26,0-.53t0-.53l0-.53,2.66-1.65-1-2.34-3.06.71a9.78,9.78,0,0,0-.72-.79q-.37-.36-.8-.72l.71-3-2.35-1-1.67,2.65-.53,0-.53,0-.54,0-.54,0-1.66-2.65-2.35,1,.71,3a9.79,9.79,0,0,0-.79.71q-.36.37-.72.79l-3.06-.71-1,2.34,2.66,1.66,0,.53q0,.26,0,.53t0,.53l0,.53-2.66,1.65,1,2.34,3.06-.71a9.78,9.78,0,0,0,.72.79q.37.36.8.72l-.71,3,2.35,1,1.67-2.65.53,0,.53,0,.54,0,.54,0,1.66,2.65,2.35-1-.71-3a9.79,9.79,0,0,0,.79-.71q.36-.37.72-.79l3.06.71,1-2.34Zm-7.25-5.28a4.15,4.15,0,0,1,1.65.33,4.24,4.24,0,0,1,2.26,2.25,4.24,4.24,0,0,1,0,3.29,4.24,4.24,0,0,1-2.26,2.25,4.29,4.29,0,0,1-3.31,0,4.24,4.24,0,0,1-2.26-2.25,4.24,4.24,0,0,1,0-3.29,4.24,4.24,0,0,1,2.26-2.25A4.15,4.15,0,0,1,29.49,29.33Zm0,7.2a2.94,2.94,0,0,0,1.16-.23,3,3,0,0,0,1.59-1.58,3,3,0,0,0,0-2.32,3,3,0,0,0-5.5,0,3,3,0,0,0,0,2.32,3,3,0,0,0,2.75,1.81Z"/><path class="cls-3" d="M51.71,49.68c0,.05,0,.11,0,.16s0,.11,0,.16,0,.11,0,.16,0,.11,0,.16L54,51.74l-1.41,3.39L50,54.53q-.21.23-.44.44l.6,2.63L46.74,59l-1.42-2.29h-.64L43.26,59l-3.39-1.41.6-2.63q-.23-.21-.44-.44l-2.63.6L36,51.74l2.29-1.42c0-.05,0-.11,0-.16s0-.11,0-.16,0-.11,0-.16,0-.11,0-.16L36,48.26l1.41-3.39,2.63.6q.21-.23.44-.44l-.6-2.63L43.26,41l1.42,2.29h.64L46.74,41l3.39,1.41L49.53,45q.23.21.44.44l2.63-.6L54,48.26Zm-1,1.15,0-.42c0-.14,0-.28,0-.42s0-.27,0-.42l0-.42,2.09-1.3L52,46l-2.4.56A7.77,7.77,0,0,0,49,46q-.29-.28-.62-.57L49,43l-1.84-.76-1.31,2.09-.42,0-.42,0-.42,0-.42,0-1.3-2.09L41,43l.56,2.4A7.67,7.67,0,0,0,41,46q-.28.29-.57.62L38,46l-.76,1.84,2.09,1.31,0,.42q0,.21,0,.42c0,.14,0,.27,0,.42l0,.42-2.09,1.3L38,54l2.4-.56A7.57,7.57,0,0,0,41,54q.29.28.62.57L41,57l1.84.76,1.31-2.09.42,0,.42,0,.42,0,.42,0,1.3,2.09L49,57l-.56-2.4A7.66,7.66,0,0,0,49,54q.28-.29.57-.62L52,54l.76-1.84ZM45,46.68a3.24,3.24,0,0,1,1.3.26,3.32,3.32,0,0,1,1.77,1.77,3.35,3.35,0,0,1,0,2.59,3.32,3.32,0,0,1-1.77,1.77,3.35,3.35,0,0,1-2.59,0,3.32,3.32,0,0,1-1.77-1.77,3.35,3.35,0,0,1,0-2.59,3.32,3.32,0,0,1,1.77-1.77A3.24,3.24,0,0,1,45,46.68Zm0,5.66a2.3,2.3,0,0,0,.91-.18,2.33,2.33,0,0,0,1.24-1.24,2.38,2.38,0,0,0,0-1.82,2.33,2.33,0,0,0-1.24-1.24,2.38,2.38,0,0,0-1.82,0,2.33,2.33,0,0,0-1.24,1.24,2.38,2.38,0,0,0,0,1.82,2.33,2.33,0,0,0,1.24,1.24A2.3,2.3,0,0,0,45,52.33Z"/><path class="cls-4" d="M61,18,47,4H11V68H61Z"/><rect class="cls-5" x="45" y="20" width="14" height="5"/><polygon class="cls-6" points="61 18 47 4 11 4 11 6 45 6 45 20 59 20 59 68 61 68 61 18"/></svg>