<svg data-name="ICONS" xmlns="http://www.w3.org/2000/svg" viewBox="0 0 72 72"><defs><linearGradient id="a" x1="6.467" y1="7.804" x2="58.639" y2="69.981" gradientUnits="userSpaceOnUse"><stop offset="0" stop-color="#fff" stop-opacity="0"/><stop offset=".862" stop-color="#5e5e5e" stop-opacity=".063"/><stop offset="1" stop-opacity=".1"/></linearGradient><linearGradient id="b" x1="52" y1="24.844" x2="52" y2="20.146" gradientUnits="userSpaceOnUse"><stop offset="0" stop-color="#828282" stop-opacity="0"/><stop offset=".862" stop-color="#303030" stop-opacity=".063"/><stop offset="1" stop-opacity=".1"/></linearGradient><linearGradient id="c" x1="48.792" y1="23.208" x2="57.501" y2="14.499" gradientUnits="userSpaceOnUse"><stop offset="0" stop-color="#fff" stop-opacity="0"/><stop offset=".446" stop-color="#fff" stop-opacity=".008"/><stop offset=".636" stop-color="#fff" stop-opacity=".036"/><stop offset=".776" stop-color="#fff" stop-opacity=".085"/><stop offset=".892" stop-color="#fff" stop-opacity=".154"/><stop offset=".993" stop-color="#fff" stop-opacity=".243"/><stop offset="1" stop-color="#fff" stop-opacity=".25"/></linearGradient></defs><path fill="#fff" d="M60 67H12V5h34l14 14v48z"/><path d="M47 4H11v64h50V18zm0 3l11 11H47zm12 59H13V6h32v14h14z" fill="#949494"/><path fill="#0078d7" d="M45 52l-3 9-7-19 19 7-9 3zM52 27v5h-5v-5h5m2-2h-9v9h9v-9zM25 54v5h-5v-5h5m2-2h-9v9h9v-9z"/><circle cx="28.5" cy="35.5" r="4.5" fill="#0078d7"/><path d="M25.742 41.377a6.513 6.513 0 0 1-1.666-1.128A23.845 23.845 0 0 0 21.089 50h2.006a21.835 21.835 0 0 1 2.647-8.623zM43 30.095v-2.006a23.849 23.849 0 0 0-9.751 2.987 6.517 6.517 0 0 1 1.128 1.666A21.837 21.837 0 0 1 43 30.095z" fill="#c8c8c8"/><path d="M61 18L47 4H11v64h50z" fill="url(#a)"/><path fill="url(#b)" d="M45 20h14v5H45z"/><path fill="url(#c)" d="M61 18L47 4H11v2h34v14h14v48h2V18z"/></svg>