<svg id="ICONS" xmlns="http://www.w3.org/2000/svg" viewBox="0 0 72 72"><defs><style>.cls-1{fill:#a6a6a6;}.cls-2{fill:#c8c8c8;}</style></defs><title>Artboard 231</title><path class="cls-1" d="M4,13V59H68V13ZM66,57H6V15H66Z"/><rect class="cls-2" x="9" y="18" width="3" height="3"/><rect class="cls-2" x="9" y="24" width="3" height="3"/><rect class="cls-2" x="9" y="30" width="3" height="3"/><rect class="cls-2" x="9" y="36" width="3" height="3"/><rect class="cls-2" x="9" y="42" width="3" height="3"/><rect class="cls-2" x="9" y="48" width="3" height="3"/><rect class="cls-2" x="9" y="54" width="3" height="3"/><rect class="cls-2" x="60" y="18" width="3" height="3"/><rect class="cls-2" x="60" y="24" width="3" height="3"/><rect class="cls-2" x="60" y="30" width="3" height="3"/><rect class="cls-2" x="60" y="36" width="3" height="3"/><rect class="cls-2" x="60" y="42" width="3" height="3"/><rect class="cls-2" x="60" y="48" width="3" height="3"/><rect class="cls-2" x="60" y="54" width="3" height="3"/><polygon class="cls-2" points="27 25 27 47 47 36 27 25"/></svg>