<svg data-name="ICONS" xmlns="http://www.w3.org/2000/svg" viewBox="0 0 72 72"><defs><linearGradient id="a" x1="14.914" y1="4.912" x2="67.086" y2="67.088" gradientUnits="userSpaceOnUse"><stop offset="0" stop-color="#fff" stop-opacity="0"/><stop offset=".862" stop-color="#5e5e5e" stop-opacity=".063"/><stop offset="1" stop-opacity=".1"/></linearGradient><linearGradient id="b" x1="58.447" y1="18.553" x2="69.501" y2="7.499" gradientUnits="userSpaceOnUse"><stop offset="0" stop-color="#fff" stop-opacity="0"/><stop offset=".446" stop-color="#fff" stop-opacity=".008"/><stop offset=".636" stop-color="#fff" stop-opacity=".036"/><stop offset=".776" stop-color="#fff" stop-opacity=".085"/><stop offset=".892" stop-color="#fff" stop-opacity=".154"/><stop offset=".993" stop-color="#fff" stop-opacity=".243"/><stop offset="1" stop-color="#fff" stop-opacity=".25"/></linearGradient><linearGradient id="c" x1="25.917" y1="66.767" x2="26.848" y2="58.053" gradientUnits="userSpaceOnUse"><stop offset="0" stop-color="#828282" stop-opacity="0"/><stop offset=".862" stop-color="#303030" stop-opacity=".126"/><stop offset="1" stop-opacity=".2"/></linearGradient><linearGradient id="d" x1="21.5" y1="58.75" x2="21.5" y2="21.167" gradientUnits="userSpaceOnUse"><stop offset="0" stop-color="#fff" stop-opacity="0"/><stop offset=".526" stop-color="#fff" stop-opacity=".007"/><stop offset=".715" stop-color="#fff" stop-opacity=".034"/><stop offset=".85" stop-color="#fff" stop-opacity=".08"/><stop offset=".959" stop-color="#fff" stop-opacity=".146"/><stop offset="1" stop-color="#fff" stop-opacity=".18"/></linearGradient></defs><path fill="#fff" d="M17 5h48v62H17z"/><path d="M66 4H16v64h50zm-2 62H18V6h46z" fill="#a6a6a6"/><path d="M43 11v23h16V11zm2 2h12v19H45zM43 38v23h16V38zm2 2h12v19H45zM23 11v23h16V11zm2 2h12v19H25zM25 38h-2v23h16V38zm12 21H25V40h12z" fill="#949494"/><path fill="#3955a3" d="M6 25l31-5v40L6 55V25z"/><path d="M30 31l-6.23 18h-4.616L13 31h4.389l3.77 12.527a8.96 8.96 0 0 1 .366 1.795h.076a10.08 10.08 0 0 1 .39-1.845L25.738 31z" fill="#fff"/><path d="M66 4H16v19.387L6 25v30l10 1.613V68h50z" fill="url(#a)"/><path fill="url(#b)" d="M66 18V4H16v2h48v62h2V18z"/><path fill="url(#c)" d="M37 66H16v-9.38L37 60v6z"/><path fill="url(#d)" d="M37 20L6 25v30l31 5V20z"/><path fill="url(#b)" d="M66 18V4H16v2h48v62h2V18z"/></svg>