<svg id="ICONS" xmlns="http://www.w3.org/2000/svg" xmlns:xlink="http://www.w3.org/1999/xlink" viewBox="0 0 72 72"><defs><style>.cls-1{fill:#fff;}.cls-2{fill:#a6a6a6;}.cls-3{fill:#2c5898;}.cls-4{fill:url(#linear-gradient);}.cls-5{fill:url(#linear-gradient-2);}.cls-6{fill:url(#linear-gradient-3);}.cls-7{fill:url(#linear-gradient-4);}.cls-8{fill:url(#linear-gradient-5);}</style><linearGradient id="linear-gradient" x1="14.91" y1="4.91" x2="67.09" y2="67.09" gradientUnits="userSpaceOnUse"><stop offset="0" stop-color="#fff" stop-opacity="0"/><stop offset="0.86" stop-color="#5e5e5e" stop-opacity="0.06"/><stop offset="1" stop-opacity="0.1"/></linearGradient><linearGradient id="linear-gradient-2" x1="25.97" y1="65.8" x2="26.8" y2="58.02" gradientUnits="userSpaceOnUse"><stop offset="0" stop-color="#828282" stop-opacity="0"/><stop offset="0.86" stop-color="#303030" stop-opacity="0.13"/><stop offset="1" stop-opacity="0.2"/></linearGradient><linearGradient id="linear-gradient-3" x1="21.5" y1="58.75" x2="21.5" y2="21.17" gradientUnits="userSpaceOnUse"><stop offset="0" stop-color="#fff" stop-opacity="0"/><stop offset="0.53" stop-color="#fff" stop-opacity="0.01"/><stop offset="0.72" stop-color="#fff" stop-opacity="0.03"/><stop offset="0.85" stop-color="#fff" stop-opacity="0.08"/><stop offset="0.96" stop-color="#fff" stop-opacity="0.15"/><stop offset="1" stop-color="#fff" stop-opacity="0.18"/></linearGradient><linearGradient id="linear-gradient-4" x1="58.45" y1="18.55" x2="69.5" y2="7.5" gradientUnits="userSpaceOnUse"><stop offset="0" stop-color="#fff" stop-opacity="0"/><stop offset="0.45" stop-color="#fff" stop-opacity="0.01"/><stop offset="0.64" stop-color="#fff" stop-opacity="0.04"/><stop offset="0.78" stop-color="#fff" stop-opacity="0.08"/><stop offset="0.89" stop-color="#fff" stop-opacity="0.15"/><stop offset="0.99" stop-color="#fff" stop-opacity="0.24"/><stop offset="1" stop-color="#fff" stop-opacity="0.25"/></linearGradient><linearGradient id="linear-gradient-5" x1="25.92" y1="66.77" x2="26.85" y2="58.05" xlink:href="#linear-gradient-2"/></defs><title>Artboard 231</title><rect class="cls-1" x="17" y="5" width="48" height="62"/><path class="cls-2" d="M66,4H16V68H66ZM64,66H18V6H64Z"/><path class="cls-2" d="M24,39v0m1-1H23V61h2V38Z"/><path class="cls-2" d="M44,12V33h0V12m15-1H43V34H59V11ZM45,32V13H57V32Z"/><path class="cls-2" d="M44,39V60h0V39m15-1H43V61H59V38ZM45,59V40H57V59Z"/><path class="cls-2" d="M24,12V33h0V12m15-1H23V34H39V11ZM25,32V13H37V32Z"/><path class="cls-2" d="M38,39v0m1-1H25v2H37V59H25v2H39V38Z"/><polygon class="cls-3" points="6 25 37 20 37 60 6 55 6 25"/><path class="cls-1" d="M30,31,23.77,49H19.15L13,31h4.39l3.77,12.53a9,9,0,0,1,.37,1.79h.08A10.08,10.08,0,0,1,22,43.48L25.74,31Z"/><path class="cls-4" d="M66,4H16V23.39L6,25V55l10,1.61V68H66Z"/><polygon class="cls-5" points="37 65 16 65 16 56.62 37 60 37 65"/><polygon class="cls-6" points="37 20 6 25 6 55 37 60 37 20"/><polygon class="cls-7" points="66 18 66 4 16 4 16 6 50 6 64 6 64 20 64 68 66 68 66 18"/><polygon class="cls-8" points="37 66 16 66 16 56.62 37 60 37 66"/><polygon class="cls-6" points="37 20 6 25 6 55 37 60 37 20"/><polygon class="cls-7" points="66 18 66 4 16 4 16 6 50 6 64 6 64 20 64 68 66 68 66 18"/></svg>