<svg data-name="ICONS" xmlns="http://www.w3.org/2000/svg" xmlns:xlink="http://www.w3.org/1999/xlink" viewBox="0 0 72 72"><defs><linearGradient id="a" x1="17.843" y1="11.56" x2="59.157" y2="64.44" gradientUnits="userSpaceOnUse"><stop offset="0" stop-color="#fff" stop-opacity="0"/><stop offset=".862" stop-color="#5e5e5e" stop-opacity=".063"/><stop offset="1" stop-opacity=".1"/></linearGradient><linearGradient id="b" x1="40.735" y1="13.066" x2="41.256" y2="3.106" gradientUnits="userSpaceOnUse"><stop offset="0" stop-color="#fff" stop-opacity="0"/><stop offset=".446" stop-color="#fff" stop-opacity=".008"/><stop offset=".636" stop-color="#fff" stop-opacity=".036"/><stop offset=".776" stop-color="#fff" stop-opacity=".085"/><stop offset=".892" stop-color="#fff" stop-opacity=".154"/><stop offset=".993" stop-color="#fff" stop-opacity=".243"/><stop offset="1" stop-color="#fff" stop-opacity=".25"/></linearGradient><linearGradient id="c" x1="21.5" y1="58.75" x2="21.5" y2="21.167" gradientUnits="userSpaceOnUse"><stop offset="0" stop-color="#fff" stop-opacity="0"/><stop offset=".526" stop-color="#fff" stop-opacity=".007"/><stop offset=".715" stop-color="#fff" stop-opacity=".034"/><stop offset=".85" stop-color="#fff" stop-opacity=".08"/><stop offset=".959" stop-color="#fff" stop-opacity=".146"/><stop offset="1" stop-color="#fff" stop-opacity=".18"/></linearGradient><linearGradient id="d" x1="34.123" y1="27.998" x2="65.613" y2="68.303" xlink:href="#a"/><linearGradient id="e" x1="41" y1="67.844" x2="41" y2="63.146" gradientUnits="userSpaceOnUse"><stop offset="0" stop-color="#828282" stop-opacity="0"/><stop offset=".862" stop-color="#303030" stop-opacity=".063"/><stop offset="1" stop-opacity=".1"/></linearGradient><linearGradient id="f" x1="26.021" y1="65.291" x2="26.8" y2="58.003" gradientUnits="userSpaceOnUse"><stop offset="0" stop-color="#828282" stop-opacity="0"/><stop offset=".862" stop-color="#303030" stop-opacity=".126"/><stop offset="1" stop-opacity=".2"/></linearGradient></defs><path fill="#fff" d="M61 4H16v59h5v5h45V9l-5-5z"/><path d="M51 44.09V38h-4v-4.09a6 6 0 1 0-2 0V38h-5v-5H29v12h11v-5h9v4.09a6 6 0 1 0 2 0zM42 28a4 4 0 1 1 4 4 4.005 4.005 0 0 1-4-4zm-4 15h-7v-8h7zm12 11a4 4 0 1 1 4-4 4.005 4.005 0 0 1-4 4z" fill="#c8c8c8"/><path fill="#3955a3" d="M61 4H16v9h45V7l5 5V9l-5-5z"/><path fill="#949494" d="M64 10v56H23v-3h38V13h-2v48H18V13h-2v50h5v5h45V12l-2-2z"/><path fill="#3955a3" d="M6 25l31-5v40L6 55V25z"/><path d="M30 31l-6.23 18h-4.616L13 31h4.389l3.77 12.527a8.96 8.96 0 0 1 .366 1.795h.076a10.08 10.08 0 0 1 .39-1.845L25.738 31z" fill="#fff"/><circle cx="24" cy="17" r="1" fill="#c8c8c8"/><circle cx="31" cy="17" r="1" fill="#c8c8c8"/><circle cx="38" cy="17" r="1" fill="#c8c8c8"/><circle cx="45" cy="17" r="1" fill="#c8c8c8"/><circle cx="55" cy="25" r="1" fill="#c8c8c8"/><circle cx="55" cy="32" r="1" fill="#c8c8c8"/><circle cx="55" cy="39" r="1" fill="#c8c8c8"/><circle cx="41" cy="55" r="1" fill="#c8c8c8"/><path fill="url(#a)" d="M16 13h45v50H16z"/><path fill="url(#b)" d="M61 4H16v9h45V7l5 5V9l-5-5z"/><path fill="url(#c)" d="M37 20L6 25v30l31 5V20z"/><path fill="url(#d)" d="M61 7v56H21v5h45V12l-5-5z"/><path fill="url(#e)" d="M21 63h40v5H21z"/><path fill="url(#f)" d="M37 65H21v-2h-5v-6.38L37 60v5z"/></svg>