<svg id="ICONS" xmlns="http://www.w3.org/2000/svg" xmlns:xlink="http://www.w3.org/1999/xlink" viewBox="0 0 72 72"><defs><style>.cls-1{fill:#fff;}.cls-2{fill:#c8c8c8;}.cls-3{fill:#acbbe3;}.cls-4{fill:#a6a6a6;}.cls-5{fill:#2c5898;}.cls-6{fill:url(#linear-gradient);}.cls-7{fill:url(#linear-gradient-2);}.cls-8{fill:url(#linear-gradient-3);}.cls-9{fill:url(#linear-gradient-4);}.cls-10{fill:url(#linear-gradient-5);}.cls-11{fill:url(#linear-gradient-6);}</style><linearGradient id="linear-gradient" x1="17.84" y1="11.56" x2="59.16" y2="64.44" gradientUnits="userSpaceOnUse"><stop offset="0" stop-color="#fff" stop-opacity="0"/><stop offset="0.86" stop-color="#5e5e5e" stop-opacity="0.06"/><stop offset="1" stop-opacity="0.1"/></linearGradient><linearGradient id="linear-gradient-2" x1="40.73" y1="13.07" x2="41.26" y2="3.11" gradientUnits="userSpaceOnUse"><stop offset="0" stop-color="#fff" stop-opacity="0"/><stop offset="0.45" stop-color="#fff" stop-opacity="0.01"/><stop offset="0.64" stop-color="#fff" stop-opacity="0.04"/><stop offset="0.78" stop-color="#fff" stop-opacity="0.08"/><stop offset="0.89" stop-color="#fff" stop-opacity="0.15"/><stop offset="0.99" stop-color="#fff" stop-opacity="0.24"/><stop offset="1" stop-color="#fff" stop-opacity="0.25"/></linearGradient><linearGradient id="linear-gradient-3" x1="21.5" y1="58.75" x2="21.5" y2="21.17" gradientUnits="userSpaceOnUse"><stop offset="0" stop-color="#fff" stop-opacity="0"/><stop offset="0.53" stop-color="#fff" stop-opacity="0.01"/><stop offset="0.72" stop-color="#fff" stop-opacity="0.03"/><stop offset="0.85" stop-color="#fff" stop-opacity="0.08"/><stop offset="0.96" stop-color="#fff" stop-opacity="0.15"/><stop offset="1" stop-color="#fff" stop-opacity="0.18"/></linearGradient><linearGradient id="linear-gradient-4" x1="34.12" y1="28" x2="65.61" y2="68.3" xlink:href="#linear-gradient"/><linearGradient id="linear-gradient-5" x1="41" y1="67.84" x2="41" y2="63.15" gradientUnits="userSpaceOnUse"><stop offset="0" stop-color="#828282" stop-opacity="0"/><stop offset="0.86" stop-color="#303030" stop-opacity="0.06"/><stop offset="1" stop-opacity="0.1"/></linearGradient><linearGradient id="linear-gradient-6" x1="26.02" y1="65.29" x2="26.8" y2="58" gradientUnits="userSpaceOnUse"><stop offset="0" stop-color="#828282" stop-opacity="0"/><stop offset="0.86" stop-color="#303030" stop-opacity="0.13"/><stop offset="1" stop-opacity="0.2"/></linearGradient></defs><title>Artboard 231</title><polygon class="cls-1" points="61 4 16 4 16 63 21 63 21 68 66 68 66 9 61 4"/><path class="cls-2" d="M51,44.09V40h0V38H47V33.91a6,6,0,1,0-2,0V38H40V33H29V45H40V40h9v4.09a6,6,0,1,0,2,0ZM42,28a4,4,0,1,1,4,4A4,4,0,0,1,42,28ZM38,43H31V35h7ZM50,54a4,4,0,1,1,4-4A4,4,0,0,1,50,54Z"/><polygon class="cls-3" points="61 4 16 4 16 13 61 13 61 7 66 12 66 9 61 4"/><polygon class="cls-4" points="64 10 64 66 23 66 23 63 61 63 61 13 59 13 59 61 23 61 21 61 18 61 18 13 16 13 16 63 21 63 21 68 66 68 66 12 64 10"/><polygon class="cls-5" points="6 25 37 20 37 60 6 55 6 25"/><path class="cls-1" d="M30,31,23.77,49H19.15L13,31h4.39l3.77,12.53a9,9,0,0,1,.37,1.79h.08A10.08,10.08,0,0,1,22,43.48L25.74,31Z"/><circle class="cls-2" cx="24" cy="17" r="1"/><circle class="cls-2" cx="31" cy="17" r="1"/><circle class="cls-2" cx="38" cy="17" r="1"/><circle class="cls-2" cx="45" cy="17" r="1"/><circle class="cls-2" cx="55" cy="25" r="1"/><circle class="cls-2" cx="55" cy="32" r="1"/><circle class="cls-2" cx="55" cy="39" r="1"/><circle class="cls-2" cx="41" cy="55" r="1"/><rect class="cls-6" x="16" y="13" width="45" height="50"/><polygon class="cls-7" points="61 4 16 4 16 13 61 13 61 7 66 12 66 9 61 4"/><polygon class="cls-8" points="37 20 6 25 6 55 37 60 37 20"/><polygon class="cls-9" points="61 7 61 63 21 63 21 68 66 68 66 12 61 7"/><rect class="cls-10" x="21" y="63" width="40" height="5"/><polygon class="cls-11" points="37 65 21 65 21 63 16 63 16 56.62 37 60 37 65"/></svg>