<svg id="ICONS" xmlns="http://www.w3.org/2000/svg" xmlns:xlink="http://www.w3.org/1999/xlink" viewBox="0 0 72 72"><defs><style>.cls-1{fill:#fff;}.cls-2{fill:#a6a6a6;}.cls-3{fill:#c8c8c8;}.cls-4{fill:#6caedf;}.cls-5{fill:#deebf8;}.cls-6{fill:url(#linear-gradient);}.cls-7{fill:url(#linear-gradient-2);}.cls-8{fill:url(#linear-gradient-3);}</style><linearGradient id="linear-gradient" x1="6.47" y1="7.8" x2="58.64" y2="69.98" gradientUnits="userSpaceOnUse"><stop offset="0" stop-color="#fff" stop-opacity="0"/><stop offset="0.86" stop-color="#5e5e5e" stop-opacity="0.06"/><stop offset="1" stop-opacity="0.1"/></linearGradient><linearGradient id="linear-gradient-2" x1="52" y1="24.84" x2="52" y2="20.15" gradientUnits="userSpaceOnUse"><stop offset="0" stop-color="#828282" stop-opacity="0"/><stop offset="0.86" stop-color="#303030" stop-opacity="0.06"/><stop offset="1" stop-opacity="0.1"/></linearGradient><linearGradient id="linear-gradient-3" x1="48.79" y1="23.21" x2="57.5" y2="14.5" gradientUnits="userSpaceOnUse"><stop offset="0" stop-color="#fff" stop-opacity="0"/><stop offset="0.45" stop-color="#fff" stop-opacity="0.01"/><stop offset="0.64" stop-color="#fff" stop-opacity="0.04"/><stop offset="0.78" stop-color="#fff" stop-opacity="0.08"/><stop offset="0.89" stop-color="#fff" stop-opacity="0.15"/><stop offset="0.99" stop-color="#fff" stop-opacity="0.24"/><stop offset="1" stop-color="#fff" stop-opacity="0.25"/></linearGradient></defs><title>Artboard 231</title><polygon class="cls-1" points="60 67 12 67 12 5 46 5 60 19 60 67"/><path class="cls-2" d="M47,4H11V68H61V18Zm0,3L58,18H47ZM59,66H13V6H45V20H59Z"/><rect class="cls-3" x="18" y="57" width="36" height="2"/><rect class="cls-3" x="18" y="52" width="36" height="2"/><polygon class="cls-2" points="23 43 25 43 20 36 25 29 23 29 18 36 23 43"/><polygon class="cls-2" points="49 43 47 43 52 36 47 29 49 29 54 36 49 43"/><circle class="cls-4" cx="36" cy="36" r="9"/><path class="cls-5" d="M40.57,28.25l-.06,0v0Z"/><path class="cls-5" d="M31.3,35.36c-.11,0,0,.48.12.53s0-.2.34,0a.46.46,0,0,0,.33.1s0,0,.07,0h0C32.23,35.62,31.57,35.42,31.3,35.36Z"/><path class="cls-5" d="M31,34.95c-.06-.26-.43-.95-.76-.8-.08.45.35.81.39,1C30.75,35.5,31.26,35,31,34.95Z"/><path class="cls-5" d="M43.18,30.58l-.07-.05c0,.27,0,.7-.29.67-.13,0-.21.1-.33,0s-.09-.17-.2-.2c-.14-.43-.47,0-.53.26.09.33-.37.37-.37.62s-.1.25-.11.42.26.43.21.51l-.16.85a2.52,2.52,0,0,0,0,1c.11.25.43.51.36.84s0,.67.35.68a3.28,3.28,0,0,0,.46.35c0,.12.19.26.28.3.25.07.31.17.47-.11s.53-.3.5-.41a.68.68,0,0,1,.67-.64c.21,0,.2.48.21.59a1.54,1.54,0,0,0,.28.34c0-.21,0-.42,0-.63A9,9,0,0,0,43.18,30.58Z"/><path class="cls-5" d="M38.38,27.39a1.46,1.46,0,0,0-.73,0c-.37.09.55.58.68.69s.14.19.26.29.19,0,.3.09.31-.06.49,0,.11.18.15.31c.26,0,0-.4-.08-.5s-.39-.13-.53-.31c.18,0,.34-.24.39.08.15.11.26.11.4.25s.14,0,.19,0,.1.31,0,.42,0,.42,0,.6.17.39,0,.52.21.17.28.19.4.29.39.43-.31.2-.37.21.15.39.17.45.26.25.32.37c.15.31.12,0,.27.1s.29,0,.38-.13a1,1,0,0,0,0-.43c0-.1-.14-.1-.2-.13a2.49,2.49,0,0,1,0-.37c0-.2-.14-.33,0-.55s.55.18.64.26.22-.29-.11-.32c-.12-.09-.37-.15-.42-.29.12-.24.64.47.84.34,0-.13-.2-.2-.21-.35a.92.92,0,0,0-.05-.25c0-.07-.1-.21-.16-.32a9,9,0,0,0-1.12-.78h-.06v0a9,9,0,0,0-1-.49l-.27-.06C39.06,27.6,38.6,27.3,38.38,27.39Z"/><path class="cls-5" d="M39.39,29.09s-.86-.41-.85-.39,0,0,0,0c-.32,0,.36.43.37.43-.2.16,0,.35.13.5s.22-.31.22-.31.36.34.5.13S39.55,29.08,39.39,29.09Z"/><path class="cls-5" d="M34.52,43.66c.29-.12.56-.79.86-.89,0-.57.82-.38,1.14-.46a.76.76,0,0,0,.63-.57c.06-.22.08-.4.34-.48s.51-.43.5-.69,0-.4-.22-.37-.27-.18-.46-.2-.49,0-.72,0a2.38,2.38,0,0,0-.46-.2c-.14,0-.39-.43-.48-.52s-.28,0-.44,0,.23-.33.11-.5-.33-.24-.49-.4a2.51,2.51,0,0,0-.32-.23c-.29-.05-.56.08-.77-.15l-.36-.32s.18-.09,0-.13-.11-.16-.23-.16-.12-.27-.36-.17a2.2,2.2,0,0,0-.28.06c-.1,0-.11-.19-.25-.17s-.35-.24-.59-.24a.34.34,0,0,1-.31.31c-.22,0-.2-.4-.5-.25-.14.07,0,.23-.26.23s-.13.06-.13.11c-.19-.06-.41-.41-.56-.61s-.57-.3-.48-.57a1.24,1.24,0,0,0,0-.84c-.06-.08-.14-.28-.24-.32s.07-.06,0-.17A1.6,1.6,0,0,0,29.5,34c-.34-.24-.42.18-.67.2-.4,0-.36-.21-.41-.46a1.52,1.52,0,0,1,.05-.72c.07-.27.45-.37.47-.7.11,0,.35-.16.48-.12s.3.2.43.24a2.68,2.68,0,0,0,.43,0c.1.07.07.17.21.18s0,.22,0,.36-.2.72.09.7.33-.67.35-.81.28-.37.49-.46.61-.14.66-.33a1.09,1.09,0,0,0,.13-.3c0-.08.24-.09.3-.13s.48-.37.73-.3.38-.29.59-.31a5.35,5.35,0,0,1,.56-.09c0,.15-.26.13-.26.31.19.11.91-.17.57-.23s-.16-.61-.22-.63c-.31-.06,0-.21.2-.17s.41.18.51.11c.48-.34.19.31.18.4a1,1,0,0,0,.41.16c.07-.07.24,0,.18-.18s-.14,0-.22-.12.08-.3.1-.44,0-.16-.1-.18.05-.19,0-.28a1.15,1.15,0,0,1-.23-.48c-.08-.44-.38-.1-.64-.31.16-.18,0-.36-.13-.42s-.35-.22-.41.05c-.19.09-.27.07-.31.3s0,.15-.19.26-.34,0-.42.31c-.21.07-.51.09-.2-.23s-.69-.62-.14-1c.19-.14.47-.11.63-.23a1.77,1.77,0,0,1,.27,0,.47.47,0,0,0,.4.12c.16,0,.35-.18.51,0s.14.3.4.31c.39-.21.71-.13.83-.64s-.65-.38-.91-.5.41-.13.42-.14l-.06,0a9,9,0,0,0-2.56.5,6.29,6.29,0,0,0-.75.35l-.74.33a9,9,0,0,0-3.75,4.17,1.22,1.22,0,0,1,0,.53,2.09,2.09,0,0,0,.06.88,2.29,2.29,0,0,0,.2.65c.06.11.24-.05.34,0s.21.3.25.42a3.78,3.78,0,0,1,.15.37c.07.07.29,0,.32.13a.44.44,0,0,0,0,.28c.07.17,0,.46.09.84a.92.92,0,0,0,.54.58c.13.07.18.22.29.5s.21,0,.22.18a1.53,1.53,0,0,1,0,.41c-.06.22-.51.35-.49.62,0,.11.13.13.15.23s0,.17,0,.24.22.28.32.4.16.35.27.49a1.9,1.9,0,0,1,.41.7,5,5,0,0,0,.78.55c.37.4.31,1.71.3,2.29a1.29,1.29,0,0,0,.05.42,8.93,8.93,0,0,0,1.66.63l.19-.16C34.09,44.31,34.24,43.78,34.52,43.66ZM32.12,29.9a.33.33,0,0,1,.63-.19c.1.28.27.43.27.76,0,.14-.19.2-.26.31-.46-.05-.24-.08-.33-.39,0,.08-.07,0,0,0-.14-.05-.33.17-.41-.08S32.16,30.06,32.12,29.9Z"/><path class="cls-6" d="M61,18,47,4H11V68H61Z"/><rect class="cls-7" x="45" y="20" width="14" height="5"/><polygon class="cls-8" points="61 18 47 4 11 4 11 6 45 6 45 20 59 20 59 68 61 68 61 18"/></svg>