<svg data-name="ICONS" xmlns="http://www.w3.org/2000/svg" xmlns:xlink="http://www.w3.org/1999/xlink" viewBox="0 0 72 72"><defs><linearGradient id="c" x1="15.392" y1="11.441" x2="60.055" y2="64.667" gradientUnits="userSpaceOnUse"><stop offset="0" stop-opacity="0"/><stop offset=".862" stop-opacity=".126"/><stop offset="1" stop-opacity=".2"/></linearGradient><linearGradient id="d" x1="53.033" y1="12.691" x2="51.628" y2="28.755" gradientUnits="userSpaceOnUse"><stop offset="0" stop-color="#828282" stop-opacity="0"/><stop offset=".859" stop-color="#454545" stop-opacity=".117"/><stop offset="1" stop-opacity=".25"/></linearGradient><linearGradient id="a" x1="13" y1="23.813" x2="13" y2="22.294" gradientUnits="userSpaceOnUse"><stop offset="0" stop-color="#828282" stop-opacity="0"/><stop offset=".997" stop-opacity=".07"/></linearGradient><linearGradient id="e" y1="41.813" y2="40.294" xlink:href="#a"/><linearGradient id="b" x1="13" y1="21.907" x2="13" y2="21.147" gradientUnits="userSpaceOnUse"><stop offset="0" stop-color="#fff" stop-opacity="0"/><stop offset=".207" stop-color="#fff" stop-opacity=".016"/><stop offset=".421" stop-color="#fff" stop-opacity=".065"/><stop offset=".639" stop-color="#fff" stop-opacity=".146"/><stop offset=".857" stop-color="#fff" stop-opacity=".259"/><stop offset="1" stop-color="#fff" stop-opacity=".35"/></linearGradient><linearGradient id="f" y1="43.813" y2="42.294" xlink:href="#b"/><linearGradient id="g" y1="47.813" y2="46.294" xlink:href="#b"/><linearGradient id="h" y1="51.813" y2="50.294" xlink:href="#b"/><linearGradient id="i" y1="55.813" y2="54.294" xlink:href="#b"/><linearGradient id="j" y1="25.813" y2="24.294" xlink:href="#b"/><linearGradient id="k" y1="39.813" y2="38.294" xlink:href="#b"/><linearGradient id="l" x1="9.5" y1="23.813" x2="9.5" y2="22.294" xlink:href="#b"/><linearGradient id="m" x1="16.5" y1="23.813" x2="16.5" y2="22.294" xlink:href="#b"/><linearGradient id="n" y1="33.813" y2="32.294" xlink:href="#a"/><linearGradient id="o" y1="45.813" y2="44.294" xlink:href="#a"/><linearGradient id="p" y1="49.813" y2="48.294" xlink:href="#a"/><linearGradient id="q" y1="53.813" y2="52.294" xlink:href="#a"/><linearGradient id="r" y1="57.813" y2="56.294" xlink:href="#a"/></defs><path fill="#a6a6a6" d="M4 58V21h32l7-7h25v44H4z"/><path fill="#828282" d="M43 14l-7 7 7 7h25V14H43z"/><path fill="url(#c)" d="M4 58V21h32l7-7h25v44H4z"/><path fill="url(#d)" d="M43 14l-7 7 7 7h25V14H43z"/><path fill="#fff" opacity=".15" d="M68 28v1H42.542L34.5 21H36l7.042 7H68z"/><path fill="#eaeaea" d="M10 21h6v1h-6zM10 46h6v2h-6zM10 42h6v2h-6zM10 50h6v2h-6zM10 54h6v2h-6zM16 22v2h-6v-2H9v18h8V22zm0 16h-6v-6h6z"/><path fill="url(#a)" d="M10 22h6v2h-6z"/><path fill="url(#e)" d="M9 40h8v2H9z"/><path fill="url(#b)" d="M10 21h6v1h-6z"/><path fill="url(#f)" d="M10 42h6v2h-6z"/><path fill="url(#g)" d="M10 46h6v2h-6z"/><path fill="url(#h)" d="M10 50h6v2h-6z"/><path fill="url(#i)" d="M10 54h6v2h-6z"/><path fill="url(#j)" d="M10 24h6v2h-6z"/><path fill="url(#k)" d="M10 38h6v2h-6z"/><path fill="url(#l)" d="M9 22h1v2H9z"/><path fill="url(#m)" d="M16 22h1v2h-1z"/><path fill="url(#n)" d="M10 32h6v2h-6z"/><path fill="url(#o)" d="M10 44h6v2h-6z"/><path fill="url(#p)" d="M10 48h6v2h-6z"/><path fill="url(#q)" d="M10 52h6v2h-6z"/><path fill="url(#r)" d="M10 56h6v2h-6z"/></svg>