<svg id="ICONS" xmlns="http://www.w3.org/2000/svg" xmlns:xlink="http://www.w3.org/1999/xlink" viewBox="0 0 72 72"><defs><style>.cls-1{fill:#a6a6a6;}.cls-2{fill:#828282;}.cls-3{fill:url(#linear-gradient);}.cls-4{fill:url(#linear-gradient-2);}.cls-5{fill:#fff;opacity:0.15;}.cls-6{fill:#eaeaea;}</style><linearGradient id="linear-gradient" x1="14.9" y1="10.85" x2="60.55" y2="65.25" gradientUnits="userSpaceOnUse"><stop offset="0" stop-opacity="0"/><stop offset="0.86" stop-opacity="0.13"/><stop offset="1" stop-opacity="0.2"/></linearGradient><linearGradient id="linear-gradient-2" x1="53.03" y1="11.69" x2="51.63" y2="27.75" gradientUnits="userSpaceOnUse"><stop offset="0" stop-color="#828282" stop-opacity="0"/><stop offset="0.86" stop-color="#454545" stop-opacity="0.12"/><stop offset="1" stop-opacity="0.25"/></linearGradient></defs><title>Artboard 231</title><polygon class="cls-1" points="4 59 4 20 36 20 43 13 68 13 68 59 4 59"/><polygon class="cls-2" points="43 13 36 20 43 27 68 27 68 13 43 13"/><polygon class="cls-3" points="4 59 4 20 36 20 43 13 68 13 68 59 4 59"/><polygon class="cls-4" points="43 13 36 20 43 27 68 27 68 13 43 13"/><polygon class="cls-5" points="68 27 68 28 42.54 28 34.5 20 36 20 43.04 27 68 27"/><rect class="cls-6" x="10" y="20" width="5" height="1"/><rect class="cls-6" x="10" y="41" width="5" height="1"/><rect class="cls-6" x="10" y="38" width="5" height="1"/><rect class="cls-6" x="10" y="44" width="5" height="1"/><rect class="cls-6" x="10" y="47" width="5" height="1"/><rect class="cls-6" x="10" y="50" width="5" height="1"/><rect class="cls-6" x="10" y="53" width="5" height="1"/><rect class="cls-6" x="10" y="56" width="5" height="1"/><path class="cls-6" d="M15,21v2H10V21H9V36h7V21Zm0,13H10V29h5Z"/></svg>