<svg id="961a4c7b-48cc-47d0-ae8f-cd320b10d41d" data-name="ICONS" xmlns="http://www.w3.org/2000/svg" xmlns:xlink="http://www.w3.org/1999/xlink" viewBox="0 0 40 40"><defs><linearGradient id="821263b2-e025-4010-b98c-8d894ade3b4a" x1="6.09939" y1="4.4339" x2="35.39486" y2="39.34688" gradientUnits="userSpaceOnUse"><stop offset="0" stop-color="#fff" stop-opacity="0"/><stop offset="0.86247" stop-color="#5e5e5e" stop-opacity="0.06315"/><stop offset="1" stop-opacity="0.1"/></linearGradient><linearGradient id="5b8ed1b3-fa55-4222-9503-97dd677b0f50" x1="32" y1="13.90625" x2="32" y2="11.08751" gradientUnits="userSpaceOnUse"><stop offset="0" stop-color="#828282" stop-opacity="0"/><stop offset="0.86247" stop-color="#303030" stop-opacity="0.06315"/><stop offset="1" stop-opacity="0.1"/></linearGradient><linearGradient id="eaa211a1-70a5-47f8-9cdb-6756d4d17031" x1="26.79167" y1="9.70833" x2="31.72991" y2="4.77009" gradientUnits="userSpaceOnUse"><stop offset="0" stop-color="#fff" stop-opacity="0"/><stop offset="0.44604" stop-color="#fff" stop-opacity="0.00799"/><stop offset="0.63551" stop-color="#fff" stop-opacity="0.03616"/><stop offset="0.77636" stop-color="#fff" stop-opacity="0.08493"/><stop offset="0.8924" stop-color="#fff" stop-opacity="0.15385"/><stop offset="0.99328" stop-color="#fff" stop-opacity="0.24291"/><stop offset="1" stop-color="#fff" stop-opacity="0.25"/></linearGradient><linearGradient id="c547806c-62c9-43a1-9efc-0f1c7f690777" x1="14.27844" y1="36.94138" x2="14.65697" y2="33.3769" gradientUnits="userSpaceOnUse"><stop offset="0" stop-color="#828282" stop-opacity="0"/><stop offset="0.99719" stop-opacity="0.2"/></linearGradient><linearGradient id="69cda143-a75f-46a7-8192-3e9a8b700b4f" x1="11.5" y1="32.79198" x2="11.5" y2="12.21733" gradientUnits="userSpaceOnUse"><stop offset="0" stop-color="#fff" stop-opacity="0"/><stop offset="0.52587" stop-color="#fff" stop-opacity="0.00735"/><stop offset="0.71529" stop-color="#fff" stop-opacity="0.03396"/><stop offset="0.8503" stop-color="#fff" stop-opacity="0.0803"/><stop offset="0.95875" stop-color="#fff" stop-opacity="0.14595"/><stop offset="1" stop-color="#fff" stop-opacity="0.18"/></linearGradient></defs><title>FileTypeIcons_Master_All_NEW</title><polygon points="10 3 29 3 36 10 36 37 10 37 10 3" fill="#fff"/><path d="M29,2H9V38H37V10Zm0,1.5L35.5,10H29ZM36,37H10V3H28v8h8Z" fill="#949494"/><path d="M32,21V32H20V21H32m1-1H19V33H33V20Z" fill="#c8c8c8"/><path d="M27,15v6H16V15H27m1-1H15v8H28V14Z" fill="#c8c8c8"/><polygon points="3 13 20 11 20 34 3 32 3 13" fill="#a4373a"/><path d="M16,27H13.74323l-.65395-2.00209H9.81952L9.172,27H6.928l3.34669-9h2.45552Zm-3.38516-3.55858-.98734-3.0251a3.849,3.849,0,0,1-.15387-.80963h-.05129a3.38,3.38,0,0,1-.16028.78452L10.2619,23.44142Z" fill="#fff"/><rect x="22" y="24" width="2" height="1" fill="#f7a8ab"/><rect x="20" y="20" width="13" height="3" fill="#f7a8ab"/><rect x="20" y="14" width="8" height="3" fill="#f7a8ab"/><rect x="26" y="24" width="4" height="1" fill="#c8c8c8"/><rect x="26" y="27" width="4" height="1" fill="#c8c8c8"/><rect x="21" y="18" width="4" height="1" fill="#c8c8c8"/><rect x="22" y="27" width="2" height="1" fill="#f7a8ab"/><rect x="26" y="30" width="4" height="1" fill="#c8c8c8"/><rect x="22" y="30" width="2" height="1" fill="#f7a8ab"/><path d="M29,2H9V12.29419L3,13V32l6,.70581V38H37V10Z" fill="url(#821263b2-e025-4010-b98c-8d894ade3b4a)"/><rect x="28" y="11" width="8" height="3" fill="url(#5b8ed1b3-fa55-4222-9503-97dd677b0f50)"/><polygon points="29 2 9 2 9 3 28 3 28 11 36 11 36 25 37 25 37 10 29 2" fill="url(#eaa211a1-70a5-47f8-9cdb-6756d4d17031)"/><polygon points="20 37 9 37 9 32.71 20 34 20 37" fill="url(#c547806c-62c9-43a1-9efc-0f1c7f690777)"/><polygon points="20 34 3 32 3 13 20 11 20 34" fill="url(#69cda143-a75f-46a7-8192-3e9a8b700b4f)"/></svg>