<?xml version="1.0" encoding="utf-8"?>
<!-- Generator: Adobe Illustrator 21.1.0, SVG Export Plug-In . SVG Version: 6.00 Build 0)  -->
<svg version="1.1" xmlns="http://www.w3.org/2000/svg" xmlns:xlink="http://www.w3.org/1999/xlink" x="0px" y="0px"
	 viewBox="0 0 40 40" enable-background="new 0 0 40 40" xml:space="preserve">
<g id="TEMPLATE" display="none">
	<g display="inline">
		<path fill="#D0D0D0" d="M40,0v40H0V0H40 M41-1h-1H0h-1v1v40v1h1h40h1v-1V0V-1L41-1z"/>
	</g>
	<g display="inline" opacity="0.1">
		<path fill="#FF3A6D" d="M38,2v36H2V2H38 M40,0H0v40h40V0L40,0z"/>
	</g>
</g>
<g id="ICONS">
	<polygon fill="#A6A6A6" points="2,33 2,11 20,11 24,7 38,7 38,33 	"/>
	<polygon fill="#828282" points="24,7 20,11 24,15 38,15 38,7 	"/>
	<linearGradient id="SVGID_1_" gradientUnits="userSpaceOnUse" x1="8.1312" y1="5.8553" x2="33.8384" y2="36.492">
		<stop  offset="0" style="stop-color:#000000;stop-opacity:0"/>
		<stop  offset="0.8625" style="stop-color:#000000;stop-opacity:0.1725"/>
		<stop  offset="1" style="stop-color:#000000;stop-opacity:0.2"/>
	</linearGradient>
	<polygon fill="url(#SVGID_1_)" points="2,33 2,11 20,11 24,7 38,7 38,33 	"/>
	<linearGradient id="SVGID_2_" gradientUnits="userSpaceOnUse" x1="29.5893" y1="6.2642" x2="28.7884" y2="15.4189">
		<stop  offset="0" style="stop-color:#828282;stop-opacity:0"/>
		<stop  offset="0.4267" style="stop-color:#808080;stop-opacity:0.1067"/>
		<stop  offset="0.5804" style="stop-color:#797979;stop-opacity:0.1451"/>
		<stop  offset="0.6899" style="stop-color:#6E6E6E;stop-opacity:0.1725"/>
		<stop  offset="0.7785" style="stop-color:#5D5D5D;stop-opacity:0.1946"/>
		<stop  offset="0.8543" style="stop-color:#474747;stop-opacity:0.2136"/>
		<stop  offset="0.9215" style="stop-color:#2B2B2B;stop-opacity:0.2304"/>
		<stop  offset="0.9808" style="stop-color:#0C0C0C;stop-opacity:0.2452"/>
		<stop  offset="1" style="stop-color:#000000;stop-opacity:0.25"/>
	</linearGradient>
	<polygon fill="url(#SVGID_2_)" points="24,7 20,11 24,15 38,15 38,7 	"/>
	<polygon opacity="0.15" fill="#FFFFFF" points="38,15 38,16 23.5,16 18.5,11 20,11 24,15 	"/>
	<rect x="6" y="11" fill="#EAEAEA" width="5" height="2"/>
	<rect x="6" y="26" fill="#EAEAEA" width="5" height="7"/>
	<path fill="#EAEAEA" d="M9,15H8H5v9h7v-9H9z M11,23H6v-7h2v3h1v-3h2V23z"/>
	<linearGradient id="SVGID_3_" gradientUnits="userSpaceOnUse" x1="8.5" y1="14.8132" x2="8.5" y2="13.2941">
		<stop  offset="0" style="stop-color:#828282;stop-opacity:0"/>
		<stop  offset="0.1699" style="stop-color:#7E7E7E;stop-opacity:0.0119"/>
		<stop  offset="0.346" style="stop-color:#717171;stop-opacity:0.0243"/>
		<stop  offset="0.5248" style="stop-color:#5D5D5D;stop-opacity:0.0368"/>
		<stop  offset="0.7057" style="stop-color:#404040;stop-opacity:0.0495"/>
		<stop  offset="0.8863" style="stop-color:#1B1B1B;stop-opacity:0.0622"/>
		<stop  offset="0.9972" style="stop-color:#000000;stop-opacity:0.07"/>
	</linearGradient>
	<rect x="6" y="13" fill="url(#SVGID_3_)" width="5" height="2"/>
	<linearGradient id="SVGID_4_" gradientUnits="userSpaceOnUse" x1="8.5" y1="25.8132" x2="8.5" y2="24.2941">
		<stop  offset="0" style="stop-color:#828282;stop-opacity:0"/>
		<stop  offset="0.1699" style="stop-color:#7E7E7E;stop-opacity:0.0119"/>
		<stop  offset="0.346" style="stop-color:#717171;stop-opacity:0.0243"/>
		<stop  offset="0.5248" style="stop-color:#5D5D5D;stop-opacity:0.0368"/>
		<stop  offset="0.7057" style="stop-color:#404040;stop-opacity:0.0495"/>
		<stop  offset="0.8863" style="stop-color:#1B1B1B;stop-opacity:0.0622"/>
		<stop  offset="0.9972" style="stop-color:#000000;stop-opacity:0.07"/>
	</linearGradient>
	<rect x="5" y="24" fill="url(#SVGID_4_)" width="7" height="2"/>
	<linearGradient id="SVGID_5_" gradientUnits="userSpaceOnUse" x1="7" y1="17.8132" x2="7" y2="16.2941">
		<stop  offset="0" style="stop-color:#828282;stop-opacity:0"/>
		<stop  offset="0.1699" style="stop-color:#7E7E7E;stop-opacity:0.0119"/>
		<stop  offset="0.346" style="stop-color:#717171;stop-opacity:0.0243"/>
		<stop  offset="0.5248" style="stop-color:#5D5D5D;stop-opacity:0.0368"/>
		<stop  offset="0.7057" style="stop-color:#404040;stop-opacity:0.0495"/>
		<stop  offset="0.8863" style="stop-color:#1B1B1B;stop-opacity:0.0622"/>
		<stop  offset="0.9972" style="stop-color:#000000;stop-opacity:0.07"/>
	</linearGradient>
	<rect x="6" y="16" fill="url(#SVGID_5_)" width="2" height="2"/>
	<linearGradient id="SVGID_6_" gradientUnits="userSpaceOnUse" x1="8.5" y1="20.8132" x2="8.5" y2="19.2941">
		<stop  offset="0" style="stop-color:#828282;stop-opacity:0"/>
		<stop  offset="0.1699" style="stop-color:#7E7E7E;stop-opacity:0.0119"/>
		<stop  offset="0.346" style="stop-color:#717171;stop-opacity:0.0243"/>
		<stop  offset="0.5248" style="stop-color:#5D5D5D;stop-opacity:0.0368"/>
		<stop  offset="0.7057" style="stop-color:#404040;stop-opacity:0.0495"/>
		<stop  offset="0.8863" style="stop-color:#1B1B1B;stop-opacity:0.0622"/>
		<stop  offset="0.9972" style="stop-color:#000000;stop-opacity:0.07"/>
	</linearGradient>
	<rect x="8" y="19" fill="url(#SVGID_6_)" width="1" height="2"/>
	<linearGradient id="SVGID_7_" gradientUnits="userSpaceOnUse" x1="10" y1="17.8132" x2="10" y2="16.2941">
		<stop  offset="0" style="stop-color:#828282;stop-opacity:0"/>
		<stop  offset="0.1699" style="stop-color:#7E7E7E;stop-opacity:0.0119"/>
		<stop  offset="0.346" style="stop-color:#717171;stop-opacity:0.0243"/>
		<stop  offset="0.5248" style="stop-color:#5D5D5D;stop-opacity:0.0368"/>
		<stop  offset="0.7057" style="stop-color:#404040;stop-opacity:0.0495"/>
		<stop  offset="0.8863" style="stop-color:#1B1B1B;stop-opacity:0.0622"/>
		<stop  offset="0.9972" style="stop-color:#000000;stop-opacity:0.07"/>
	</linearGradient>
	<rect x="9" y="16" fill="url(#SVGID_7_)" width="2" height="2"/>
	<linearGradient id="SVGID_8_" gradientUnits="userSpaceOnUse" x1="8.5" y1="12.8132" x2="8.5" y2="11.2941">
		<stop  offset="0" style="stop-color:#FFFFFF;stop-opacity:0"/>
		<stop  offset="1" style="stop-color:#FFFFFF;stop-opacity:0.35"/>
	</linearGradient>
	<rect x="6" y="11" fill="url(#SVGID_8_)" width="5" height="2"/>
	<linearGradient id="SVGID_9_" gradientUnits="userSpaceOnUse" x1="8.5" y1="15.9066" x2="8.5" y2="15.1471">
		<stop  offset="0" style="stop-color:#FFFFFF;stop-opacity:0"/>
		<stop  offset="1" style="stop-color:#FFFFFF;stop-opacity:0.35"/>
	</linearGradient>
	<rect x="5" y="15" fill="url(#SVGID_9_)" width="7" height="1"/>
	<linearGradient id="SVGID_10_" gradientUnits="userSpaceOnUse" x1="8.5" y1="23.9066" x2="8.5" y2="23.1471">
		<stop  offset="0" style="stop-color:#FFFFFF;stop-opacity:0"/>
		<stop  offset="1" style="stop-color:#FFFFFF;stop-opacity:0.35"/>
	</linearGradient>
	<rect x="6" y="23" fill="url(#SVGID_10_)" width="5" height="1"/>
	<linearGradient id="SVGID_11_" gradientUnits="userSpaceOnUse" x1="8.5" y1="27.8132" x2="8.5" y2="26.2941">
		<stop  offset="0" style="stop-color:#FFFFFF;stop-opacity:0"/>
		<stop  offset="1" style="stop-color:#FFFFFF;stop-opacity:0.35"/>
	</linearGradient>
	<rect x="6" y="26" fill="url(#SVGID_11_)" width="5" height="2"/>
</g>
</svg>
