<svg id="dad2cd7a-fe3e-4729-bacf-e11db635a9cf" data-name="ICONS" xmlns="http://www.w3.org/2000/svg" xmlns:xlink="http://www.w3.org/1999/xlink" viewBox="0 0 40 40"><defs><linearGradient id="b78c87fd-cfde-4591-94f3-ada61875981f" x1="8.1312" y1="5.85531" x2="33.83842" y2="36.49198" gradientUnits="userSpaceOnUse"><stop offset="0" stop-opacity="0"/><stop offset="0.86247" stop-opacity="0.12631"/><stop offset="1" stop-opacity="0.2"/></linearGradient><linearGradient id="675d10ef-a08a-4415-8e1c-d78e937fbe3a" x1="29.58931" y1="6.26416" x2="28.78837" y2="15.41893" gradientUnits="userSpaceOnUse"><stop offset="0" stop-color="#828282" stop-opacity="0"/><stop offset="0.85866" stop-color="#454545" stop-opacity="0.1171"/><stop offset="1" stop-opacity="0.25"/></linearGradient><linearGradient id="2fff989b-9a8a-4b7c-b9de-bce3921508c3" x1="8.5" y1="14.81324" x2="8.5" y2="13.29412" gradientUnits="userSpaceOnUse"><stop offset="0" stop-color="#828282" stop-opacity="0"/><stop offset="0.99719" stop-opacity="0.07"/></linearGradient><linearGradient id="ce233411-9d9f-488d-894b-e1b2ced59bd8" y1="25.81324" y2="24.29412" xlink:href="#2fff989b-9a8a-4b7c-b9de-bce3921508c3"/><linearGradient id="0359e9aa-c41f-43cf-b21a-2468b0c68693" x1="7" y1="17.81324" x2="7" y2="16.29412" xlink:href="#2fff989b-9a8a-4b7c-b9de-bce3921508c3"/><linearGradient id="74679f32-bdc5-497c-9605-90aafe7fe1a6" y1="20.81324" y2="19.29412" xlink:href="#2fff989b-9a8a-4b7c-b9de-bce3921508c3"/><linearGradient id="dd114de7-4976-4160-850f-16f497f34bbe" x1="10" y1="17.81324" x2="10" y2="16.29412" xlink:href="#2fff989b-9a8a-4b7c-b9de-bce3921508c3"/><linearGradient id="f395b41e-a987-4f3f-a121-ed4260314a8a" x1="8.5" y1="12.81324" x2="8.5" y2="11.29412" gradientUnits="userSpaceOnUse"><stop offset="0" stop-color="#fff" stop-opacity="0"/><stop offset="0.20669" stop-color="#fff" stop-opacity="0.01635"/><stop offset="0.4209" stop-color="#fff" stop-opacity="0.06512"/><stop offset="0.63854" stop-color="#fff" stop-opacity="0.14638"/><stop offset="0.85718" stop-color="#fff" stop-opacity="0.25942"/><stop offset="1" stop-color="#fff" stop-opacity="0.35"/></linearGradient><linearGradient id="0a60af21-4fc8-4664-a7b7-9d49f93b2b05" y1="15.90662" y2="15.14706" xlink:href="#f395b41e-a987-4f3f-a121-ed4260314a8a"/><linearGradient id="f8dedd98-f224-46c5-8a94-dffc1b1ff908" y1="23.90662" y2="23.14706" xlink:href="#f395b41e-a987-4f3f-a121-ed4260314a8a"/><linearGradient id="8fa6f60a-5776-4626-ad32-6ebe65f795c5" y1="27.81324" y2="26.29412" xlink:href="#f395b41e-a987-4f3f-a121-ed4260314a8a"/></defs><title>FileTypeIcons_Master_All_NEW</title><polygon points="2 33 2 11 20 11 24 7 38 7 38 33 2 33" fill="#a6a6a6"/><polygon points="24 7 20 11 24 15 38 15 38 7 24 7" fill="#828282"/><polygon points="2 33 2 11 20 11 24 7 38 7 38 33 2 33" fill="url(#b78c87fd-cfde-4591-94f3-ada61875981f)"/><polygon points="24 7 20 11 24 15 38 15 38 7 24 7" fill="url(#675d10ef-a08a-4415-8e1c-d78e937fbe3a)"/><polygon points="38 15 38 16 23.5 16 18.5 11 20 11 24 15 38 15" fill="#fff" opacity="0.15"/><rect x="6" y="11" width="5" height="2" fill="#eaeaea"/><rect x="6" y="26" width="5" height="7" fill="#eaeaea"/><path d="M9,15H5v9h7V15Zm2,8H6V16H8v3H9V16h2Z" fill="#eaeaea"/><rect x="6" y="13" width="5" height="2" fill="url(#2fff989b-9a8a-4b7c-b9de-bce3921508c3)"/><rect x="5" y="24" width="7" height="2" fill="url(#ce233411-9d9f-488d-894b-e1b2ced59bd8)"/><rect x="6" y="16" width="2" height="2" fill="url(#0359e9aa-c41f-43cf-b21a-2468b0c68693)"/><rect x="8" y="19" width="1" height="2" fill="url(#74679f32-bdc5-497c-9605-90aafe7fe1a6)"/><rect x="9" y="16" width="2" height="2" fill="url(#dd114de7-4976-4160-850f-16f497f34bbe)"/><rect x="6" y="11" width="5" height="2" fill="url(#f395b41e-a987-4f3f-a121-ed4260314a8a)"/><rect x="5" y="15" width="7" height="1" fill="url(#0a60af21-4fc8-4664-a7b7-9d49f93b2b05)"/><rect x="6" y="23" width="5" height="1" fill="url(#f8dedd98-f224-46c5-8a94-dffc1b1ff908)"/><rect x="6" y="26" width="5" height="2" fill="url(#8fa6f60a-5776-4626-ad32-6ebe65f795c5)"/></svg>