<svg id="b5b50388-0223-431c-8751-34754e2350ed" data-name="ICONS" xmlns="http://www.w3.org/2000/svg" xmlns:xlink="http://www.w3.org/1999/xlink" viewBox="0 0 40 40"><defs><linearGradient id="970dcd6f-b47e-4ff5-a9c6-c655d94d8ccd" x1="3.38265" y1="4.19622" x2="32.67812" y2="39.10919" gradientUnits="userSpaceOnUse"><stop offset="0" stop-color="#fff" stop-opacity="0"/><stop offset="0.86247" stop-color="#5e5e5e" stop-opacity="0.06315"/><stop offset="1" stop-opacity="0.1"/></linearGradient><linearGradient id="f9ca2269-8eb7-4b7e-abc7-d033c56f0e49" x1="29" y1="13.90625" x2="29" y2="11.08751" gradientUnits="userSpaceOnUse"><stop offset="0" stop-color="#828282" stop-opacity="0"/><stop offset="0.86247" stop-color="#303030" stop-opacity="0.06315"/><stop offset="1" stop-opacity="0.1"/></linearGradient><linearGradient id="5663591a-dbca-4711-899f-e3ffa50f7713" x1="23.79167" y1="9.70833" x2="28.72991" y2="4.77009" gradientUnits="userSpaceOnUse"><stop offset="0" stop-color="#fff" stop-opacity="0"/><stop offset="0.44604" stop-color="#fff" stop-opacity="0.00799"/><stop offset="0.63551" stop-color="#fff" stop-opacity="0.03616"/><stop offset="0.77636" stop-color="#fff" stop-opacity="0.08493"/><stop offset="0.8924" stop-color="#fff" stop-opacity="0.15385"/><stop offset="0.99328" stop-color="#fff" stop-opacity="0.24291"/><stop offset="1" stop-color="#fff" stop-opacity="0.25"/></linearGradient></defs><title>FileTypeIcons_Master_All_NEW</title><polygon points="7 3 26 3 33 10 33 37 7 37 7 3" fill="#fff"/><path d="M26,2H6V38H34V10Zm0,1.5L32.5,10H26ZM33,37H7V3H25v8h8Z" fill="#949494"/><path d="M28.39746,17.58716C26.86084,13.80615,21,12,21,11v-.5a.5.5,0,0,0-1,0V27.051a5.69081,5.69081,0,0,0-4.58447-.9336c-2.74268.49487-4.7041,2.40991-4.38037,4.27808.32226,1.86816,2.80664,2.98169,5.54931,2.48706,2.501-.45117,4.354-2.08423,4.41553-3.78491V16a6.28931,6.28931,0,0,1,4.9668,2.62817c3.47363,4.22925-.63819,7.56763-.63819,7.77173,0,0-.1665.42676.12744.55347a.52411.52411,0,0,0,.54737-.07178C30.14062,23.11328,28.97412,19.00732,28.39746,17.58716Z" fill="#69afe5"/><path d="M26,2H6V38H34V10Z" fill="url(#970dcd6f-b47e-4ff5-a9c6-c655d94d8ccd)"/><rect x="25" y="11" width="8" height="3" fill="url(#f9ca2269-8eb7-4b7e-abc7-d033c56f0e49)"/><polygon points="26 2 6 2 6 3 25 3 25 11 33 11 33 25 34 25 34 10 26 2" fill="url(#5663591a-dbca-4711-899f-e3ffa50f7713)"/></svg>