<svg id="2819f692-e88a-4523-8c9d-1df8d226bd0b" data-name="ICONS" xmlns="http://www.w3.org/2000/svg" viewBox="0 0 40 40"><title>FileTypeIcons_Master_All_NEW</title><path d="M16,7V30.5127A8.66272,8.66272,0,0,0,9.5,28C5.35791,28,2,30.23877,2,33s3.35791,5,7.5,5S17,35.76123,17,33V8L37,3.4V25.5127A8.66272,8.66272,0,0,0,30.5,23c-4.14209,0-7.5,2.23877-7.5,5s3.35791,5,7.5,5S38,30.76123,38,28V2ZM9.5,37C5.97656,37,3,35.16846,3,33s2.97656-4,6.5-4S16,30.83154,16,33,13.02344,37,9.5,37Zm21-5c-3.52344,0-6.5-1.83154-6.5-4s2.97656-4,6.5-4S37,25.83154,37,28,34.02344,32,30.5,32Z" fill="#949494"/></svg>