<?xml version="1.0" encoding="utf-8"?>
<!-- Generator: Adobe Illustrator 21.1.0, SVG Export Plug-In . SVG Version: 6.00 Build 0)  -->
<svg version="1.1" xmlns="http://www.w3.org/2000/svg" xmlns:xlink="http://www.w3.org/1999/xlink" x="0px" y="0px"
	 viewBox="0 0 40 40" enable-background="new 0 0 40 40" xml:space="preserve">
<g id="TEMPLATE" display="none">
	<g display="inline">
		<path fill="#D0D0D0" d="M40,0v40H0V0H40 M41-1h-1H0h-1v1v40v1h1h40h1v-1V0V-1L41-1z"/>
	</g>
	<g display="inline" opacity="0.1">
		<path fill="#FF3A6D" d="M38,2v36H2V2H38 M40,0H0v40h40V0L40,0z"/>
	</g>
</g>
<g id="ICONS">
	<polygon fill="#FFFFFF" points="7,3 26,3 33,10 33,37 7,37 	"/>
	<path fill="#949494" d="M26,2H6v36h28V10L26,2z M26,3.5l6.5,6.5H26V3.5z M33,37H7V3h18v8h8V37z"/>
	<path fill="#69AFE5" d="M28.3975,17.5872C26.8608,13.8062,21,12,21,11v-0.5c0-0.2761-0.2236-0.5-0.5-0.5S20,10.2239,20,10.5v16.551
		c-1.0322-0.8611-2.7412-1.2659-4.5845-0.9336c-2.7427,0.4949-4.7041,2.4099-4.3804,4.2781
		c0.3223,1.8682,2.8066,2.9817,5.5493,2.4871c2.501-0.4512,4.354-2.0842,4.4155-3.7849V16c1.3335,0,3.186,0.46,4.9668,2.6282
		c3.4736,4.2292-0.6382,7.5676-0.6382,7.7717c0,0-0.1665,0.4268,0.1274,0.5535c0.3184,0.1372,0.5474-0.0718,0.5474-0.0718
		C30.1406,23.1133,28.9741,19.0073,28.3975,17.5872z"/>
	<linearGradient id="SVGID_1_" gradientUnits="userSpaceOnUse" x1="3.3827" y1="4.1962" x2="32.6781" y2="39.1092">
		<stop  offset="0" style="stop-color:#FFFFFF;stop-opacity:0"/>
		<stop  offset="0.2264" style="stop-color:#FCFCFC;stop-opacity:0.0226"/>
		<stop  offset="0.3626" style="stop-color:#F4F4F4;stop-opacity:0.0363"/>
		<stop  offset="0.475" style="stop-color:#E6E6E6;stop-opacity:0.0475"/>
		<stop  offset="0.5744" style="stop-color:#D1D1D1;stop-opacity:0.0574"/>
		<stop  offset="0.6652" style="stop-color:#B7B7B7;stop-opacity:0.0665"/>
		<stop  offset="0.7498" style="stop-color:#979797;stop-opacity:0.075"/>
		<stop  offset="0.8297" style="stop-color:#707070;stop-opacity:0.083"/>
		<stop  offset="0.9057" style="stop-color:#444444;stop-opacity:0.0906"/>
		<stop  offset="0.9761" style="stop-color:#121212;stop-opacity:0.0976"/>
		<stop  offset="1" style="stop-color:#000000;stop-opacity:0.1"/>
	</linearGradient>
	<path fill="url(#SVGID_1_)" d="M26,2H6v36h28V10L26,2z"/>
	<linearGradient id="SVGID_2_" gradientUnits="userSpaceOnUse" x1="29" y1="13.9063" x2="29" y2="11.0875">
		<stop  offset="0" style="stop-color:#828282;stop-opacity:0"/>
		<stop  offset="0.2812" style="stop-color:#7F7F7F;stop-opacity:0.0281"/>
		<stop  offset="0.4503" style="stop-color:#777777;stop-opacity:0.045"/>
		<stop  offset="0.5899" style="stop-color:#696969;stop-opacity:0.059"/>
		<stop  offset="0.7133" style="stop-color:#545454;stop-opacity:0.0713"/>
		<stop  offset="0.8259" style="stop-color:#3A3A3A;stop-opacity:0.0826"/>
		<stop  offset="0.9294" style="stop-color:#1A1A1A;stop-opacity:0.0929"/>
		<stop  offset="1" style="stop-color:#000000;stop-opacity:0.1"/>
	</linearGradient>
	<rect x="25" y="11" fill="url(#SVGID_2_)" width="8" height="3"/>
	<linearGradient id="SVGID_3_" gradientUnits="userSpaceOnUse" x1="23.7917" y1="9.7083" x2="28.7299" y2="4.7701">
		<stop  offset="0" style="stop-color:#FFFFFF;stop-opacity:0"/>
		<stop  offset="0.8537" style="stop-color:#FFFFFF;stop-opacity:0.2134"/>
		<stop  offset="1" style="stop-color:#FFFFFF;stop-opacity:0.25"/>
	</linearGradient>
	<polygon fill="url(#SVGID_3_)" points="26,2 6,2 6,3 25,3 25,11 32.9999,10.9999 33,25 34,25 34,10 	"/>
</g>
</svg>
