<svg id="50fe47d8-be63-4b18-8816-e86173e927e7" data-name="ICONS" xmlns="http://www.w3.org/2000/svg" xmlns:xlink="http://www.w3.org/1999/xlink" viewBox="0 0 40 40"><defs><linearGradient id="29481d2c-6349-44c1-a970-c7e89ccb9e13" x1="3.38265" y1="4.19622" x2="32.67812" y2="39.10919" gradientUnits="userSpaceOnUse"><stop offset="0" stop-color="#fff" stop-opacity="0"/><stop offset="0.86247" stop-color="#5e5e5e" stop-opacity="0.06315"/><stop offset="1" stop-opacity="0.1"/></linearGradient><linearGradient id="cf072d22-389e-49ed-a1f6-6d486d09faf9" x1="29" y1="13.90625" x2="29" y2="11.08751" gradientUnits="userSpaceOnUse"><stop offset="0" stop-color="#828282" stop-opacity="0"/><stop offset="0.86247" stop-color="#303030" stop-opacity="0.06315"/><stop offset="1" stop-opacity="0.1"/></linearGradient><linearGradient id="28001469-3014-4465-9a13-d63292c146bf" x1="23.79167" y1="9.70833" x2="28.72991" y2="4.77009" gradientUnits="userSpaceOnUse"><stop offset="0" stop-color="#fff" stop-opacity="0"/><stop offset="0.44604" stop-color="#fff" stop-opacity="0.00799"/><stop offset="0.63551" stop-color="#fff" stop-opacity="0.03616"/><stop offset="0.77636" stop-color="#fff" stop-opacity="0.08493"/><stop offset="0.8924" stop-color="#fff" stop-opacity="0.15385"/><stop offset="0.99328" stop-color="#fff" stop-opacity="0.24291"/><stop offset="1" stop-color="#fff" stop-opacity="0.25"/></linearGradient></defs><title>FileTypeIcons_Master_All_NEW</title><polygon points="7 3 26 3 33 10 33 37 7 37 7 3" fill="#fff"/><path d="M26,2H6V38H34V10Zm0,1.5L32.5,10H26ZM33,37H7V3H25v8h8Z" fill="#949494"/><rect x="10" y="32" width="20" height="1" fill="#c8c8c8"/><rect x="10" y="29" width="20" height="1" fill="#c8c8c8"/><polygon points="27 24 26 24 29 20 26 16 27 16 30.143 20 27 24" fill="#949494"/><polygon points="13.143 24 14.143 24 11.143 20 14.143 16 13.143 16 10 20 13.143 24" fill="#949494"/><polygon points="17 26 24 14 23 14 16 26 17 26" fill="#949494"/><path d="M34,10,26,2H6V38H34Z" fill="url(#29481d2c-6349-44c1-a970-c7e89ccb9e13)"/><rect x="25" y="11" width="8" height="3" fill="url(#cf072d22-389e-49ed-a1f6-6d486d09faf9)"/><polygon points="26 2 6 2 6 3 25 3 25 11 33 11 33 25 34 25 34 10 26 2" fill="url(#28001469-3014-4465-9a13-d63292c146bf)"/></svg>