<svg id="02631247-fc2a-49a9-92c8-0288a74fae07" data-name="ICONS" xmlns="http://www.w3.org/2000/svg" xmlns:xlink="http://www.w3.org/1999/xlink" viewBox="0 0 40 40"><defs><linearGradient id="8f092b23-5899-4810-baa4-c4496cde92f8" x1="10.59322" y1="18.78943" x2="31.3764" y2="43.55786" gradientUnits="userSpaceOnUse"><stop offset="0" stop-opacity="0"/><stop offset="0.86247" stop-opacity="0.12631"/><stop offset="1" stop-opacity="0.2"/></linearGradient><linearGradient id="8d3bc22a-68ea-43f0-a1e8-c865193aec96" x1="4.5" y1="7" x2="4.5" y2="26" gradientUnits="userSpaceOnUse"><stop offset="0" stop-opacity="0"/><stop offset="0.85866" stop-opacity="0.07026"/><stop offset="1" stop-opacity="0.15"/></linearGradient><linearGradient id="597e81e6-7bcd-40ac-93f6-01b341779e53" x1="35.5" y1="2" x2="35.5" y2="22" xlink:href="#8d3bc22a-68ea-43f0-a1e8-c865193aec96"/><linearGradient id="3738aa48-e5d3-4375-938f-7ca91213ed12" x1="9.5" y1="2" x2="9.5" xlink:href="#8d3bc22a-68ea-43f0-a1e8-c865193aec96"/></defs><title>FileTypeIcons_Master_All_NEW</title><polygon points="9 2 9 7 4 7 4 26 5 26 5 8 9 8 9 26 10 26 10 3 35 3 35 22 36 22 36 2 9 2" fill="#c8c8c8"/><polygon points="2 38 2 26 20 26 24 22 38 22 38 38 2 38" fill="#a6a6a6"/><polygon points="2 38 2 26 20 26 24 22 38 22 38 38 2 38" fill="url(#8f092b23-5899-4810-baa4-c4496cde92f8)"/><polygon points="2 26 2 27 20.5 27 25.5 22 24 22 20 26 2 26" fill="#fff" opacity="0.15"/><rect x="4" y="7" width="1" height="19" fill="url(#8d3bc22a-68ea-43f0-a1e8-c865193aec96)"/><rect x="35" y="2" width="1" height="20" fill="url(#597e81e6-7bcd-40ac-93f6-01b341779e53)"/><rect x="9" y="2" width="1" height="24" fill="url(#3738aa48-e5d3-4375-938f-7ca91213ed12)"/></svg>