<?xml version="1.0" encoding="utf-8"?>
<!-- Generator: Adobe Illustrator 21.1.0, SVG Export Plug-In . SVG Version: 6.00 Build 0)  -->
<svg version="1.1" xmlns="http://www.w3.org/2000/svg" xmlns:xlink="http://www.w3.org/1999/xlink" x="0px" y="0px"
	 viewBox="0 0 40 40" enable-background="new 0 0 40 40" xml:space="preserve">
<g id="TEMPLATE" display="none">
	<g display="inline">
		<path fill="#D0D0D0" d="M40,0v40H0V0H40 M41-1h-1H0h-1v1v40v1h1h40h1v-1V0V-1L41-1z"/>
	</g>
	<g display="inline" opacity="0.1">
		<path fill="#FF3A6D" d="M38,2v36H2V2H38 M40,0H0v40h40V0L40,0z"/>
	</g>
</g>
<g id="ICONS">
	<polygon fill="#C8C8C8" points="9,2 9,7 4,7 4,26 5,26 5,8 9,8 9,26 10,26 10,3 35,3 35,22 36,22 36,2 	"/>
	<polygon fill="#A6A6A6" points="2,38 2,26 20,26 24,22 38,22 38,38 	"/>
	<linearGradient id="SVGID_1_" gradientUnits="userSpaceOnUse" x1="10.5932" y1="18.7894" x2="31.3764" y2="43.5579">
		<stop  offset="0" style="stop-color:#000000;stop-opacity:0"/>
		<stop  offset="0.8625" style="stop-color:#000000;stop-opacity:0.1725"/>
		<stop  offset="1" style="stop-color:#000000;stop-opacity:0.2"/>
	</linearGradient>
	<polygon fill="url(#SVGID_1_)" points="2,38 2,26 20,26 24,22 38,22 38,38 	"/>
	<polygon opacity="0.15" fill="#FFFFFF" points="2,26 2,27 20.5,27 25.5,22 24,22 20,26 	"/>
	<g>
		<linearGradient id="SVGID_2_" gradientUnits="userSpaceOnUse" x1="4.5" y1="7" x2="4.5" y2="26">
			<stop  offset="0" style="stop-color:#000000;stop-opacity:0"/>
			<stop  offset="0.8587" style="stop-color:#000000;stop-opacity:0.1288"/>
			<stop  offset="1" style="stop-color:#000000;stop-opacity:0.15"/>
		</linearGradient>
		<rect x="4" y="7" fill="url(#SVGID_2_)" width="1" height="19"/>
		<linearGradient id="SVGID_3_" gradientUnits="userSpaceOnUse" x1="35.5" y1="2" x2="35.5" y2="22">
			<stop  offset="0" style="stop-color:#000000;stop-opacity:0"/>
			<stop  offset="0.8587" style="stop-color:#000000;stop-opacity:0.1288"/>
			<stop  offset="1" style="stop-color:#000000;stop-opacity:0.15"/>
		</linearGradient>
		<rect x="35" y="2" fill="url(#SVGID_3_)" width="1" height="20"/>
		<linearGradient id="SVGID_4_" gradientUnits="userSpaceOnUse" x1="9.5" y1="2" x2="9.5" y2="26">
			<stop  offset="0" style="stop-color:#000000;stop-opacity:0"/>
			<stop  offset="0.8587" style="stop-color:#000000;stop-opacity:0.1288"/>
			<stop  offset="1" style="stop-color:#000000;stop-opacity:0.15"/>
		</linearGradient>
		<rect x="9" y="2" fill="url(#SVGID_4_)" width="1" height="24"/>
	</g>
</g>
</svg>
