<svg id="0dbb6ad5-83ee-4ede-95ac-b6c51f5239f0" data-name="ICONS" xmlns="http://www.w3.org/2000/svg" xmlns:xlink="http://www.w3.org/1999/xlink" viewBox="0 0 40 40"><defs><linearGradient id="aa1d0976-33de-4c31-878f-a977c711026c" x1="6.09939" y1="4.4339" x2="35.39486" y2="39.34688" gradientUnits="userSpaceOnUse"><stop offset="0" stop-color="#fff" stop-opacity="0"/><stop offset="0.86247" stop-color="#5e5e5e" stop-opacity="0.06315"/><stop offset="1" stop-opacity="0.1"/></linearGradient><linearGradient id="26ed2550-1b65-4fce-9d45-6187ea7798b8" x1="32" y1="13.90625" x2="32" y2="11.08751" gradientUnits="userSpaceOnUse"><stop offset="0" stop-color="#828282" stop-opacity="0"/><stop offset="0.86247" stop-color="#303030" stop-opacity="0.06315"/><stop offset="1" stop-opacity="0.1"/></linearGradient><linearGradient id="a25280ba-71c9-44f4-8079-7ba2cf076512" x1="26.79167" y1="9.70833" x2="31.72991" y2="4.77009" gradientUnits="userSpaceOnUse"><stop offset="0" stop-color="#fff" stop-opacity="0"/><stop offset="0.44604" stop-color="#fff" stop-opacity="0.00799"/><stop offset="0.63551" stop-color="#fff" stop-opacity="0.03616"/><stop offset="0.77636" stop-color="#fff" stop-opacity="0.08493"/><stop offset="0.8924" stop-color="#fff" stop-opacity="0.15385"/><stop offset="0.99328" stop-color="#fff" stop-opacity="0.24291"/><stop offset="1" stop-color="#fff" stop-opacity="0.25"/></linearGradient><linearGradient id="df37a5b8-4bee-4c12-8d32-24d66d8c08f5" x1="14.27844" y1="36.94138" x2="14.65697" y2="33.3769" gradientUnits="userSpaceOnUse"><stop offset="0" stop-color="#828282" stop-opacity="0"/><stop offset="0.99719" stop-opacity="0.2"/></linearGradient><linearGradient id="d341a5d7-64ac-48ad-8e36-62f793b0729b" x1="11.5" y1="32.79198" x2="11.5" y2="12.21733" gradientUnits="userSpaceOnUse"><stop offset="0" stop-color="#fff" stop-opacity="0"/><stop offset="0.52587" stop-color="#fff" stop-opacity="0.00735"/><stop offset="0.71529" stop-color="#fff" stop-opacity="0.03396"/><stop offset="0.8503" stop-color="#fff" stop-opacity="0.0803"/><stop offset="0.95875" stop-color="#fff" stop-opacity="0.14595"/><stop offset="1" stop-color="#fff" stop-opacity="0.18"/></linearGradient></defs><title>FileTypeIcons_Master_All_NEW</title><polygon points="10 3 29 3 36 10 36 37 10 37 10 3" fill="#fff"/><path d="M29,2H9V38H37V10Zm0,1.5L35.5,10H29ZM36,37H10V3H28v8h8Z" fill="#949494"/><rect x="20" y="32" width="13" height="1" fill="#c8c8c8"/><rect x="20" y="29" width="13" height="1" fill="#c8c8c8"/><rect x="20" y="26" width="13" height="1" fill="#c8c8c8"/><rect x="20" y="23" width="13" height="1" fill="#c8c8c8"/><rect x="20" y="20" width="13" height="1" fill="#c8c8c8"/><rect x="20" y="17" width="13" height="1" fill="#c8c8c8"/><rect x="20" y="14" width="13" height="1" fill="#c8c8c8"/><rect x="13" y="6" width="7" height="1" fill="#c8c8c8"/><polygon points="3 13 20 11 20 34 3 32 3 13" fill="#2b579a"/><path d="M17,19l-2.06182,8H12.9906l-1.29475-5.1325a4.38143,4.38143,0,0,1-.12513-.89818H11.549a5.58522,5.58522,0,0,1-.14144.89818L10.08012,27H8.05094L6,19H7.92038l1.09891,5.32775a6.5147,6.5147,0,0,1,.10336.91493h.03264a4.53158,4.53158,0,0,1,.15777-.93724L10.7275,19h1.88229l1.27844,5.37238a6.73285,6.73285,0,0,1,.12512.85914h.02176a5.89857,5.89857,0,0,1,.11425-.89261L15.22651,19Z" fill="#fff"/><path d="M29,2H9V12.29419L3,13V32l6,.70581V38H37V10Z" fill="url(#aa1d0976-33de-4c31-878f-a977c711026c)"/><rect x="28" y="11" width="8" height="3" fill="url(#26ed2550-1b65-4fce-9d45-6187ea7798b8)"/><polygon points="29 2 9 2 9 3 28 3 28 11 36 11 36 25 37 25 37 10 29 2" fill="url(#a25280ba-71c9-44f4-8079-7ba2cf076512)"/><polygon points="20 37 9 37 9 32.71 20 34 20 37" fill="url(#df37a5b8-4bee-4c12-8d32-24d66d8c08f5)"/><path d="M11.43848,20.73877c-.00879.0957-.02149.17407-.03223.26123H11.499c-.00879-.09119-.0332-.165-.03711-.26123Z" fill="#949494"/><polygon points="20 34 3 32 3 13 20 11 20 34" fill="url(#d341a5d7-64ac-48ad-8e36-62f793b0729b)"/></svg>