<svg id="71439db9-f8b0-4cfb-bf2a-aee58c0975d3" data-name="ICONS" xmlns="http://www.w3.org/2000/svg" xmlns:xlink="http://www.w3.org/1999/xlink" viewBox="0 0 40 40"><defs><linearGradient id="436300bd-f134-4ef9-b297-3687d84cde33" x1="23" y1="37.90625" x2="23" y2="35.08751" gradientUnits="userSpaceOnUse"><stop offset="0" stop-color="#828282" stop-opacity="0"/><stop offset="0.86247" stop-color="#303030" stop-opacity="0.06315"/><stop offset="1" stop-opacity="0.1"/></linearGradient><linearGradient id="845a4a27-03fe-4c46-8b80-db3c4fe16220" x1="22.9099" y1="6.21915" x2="23.13365" y2="1.94985" gradientUnits="userSpaceOnUse"><stop offset="0" stop-color="#fff" stop-opacity="0"/><stop offset="0.44604" stop-color="#fff" stop-opacity="0.00799"/><stop offset="0.63551" stop-color="#fff" stop-opacity="0.03616"/><stop offset="0.77636" stop-color="#fff" stop-opacity="0.08493"/><stop offset="0.8924" stop-color="#fff" stop-opacity="0.15385"/><stop offset="0.99328" stop-color="#fff" stop-opacity="0.24291"/><stop offset="1" stop-color="#fff" stop-opacity="0.25"/></linearGradient><linearGradient id="5376c096-53c7-486c-863c-be3430c8fb80" x1="19.12564" y1="15.62113" x2="36.75778" y2="38.18924" gradientUnits="userSpaceOnUse"><stop offset="0" stop-color="#fff" stop-opacity="0"/><stop offset="0.86247" stop-color="#5e5e5e" stop-opacity="0.06315"/><stop offset="1" stop-opacity="0.1"/></linearGradient><linearGradient id="a740ac59-44af-470e-81e0-5f4834a88494" x1="9.96994" y1="6.2422" x2="33.03006" y2="35.7578" xlink:href="#5376c096-53c7-486c-863c-be3430c8fb80"/><linearGradient id="d2580d93-7703-4cef-948a-823738705b88" x1="14.30706" y1="36.67182" x2="14.65748" y2="33.37204" gradientUnits="userSpaceOnUse"><stop offset="0" stop-color="#828282" stop-opacity="0"/><stop offset="0.99719" stop-opacity="0.2"/></linearGradient><linearGradient id="277cda82-0cb1-42aa-b212-9bd161615047" x1="11.5" y1="32.79198" x2="11.5" y2="12.21733" gradientUnits="userSpaceOnUse"><stop offset="0" stop-color="#fff" stop-opacity="0"/><stop offset="0.52587" stop-color="#fff" stop-opacity="0.00735"/><stop offset="0.71529" stop-color="#fff" stop-opacity="0.03396"/><stop offset="0.8503" stop-color="#fff" stop-opacity="0.0803"/><stop offset="0.95875" stop-color="#fff" stop-opacity="0.14595"/><stop offset="1" stop-color="#fff" stop-opacity="0.18"/></linearGradient></defs><title>FileTypeIcons_Master_All_NEW</title><polygon points="34 4 34 2 9 2 9 35 12 35 12 38 37 38 37 5 34 4" fill="#fff"/><polygon points="34 2 9 2 9 7 34 7 34 4 37 7 37 5 34 2" fill="#2b579a"/><polygon points="36 6 36 37 13 37 13 35 34 35 34 7 33 7 33 34 13 34 12 34 10 34 10 7 9 7 9 35 12 35 12 38 37 38 37 7 36 6" fill="#949494"/><rect x="13" y="9" width="5" height="1" fill="#c8c8c8"/><polygon points="3 13 20 11 20 34 3 32 3 13" fill="#2b579a"/><rect x="20" y="30" width="10" height="1" fill="#c8c8c8"/><rect x="20" y="27" width="10" height="1" fill="#c8c8c8"/><rect x="20" y="24" width="10" height="1" fill="#c8c8c8"/><rect x="20" y="21" width="10" height="1" fill="#c8c8c8"/><rect x="20" y="18" width="10" height="1" fill="#c8c8c8"/><rect x="20" y="15" width="10" height="1" fill="#c8c8c8"/><path d="M17,19l-2.06182,8H12.9906l-1.29475-5.1325a4.38143,4.38143,0,0,1-.12513-.89818H11.549a5.58522,5.58522,0,0,1-.14144.89818L10.08012,27H8.05094L6,19H7.92038l1.09891,5.32775a6.5147,6.5147,0,0,1,.10336.91493h.03264a4.53158,4.53158,0,0,1,.15777-.93724L10.7275,19h1.88229l1.27844,5.37238a6.73285,6.73285,0,0,1,.12512.85914h.02176a5.89857,5.89857,0,0,1,.11425-.89261L15.22651,19Z" fill="#fff"/><rect x="12" y="35" width="22" height="3" fill="url(#436300bd-f134-4ef9-b297-3687d84cde33)"/><polygon points="34 2 9 2 9 7 34 7 34 4 37 7 37 5 34 2" fill="url(#845a4a27-03fe-4c46-8b80-db3c4fe16220)"/><polygon points="34 4 34 35 13 35 12 35 12 38 37 38 37 7 34 4" fill="url(#5376c096-53c7-486c-863c-be3430c8fb80)"/><polygon points="9 7 9 35 12 35 13 35 34 35 34 10.394 34 9.545 34 7 9 7" fill="url(#a740ac59-44af-470e-81e0-5f4834a88494)"/><polygon points="20 37 12 37 12 35 9 35 9 32.71 20 34 20 37" fill="url(#d2580d93-7703-4cef-948a-823738705b88)"/><path d="M11.43848,20.73877c-.00879.0957-.02149.17407-.03223.26123H11.499c-.00879-.09119-.0332-.165-.03711-.26123Z" fill="#949494"/><polygon points="20 34 3 32 3 13 20 11 20 34" fill="url(#277cda82-0cb1-42aa-b212-9bd161615047)"/></svg>