<svg id="ab6302f6-190a-4911-a74c-b647eff1ac13" data-name="ICONS" xmlns="http://www.w3.org/2000/svg" xmlns:xlink="http://www.w3.org/1999/xlink" viewBox="0 0 40 40"><defs><linearGradient id="08d51c00-1894-4cc3-a528-2d409bc5d3e1" x1="6.16158" y1="3.50802" x2="33.83842" y2="36.49198" gradientUnits="userSpaceOnUse"><stop offset="0" stop-color="#fff" stop-opacity="0"/><stop offset="0.86247" stop-color="#5e5e5e" stop-opacity="0.06315"/><stop offset="1" stop-opacity="0.1"/></linearGradient><linearGradient id="cf7ab408-253c-4446-a942-83787e8e1abc" x1="19.027" y1="20.9253" x2="36.027" y2="4.75863" gradientUnits="userSpaceOnUse"><stop offset="0" stop-color="#fff" stop-opacity="0"/><stop offset="0.44604" stop-color="#fff" stop-opacity="0.00799"/><stop offset="0.63551" stop-color="#fff" stop-opacity="0.03616"/><stop offset="0.77636" stop-color="#fff" stop-opacity="0.08493"/><stop offset="0.8924" stop-color="#fff" stop-opacity="0.15385"/><stop offset="0.99328" stop-color="#fff" stop-opacity="0.24291"/><stop offset="1" stop-color="#fff" stop-opacity="0.25"/></linearGradient></defs><title>FileTypeIcons_Master_All_NEW</title><rect x="3" y="8" width="34" height="24" fill="#fff"/><rect x="3" y="8" width="34" height="24" fill="#fff"/><path d="M2,7V33H38V7ZM37,32H3V8H37Z" fill="#949494"/><rect x="5" y="10" width="6" height="1" fill="#c8c8c8"/><rect x="5" y="13" width="6" height="1" fill="#c8c8c8"/><rect x="11" y="23" width="18" height="1" transform="translate(40 47) rotate(180)" fill="#c8c8c8"/><rect x="11" y="20" width="18" height="1" transform="translate(40 41) rotate(180)" fill="#c8c8c8"/><rect x="11" y="26" width="18" height="1" transform="translate(40 53) rotate(180)" fill="#c8c8c8"/><path d="M34,11v4H30V11h4m1-1H29v6h6V10Z" fill="#69afe5"/><rect x="2" y="7" width="36" height="26" fill="url(#08d51c00-1894-4cc3-a528-2d409bc5d3e1)"/><polygon points="38 7 2 7 2 8 3 8 37 8 37 32 37 33 38 33 38 7" fill="url(#cf7ab408-253c-4446-a942-83787e8e1abc)"/></svg>