<svg id="4c108fd3-3990-47e4-bbc0-9d5fd7fe3202" data-name="ICONS" xmlns="http://www.w3.org/2000/svg" xmlns:xlink="http://www.w3.org/1999/xlink" viewBox="0 0 40 40"><defs><linearGradient id="8fce5645-0596-4b59-8475-8b12f9cb3875" x1="6.16158" y1="3.50802" x2="33.83842" y2="36.49198" gradientUnits="userSpaceOnUse"><stop offset="0" stop-color="#fff" stop-opacity="0"/><stop offset="0.86247" stop-color="#5e5e5e" stop-opacity="0.06315"/><stop offset="1" stop-opacity="0.1"/></linearGradient><linearGradient id="f397045e-2c69-4eb0-b708-d572f3b68faf" x1="18.15625" y1="21.75337" x2="36.03129" y2="4.75456" gradientUnits="userSpaceOnUse"><stop offset="0" stop-color="#fff" stop-opacity="0"/><stop offset="0.44604" stop-color="#fff" stop-opacity="0.00799"/><stop offset="0.63551" stop-color="#fff" stop-opacity="0.03616"/><stop offset="0.77636" stop-color="#fff" stop-opacity="0.08493"/><stop offset="0.8924" stop-color="#fff" stop-opacity="0.15385"/><stop offset="0.99328" stop-color="#fff" stop-opacity="0.24291"/><stop offset="1" stop-color="#fff" stop-opacity="0.25"/></linearGradient></defs><title>FileTypeIcons_Master_All_NEW</title><rect x="9" y="9" width="29" height="24" fill="#fff"/><rect x="13" y="12" width="11" height="17" fill="#69afe5"/><rect x="26" y="12" width="9" height="1" fill="#c8c8c8"/><rect x="26" y="15" width="9" height="1" fill="#c8c8c8"/><rect x="26" y="18" width="9" height="1" fill="#c8c8c8"/><rect x="26" y="21" width="9" height="1" fill="#c8c8c8"/><rect x="26" y="24" width="4" height="1" fill="#c8c8c8"/><path d="M2,7V33H38V7ZM37,32H3V10H37Z" fill="#949494"/><rect x="34" y="8" width="1" height="1" fill="#fff"/><rect x="32" y="8" width="1" height="1" fill="#fff"/><rect x="30" y="8" width="1" height="1" fill="#fff"/><rect x="3" y="10" width="8" height="22" fill="#eaeaea"/><rect x="5" y="12" width="4" height="1" fill="#c8c8c8"/><rect x="5" y="15" width="4" height="1" fill="#c8c8c8"/><rect x="5" y="18" width="4" height="1" fill="#c8c8c8"/><rect x="5" y="21" width="4" height="1" fill="#c8c8c8"/><rect x="2" y="7" width="36" height="26" fill="url(#8fce5645-0596-4b59-8475-8b12f9cb3875)"/><polygon points="38 7 2 7 2 10 37 10 37 32 37 33 38 33 38 7" fill="url(#f397045e-2c69-4eb0-b708-d572f3b68faf)"/></svg>