<svg id="d51b2bb1-6cc5-468a-8cfc-f7276f6cd958" data-name="ICONS" xmlns="http://www.w3.org/2000/svg" xmlns:xlink="http://www.w3.org/1999/xlink" viewBox="0 0 40 40"><defs><linearGradient id="a5ef77b2-29b1-4d5f-8c24-8883e0d504ed" x1="8.1312" y1="5.85531" x2="33.83842" y2="36.49198" gradientUnits="userSpaceOnUse"><stop offset="0" stop-opacity="0"/><stop offset="0.86247" stop-opacity="0.12631"/><stop offset="1" stop-opacity="0.2"/></linearGradient><linearGradient id="cbe03839-b930-401b-8e0d-a049ed8f94fe" x1="29.58931" y1="6.26416" x2="28.78837" y2="15.41893" gradientUnits="userSpaceOnUse"><stop offset="0" stop-color="#828282" stop-opacity="0"/><stop offset="0.85866" stop-color="#454545" stop-opacity="0.1171"/><stop offset="1" stop-opacity="0.25"/></linearGradient></defs><title>FileTypeIcons_Master_All_NEW</title><polygon points="2 33 2 11 20 11 24 7 38 7 38 33 2 33" fill="#a6a6a6"/><polygon points="24 7 20 11 24 15 38 15 38 7 24 7" fill="#828282"/><polygon points="2 33 2 11 20 11 24 7 38 7 38 33 2 33" fill="url(#a5ef77b2-29b1-4d5f-8c24-8883e0d504ed)"/><polygon points="24 7 20 11 24 15 38 15 38 7 24 7" fill="url(#cbe03839-b930-401b-8e0d-a049ed8f94fe)"/><polygon points="38 15 38 16 23.5 16 18.5 11 20 11 24 15 38 15" fill="#fff" opacity="0.15"/></svg>