<?xml version="1.0" encoding="utf-8"?>
<!-- Generator: Adobe Illustrator 21.1.0, SVG Export Plug-In . SVG Version: 6.00 Build 0)  -->
<svg version="1.1" xmlns="http://www.w3.org/2000/svg" xmlns:xlink="http://www.w3.org/1999/xlink" x="0px" y="0px"
	 viewBox="0 0 40 40" enable-background="new 0 0 40 40" xml:space="preserve">
<g id="TEMPLATE" display="none">
	<g display="inline">
		<path fill="#D0D0D0" d="M40,0v40H0V0H40 M41-1h-1H0h-1v1v40v1h1h40h1v-1V0V-1L41-1z"/>
	</g>
	<path display="inline" opacity="0.1" fill="#FF1D25" d="M0,0v40h40V0H0z M38,38H2V2h36V38z"/>
</g>
<g id="ICONS">
	<polygon fill="#A6A6A6" points="2,33 2,11 20,11 24,7 38,7 38,33 	"/>
	<polygon fill="#828282" points="24,7 20,11 24,15 38,15 38,7 	"/>
	<linearGradient id="SVGID_1_" gradientUnits="userSpaceOnUse" x1="8.1312" y1="5.8553" x2="33.8384" y2="36.492">
		<stop  offset="0" style="stop-color:#000000;stop-opacity:0"/>
		<stop  offset="0.8625" style="stop-color:#000000;stop-opacity:0.1725"/>
		<stop  offset="1" style="stop-color:#000000;stop-opacity:0.2"/>
	</linearGradient>
	<polygon fill="url(#SVGID_1_)" points="2,33 2,11 20,11 24,7 38,7 38,33 	"/>
	<linearGradient id="SVGID_2_" gradientUnits="userSpaceOnUse" x1="29.5893" y1="6.2642" x2="28.7884" y2="15.4189">
		<stop  offset="0" style="stop-color:#828282;stop-opacity:0"/>
		<stop  offset="0.4267" style="stop-color:#808080;stop-opacity:0.1067"/>
		<stop  offset="0.5804" style="stop-color:#797979;stop-opacity:0.1451"/>
		<stop  offset="0.6899" style="stop-color:#6E6E6E;stop-opacity:0.1725"/>
		<stop  offset="0.7785" style="stop-color:#5D5D5D;stop-opacity:0.1946"/>
		<stop  offset="0.8543" style="stop-color:#474747;stop-opacity:0.2136"/>
		<stop  offset="0.9215" style="stop-color:#2B2B2B;stop-opacity:0.2304"/>
		<stop  offset="0.9808" style="stop-color:#0C0C0C;stop-opacity:0.2452"/>
		<stop  offset="1" style="stop-color:#000000;stop-opacity:0.25"/>
	</linearGradient>
	<polygon fill="url(#SVGID_2_)" points="24,7 20,11 24,15 38,15 38,7 	"/>
	<polygon opacity="0.15" fill="#FFFFFF" points="38,15 38,16 23.5,16 18.5,11 20,11 24,15 	"/>
</g>
</svg>
