<svg id="3294cce9-706e-422f-82ac-ea405650b806" data-name="ICONS" xmlns="http://www.w3.org/2000/svg" xmlns:xlink="http://www.w3.org/1999/xlink" viewBox="0 0 40 40"><defs><linearGradient id="9f3f44da-8239-4c2f-b90e-13bb27bc1af5" x1="20.09541" y1="10.4003" x2="20.09541" y2="28.91875" gradientUnits="userSpaceOnUse"><stop offset="0" stop-color="#f7903b"/><stop offset="1" stop-color="#ff5c0d"/></linearGradient><linearGradient id="e54b500e-3b93-40db-bea0-9c46707aca9e" x1="3.38265" y1="4.19622" x2="32.67812" y2="39.10919" gradientUnits="userSpaceOnUse"><stop offset="0" stop-color="#fff" stop-opacity="0"/><stop offset="0.86247" stop-color="#5e5e5e" stop-opacity="0.06315"/><stop offset="1" stop-opacity="0.1"/></linearGradient><linearGradient id="46e30a4b-e811-4ccc-bd02-81fe273bbb6e" x1="29" y1="13.90625" x2="29" y2="11.08751" gradientUnits="userSpaceOnUse"><stop offset="0" stop-color="#828282" stop-opacity="0"/><stop offset="0.86247" stop-color="#303030" stop-opacity="0.06315"/><stop offset="1" stop-opacity="0.1"/></linearGradient><linearGradient id="93dd3ffd-5c60-4d47-a37b-e0e350db79a1" x1="23.79167" y1="9.70833" x2="28.72991" y2="4.77009" gradientUnits="userSpaceOnUse"><stop offset="0" stop-color="#fff" stop-opacity="0"/><stop offset="0.44604" stop-color="#fff" stop-opacity="0.00799"/><stop offset="0.63551" stop-color="#fff" stop-opacity="0.03616"/><stop offset="0.77636" stop-color="#fff" stop-opacity="0.08493"/><stop offset="0.8924" stop-color="#fff" stop-opacity="0.15385"/><stop offset="0.99328" stop-color="#fff" stop-opacity="0.24291"/><stop offset="1" stop-color="#fff" stop-opacity="0.25"/></linearGradient></defs><title>FileTypeIcons_Master_All_NEW</title><polygon points="7 3 26 3 33 10 33 37 7 37 7 3" fill="#fff"/><path d="M26,2H6V38H34V10Zm0,1.5L32.5,10H26ZM33,37H7V3H25v8h8Z" fill="#949494"/><path d="M22.77913,22.8572H15.76954l-1.22833,2.8572a4.52188,4.52188,0,0,0-.45395,1.57547.9148.9148,0,0,0,.39383.7277,3.439,3.439,0,0,0,1.70227.40718v.494h-5.701v-.494A3.07347,3.07347,0,0,0,11.951,27.904a8.17986,8.17986,0,0,0,1.50864-2.60353L19.82838,10.4003h.46723l6.30188,15.06043a6.86383,6.86383,0,0,0,1.382,2.35649,2.81521,2.81521,0,0,0,1.729.60753v.494H22.5655v-.494a2.67617,2.67617,0,0,0,1.462-.36049.92959.92959,0,0,0,.3804-.74768,5.53828,5.53828,0,0,0-.53406-1.85585Zm-.37384-.988-3.071-7.31659-3.15094,7.31659Z" fill="url(#9f3f44da-8239-4c2f-b90e-13bb27bc1af5)"/><path d="M34,10,26,2H6V38H34Z" fill="url(#e54b500e-3b93-40db-bea0-9c46707aca9e)"/><rect x="25" y="11" width="8" height="3" fill="url(#46e30a4b-e811-4ccc-bd02-81fe273bbb6e)"/><polygon points="26 2 6 2 6 3 25 3 25 11 33 11 33 25 34 25 34 10 26 2" fill="url(#93dd3ffd-5c60-4d47-a37b-e0e350db79a1)"/></svg>