<svg id="12e15707-cd3b-4d4c-bc6f-b2f847d427d1" data-name="ICONS" xmlns="http://www.w3.org/2000/svg" xmlns:xlink="http://www.w3.org/1999/xlink" viewBox="0 0 40 40"><defs><linearGradient id="03ba91ee-d908-4f8d-a444-b38d4c33c53a" x1="29.58931" y1="6.26416" x2="28.78837" y2="15.41893" gradientUnits="userSpaceOnUse"><stop offset="0" stop-color="#828282" stop-opacity="0"/><stop offset="0.85866" stop-color="#454545" stop-opacity="0.1171"/><stop offset="1" stop-opacity="0.25"/></linearGradient><linearGradient id="a836e486-98d3-4158-aad0-c3428bfab0a6" x1="6.16158" y1="7.50802" x2="31.8688" y2="38.14469" gradientUnits="userSpaceOnUse"><stop offset="0" stop-opacity="0"/><stop offset="0.86247" stop-opacity="0.12631"/><stop offset="1" stop-opacity="0.2"/></linearGradient></defs><title>FileTypeIcons_Master_All_NEW</title><polygon points="24 7 20 11 24 15 38 15 38 7 24 7" fill="#828282"/><polygon points="24 7 20 11 24 15 38 15 38 7 24 7" fill="url(#03ba91ee-d908-4f8d-a444-b38d4c33c53a)"/><rect x="4" y="9" width="32" height="24" fill="#fff"/><polygon points="2 33 2 11 20 11 24 15 38 15 38 33 2 33" fill="#a6a6a6"/><polygon points="38 15 38 16 23.5 16 18.5 11 20 11 24 15 38 15" fill="#fff" opacity="0.15"/><polygon points="2 33 2 11 20 11 24 15 38 15 38 33 2 33" fill="url(#a836e486-98d3-4158-aad0-c3428bfab0a6)"/></svg>