<svg id="d0bbf5f9-d415-47e4-ad09-78f6eec84556" data-name="ICONS" xmlns="http://www.w3.org/2000/svg" xmlns:xlink="http://www.w3.org/1999/xlink" viewBox="0 0 40 40"><defs><linearGradient id="8ab2e06c-01db-435e-9baf-d0e85468515a" x1="3.38265" y1="4.19622" x2="32.67812" y2="39.10919" gradientUnits="userSpaceOnUse"><stop offset="0" stop-color="#fff" stop-opacity="0"/><stop offset="0.86247" stop-color="#5e5e5e" stop-opacity="0.06315"/><stop offset="1" stop-opacity="0.1"/></linearGradient><linearGradient id="cd756fd3-50ef-4e28-b1c3-2c6fa79ad9fd" x1="29" y1="13.90625" x2="29" y2="11.08751" gradientUnits="userSpaceOnUse"><stop offset="0" stop-color="#828282" stop-opacity="0"/><stop offset="0.86247" stop-color="#303030" stop-opacity="0.06315"/><stop offset="1" stop-opacity="0.1"/></linearGradient><linearGradient id="fe567031-cf80-4d02-a453-0eea45f30bf6" x1="23.79167" y1="9.70833" x2="28.72991" y2="4.77009" gradientUnits="userSpaceOnUse"><stop offset="0" stop-color="#fff" stop-opacity="0"/><stop offset="0.44604" stop-color="#fff" stop-opacity="0.00799"/><stop offset="0.63551" stop-color="#fff" stop-opacity="0.03616"/><stop offset="0.77636" stop-color="#fff" stop-opacity="0.08493"/><stop offset="0.8924" stop-color="#fff" stop-opacity="0.15385"/><stop offset="0.99328" stop-color="#fff" stop-opacity="0.24291"/><stop offset="1" stop-color="#fff" stop-opacity="0.25"/></linearGradient></defs><title>FileTypeIcons_Master_All_NEW</title><polygon points="7 3 26 3 33 10 33 37 7 37 7 3" fill="#fff"/><path d="M26,2H6V38H34V10Zm0,1.5L32.5,10H26ZM33,37H7V3H25v8h8Z" fill="#949494"/><rect x="10" y="32" width="20" height="1" fill="#c8c8c8"/><rect x="10" y="29" width="20" height="1" fill="#c8c8c8"/><path d="M20,11a8,8,0,1,0,8,8A7.99985,7.99985,0,0,0,20,11Zm5.73633,4H23.46045a8.40237,8.40237,0,0,0-1.21826-2.625A7.02492,7.02492,0,0,1,25.73633,15ZM23,19a13.92282,13.92282,0,0,1-.31934,3H17.31934a14.25123,14.25123,0,0,1,0-6h5.36132A13.92282,13.92282,0,0,1,23,19Zm-3,7c-.88086,0-1.82666-1.15967-2.41553-3h4.83106C21.82666,24.84033,20.88086,26,20,26ZM17.58447,15c.58887-1.84033,1.53467-3,2.41553-3s1.82666,1.15967,2.41553,3Zm.17334-2.625A8.40237,8.40237,0,0,0,16.53955,15H14.26367A7.02492,7.02492,0,0,1,17.75781,12.375ZM13.68506,16h2.6084a15.481,15.481,0,0,0,0,6h-2.6084a6.9113,6.9113,0,0,1,0-6Zm.57861,7h2.27588a8.40237,8.40237,0,0,0,1.21826,2.625A7.02492,7.02492,0,0,1,14.26367,23Zm7.97852,2.625A8.40237,8.40237,0,0,0,23.46045,23h2.27588A7.02492,7.02492,0,0,1,22.24219,25.625ZM26.31494,22h-2.6084a15.481,15.481,0,0,0,0-6h2.6084a6.9113,6.9113,0,0,1,0,6Z" fill="#69afe5"/><path d="M34,10,26,2H6V38H34Z" fill="url(#8ab2e06c-01db-435e-9baf-d0e85468515a)"/><rect x="25" y="11" width="8" height="3" fill="url(#cd756fd3-50ef-4e28-b1c3-2c6fa79ad9fd)"/><polygon points="26 2 6 2 6 3 25 3 25 11 33 11 33 25 34 25 34 10 26 2" fill="url(#fe567031-cf80-4d02-a453-0eea45f30bf6)"/></svg>