<svg id="06272e98-3ccf-4655-a7cb-1d86cf457709" data-name="ICONS" xmlns="http://www.w3.org/2000/svg" xmlns:xlink="http://www.w3.org/1999/xlink" viewBox="0 0 40 40"><defs><linearGradient id="d55dfbbd-f839-4125-83eb-e3b826aedfc2" x1="6.16158" y1="3.50802" x2="33.83842" y2="36.49198" gradientUnits="userSpaceOnUse"><stop offset="0" stop-color="#fff" stop-opacity="0"/><stop offset="0.86247" stop-color="#5e5e5e" stop-opacity="0.06315"/><stop offset="1" stop-opacity="0.1"/></linearGradient><linearGradient id="fef6f74a-9d70-40bc-a5f2-15aa93c219eb" x1="18.15625" y1="21.75337" x2="36.03129" y2="4.75456" gradientUnits="userSpaceOnUse"><stop offset="0" stop-color="#fff" stop-opacity="0"/><stop offset="0.44604" stop-color="#fff" stop-opacity="0.00799"/><stop offset="0.63551" stop-color="#fff" stop-opacity="0.03616"/><stop offset="0.77636" stop-color="#fff" stop-opacity="0.08493"/><stop offset="0.8924" stop-color="#fff" stop-opacity="0.15385"/><stop offset="0.99328" stop-color="#fff" stop-opacity="0.24291"/><stop offset="1" stop-color="#fff" stop-opacity="0.25"/></linearGradient></defs><title>FileTypeIcons_Master_All_NEW</title><rect x="2" y="9" width="36" height="24" fill="#fff"/><path d="M2,7V33H38V7ZM37,32H3V10H37Z" fill="#949494"/><rect x="9" y="8" width="1" height="1" fill="#fff"/><rect x="7" y="8" width="1" height="1" fill="#fff"/><rect x="5" y="8" width="1" height="1" fill="#fff"/><path d="M20,13a8,8,0,1,0,8,8A7.99977,7.99977,0,0,0,20,13Zm5.73633,4H23.46045a8.3998,8.3998,0,0,0-1.21826-2.625A7.02566,7.02566,0,0,1,25.73633,17ZM23,21a13.92114,13.92114,0,0,1-.31934,3H17.31934a14.25123,14.25123,0,0,1,0-6h5.36132A13.92114,13.92114,0,0,1,23,21Zm-3,7c-.88086,0-1.82666-1.15967-2.41553-3h4.83106C21.82666,26.84033,20.88086,28,20,28ZM17.58447,17c.58887-1.84033,1.53467-3,2.41553-3s1.82666,1.15967,2.41553,3Zm.17334-2.625A8.3998,8.3998,0,0,0,16.53955,17H14.26367A7.02566,7.02566,0,0,1,17.75781,14.375ZM13.68506,18h2.6084a15.481,15.481,0,0,0,0,6h-2.6084a6.9113,6.9113,0,0,1,0-6Zm.57861,7h2.27588a8.3998,8.3998,0,0,0,1.21826,2.625A7.02566,7.02566,0,0,1,14.26367,25Zm7.97852,2.625A8.3998,8.3998,0,0,0,23.46045,25h2.27588A7.02566,7.02566,0,0,1,22.24219,27.625ZM26.31494,24h-2.6084a15.481,15.481,0,0,0,0-6h2.6084a6.9113,6.9113,0,0,1,0,6Z" fill="#a6a6a6"/><rect x="2" y="7" width="36" height="26" fill="url(#d55dfbbd-f839-4125-83eb-e3b826aedfc2)"/><polygon points="38 7 2 7 2 10 37 10 37 32 37 33 38 33 38 7" fill="url(#fef6f74a-9d70-40bc-a5f2-15aa93c219eb)"/></svg>