<svg id="0b9feaa9-c1ce-4eb1-bfb8-beb64a6e2f5e" data-name="ICONS" xmlns="http://www.w3.org/2000/svg" xmlns:xlink="http://www.w3.org/1999/xlink" viewBox="0 0 40 40"><defs><linearGradient id="e06ff940-c6ac-482c-ae81-516ae98c23a2" x1="3.38265" y1="4.19622" x2="32.67812" y2="39.10919" gradientUnits="userSpaceOnUse"><stop offset="0" stop-color="#fff" stop-opacity="0"/><stop offset="0.86247" stop-color="#5e5e5e" stop-opacity="0.06315"/><stop offset="1" stop-opacity="0.1"/></linearGradient><linearGradient id="a2aa67c2-9ee8-4524-a931-193b11045fd5" x1="29" y1="13.90625" x2="29" y2="11.08751" gradientUnits="userSpaceOnUse"><stop offset="0" stop-color="#828282" stop-opacity="0"/><stop offset="0.86247" stop-color="#303030" stop-opacity="0.06315"/><stop offset="1" stop-opacity="0.1"/></linearGradient><linearGradient id="76818154-b7f7-4960-baed-4900810c3c18" x1="23.79167" y1="9.70833" x2="28.72991" y2="4.77009" gradientUnits="userSpaceOnUse"><stop offset="0" stop-color="#fff" stop-opacity="0"/><stop offset="0.44604" stop-color="#fff" stop-opacity="0.00799"/><stop offset="0.63551" stop-color="#fff" stop-opacity="0.03616"/><stop offset="0.77636" stop-color="#fff" stop-opacity="0.08493"/><stop offset="0.8924" stop-color="#fff" stop-opacity="0.15385"/><stop offset="0.99328" stop-color="#fff" stop-opacity="0.24291"/><stop offset="1" stop-color="#fff" stop-opacity="0.25"/></linearGradient></defs><title>FileTypeIcons_Master_All_NEW</title><polygon points="7 3 26 3 33 10 33 37 7 37 7 3" fill="#fff"/><path d="M26,2H6V38H34V10Zm0,1.5L32.5,10H26ZM33,37H7V3H25v8h8Z" fill="#949494"/><rect x="13" y="32" width="17" height="1" fill="#c8c8c8"/><rect x="13" y="29" width="11" height="1" fill="#c8c8c8"/><rect x="13" y="26" width="11" height="1" fill="#c8c8c8"/><rect x="13" y="23" width="14" height="1" fill="#c8c8c8"/><rect x="13" y="20" width="14" height="1" fill="#c8c8c8"/><rect x="13" y="17" width="17" height="1" fill="#c8c8c8"/><rect x="13" y="14" width="17" height="1" fill="#c8c8c8"/><rect x="10" y="14" width="1" height="1" fill="#69afe5"/><rect x="10" y="17" width="1" height="1" fill="#69afe5"/><rect x="10" y="20" width="1" height="1" fill="#69afe5"/><rect x="10" y="23" width="1" height="1" fill="#69afe5"/><rect x="10" y="26" width="1" height="1" fill="#69afe5"/><rect x="10" y="29" width="1" height="1" fill="#69afe5"/><rect x="10" y="32" width="1" height="1" fill="#69afe5"/><path d="M34,10,26,2H6V38H34Z" fill="url(#e06ff940-c6ac-482c-ae81-516ae98c23a2)"/><rect x="25" y="11" width="8" height="3" fill="url(#a2aa67c2-9ee8-4524-a931-193b11045fd5)"/><polygon points="26 2 6 2 6 3 25 3 25 11 33 11 33 25 34 25 34 10 26 2" fill="url(#76818154-b7f7-4960-baed-4900810c3c18)"/></svg>