<svg id="595d9e93-13cd-416b-89c7-8fdae8bdc138" data-name="ICONS" xmlns="http://www.w3.org/2000/svg" xmlns:xlink="http://www.w3.org/1999/xlink" viewBox="0 0 40 40"><defs><linearGradient id="ef0e5961-64bf-4853-852d-b5016047a8c7" x1="3.38265" y1="4.19622" x2="32.67812" y2="39.10919" gradientUnits="userSpaceOnUse"><stop offset="0" stop-color="#fff" stop-opacity="0"/><stop offset="0.86247" stop-color="#5e5e5e" stop-opacity="0.06315"/><stop offset="1" stop-opacity="0.1"/></linearGradient><linearGradient id="9a7d818d-b09f-457b-8270-cf7a7014a06f" x1="29" y1="13.90625" x2="29" y2="11.08751" gradientUnits="userSpaceOnUse"><stop offset="0" stop-color="#828282" stop-opacity="0"/><stop offset="0.86247" stop-color="#303030" stop-opacity="0.06315"/><stop offset="1" stop-opacity="0.1"/></linearGradient><linearGradient id="161b8d32-e97d-4130-961e-4fc02d8d2e8f" x1="25.15278" y1="14.84722" x2="31.97226" y2="8.02774" gradientUnits="userSpaceOnUse"><stop offset="0" stop-color="#fff" stop-opacity="0"/><stop offset="0.44604" stop-color="#fff" stop-opacity="0.00799"/><stop offset="0.63551" stop-color="#fff" stop-opacity="0.03616"/><stop offset="0.77636" stop-color="#fff" stop-opacity="0.08493"/><stop offset="0.8924" stop-color="#fff" stop-opacity="0.15385"/><stop offset="0.99328" stop-color="#fff" stop-opacity="0.24291"/><stop offset="1" stop-color="#fff" stop-opacity="0.25"/></linearGradient></defs><title>FileTypeIcons_Master_All_NEW</title><polygon points="7 3 26 3 33 10 33 37 7 37 7 3" fill="#fff"/><path d="M26,2H6V38H34V10Zm0,1.5L32.5,10H26ZM33,37H7V3H25v8h8Z" fill="#949494"/><polygon points="20 17 20 22.333 12 19.667 20 17" fill="#c7e0f4"/><polygon points="20 17 20 22.333 28 19.667 20 17" fill="#69afe5"/><polygon points="20 22.333 28 19.667 28 30.333 20 33 20 22.333" fill="#0078d7"/><polygon points="20 22.333 20 33 12 30.333 12 19.667 20 22.333" fill="#deecf9"/><polygon points="20 33 12 30.333 20 27.667 20 33" fill="#69afe5"/><polygon points="20 33 20 27.667 28 30.333 20 33" fill="#005a9e"/><path d="M34,10,26,2H6V38H34Z" fill="url(#ef0e5961-64bf-4853-852d-b5016047a8c7)"/><rect x="25" y="11" width="8" height="3" fill="url(#9a7d818d-b09f-457b-8270-cf7a7014a06f)"/><polygon points="26 2 6 2 6 3 25 3 25 11 33 11 33 38 34 38 34 10 26 2" fill="url(#161b8d32-e97d-4130-961e-4fc02d8d2e8f)"/></svg>