<svg id="8b6bfbd5-6c13-4e4f-9783-2b1c2ad5ac64" data-name="ICONS" xmlns="http://www.w3.org/2000/svg" xmlns:xlink="http://www.w3.org/1999/xlink" viewBox="0 0 40 40"><defs><linearGradient id="853dacc6-c9be-4dfb-9df6-4fbf384b07d9" x1="6.09939" y1="4.4339" x2="35.39486" y2="39.34688" gradientUnits="userSpaceOnUse"><stop offset="0" stop-color="#fff" stop-opacity="0"/><stop offset="0.86247" stop-color="#5e5e5e" stop-opacity="0.06315"/><stop offset="1" stop-opacity="0.1"/></linearGradient><linearGradient id="bd1d1f19-6632-492b-8181-d75a42ea6fd2" x1="32" y1="13.90625" x2="32" y2="11.08751" gradientUnits="userSpaceOnUse"><stop offset="0" stop-color="#828282" stop-opacity="0"/><stop offset="0.86247" stop-color="#303030" stop-opacity="0.06315"/><stop offset="1" stop-opacity="0.1"/></linearGradient><linearGradient id="8f633513-0947-4d19-946d-a80c6724b57d" x1="14.27844" y1="36.94138" x2="14.65697" y2="33.3769" gradientUnits="userSpaceOnUse"><stop offset="0" stop-color="#828282" stop-opacity="0"/><stop offset="0.99719" stop-opacity="0.2"/></linearGradient><linearGradient id="80217bd2-3772-433d-840a-883dc5436dcf" x1="11.5" y1="32.79198" x2="11.5" y2="12.21733" gradientUnits="userSpaceOnUse"><stop offset="0" stop-color="#fff" stop-opacity="0"/><stop offset="0.52587" stop-color="#fff" stop-opacity="0.00735"/><stop offset="0.71529" stop-color="#fff" stop-opacity="0.03396"/><stop offset="0.8503" stop-color="#fff" stop-opacity="0.0803"/><stop offset="0.95875" stop-color="#fff" stop-opacity="0.14595"/><stop offset="1" stop-color="#fff" stop-opacity="0.18"/></linearGradient><linearGradient id="41e4560a-766c-4cd5-b2b5-17be7211a75a" x1="26.79167" y1="9.70833" x2="31.72991" y2="4.77009" gradientUnits="userSpaceOnUse"><stop offset="0" stop-color="#fff" stop-opacity="0"/><stop offset="0.44604" stop-color="#fff" stop-opacity="0.00799"/><stop offset="0.63551" stop-color="#fff" stop-opacity="0.03616"/><stop offset="0.77636" stop-color="#fff" stop-opacity="0.08493"/><stop offset="0.8924" stop-color="#fff" stop-opacity="0.15385"/><stop offset="0.99328" stop-color="#fff" stop-opacity="0.24291"/><stop offset="1" stop-color="#fff" stop-opacity="0.25"/></linearGradient></defs><title>FileTypeIcons_Master_All_NEW</title><polygon points="10 3 29 3 36 10 36 37 10 37 10 3" fill="#fff"/><path d="M29,2H9V38H37V10Zm0,1.5L35.5,10H29ZM36,37H10V3H28v8h8Z" fill="#949494"/><polygon points="3 13 20 11 20 34 3 32 3 13" fill="#31752f"/><path d="M32,14H20V34H33V14ZM21,33V15h5V33Zm11,0H27V15h5Z" fill="#c8c8c8"/><rect x="20" y="17" width="10" height="2" fill="#8bbf8a"/><rect x="20" y="21" width="10" height="2" fill="#8bbf8a"/><rect x="22" y="25" width="10" height="2" fill="#8bbf8a"/><rect x="20" y="29" width="10" height="2" fill="#8bbf8a"/><path d="M10.15744,23.89958V27H8V18h3.37977Q14.99989,18,15,20.8682a2.68365,2.68365,0,0,1-1.03865,2.19352,4.29054,4.29054,0,0,1-2.77528.83786Zm0-4.34309v2.80543h.84829q1.72327,0,1.72328-1.41841,0-1.38692-1.72328-1.387Z" fill="#fff"/><path d="M29,2H9V12.29419L3,13V32l6,.70581V38H37V10Z" fill="url(#853dacc6-c9be-4dfb-9df6-4fbf384b07d9)"/><rect x="28" y="11" width="8" height="3" fill="url(#bd1d1f19-6632-492b-8181-d75a42ea6fd2)"/><polygon points="20 37 9 37 9 32.71 20 34 20 37" fill="url(#8f633513-0947-4d19-946d-a80c6724b57d)"/><polygon points="20 34 3 32 3 13 20 11 20 34" fill="url(#80217bd2-3772-433d-840a-883dc5436dcf)"/><polygon points="29 2 9 2 9 3 28 3 28 11 36 11 36 25 37 25 37 10 29 2" fill="url(#41e4560a-766c-4cd5-b2b5-17be7211a75a)"/></svg>