<svg id="01f5073d-f57f-48b1-9b08-51b4744def35" data-name="ICONS" xmlns="http://www.w3.org/2000/svg" xmlns:xlink="http://www.w3.org/1999/xlink" viewBox="0 0 40 40"><defs><linearGradient id="bdcf1491-6b31-4080-a594-c98d384d7c9c" x1="23" y1="37.90625" x2="23" y2="35.08751" gradientUnits="userSpaceOnUse"><stop offset="0" stop-color="#828282" stop-opacity="0"/><stop offset="0.86247" stop-color="#303030" stop-opacity="0.06315"/><stop offset="1" stop-opacity="0.1"/></linearGradient><linearGradient id="1d37c35c-eb88-4cec-ac1d-5c6b18d5bfa9" x1="11.5" y1="32.79198" x2="11.5" y2="12.21733" gradientUnits="userSpaceOnUse"><stop offset="0" stop-color="#fff" stop-opacity="0"/><stop offset="0.52587" stop-color="#fff" stop-opacity="0.00735"/><stop offset="0.71529" stop-color="#fff" stop-opacity="0.03396"/><stop offset="0.8503" stop-color="#fff" stop-opacity="0.0803"/><stop offset="0.95875" stop-color="#fff" stop-opacity="0.14595"/><stop offset="1" stop-color="#fff" stop-opacity="0.18"/></linearGradient><linearGradient id="26393188-8386-44e0-a0cb-5567b285b62e" x1="22.9099" y1="6.21915" x2="23.13365" y2="1.94985" gradientUnits="userSpaceOnUse"><stop offset="0" stop-color="#fff" stop-opacity="0"/><stop offset="0.44604" stop-color="#fff" stop-opacity="0.00799"/><stop offset="0.63551" stop-color="#fff" stop-opacity="0.03616"/><stop offset="0.77636" stop-color="#fff" stop-opacity="0.08493"/><stop offset="0.8924" stop-color="#fff" stop-opacity="0.15385"/><stop offset="0.99328" stop-color="#fff" stop-opacity="0.24291"/><stop offset="1" stop-color="#fff" stop-opacity="0.25"/></linearGradient><linearGradient id="fd7073bf-c29b-4755-90f8-13ca191ddb8b" x1="19.12564" y1="15.62113" x2="36.75778" y2="38.18924" gradientUnits="userSpaceOnUse"><stop offset="0" stop-color="#fff" stop-opacity="0"/><stop offset="0.86247" stop-color="#5e5e5e" stop-opacity="0.06315"/><stop offset="1" stop-opacity="0.1"/></linearGradient><linearGradient id="cd0b9e79-3bb4-4f69-8b66-0fd05a2acacb" x1="9.96994" y1="6.2422" x2="33.03006" y2="35.7578" xlink:href="#fd7073bf-c29b-4755-90f8-13ca191ddb8b"/><linearGradient id="333e92e6-347c-4d45-ac74-88ac0d29c097" x1="14.30706" y1="36.67182" x2="14.65748" y2="33.37204" gradientUnits="userSpaceOnUse"><stop offset="0" stop-color="#828282" stop-opacity="0"/><stop offset="0.99719" stop-opacity="0.2"/></linearGradient></defs><title>FileTypeIcons_Master_All_NEW</title><polygon points="34 4 34 2 9 2 9 35 12 35 12 38 37 38 37 5 34 4" fill="#fff"/><polygon points="34 2 9 2 9 7 34 7 34 4 37 7 37 5 34 2" fill="#31752f"/><polygon points="36 6 36 37 13 37 13 35 34 35 34 7 33 7 33 34 13 34 12 34 10 34 10 7 9 7 9 35 12 35 12 38 37 38 37 7 36 6" fill="#949494"/><path d="M30,12H20V32H31V12ZM21,31V13h4V31Zm9,0H26V13h4Z" fill="#c8c8c8"/><rect x="20" y="19" width="8" height="2" fill="#8bbf8a"/><rect x="20" y="15" width="8" height="2" fill="#8bbf8a"/><rect x="22" y="23" width="8" height="2" fill="#8bbf8a"/><rect x="20" y="27" width="8" height="2" fill="#8bbf8a"/><polygon points="3 13 20 11 20 34 3 32 3 13" fill="#31752f"/><path d="M10.15744,23.89958V27H8V18h3.37977Q14.99989,18,15,20.8682a2.68365,2.68365,0,0,1-1.03865,2.19352,4.29054,4.29054,0,0,1-2.77528.83786Zm0-4.34309v2.80543h.84829q1.72327,0,1.72328-1.41841,0-1.38692-1.72328-1.387Z" fill="#fff"/><rect x="12" y="35" width="22" height="3" fill="url(#bdcf1491-6b31-4080-a594-c98d384d7c9c)"/><polygon points="20 34 3 32 3 13 20 11 20 34" fill="url(#1d37c35c-eb88-4cec-ac1d-5c6b18d5bfa9)"/><polygon points="34 2 9 2 9 7 34 7 34 4 37 7 37 5 34 2" fill="url(#26393188-8386-44e0-a0cb-5567b285b62e)"/><polygon points="34 4 34 35 13 35 12 35 12 38 37 38 37 7 34 4" fill="url(#fd7073bf-c29b-4755-90f8-13ca191ddb8b)"/><polygon points="9 7 9 35 12 35 13 35 34 35 34 10.394 34 9.545 34 7 9 7" fill="url(#cd0b9e79-3bb4-4f69-8b66-0fd05a2acacb)"/><polygon points="20 37 12 37 12 35 9 35 9 32.71 20 34 20 37" fill="url(#333e92e6-347c-4d45-ac74-88ac0d29c097)"/></svg>