<svg id="a5e6a57c-401e-424e-9221-142d9d583165" data-name="ICONS" xmlns="http://www.w3.org/2000/svg" xmlns:xlink="http://www.w3.org/1999/xlink" viewBox="0 0 40 40"><defs><linearGradient id="fe54c445-3da3-46eb-8252-737ba7fd3073" x1="-7383.9265" y1="10.52642" x2="-7409.41236" y2="43.14683" gradientTransform="matrix(-1, 0, 0, 1, -7385, 0)" gradientUnits="userSpaceOnUse"><stop offset="0" stop-color="#fff" stop-opacity="0"/><stop offset="0.86247" stop-color="#5e5e5e" stop-opacity="0.06315"/><stop offset="1" stop-opacity="0.1"/></linearGradient><linearGradient id="f4466e4b-af46-4e05-b653-9d645e51488d" x1="6.81648" y1="3.70595" x2="32.30234" y2="36.32636" gradientTransform="matrix(1, 0, 0, 1, 0, 0)" xlink:href="#fe54c445-3da3-46eb-8252-737ba7fd3073"/><linearGradient id="809b37fe-c178-4770-8536-aa698717e203" x1="20" y1="37.90625" x2="20" y2="35.08751" gradientUnits="userSpaceOnUse"><stop offset="0" stop-color="#828282" stop-opacity="0"/><stop offset="0.86247" stop-color="#303030" stop-opacity="0.06315"/><stop offset="1" stop-opacity="0.1"/></linearGradient><linearGradient id="3aa5d54f-6da3-4bff-9004-9b1f81dfec7f" x1="29" y1="13.90625" x2="29" y2="11.08751" xlink:href="#809b37fe-c178-4770-8536-aa698717e203"/></defs><title>FileTypeIcons_Master_All_NEW</title><polygon points="30 37 7 37 7 6 21.188 6 25 12 30 22.5 30 37" fill="#fff"/><polygon points="33 34 10 34 10 3 26 3 30 7 33 10 33 34" fill="#fff"/><path d="M26,2H9V5H6V38H31V35h3V10Zm0,1.5L32.5,10H26ZM30,37H7V6H9V35H30Zm3-3H10V3H25v8h8Z" fill="#949494"/><polygon points="9 5 9 35 30 35 31 35 31 38 6 38 6 5 9 5" fill="url(#fe54c445-3da3-46eb-8252-737ba7fd3073)"/><polygon points="26 2 25 2 9 2 9 35 34 35 34 11 34 10 26 2" fill="url(#f4466e4b-af46-4e05-b653-9d645e51488d)"/><rect x="9" y="35" width="22" height="3" fill="url(#809b37fe-c178-4770-8536-aa698717e203)"/><rect x="25" y="11" width="8" height="3" fill="url(#3aa5d54f-6da3-4bff-9004-9b1f81dfec7f)"/></svg>