<svg id="4581470f-8507-4f06-8907-feceab19409f" data-name="ICONS" xmlns="http://www.w3.org/2000/svg" xmlns:xlink="http://www.w3.org/1999/xlink" viewBox="0 0 40 40"><defs><linearGradient id="30d42d02-438a-4c36-9f1c-7167c7dbbc1d" x1="7.5766" y1="3.19437" x2="35.63254" y2="36.63014" gradientUnits="userSpaceOnUse"><stop offset="0" stop-color="#fff" stop-opacity="0"/><stop offset="0.86247" stop-color="#5e5e5e" stop-opacity="0.06315"/><stop offset="1" stop-opacity="0.1"/></linearGradient><linearGradient id="9dc4fef5-47d8-49c8-aebf-6be1725a6187" x1="14.27844" y1="36.94138" x2="14.65697" y2="33.3769" gradientUnits="userSpaceOnUse"><stop offset="0" stop-color="#828282" stop-opacity="0"/><stop offset="0.99719" stop-opacity="0.2"/></linearGradient><linearGradient id="aceff154-91d4-42e3-b454-6ef8abf4741a" x1="11.5" y1="32.79198" x2="11.5" y2="12.21733" gradientUnits="userSpaceOnUse"><stop offset="0" stop-color="#fff" stop-opacity="0"/><stop offset="0.52587" stop-color="#fff" stop-opacity="0.00735"/><stop offset="0.71529" stop-color="#fff" stop-opacity="0.03396"/><stop offset="0.8503" stop-color="#fff" stop-opacity="0.0803"/><stop offset="0.95875" stop-color="#fff" stop-opacity="0.14595"/><stop offset="1" stop-color="#fff" stop-opacity="0.18"/></linearGradient><linearGradient id="09ae556c-1a0c-499e-b400-e4382a9ad471" x1="29.34375" y1="12.15625" x2="38.17225" y2="3.32775" gradientUnits="userSpaceOnUse"><stop offset="0" stop-color="#fff" stop-opacity="0"/><stop offset="0.44604" stop-color="#fff" stop-opacity="0.00799"/><stop offset="0.63551" stop-color="#fff" stop-opacity="0.03616"/><stop offset="0.77636" stop-color="#fff" stop-opacity="0.08493"/><stop offset="0.8924" stop-color="#fff" stop-opacity="0.15385"/><stop offset="0.99328" stop-color="#fff" stop-opacity="0.24291"/><stop offset="1" stop-color="#fff" stop-opacity="0.25"/></linearGradient></defs><title>FileTypeIcons_Master_All_NEW</title><polygon points="10 3 33 3 33 5 36 5 36 11 33 11 33 37 10 37 10 3" fill="#fff"/><path d="M33,3V5h3v6l-2,.00012H33V37H10V3H33m1-1H9V38H34V12.00012L37,12V4H34V2Z" fill="#949494"/><polygon points="3 13 20 11 20 34 3 32 3 13" fill="#7719aa"/><rect x="20" y="32" width="10" height="1" fill="#c8c8c8"/><rect x="20" y="29" width="10" height="1" fill="#c8c8c8"/><rect x="20" y="26" width="10" height="1" fill="#c8c8c8"/><rect x="20" y="23" width="10" height="1" fill="#c8c8c8"/><rect x="20" y="20" width="10" height="1" fill="#c8c8c8"/><rect x="20" y="17" width="10" height="1" fill="#c8c8c8"/><rect x="20" y="14" width="10" height="1" fill="#c8c8c8"/><rect x="13" y="6" width="7" height="1" fill="#c8c8c8"/><path d="M16,27H13.72558L9.60233,21.34519A7.992,7.992,0,0,1,9.1,20.59833H9.07209a13.77016,13.77016,0,0,1,.05582,1.45606V27H7V18H9.42791l3.96976,5.47908q.2721.37052.50233.73431h.02791a8.63752,8.63752,0,0,1-.05582-1.2364V18H16Z" fill="#fff"/><path d="M34,2H9V12.29419L3,13V32l6,.70581V38H34V11.99961L37,12V4H34Z" fill="url(#30d42d02-438a-4c36-9f1c-7167c7dbbc1d)"/><polygon points="20 37 9 37 9 32.71 20 34 20 37" fill="url(#9dc4fef5-47d8-49c8-aebf-6be1725a6187)"/><polygon points="20 34 3 32 3 13 20 11 20 34" fill="url(#aceff154-91d4-42e3-b454-6ef8abf4741a)"/><path d="M33,3V5h3v6l-2,.00012H33V37H10V3H33m1-1H9V38H34V12.00012L37,12V4H34V2Z" fill="url(#09ae556c-1a0c-499e-b400-e4382a9ad471)"/></svg>