<svg id="7385c38e-a859-45ea-ba39-299d597f43fc" data-name="ICONS" xmlns="http://www.w3.org/2000/svg" xmlns:xlink="http://www.w3.org/1999/xlink" viewBox="0 0 40 40"><defs><linearGradient id="9b3d2c51-ae9d-4409-8cb1-9a5e08db0343" x1="7.5766" y1="3.19437" x2="35.63254" y2="36.63014" gradientUnits="userSpaceOnUse"><stop offset="0" stop-color="#fff" stop-opacity="0"/><stop offset="0.86247" stop-color="#5e5e5e" stop-opacity="0.06315"/><stop offset="1" stop-opacity="0.1"/></linearGradient><linearGradient id="cc5e4729-1236-4e22-bf91-470ca69854fc" x1="14.27844" y1="36.94138" x2="14.65697" y2="33.3769" gradientUnits="userSpaceOnUse"><stop offset="0" stop-color="#828282" stop-opacity="0"/><stop offset="0.99719" stop-opacity="0.2"/></linearGradient><linearGradient id="129ba0b4-44b1-41fa-9bb6-c03b5eea43a1" x1="11.5" y1="32.79198" x2="11.5" y2="12.21733" gradientUnits="userSpaceOnUse"><stop offset="0" stop-color="#fff" stop-opacity="0"/><stop offset="0.52587" stop-color="#fff" stop-opacity="0.00735"/><stop offset="0.71529" stop-color="#fff" stop-opacity="0.03396"/><stop offset="0.8503" stop-color="#fff" stop-opacity="0.0803"/><stop offset="0.95875" stop-color="#fff" stop-opacity="0.14595"/><stop offset="1" stop-color="#fff" stop-opacity="0.18"/></linearGradient><linearGradient id="38514648-675e-47f9-8e10-b861be047951" x1="36.90628" y1="16" x2="33.99219" y2="16" gradientUnits="userSpaceOnUse"><stop offset="0" stop-color="#a6a6a6" stop-opacity="0"/><stop offset="1" stop-opacity="0.1"/></linearGradient><linearGradient id="0b6bac4d-4d64-40b8-ba01-35d1a66babe6" x1="36.90628" y1="23" x2="33.99219" y2="23" xlink:href="#38514648-675e-47f9-8e10-b861be047951"/><linearGradient id="4830e0f6-a594-416d-ad31-a2ab7303fe61" x1="36.90628" y1="30" x2="33.99219" y2="30" xlink:href="#38514648-675e-47f9-8e10-b861be047951"/><linearGradient id="5020b918-cae5-4cdf-be8e-43d7f82a791b" x1="29.34375" y1="12.15625" x2="38.17225" y2="3.32775" gradientUnits="userSpaceOnUse"><stop offset="0" stop-color="#fff" stop-opacity="0"/><stop offset="0.44604" stop-color="#fff" stop-opacity="0.00799"/><stop offset="0.63551" stop-color="#fff" stop-opacity="0.03616"/><stop offset="0.77636" stop-color="#fff" stop-opacity="0.08493"/><stop offset="0.8924" stop-color="#fff" stop-opacity="0.15385"/><stop offset="0.99328" stop-color="#fff" stop-opacity="0.24291"/><stop offset="1" stop-color="#fff" stop-opacity="0.25"/></linearGradient></defs><title>FileTypeIcons_Master_All_NEW</title><rect x="6" y="12" width="4" height="1" rx="0.5" ry="0.5" fill="#949494"/><rect x="7" y="12" width="3" height="1" rx="0.5" ry="0.5" fill="#949494"/><polygon points="10 3 33 3 33 5 36 5 36 11 33 11 33 37 10 37 10 3" fill="#fff"/><path d="M33,3V5h3v6l-2,.00012H33V37H10V3H33m1-1H9V38H34V12.00012L37,12V4H34V2Z" fill="#949494"/><rect x="20" y="15" width="8" height="1" fill="#c8c8c8"/><rect x="20" y="18" width="8" height="1" fill="#c8c8c8"/><rect x="20" y="12" width="8" height="1" fill="#c8c8c8"/><polygon points="3 13 20 11 20 34 3 32 3 13" fill="#7719aa"/><path d="M16,27H13.72558L9.60233,21.34519A7.992,7.992,0,0,1,9.1,20.59833H9.07209a13.77016,13.77016,0,0,1,.05582,1.45606V27H7V18H9.42791l3.96976,5.47908q.2721.37052.50233.73431h.02791a8.63752,8.63752,0,0,1-.05582-1.2364V18H16Z" fill="#fff"/><rect x="33.99974" y="13" width="2.99992" height="6" fill="#949494"/><rect x="33.99974" y="20" width="2.99992" height="6" fill="#949494"/><rect x="33.99974" y="27" width="2.99992" height="6" fill="#949494"/><rect x="6" y="9" width="4" height="1" rx="0.5" ry="0.5" fill="#949494"/><rect x="6" y="6" width="4" height="1" rx="0.5" ry="0.5" fill="#949494"/><rect x="6" y="3" width="4" height="1" rx="0.5" ry="0.5" fill="#949494"/><rect x="6" y="36" width="4" height="1" rx="0.5" ry="0.5" fill="#949494"/><rect x="6" y="33" width="4" height="1" rx="0.5" ry="0.5" fill="#949494"/><path d="M34,2H9V12.29419L3,13V32l6,.70581V38H34V11.99961L37,12V4H34Z" fill="url(#9b3d2c51-ae9d-4409-8cb1-9a5e08db0343)"/><polygon points="20 37 9 37 9 32.71 20 34 20 37" fill="url(#cc5e4729-1236-4e22-bf91-470ca69854fc)"/><polygon points="20 34 3 32 3 13 20 11 20 34" fill="url(#129ba0b4-44b1-41fa-9bb6-c03b5eea43a1)"/><rect x="34" y="13" width="2.99992" height="6" fill="url(#38514648-675e-47f9-8e10-b861be047951)"/><rect x="34" y="20" width="2.99992" height="6" fill="url(#0b6bac4d-4d64-40b8-ba01-35d1a66babe6)"/><rect x="34" y="27" width="2.99992" height="6" fill="url(#4830e0f6-a594-416d-ad31-a2ab7303fe61)"/><path d="M33,3V5h3v6l-2,.00012H33V37H10V3H33m1-1H9V38H34V12.00012L37,12V4H34V2Z" fill="url(#5020b918-cae5-4cdf-be8e-43d7f82a791b)"/></svg>