<?xml version="1.0" encoding="utf-8"?>
<!-- Generator: Adobe Illustrator 21.1.0, SVG Export Plug-In . SVG Version: 6.00 Build 0)  -->
<svg version="1.1" xmlns="http://www.w3.org/2000/svg" xmlns:xlink="http://www.w3.org/1999/xlink" x="0px" y="0px"
	 viewBox="0 0 40 40" enable-background="new 0 0 40 40" xml:space="preserve">
<g id="TEMPLATE" display="none">
	<g display="inline">
		<path fill="#D0D0D0" d="M40,0v40H0V0H40 M41-1h-1H0h-1v1v40v1h1h40h1v-1V0V-1L41-1z"/>
	</g>
	<g display="inline" opacity="0.1">
		<path fill="#FF3A6D" d="M38,2v36H2V2H38 M40,0H0v40h40V0L40,0z"/>
	</g>
</g>
<g id="ICONS">
	<g>
		<polygon fill="#FFFFFF" points="7,3 26,3 33,10 33,37 7,37 		"/>
		<path fill="#949494" d="M26,2H6v36h28V10L26,2z M26,3.5l6.5,6.5H26V3.5z M33,37H7V3h18v8h8V37z"/>
	</g>
	<rect x="10" y="20" fill="#C8C8C8" width="20" height="1"/>
	<rect x="10" y="17" fill="#C8C8C8" width="20" height="1"/>
	<rect x="10" y="14" fill="#C8C8C8" width="20" height="1"/>
	<rect x="10" y="6" fill="#C8C8C8" width="7" height="1"/>
	<path fill="#D65532" d="M25,26v7H15v-7H25 M27,24H13v11h14V24L27,24z"/>
	<rect x="5" y="26" fill="#D65532" width="6" height="7"/>
	<rect x="29" y="26" fill="#D65532" width="6" height="7"/>
	<linearGradient id="SVGID_1_" gradientUnits="userSpaceOnUse" x1="3.3827" y1="4.1962" x2="32.6781" y2="39.1092">
		<stop  offset="0" style="stop-color:#FFFFFF;stop-opacity:0"/>
		<stop  offset="0.2264" style="stop-color:#FCFCFC;stop-opacity:0.0226"/>
		<stop  offset="0.3626" style="stop-color:#F4F4F4;stop-opacity:0.0363"/>
		<stop  offset="0.475" style="stop-color:#E6E6E6;stop-opacity:0.0475"/>
		<stop  offset="0.5744" style="stop-color:#D1D1D1;stop-opacity:0.0574"/>
		<stop  offset="0.6652" style="stop-color:#B7B7B7;stop-opacity:0.0665"/>
		<stop  offset="0.7498" style="stop-color:#979797;stop-opacity:0.075"/>
		<stop  offset="0.8297" style="stop-color:#707070;stop-opacity:0.083"/>
		<stop  offset="0.9057" style="stop-color:#444444;stop-opacity:0.0906"/>
		<stop  offset="0.9761" style="stop-color:#121212;stop-opacity:0.0976"/>
		<stop  offset="1" style="stop-color:#000000;stop-opacity:0.1"/>
	</linearGradient>
	<path fill="url(#SVGID_1_)" d="M35,26h-1V10l-8-8H6v24H5v7h1v5h28v-5h1V26z"/>
	<linearGradient id="SVGID_2_" gradientUnits="userSpaceOnUse" x1="29" y1="13.9063" x2="29" y2="11.0875">
		<stop  offset="0" style="stop-color:#828282;stop-opacity:0"/>
		<stop  offset="0.2812" style="stop-color:#7F7F7F;stop-opacity:0.0281"/>
		<stop  offset="0.4503" style="stop-color:#777777;stop-opacity:0.045"/>
		<stop  offset="0.5899" style="stop-color:#696969;stop-opacity:0.059"/>
		<stop  offset="0.7133" style="stop-color:#545454;stop-opacity:0.0713"/>
		<stop  offset="0.8259" style="stop-color:#3A3A3A;stop-opacity:0.0826"/>
		<stop  offset="0.9294" style="stop-color:#1A1A1A;stop-opacity:0.0929"/>
		<stop  offset="1" style="stop-color:#000000;stop-opacity:0.1"/>
	</linearGradient>
	<rect x="25" y="11" fill="url(#SVGID_2_)" width="8" height="3"/>
	<linearGradient id="SVGID_3_" gradientUnits="userSpaceOnUse" x1="23.7917" y1="9.7083" x2="28.7299" y2="4.7701">
		<stop  offset="0" style="stop-color:#FFFFFF;stop-opacity:0"/>
		<stop  offset="0.8537" style="stop-color:#FFFFFF;stop-opacity:0.2134"/>
		<stop  offset="1" style="stop-color:#FFFFFF;stop-opacity:0.25"/>
	</linearGradient>
	<polygon fill="url(#SVGID_3_)" points="26,2 6,2 6,3 25,3 25,11 32.9999,10.9999 33,25 34,25 34,10 	"/>
	<linearGradient id="SVGID_4_" gradientUnits="userSpaceOnUse" x1="8.5" y1="35.7199" x2="8.5" y2="33.4412">
		<stop  offset="0" style="stop-color:#828282;stop-opacity:0"/>
		<stop  offset="0.1699" style="stop-color:#7E7E7E;stop-opacity:0.017"/>
		<stop  offset="0.346" style="stop-color:#717171;stop-opacity:0.0347"/>
		<stop  offset="0.5248" style="stop-color:#5D5D5D;stop-opacity:0.0526"/>
		<stop  offset="0.7057" style="stop-color:#404040;stop-opacity:0.0708"/>
		<stop  offset="0.8863" style="stop-color:#1B1B1B;stop-opacity:0.0889"/>
		<stop  offset="0.9972" style="stop-color:#000000;stop-opacity:0.1"/>
	</linearGradient>
	<rect x="6" y="33" fill="url(#SVGID_4_)" width="5" height="3"/>
	<linearGradient id="SVGID_5_" gradientUnits="userSpaceOnUse" x1="31.5" y1="35.7199" x2="31.5" y2="33.4412">
		<stop  offset="0" style="stop-color:#828282;stop-opacity:0"/>
		<stop  offset="0.1699" style="stop-color:#7E7E7E;stop-opacity:0.017"/>
		<stop  offset="0.346" style="stop-color:#717171;stop-opacity:0.0347"/>
		<stop  offset="0.5248" style="stop-color:#5D5D5D;stop-opacity:0.0526"/>
		<stop  offset="0.7057" style="stop-color:#404040;stop-opacity:0.0708"/>
		<stop  offset="0.8863" style="stop-color:#1B1B1B;stop-opacity:0.0889"/>
		<stop  offset="0.9972" style="stop-color:#000000;stop-opacity:0.1"/>
	</linearGradient>
	<rect x="29" y="33" fill="url(#SVGID_5_)" width="5" height="3"/>
	<linearGradient id="SVGID_6_" gradientUnits="userSpaceOnUse" x1="20" y1="28.7199" x2="20" y2="26.4412">
		<stop  offset="0" style="stop-color:#828282;stop-opacity:0"/>
		<stop  offset="0.1699" style="stop-color:#7E7E7E;stop-opacity:0.017"/>
		<stop  offset="0.346" style="stop-color:#717171;stop-opacity:0.0347"/>
		<stop  offset="0.5248" style="stop-color:#5D5D5D;stop-opacity:0.0526"/>
		<stop  offset="0.7057" style="stop-color:#404040;stop-opacity:0.0708"/>
		<stop  offset="0.8863" style="stop-color:#1B1B1B;stop-opacity:0.0889"/>
		<stop  offset="0.9972" style="stop-color:#000000;stop-opacity:0.1"/>
	</linearGradient>
	<rect x="15" y="26" fill="url(#SVGID_6_)" width="10" height="3"/>
	<linearGradient id="SVGID_7_" gradientUnits="userSpaceOnUse" x1="20.0208" y1="36.8132" x2="20.0208" y2="35.2941">
		<stop  offset="0" style="stop-color:#828282;stop-opacity:0"/>
		<stop  offset="0.1699" style="stop-color:#7E7E7E;stop-opacity:0.017"/>
		<stop  offset="0.346" style="stop-color:#717171;stop-opacity:0.0347"/>
		<stop  offset="0.5248" style="stop-color:#5D5D5D;stop-opacity:0.0526"/>
		<stop  offset="0.7057" style="stop-color:#404040;stop-opacity:0.0708"/>
		<stop  offset="0.8863" style="stop-color:#1B1B1B;stop-opacity:0.0889"/>
		<stop  offset="0.9972" style="stop-color:#000000;stop-opacity:0.1"/>
	</linearGradient>
	<rect x="13" y="35" fill="url(#SVGID_7_)" width="14.0417" height="2"/>
	<linearGradient id="SVGID_8_" gradientUnits="userSpaceOnUse" x1="8" y1="29.6265" x2="8" y2="26.5882">
		<stop  offset="0" style="stop-color:#FFFFFF;stop-opacity:0"/>
		<stop  offset="1" style="stop-color:#FFFFFF;stop-opacity:0.15"/>
	</linearGradient>
	<rect x="5" y="26" fill="url(#SVGID_8_)" width="6" height="4"/>
	<linearGradient id="SVGID_9_" gradientUnits="userSpaceOnUse" x1="20" y1="29.4397" x2="20" y2="24.8824">
		<stop  offset="0" style="stop-color:#FFFFFF;stop-opacity:0"/>
		<stop  offset="1" style="stop-color:#FFFFFF;stop-opacity:0.15"/>
	</linearGradient>
	<polygon fill="url(#SVGID_9_)" points="27,30 25,30 25,26 15,26 15,30 13,30 13,24 27,24 	"/>
	<linearGradient id="SVGID_10_" gradientUnits="userSpaceOnUse" x1="32" y1="29.6265" x2="32" y2="26.5882">
		<stop  offset="0" style="stop-color:#FFFFFF;stop-opacity:0"/>
		<stop  offset="1" style="stop-color:#FFFFFF;stop-opacity:0.15"/>
	</linearGradient>
	<rect x="29" y="26" fill="url(#SVGID_10_)" width="6" height="4"/>
	<linearGradient id="SVGID_11_" gradientUnits="userSpaceOnUse" x1="20" y1="34.8132" x2="20" y2="33.2941">
		<stop  offset="0" style="stop-color:#FFFFFF;stop-opacity:0"/>
		<stop  offset="1" style="stop-color:#FFFFFF;stop-opacity:0.15"/>
	</linearGradient>
	<rect x="15" y="33" fill="url(#SVGID_11_)" width="10" height="2"/>
</g>
</svg>
