<svg id="2e8861c4-2d27-4edf-bf2c-7d414ebf181a" data-name="ICONS" xmlns="http://www.w3.org/2000/svg" xmlns:xlink="http://www.w3.org/1999/xlink" viewBox="0 0 40 40"><defs><linearGradient id="26d015ef-c350-45b7-b214-53ca1e989047" x1="3.38265" y1="4.19622" x2="32.67812" y2="39.10919" gradientUnits="userSpaceOnUse"><stop offset="0" stop-color="#fff" stop-opacity="0"/><stop offset="0.86247" stop-color="#5e5e5e" stop-opacity="0.06315"/><stop offset="1" stop-opacity="0.1"/></linearGradient><linearGradient id="0ef731f5-5138-4611-bb1c-b7a93890737e" x1="29" y1="13.90625" x2="29" y2="11.08751" gradientUnits="userSpaceOnUse"><stop offset="0" stop-color="#828282" stop-opacity="0"/><stop offset="0.86247" stop-color="#303030" stop-opacity="0.06315"/><stop offset="1" stop-opacity="0.1"/></linearGradient><linearGradient id="1d716e5f-4f98-40c0-b348-cd98dc7ba367" x1="23.79167" y1="9.70833" x2="28.72991" y2="4.77009" gradientUnits="userSpaceOnUse"><stop offset="0" stop-color="#fff" stop-opacity="0"/><stop offset="0.44604" stop-color="#fff" stop-opacity="0.00799"/><stop offset="0.63551" stop-color="#fff" stop-opacity="0.03616"/><stop offset="0.77636" stop-color="#fff" stop-opacity="0.08493"/><stop offset="0.8924" stop-color="#fff" stop-opacity="0.15385"/><stop offset="0.99328" stop-color="#fff" stop-opacity="0.24291"/><stop offset="1" stop-color="#fff" stop-opacity="0.25"/></linearGradient><linearGradient id="f51802e0-811c-4bff-82e3-2d6de3347bb5" x1="8.5" y1="35.71985" x2="8.5" y2="33.44118" gradientUnits="userSpaceOnUse"><stop offset="0" stop-color="#828282" stop-opacity="0"/><stop offset="0.99719" stop-opacity="0.1"/></linearGradient><linearGradient id="59e9c87b-7307-4750-9ba5-e652e4323563" x1="31.5" y1="35.71985" x2="31.5" y2="33.44118" xlink:href="#f51802e0-811c-4bff-82e3-2d6de3347bb5"/><linearGradient id="6d63274e-13f4-4203-aea6-604886784d13" x1="20" y1="28.71985" x2="20" y2="26.44118" xlink:href="#f51802e0-811c-4bff-82e3-2d6de3347bb5"/><linearGradient id="f8139f56-3ba0-447d-a84f-63ebab00d28b" x1="20.02083" y1="36.81324" x2="20.02083" y2="35.29412" xlink:href="#f51802e0-811c-4bff-82e3-2d6de3347bb5"/><linearGradient id="dd55eaa5-9f37-4702-ab7c-2b0e98796da6" x1="8" y1="29.62647" x2="8" y2="26.58824" gradientUnits="userSpaceOnUse"><stop offset="0" stop-color="#fff" stop-opacity="0"/><stop offset="0.34281" stop-color="#fff" stop-opacity="0.03509"/><stop offset="0.90031" stop-color="#fff" stop-opacity="0.13008"/><stop offset="1" stop-color="#fff" stop-opacity="0.15"/></linearGradient><linearGradient id="795808dd-fc04-4499-9588-614e69908164" x1="20" y1="29.43971" x2="20" y2="24.88235" xlink:href="#dd55eaa5-9f37-4702-ab7c-2b0e98796da6"/><linearGradient id="8b8921aa-f5d7-48ce-9d70-500ffb81b21c" x1="32" y1="29.62647" x2="32" y2="26.58824" xlink:href="#dd55eaa5-9f37-4702-ab7c-2b0e98796da6"/><linearGradient id="46cfbdcd-3eb8-48b3-8ff5-c72c05dcf952" x1="20" y1="34.81324" x2="20" y2="33.29412" xlink:href="#dd55eaa5-9f37-4702-ab7c-2b0e98796da6"/></defs><title>FileTypeIcons_Master_All_NEW</title><polygon points="7 3 26 3 33 10 33 37 7 37 7 3" fill="#fff"/><path d="M26,2H6V38H34V10Zm0,1.5L32.5,10H26ZM33,37H7V3H25v8h8Z" fill="#949494"/><rect x="10" y="20" width="20" height="1" fill="#c8c8c8"/><rect x="10" y="17" width="20" height="1" fill="#c8c8c8"/><rect x="10" y="14" width="20" height="1" fill="#c8c8c8"/><rect x="10" y="6" width="7" height="1" fill="#c8c8c8"/><path d="M25,26v7H15V26H25m2-2H13V35H27V24Z" fill="#d65532"/><rect x="5" y="26" width="6" height="7" fill="#d65532"/><rect x="29" y="26" width="6" height="7" fill="#d65532"/><path d="M35,26H34V10L26,2H6V26H5v7H6v5H34V33h1Z" fill="url(#26d015ef-c350-45b7-b214-53ca1e989047)"/><rect x="25" y="11" width="8" height="3" fill="url(#0ef731f5-5138-4611-bb1c-b7a93890737e)"/><polygon points="26 2 6 2 6 3 25 3 25 11 33 11 33 25 34 25 34 10 26 2" fill="url(#1d716e5f-4f98-40c0-b348-cd98dc7ba367)"/><rect x="6" y="33" width="5" height="3" fill="url(#f51802e0-811c-4bff-82e3-2d6de3347bb5)"/><rect x="29" y="33" width="5" height="3" fill="url(#59e9c87b-7307-4750-9ba5-e652e4323563)"/><rect x="15" y="26" width="10" height="3" fill="url(#6d63274e-13f4-4203-aea6-604886784d13)"/><rect x="13" y="35" width="14.04167" height="2" fill="url(#f8139f56-3ba0-447d-a84f-63ebab00d28b)"/><rect x="5" y="26" width="6" height="4" fill="url(#dd55eaa5-9f37-4702-ab7c-2b0e98796da6)"/><polygon points="27 30 25 30 25 26 15 26 15 30 13 30 13 24 27 24 27 30" fill="url(#795808dd-fc04-4499-9588-614e69908164)"/><rect x="29" y="26" width="6" height="4" fill="url(#8b8921aa-f5d7-48ce-9d70-500ffb81b21c)"/><rect x="15" y="33" width="10" height="2" fill="url(#46cfbdcd-3eb8-48b3-8ff5-c72c05dcf952)"/></svg>