<svg id="8c283563-9e7d-434d-a0a3-662c0881d401" data-name="ICONS" xmlns="http://www.w3.org/2000/svg" xmlns:xlink="http://www.w3.org/1999/xlink" viewBox="0 0 40 40"><defs><linearGradient id="aff0a1a8-eba4-46d5-a77e-7f328783c773" x1="6.16158" y1="3.50802" x2="33.83842" y2="36.49198" gradientUnits="userSpaceOnUse"><stop offset="0" stop-color="#fff" stop-opacity="0"/><stop offset="0.86247" stop-color="#5e5e5e" stop-opacity="0.06315"/><stop offset="1" stop-opacity="0.1"/></linearGradient><linearGradient id="9e842641-8c38-4de4-94a6-002181c8ade8" x1="19.027" y1="20.9253" x2="36.027" y2="4.75863" gradientUnits="userSpaceOnUse"><stop offset="0" stop-color="#fff" stop-opacity="0"/><stop offset="0.44604" stop-color="#fff" stop-opacity="0.00799"/><stop offset="0.63551" stop-color="#fff" stop-opacity="0.03616"/><stop offset="0.77636" stop-color="#fff" stop-opacity="0.08493"/><stop offset="0.8924" stop-color="#fff" stop-opacity="0.15385"/><stop offset="0.99328" stop-color="#fff" stop-opacity="0.24291"/><stop offset="1" stop-color="#fff" stop-opacity="0.25"/></linearGradient></defs><title>FileTypeIcons_Master_All_NEW</title><rect x="3" y="8" width="34" height="24" fill="#fff"/><path d="M2,7V33H38V7ZM37,32H3V8H37Z" fill="#949494"/><polygon points="37 29.707 37 28.293 26.5 17.793 21 23.293 11.5 13.793 3 22.293 3 23.707 11.5 15.207 28.293 32 29.707 32 21.707 24 26.5 19.207 37 29.707" fill="#7dbab2"/><path d="M31.5,12A1.5,1.5,0,1,1,30,13.5,1.50164,1.50164,0,0,1,31.5,12m0-1A2.5,2.5,0,1,0,34,13.5,2.49981,2.49981,0,0,0,31.5,11Z" fill="#f5ba9d"/><rect x="2" y="7" width="36" height="26" fill="url(#aff0a1a8-eba4-46d5-a77e-7f328783c773)"/><polygon points="38 7 2 7 2 8 3 8 37 8 37 32 37 33 38 33 38 7" fill="url(#9e842641-8c38-4de4-94a6-002181c8ade8)"/></svg>