<svg id="515463da-99c8-4dc9-9f6a-84a83de1d69e" data-name="ICONS" xmlns="http://www.w3.org/2000/svg" xmlns:xlink="http://www.w3.org/1999/xlink" viewBox="0 0 40 40"><defs><linearGradient id="59dbe25c-3557-41db-bbf9-318fd584606b" x1="23" y1="37.90625" x2="23" y2="35.08751" gradientUnits="userSpaceOnUse"><stop offset="0" stop-color="#828282" stop-opacity="0"/><stop offset="0.86247" stop-color="#303030" stop-opacity="0.06315"/><stop offset="1" stop-opacity="0.1"/></linearGradient><linearGradient id="e2f1208e-9ccc-465e-9923-c256fd2f00a5" x1="22.9099" y1="6.21915" x2="23.13365" y2="1.94985" gradientUnits="userSpaceOnUse"><stop offset="0" stop-color="#fff" stop-opacity="0"/><stop offset="0.44604" stop-color="#fff" stop-opacity="0.00799"/><stop offset="0.63551" stop-color="#fff" stop-opacity="0.03616"/><stop offset="0.77636" stop-color="#fff" stop-opacity="0.08493"/><stop offset="0.8924" stop-color="#fff" stop-opacity="0.15385"/><stop offset="0.99328" stop-color="#fff" stop-opacity="0.24291"/><stop offset="1" stop-color="#fff" stop-opacity="0.25"/></linearGradient><linearGradient id="23aab309-3cd9-4db4-a5ed-bd072856fb50" x1="19.12564" y1="15.62113" x2="36.75778" y2="38.18924" gradientUnits="userSpaceOnUse"><stop offset="0" stop-color="#fff" stop-opacity="0"/><stop offset="0.86247" stop-color="#5e5e5e" stop-opacity="0.06315"/><stop offset="1" stop-opacity="0.1"/></linearGradient><linearGradient id="07519a3c-94e3-40eb-a9ab-846b1e527b7b" x1="9.96994" y1="6.2422" x2="33.03006" y2="35.7578" xlink:href="#23aab309-3cd9-4db4-a5ed-bd072856fb50"/><linearGradient id="6a475e4a-12f6-4575-bc55-beb8876515b7" x1="14.30706" y1="36.67182" x2="14.65748" y2="33.37204" gradientUnits="userSpaceOnUse"><stop offset="0" stop-color="#828282" stop-opacity="0"/><stop offset="0.99719" stop-opacity="0.2"/></linearGradient><linearGradient id="59d61dc8-b95d-4221-9da0-441ae6e94783" x1="11.5" y1="32.79198" x2="11.5" y2="12.21733" gradientUnits="userSpaceOnUse"><stop offset="0" stop-color="#fff" stop-opacity="0"/><stop offset="0.52587" stop-color="#fff" stop-opacity="0.00735"/><stop offset="0.71529" stop-color="#fff" stop-opacity="0.03396"/><stop offset="0.8503" stop-color="#fff" stop-opacity="0.0803"/><stop offset="0.95875" stop-color="#fff" stop-opacity="0.14595"/><stop offset="1" stop-color="#fff" stop-opacity="0.18"/></linearGradient></defs><title>FileTypeIcons_Master_All_NEW</title><polygon points="34 4 34 2 9 2 9 35 12 35 12 38 37 38 37 5 34 4" fill="#fff"/><path d="M29,17a7,7,0,1,1-7-7v7Z" fill="#c8c8c8"/><path d="M23,10a6,6,0,0,1,6,6H23Z" fill="#f5ba9d"/><polygon points="34 2 9 2 9 7 34 7 34 4 37 7 37 5 34 2" fill="#b7472a"/><polygon points="36 6 36 37 13 37 13 35 34 35 34 7 33 7 33 34 13 34 12 34 10 34 10 7 9 7 9 35 12 35 12 38 37 38 37 7 36 6" fill="#949494"/><polygon points="3 13 20 11 20 34 3 32 3 13" fill="#b7472a"/><rect x="20" y="30" width="10" height="1" fill="#c8c8c8"/><rect x="20" y="27" width="10" height="1" fill="#c8c8c8"/><path d="M10.15744,23.89958V27H8V18h3.37977Q14.99989,18,15,20.8682a2.68365,2.68365,0,0,1-1.03865,2.19352,4.29054,4.29054,0,0,1-2.77528.83786Zm0-4.34309v2.80543h.84829q1.72327,0,1.72328-1.41841,0-1.38692-1.72328-1.387Z" fill="#fff"/><rect x="12" y="35" width="22" height="3" fill="url(#59dbe25c-3557-41db-bbf9-318fd584606b)"/><polygon points="34 2 9 2 9 7 34 7 34 4 37 7 37 5 34 2" fill="url(#e2f1208e-9ccc-465e-9923-c256fd2f00a5)"/><polygon points="34 4 34 35 13 35 12 35 12 38 37 38 37 7 34 4" fill="url(#23aab309-3cd9-4db4-a5ed-bd072856fb50)"/><polygon points="9 7 9 35 12 35 13 35 34 35 34 10.394 34 9.545 34 7 9 7" fill="url(#07519a3c-94e3-40eb-a9ab-846b1e527b7b)"/><polygon points="20 37 12 37 12 35 9 35 9 32.71 20 34 20 37" fill="url(#6a475e4a-12f6-4575-bc55-beb8876515b7)"/><polygon points="20 34 3 32 3 13 20 11 20 34" fill="url(#59d61dc8-b95d-4221-9da0-441ae6e94783)"/></svg>