<svg id="1b832e79-0904-46c3-a66f-622f1c313d69" data-name="ICONS" xmlns="http://www.w3.org/2000/svg" xmlns:xlink="http://www.w3.org/1999/xlink" viewBox="0 0 40 40"><defs><linearGradient id="e32b4a51-b364-4792-9ced-8c504f9fb5f5" x1="32" y1="13.90625" x2="32" y2="11.08751" gradientUnits="userSpaceOnUse"><stop offset="0" stop-color="#828282" stop-opacity="0"/><stop offset="0.86247" stop-color="#303030" stop-opacity="0.06315"/><stop offset="1" stop-opacity="0.1"/></linearGradient><linearGradient id="82cf9836-bca5-4cb3-ab50-9f05b1545721" x1="26.79167" y1="9.70833" x2="31.72991" y2="4.77009" gradientUnits="userSpaceOnUse"><stop offset="0" stop-color="#fff" stop-opacity="0"/><stop offset="0.44604" stop-color="#fff" stop-opacity="0.00799"/><stop offset="0.63551" stop-color="#fff" stop-opacity="0.03616"/><stop offset="0.77636" stop-color="#fff" stop-opacity="0.08493"/><stop offset="0.8924" stop-color="#fff" stop-opacity="0.15385"/><stop offset="0.99328" stop-color="#fff" stop-opacity="0.24291"/><stop offset="1" stop-color="#fff" stop-opacity="0.25"/></linearGradient><linearGradient id="49207dea-5712-4509-9819-eb052b47149a" x1="6.68656" y1="3.11975" x2="35.09862" y2="39.48552" gradientUnits="userSpaceOnUse"><stop offset="0" stop-color="#fff" stop-opacity="0"/><stop offset="0.86247" stop-color="#5e5e5e" stop-opacity="0.06315"/><stop offset="1" stop-opacity="0.1"/></linearGradient></defs><title>FileTypeIcons_Master_All_NEW</title><polygon points="29 2 9 2 9 6 4 6 3 6 3 7 4 7 4 22 10 22 10 25 9 25 9 26 10 26 10 28 6 32 6 34 9 31 9 38 11 38 11 37 14 37 14 38 37 38 37 10 29 2" fill="#fff"/><rect x="4.5" y="6.5" width="20" height="15" fill="#fff"/><path d="M24,7V21H5V7H24m1-1H4V22H25V6Z" fill="gray"/><rect x="3" y="6" width="23" height="1" fill="gray"/><rect x="9" y="25" width="11" height="1" fill="gray"/><rect x="14" y="22" width="1" height="3" fill="gray"/><rect x="7" y="10" width="2" height="8" fill="#c8c8c8"/><rect x="11" y="12" width="2" height="6" fill="#f5ba9d"/><rect x="15" y="14" width="2" height="4" fill="#c8c8c8"/><rect x="19" y="16" width="2" height="2" fill="#f5ba9d"/><path d="M37,10,29,2H9V6h1V3H28v8h8V37H14v1H37Zm-8,0V3.5L35.5,10Z" fill="#949494"/><polygon points="14 32 10 28 6 32 6 34 9 31 9 38 11 38 11 31 14 34 14 32" fill="#d04727"/><rect x="28" y="11" width="8" height="3" fill="url(#e32b4a51-b364-4792-9ced-8c504f9fb5f5)"/><polygon points="29 2 9 2 9 3 28 3 28 11 36 11 36 25 37 25 37 10 29 2" fill="url(#82cf9836-bca5-4cb3-ab50-9f05b1545721)"/><polygon points="29 2 9 2 9 6 4 6 3 6 3 7 4 7 4 22 10 22 10 24 9 24 9 25 10 25 10 28 6 32 6 34 9 31 9 38 11 38 11 37 14 37 14 38 37 38 37 10 29 2" fill="url(#49207dea-5712-4509-9819-eb052b47149a)"/></svg>