<?xml version="1.0" encoding="UTF-8" standalone="no"?>
<svg
   xmlns:dc="http://purl.org/dc/elements/1.1/"
   xmlns:cc="http://creativecommons.org/ns#"
   xmlns:rdf="http://www.w3.org/1999/02/22-rdf-syntax-ns#"
   xmlns:svg="http://www.w3.org/2000/svg"
   xmlns="http://www.w3.org/2000/svg"
   id="svg4448"
   version="1.1"
   viewBox="0 0 40 40"
   height="40"
   width="40">
  <metadata
     id="metadata4454">
    <rdf:RDF>
      <cc:Work
         rdf:about="">
        <dc:format>image/svg+xml</dc:format>
        <dc:type
           rdf:resource="http://purl.org/dc/dcmitype/StillImage" />
        <dc:title></dc:title>
      </cc:Work>
    </rdf:RDF>
  </metadata>
  <defs
     id="defs4452" />
  <ellipse
     style="stroke-width:0.26663345"
     id="ellipse4434"
     ry="19.995794"
     rx="19.999222"
     cy="20.599819"
     cx="-19.386555"
     transform="matrix(0.03023676,-0.99954276,0.99954245,0.03024713,0,0)" />
  <path
     style="fill:#ffffff;stroke-width:0.26664412"
     id="path4436"
     d="m 20.006609,0 v 0.613334 h 0.586567 c 5.172452,0.16 9.971634,2.320003 13.517697,6.080008 3.546062,3.760005 5.412411,8.693344 5.252438,13.866684 -0.159973,5.066672 -2.239619,9.813345 -5.892329,13.333351 -3.626049,3.546672 -8.398569,5.493339 -13.464373,5.493339 h -0.586567 c -5.172451,-0.16 -9.971634,-2.32 -13.5176965,-6.080006 C 2.3296212,29.520038 0.46327259,24.586698 0.62324534,19.413359 0.78321807,14.346686 2.8628637,9.600012 6.5155744,6.080008 10.168285,2.560003 14.940806,0.613334 20.006609,0.613334 V 0 m 0,0 C 9.2351113,0 0.3566241,8.560011 0.01001649,19.386692 -0.33659111,30.426704 8.3552612,39.653383 19.39338,39.973383 h 0.613229 c 10.771498,0 19.649985,-8.560006 19.969931,-19.386691 C 40.323147,9.546679 31.631295,0.32 20.593176,0 Z" />
  <path
     style="fill:#ffffff;stroke-width:0.26664412"
     id="path4438"
     d="M 11.154784,9.626679 H 18.51353 V 14.80002 H 11.154784 Z M 32.964401,14.80002 H 25.605655 V 9.626679 h 5.225776 c 1.173134,0 2.13297,0.960001 2.13297,2.133336 z" />
  <path
     style="fill:none;stroke-width:0.26664412"
     id="path4440"
     d="m 11.261433,14.72002 h 7.358746 v 5.173339 h -7.358746 z" />
  <path
     style="fill:#ffffff;stroke-width:0.26664412"
     id="path4442"
     d="m 18.486868,14.72002 h 7.358746 v 5.173339 h -7.358746 z m -7.332084,5.173339 h 7.358746 v 5.173339 h -7.358746 z m 19.70331,5.173339 h -5.252439 v -5.173339 h 7.358746 v 3.066672 c 0,1.173334 -0.933174,2.106667 -2.106307,2.106667 z" />
  <path
     style="fill:#ffffff;stroke-width:0.26664412"
     id="path4444"
     d="m 10.861501,34.800044 c -0.559905,0 -1.0131608,-0.453334 -1.0131608,-1.013334 V 9.280012 c 0,-0.560001 0.4532558,-1.013335 1.0131608,-1.013335 0.559904,0 1.013161,0.453334 1.013161,1.013335 V 33.78671 c 0.02666,0.56 -0.453257,1.013334 -1.013161,1.013334 z" />
  <path
     style="fill:#ffffff;stroke-width:0.26664412"
     id="path4446"
     d="m 28.325192,10.453347 3.812683,2.933339 v 7.600006 l -3.972656,3.280006 H 12.061296 V 10.453347 h 16.263896 m 0.266621,-0.826668 h -17.33038 v 15.440019 h 17.197069 l 4.505899,-3.706672 v -8.373345 z" />
</svg>
