<?xml version="1.0" encoding="UTF-8" standalone="no"?>
<svg
   xmlns:dc="http://purl.org/dc/elements/1.1/"
   xmlns:cc="http://creativecommons.org/ns#"
   xmlns:rdf="http://www.w3.org/1999/02/22-rdf-syntax-ns#"
   xmlns:svg="http://www.w3.org/2000/svg"
   xmlns="http://www.w3.org/2000/svg"
   id="svg246"
   version="1.1"
   viewBox="0 0 40 39.993137"
   height="39.993137"
   width="40">
  <metadata
     id="metadata252">
    <rdf:RDF>
      <cc:Work
         rdf:about="">
        <dc:format>image/svg+xml</dc:format>
        <dc:type
           rdf:resource="http://purl.org/dc/dcmitype/StillImage" />
        <dc:title></dc:title>
      </cc:Work>
    </rdf:RDF>
  </metadata>
  <defs
     id="defs250" />
  <circle
     style="stroke-width:0.26661056"
     r="19.995792"
     id="ellipse238"
     cy="20.599815"
     cx="-19.383232"
     transform="rotate(-88.267)" />
  <path
     style="fill:#ffffff;stroke-width:0.26662123"
     id="path240"
     d="m 20.006608,0 v 0.613228 h 0.586566 c 5.172452,0.159973 9.971635,2.319605 13.517697,6.078964 3.546062,3.75936 5.412411,8.691854 5.252438,13.864304 -0.159973,5.065806 -2.239619,9.811662 -5.892329,13.331062 -3.626049,3.546061 -8.398569,5.492394 -13.464372,5.492394 H 19.420041 C 14.24759,39.21998 9.4484075,37.060352 5.9023452,33.300991 2.3296211,29.514969 0.46327257,24.582474 0.6232453,19.410024 0.78321803,14.344224 2.8628635,9.598364 6.5155741,6.078964 10.168285,2.559563 14.940805,0.613228 20.006608,0.613228 V 0 m 0,0 C 9.2351108,0 0.35662408,8.558541 0.01001649,19.383363 -0.3365911,30.42148 8.3552608,39.646574 19.393379,39.966519 h 0.613229 c 10.771497,0 19.649984,-8.558539 19.96993,-19.383362 C 40.323145,9.54504 31.631293,0.319945 20.593174,0 Z" />
  <path
     style="fill:#ffffff;stroke-width:0.26662123"
     id="path242"
     d="M 14.780832,29.514969 H 25.31237 v 2.85285 c 0,1.972994 -1.599727,3.572722 -3.572724,3.572722 h -3.386089 c -1.972998,0 -3.572725,-1.599728 -3.572725,-3.572722 z M 29.57831,13.517696 c 0,-5.199114 -4.612547,-9.358405 -10.131607,-9.011797 -4.745857,0.319945 -8.558541,4.02598 -8.7985,8.558541 -0.07999,1.599728 0.266621,3.119467 0.959837,4.452573 1.679713,3.226117 2.799523,6.665533 3.172792,10.264917 l 0.07999,0.746539 h 10.531539 l 0.07999,-0.746539 c 0.346608,-3.492739 1.306444,-6.93215 3.039482,-10.024956 0.666553,-1.279783 1.066485,-2.719539 1.066485,-4.239278 z" />
  <path
     style="stroke-width:0.26662123"
     id="path244"
     d="M 17.846976,29.115035 16.167263,15.277396 c -0.02666,-0.159972 0.02666,-0.293283 0.13331,-0.426594 0.106649,-0.10665 0.239959,-0.186634 0.399932,-0.186634 h 6.505558 c 0.159973,0 0.293283,0.05333 0.399931,0.186634 0.106649,0.10665 0.159973,0.266622 0.133311,0.426594 L 22.16624,29.115035 21.099755,28.981724 22.619496,15.730652 h -5.305762 l 1.599727,13.251072 z" />
</svg>
