<?xml version="1.0" encoding="UTF-8" standalone="no"?>
<svg
   xmlns:dc="http://purl.org/dc/elements/1.1/"
   xmlns:cc="http://creativecommons.org/ns#"
   xmlns:rdf="http://www.w3.org/1999/02/22-rdf-syntax-ns#"
   xmlns:svg="http://www.w3.org/2000/svg"
   xmlns="http://www.w3.org/2000/svg"
   id="svg4864"
   version="1.1"
   viewBox="0 0 40 40"
   height="40"
   width="40">
  <metadata
     id="metadata4870">
    <rdf:RDF>
      <cc:Work
         rdf:about="">
        <dc:format>image/svg+xml</dc:format>
        <dc:type
           rdf:resource="http://purl.org/dc/dcmitype/StillImage" />
        <dc:title></dc:title>
      </cc:Work>
    </rdf:RDF>
  </metadata>
  <defs
     id="defs4868" />
  <circle
     style="opacity:0.8;fill:#fb7f78;stroke-width:0.26666665"
     r="20"
     id="ellipse4850"
     cy="20.595692"
     cx="-19.386013"
     transform="rotate(-88.267)" />
  <path
     style="fill:#9e3028;stroke:#9e3028;stroke-width:0.13333867;stroke-miterlimit:10"
     id="path4852"
     d="m 18.722349,19.359221 h 3.253464 v 1.386722 h -3.253464 z"
     stroke-miterlimit="10" />
  <path
     style="fill:#ffffff;stroke-width:0.26667735"
     id="path4854"
     d="M 14.48218,26.346165 H 7.2552239 c -0.9067028,0 -1.6533995,-0.720027 -1.7067349,-1.626727 L 5.2818116,19.972576 c -0.053336,-0.986705 0.7200289,-1.813405 1.706735,-1.813405 h 9.7337224 c 1.093378,0 1.89341,0.986705 1.680068,2.053417 l -0.693362,3.493472 c -0.293345,1.520061 -1.653399,2.640105 -3.226795,2.640105 z" />
  <path
     style="fill:#9e3028;stroke:#9e3028;stroke-width:0.13333867;stroke-miterlimit:10"
     id="path4856"
     d="m 16.695602,18.159171 c 1.093377,0 1.893409,0.986705 1.680067,2.053417 l -0.693361,3.493472 c -0.293345,1.546728 -1.653399,2.640105 -3.226796,2.640105 H 7.2552239 c -0.9067028,0 -1.6533995,-0.720027 -1.7067349,-1.626727 L 5.2818116,19.972576 c -0.053336,-0.986705 0.7200289,-1.813405 1.706735,-1.813405 h 9.7070554 m 0,-1.386722 H 6.9885466 c -0.8533677,0 -1.6800672,0.346683 -2.2667573,0.960039 -0.5866902,0.613361 -0.8800353,1.466727 -0.8533675,2.320094 l 0.2666773,4.746856 c 0.080003,1.6534 1.4667253,2.93345 3.093457,2.93345 H 14.48218 c 2.240089,0 4.160167,-1.573395 4.58685,-3.76015 l 0.693361,-3.493473 c 0.186674,-0.906705 -0.05333,-1.840072 -0.640026,-2.5601 -0.613357,-0.7467 -1.493392,-1.146716 -2.426763,-1.146716 z"
     stroke-miterlimit="10" />
  <path
     style="fill:#ffffff;stroke-width:0.26667735"
     id="path4858"
     d="m 26.322654,26.346165 h 7.253623 c 0.906703,0 1.6534,-0.720027 1.706735,-1.626727 l 0.266677,-4.746862 c 0.05333,-0.986705 -0.720029,-1.813405 -1.706735,-1.813405 h -9.733722 c -1.093377,0 -1.893409,0.986705 -1.680068,2.053417 l 0.693361,3.493472 c 0.293345,1.520061 1.626732,2.640105 3.200129,2.640105 z" />
  <path
     style="fill:#9e3028;stroke:#9e3028;stroke-width:0.13333867;stroke-miterlimit:10"
     id="path4860"
     d="m 33.842954,18.159171 c 0.986706,0 1.760071,0.8267 1.706735,1.813405 l -0.266677,4.746862 c -0.05333,0.9067 -0.800032,1.626727 -1.706735,1.626727 h -7.253623 c -1.573397,0 -2.906784,-1.120044 -3.226796,-2.640105 l -0.693361,-3.493472 c -0.213342,-1.066712 0.613358,-2.053417 1.680067,-2.053417 h 9.76039 m 0,-1.386722 h -9.733722 c -0.933371,0 -1.813406,0.400016 -2.400097,1.120044 -0.58669,0.720033 -0.826699,1.6534 -0.640025,2.560106 l 0.693361,3.493472 c 0.426684,2.186755 2.346761,3.786817 4.560183,3.786817 h 7.253623 c 1.6534,0 3.013454,-1.28005 3.093457,-2.93345 l 0.266678,-4.746856 c 0.05333,-0.853367 -0.266678,-1.680067 -0.853368,-2.320094 -0.560022,-0.613356 -1.386722,-0.960039 -2.24009,-0.960039 z"
     stroke-miterlimit="10" />
  <path
     style="fill:#9e3028;stroke:#9e3028;stroke-width:0.13333867;stroke-miterlimit:10"
     id="path4862"
     d="m 5.4951535,18.719193 c -0.2133419,0 -0.4266837,-0.106667 -0.5600224,-0.293344 C 4.6951215,18.105838 4.7751247,17.679154 5.0684698,17.46581 L 16.215583,9.1721457 c 0.293345,-0.213341 0.720029,-0.160006 0.93337,0.106672 l 1.573396,1.8667413 c 0.24001,0.293345 0.213343,0.720029 -0.08,0.986706 -0.293345,0.240011 -0.720029,0.213339 -0.986707,-0.08 L 16.535595,10.692207 5.9218372,18.585854 C 5.7884983,18.665864 5.65516,18.719193 5.4951535,18.719193 Z m 29.8678615,0 c -0.133338,0 -0.293345,-0.05333 -0.426683,-0.133339 l -10.613758,-7.893647 -1.146713,1.360054 c -0.240009,0.293343 -0.693361,0.320015 -0.986706,0.08 -0.293345,-0.24001 -0.320013,-0.693361 -0.08,-0.986706 l 1.573396,-1.8667413 c 0.24001,-0.293345 0.640026,-0.320013 0.933371,-0.106672 l 11.147112,8.2936643 c 0.320013,0.240011 0.373348,0.666694 0.133339,0.960039 -0.106671,0.186677 -0.320013,0.293344 -0.533355,0.293344 z"
     stroke-miterlimit="10" />
</svg>
