<?xml version="1.0" encoding="UTF-8" standalone="no"?>
<svg
   xmlns:dc="http://purl.org/dc/elements/1.1/"
   xmlns:cc="http://creativecommons.org/ns#"
   xmlns:rdf="http://www.w3.org/1999/02/22-rdf-syntax-ns#"
   xmlns:svg="http://www.w3.org/2000/svg"
   xmlns="http://www.w3.org/2000/svg"
   id="svg390"
   version="1.1"
   viewBox="0 0 40 39.993137"
   height="39.993137"
   width="40">
  <metadata
     id="metadata396">
    <rdf:RDF>
      <cc:Work
         rdf:about="">
        <dc:format>image/svg+xml</dc:format>
        <dc:type
           rdf:resource="http://purl.org/dc/dcmitype/StillImage" />
        <dc:title></dc:title>
      </cc:Work>
    </rdf:RDF>
  </metadata>
  <defs
     id="defs394" />
  <circle
     style="stroke-width:0.26661056"
     r="19.995792"
     id="ellipse370"
     cy="20.599815"
     cx="-19.383232"
     transform="rotate(-88.267)" />
  <path
     style="fill:#ffffff;stroke-width:0.26662123"
     id="path372"
     d="m 20.006608,0 v 0.613228 h 0.586566 c 5.172452,0.159973 9.971635,2.319605 13.517697,6.078964 3.546062,3.75936 5.412411,8.691854 5.252438,13.864304 -0.159973,5.065806 -2.239619,9.811662 -5.892329,13.331062 -3.626049,3.546061 -8.398569,5.492394 -13.464372,5.492394 H 19.420041 C 14.24759,39.21998 9.4484075,37.060352 5.9023452,33.300991 2.3296211,29.514969 0.46327257,24.582474 0.6232453,19.410024 0.78321803,14.344224 2.8628635,9.598364 6.5155741,6.078964 10.168285,2.559563 14.940805,0.613228 20.006608,0.613228 V 0 m 0,0 C 9.2351108,0 0.35662408,8.558541 0.01001649,19.383363 -0.3365911,30.42148 8.3552608,39.646574 19.393379,39.966519 h 0.613229 c 10.771497,0 19.649984,-8.558539 19.96993,-19.383362 C 40.323145,9.54504 31.631293,0.319945 20.593174,0 Z" />
  <path
     style="fill:#ffffff;stroke-width:0.26662123"
     id="path374"
     d="m 35.017383,17.410368 c 0,0 -1.466417,0.479917 -3.146131,-0.07999 -1.679713,-0.559905 -2.586226,-2.426255 -2.586226,-2.426255 0,0 1.62639,-0.266617 3.306104,0.293283 1.679713,0.559906 2.426253,2.212961 2.426253,2.212962 z" />
  <path
     style="fill:#ffffff;stroke-width:0.26662123"
     id="path376"
     d="m 35.337328,13.384385 c 0,0 -0.853188,1.279783 -2.532902,1.86635 -1.679713,0.586567 -3.5194,-0.319945 -3.5194,-0.319945 0,0 1.11981,-1.1998 2.799523,-1.786366 1.653052,-0.586567 3.252779,0.239961 3.252779,0.239961 z" />
  <path
     style="fill:#ffffff;stroke-width:0.26662123"
     id="path378"
     d="m 20.379878,32.074535 c -2.559564,0 -5.759019,-0.746544 -7.065463,-2.879511 l -5.8656665,2.799522 c -0.1599728,0.07999 -0.37327,0.02667 -0.4799183,-0.10665 C 6.8621818,31.754585 6.8355196,31.541291 6.9421691,31.381319 L 9.2351119,28.181863 5.3691041,29.54163 c -0.1599727,0.05333 -0.3466075,0 -0.453256,-0.133311 -0.1066485,-0.133311 -0.1066485,-0.319945 -0.026662,-0.479917 l 1.9729972,-3.039483 -2.8528472,0.07999 c -0.1599728,0 -0.2932834,-0.07999 -0.3732697,-0.2133 -0.079986,-0.133305 -0.053324,-0.293283 0.026662,-0.426588 0.079986,-0.10665 7.7053526,-11.278079 8.8518246,-19.43669 0.02666,-0.186635 0.186635,-0.319945 0.346607,-0.346608 0.186635,-0.02666 0.37327,0.07999 0.426594,0.266621 0.05332,0.05332 2.292943,5.89233 6.505558,5.89233 5.625708,0 7.092125,-5.785681 7.092125,-5.865667 0.05332,-0.186635 0.239959,-0.319946 0.399931,-0.319946 0.186635,0 0.346608,0.159973 0.399932,0.346608 0.02666,0.13331 2.452916,14.344224 8.531879,17.410368 0.159973,0.07998 0.23996,0.266617 0.213297,0.453256 -0.02666,0.186633 -0.186635,0.319944 -0.37327,0.319944 l -3.039481,0.213295 3.119468,3.652711 c 0.106648,0.133311 0.133311,0.293283 0.05332,0.453255 -0.07999,0.159973 -0.213296,0.239961 -0.373269,0.239961 l -2.799523,-0.133311 1.093147,2.159634 c 0.07999,0.159972 0.05332,0.346605 -0.05332,0.453255 -0.106648,0.133311 -0.293283,0.159973 -0.453256,0.10665 l -5.75902,-2.372933 c -1.039823,1.919672 -3.786021,3.199456 -7.145449,3.252783 z M 13.50105,28.261852 c 0.05332,0 0.07999,0 0.133311,0.02667 0.106648,0.02667 0.186635,0.106644 0.239959,0.213294 0.933174,1.999661 4.079304,2.826183 6.772179,2.772861 3.252779,-0.07998 5.839004,-1.306444 6.585544,-3.119467 0.07999,-0.2133 0.319945,-0.293283 0.533243,-0.2133 l 5.119127,2.106312 -0.906512,-1.813028 c -0.05332,-0.133311 -0.05332,-0.293284 0.02666,-0.399928 0.07999,-0.133311 0.213297,-0.186639 0.373269,-0.186639 l 2.532902,0.10665 -3.039482,-3.546061 c -0.106648,-0.10665 -0.13331,-0.266622 -0.07999,-0.426595 0.05332,-0.159972 0.186635,-0.239961 0.346607,-0.239961 l 2.612888,-0.186633 c -2.26628,-1.679711 -4.212615,-4.905828 -5.865666,-9.598361 -0.853188,-2.47958 -1.413093,-4.852509 -1.733038,-6.292263 -0.853188,1.919673 -2.959496,5.065802 -7.385408,5.065802 -1.999659,0 -3.89267,-1.119808 -5.465735,-3.252778 C 13.767671,8.585203 13.36774,7.865326 13.074456,7.305421 11.60804,14.370885 6.3289391,22.742791 4.7558742,25.14238 l 2.8261849,-0.05333 c 0.1599728,0 0.2932833,0.07998 0.3732694,0.213295 0.079987,0.133311 0.079987,0.293283 0,0.426594 l -1.7330378,2.692874 3.9459943,-1.413094 c 0.159972,-0.05333 0.346607,0 0.453256,0.133311 0.106649,0.133311 0.106649,0.346605 0,0.479916 l -2.1063074,2.986162 4.7991814,-2.292945 c 0.05332,-0.05333 0.106649,-0.05333 0.186635,-0.05333 z" />
  <path
     style="fill:#ffffff;stroke-width:0.26662123"
     id="path380"
     d="m 12.381241,20.716468 c 0,3.066145 4.39925,-0.05333 7.625367,-0.05333 3.226117,0 7.945312,3.41275 7.945312,0.05333 0,-1.86635 -3.412751,-3.945994 -7.945312,-3.945994 -3.999318,0 -7.625367,2.159633 -7.625367,3.945994 z" />
  <path
     style="fill:#ffffff;stroke-width:0.26662123"
     id="path382"
     d="m 14.834156,26.288852 c 0.74654,1.546405 7.572043,1.359767 5.359087,-2.292945 -1.839686,-3.119466 -6.985476,-1.039822 -5.359087,2.292945 z" />
  <path
     style="fill:#ffffff;stroke-width:0.26662123"
     id="path384"
     d="m 25.872275,26.422163 c -1.359768,1.7597 -7.145449,0.319944 -5.252438,-2.399589 2.159632,-3.119472 7.518718,-0.559906 5.252438,2.399589 z" />
  <path
     style="stroke-width:0.26662123"
     id="path386"
     d="m 24.965763,20.663146 c -0.479918,0 -0.853188,-0.373272 -0.853188,-0.853189 v -0.479916 c 0,-0.479923 0.37327,-0.853189 0.853188,-0.853189 0.479918,0 0.853188,0.373266 0.853188,0.853189 v 0.479916 c 0,0.479917 -0.37327,0.853189 -0.853188,0.853189 z m -9.03846,0 c -0.479918,0 -0.853188,-0.373272 -0.853188,-0.853189 v -0.479916 c 0,-0.479923 0.37327,-0.853189 0.853188,-0.853189 0.479919,0 0.853188,0.373266 0.853188,0.853189 v 0.479916 c 0,0.479917 -0.373269,0.853189 -0.853188,0.853189 z" />
  <path
     style="fill:#ffffff;stroke-width:0.26662123"
     id="path388"
     d="m 22.16624,22.902763 -1.706376,1.706378 -1.706376,-1.706378 h 3.412752 m 0,-0.399933 h -3.439414 c -0.159973,0 -0.319946,0.10665 -0.373269,0.239961 -0.05332,0.159972 -0.02666,0.319944 0.07999,0.453255 l 1.706376,1.706378 c 0.07999,0.07998 0.186634,0.106645 0.293283,0.106645 0.106649,0 0.213297,-0.02667 0.293284,-0.106645 l 1.706375,-1.706378 c 0.07999,-0.07999 0.133311,-0.186633 0.133311,-0.293283 0.02666,-0.213295 -0.159973,-0.399933 -0.399932,-0.399933 z m 0,0.799866 z m 8.051961,-7.385411 H 9.5283941 l 1.1198089,-2.452911 h 18.583499 z" />
</svg>
