<?xml version="1.0" encoding="UTF-8" standalone="no"?>
<svg
   xmlns:dc="http://purl.org/dc/elements/1.1/"
   xmlns:cc="http://creativecommons.org/ns#"
   xmlns:rdf="http://www.w3.org/1999/02/22-rdf-syntax-ns#"
   xmlns:svg="http://www.w3.org/2000/svg"
   xmlns="http://www.w3.org/2000/svg"
   id="svg4888"
   version="1.1"
   viewBox="0 0 40 39.993263"
   height="39.993263"
   width="40">
  <metadata
     id="metadata4894">
    <rdf:RDF>
      <cc:Work
         rdf:about="">
        <dc:format>image/svg+xml</dc:format>
        <dc:type
           rdf:resource="http://purl.org/dc/dcmitype/StillImage" />
        <dc:title></dc:title>
      </cc:Work>
    </rdf:RDF>
  </metadata>
  <defs
     id="defs4892" />
  <circle
     style="stroke-width:0.26662174"
     r="19.996632"
     id="ellipse4872"
     cy="20.598944"
     cx="-19.382559"
     transform="rotate(-88.267038)" />
  <path
     style="fill:#ffffff;stroke-width:0.26663312"
     id="path4874"
     d="M 20.007501,8.3388717e-5 V 0.61333939 h 0.586592 c 5.172683,0.15998 9.972079,2.31970801 13.518299,6.07923501 3.546221,3.7595266 5.412653,8.6922396 5.252673,13.8649226 -0.15998,5.066028 -2.239718,9.8121 -5.892592,13.331655 -3.626211,3.546222 -8.398943,5.492645 -13.464972,5.492645 H 19.420908 C 14.248225,39.221813 9.4488292,37.062085 5.9026087,33.302558 2.329725,29.516369 0.46329324,24.583658 0.62327309,19.410975 0.78325298,14.344942 2.8629913,9.5988754 6.5158648,6.0793174 10.168739,2.5597614 14.941471,0.61333939 20.007501,0.61333939 V 8.3388717e-5 m 0,0 C 9.2355225,8.3388717e-5 0.35663999,8.5590064 0.01001693,19.384308 -0.33660612,30.422919 8.3556336,39.648424 19.394244,39.968385 h 0.613257 c 10.771978,0 19.65086,-8.558922 19.97082,-19.384227 C 40.324944,9.5455484 31.632705,0.32004239 20.594093,8.3388717e-5 Z" />
  <path
     style="fill:#ffffff;stroke-width:0.26663312"
     id="path4876"
     d="m 18.514355,19.890914 h 3.039618 v 1.279839 h -3.039618 z" />
  <path
     style="stroke-width:0.26663312"
     id="path4878"
     d="M 14.621512,26.370097 H 7.902357 c -0.8532261,0 -1.5464722,-0.639917 -1.5997988,-1.493145 L 6.0625887,20.477508 C 6.0092609,19.570953 6.7291715,18.797719 7.662387,18.797719 h 9.038863 c 1.013206,0 1.759778,0.90655 1.573136,1.893095 l -0.666584,3.226261 c -0.293296,1.413155 -1.546471,2.453022 -2.98629,2.453022 z" />
  <path
     style="fill:#ffffff;stroke-width:0.26663312"
     id="path4880"
     d="m 16.674587,18.797719 c 1.013205,0 1.759778,0.90655 1.573135,1.893095 l -0.63992,3.226261 c -0.293296,1.413155 -1.546471,2.453022 -2.98629,2.453022 H 7.902357 c -0.8532261,0 -1.5464722,-0.639917 -1.5997988,-1.493145 L 6.0625887,20.477508 C 6.0092609,19.570953 6.7291715,18.797719 7.662387,18.797719 h 9.0122 m 0,-1.306505 H 7.6357242 c -0.7998994,0 -1.5464722,0.346622 -2.1064017,0.879889 -0.5599296,0.586594 -0.8265627,1.359827 -0.7732361,2.133066 l 0.2399698,4.399445 c 0.1066533,1.519811 1.3598286,2.719661 2.8529741,2.719661 h 6.7191547 c 2.079738,0 3.839517,-1.466484 4.239467,-3.492895 l 0.666582,-3.1996 c 0.15998,-0.853222 -0.05333,-1.70645 -0.613256,-2.373033 -0.533266,-0.693244 -1.333165,-1.066533 -2.186391,-1.066533 z" />
  <path
     style="stroke-width:0.26663312"
     id="path4882"
     d="m 25.606796,26.370097 h 6.719155 c 0.853226,0 1.546472,-0.639917 1.599798,-1.493145 l 0.23997,-4.399444 c 0.05333,-0.906555 -0.666583,-1.679789 -1.599799,-1.679789 h -9.038862 c -1.013206,0 -1.759779,0.90655 -1.573136,1.893095 l 0.613256,3.226261 c 0.31996,1.413155 1.573136,2.453022 3.039618,2.453022 z" />
  <path
     style="fill:#ffffff;stroke-width:0.26663312"
     id="path4884"
     d="m 32.56592,18.797719 c 0.906553,0 1.626462,0.773234 1.599799,1.679789 l -0.23997,4.399444 c -0.05333,0.853228 -0.746572,1.493145 -1.599798,1.493145 h -6.719155 c -1.439819,0 -2.692994,-1.039867 -2.986291,-2.453022 l -0.613256,-3.226261 c -0.186643,-0.986545 0.559929,-1.893095 1.573135,-1.893095 h 8.985536 m 0,-1.306505 h -9.038862 c -0.87989,0 -1.679789,0.373289 -2.213055,1.066533 -0.55993,0.666583 -0.773236,1.546472 -0.613256,2.373033 l 0.639919,3.226261 c 0.373287,2.026411 2.186392,3.492895 4.239467,3.492895 h 6.719154 c 1.519809,0 2.799648,-1.19985 2.852975,-2.719656 l 0.239969,-4.39945 c 0.05333,-0.7999 -0.239969,-1.573133 -0.773235,-2.133061 -0.533267,-0.559933 -1.27984,-0.906555 -2.053076,-0.906555 z" />
  <path
     style="fill:#ffffff;stroke-width:0.26663312"
     id="path4886"
     d="m 6.2758948,19.304319 c -0.1866428,0 -0.3732861,-0.10665 -0.5066027,-0.266633 C 5.555986,18.744392 5.6359754,18.344442 5.9026087,18.157797 L 16.22131,10.478764 c 0.266633,-0.186643 0.63992,-0.15998 0.87989,0.106653 l 1.439818,1.733114 c 0.23997,0.266633 0.186644,0.666583 -0.07999,0.906555 -0.266632,0.239967 -0.666582,0.186645 -0.906552,-0.07999 l -1.066533,-1.253177 -9.8387615,7.279083 c -0.07999,0.106655 -0.23997,0.133316 -0.3732867,0.133316 z m 27.6765172,0 c -0.133316,0 -0.266632,-0.05333 -0.373286,-0.133316 l -9.865425,-7.305747 -1.066533,1.253175 c -0.239969,0.266633 -0.613256,0.319961 -0.906552,0.07999 -0.266633,-0.239966 -0.31996,-0.613255 -0.07999,-0.906549 l 1.439819,-1.733116 c 0.213306,-0.266633 0.613256,-0.31996 0.879889,-0.106653 l 10.318702,7.679035 c 0.293296,0.213306 0.346622,0.613256 0.133316,0.879889 -0.07999,0.213305 -0.293296,0.293294 -0.47994,0.293294 z" />
</svg>
