<?xml version="1.0" encoding="UTF-8" standalone="no"?>
<svg
   xmlns:dc="http://purl.org/dc/elements/1.1/"
   xmlns:cc="http://creativecommons.org/ns#"
   xmlns:rdf="http://www.w3.org/1999/02/22-rdf-syntax-ns#"
   xmlns:svg="http://www.w3.org/2000/svg"
   xmlns="http://www.w3.org/2000/svg"
   id="svg278"
   version="1.1"
   viewBox="0 0 40 40"
   height="40"
   width="40">
  <metadata
     id="metadata284">
    <rdf:RDF>
      <cc:Work
         rdf:about="">
        <dc:format>image/svg+xml</dc:format>
        <dc:type
           rdf:resource="http://purl.org/dc/dcmitype/StillImage" />
        <dc:title></dc:title>
      </cc:Work>
    </rdf:RDF>
  </metadata>
  <defs
     id="defs282" />
  <circle
     style="stroke-width:0.26666665"
     id="circle270"
     r="20"
     cy="20"
     cx="20" />
  <path
     style="fill:#ffffff;stroke-width:0.26666665"
     id="path272"
     d="M 20,0.613333 C 30.693333,0.613333 39.386667,9.306667 39.386667,20 39.386667,30.693333 30.693333,39.386667 20,39.386667 9.3066667,39.386667 0.61333333,30.693333 0.61333333,20 0.61333333,9.306667 9.3066667,0.613333 20,0.613333 M 20,0 C 8.96,0 0,8.96 0,20 0,31.04 8.96,40 20,40 31.04,40 40,31.04 40,20 40,8.96 31.04,0 20,0 Z" />
  <path
     style="fill:#ffffff;stroke-width:0.26666665"
     id="path274"
     d="m 23.76,13.013333 v -2.4 L 25.786667,6.08 C 26.08,5.36 25.573333,4.56 24.773333,4.56 h -8.88 c -0.746666,0 -1.28,0.746667 -1.013333,1.466667 l 1.706667,4.48 v 2.4 c -4.8,2.56 -9.0400003,9.893333 -9.0400003,13.546666 0,4.453334 5.7600003,8.08 12.8533333,8.08 7.093333,0 12.853333,-3.626666 12.853333,-8.08 0,-3.6 -4.586666,-10.773333 -9.493333,-13.44 z" />
  <path
     style="stroke-width:0.26666665"
     id="path276"
     d="m 15.813333,10.613333 h 8.72 v 2.293334 h -8.72 z m 8.8,14.16 C 24.373333,24.346667 24.053333,24 23.68,23.706667 23.306667,23.413333 22.88,23.173333 22.426667,22.96 22,22.773333 21.573333,22.613333 21.146667,22.48 v -4.373333 c 0.373333,0 0.746666,0.106666 1.12,0.266666 C 22.693333,18.56 23.013333,18.826667 23.253333,19.2 L 23.36,19.36 24.693333,18.293333 24.586667,18.16 C 24.4,17.973333 24.213333,17.786667 23.973333,17.6 23.733333,17.413333 23.493333,17.253333 23.2,17.093333 22.906667,16.96 22.586667,16.826667 22.213333,16.746667 c -0.32,-0.08 -0.666666,-0.106667 -1.066666,-0.133334 V 15.44 h -1.253334 v 1.226667 C 19.466667,16.72 19.04,16.826667 18.64,16.96 c -0.453333,0.186667 -0.853333,0.426667 -1.2,0.72 -0.346667,0.293333 -0.64,0.666667 -0.853333,1.093333 -0.213334,0.426667 -0.32,0.906667 -0.32,1.413334 0,0.56 0.106666,1.04 0.346666,1.44 0.24,0.4 0.533334,0.746666 0.88,1.013333 0.346667,0.266667 0.773334,0.506667 1.2,0.693333 0.4,0.16 0.8,0.293334 1.2,0.426667 v 4.56 C 19.76,28.32 19.6,28.293333 19.44,28.24 19.2,28.186667 18.96,28.08 18.72,27.973333 18.48,27.84 18.24,27.706667 18,27.52 17.76,27.333333 17.546667,27.146667 17.36,26.906667 L 17.253333,26.773333 15.84,27.706667 15.946667,27.84 c 0.4,0.506667 0.96,0.96 1.68,1.333333 0.666666,0.346667 1.44,0.56 2.266666,0.64 V 30.96 h 1.253334 v -1.2 c 0.506666,-0.05333 0.96,-0.16 1.386666,-0.32 0.48,-0.186667 0.906667,-0.426667 1.28,-0.72 0.373334,-0.293333 0.64,-0.666667 0.853334,-1.093333 0.213333,-0.426667 0.32,-0.88 0.32,-1.386667 C 24.96,25.706667 24.853333,25.173333 24.613333,24.773333 Z m -1.36,1.52 c 0,0.4 -0.08,0.746667 -0.24,0.986667 -0.16,0.266667 -0.346666,0.48 -0.586666,0.64 -0.213334,0.16 -0.48,0.266667 -0.746667,0.346667 -0.213333,0.05333 -0.4,0.08 -0.586667,0.08 V 24.16 c 0.586667,0.186667 1.093334,0.453333 1.493334,0.8 0.48,0.346667 0.693333,0.773333 0.666666,1.333333 z m -4,-4.453333 c -0.266666,-0.133333 -0.48,-0.266667 -0.693333,-0.426667 -0.186667,-0.16 -0.346667,-0.32 -0.453333,-0.533333 -0.106667,-0.186667 -0.16,-0.426667 -0.16,-0.72 0,-0.266667 0.05333,-0.533333 0.16,-0.773333 0.106666,-0.24 0.24,-0.453334 0.426666,-0.64 0.186667,-0.186667 0.4,-0.32 0.666667,-0.453334 0.213333,-0.08 0.426667,-0.16 0.666667,-0.186666 V 22.08 c -0.186667,-0.05333 -0.4,-0.133333 -0.613334,-0.24 z" />
</svg>
