<?xml version="1.0" encoding="UTF-8" standalone="no"?>
<svg
   xmlns:dc="http://purl.org/dc/elements/1.1/"
   xmlns:cc="http://creativecommons.org/ns#"
   xmlns:rdf="http://www.w3.org/1999/02/22-rdf-syntax-ns#"
   xmlns:svg="http://www.w3.org/2000/svg"
   xmlns="http://www.w3.org/2000/svg"
   id="svg230"
   version="1.1"
   viewBox="0 0 40 40"
   height="40"
   width="40">
  <metadata
     id="metadata236">
    <rdf:RDF>
      <cc:Work
         rdf:about="">
        <dc:format>image/svg+xml</dc:format>
        <dc:type
           rdf:resource="http://purl.org/dc/dcmitype/StillImage" />
        <dc:title></dc:title>
      </cc:Work>
    </rdf:RDF>
  </metadata>
  <defs
     id="defs234" />
  <circle
     style="fill:#9ac3ff;stroke-width:0.26666665"
     r="20"
     id="ellipse222"
     cy="20.595692"
     cx="-19.386013"
     transform="rotate(-88.267)" />
  <path
     style="fill:#fcd700;stroke-width:0.26667735"
     id="path224"
     d="m 29.576117,13.919004 c 0,-5.2002093 -4.613518,-9.3603753 -10.133739,-9.0136953 -4.746856,0.320013 -8.560342,4.026828 -8.800351,8.5603453 -0.08,1.600061 0.266677,3.120122 0.960038,4.453511 1.680067,3.226795 2.800112,6.666934 3.17346,10.267078 l 0.08,0.746695 H 25.38928 l 0.08,-0.746695 c 0.346681,-3.493478 1.306719,-6.933611 3.040122,-10.027072 0.666693,-1.28005 1.066709,-2.720106 1.066709,-4.240167 z" />
  <path
     style="fill:#646d7a;stroke-width:0.26667735"
     id="path226"
     d="M 17.842314,29.11961 16.162247,15.27906 c -0.02667,-0.160011 0.02667,-0.29335 0.133339,-0.426684 0.106671,-0.106672 0.240009,-0.186677 0.400016,-0.186677 h 6.506927 c 0.160006,0 0.293345,0.05333 0.400016,0.186677 0.10667,0.106667 0.160006,0.266673 0.133338,0.426684 L 22.162487,29.11961 21.095778,28.986271 22.615839,15.73241 H 17.30896 l 1.600064,13.253861 z" />
  <path
     style="fill:#646d7a;stroke-width:0.26667735"
     id="path228"
     d="M 14.775525,28.879599 H 25.30928 v 2.85345 c 0,1.973411 -1.600065,3.573477 -3.573477,3.573477 h -3.386801 c -1.973413,0 -3.573477,-1.600066 -3.573477,-3.573477 z" />
</svg>
