<?xml version="1.0" encoding="UTF-8" standalone="no"?>
<svg
   xmlns:dc="http://purl.org/dc/elements/1.1/"
   xmlns:cc="http://creativecommons.org/ns#"
   xmlns:rdf="http://www.w3.org/1999/02/22-rdf-syntax-ns#"
   xmlns:svg="http://www.w3.org/2000/svg"
   xmlns="http://www.w3.org/2000/svg"
   id="svg4480"
   version="1.1"
   viewBox="0 0 40 40.000004"
   height="40.000004"
   width="40">
  <metadata
     id="metadata4486">
    <rdf:RDF>
      <cc:Work
         rdf:about="">
        <dc:format>image/svg+xml</dc:format>
        <dc:type
           rdf:resource="http://purl.org/dc/dcmitype/StillImage" />
        <dc:title></dc:title>
      </cc:Work>
    </rdf:RDF>
  </metadata>
  <defs
     id="defs4484" />
  <ellipse
     style="stroke-width:0.26664421"
     id="ellipse4472"
     ry="19.996634"
     rx="19.999998"
     cy="20.598948"
     cx="-19.38582"
     transform="matrix(0.03023619,-0.99954278,0.99954247,0.03024638,0,0)" />
  <path
     style="fill:#ffffff;stroke-width:0.26665556"
     id="path4474"
     d="M 20.007501,8.2865384e-5 V 0.61344287 h 0.586592 c 5.172683,0.160006 9.972079,2.32009803 13.518299,6.08025903 3.546221,3.7601601 5.412653,8.6937031 5.252673,13.8672591 -0.15998,5.066883 -2.239718,9.813749 -5.892592,13.333899 -3.626211,3.546817 -8.398943,5.493567 -13.464972,5.493567 H 19.420908 C 14.248225,39.228421 9.4488292,37.068327 5.9026087,33.308166 2.329725,29.521338 0.46329324,24.587799 0.62327309,19.414244 0.78325298,14.347361 2.8629912,9.6004919 6.5158648,6.0803419 10.168739,2.5601919 14.941471,0.61344287 20.007501,0.61344287 V 8.2865384e-5 m 0,0 C 9.2355225,8.2865384e-5 0.35663999,8.5604479 0.01001693,19.387577 -0.33660612,30.428044 8.3556336,39.655104 19.394244,39.975121 h 0.613257 c 10.771978,0 19.65086,-8.560366 19.97082,-19.387494 C 40.324944,9.5471559 31.632705,0.32009687 20.594093,8.2865384e-5 Z" />
  <path
     style="fill:#ffffff;stroke-width:0.26665556"
     id="path4476"
     d="m 20.940717,30.961399 h -4.372784 c -3.30625,0 -5.972582,-2.666778 -5.972582,-5.973583 V 12.667289 c 0,-0.666695 0.533267,-1.20005 1.19985,-1.20005 h 13.918248 c 0.666583,0 1.199849,0.533355 1.199849,1.20005 v 12.293855 c 0,3.333477 -2.692994,6.000255 -5.972581,6.000255 z" />
  <path
     style="fill:#ffffff;stroke-width:0.26665556"
     id="path4478"
     d="m 26.166725,25.867849 v -1.94675 c 0.346624,0 1.679789,-0.240005 4.5061,-3.440144 0.666583,-0.7467 0.666583,-1.840078 0.05333,-2.613444 -0.613256,-0.7467 -1.626462,-0.986711 -2.506351,-0.560023 l -1.413156,0.693362 -0.853226,-1.760073 1.413156,-0.693366 c 1.706451,-0.8267 3.7062,-0.37335 4.879386,1.093383 1.226512,1.520061 1.173185,3.680155 -0.106653,5.146883 -2.453027,2.746783 -4.426111,4.080172 -5.972584,4.080172 z" />
</svg>
