<?xml version="1.0" encoding="UTF-8" standalone="no"?>
<svg
   xmlns:dc="http://purl.org/dc/elements/1.1/"
   xmlns:cc="http://creativecommons.org/ns#"
   xmlns:rdf="http://www.w3.org/1999/02/22-rdf-syntax-ns#"
   xmlns:svg="http://www.w3.org/2000/svg"
   xmlns="http://www.w3.org/2000/svg"
   id="svg4608"
   version="1.1"
   viewBox="0 0 40 39.993267"
   height="39.993267"
   width="40">
  <metadata
     id="metadata4614">
    <rdf:RDF>
      <cc:Work
         rdf:about="">
        <dc:format>image/svg+xml</dc:format>
        <dc:type
           rdf:resource="http://purl.org/dc/dcmitype/StillImage" />
        <dc:title></dc:title>
      </cc:Work>
    </rdf:RDF>
  </metadata>
  <defs
     id="defs4612" />
  <circle
     style="stroke-width:0.26662174"
     r="19.996634"
     id="ellipse4594"
     cy="20.598942"
     cx="-19.382561"
     transform="rotate(-88.267038)" />
  <path
     style="fill:#ffffff;stroke-width:0.26663312"
     id="path4596"
     d="M 20.007501,8.4353746e-5 V 0.61333935 h 0.586593 c 5.172682,0.15998 9.972078,2.31970905 13.518299,6.07923705 3.54622,3.7595266 5.412653,8.6922386 5.252673,13.8649226 -0.15998,5.066027 -2.239718,9.812094 -5.892592,13.331655 -3.626211,3.546223 -8.398943,5.492639 -13.464973,5.492639 H 19.420908 C 14.248225,39.221821 9.4488291,37.062088 5.902609,33.30256 2.3297251,29.516371 0.46329324,24.58366 0.62327307,19.410976 0.78325296,14.344943 2.8629913,9.5988774 6.5158652,6.0793204 10.168738,2.5597624 14.941471,0.61333935 20.007501,0.61333935 V 8.4353746e-5 m 0,0 C 9.235523,8.4353746e-5 0.35664,8.5590074 0.01001693,19.38431 -0.33660612,30.422927 8.3556335,39.648427 19.394245,39.968388 h 0.613256 c 10.771978,0 19.650861,-8.558923 19.970821,-19.384228 C 40.324945,9.5455504 31.632705,0.32004335 20.594094,8.4353746e-5 Z" />
  <path
     style="fill:#ffffff;stroke-width:0.26663312"
     id="path4598"
     d="M 22.220556,13.278415 19.634215,8.2390484 c -0.613257,-1.173186 -2.186392,-1.386493 -3.092945,-0.39995 -0.853226,0.933216 -0.55993,2.4263616 0.55993,2.9596276 z" />
  <path
     style="fill:#ffffff;stroke-width:0.26663312"
     id="path4600"
     d="m 18.087742,13.278415 2.586342,-5.0393666 c 0.613256,-1.173186 2.186392,-1.386493 3.092943,-0.39995 0.853227,0.933216 0.55993,2.4263616 -0.559929,2.9596276 z" />
  <path
     style="fill:#ffffff;stroke-width:0.26663312"
     id="path4602"
     d="m 26.540012,30.716221 h -12.79839 c -1.626462,0 -2.98629,-1.279839 -3.039617,-2.932967 L 10.195402,14.691571 c -0.07999,-1.733117 1.306502,-3.172935 3.039618,-3.172935 h 13.838259 c 1.733116,0 3.119607,1.439818 3.039617,3.172935 l -0.506602,13.091683 c -0.07999,1.653128 -1.413156,2.932967 -3.066282,2.932967 z" />
  <path
     style="stroke-width:0.26663312"
     id="path4604"
     d="M 29.792937,22.503921 H 10.462035 l -0.106653,-3.279589 h 19.570872 z" />
  <path
     style="stroke-width:0.26663312"
     id="path4606"
     d="m 18.541019,11.518636 h 3.279587 v 19.090929 h -3.279587 z" />
</svg>
