<?xml version="1.0" encoding="UTF-8" standalone="no"?>
<svg
   xmlns:dc="http://purl.org/dc/elements/1.1/"
   xmlns:cc="http://creativecommons.org/ns#"
   xmlns:rdf="http://www.w3.org/1999/02/22-rdf-syntax-ns#"
   xmlns:svg="http://www.w3.org/2000/svg"
   xmlns="http://www.w3.org/2000/svg"
   id="svg4566"
   version="1.1"
   viewBox="0 0 40 40.259903"
   height="40.259903"
   width="40">
  <metadata
     id="metadata4572">
    <rdf:RDF>
      <cc:Work
         rdf:about="">
        <dc:format>image/svg+xml</dc:format>
        <dc:type
           rdf:resource="http://purl.org/dc/dcmitype/StillImage" />
        <dc:title></dc:title>
      </cc:Work>
    </rdf:RDF>
  </metadata>
  <defs
     id="defs4570" />
  <circle
     style="stroke-width:0.26659989"
     id="circle4548"
     r="19.994991"
     cy="19.994991"
     cx="20.005009" />
  <path
     style="fill:#ffffff;stroke-width:0.26659989"
     id="path4550"
     d="M 20.005008,1.2961426e-6 V 0.6131813 h 0.58652 c 5.172038,0.15996 9.970836,2.319419 13.516614,6.078477 3.545779,3.7590587 5.411978,8.6911547 5.252018,13.8631937 -0.159959,5.0654 -2.239439,9.810878 -5.891857,13.329995 -3.625759,3.545778 -8.397897,5.491961 -13.463295,5.491961 h -0.58652 C 14.24645,39.216847 9.4476522,37.057386 5.9018733,33.29833 2.3294348,29.512608 0.46323551,24.580513 0.62319545,19.408475 0.7831554,14.343075 2.8626346,9.5975973 6.5150533,6.0784793 10.167472,2.5593603 14.93961,0.6131813 20.005008,0.6131813 V 1.2961426e-6 m 0,0 C 9.2343722,1.2961426e-6 0.35659556,8.5578583 0.01001569,19.381813 -0.33656417,30.419047 8.3545922,39.643408 19.391828,39.963325 h 0.61318 c 10.770636,0 19.648412,-8.557856 19.968332,-19.381812 C 40.31992,9.5442773 31.628763,0.3199213 20.591528,1.2961426e-6 Z" />
  <path
     style="fill:#ffffff;stroke-width:0.26659989"
     id="path4552"
     d="m 32.055323,15.942675 c -0.05332,-0.426562 -0.15996,-0.853117 -0.34658,-1.226362 -1.226359,-2.506038 -5.038738,-3.172536 -8.531196,-1.4663 -5.198698,2.5327 -17.7822134,11.1972 -14.3164148,18.288756 1.2263598,2.506039 5.0387378,3.172539 8.5311968,1.492961 1.839539,1.572939 5.038738,1.786217 7.997997,0.319917 3.039238,-1.492956 4.852118,-4.265595 4.638838,-6.718317 0.58652,-0.159961 1.199699,-0.373239 1.786219,-0.6665 3.492459,-1.706239 5.305338,-5.118717 4.078979,-7.651417 -0.69316,-1.359661 -2.1328,-2.186116 -3.839039,-2.372738 z" />
  <path
     style="stroke-width:0.26659989"
     id="path4554"
     d="m 21.604607,10.450717 5.918518,5.998496 c 1.412979,1.439639 1.466299,3.759062 0.07998,5.252017 l -5.491958,5.971839 c -1.466299,1.5996 -3.972339,1.652922 -5.518618,0.106639 L 9.9808517,21.221352 Z" />
  <path
     style="fill:#ffffff;stroke:#ffffff;stroke-width:0.53319979;stroke-miterlimit:10"
     id="path4556"
     d="m 21.791227,27.69973 c -0.61318,0.479878 -1.386319,0.773139 -2.186119,0.773139 -0.9331,0 -1.812879,-0.373239 -2.479379,-1.039739 L 2.1428148,12.450219 1.9828549,12.850113 16.832469,27.726391 c 1.519619,1.519617 3.998999,1.519617 5.518618,0 L 3.8757142,9.2510173 c -0.07998,0.10664 -0.15996,0.23994 -0.2132799,0.34658 z"
     stroke-miterlimit="10" />
  <path
     style="fill:#ffffff;stroke:#ffffff;stroke-width:0.53319979;stroke-miterlimit:10"
     id="path4558"
     d="M 6.1151533,6.5050383 24.563866,24.953752 22.377747,27.139869 4.1156541,8.9044383 c -0.07998,0.106639 -0.15996,0.213279 -0.2399399,0.346579 L 22.351087,27.726391 25.123726,24.953752 6.3817533,6.2117783 c -0.07998,0.10664 -0.18662,0.18662 -0.2666,0.29326 z"
     stroke-miterlimit="10" />
  <path
     style="fill:#ffffff;stroke:#ffffff;stroke-width:0.53319979;stroke-miterlimit:10"
     id="path4560"
     d="M 27.309845,22.181113 25.123726,24.36723 6.6750133,5.9451793 c -0.10664,0.07998 -0.18662,0.186619 -0.29326,0.266599 L 25.123726,24.953752 27.896365,22.181113 9.4476522,3.7590603 c -0.10664,0.07998 -0.23994,0.15996 -0.34658,0.21328 z"
     stroke-miterlimit="10" />
  <path
     style="fill:#ffffff;stroke:#ffffff;stroke-width:0.53319979;stroke-miterlimit:10"
     id="path4562"
     d="m 27.576445,16.982413 c 1.279679,1.279678 1.359659,3.279178 0.2666,4.6655 L 9.7409117,3.5457803 c -0.10664,0.07998 -0.2399395,0.1333 -0.3465795,0.21328 L 27.843045,22.207775 c 1.519619,-1.519623 1.519619,-3.999 0,-5.518623 L 13.073411,1.8928603 l -0.3999,0.15996 z"
     stroke-miterlimit="10" />
  <circle
     style="fill:none;stroke-width:0.26658854"
     r="19.647573"
     id="ellipse4564"
     cy="20.925018"
     cx="-19.988672"
     transform="rotate(-88.267038)" />
</svg>
