<?xml version="1.0" encoding="UTF-8" standalone="no"?>
<svg
   xmlns:dc="http://purl.org/dc/elements/1.1/"
   xmlns:cc="http://creativecommons.org/ns#"
   xmlns:rdf="http://www.w3.org/1999/02/22-rdf-syntax-ns#"
   xmlns:svg="http://www.w3.org/2000/svg"
   xmlns="http://www.w3.org/2000/svg"
   id="svg188"
   version="1.1"
   viewBox="0 0 40 39.993263"
   height="39.993263"
   width="40">
  <metadata
     id="metadata194">
    <rdf:RDF>
      <cc:Work
         rdf:about="">
        <dc:format>image/svg+xml</dc:format>
        <dc:type
           rdf:resource="http://purl.org/dc/dcmitype/StillImage" />
        <dc:title></dc:title>
      </cc:Work>
    </rdf:RDF>
  </metadata>
  <defs
     id="defs192" />
  <circle
     style="stroke-width:0.26662174"
     r="19.996632"
     id="ellipse172"
     cy="20.598944"
     cx="-19.382559"
     transform="rotate(-88.267038)" />
  <path
     style="fill:#ffffff;stroke-width:0.26663312"
     id="path174"
     d="M 20.007501,8.3388717e-5 V 0.61333939 h 0.586592 c 5.172683,0.15998 9.972079,2.31970801 13.518299,6.07923501 3.546221,3.7595266 5.412653,8.6922396 5.252673,13.8649226 -0.15998,5.066028 -2.239718,9.8121 -5.892592,13.331655 -3.626211,3.546222 -8.398943,5.492645 -13.464972,5.492645 H 19.420908 C 14.248225,39.221813 9.4488292,37.062085 5.9026087,33.302558 2.329725,29.516369 0.46329324,24.583658 0.62327309,19.410975 0.78325298,14.344942 2.8629913,9.5988754 6.5158648,6.0793174 10.168739,2.5597614 14.941471,0.61333939 20.007501,0.61333939 V 8.3388717e-5 m 0,0 C 9.2355225,8.3388717e-5 0.35663999,8.5590064 0.01001693,19.384308 -0.33660612,30.422919 8.3556336,39.648424 19.394244,39.968385 h 0.613257 c 10.771978,0 19.65086,-8.558922 19.97082,-19.384227 C 40.324944,9.5455484 31.632705,0.32004239 20.594093,8.3388717e-5 Z" />
  <path
     style="fill:#ffffff;stroke-width:0.26663312"
     id="path176"
     d="m 30.379529,25.143586 c 0,3.146272 -4.34612,5.70595 -9.678782,5.70595 -5.332662,0 -9.678782,-2.559678 -9.678782,-5.70595 v -5.732611 l 19.357564,-0.479939 z" />
  <path
     style="fill:#ffffff;stroke-width:0.26663312"
     id="path178"
     d="M 20.700747,9.8655084 5.4226692,18.42443 20.700747,26.983352 36.005488,18.42443 Z" />
  <path
     style="stroke-width:0.26663312"
     id="path180"
     d="M 20.700747,9.8655084 36.005488,18.42443 20.72741,26.983352 5.4226692,18.42443 20.700747,9.8655084 m 0,-1.03987 c -0.15998,0 -0.346623,0.05333 -0.506603,0.133317 L 4.9427296,17.51788 c -0.3199597,0.186639 -0.5332662,0.533267 -0.5332662,0.879889 0,0.346623 0.1866431,0.719906 0.5332662,0.879889 L 20.220807,27.83658 c 0.15998,0.07999 0.31996,0.133317 0.506603,0.133317 0.186643,0 0.346623,-0.05333 0.506603,-0.133317 l 15.278078,-8.558922 c 0.319959,-0.186644 0.533266,-0.533266 0.533266,-0.879889 0,-0.346622 -0.186644,-0.719911 -0.533266,-0.879889 L 21.207349,8.9589554 C 21.04737,8.8789654 20.88739,8.8256384 20.700747,8.8256384 Z" />
  <ellipse
     style="stroke-width:0.26663312"
     id="ellipse182"
     ry="0.7732361"
     rx="1.0132058"
     cy="17.891165"
     cx="21.127359" />
  <path
     style="stroke-width:0.26663312"
     id="path184"
     d="m 31.206091,19.837586 c -1.839768,-0.639917 -9.892088,-2.239717 -10.238711,-2.293044 -0.213307,-0.05333 -0.39995,0.07999 -0.453277,0.293294 -0.05333,0.213311 0.106654,0.39995 0.293297,0.453278 0.07999,0.02667 8.345616,1.653128 10.132059,2.266383 0.213306,0.07999 0.373286,0.213306 0.506602,0.426611 l 0.666583,-0.373283 c -0.213307,-0.373289 -0.506603,-0.639922 -0.906553,-0.773239 z" />
  <path
     style="fill:#ffffff;stroke-width:0.26663312"
     id="path186"
     d="m 31.766021,26.156791 c -0.02666,0.239973 -0.05333,0.453278 -0.05333,0.639917 -0.133317,1.679789 1.013205,3.706205 1.066532,3.786194 0.07999,0.133317 0.186643,0.186645 0.31996,0.186645 0.05333,0 0.133316,-0.02667 0.186642,-0.05333 0.186644,-0.106655 0.23997,-0.346622 0.133317,-0.533266 0,-0.02667 -1.093195,-1.919761 -0.959879,-3.332917 0.02666,-0.159978 0.02666,-0.373283 0.05333,-0.613255 0.15998,-1.679789 0.426613,-4.266128 -0.399949,-5.625956 l -0.666583,0.373284 c 0.719909,1.119861 0.453276,3.866183 0.31996,5.172683 z" />
</svg>
