<?xml version="1.0" encoding="UTF-8" standalone="no"?>
<svg
   xmlns:dc="http://purl.org/dc/elements/1.1/"
   xmlns:cc="http://creativecommons.org/ns#"
   xmlns:rdf="http://www.w3.org/1999/02/22-rdf-syntax-ns#"
   xmlns:svg="http://www.w3.org/2000/svg"
   xmlns="http://www.w3.org/2000/svg"
   id="svg312"
   version="1.1"
   viewBox="0 0 40 39.993137"
   height="39.993137"
   width="40">
  <metadata
     id="metadata318">
    <rdf:RDF>
      <cc:Work
         rdf:about="">
        <dc:format>image/svg+xml</dc:format>
        <dc:type
           rdf:resource="http://purl.org/dc/dcmitype/StillImage" />
        <dc:title></dc:title>
      </cc:Work>
    </rdf:RDF>
  </metadata>
  <defs
     id="defs316" />
  <circle
     style="stroke-width:0.26661056"
     r="19.995792"
     id="ellipse304"
     cy="20.599815"
     cx="-19.383232"
     transform="rotate(-88.267)" />
  <path
     style="fill:#ffffff;stroke-width:0.26662123"
     id="path306"
     d="m 20.006608,0 v 0.613228 h 0.586566 c 5.172452,0.159973 9.971635,2.319605 13.517697,6.078964 3.546062,3.75936 5.412411,8.691854 5.252438,13.864304 -0.159973,5.065806 -2.239619,9.811662 -5.892329,13.331062 -3.626049,3.546061 -8.398569,5.492394 -13.464372,5.492394 H 19.420041 C 14.24759,39.21998 9.4484075,37.060352 5.9023452,33.300991 2.3296211,29.514969 0.46327257,24.582474 0.6232453,19.410024 0.78321803,14.344224 2.8628635,9.598364 6.5155741,6.078964 10.168285,2.559563 14.940805,0.613228 20.006608,0.613228 V 0 m 0,0 C 9.2351108,0 0.35662408,8.558541 0.01001649,19.383363 -0.3365911,30.42148 8.3552608,39.646574 19.393379,39.966519 h 0.613229 c 10.771497,0 19.649984,-8.558539 19.96993,-19.383362 C 40.323145,9.54504 31.631293,0.319945 20.593174,0 Z" />
  <path
     style="fill:#ffffff;stroke-width:0.26662123"
     id="path308"
     d="m 6.0356557,25.24903 c 1.0131611,0 1.7063762,2.372927 3.812684,2.372927 2.1063073,0 3.3061033,-4.985816 7.7586773,-4.985816 1.733038,0 2.826185,1.359766 2.826185,3.226116 0,2.186295 -2.506239,5.039145 -7.118787,5.039145 -8.0252984,0 -8.1852711,-5.652372 -7.2787593,-5.652372 z" />
  <path
     style="fill:#ffffff;stroke-width:0.26662123"
     id="path310"
     d="m 34.404154,25.24903 c -1.013161,0 -1.706376,2.372927 -3.812684,2.372927 -2.106307,0 -3.306103,-4.985816 -7.785339,-4.985816 -1.733038,0 -2.826185,1.359766 -2.826185,3.226116 0,2.186295 2.50624,5.039145 7.118786,5.039145 8.025299,0 8.211934,-5.652372 7.305422,-5.652372 z m -7.305422,-6.372245 c -2.906171,0 -5.252438,-2.346267 -5.252438,-5.252439 0,-2.906173 2.346267,-5.25244 5.252438,-5.25244 2.906172,0 5.252439,2.346267 5.252439,5.25244 -0.02666,2.906172 -2.372929,5.252439 -5.252439,5.252439 z m 0,-9.065124 c -2.106307,0 -3.812683,1.706375 -3.812683,3.812685 0,2.106306 1.706376,3.812683 3.812683,3.812683 2.106308,0 3.812684,-1.706377 3.812684,-3.812683 0,-2.079647 -1.706376,-3.812685 -3.812684,-3.812685 z" />
</svg>
