<?xml version="1.0" encoding="UTF-8" standalone="no"?>
<svg
   xmlns:dc="http://purl.org/dc/elements/1.1/"
   xmlns:cc="http://creativecommons.org/ns#"
   xmlns:rdf="http://www.w3.org/1999/02/22-rdf-syntax-ns#"
   xmlns:svg="http://www.w3.org/2000/svg"
   xmlns="http://www.w3.org/2000/svg"
   id="svg4540"
   version="1.1"
   viewBox="0 0 40 40"
   height="40"
   width="40">
  <metadata
     id="metadata4546">
    <rdf:RDF>
      <cc:Work
         rdf:about="">
        <dc:format>image/svg+xml</dc:format>
        <dc:type
           rdf:resource="http://purl.org/dc/dcmitype/StillImage" />
        <dc:title></dc:title>
      </cc:Work>
    </rdf:RDF>
  </metadata>
  <defs
     id="defs4544" />
  <circle
     style="fill:#386cbb;stroke-width:0.26666665"
     r="20"
     id="ellipse4528"
     cy="20.595692"
     cx="-19.386013"
     transform="rotate(-88.267)" />
  <path
     style="fill:#ffffff;stroke-width:0.26667735"
     id="path4530"
     d="m 31.976213,15.252388 c -0.05333,-0.426684 -0.160006,-0.853367 -0.373348,-1.253384 -1.253383,-2.5601 -5.146873,-3.226794 -8.693681,-1.493389 -5.280211,2.5601 -18.1073915,11.387123 -14.5872507,18.614078 1.2533833,2.5601 5.1468727,3.226795 8.6670137,1.520061 1.866741,1.600061 5.120205,1.813406 8.133658,0.346678 3.093458,-1.520061 4.933531,-4.346839 4.720189,-6.826939 0.613358,-0.160005 1.226716,-0.37335 1.813406,-0.666694 3.546809,-1.7334 5.41355,-5.226878 4.160167,-7.786978 -0.640026,-1.413389 -2.106751,-2.240089 -3.840154,-2.453433 z" />
  <path
     style="fill:#9ac3ff;stroke-width:0.26667735"
     id="path4532"
     d="M 3.4684058,8.6121237 C 2.6950415,9.7588357 2.0283482,10.985553 1.4949935,12.265604 l 14.9605985,14.9606 c 1.546729,1.546728 4.080163,1.546728 5.626892,0 z" />
  <path
     style="fill:#84ca4b;stroke-width:0.26667735"
     id="path4534"
     d="M 22.109152,27.252871 24.935932,24.426088 6.0551755,5.5720027 c -0.960038,0.93337 -1.8134055,1.946744 -2.560102,3.066789 z" />
  <path
     style="fill:#fcd700;stroke-width:0.26667735"
     id="path4536"
     d="M 6.0551755,5.5720027 24.909264,24.426088 27.736043,21.625976 9.1753005,3.0652347 c -1.120045,0.720029 -2.1600861,1.573397 -3.120125,2.506768 z" />
  <path
     style="fill:#d1423b;stroke-width:0.26667735"
     id="path4538"
     d="M 9.1486328,3.0919027 27.709376,21.652643 c 1.546728,-1.546728 1.546728,-4.080161 0,-5.626889 L 12.882116,1.1984937 c -1.333387,0.506687 -2.560102,1.146713 -3.7334832,1.893409 z" />
</svg>
