<?xml version="1.0" encoding="UTF-8" standalone="no"?>
<svg
   xmlns:dc="http://purl.org/dc/elements/1.1/"
   xmlns:cc="http://creativecommons.org/ns#"
   xmlns:rdf="http://www.w3.org/1999/02/22-rdf-syntax-ns#"
   xmlns:svg="http://www.w3.org/2000/svg"
   xmlns="http://www.w3.org/2000/svg"
   height="39.993137"
   width="40"
   id="svg4130"
   version="1.1"
   viewBox="0 0 40 39.993137">
  <metadata
     id="metadata4136">
    <rdf:RDF>
      <cc:Work
         rdf:about="">
        <dc:format>image/svg+xml</dc:format>
        <dc:type
           rdf:resource="http://purl.org/dc/dcmitype/StillImage" />
        <dc:title></dc:title>
      </cc:Work>
    </rdf:RDF>
  </metadata>
  <defs
     id="defs4134" />
  <circle
     style="stroke-width:0.26661056"
     r="19.995792"
     id="ellipse4122"
     cy="20.599815"
     cx="-19.383232"
     transform="rotate(-88.267)" />
  <path
     style="fill:#ffffff;stroke-width:0.26662123"
     id="path4124"
     d="m 20.006608,0 v 0.613228 h 0.586566 c 5.172452,0.159973 9.971635,2.319605 13.517697,6.078964 3.546062,3.75936 5.412411,8.691854 5.252438,13.864304 -0.159973,5.065806 -2.239619,9.811662 -5.892329,13.331062 -3.626049,3.546061 -8.398569,5.492394 -13.464372,5.492394 H 19.420041 C 14.24759,39.21998 9.4484075,37.060352 5.9023452,33.300991 2.3296211,29.514969 0.46327257,24.582474 0.6232453,19.410024 0.78321802,14.344224 2.8628635,9.598364 6.5155741,6.078964 10.168285,2.559563 14.940805,0.613228 20.006608,0.613228 V 0 m 0,0 C 9.2351108,0 0.35662408,8.558541 0.01001649,19.383363 -0.3365911,30.42148 8.3552608,39.646574 19.393379,39.966519 h 0.613229 c 10.771497,0 19.649984,-8.558539 19.96993,-19.383362 C 40.323145,9.54504 31.631293,0.319945 20.593174,0 Z" />
  <path
     style="fill:#ffffff;stroke-width:0.26662123"
     id="path4126"
     d="m 20.353216,20.84978 c 0,0 1.066485,5.359089 5.385748,5.359089 1.599728,0 3.945995,-1.413095 3.945995,-4.852512 0,-6.905489 -9.678351,-12.797816 -9.678351,-12.797816 0,0 -10.0782822,6.638866 -10.0782822,12.184589 0,3.892672 1.6530522,5.945655 4.5592232,5.945655 4.879168,0 5.865667,-5.839005 5.865667,-5.839005 z M 11.981309,12.584524 11.501391,11.331402 H 9.0484758 L 8.5952197,12.584524 H 6.942168 L 9.6083803,6.238936 h 1.4930787 l 2.63955,6.345588 z M 10.274934,7.625367 9.2884347,10.264917 H 11.23477 Z m 19.516673,18.530174 0.479918,1.253122 h 2.452915 l 0.453256,-1.253122 h 1.653052 l -2.666212,6.345583 h -1.493079 l -2.63955,-6.345583 z m 1.706375,4.959155 0.986499,-2.63955 h -1.946335 z" />
  <path
     style="fill:#ffffff;stroke-width:0.26662123"
     id="path4128"
     d="M 20.353216,20.84978 17.9003,29.328335 h 5.039142 z" />
</svg>
