<?xml version="1.0" encoding="UTF-8" standalone="no"?>
<svg
   xmlns:dc="http://purl.org/dc/elements/1.1/"
   xmlns:cc="http://creativecommons.org/ns#"
   xmlns:rdf="http://www.w3.org/1999/02/22-rdf-syntax-ns#"
   xmlns:svg="http://www.w3.org/2000/svg"
   xmlns="http://www.w3.org/2000/svg"
   id="svg516"
   version="1.1"
   viewBox="0 0 40 39.979961"
   height="39.979961"
   width="40">
  <metadata
     id="metadata522">
    <rdf:RDF>
      <cc:Work
         rdf:about="">
        <dc:format>image/svg+xml</dc:format>
        <dc:type
           rdf:resource="http://purl.org/dc/dcmitype/StillImage" />
        <dc:title></dc:title>
      </cc:Work>
    </rdf:RDF>
  </metadata>
  <defs
     id="defs520" />
  <path
     style="stroke-width:0.26671088"
     id="path510"
     d="M 20.013336,39.71325 H 19.399901 C 14.145696,39.553222 9.2648873,37.366194 5.6642906,33.525555 2.0636936,29.684922 0.17004638,24.670755 0.33007291,19.41655 0.49009944,14.242361 2.5971153,9.441565 6.3043967,5.86764 10.011678,2.267043 14.865816,0.293383 20.013336,0.293383 h 0.613435 c 5.254204,0.160026 10.135013,2.347055 13.73561,6.187692 3.600596,3.840636 5.494244,8.82813 5.334217,14.109003 -0.160026,5.147522 -2.293713,9.974989 -5.974323,13.548916 -3.707282,3.600595 -8.561419,5.574256 -13.708939,5.574256 z" />
  <path
     style="fill:#ffffff;stroke-width:0.26671088"
     id="path512"
     d="M 20.013336,0 V 0.613436 H 20.6001 c 10.695106,0.320053 19.123169,9.281538 18.803116,19.976642 -0.160026,5.067511 -2.240371,9.814961 -5.89431,13.335544 -3.653939,3.520583 -8.428064,5.467572 -13.49557,5.467572 H 19.426572 C 14.252381,39.233172 9.451585,37.072811 5.90433,33.312189 2.3304045,29.524894 0.46342835,24.590744 0.62345484,19.41655 0.78348139,14.349044 2.8638262,9.601592 6.517765,6.081009 10.171704,2.560425 14.945829,0.613436 20.013336,0.613436 V 0 m 0,0 C 9.2382161,0 0.356744,8.56142 0.01001986,19.389883 -0.33670428,30.431711 8.35807,39.659905 19.399901,39.979961 h 0.613435 c 10.775119,0 19.656591,-8.561417 19.976644,-19.389883 C 40.336704,9.54825 31.64193,0.320054 20.6001,0 Z" />
  <path
     style="fill:#ffffff;stroke-width:0.26671088"
     id="path514"
     d="m 7.2912267,18.429722 h 6.3477193 v 9.948317 H 7.2912267 Z m 7.9479843,-0.400067 c 1.360225,-0.453405 2.69378,-1.52025 3.307215,-2.533755 0.613435,-1.0135 4.267374,-4.454069 4.880809,-6.534414 0.613435,-2.080345 1.573594,-2.347056 2.720451,-1.173528 1.920318,1.94699 -1.333555,7.067836 -1.333555,7.067836 0.373396,1.306884 7.494576,-1.066839 7.494576,1.946989 0,0.826806 -0.426737,1.013506 -0.426737,1.653611 0,0.640106 1.253541,0.480078 1.253541,1.70695 0,1.226867 -0.773462,1.146856 -0.773462,1.733617 0,0.560094 0.560093,0.400067 0.560093,1.733622 0,1.146856 -1.22687,1.333556 -1.22687,1.813633 0,0.480084 0.186698,0.50675 0.186698,1.626939 0,3.707278 -12.802123,1.440239 -16.642759,1.440239 z" />
</svg>
