<?xml version="1.0" encoding="UTF-8" standalone="no"?>
<svg
   xmlns:dc="http://purl.org/dc/elements/1.1/"
   xmlns:cc="http://creativecommons.org/ns#"
   xmlns:rdf="http://www.w3.org/1999/02/22-rdf-syntax-ns#"
   xmlns:svg="http://www.w3.org/2000/svg"
   xmlns="http://www.w3.org/2000/svg"
   id="svg157"
   version="1.1"
   viewBox="0 0 40 40"
   height="40"
   width="40">
  <metadata
     id="metadata163">
    <rdf:RDF>
      <cc:Work
         rdf:about="">
        <dc:format>image/svg+xml</dc:format>
        <dc:type
           rdf:resource="http://purl.org/dc/dcmitype/StillImage" />
        <dc:title></dc:title>
      </cc:Work>
    </rdf:RDF>
  </metadata>
  <defs
     id="defs161" />
  <circle
     style="fill:#84ca4b;stroke-width:0.26666665"
     r="20"
     id="ellipse149"
     cy="20.595692"
     cx="-19.386013"
     transform="rotate(-88.267)" />
  <path
     style="fill:#495361;stroke-width:0.26667735"
     id="path151"
     d="m 20.882437,20.425932 c 0,0 1.093378,5.466882 5.466886,5.466882 1.626731,0 4.026827,-1.440055 4.026827,-4.933533 0,-7.040278 -9.840393,-13.0405183 -9.840393,-13.0405183 0,0 -10.293744,6.7469363 -10.293744,12.3738293 0,3.946822 1.680066,6.053573 4.640184,6.053573 5.013533,0.02667 6.00024,-5.920233 6.00024,-5.920233 z" />
  <path
     style="fill:#d1423b;stroke-width:0.26667735"
     id="path153"
     d="m 11.975415,12.585614 -0.48002,-1.253382 H 9.0419633 l -0.4533511,1.253382 h -1.6534 L 9.6019855,6.2386937 h 1.4933935 l 2.640105,6.3469203 z M 10.268679,7.6254157 9.2819722,10.265523 h 1.9467448 z m 19.52078,18.5340763 0.48002,1.253384 h 2.453431 l 0.453351,-1.253384 h 1.6534 l -2.666773,6.346922 H 30.669494 L 28.02939,26.159492 Z m 1.706735,4.9602 0.986707,-2.640104 h -1.946744 z" />
  <path
     style="fill:#495361;stroke-width:0.26667735"
     id="path155"
     d="M 20.882437,20.425932 18.37567,29.03961 h 5.146873 z" />
  <circle
     transform="rotate(-88.267)"
     cx="-19.386013"
     cy="20.595692"
     id="use3854"
     r="20"
     style="fill:#84ca4b;stroke-width:0.26666665" />
  <path
     d="m 20.882437,20.425932 c 0,0 1.093378,5.466882 5.466886,5.466882 1.626731,0 4.026827,-1.440055 4.026827,-4.933533 0,-7.040278 -9.840393,-13.0405183 -9.840393,-13.0405183 0,0 -10.293744,6.7469363 -10.293744,12.3738293 0,3.946822 1.680066,6.053573 4.640184,6.053573 5.013533,0.02667 6.00024,-5.920233 6.00024,-5.920233 z"
     id="use3856"
     style="fill:#495361;stroke-width:0.26667735" />
  <path
     d="m 11.975415,12.585614 -0.48002,-1.253382 H 9.0419633 l -0.4533511,1.253382 h -1.6534 L 9.6019855,6.2386937 h 1.4933935 l 2.640105,6.3469203 z M 10.268679,7.6254157 9.2819722,10.265523 h 1.9467448 z m 19.52078,18.5340763 0.48002,1.253384 h 2.453431 l 0.453351,-1.253384 h 1.6534 l -2.666773,6.346922 H 30.669494 L 28.02939,26.159492 Z m 1.706735,4.9602 0.986707,-2.640104 h -1.946744 z"
     id="use3858"
     style="fill:#d1423b;stroke-width:0.26667735" />
  <path
     d="M 20.882437,20.425932 18.37567,29.03961 h 5.146873 z"
     id="use3860"
     style="fill:#495361;stroke-width:0.26667735" />
  <circle
     style="fill:#84ca4b;stroke-width:0.26666665"
     r="20"
     id="circle3870"
     cy="20.595692"
     cx="-19.386013"
     transform="rotate(-88.267)" />
  <path
     style="fill:#495361;stroke-width:0.26667735"
     id="path3872"
     d="m 20.882437,20.425932 c 0,0 1.093378,5.466882 5.466886,5.466882 1.626731,0 4.026827,-1.440055 4.026827,-4.933533 0,-7.040278 -9.840393,-13.0405183 -9.840393,-13.0405183 0,0 -10.293744,6.7469363 -10.293744,12.3738293 0,3.946822 1.680066,6.053573 4.640184,6.053573 5.013533,0.02667 6.00024,-5.920233 6.00024,-5.920233 z" />
  <path
     style="fill:#d1423b;stroke-width:0.26667735"
     id="path3874"
     d="m 11.975415,12.585614 -0.48002,-1.253382 H 9.0419633 l -0.4533511,1.253382 h -1.6534 L 9.6019855,6.2386937 h 1.4933935 l 2.640105,6.3469203 z M 10.268679,7.6254157 9.2819722,10.265523 h 1.9467448 z m 19.52078,18.5340763 0.48002,1.253384 h 2.453431 l 0.453351,-1.253384 h 1.6534 l -2.666773,6.346922 H 30.669494 L 28.02939,26.159492 Z m 1.706735,4.9602 0.986707,-2.640104 h -1.946744 z" />
  <path
     style="fill:#495361;stroke-width:0.26667735"
     id="path3876"
     d="M 20.882437,20.425932 18.37567,29.03961 h 5.146873 z" />
</svg>
