<?xml version="1.0" encoding="UTF-8" standalone="no"?>
<svg
   xmlns:dc="http://purl.org/dc/elements/1.1/"
   xmlns:cc="http://creativecommons.org/ns#"
   xmlns:rdf="http://www.w3.org/1999/02/22-rdf-syntax-ns#"
   xmlns:svg="http://www.w3.org/2000/svg"
   xmlns="http://www.w3.org/2000/svg"
   id="svg296"
   version="1.1"
   viewBox="0 0 40 40"
   height="40"
   width="40">
  <metadata
     id="metadata302">
    <rdf:RDF>
      <cc:Work
         rdf:about="">
        <dc:format>image/svg+xml</dc:format>
        <dc:type
           rdf:resource="http://purl.org/dc/dcmitype/StillImage" />
        <dc:title></dc:title>
      </cc:Work>
    </rdf:RDF>
  </metadata>
  <defs
     id="defs300" />
  <circle
     style="opacity:0.8;fill:#fb7f78;stroke-width:0.26666665"
     r="20"
     id="ellipse286"
     cy="20.595692"
     cx="-19.386013"
     transform="rotate(-88.267)" />
  <path
     style="fill:#646d7a;stroke-width:0.26667735"
     id="path288"
     d="m 6.0285078,25.252788 c 1.0133738,0 1.706735,2.373427 3.8134861,2.373427 2.1067511,0 3.3067991,-4.986861 7.7603111,-4.986861 1.733403,0 2.826779,1.36005 2.826779,3.226795 0,2.186755 -2.506766,5.0402 -7.120284,5.0402 -8.0269884,0 -8.1869947,-5.653561 -7.2802922,-5.653561 z" />
  <circle
     style="fill:#ffffff;stroke-width:0.26667735"
     id="circle290"
     r="4.5335145"
     cy="13.652329"
     cx="27.096016" />
  <path
     style="fill:#343a41;stroke-width:0.26667735"
     id="path292"
     d="m 27.096018,18.879199 c -2.906783,0 -5.253544,-2.346756 -5.253544,-5.253539 0,-2.906785 2.346761,-5.2535463 5.253544,-5.2535463 2.906783,0 5.253544,2.3467613 5.253544,5.2535463 -0.02667,2.906783 -2.373429,5.253539 -5.253544,5.253539 z m 0,-9.0670273 c -2.106751,0 -3.813486,1.7067353 -3.813486,3.8134883 0,2.10675 1.706735,3.813483 3.813486,3.813483 2.106751,0 3.813486,-1.706733 3.813486,-3.813483 0,-2.080085 -1.706735,-3.8134883 -3.813486,-3.8134883 z" />
  <path
     style="fill:#646d7a;stroke-width:0.26667735"
     id="path294"
     d="m 34.402977,25.252788 c -1.013374,0 -1.706735,2.373427 -3.813486,2.373427 -2.106751,0 -3.306799,-4.986861 -7.786978,-4.986861 -1.733403,0 -2.82678,1.36005 -2.82678,3.226795 0,2.186755 2.506767,5.0402 7.120285,5.0402 8.026987,0 8.213662,-5.653561 7.306959,-5.653561 z" />
</svg>
