<?xml version="1.0" encoding="UTF-8" standalone="no"?>
<svg
   xmlns:dc="http://purl.org/dc/elements/1.1/"
   xmlns:cc="http://creativecommons.org/ns#"
   xmlns:rdf="http://www.w3.org/1999/02/22-rdf-syntax-ns#"
   xmlns:svg="http://www.w3.org/2000/svg"
   xmlns="http://www.w3.org/2000/svg"
   id="svg362"
   version="1.1"
   viewBox="0 0 40 40"
   height="40"
   width="40">
  <metadata
     id="metadata368">
    <rdf:RDF>
      <cc:Work
         rdf:about="">
        <dc:format>image/svg+xml</dc:format>
        <dc:type
           rdf:resource="http://purl.org/dc/dcmitype/StillImage" />
        <dc:title></dc:title>
      </cc:Work>
    </rdf:RDF>
  </metadata>
  <defs
     id="defs366" />
  <circle
     style="fill:#84ca4b;stroke-width:0.26666665"
     id="circle344"
     r="20"
     cy="20"
     cx="20" />
  <path
     style="fill:#d1423b;stroke-width:0.26666665"
     id="path346"
     d="m 35.013333,17.413333 c 0,0 -1.466666,0.48 -3.146666,-0.08 -1.68,-0.56 -2.586667,-2.426666 -2.586667,-2.426666 0,0 1.626667,-0.266667 3.306667,0.293333 1.68,0.56 2.426666,2.213333 2.426666,2.213333 z" />
  <path
     style="fill:#d1423b;stroke-width:0.26666665"
     id="path348"
     d="m 35.333333,13.386667 c 0,0 -0.853333,1.28 -2.533333,1.866666 -1.68,0.586667 -3.52,-0.32 -3.52,-0.32 0,0 1.12,-1.2 2.8,-1.786666 1.68,-0.586667 3.253333,0.24 3.253333,0.24 z" />
  <path
     style="fill:#495361;stroke-width:0.26666665"
     id="path350"
     d="m 12.906667,5.946667 c 0,0 2.32,6.16 6.853333,6.16 6.026667,0 7.493333,-6.16 7.493333,-6.16 0,0 2.4,14.506666 8.746667,17.706666 l -3.866667,0.293334 3.653334,4.266666 -3.493334,-0.16 L 33.68,30.826667 27.546667,28.293333 C 25.706667,32.72 15.36,32.746667 13.413333,28.666667 L 7.2,31.653333 10.24,27.386667 5.1733333,29.2 7.5466667,25.52 4,25.573333 c 0,0 7.733333,-11.28 8.906667,-19.626666 z" />
  <path
     style="fill:#ffffff;stroke-width:0.26666665"
     id="path352"
     d="m 12.373333,20.72 c 0,3.066667 4.4,-0.05333 7.626667,-0.05333 3.226667,0 7.946667,3.413333 7.946667,0.05333 0,-1.866667 -3.413334,-3.946667 -7.946667,-3.946667 -4,0 -7.626667,2.16 -7.626667,3.946667 z" />
  <path
     style="fill:#a8b0bd;stroke-width:0.26666665"
     id="path354"
     d="m 14.826667,26.293333 c 0.746666,1.546667 6.906666,1.68 5.36,-2.293333 -1.2,-3.2 -6.986667,-1.04 -5.36,2.293333 z" />
  <path
     style="fill:#a8b0bd;stroke-width:0.26666665"
     id="path356"
     d="m 26.08,26.426667 c -1.36,1.76 -6.693333,0.586666 -5.253333,-2.4 1.466666,-3.12 7.52,-0.56 5.253333,2.4 z" />
  <path
     style="fill:#495361;stroke-width:0.26666665"
     id="path358"
     d="m 24.96,20.666667 c -0.48,0 -0.853333,-0.373334 -0.853333,-0.853334 v -0.48 c 0,-0.48 0.373333,-0.853333 0.853333,-0.853333 0.48,0 0.853333,0.373333 0.853333,0.853333 v 0.48 c 0,0.48 -0.373333,0.853334 -0.853333,0.853334 z m -9.04,0 c -0.48,0 -0.853333,-0.373334 -0.853333,-0.853334 v -0.48 c 0,-0.48 0.373333,-0.853333 0.853333,-0.853333 0.48,0 0.853333,0.373333 0.853333,0.853333 v 0.48 c 0,0.48 -0.373333,0.853334 -0.853333,0.853334 z" />
  <path
     style="fill:#d1423b;stroke-width:0.26666665"
     id="path360"
     d="m 20.56,24.773333 1.546667,-2 H 19.173333 Z M 30.213333,15.92 H 9.52 l 1.12,-2.453333 h 18.586667 z" />
</svg>
