<?xml version="1.0" encoding="UTF-8" standalone="no"?>
<svg
   xmlns:dc="http://purl.org/dc/elements/1.1/"
   xmlns:cc="http://creativecommons.org/ns#"
   xmlns:rdf="http://www.w3.org/1999/02/22-rdf-syntax-ns#"
   xmlns:svg="http://www.w3.org/2000/svg"
   xmlns="http://www.w3.org/2000/svg"
   id="svg416"
   version="1.1"
   viewBox="0 0 40 39.989983"
   height="39.989983"
   width="40">
  <metadata
     id="metadata422">
    <rdf:RDF>
      <cc:Work
         rdf:about="">
        <dc:format>image/svg+xml</dc:format>
        <dc:type
           rdf:resource="http://purl.org/dc/dcmitype/StillImage" />
        <dc:title></dc:title>
      </cc:Work>
    </rdf:RDF>
  </metadata>
  <defs
     id="defs420" />
  <circle
     style="stroke-width:0.26659989"
     id="circle398"
     r="19.994991"
     cy="19.994991"
     cx="20.005009" />
  <circle
     style="fill:#ffffff;stroke-width:0.26659989"
     id="circle400"
     r="13.383315"
     cy="20.048313"
     cx="19.098568" />
  <g
     style="fill:#ffffff"
     transform="matrix(0.26659989,0,0,0.26659989,0.01001569,0)"
     id="g406">
    <path
       id="path402"
       d="m 141.5,78.4 c 0,0 -5.9,2 -12.8,-0.3 -6.8,-2.3 -10.5,-9.8 -10.5,-9.8 0,0 6.5,-1.1 13.4,1.2 6.8,2.3 9.9,8.9 9.9,8.9 z" />
    <path
       id="path404"
       d="m 142.7,62.1 c 0,0 -3.5,5.2 -10.3,7.6 -6.8,2.4 -14.3,-1.3 -14.3,-1.3 0,0 4.5,-4.9 11.3,-7.2 6.9,-2.4 13.3,0.9 13.3,0.9 z" />
  </g>
  <path
     style="stroke-width:0.26659989"
     id="path408"
     d="m 6.9416128,20.128291 c 0,1.412983 0.23994,2.7993 0.69316,4.1323 H 30.535703 c 0.45322,-1.333 0.69316,-2.719317 0.69316,-4.1323 0,-0.826456 -0.07998,-1.466295 -0.23994,-2.532695 H 7.1815528 c -0.15996,1.0664 -0.23994,1.679578 -0.23994,2.532695 z" />
  <circle
     style="fill:#ffffff;stroke-width:0.26659989"
     id="circle410"
     r="1.2796795"
     cy="20.928089"
     cx="12.993431" />
  <circle
     style="fill:#ffffff;stroke-width:0.26659989"
     id="circle412"
     r="1.2796795"
     cy="20.928089"
     cx="25.203705" />
  <path
     style="fill:#ffffff;stroke-width:0.26659989"
     id="path414"
     d="m 20.005008,0 v 0.61318 h 0.586519 c 5.172039,0.15996 9.970836,2.319419 13.516615,6.078478 3.545779,3.759059 5.411978,8.691155 5.252018,13.863194 -0.15996,5.0654 -2.239439,9.810878 -5.891858,13.329994 -3.625758,3.545778 -8.397896,5.491961 -13.463294,5.491961 h -0.58652 C 14.24645,39.216846 9.4476517,37.057385 5.9018733,33.29833 2.3294348,29.512607 0.46323551,24.580513 0.62319545,19.408474 0.7831554,14.343074 2.8626346,9.597597 6.5150528,6.078478 10.167472,2.559359 14.939609,0.61318 20.005008,0.61318 V 0 m 0,0 C 9.2343717,0 0.35659555,8.557857 0.01001569,19.381813 -0.33656418,30.419046 8.3545922,39.643407 19.391828,39.963324 h 0.61318 c 10.770635,0 19.648412,-8.557856 19.968332,-19.381811 C 40.31992,9.544277 31.628763,0.31992 20.591527,0 Z" />
</svg>
