<?xml version="1.0" encoding="UTF-8" standalone="no"?>
<svg
   xmlns:dc="http://purl.org/dc/elements/1.1/"
   xmlns:cc="http://creativecommons.org/ns#"
   xmlns:rdf="http://www.w3.org/1999/02/22-rdf-syntax-ns#"
   xmlns:svg="http://www.w3.org/2000/svg"
   xmlns="http://www.w3.org/2000/svg"
   xmlns:xlink="http://www.w3.org/1999/xlink"
   id="svg164"
   version="1.1"
   viewBox="0 0 40 40"
   height="40"
   width="40">
  <metadata
     id="metadata170">
    <rdf:RDF>
      <cc:Work
         rdf:about="">
        <dc:format>image/svg+xml</dc:format>
        <dc:type
           rdf:resource="http://purl.org/dc/dcmitype/StillImage" />
        <dc:title></dc:title>
      </cc:Work>
    </rdf:RDF>
  </metadata>
  <defs
     id="defs168" />
  <circle
     style="opacity:0.8;fill:#fb7f78;stroke-width:0.26666665"
     r="20"
     id="ellipse152"
     cy="20.595692"
     cx="-19.386013"
     transform="rotate(-88.267)" />
  <path
     style="fill:#386cbb;stroke-width:0.26667735"
     id="path154"
     d="m 29.789459,25.146121 c 0,3.146789 -4.346841,5.706894 -9.680387,5.706894 -5.333547,0 -9.707055,-2.560105 -9.707055,-5.706894 v -5.733567 l 19.360774,-0.480016 z" />
  <path
     style="fill:#6c98d9;stroke-width:0.26667735"
     id="path156"
     d="M 20.082404,9.8655077 4.8017925,18.425849 20.082404,26.986193 35.389683,18.425849 Z" />
  <path
     style="fill:#f9a0a0;stroke-width:0.26667735"
     id="path158"
     d="M 20.082404,9.8655077 35.363015,18.425849 20.082404,26.986193 4.8017925,18.425849 20.082404,9.8655077 m 0,-0.773365 -0.320013,0.186675 -15.2806114,8.5603423 -1.0133738,0.586689 1.0133738,0.586689 15.2806114,8.560344 0.320013,0.186672 0.320013,-0.186672 15.280611,-8.560344 1.013374,-0.586689 L 35.683028,17.83916 20.402417,9.2788177 Z" />
  <path
     style="fill:#19345d;stroke-width:0.26667735"
     id="path160"
     d="m 33.122925,31.14636 c -0.133338,0 -0.266677,-0.08001 -0.34668,-0.213345 -0.05333,-0.08 -1.253383,-2.213422 -1.120045,-3.973489 0.02667,-0.186677 0.02667,-0.400016 0.05333,-0.666694 0.160006,-1.600067 0.533354,-5.386883 -0.853368,-5.8669 -1.866741,-0.640028 -10.533754,-2.373428 -10.613758,-2.373428 -0.213341,-0.05333 -0.34668,-0.240011 -0.320013,-0.480022 0.05333,-0.213339 0.24001,-0.346678 0.480019,-0.320011 0.346681,0.08 8.800353,1.7334 10.720429,2.426761 2.00008,0.693361 1.626732,4.453511 1.386722,6.6936 -0.02667,0.240011 -0.05333,0.453356 -0.05333,0.640028 -0.133338,1.493394 1.013374,3.493472 1.013374,3.493472 0.106671,0.186678 0.05333,0.426683 -0.160006,0.533356 -0.05333,0.08 -0.133339,0.106672 -0.186675,0.106672 z" />
  <ellipse
     style="fill:#19345d;stroke-width:0.26667735"
     id="ellipse162"
     ry="0.80003202"
     rx="1.0667094"
     cy="17.679157"
     cx="20.58909" />
  <use
     height="100%"
     width="100%"
     id="use4251"
     xlink:href="#ellipse152"
     y="0"
     x="0" />
  <use
     height="100%"
     width="100%"
     id="use4253"
     xlink:href="#path154"
     y="0"
     x="0" />
  <use
     height="100%"
     width="100%"
     id="use4255"
     xlink:href="#path156"
     y="0"
     x="0" />
  <use
     height="100%"
     width="100%"
     id="use4257"
     xlink:href="#path158"
     y="0"
     x="0" />
  <use
     height="100%"
     width="100%"
     id="use4259"
     xlink:href="#path160"
     y="0"
     x="0" />
  <use
     height="100%"
     width="100%"
     id="use4261"
     xlink:href="#ellipse162"
     y="0"
     x="0" />
  <circle
     transform="rotate(-88.267)"
     cx="-19.386013"
     cy="20.595692"
     id="use4263"
     r="20"
     style="opacity:0.8;fill:#fb7f78;stroke-width:0.26666665" />
  <path
     d="m 29.789459,25.146121 c 0,3.146789 -4.346841,5.706894 -9.680387,5.706894 -5.333547,0 -9.707055,-2.560105 -9.707055,-5.706894 v -5.733567 l 19.360774,-0.480016 z"
     id="use4265"
     style="fill:#386cbb;stroke-width:0.26667735" />
  <path
     d="M 20.082404,9.8655077 4.8017925,18.425849 20.082404,26.986193 35.389683,18.425849 Z"
     id="use4267"
     style="fill:#6c98d9;stroke-width:0.26667735" />
  <path
     d="M 20.082404,9.8655077 35.363015,18.425849 20.082404,26.986193 4.8017925,18.425849 20.082404,9.8655077 m 0,-0.773365 -0.320013,0.186675 -15.2806114,8.5603423 -1.0133738,0.586689 1.0133738,0.586689 15.2806114,8.560344 0.320013,0.186672 0.320013,-0.186672 15.280611,-8.560344 1.013374,-0.586689 L 35.683028,17.83916 20.402417,9.2788177 Z"
     id="use4269"
     style="fill:#f9a0a0;stroke-width:0.26667735" />
  <path
     d="m 33.122925,31.14636 c -0.133338,0 -0.266677,-0.08001 -0.34668,-0.213345 -0.05333,-0.08 -1.253383,-2.213422 -1.120045,-3.973489 0.02667,-0.186677 0.02667,-0.400016 0.05333,-0.666694 0.160006,-1.600067 0.533354,-5.386883 -0.853368,-5.8669 -1.866741,-0.640028 -10.533754,-2.373428 -10.613758,-2.373428 -0.213341,-0.05333 -0.34668,-0.240011 -0.320013,-0.480022 0.05333,-0.213339 0.24001,-0.346678 0.480019,-0.320011 0.346681,0.08 8.800353,1.7334 10.720429,2.426761 2.00008,0.693361 1.626732,4.453511 1.386722,6.6936 -0.02667,0.240011 -0.05333,0.453356 -0.05333,0.640028 -0.133338,1.493394 1.013374,3.493472 1.013374,3.493472 0.106671,0.186678 0.05333,0.426683 -0.160006,0.533356 -0.05333,0.08 -0.133339,0.106672 -0.186675,0.106672 z"
     id="use4271"
     style="fill:#19345d;stroke-width:0.26667735" />
  <ellipse
     cx="20.58909"
     cy="17.679157"
     rx="1.0667094"
     ry="0.80003202"
     id="use4273"
     style="fill:#19345d;stroke-width:0.26667735" />
  <use
     height="100%"
     width="100%"
     id="use4287"
     xlink:href="#use4263"
     y="0"
     x="0" />
  <use
     height="100%"
     width="100%"
     id="use4289"
     xlink:href="#use4265"
     y="0"
     x="0" />
  <use
     height="100%"
     width="100%"
     id="use4291"
     xlink:href="#use4267"
     y="0"
     x="0" />
  <use
     height="100%"
     width="100%"
     id="use4293"
     xlink:href="#use4269"
     y="0"
     x="0" />
  <use
     height="100%"
     width="100%"
     id="use4295"
     xlink:href="#use4271"
     y="0"
     x="0" />
  <use
     height="100%"
     width="100%"
     id="use4297"
     xlink:href="#use4273"
     y="0"
     x="0" />
</svg>
