<?xml version="1.0" encoding="UTF-8" standalone="no"?>
<svg
   xmlns:dc="http://purl.org/dc/elements/1.1/"
   xmlns:cc="http://creativecommons.org/ns#"
   xmlns:rdf="http://www.w3.org/1999/02/22-rdf-syntax-ns#"
   xmlns:svg="http://www.w3.org/2000/svg"
   xmlns="http://www.w3.org/2000/svg"
   id="svg488"
   version="1.1"
   viewBox="0 0 40 39.993263"
   height="39.993263"
   width="40">
  <metadata
     id="metadata494">
    <rdf:RDF>
      <cc:Work
         rdf:about="">
        <dc:format>image/svg+xml</dc:format>
        <dc:type
           rdf:resource="http://purl.org/dc/dcmitype/StillImage" />
        <dc:title></dc:title>
      </cc:Work>
    </rdf:RDF>
  </metadata>
  <defs
     id="defs492" />
  <circle
     style="stroke-width:0.26662174"
     r="19.996632"
     id="ellipse482"
     cy="20.598944"
     cx="-19.382559"
     transform="rotate(-88.267038)" />
  <path
     style="fill:#ffffff;stroke-width:0.26663312"
     id="path484"
     d="M 20.007501,8.3388717e-5 V 0.61333939 h 0.586592 c 5.172683,0.15998 9.972079,2.31970801 13.518299,6.07923501 3.546221,3.7595266 5.412653,8.6922396 5.252673,13.8649226 -0.15998,5.066028 -2.239718,9.8121 -5.892592,13.331655 -3.626211,3.546222 -8.398943,5.492645 -13.464972,5.492645 H 19.420908 C 14.248225,39.221813 9.4488292,37.062085 5.9026087,33.302558 2.329725,29.516369 0.46329324,24.583658 0.62327309,19.410975 0.78325298,14.344942 2.8629913,9.5988754 6.5158648,6.0793174 10.168739,2.5597614 14.941471,0.61333939 20.007501,0.61333939 V 8.3388717e-5 m 0,0 C 9.2355225,8.3388717e-5 0.35663999,8.5590064 0.01001693,19.384308 -0.33660612,30.422919 8.3556336,39.648424 19.394244,39.968385 h 0.613257 c 10.771978,0 19.65086,-8.558922 19.97082,-19.384227 C 40.324944,9.5455484 31.632705,0.32004239 20.594093,8.3388717e-5 Z" />
  <path
     style="fill:#ffffff;stroke-width:0.26663312"
     id="path486"
     d="m 20.380787,26.23678 -6.639165,3.492895 1.279839,-7.385739 -5.3593252,-5.226006 7.4124002,-1.093199 3.306251,-6.7191526 3.332914,6.7191526 7.4124,1.093199 -5.359325,5.226006 1.253175,7.385739 z" />
</svg>
