<svg id="8055a843-a27c-4952-b7f7-180da144b73d" data-name="ICONS" xmlns="http://www.w3.org/2000/svg" xmlns:xlink="http://www.w3.org/1999/xlink" viewBox="0 0 40 40"><defs><linearGradient id="789152c8-36ea-4ed5-a1a3-d1b02ef706e8" x1="4.19197" y1="5.16072" x2="31.8688" y2="38.14469" gradientUnits="userSpaceOnUse"><stop offset="0" stop-color="#fff" stop-opacity="0"/><stop offset="0.86247" stop-color="#5e5e5e" stop-opacity="0.06315"/><stop offset="1" stop-opacity="0.1"/></linearGradient><linearGradient id="8803df9f-446b-460c-b4c3-19d49db80e2c" x1="28.72746" y1="15.27254" x2="33.48724" y2="10.51276" gradientUnits="userSpaceOnUse"><stop offset="0" stop-color="#fff" stop-opacity="0"/><stop offset="0.44604" stop-color="#fff" stop-opacity="0.00799"/><stop offset="0.63551" stop-color="#fff" stop-opacity="0.03616"/><stop offset="0.77636" stop-color="#fff" stop-opacity="0.08493"/><stop offset="0.8924" stop-color="#fff" stop-opacity="0.15385"/><stop offset="0.99328" stop-color="#fff" stop-opacity="0.24291"/><stop offset="1" stop-color="#fff" stop-opacity="0.25"/></linearGradient><linearGradient id="1bf39e75-ae51-4e2f-8725-6a5023028bd6" x1="33" y1="18.90625" x2="33" y2="16.08751" gradientUnits="userSpaceOnUse"><stop offset="0" stop-color="#828282" stop-opacity="0"/><stop offset="0.86247" stop-color="#303030" stop-opacity="0.06315"/><stop offset="1" stop-opacity="0.1"/></linearGradient></defs><title>FileTypeIcons_Master_All_NEW</title><polygon points="37 32 3 32 3 8 29 8 30 8 37 15 37 16 37 32" fill="#fff"/><path d="M25.0004,12a7,7,0,0,1,7,7h-7Z" fill="#d14c32"/><path d="M32,20a8,8,0,0,1-8.11392,7.9992,8.1073,8.1073,0,0,1-7.88529-7.88529A8,8,0,0,1,24,12v8Z" fill="#c8c8c8"/><rect x="6" y="12" width="7" height="1" fill="#c8c8c8"/><rect x="6" y="15" width="7" height="1" fill="#c8c8c8"/><rect x="6" y="18" width="7" height="1" fill="#c8c8c8"/><rect x="6" y="21" width="7" height="1" fill="#c8c8c8"/><rect x="6" y="24" width="7" height="1" fill="#c8c8c8"/><rect x="6" y="27" width="7" height="1" fill="#c8c8c8"/><path d="M30,7H2V33H38V15Zm0,1.58333L36.5,15H30ZM37,32H3V8H29v8h8Z" fill="#949494"/><polygon points="30 8.583 36.5 15 30 15 30 8.583" fill="#fff"/><path d="M38,15,30,7H2V33H38Z" fill="url(#789152c8-36ea-4ed5-a1a3-d1b02ef706e8)"/><polygon points="10 7 10 8 29 8 29 16 37 16 37 33 38 33 38 15 30 7 10 7" fill="url(#8803df9f-446b-460c-b4c3-19d49db80e2c)"/><rect x="29" y="16" width="8" height="3" fill="url(#1bf39e75-ae51-4e2f-8725-6a5023028bd6)"/></svg>