<svg id="fbec3cd4-8412-47af-86ec-adc2ff1c5362" data-name="ICONS" xmlns="http://www.w3.org/2000/svg" xmlns:xlink="http://www.w3.org/1999/xlink" viewBox="0 0 40 40"><defs><linearGradient id="6518a574-254e-4251-8e68-3ecf84cc1b27" x1="6.09939" y1="4.4339" x2="35.39486" y2="39.34688" gradientUnits="userSpaceOnUse"><stop offset="0" stop-color="#fff" stop-opacity="0"/><stop offset="0.86247" stop-color="#5e5e5e" stop-opacity="0.06315"/><stop offset="1" stop-opacity="0.1"/></linearGradient><linearGradient id="db364a02-13de-43d1-bf14-1fc18ebdbee8" x1="32" y1="13.90625" x2="32" y2="11.08751" gradientUnits="userSpaceOnUse"><stop offset="0" stop-color="#828282" stop-opacity="0"/><stop offset="0.86247" stop-color="#303030" stop-opacity="0.06315"/><stop offset="1" stop-opacity="0.1"/></linearGradient><linearGradient id="d4c9a838-df92-4abe-a547-90a641727248" x1="14.27844" y1="36.94138" x2="14.65697" y2="33.3769" gradientUnits="userSpaceOnUse"><stop offset="0" stop-color="#828282" stop-opacity="0"/><stop offset="0.99719" stop-opacity="0.2"/></linearGradient><linearGradient id="c56cd6b6-6cee-40fe-9a92-799b9f37ca55" x1="26.79167" y1="9.70833" x2="31.72991" y2="4.77009" gradientUnits="userSpaceOnUse"><stop offset="0" stop-color="#fff" stop-opacity="0"/><stop offset="0.44604" stop-color="#fff" stop-opacity="0.00799"/><stop offset="0.63551" stop-color="#fff" stop-opacity="0.03616"/><stop offset="0.77636" stop-color="#fff" stop-opacity="0.08493"/><stop offset="0.8924" stop-color="#fff" stop-opacity="0.15385"/><stop offset="0.99328" stop-color="#fff" stop-opacity="0.24291"/><stop offset="1" stop-color="#fff" stop-opacity="0.25"/></linearGradient><linearGradient id="44d6df7b-b35d-4b98-8acd-93019dd09eb2" x1="11.5" y1="32.79198" x2="11.5" y2="12.21733" gradientUnits="userSpaceOnUse"><stop offset="0" stop-color="#fff" stop-opacity="0"/><stop offset="0.52587" stop-color="#fff" stop-opacity="0.00735"/><stop offset="0.71529" stop-color="#fff" stop-opacity="0.03396"/><stop offset="0.8503" stop-color="#fff" stop-opacity="0.0803"/><stop offset="0.95875" stop-color="#fff" stop-opacity="0.14595"/><stop offset="1" stop-color="#fff" stop-opacity="0.18"/></linearGradient></defs><title>FileTypeIcons_Master_All_NEW</title><polygon points="10 3 29 3 36 10 36 37 10 37 10 3" fill="#fff"/><path d="M29,2H9V38H37V10Zm0,1.5L35.5,10H29ZM36,37H10V3H28v8h8Z" fill="#949494"/><path d="M32,21V32H20V21H32m1-1H19V33H33V20Z" fill="#c8c8c8"/><path d="M27,15v5H14V15H27m1-1H13v7H28V14Z" fill="#c8c8c8"/><rect x="26" y="23" width="4" height="1" fill="#7dbab2"/><rect x="26" y="26" width="4" height="1" fill="#7dbab2"/><rect x="26" y="29" width="4" height="1" fill="#7dbab2"/><rect x="21" y="17" width="4" height="1" fill="#7dbab2"/><rect x="20" y="23" width="4" height="7" fill="#c8c8c8"/><polygon points="3 13 20 11 20 34 3 32 3 13" fill="#077568"/><path d="M10.15744,23.89958V27H8V18h3.37977Q14.99989,18,15,20.8682a2.68365,2.68365,0,0,1-1.03865,2.19352,4.29054,4.29054,0,0,1-2.77528.83786Zm0-4.34309v2.80543h.84829q1.72327,0,1.72328-1.41841,0-1.38692-1.72328-1.387Z" fill="#fff"/><path d="M29,2H9V12.29419L3,13V32l6,.70581V38H37V10Z" fill="url(#6518a574-254e-4251-8e68-3ecf84cc1b27)"/><rect x="28" y="11" width="8" height="3" fill="url(#db364a02-13de-43d1-bf14-1fc18ebdbee8)"/><polygon points="20 37 9 37 9 32.71 20 34 20 37" fill="url(#d4c9a838-df92-4abe-a547-90a641727248)"/><polygon points="29 2 9 2 9 3 28 3 28 11 36 11 36 25 37 25 37 10 29 2" fill="url(#c56cd6b6-6cee-40fe-9a92-799b9f37ca55)"/><polygon points="20 34 3 32 3 13 20 11 20 34" fill="url(#44d6df7b-b35d-4b98-8acd-93019dd09eb2)"/></svg>