<svg id="3c83d52e-6a5b-45a7-8c8a-cf5989b44ed2" data-name="ICONS" xmlns="http://www.w3.org/2000/svg" xmlns:xlink="http://www.w3.org/1999/xlink" viewBox="0 0 40 40"><defs><linearGradient id="e61bb34a-3425-42a4-b641-a6d7c15e3328" x1="3.38265" y1="4.19622" x2="32.67812" y2="39.10919" gradientUnits="userSpaceOnUse"><stop offset="0" stop-color="#fff" stop-opacity="0"/><stop offset="0.86247" stop-color="#5e5e5e" stop-opacity="0.06315"/><stop offset="1" stop-opacity="0.1"/></linearGradient><linearGradient id="f3780b12-2245-4c28-9bfd-5881232d678b" x1="29" y1="13.90625" x2="29" y2="11.08751" gradientUnits="userSpaceOnUse"><stop offset="0" stop-color="#828282" stop-opacity="0"/><stop offset="0.86247" stop-color="#303030" stop-opacity="0.06315"/><stop offset="1" stop-opacity="0.1"/></linearGradient><linearGradient id="58deffa6-9eee-49ec-a62c-db41751438c3" x1="25.15278" y1="14.84722" x2="31.97226" y2="8.02774" gradientUnits="userSpaceOnUse"><stop offset="0" stop-color="#fff" stop-opacity="0"/><stop offset="0.44604" stop-color="#fff" stop-opacity="0.00799"/><stop offset="0.63551" stop-color="#fff" stop-opacity="0.03616"/><stop offset="0.77636" stop-color="#fff" stop-opacity="0.08493"/><stop offset="0.8924" stop-color="#fff" stop-opacity="0.15385"/><stop offset="0.99328" stop-color="#fff" stop-opacity="0.24291"/><stop offset="1" stop-color="#fff" stop-opacity="0.25"/></linearGradient></defs><title>FileTypeIcons_Master_All_NEW</title><polygon points="7 3 26 3 33 10 33 37 7 37 7 3" fill="#fff"/><path d="M26,2H6V38H34V10Zm0,1.5L32.5,10H26ZM33,37H7V3H25v8h8Z" fill="#949494"/><rect x="10" y="20" width="9" height="1" fill="#c8c8c8"/><rect x="10" y="23" width="9" height="1" fill="#c8c8c8"/><rect x="10" y="26" width="9" height="1" fill="#c8c8c8"/><rect x="10" y="29" width="20" height="1" fill="#c8c8c8"/><rect x="10" y="32" width="20" height="1" fill="#c8c8c8"/><path d="M16.62706,6.04179l-.59095,7.28538q-.04608.51021-.046.67175a.73934.73934,0,0,0,.08606.39391.68066.68066,0,0,0,.29562.27785A1.559,1.559,0,0,0,17,14.761L16.93694,15H13.87287l.0632-.239H14.068a.97.97,0,0,0,.60827-.18081.789.789,0,0,0,.25819-.40685,5.61775,5.61775,0,0,0,.12043-.943l.09174-1.1109H12.92049l-.79176,1.20778a3.691,3.691,0,0,0-.33857.58455.92446.92446,0,0,0-.06888.3326.483.483,0,0,0,.14926.35522.72042.72042,0,0,0,.49337.16146L12.30086,15H10l.06306-.239a1.15008,1.15008,0,0,0,.74879-.31965,7.85353,7.85353,0,0,0,.9668-1.282l4.64759-7.11752ZM15.491,8.19262l-2.255,3.45533h1.9566Z" fill="#0078d7"/><rect x="19" y="11" width="3" height="1" fill="#69afe5"/><rect x="19" y="14" width="11" height="1" fill="#69afe5"/><rect x="10" y="17" width="20" height="1" fill="#0078d7"/><rect x="21" y="20" width="9" height="7" fill="#69afe5"/><path d="M34,10,26,2H6V38H34Z" fill="url(#e61bb34a-3425-42a4-b641-a6d7c15e3328)"/><rect x="25" y="11" width="8" height="3" fill="url(#f3780b12-2245-4c28-9bfd-5881232d678b)"/><polygon points="26 2 6 2 6 3 25 3 25 11 33 11 33 38 34 38 34 10 26 2" fill="url(#58deffa6-9eee-49ec-a62c-db41751438c3)"/></svg>