<?xml version="1.0" encoding="utf-8"?>
<!-- Generator: Adobe Illustrator 21.1.0, SVG Export Plug-In . SVG Version: 6.00 Build 0)  -->
<svg version="1.1" xmlns="http://www.w3.org/2000/svg" xmlns:xlink="http://www.w3.org/1999/xlink" x="0px" y="0px"
	 viewBox="0 0 40 40" enable-background="new 0 0 40 40" xml:space="preserve">
<g id="TEMPLATE" display="none">
	<g display="inline">
		<path fill="#D0D0D0" d="M40,0v40H0V0H40 M41-1h-1H0h-1v1v40v1h1h40h1v-1V0V-1L41-1z"/>
	</g>
	<g display="inline" opacity="0.1">
		<path fill="#FF3A6D" d="M38,2v36H2V2H38 M40,0H0v40h40V0L40,0z"/>
	</g>
</g>
<g id="ICONS">
	<g>
		<polygon fill="#FFFFFF" points="7,3 26,3 33,10 33,37 7,37 		"/>
		<path fill="#949494" d="M26,2H6v36h28V10L26,2z M26,3.5l6.5,6.5H26V3.5z M33,37H7V3h18v8h8V37z"/>
	</g>
	<rect x="10" y="20" fill="#C8C8C8" width="9" height="1"/>
	<rect x="10" y="23" fill="#C8C8C8" width="9" height="1"/>
	<rect x="10" y="26" fill="#C8C8C8" width="9" height="1"/>
	<rect x="10" y="29" fill="#C8C8C8" width="20" height="1"/>
	<rect x="10" y="32" fill="#C8C8C8" width="20" height="1"/>
	<path fill="#0078D7" d="M16.6271,6.0418l-0.5909,7.2854c-0.0307,0.3401-0.046,0.5642-0.046,0.6718
		c0,0.1723,0.0287,0.3036,0.0861,0.3939c0.0727,0.1249,0.1713,0.2175,0.2956,0.2778C16.496,14.731,16.7054,14.761,17,14.761
		L16.9369,15h-3.0641l0.0632-0.239h0.1319c0.2486,0,0.4513-0.0602,0.6083-0.1808c0.1108-0.0818,0.1969-0.2174,0.2582-0.4069
		c0.0419-0.1334,0.0821-0.4478,0.1204-0.943l0.0917-1.1109h-2.2262l-0.7918,1.2078c-0.1798,0.2713-0.2927,0.4662-0.3386,0.5845
		c-0.0459,0.1185-0.0689,0.2293-0.0689,0.3326c0,0.1379,0.0497,0.2562,0.1493,0.3552c0.0993,0.0992,0.2639,0.1529,0.4934,0.1615
		L12.3009,15H10l0.0631-0.239c0.2832-0.0129,0.5327-0.1195,0.7488-0.3196c0.2161-0.2003,0.5384-0.6275,0.9668-1.282l4.6476-7.1175
		H16.6271z M15.491,8.1926l-2.255,3.4553h1.9566L15.491,8.1926z"/>
	<rect x="19" y="11" fill="#69AFE5" width="3" height="1"/>
	<rect x="19" y="14" fill="#69AFE5" width="11" height="1"/>
	<rect x="10" y="17" fill="#0078D7" width="20" height="1"/>
	<rect x="21" y="20" fill="#69AFE5" width="9" height="7"/>
	<linearGradient id="SVGID_1_" gradientUnits="userSpaceOnUse" x1="3.3827" y1="4.1962" x2="32.6781" y2="39.1092">
		<stop  offset="0" style="stop-color:#FFFFFF;stop-opacity:0"/>
		<stop  offset="0.2264" style="stop-color:#FCFCFC;stop-opacity:0.0226"/>
		<stop  offset="0.3626" style="stop-color:#F4F4F4;stop-opacity:0.0363"/>
		<stop  offset="0.475" style="stop-color:#E6E6E6;stop-opacity:0.0475"/>
		<stop  offset="0.5744" style="stop-color:#D1D1D1;stop-opacity:0.0574"/>
		<stop  offset="0.6652" style="stop-color:#B7B7B7;stop-opacity:0.0665"/>
		<stop  offset="0.7498" style="stop-color:#979797;stop-opacity:0.075"/>
		<stop  offset="0.8297" style="stop-color:#707070;stop-opacity:0.083"/>
		<stop  offset="0.9057" style="stop-color:#444444;stop-opacity:0.0906"/>
		<stop  offset="0.9761" style="stop-color:#121212;stop-opacity:0.0976"/>
		<stop  offset="1" style="stop-color:#000000;stop-opacity:0.1"/>
	</linearGradient>
	<path fill="url(#SVGID_1_)" d="M34,10l-8-8H6v36h28V10z"/>
	<linearGradient id="SVGID_2_" gradientUnits="userSpaceOnUse" x1="29" y1="13.9063" x2="29" y2="11.0875">
		<stop  offset="0" style="stop-color:#828282;stop-opacity:0"/>
		<stop  offset="0.2812" style="stop-color:#7F7F7F;stop-opacity:0.0281"/>
		<stop  offset="0.4503" style="stop-color:#777777;stop-opacity:0.045"/>
		<stop  offset="0.5899" style="stop-color:#696969;stop-opacity:0.059"/>
		<stop  offset="0.7133" style="stop-color:#545454;stop-opacity:0.0713"/>
		<stop  offset="0.8259" style="stop-color:#3A3A3A;stop-opacity:0.0826"/>
		<stop  offset="0.9294" style="stop-color:#1A1A1A;stop-opacity:0.0929"/>
		<stop  offset="1" style="stop-color:#000000;stop-opacity:0.1"/>
	</linearGradient>
	<rect x="25" y="11" fill="url(#SVGID_2_)" width="8" height="3"/>
	<linearGradient id="SVGID_3_" gradientUnits="userSpaceOnUse" x1="25.1528" y1="14.8472" x2="31.9723" y2="8.0277">
		<stop  offset="0" style="stop-color:#FFFFFF;stop-opacity:0"/>
		<stop  offset="0.8537" style="stop-color:#FFFFFF;stop-opacity:0.2134"/>
		<stop  offset="1" style="stop-color:#FFFFFF;stop-opacity:0.25"/>
	</linearGradient>
	<polygon fill="url(#SVGID_3_)" points="26,2 6,2 6,3 25,3 25,11 32.9999,10.9999 33,38 34,38 34,10 	"/>
</g>
</svg>
