<svg id="fae42503-5f05-46a1-8935-a442fab3cb96" data-name="ICONS" xmlns="http://www.w3.org/2000/svg" xmlns:xlink="http://www.w3.org/1999/xlink" viewBox="0 0 40 40"><defs><linearGradient id="d42118b8-99b8-4987-b6fd-254579b90020" x1="8.1312" y1="5.85531" x2="33.83842" y2="36.49198" gradientUnits="userSpaceOnUse"><stop offset="0" stop-opacity="0"/><stop offset="0.86247" stop-opacity="0.12631"/><stop offset="1" stop-opacity="0.2"/></linearGradient><linearGradient id="1edbef53-07d5-4bed-8757-97ac593d90bf" x1="29.58931" y1="6.26416" x2="28.78837" y2="15.41893" gradientUnits="userSpaceOnUse"><stop offset="0" stop-color="#828282" stop-opacity="0"/><stop offset="0.85866" stop-color="#454545" stop-opacity="0.1171"/><stop offset="1" stop-opacity="0.25"/></linearGradient><linearGradient id="2c8a7b5c-025e-4b0c-a828-42363ffbc37b" x1="8.5" y1="32.44792" x2="8.5" y2="27.53853" gradientUnits="userSpaceOnUse"><stop offset="0" stop-color="#828282" stop-opacity="0"/><stop offset="0.99719" stop-opacity="0.07"/></linearGradient><linearGradient id="1b86aaa4-1c14-43b8-9fed-dc1b67bcd97b" x1="8.5" y1="26.46875" x2="8.5" y2="23.52312" xlink:href="#2c8a7b5c-025e-4b0c-a828-42363ffbc37b"/><linearGradient id="af72f893-76ad-433f-bf9f-1fbc407ce390" x1="13.5" y1="27.44792" x2="13.5" y2="22.53853" xlink:href="#2c8a7b5c-025e-4b0c-a828-42363ffbc37b"/><linearGradient id="6af2bdea-5b8e-43d1-a78d-d4a6623eb68f" x1="13.5" y1="21.46875" x2="13.5" y2="18.52312" xlink:href="#2c8a7b5c-025e-4b0c-a828-42363ffbc37b"/><linearGradient id="9abf08c2-6b3e-4776-b01d-37760a64f1d7" x1="5.5" y1="31.81324" x2="5.5" y2="30.29412" xlink:href="#2c8a7b5c-025e-4b0c-a828-42363ffbc37b"/><linearGradient id="6f76c00d-0e88-452b-94e8-a264fbfd23b5" x1="11.5" y1="31.81324" x2="11.5" y2="30.29412" xlink:href="#2c8a7b5c-025e-4b0c-a828-42363ffbc37b"/><linearGradient id="d243c6b3-aa77-4c47-a0e2-21c4f9ed5f24" x1="16.5" y1="26.81324" x2="16.5" y2="25.29412" xlink:href="#2c8a7b5c-025e-4b0c-a828-42363ffbc37b"/><linearGradient id="758cf6a6-1f42-435b-91f1-97a7163ed895" x1="13.5" y1="22.48438" x2="13.5" y2="17.53145" gradientUnits="userSpaceOnUse"><stop offset="0" stop-color="#fff" stop-opacity="0"/><stop offset="0.20669" stop-color="#fff" stop-opacity="0.01635"/><stop offset="0.4209" stop-color="#fff" stop-opacity="0.06512"/><stop offset="0.63854" stop-color="#fff" stop-opacity="0.14638"/><stop offset="0.85718" stop-color="#fff" stop-opacity="0.25942"/><stop offset="1" stop-color="#fff" stop-opacity="0.35"/></linearGradient><linearGradient id="78716614-41eb-4b84-8119-bafe50e9192b" x1="8.5" y1="27.48438" x2="8.5" y2="22.53145" xlink:href="#758cf6a6-1f42-435b-91f1-97a7163ed895"/></defs><title>FileTypeIcons_Master_All_NEW</title><polygon points="2 33 2 11 20 11 24 7 38 7 38 33 2 33" fill="#a6a6a6"/><polygon points="24 7 20 11 24 15 38 15 38 7 24 7" fill="#828282"/><polygon points="2 33 2 11 20 11 24 7 38 7 38 33 2 33" fill="url(#d42118b8-99b8-4987-b6fd-254579b90020)"/><polygon points="24 7 20 11 24 15 38 15 38 7 24 7" fill="url(#1edbef53-07d5-4bed-8757-97ac593d90bf)"/><polygon points="38 15 38 16 23.5 16 18.5 11 20 11 24 15 38 15" fill="#fff" opacity="0.15"/><path d="M10.11279,26.89575a2.5,2.5,0,1,0-3.22558,0A3.497,3.497,0,0,0,5,30H6a2.5,2.5,0,0,1,5,0h1A3.49681,3.49681,0,0,0,10.11279,26.89575ZM7,25a1.5,1.5,0,1,1,1.5,1.5A1.50164,1.50164,0,0,1,7,25Z" fill="#eaeaea"/><path d="M15.11279,21.89575a2.5,2.5,0,1,0-3.22558,0A3.497,3.497,0,0,0,10,25h1a2.5,2.5,0,0,1,5,0h1A3.49681,3.49681,0,0,0,15.11279,21.89575ZM12,20a1.5,1.5,0,1,1,1.5,1.5A1.50164,1.50164,0,0,1,12,20Z" fill="#eaeaea"/><circle cx="8.5" cy="30" r="2.5" fill="url(#2c8a7b5c-025e-4b0c-a828-42363ffbc37b)"/><circle cx="8.5" cy="25" r="1.5" fill="url(#1b86aaa4-1c14-43b8-9fed-dc1b67bcd97b)"/><circle cx="13.5" cy="25" r="2.5" fill="url(#af72f893-76ad-433f-bf9f-1fbc407ce390)"/><circle cx="13.5" cy="20" r="1.5" fill="url(#6af2bdea-5b8e-43d1-a78d-d4a6623eb68f)"/><rect x="5" y="30" width="1" height="2" fill="url(#9abf08c2-6b3e-4776-b01d-37760a64f1d7)"/><rect x="11" y="30" width="1" height="2" fill="url(#6f76c00d-0e88-452b-94e8-a264fbfd23b5)"/><rect x="16" y="25" width="1" height="2" fill="url(#d243c6b3-aa77-4c47-a0e2-21c4f9ed5f24)"/><path d="M13.5,18.5A1.5,1.5,0,1,1,12,20a1.50164,1.50164,0,0,1,1.5-1.5m0-1A2.5,2.5,0,1,0,16,20a2.5,2.5,0,0,0-2.5-2.5Z" fill="url(#758cf6a6-1f42-435b-91f1-97a7163ed895)"/><path d="M8.5,23.5A1.5,1.5,0,1,1,7,25a1.50164,1.50164,0,0,1,1.5-1.5m0-1A2.5,2.5,0,1,0,11,25a2.5,2.5,0,0,0-2.5-2.5Z" fill="url(#78716614-41eb-4b84-8119-bafe50e9192b)"/></svg>