<svg id="08944429-3059-48b8-8f49-6edd1e4dd5d7" data-name="ICONS" xmlns="http://www.w3.org/2000/svg" xmlns:xlink="http://www.w3.org/1999/xlink" viewBox="0 0 40 40"><defs><linearGradient id="7f0f5b91-c72e-4045-a6e4-122d4005fdc2" x1="4.19197" y1="5.16072" x2="31.8688" y2="38.14469" gradientUnits="userSpaceOnUse"><stop offset="0" stop-color="#fff" stop-opacity="0"/><stop offset="0.86247" stop-color="#5e5e5e" stop-opacity="0.06315"/><stop offset="1" stop-opacity="0.1"/></linearGradient><linearGradient id="d94ccc3e-4fbb-4c19-9317-50d9992b7754" x1="28.72746" y1="15.27254" x2="33.48724" y2="10.51276" gradientUnits="userSpaceOnUse"><stop offset="0" stop-color="#fff" stop-opacity="0"/><stop offset="0.44604" stop-color="#fff" stop-opacity="0.00799"/><stop offset="0.63551" stop-color="#fff" stop-opacity="0.03616"/><stop offset="0.77636" stop-color="#fff" stop-opacity="0.08493"/><stop offset="0.8924" stop-color="#fff" stop-opacity="0.15385"/><stop offset="0.99328" stop-color="#fff" stop-opacity="0.24291"/><stop offset="1" stop-color="#fff" stop-opacity="0.25"/></linearGradient><linearGradient id="8329ea0f-b48c-476c-95e4-0e7f313fcda7" x1="33" y1="18.90625" x2="33" y2="16.08751" gradientUnits="userSpaceOnUse"><stop offset="0" stop-color="#828282" stop-opacity="0"/><stop offset="0.86247" stop-color="#303030" stop-opacity="0.06315"/><stop offset="1" stop-opacity="0.1"/></linearGradient></defs><title>FileTypeIcons_Master_All_NEW</title><polygon points="37 32 3 32 3 8 29 8 30 8 37 15 37 16 37 32" fill="#fff"/><rect x="27" y="15" width="6" height="1.99974" transform="translate(60 31.99975) rotate(-179.99998)" fill="#c8c8c8"/><rect x="27" y="12" width="6" height="1.99974" transform="translate(60 25.99975) rotate(-179.99998)" fill="#c8c8c8"/><path d="M30,7H2V33H38V15Zm0,1.58333L36.5,15H30ZM37,32H3V8H29v8h8Z" fill="#949494"/><polygon points="30 8.583 36.5 15 30 15 30 8.583" fill="#fff"/><rect x="6" y="21" width="6" height="1.99995" transform="translate(17.99999 43.99995) rotate(-179.99998)" fill="#217346"/><rect x="6" y="15" width="6" height="1.99974" transform="translate(18 31.99974) rotate(-179.99998)" fill="#217346"/><rect x="6" y="12" width="6" height="1.99974" transform="translate(18 25.99974) rotate(-179.99998)" fill="#217346"/><rect x="6" y="18" width="6" height="1.99995" transform="translate(17.99999 37.99995) rotate(-179.99998)" fill="#217346"/><rect x="6" y="24" width="6" height="1.99995" transform="translate(17.99999 49.99995) rotate(-179.99998)" fill="#217346"/><rect x="13" y="21" width="6" height="1.99995" transform="translate(31.99999 43.99995) rotate(-179.99998)" fill="#c8c8c8"/><rect x="13" y="15" width="6" height="1.99974" transform="translate(32 31.99975) rotate(-179.99998)" fill="#c8c8c8"/><rect x="13" y="12" width="6" height="1.99974" transform="translate(32 25.99975) rotate(-179.99998)" fill="#c8c8c8"/><rect x="13" y="18" width="6" height="1.99995" transform="translate(31.99999 37.99995) rotate(-179.99998)" fill="#c8c8c8"/><rect x="13" y="24" width="6" height="1.99995" transform="translate(31.99999 49.99995) rotate(-179.99998)" fill="#c8c8c8"/><rect x="6" y="27" width="6" height="1.99995" transform="translate(17.99999 55.99995) rotate(-179.99998)" fill="#217346"/><rect x="13" y="27" width="6" height="1.99995" transform="translate(31.99999 55.99995) rotate(-179.99998)" fill="#c8c8c8"/><rect x="20" y="21" width="6" height="1.99995" transform="translate(45.99999 43.99996) rotate(-179.99998)" fill="#c8c8c8"/><rect x="20" y="15" width="6" height="1.99974" transform="translate(46 31.99975) rotate(-179.99998)" fill="#c8c8c8"/><rect x="20" y="12" width="6" height="1.99974" transform="translate(46 25.99975) rotate(-179.99998)" fill="#c8c8c8"/><rect x="20" y="18" width="6" height="1.99995" transform="translate(45.99999 37.99996) rotate(-179.99998)" fill="#c8c8c8"/><rect x="20" y="24" width="6" height="1.99995" transform="translate(45.99999 49.99996) rotate(-179.99998)" fill="#c8c8c8"/><rect x="20" y="27" width="6" height="1.99995" transform="translate(45.99999 55.99996) rotate(-179.99998)" fill="#c8c8c8"/><rect x="27" y="21" width="6" height="1.99995" transform="translate(59.99999 43.99996) rotate(-179.99998)" fill="#c8c8c8"/><rect x="27" y="18" width="6" height="1.99995" transform="translate(59.99999 37.99996) rotate(-179.99998)" fill="#c8c8c8"/><rect x="27" y="24" width="6" height="1.99995" transform="translate(59.99999 49.99996) rotate(-179.99998)" fill="#c8c8c8"/><rect x="27" y="27" width="6" height="1.99995" transform="translate(59.99999 55.99996) rotate(-179.99998)" fill="#c8c8c8"/><path d="M38,15,30,7H2V33H38Z" fill="url(#7f0f5b91-c72e-4045-a6e4-122d4005fdc2)"/><polygon points="10 7 10 8 29 8 29 16 37 16 37 33 38 33 38 15 30 7 10 7" fill="url(#d94ccc3e-4fbb-4c19-9317-50d9992b7754)"/><rect x="29" y="16" width="8" height="3" fill="url(#8329ea0f-b48c-476c-95e4-0e7f313fcda7)"/></svg>