<svg id="731f1a58-b8e6-4ecd-bc1e-1ef462828d5f" data-name="ICONS" xmlns="http://www.w3.org/2000/svg" xmlns:xlink="http://www.w3.org/1999/xlink" viewBox="0 0 40 40"><defs><linearGradient id="9d6a84fa-4706-4edc-bd1e-61aa3dbf5a8f" x1="6.09939" y1="4.4339" x2="35.39486" y2="39.34688" gradientUnits="userSpaceOnUse"><stop offset="0" stop-color="#fff" stop-opacity="0"/><stop offset="0.86247" stop-color="#5e5e5e" stop-opacity="0.06315"/><stop offset="1" stop-opacity="0.1"/></linearGradient><linearGradient id="69a5388b-76f8-44be-bc4e-efda6befdef2" x1="32" y1="13.90625" x2="32" y2="11.08751" gradientUnits="userSpaceOnUse"><stop offset="0" stop-color="#828282" stop-opacity="0"/><stop offset="0.86247" stop-color="#303030" stop-opacity="0.06315"/><stop offset="1" stop-opacity="0.1"/></linearGradient><linearGradient id="82ecf3a1-c5de-4f36-ab91-dfdb32a02cd2" x1="26.79167" y1="9.70833" x2="31.72991" y2="4.77009" gradientUnits="userSpaceOnUse"><stop offset="0" stop-color="#fff" stop-opacity="0"/><stop offset="0.44604" stop-color="#fff" stop-opacity="0.00799"/><stop offset="0.63551" stop-color="#fff" stop-opacity="0.03616"/><stop offset="0.77636" stop-color="#fff" stop-opacity="0.08493"/><stop offset="0.8924" stop-color="#fff" stop-opacity="0.15385"/><stop offset="0.99328" stop-color="#fff" stop-opacity="0.24291"/><stop offset="1" stop-color="#fff" stop-opacity="0.25"/></linearGradient><linearGradient id="e332e288-2e2b-474d-80a4-aca224d5ebdf" x1="14.27844" y1="36.94138" x2="14.65697" y2="33.3769" gradientUnits="userSpaceOnUse"><stop offset="0" stop-color="#828282" stop-opacity="0"/><stop offset="0.99719" stop-opacity="0.2"/></linearGradient><linearGradient id="1501c865-801f-4ca5-be96-441a97dee402" x1="11.5" y1="32.79198" x2="11.5" y2="12.21733" gradientUnits="userSpaceOnUse"><stop offset="0" stop-color="#fff" stop-opacity="0"/><stop offset="0.52587" stop-color="#fff" stop-opacity="0.00735"/><stop offset="0.71529" stop-color="#fff" stop-opacity="0.03396"/><stop offset="0.8503" stop-color="#fff" stop-opacity="0.0803"/><stop offset="0.95875" stop-color="#fff" stop-opacity="0.14595"/><stop offset="1" stop-color="#fff" stop-opacity="0.18"/></linearGradient></defs><title>FileTypeIcons_Master_All_NEW</title><polygon points="10 3 29 3 36 10 36 37 10 37 10 3" fill="#fff"/><polygon points="21.5 16 14 24 29 24 21.5 16" fill="#99cdc7"/><path d="M29,2H9V38H37V10Zm0,1.5L35.5,10H29ZM36,37H10V3H28v8h8Z" fill="#949494"/><polygon points="3 13 20 11 20 34 3 32 3 13" fill="#008272"/><path d="M8.04268,27.40661V25.033a4.33158,4.33158,0,0,0,1.34452.81221,4.15924,4.15924,0,0,0,1.46544.27073,3.11535,3.11535,0,0,0,.75762-.08159,1.7282,1.7282,0,0,0,.54065-.22623.97071.97071,0,0,0,.32368-.3412.87829.87829,0,0,0,.10671-.4265.949.949,0,0,0-.17073-.55631,1.87987,1.87987,0,0,0-.466-.45246,4.85,4.85,0,0,0-.70071-.40054q-.40548-.19232-.875-.39312a4.46436,4.46436,0,0,1-1.782-1.26837A2.84441,2.84441,0,0,1,8,20.15981,2.98263,2.98263,0,0,1,8.32012,18.732a2.79689,2.79689,0,0,1,.87145-.9828,3.83073,3.83073,0,0,1,1.27693-.56743A6.29635,6.29635,0,0,1,12.00508,17a8.87341,8.87341,0,0,1,1.41209.10013,5.38671,5.38671,0,0,1,1.13466.30783v2.2178a3.43563,3.43563,0,0,0-.55844-.32637,4.35624,4.35624,0,0,0-.62246-.23364,4.55782,4.55782,0,0,0-.63668-.13723,4.32766,4.32766,0,0,0-.60112-.0445,3.01137,3.01137,0,0,0-.71138.07788,1.784,1.784,0,0,0-.54065.21881,1.06793,1.06793,0,0,0-.34147.3375.82331.82331,0,0,0-.12093.44133.86834.86834,0,0,0,.13516.47842,1.57994,1.57994,0,0,0,.38415.40054,4.04371,4.04371,0,0,0,.60467.37087q.35558.182.80386.37458a8.826,8.826,0,0,1,1.09909.56743,3.94107,3.94107,0,0,1,.83587.67869,2.66678,2.66678,0,0,1,.53354.86413A3.17154,3.17154,0,0,1,15,24.82535,3.13768,3.13768,0,0,1,14.67632,26.32a2.6963,2.6963,0,0,1-.87856.9791,3.72218,3.72218,0,0,1-1.29115.53776A7.18005,7.18005,0,0,1,10.95224,28a8.32668,8.32668,0,0,1-1.59706-.14835A4.66168,4.66168,0,0,1,8.04268,27.40661Z" fill="#fff"/><polygon points="28 19 23 24 33 24 28 19" fill="#99cdc7"/><rect x="20" y="26" width="6" height="1" fill="#c8c8c8"/><rect x="20" y="32" width="6" height="1" fill="#c8c8c8"/><rect x="27" y="26" width="6" height="1" fill="#c8c8c8"/><rect x="20" y="29" width="6" height="1" fill="#c8c8c8"/><rect x="27" y="29" width="6" height="1" fill="#c8c8c8"/><rect x="27" y="32" width="6" height="1" fill="#c8c8c8"/><rect x="30" y="14" width="3" height="3" rx="1.5" ry="1.5" fill="#99cdc7"/><path d="M29,2H9V12.29419L3,13V32l6,.70581V38H37V10Z" fill="url(#9d6a84fa-4706-4edc-bd1e-61aa3dbf5a8f)"/><rect x="28" y="11" width="8" height="3" fill="url(#69a5388b-76f8-44be-bc4e-efda6befdef2)"/><polygon points="29 2 9 2 9 3 28 3 28 11 36 11 36 25 37 25 37 10 29 2" fill="url(#82ecf3a1-c5de-4f36-ab91-dfdb32a02cd2)"/><polygon points="20 37 9 37 9 32.71 20 34 20 37" fill="url(#e332e288-2e2b-474d-80a4-aca224d5ebdf)"/><polygon points="20 34 3 32 3 13 20 11 20 34" fill="url(#1501c865-801f-4ca5-be96-441a97dee402)"/></svg>