<?xml version="1.0" encoding="utf-8"?>
<!-- Generator: Adobe Illustrator 21.1.0, SVG Export Plug-In . SVG Version: 6.00 Build 0)  -->
<svg version="1.1" xmlns="http://www.w3.org/2000/svg" xmlns:xlink="http://www.w3.org/1999/xlink" x="0px" y="0px"
	 viewBox="0 0 40 40" enable-background="new 0 0 40 40" xml:space="preserve">
<g id="TEMPLATE" display="none">
	<g display="inline">
		<path fill="#D0D0D0" d="M40,0v40H0V0H40 M41-1h-1H0h-1v1v40v1h1h40h1v-1V0V-1L41-1z"/>
	</g>
	<g display="inline" opacity="0.1">
		<path fill="#FF3A6D" d="M38,2v36H2V2H38 M40,0H0v40h40V0L40,0z"/>
	</g>
</g>
<g id="ICONS">
	<g>
		<polygon fill="#FFFFFF" points="7,3 26,3 33,10 33,37 7,37 		"/>
		<path fill="#949494" d="M26,2H6v36h28V10L26,2z M26,3.5l6.5,6.5H26V3.5z M33,37H7V3h18v8h8V37z"/>
	</g>
	<g>
		<path fill="#C8C8C8" d="M21.3463,18.2702c0,0.0382,0.001,0.0765,0.003,0.115c0.0022,0.0382,0.0032,0.0765,0.0032,0.115
			c0,0.0382-0.001,0.0765-0.0032,0.1147c-0.002,0.0385-0.003,0.0767-0.003,0.115L23,19.7578l-1.0153,2.4456l-1.8963-0.4343
			c-0.1023,0.1107-0.2086,0.2173-0.3193,0.3193l0.4343,1.8963L17.7578,25l-1.028-1.6537c-0.0382,0-0.0765,0.001-0.115,0.0032
			c-0.0382,0.002-0.0765,0.003-0.115,0.003c-0.0382,0-0.0765-0.001-0.1147-0.003c-0.0385-0.0022-0.0767-0.0032-0.115-0.0032
			L15.2422,25l-2.4456-1.0153l0.4343-1.8963c-0.1107-0.1021-0.2173-0.2086-0.3193-0.3193l-1.8963,0.4343L10,19.7578l1.6537-1.028
			c0-0.0382-0.001-0.0765-0.0032-0.115c-0.002-0.0382-0.003-0.0765-0.003-0.1147c0-0.0385,0.001-0.0767,0.003-0.115
			c0.0022-0.0385,0.0032-0.0767,0.0032-0.115L10,17.2422l1.0153-2.4456l1.8963,0.4343c0.1021-0.1107,0.2086-0.217,0.3193-0.3193
			l-0.4343-1.8963L15.2422,12l1.028,1.6537c0.0382,0,0.0765-0.001,0.115-0.003c0.0382-0.0022,0.0765-0.0032,0.1147-0.0032
			c0.0385,0,0.0767,0.001,0.115,0.0032c0.0385,0.002,0.0767,0.003,0.115,0.003L17.7578,12l2.4456,1.0153l-0.4343,1.8963
			c0.1107,0.1023,0.217,0.2086,0.3193,0.3193l1.8963-0.4343L23,17.2422L21.3463,18.2702z M20.5991,19.1003
			c0.0084-0.1023,0.0169-0.2034,0.0256-0.3034c0.0084-0.0998,0.0127-0.2011,0.0127-0.3032c0-0.0978-0.0042-0.1979-0.0127-0.3002
			c-0.0087-0.1021-0.0171-0.2021-0.0256-0.3l1.507-0.9386l-0.5492-1.3282l-1.7302,0.4023
			c-0.1321-0.1616-0.2672-0.3106-0.4055-0.4469c-0.1386-0.1361-0.2885-0.2724-0.4502-0.4087l0.4023-1.7302l-1.3282-0.5493
			l-0.9448,1.507c-0.0981-0.0084-0.1981-0.0169-0.3002-0.0256c-0.1021-0.0084-0.2021-0.0127-0.3002-0.0127
			c-0.1021,0-0.2031,0.0042-0.3032,0.0127c-0.1001,0.0087-0.2011,0.0171-0.3032,0.0256l-0.9386-1.507l-1.3282,0.5493l0.4023,1.7302
			c-0.1619,0.1321-0.3109,0.2672-0.4469,0.4055c-0.1363,0.1386-0.2724,0.2885-0.4087,0.4502l-1.7302-0.4023l-0.5493,1.3282
			l1.507,0.9448c-0.0087,0.1023-0.0171,0.2034-0.0256,0.3034c-0.0087,0.1001-0.0127,0.2011-0.0127,0.3032
			c0,0.0981,0.004,0.1979,0.0127,0.3002c0.0084,0.1021,0.0169,0.2021,0.0256,0.3l-1.507,0.9386l0.5493,1.3282l1.7302-0.4023
			c0.1318,0.1619,0.2672,0.3109,0.4055,0.4469c0.1383,0.1363,0.2883,0.2724,0.4502,0.4087l-0.4023,1.7302l1.3282,0.5492
			l0.9448-1.507c0.0978,0.0087,0.1979,0.0171,0.3002,0.0256c0.1021,0.0087,0.2021,0.0127,0.3,0.0127
			c0.1023,0,0.2034-0.004,0.3034-0.0127c0.0998-0.0084,0.2011-0.0169,0.3032-0.0256l0.9386,1.507l1.3282-0.5492l-0.4023-1.7302
			c0.1616-0.1318,0.3106-0.2672,0.4469-0.4055c0.1361-0.1383,0.2724-0.2883,0.4087-0.4502l1.7302,0.4023l0.5492-1.3282
			L20.5991,19.1003z M16.4999,16.0993c0.3322,0,0.6439,0.0628,0.9356,0.1885c0.2915,0.1254,0.5458,0.2967,0.7628,0.514
			c0.2173,0.217,0.3886,0.4713,0.514,0.7628c0.1256,0.2918,0.1885,0.6034,0.1885,0.9356c0,0.332-0.0628,0.6439-0.1885,0.9354
			c-0.1254,0.2915-0.2967,0.5458-0.514,0.763c-0.217,0.217-0.4713,0.3883-0.7628,0.514c-0.2918,0.1254-0.6034,0.1882-0.9356,0.1882
			c-0.332,0-0.6439-0.0628-0.9354-0.1882c-0.2915-0.1256-0.5458-0.297-0.763-0.514c-0.217-0.2173-0.3883-0.4715-0.514-0.763
			c-0.1254-0.2915-0.1882-0.6034-0.1882-0.9354c0-0.3322,0.0628-0.6439,0.1882-0.9356c0.1256-0.2915,0.297-0.5458,0.514-0.7628
			c0.2173-0.2173,0.4715-0.3886,0.763-0.514C15.856,16.1621,16.1679,16.0993,16.4999,16.0993z M16.4999,20.1856
			c0.2342,0,0.4534-0.0435,0.6578-0.1309c0.2044-0.0872,0.3831-0.2076,0.5363-0.3608s0.2734-0.332,0.3608-0.5363
			c0.0872-0.2044,0.1309-0.4234,0.1309-0.6575s-0.0437-0.4534-0.1309-0.6578c-0.0874-0.2044-0.2076-0.3831-0.3608-0.5363
			s-0.332-0.2734-0.5363-0.3608c-0.2044-0.0872-0.4236-0.1309-0.6578-0.1309s-0.4532,0.0437-0.6575,0.1309
			c-0.2044,0.0874-0.3831,0.2076-0.5363,0.3608s-0.2736,0.332-0.3608,0.5363c-0.0874,0.2044-0.1309,0.4236-0.1309,0.6578
			s0.0435,0.4532,0.1309,0.6575c0.0872,0.2044,0.2076,0.3831,0.3608,0.5363s0.332,0.2736,0.5363,0.3608
			C16.0467,20.1422,16.2657,20.1856,16.4999,20.1856z"/>
	</g>
	<g>
		<path fill="#C8C8C8" d="M26.3247,26.6748c-0.1688-0.1693-0.3689-0.3038-0.5951-0.4008C25.5035,26.1761,25.258,26.1269,25,26.1269
			s-0.504,0.0492-0.7306,0.1471c-0.2252,0.0969-0.4253,0.2315-0.5946,0.4012c-0.1688,0.1678-0.3038,0.368-0.4012,0.5951
			C23.1761,27.497,23.1269,27.7425,23.1269,28s0.0492,0.5035,0.1466,0.7301c0.0974,0.2267,0.2324,0.4268,0.4012,0.5951
			c0.1683,0.1688,0.3684,0.3038,0.5946,0.4012c0.2271,0.0974,0.4731,0.1466,0.7306,0.1466s0.503-0.0492,0.7296-0.1466
			c0.2271-0.0974,0.4273-0.2324,0.5956-0.4012c0.1693-0.1693,0.3038-0.3694,0.4008-0.5951C26.8239,28.504,26.8731,28.258,26.8731,28
			s-0.0492-0.5035-0.1471-0.7301C26.6291,27.0442,26.4945,26.844,26.3247,26.6748z M25,29.2317
			c-0.1702,0-0.3318-0.0323-0.4803-0.096c-0.149-0.0637-0.2812-0.1524-0.3916-0.2633c-0.1114-0.1109-0.2001-0.2431-0.2638-0.3921
			c-0.0637-0.1485-0.096-0.3101-0.096-0.4803s0.0323-0.3318,0.096-0.4803c0.0637-0.149,0.1524-0.2812,0.2633-0.3916
			c0.1119-0.1119,0.2435-0.2006,0.3921-0.2638c0.1485-0.0637,0.3101-0.096,0.4803-0.096s0.3318,0.0323,0.4803,0.096
			c0.1485,0.0632,0.2802,0.1519,0.3921,0.2633c0.1114,0.1119,0.2001,0.2435,0.2633,0.3921c0.0637,0.1485,0.096,0.3101,0.096,0.4803
			s-0.0323,0.3318-0.096,0.4803c-0.0632,0.1485-0.1519,0.2802-0.2633,0.3921c-0.1109,0.1109-0.2431,0.1997-0.3921,0.2633
			C25.3318,29.1994,25.1702,29.2317,25,29.2317z"/>
		<path fill="#C8C8C8" d="M28.7317,28.1471c0-0.0188,0.001-0.0376,0.0019-0.0564C28.7351,28.0598,28.736,28.0299,28.736,28
			s-0.001-0.0593-0.0024-0.0897c-0.001-0.0198-0.0019-0.0386-0.0019-0.0574l1.2326-0.7668L30,27.0639l-0.0159-0.0386l-0.7711-1.8576
			l-0.0164-0.0386l-0.0405,0.0092l-1.413,0.3236c-0.0656-0.0704-0.1345-0.1394-0.205-0.205l0.3236-1.413l0.0092-0.0405
			l-0.0386-0.0164l-1.8576-0.7711L25.9361,23l-0.0222,0.0357l-0.7668,1.2326c-0.0188,0-0.0376-0.001-0.0564-0.0019
			C25.0593,24.2649,25.0299,24.264,25,24.264s-0.0598,0.001-0.0897,0.0024c-0.0198,0.001-0.0386,0.0019-0.0574,0.0019
			l-0.7668-1.2326L24.0639,23l-0.0386,0.0159l-1.8581,0.7711l-0.0386,0.0164l0.0092,0.0405l0.3241,1.413
			c-0.0704,0.0656-0.1394,0.1345-0.205,0.205l-1.413-0.3236l-0.0405-0.0092l-0.0164,0.0386l-0.7711,1.8576L20,27.0639l0.0357,0.0222
			l1.2326,0.7668c-0.0005,0.0188-0.001,0.0381-0.0019,0.0574C21.2649,27.9407,21.264,27.9701,21.264,28s0.001,0.0598,0.0024,0.0897
			c0.001,0.0193,0.0014,0.0386,0.0019,0.0574l-1.2326,0.7668L20,28.9361l0.0159,0.0386l0.7711,1.8581l0.0164,0.0386l0.0405-0.0092
			l1.413-0.3241c0.0656,0.0704,0.1345,0.1394,0.205,0.205l-0.3241,1.413l-0.0092,0.0405l0.0386,0.0164l1.8581,0.7711L24.0639,33
			l0.0222-0.0357l0.7668-1.2326c0.0188,0.0005,0.0381,0.001,0.0574,0.0019C24.9402,31.7351,24.9701,31.736,25,31.736
			s0.0593-0.001,0.0897-0.0024c0.0193-0.001,0.0386-0.0014,0.0574-0.0019l0.7668,1.2326L25.9361,33l0.0386-0.0159l1.8576-0.7711
			l0.0386-0.0164l-0.0092-0.0405l-0.3236-1.413c0.0704-0.0656,0.1394-0.1345,0.205-0.205l1.413,0.3241l0.0405,0.0092l0.0164-0.0386
			l0.7711-1.8581L30,28.9361l-0.0357-0.0222L28.7317,28.1471z M26.8461,30.4894l-0.0236,0.0193l0.0068,0.0299l0.2961,1.2741
			l-0.9317,0.3848l-0.6906-1.1092l-0.0159-0.0256l-0.0304,0.0024l-0.1799,0.0149l-0.0502,0.0043
			c-0.0723,0.0063-0.1461,0.0096-0.2267,0.0096c-0.0776,0-0.1505-0.0034-0.2238-0.0096c-0.0776-0.0063-0.1538-0.0125-0.2281-0.0193
			l-0.0299-0.0029l-0.0164,0.026l-0.6959,1.1092l-0.9317-0.3848l0.2966-1.2741l0.0068-0.0294l-0.0231-0.0193
			c-0.1225-0.1037-0.2368-0.2069-0.339-0.3082c-0.1046-0.1032-0.2074-0.216-0.3048-0.3356l-0.0193-0.0236l-0.0299,0.0068
			l-1.2741,0.2966l-0.3848-0.9317l1.1092-0.6911l0.026-0.0159l-0.0029-0.0304c-0.0068-0.0743-0.013-0.1505-0.0193-0.2276
			c-0.0063-0.0738-0.0096-0.1466-0.0096-0.2242c0-0.0805,0.0034-0.1543,0.0096-0.2257l0.0029-0.0376l0.0164-0.1934l0.0024-0.0304
			l-0.0256-0.0159l-1.1092-0.6954l0.3848-0.9317l1.2741,0.2961l0.0294,0.0068l0.0193-0.0231
			c0.108-0.1273,0.2088-0.2382,0.3082-0.339c0.1032-0.1046,0.216-0.2074,0.3356-0.3048l0.0236-0.0193l-0.0068-0.0299l-0.2966-1.2741
			l0.9317-0.3848l0.6911,1.1092l0.0159,0.0256l0.0299-0.0024c0.0781-0.0063,0.1548-0.0125,0.231-0.0193
			C24.85,24.9092,24.9262,24.9059,25,24.9059c0.0709,0,0.1461,0.0034,0.2242,0.0096l0.1818,0.0154l0.0458,0.0039l0.0304,0.0024
			l0.0159-0.0256l0.6954-1.1092l0.9317,0.3848l-0.2961,1.2741l-0.0068,0.0294l0.0231,0.0193
			c0.122,0.1037,0.2363,0.2074,0.339,0.3082c0.1027,0.1013,0.2054,0.2141,0.3048,0.3356l0.0193,0.0236l0.0299-0.0068l1.2741-0.2961
			l0.3848,0.9317l-1.1092,0.6906l-0.0256,0.0159l0.0024,0.0304l0.0039,0.0458l0.0154,0.1823
			c0.0063,0.0776,0.0096,0.1529,0.0096,0.2238c0,0.0743-0.0034,0.1505-0.0096,0.2267c-0.0068,0.0752-0.013,0.1524-0.0193,0.2305
			l-0.0024,0.0299l0.0256,0.0159l1.1092,0.6959l-0.3848,0.9317l-1.2741-0.2966l-0.0294-0.0068l-0.0193,0.0231
			c-0.1008,0.1191-0.204,0.2334-0.3082,0.339C27.0804,30.2873,26.9676,30.39,26.8461,30.4894z"/>
	</g>
	<linearGradient id="SVGID_1_" gradientUnits="userSpaceOnUse" x1="3.3827" y1="4.1962" x2="32.6781" y2="39.1092">
		<stop  offset="0" style="stop-color:#FFFFFF;stop-opacity:0"/>
		<stop  offset="0.2264" style="stop-color:#FCFCFC;stop-opacity:0.0226"/>
		<stop  offset="0.3626" style="stop-color:#F4F4F4;stop-opacity:0.0363"/>
		<stop  offset="0.475" style="stop-color:#E6E6E6;stop-opacity:0.0475"/>
		<stop  offset="0.5744" style="stop-color:#D1D1D1;stop-opacity:0.0574"/>
		<stop  offset="0.6652" style="stop-color:#B7B7B7;stop-opacity:0.0665"/>
		<stop  offset="0.7498" style="stop-color:#979797;stop-opacity:0.075"/>
		<stop  offset="0.8297" style="stop-color:#707070;stop-opacity:0.083"/>
		<stop  offset="0.9057" style="stop-color:#444444;stop-opacity:0.0906"/>
		<stop  offset="0.9761" style="stop-color:#121212;stop-opacity:0.0976"/>
		<stop  offset="1" style="stop-color:#000000;stop-opacity:0.1"/>
	</linearGradient>
	<path fill="url(#SVGID_1_)" d="M34,10l-8-8H6v36h28V10z"/>
	<linearGradient id="SVGID_2_" gradientUnits="userSpaceOnUse" x1="29" y1="13.9063" x2="29" y2="11.0875">
		<stop  offset="0" style="stop-color:#828282;stop-opacity:0"/>
		<stop  offset="0.2812" style="stop-color:#7F7F7F;stop-opacity:0.0281"/>
		<stop  offset="0.4503" style="stop-color:#777777;stop-opacity:0.045"/>
		<stop  offset="0.5899" style="stop-color:#696969;stop-opacity:0.059"/>
		<stop  offset="0.7133" style="stop-color:#545454;stop-opacity:0.0713"/>
		<stop  offset="0.8259" style="stop-color:#3A3A3A;stop-opacity:0.0826"/>
		<stop  offset="0.9294" style="stop-color:#1A1A1A;stop-opacity:0.0929"/>
		<stop  offset="1" style="stop-color:#000000;stop-opacity:0.1"/>
	</linearGradient>
	<rect x="25" y="11" fill="url(#SVGID_2_)" width="8" height="3"/>
	<linearGradient id="SVGID_3_" gradientUnits="userSpaceOnUse" x1="25.1528" y1="14.8472" x2="31.9723" y2="8.0277">
		<stop  offset="0" style="stop-color:#FFFFFF;stop-opacity:0"/>
		<stop  offset="0.8537" style="stop-color:#FFFFFF;stop-opacity:0.2134"/>
		<stop  offset="1" style="stop-color:#FFFFFF;stop-opacity:0.25"/>
	</linearGradient>
	<polygon fill="url(#SVGID_3_)" points="26,2 6,2 6,3 25,3 25,11 32.9999,10.9999 33,38 34,38 34,10 	"/>
</g>
</svg>
