<svg id="7247fad2-6128-47c6-ae8b-6dc420d0b35e" data-name="ICONS" xmlns="http://www.w3.org/2000/svg" xmlns:xlink="http://www.w3.org/1999/xlink" viewBox="0 0 40 40"><defs><linearGradient id="80100e49-ec6d-4337-bbf8-618875d66184" x1="3.38265" y1="4.19622" x2="32.67812" y2="39.10919" gradientUnits="userSpaceOnUse"><stop offset="0" stop-color="#fff" stop-opacity="0"/><stop offset="0.86247" stop-color="#5e5e5e" stop-opacity="0.06315"/><stop offset="1" stop-opacity="0.1"/></linearGradient><linearGradient id="41f722a4-db36-4ac6-ae1c-2865b2f4a476" x1="29" y1="13.90625" x2="29" y2="11.08751" gradientUnits="userSpaceOnUse"><stop offset="0" stop-color="#828282" stop-opacity="0"/><stop offset="0.86247" stop-color="#303030" stop-opacity="0.06315"/><stop offset="1" stop-opacity="0.1"/></linearGradient><linearGradient id="8be30fef-fe6d-4a3a-8d87-a51ae46dbdc8" x1="25.15278" y1="14.84722" x2="31.97226" y2="8.02774" gradientUnits="userSpaceOnUse"><stop offset="0" stop-color="#fff" stop-opacity="0"/><stop offset="0.44604" stop-color="#fff" stop-opacity="0.00799"/><stop offset="0.63551" stop-color="#fff" stop-opacity="0.03616"/><stop offset="0.77636" stop-color="#fff" stop-opacity="0.08493"/><stop offset="0.8924" stop-color="#fff" stop-opacity="0.15385"/><stop offset="0.99328" stop-color="#fff" stop-opacity="0.24291"/><stop offset="1" stop-color="#fff" stop-opacity="0.25"/></linearGradient></defs><title>FileTypeIcons_Master_All_NEW</title><polygon points="7 3 26 3 33 10 33 37 7 37 7 3" fill="#fff"/><path d="M26,2H6V38H34V10Zm0,1.5L32.5,10H26ZM33,37H7V3H25v8h8Z" fill="#949494"/><path d="M21.34629,18.27019c0,.03824.001.07648.003.115.00223.03824.00323.07648.00323.115,0,.03824-.001.07648-.00323.11472-.002.03849-.003.07673-.003.115L23,19.75779l-1.01532,2.44555-1.8963-.43428q-.15345.16611-.31932.31932l.43428,1.8963L17.75779,25l-1.028-1.65371c-.03824,0-.07648.001-.115.00323-.03824.002-.07648.003-.115.003q-.05736,0-.11472-.003c-.03849-.00224-.07673-.00323-.115-.00323L15.24221,25l-2.44555-1.01532.43428-1.8963q-.16611-.15309-.31932-.31932l-1.8963.43428L10,19.75779l1.65371-1.028c0-.03824-.001-.07648-.00323-.115q-.003-.05736-.003-.11472c0-.03848.001-.07672.003-.115.00224-.03849.00323-.07673.00323-.115L10,17.24221l1.01532-2.44555,1.8963.43428q.15309-.16611.31932-.31932l-.43428-1.8963L15.24221,12l1.028,1.65371c.03824,0,.07648-.001.115-.003.03824-.00223.07648-.00323.11472-.00323.03848,0,.07672.001.115.00323.03849.002.07673.003.115.003L17.75779,12l2.44555,1.01532-.43428,1.8963q.16611.15345.31932.31932l1.8963-.43428L23,17.24221Zm-.74715.83009q.01266-.15345.02558-.30343c.00844-.09982.01266-.20113.01266-.30318q0-.14675-.01266-.3002-.013-.15309-.02558-.3l1.507-.9386-.54925-1.32818-1.73019.40225a5.617,5.617,0,0,0-.40548-.44694q-.20782-.20412-.45017-.40871l.40225-1.73019-1.32818-.54925-.9448,1.507q-.14712-.01266-.3002-.02558-.15309-.01266-.3002-.01266-.15309,0-.30318.01266-.1501.013-.30318.02558l-.9386-1.507-1.32818.54925.40225,1.73019a5.53107,5.53107,0,0,0-.44694.40548q-.20448.20782-.40871.45017l-1.73019-.40225-.54925,1.32818,1.507.9448q-.013.15345-.02558.30343c-.00869.10007-.01266.20113-.01266.30318,0,.09808.004.1979.01266.3002q.01267.15309.02558.3l-1.507.9386.54925,1.32818,1.73019-.40225a5.48676,5.48676,0,0,0,.40548.44694q.20745.20448.45017.40871l-.40225,1.73019,1.32818.54925.9448-1.507q.14676.013.3002.02558c.10206.00869.20212.01266.3.01266.1023,0,.20336-.004.30342-.01266.09982-.00845.20113-.01689.30318-.02558l.9386,1.507,1.32818-.54925L18.971,21.82666a5.57129,5.57129,0,0,0,.44694-.40548q.20412-.20745.40871-.45017l1.73019.40225.54925-1.32818Zm-4.09926-3.001a2.33928,2.33928,0,0,1,.93561.18847,2.40449,2.40449,0,0,1,1.27678,1.27678,2.41593,2.41593,0,0,1,0,1.871,2.40382,2.40382,0,0,1-1.27678,1.277,2.41889,2.41889,0,0,1-1.871,0,2.40316,2.40316,0,0,1-1.277-1.277,2.41889,2.41889,0,0,1,0-1.871,2.40382,2.40382,0,0,1,1.277-1.27678A2.33809,2.33809,0,0,1,16.49988,16.09926Zm0,4.08636a1.65479,1.65479,0,0,0,.65776-.13086,1.68305,1.68305,0,0,0,.89712-.89712,1.71792,1.71792,0,0,0,0-1.31528,1.68305,1.68305,0,0,0-.89712-.89712,1.71792,1.71792,0,0,0-1.31528,0,1.68305,1.68305,0,0,0-.89712.89712,1.71792,1.71792,0,0,0,0,1.31528,1.68305,1.68305,0,0,0,.89712.89712A1.6536,1.6536,0,0,0,16.49988,20.18562Z" fill="#c8c8c8"/><path d="M26.32475,26.67477a1.881,1.881,0,0,0-.5951-.40075,1.88567,1.88567,0,0,0-1.46026,0,1.88019,1.88019,0,0,0-.99586.99633,1.89028,1.89028,0,0,0,0,1.45978,1.88026,1.88026,0,0,0,.99586.99634,1.89148,1.89148,0,0,0,1.46026,0,1.87461,1.87461,0,0,0,.99633-.99634,1.88567,1.88567,0,0,0,0-1.46026A1.8851,1.8851,0,0,0,26.32475,26.67477ZM25,29.23167a1.21181,1.21181,0,0,1-.48032-.096,1.2292,1.2292,0,0,1-.65539-.65539,1.25008,1.25008,0,0,1,0-.96064,1.2292,1.2292,0,0,1,.65539-.65539,1.25008,1.25008,0,0,1,.96064,0,1.22487,1.22487,0,0,1,.65539.65539,1.25008,1.25008,0,0,1,0,.96064,1.22487,1.22487,0,0,1-.65539.65539A1.21181,1.21181,0,0,1,25,29.23167Z" fill="#c8c8c8"/><path d="M28.73167,28.14709c0-.01881.001-.03762.00193-.05643.00145-.03086.00241-.06076.00241-.09066s-.001-.05932-.00241-.0897c-.001-.01977-.00193-.03858-.00193-.05739l1.23264-.76678L30,27.064l-.01591-.03858L29.213,25.16773l-.01639-.03858-.04051.00916-1.413.32359c-.06559-.07041-.13455-.13937-.205-.205l.32359-1.413.00916-.04051-.03858-.01639-1.85764-.77113L25.93605,23l-.02218.03569-.76678,1.23264c-.01881,0-.03762-.001-.05643-.00193C25.05932,24.265,25.0299,24.264,25,24.264s-.0598.001-.0897.00241c-.01977.001-.03858.00193-.05739.00193l-.76678-1.23264L24.06395,23l-.03858.01591-1.85812.77113-.03858.01639.00916.04051.32407,1.413c-.07041.06559-.13937.13455-.205.205l-1.413-.32359-.04051-.00916-.01639.03858-.77113,1.85764L20,27.064l.03569.02218,1.23264.76678-.00193.05739c-.00145.03038-.00241.0598-.00241.0897s.001.0598.00241.0897l.00193.05739-1.23264.76678L20,28.93605l.01591.03858.77113,1.85812.01639.03858.04051-.00916,1.413-.32407c.06559.07041.13455.13937.205.205l-.32407,1.413-.00916.04051.03858.01639,1.85812.77113L24.06395,33l.02218-.03569.76678-1.23264.05739.00193c.0299.00145.0598.00241.0897.00241s.05932-.001.0897-.00241l.05739-.00193.76678,1.23264L25.93605,33l.03858-.01591,1.85764-.77113.03858-.01639-.00916-.04051-.32359-1.413c.07041-.06559.13937-.13455.205-.205l1.413.32407.04051.00916.01639-.03858.77113-1.85812L30,28.93605l-.03569-.02218Zm-1.88561,2.3423-.02363.01929.00676.0299.2961,1.27411-.93171.38484L25.503,31.08835l-.01591-.02556-.03039.00241-.17988.01495-.05015.00434c-.07234.00627-.14612.00965-.22666.00965-.07764,0-.15046-.00338-.22377-.00965-.07764-.00627-.15383-.01254-.2281-.01929l-.0299-.00289-.0164.026-.69589,1.10918-.93171-.38484.29658-1.27411.00676-.02942-.02315-.01929c-.12249-.10368-.23679-.20688-.339-.30816a4.18423,4.18423,0,0,1-.30478-.33565l-.01929-.02363-.0299.00676-1.27411.29658-.38484-.93171,1.10918-.69107.026-.01591-.00289-.03039c-.00675-.07426-.013-.15046-.01929-.22762-.00627-.07378-.00965-.1466-.00965-.22425,0-.08053.00338-.15432.00965-.22569l.00289-.03762.0164-.19338.00241-.03038-.02556-.01592-1.10918-.69541.38484-.93171,1.27411.2961.02942.00676.01929-.02315c.108-.12732.20881-.23824.30816-.339a4.18423,4.18423,0,0,1,.33565-.30478l.02363-.01929-.00676-.0299-.29658-1.27411.93171-.38484.69107,1.10918.01591.02556.0299-.00241c.07813-.00627.15481-.01254.231-.01929.0762-.00627.1524-.00965.22618-.00965.07089,0,.14612.00338.22425.00965l.18181.01543.04581.00386.03038.00241.01592-.02556.69541-1.10918.93171.38484-.2961,1.27411-.00676.02942.02315.01929c.122.10368.23631.20737.339.30816a4.25108,4.25108,0,0,1,.30478.33565l.01929.02363.0299-.00676,1.27411-.2961.38484.93171-1.10918.69059-.02556.01591.00241.03039.00386.04581.01543.18229c.00627.07764.00965.15288.00965.22377,0,.07426-.00338.15046-.00965.22666-.00675.07523-.013.15239-.01929.23051l-.00241.0299.02556.01592,1.10918.69589-.38484.93171-1.27411-.29658-.02942-.00676-.01929.02315c-.10079.11912-.204.23341-.30816.339A4.25108,4.25108,0,0,1,26.84606,30.48939Z" fill="#c8c8c8"/><path d="M34,10,26,2H6V38H34Z" fill="url(#80100e49-ec6d-4337-bbf8-618875d66184)"/><rect x="25" y="11" width="8" height="3" fill="url(#41f722a4-db36-4ac6-ae1c-2865b2f4a476)"/><polygon points="26 2 6 2 6 3 25 3 25 11 33 11 33 38 34 38 34 10 26 2" fill="url(#8be30fef-fe6d-4a3a-8d87-a51ae46dbdc8)"/></svg>