<svg id="531aac4e-07ef-4d48-9487-b27200023344" data-name="ICONS" xmlns="http://www.w3.org/2000/svg" xmlns:xlink="http://www.w3.org/1999/xlink" viewBox="0 0 40 40"><defs><linearGradient id="221fe1e6-300c-4f96-877c-e6bcd052436c" x1="3.38265" y1="4.19622" x2="32.67812" y2="39.10919" gradientUnits="userSpaceOnUse"><stop offset="0" stop-color="#fff" stop-opacity="0"/><stop offset="0.86247" stop-color="#5e5e5e" stop-opacity="0.06315"/><stop offset="1" stop-opacity="0.1"/></linearGradient><linearGradient id="6ecc7cc6-5e04-4360-879c-5d5f2afeeae3" x1="29" y1="13.90625" x2="29" y2="11.08751" gradientUnits="userSpaceOnUse"><stop offset="0" stop-color="#828282" stop-opacity="0"/><stop offset="0.86247" stop-color="#303030" stop-opacity="0.06315"/><stop offset="1" stop-opacity="0.1"/></linearGradient><linearGradient id="c6aa9582-973d-4066-98a7-27f95eebdf79" x1="25.15278" y1="14.84722" x2="31.97226" y2="8.02774" gradientUnits="userSpaceOnUse"><stop offset="0" stop-color="#fff" stop-opacity="0"/><stop offset="0.44604" stop-color="#fff" stop-opacity="0.00799"/><stop offset="0.63551" stop-color="#fff" stop-opacity="0.03616"/><stop offset="0.77636" stop-color="#fff" stop-opacity="0.08493"/><stop offset="0.8924" stop-color="#fff" stop-opacity="0.15385"/><stop offset="0.99328" stop-color="#fff" stop-opacity="0.24291"/><stop offset="1" stop-color="#fff" stop-opacity="0.25"/></linearGradient></defs><title>FileTypeIcons_Master_All_NEW</title><polygon points="7 3 26 3 33 10 33 37 7 37 7 3" fill="#fff"/><path d="M26,2H6V38H34V10Zm0,1.5L32.5,10H26ZM33,37H7V3H25v8h8Z" fill="#949494"/><path d="M14,30v3H11V30h3m1-1H10v5h5V29Z" fill="#0078d7"/><path d="M29,15v3H26V15h3m1-1H25v5h5V14Z" fill="#0078d7"/><polygon points="25 29 24 34 20 24 30 28 25 29" fill="#0078d7"/><path d="M13.99268,24.23438a4.5176,4.5176,0,0,1-.77979-.68311A12.8767,12.8767,0,0,0,12.17041,27h1.01025A11.90086,11.90086,0,0,1,13.99268,24.23438Z" fill="#c8c8c8"/><path d="M20.23438,17.99268A11.90086,11.90086,0,0,1,23,17.18066V16.17041a12.8767,12.8767,0,0,0-3.44873,1.04248A4.5176,4.5176,0,0,1,20.23438,17.99268Z" fill="#c8c8c8"/><circle cx="16.5" cy="20.5" r="2.5" fill="#0078d7"/><path d="M34,10,26,2H6V38H34Z" fill="url(#221fe1e6-300c-4f96-877c-e6bcd052436c)"/><rect x="25" y="11" width="8" height="3" fill="url(#6ecc7cc6-5e04-4360-879c-5d5f2afeeae3)"/><polygon points="26 2 6 2 6 3 25 3 25 11 33 11 33 38 34 38 34 10 26 2" fill="url(#c6aa9582-973d-4066-98a7-27f95eebdf79)"/></svg>