<?xml version="1.0" encoding="utf-8"?>
<!-- Generator: Adobe Illustrator 21.1.0, SVG Export Plug-In . SVG Version: 6.00 Build 0)  -->
<svg version="1.1" xmlns="http://www.w3.org/2000/svg" xmlns:xlink="http://www.w3.org/1999/xlink" x="0px" y="0px"
	 viewBox="0 0 40 40" enable-background="new 0 0 40 40" xml:space="preserve">
<g id="TEMPLATE" display="none">
	<g display="inline">
		<path fill="#D0D0D0" d="M40,0v40H0V0H40 M41-1h-1H0h-1v1v40v1h1h40h1v-1V0V-1L41-1z"/>
	</g>
	<g display="inline" opacity="0.1">
		<path fill="#FF3A6D" d="M38,2v36H2V2H38 M40,0H0v40h40V0L40,0z"/>
	</g>
</g>
<g id="ICONS">
	<g>
		<polygon fill="#FFFFFF" points="7,3 26,3 33,10 33,37 7,37 		"/>
		<path fill="#949494" d="M26,2H6v36h28V10L26,2z M26,3.5l6.5,6.5H26V3.5z M33,37H7V3h18v8h8V37z"/>
	</g>
	<path fill="#0078D7" d="M14,30v3h-3v-3H14 M15,29h-5v5h5V29L15,29z"/>
	<path fill="#0078D7" d="M29,15v3h-3v-3H29 M30,14h-5v5h5V14L30,14z"/>
	<g>
		<polygon fill="#0078D7" points="25,29 24,34 20,24 30,28 		"/>
	</g>
	<path fill="#C8C8C8" d="M13.9927,24.2344c-0.2886-0.1943-0.5439-0.4292-0.7798-0.6831c-0.5005,1.0786-0.854,2.2354-1.0425,3.4487
		h1.0103C13.3438,26.0352,13.6133,25.1069,13.9927,24.2344z"/>
	<path fill="#C8C8C8" d="M20.2344,17.9927c0.8726-0.3794,1.8008-0.6489,2.7656-0.812v-1.0103
		c-1.2134,0.1885-2.3701,0.542-3.4487,1.0425C19.8052,17.4487,20.04,17.7041,20.2344,17.9927z"/>
	<g>
		<circle fill="#0078D7" cx="16.5" cy="20.5" r="2.5"/>
	</g>
	<linearGradient id="SVGID_1_" gradientUnits="userSpaceOnUse" x1="3.3827" y1="4.1962" x2="32.6781" y2="39.1092">
		<stop  offset="0" style="stop-color:#FFFFFF;stop-opacity:0"/>
		<stop  offset="0.2264" style="stop-color:#FCFCFC;stop-opacity:0.0226"/>
		<stop  offset="0.3626" style="stop-color:#F4F4F4;stop-opacity:0.0363"/>
		<stop  offset="0.475" style="stop-color:#E6E6E6;stop-opacity:0.0475"/>
		<stop  offset="0.5744" style="stop-color:#D1D1D1;stop-opacity:0.0574"/>
		<stop  offset="0.6652" style="stop-color:#B7B7B7;stop-opacity:0.0665"/>
		<stop  offset="0.7498" style="stop-color:#979797;stop-opacity:0.075"/>
		<stop  offset="0.8297" style="stop-color:#707070;stop-opacity:0.083"/>
		<stop  offset="0.9057" style="stop-color:#444444;stop-opacity:0.0906"/>
		<stop  offset="0.9761" style="stop-color:#121212;stop-opacity:0.0976"/>
		<stop  offset="1" style="stop-color:#000000;stop-opacity:0.1"/>
	</linearGradient>
	<path fill="url(#SVGID_1_)" d="M34,10l-8-8H6v36h28V10z"/>
	<linearGradient id="SVGID_2_" gradientUnits="userSpaceOnUse" x1="29" y1="13.9063" x2="29" y2="11.0875">
		<stop  offset="0" style="stop-color:#828282;stop-opacity:0"/>
		<stop  offset="0.2812" style="stop-color:#7F7F7F;stop-opacity:0.0281"/>
		<stop  offset="0.4503" style="stop-color:#777777;stop-opacity:0.045"/>
		<stop  offset="0.5899" style="stop-color:#696969;stop-opacity:0.059"/>
		<stop  offset="0.7133" style="stop-color:#545454;stop-opacity:0.0713"/>
		<stop  offset="0.8259" style="stop-color:#3A3A3A;stop-opacity:0.0826"/>
		<stop  offset="0.9294" style="stop-color:#1A1A1A;stop-opacity:0.0929"/>
		<stop  offset="1" style="stop-color:#000000;stop-opacity:0.1"/>
	</linearGradient>
	<rect x="25" y="11" fill="url(#SVGID_2_)" width="8" height="3"/>
	<linearGradient id="SVGID_3_" gradientUnits="userSpaceOnUse" x1="25.1528" y1="14.8472" x2="31.9723" y2="8.0277">
		<stop  offset="0" style="stop-color:#FFFFFF;stop-opacity:0"/>
		<stop  offset="0.8537" style="stop-color:#FFFFFF;stop-opacity:0.2134"/>
		<stop  offset="1" style="stop-color:#FFFFFF;stop-opacity:0.25"/>
	</linearGradient>
	<polygon fill="url(#SVGID_3_)" points="26,2 6,2 6,3 25,3 25,11 32.9999,10.9999 33,38 34,38 34,10 	"/>
</g>
</svg>
