<svg id="7912e646-5c53-42d9-ba93-e2b5df9d71c6" data-name="ICONS" xmlns="http://www.w3.org/2000/svg" viewBox="0 0 40 40"><title>FileTypeIcons_Master_All_NEW</title><path d="M2,7V33H38V7ZM37,32H3V8H37Z" fill="#949494"/><polygon points="15 14 15 26 26 20 15 14" fill="#949494"/><rect x="5" y="29" width="2" height="2" fill="#949494"/><rect x="5" y="25" width="2" height="2" fill="#949494"/><rect x="5" y="21" width="2" height="2" fill="#949494"/><rect x="5" y="17" width="2" height="2" fill="#949494"/><rect x="5" y="13" width="2" height="2" fill="#949494"/><rect x="5" y="9" width="2" height="2" fill="#949494"/><rect x="33" y="29" width="2" height="2" fill="#949494"/><rect x="33" y="25" width="2" height="2" fill="#949494"/><rect x="33" y="21" width="2" height="2" fill="#949494"/><rect x="33" y="17" width="2" height="2" fill="#949494"/><rect x="33" y="13" width="2" height="2" fill="#949494"/><rect x="33" y="9" width="2" height="2" fill="#949494"/></svg>