<svg id="ce884bab-bf8b-4b20-8feb-17e4ff653cf7" data-name="ICONS" xmlns="http://www.w3.org/2000/svg" xmlns:xlink="http://www.w3.org/1999/xlink" viewBox="0 0 40 40"><defs><linearGradient id="673cfee4-b257-4794-af11-7413b2f25f83" x1="6.16158" y1="3.50802" x2="33.83842" y2="36.49198" gradientUnits="userSpaceOnUse"><stop offset="0" stop-color="#fff" stop-opacity="0"/><stop offset="0.86247" stop-color="#5e5e5e" stop-opacity="0.06315"/><stop offset="1" stop-opacity="0.1"/></linearGradient><linearGradient id="e3f66db7-4046-462c-9c25-4beae4c9e031" x1="19.027" y1="20.9253" x2="36.027" y2="4.75863" gradientUnits="userSpaceOnUse"><stop offset="0" stop-color="#fff" stop-opacity="0"/><stop offset="0.44604" stop-color="#fff" stop-opacity="0.00799"/><stop offset="0.63551" stop-color="#fff" stop-opacity="0.03616"/><stop offset="0.77636" stop-color="#fff" stop-opacity="0.08493"/><stop offset="0.8924" stop-color="#fff" stop-opacity="0.15385"/><stop offset="0.99328" stop-color="#fff" stop-opacity="0.24291"/><stop offset="1" stop-color="#fff" stop-opacity="0.25"/></linearGradient></defs><title>FileTypeIcons_Master_All_NEW</title><rect x="2" y="7" width="36" height="26" fill="url(#673cfee4-b257-4794-af11-7413b2f25f83)"/><polygon points="38 7 2 7 2 8 3 8 37 8 37 32 37 33 38 33 38 7" fill="url(#e3f66db7-4046-462c-9c25-4beae4c9e031)"/><rect x="3" y="8" width="34" height="24" fill="#fff"/><path d="M2,7V33H38V7ZM37,32H3V8H37Z" fill="#949494"/><polygon points="15 14 15 26 26 20 15 14" fill="#69afe5"/><rect x="5" y="29" width="2" height="2" fill="#c8c8c8"/><rect x="5" y="25" width="2" height="2" fill="#c8c8c8"/><rect x="5" y="21" width="2" height="2" fill="#c8c8c8"/><rect x="5" y="17" width="2" height="2" fill="#c8c8c8"/><rect x="5" y="13" width="2" height="2" fill="#c8c8c8"/><rect x="5" y="9" width="2" height="2" fill="#c8c8c8"/><rect x="33" y="29" width="2" height="2" fill="#c8c8c8"/><rect x="33" y="25" width="2" height="2" fill="#c8c8c8"/><rect x="33" y="21" width="2" height="2" fill="#c8c8c8"/><rect x="33" y="17" width="2" height="2" fill="#c8c8c8"/><rect x="33" y="13" width="2" height="2" fill="#c8c8c8"/><rect x="33" y="9" width="2" height="2" fill="#c8c8c8"/></svg>