<?xml version="1.0" encoding="utf-8"?>
<!-- Generator: Adobe Illustrator 21.1.0, SVG Export Plug-In . SVG Version: 6.00 Build 0)  -->
<svg version="1.1" xmlns="http://www.w3.org/2000/svg" xmlns:xlink="http://www.w3.org/1999/xlink" x="0px" y="0px"
	 viewBox="0 0 40 40" enable-background="new 0 0 40 40" xml:space="preserve">
<g id="TEMPLATE" display="none">
	<g display="inline">
		<path fill="#D0D0D0" d="M40,0v40H0V0H40 M41-1h-1H0h-1v1v40v1h1h40h1v-1V0V-1L41-1z"/>
	</g>
	<g display="inline" opacity="0.1">
		<path fill="#FF3A6D" d="M38,2v36H2V2H38 M40,0H0v40h40V0L40,0z"/>
	</g>
</g>
<g id="ICONS">
	<g>
		<polygon fill="#FFFFFF" points="10,3 29,3 36,10 36,37 10,37 		"/>
		<path fill="#949494" d="M29,2H9v36h28V10L29,2z M29,3.5l6.5,6.5H29V3.5z M36,37H10V3h18v8h8V37z"/>
	</g>
	<g>
		<path fill="#C8C8C8" d="M22,22v5h-5v-5H22 M23,21h-7v7h7V21L23,21z"/>
	</g>
	<polygon fill="#3955A3" points="3,13 20,11 20,34 3,32 	"/>
	<g>
		<path fill="#FFFFFF" d="M16,18l-3.2982,9h-2.4436L7,18h2.3234l1.9963,6.2636c0.1068,0.3389,0.1712,0.6382,0.1936,0.8975h0.0401
			c0.031-0.2802,0.1001-0.5877,0.207-0.9226L13.7433,18H16z"/>
	</g>
	<g>
		<path fill="#C8C8C8" d="M29.5,28c1.3784,0,2.5,1.1216,2.5,2.5S30.8784,33,29.5,33S27,31.8784,27,30.5S28.1216,28,29.5,28 M29.5,27
			c-1.9331,0-3.5,1.5669-3.5,3.5s1.5669,3.5,3.5,3.5s3.5-1.5669,3.5-3.5S31.4331,27,29.5,27L29.5,27z"/>
	</g>
	<g>
		<path fill="#C8C8C8" d="M26.5,15c1.3784,0,2.5,1.1216,2.5,2.5S27.8784,20,26.5,20S24,18.8784,24,17.5S25.1216,15,26.5,15 M26.5,14
			c-1.9331,0-3.5,1.5669-3.5,3.5s1.5669,3.5,3.5,3.5s3.5-1.5669,3.5-3.5S28.4331,14,26.5,14L26.5,14z"/>
	</g>
	<g>
		<rect x="22" y="24" fill="#C8C8C8" width="8" height="1"/>
	</g>
	<g>
		<rect x="29" y="24" fill="#C8C8C8" width="1" height="4"/>
	</g>
	<g>
		<rect x="26" y="21" fill="#C8C8C8" width="1" height="4"/>
	</g>
	<g>
		<circle fill="#C8C8C8" cx="13.5" cy="6.5" r="0.5"/>
	</g>
	<g>
		<circle fill="#C8C8C8" cx="16.5" cy="6.5" r="0.5"/>
	</g>
	<g>
		<circle fill="#C8C8C8" cx="16.5" cy="9.5" r="0.5"/>
	</g>
	<g>
		<circle fill="#C8C8C8" cx="19.5" cy="6.5" r="0.5"/>
	</g>
	<g>
		<circle fill="#C8C8C8" cx="22.5" cy="6.5" r="0.5"/>
	</g>
	<g>
		<circle fill="#C8C8C8" cx="25.5" cy="6.5" r="0.5"/>
	</g>
	<g>
		<g>
			<circle fill="#C8C8C8" cx="32.5" cy="16.5" r="0.5"/>
		</g>
		<g>
			<circle fill="#C8C8C8" cx="32.5" cy="13.5" r="0.5"/>
		</g>
		<g>
			<circle fill="#C8C8C8" cx="32.5" cy="19.5" r="0.5"/>
		</g>
		<g>
			<circle fill="#C8C8C8" cx="32.5" cy="22.5" r="0.5"/>
		</g>
		<g>
			<circle fill="#C8C8C8" cx="32.5" cy="25.5" r="0.5"/>
		</g>
	</g>
	<g>
		<circle fill="#C8C8C8" cx="24.5" cy="33.5" r="0.5"/>
	</g>
	<g>
		<circle fill="#C8C8C8" cx="21.5" cy="33.5" r="0.5"/>
	</g>
	<linearGradient id="SVGID_1_" gradientUnits="userSpaceOnUse" x1="6.0994" y1="4.4339" x2="35.3949" y2="39.3469">
		<stop  offset="0" style="stop-color:#FFFFFF;stop-opacity:0"/>
		<stop  offset="0.2264" style="stop-color:#FCFCFC;stop-opacity:0.0226"/>
		<stop  offset="0.3626" style="stop-color:#F4F4F4;stop-opacity:0.0363"/>
		<stop  offset="0.475" style="stop-color:#E6E6E6;stop-opacity:0.0475"/>
		<stop  offset="0.5744" style="stop-color:#D1D1D1;stop-opacity:0.0574"/>
		<stop  offset="0.6652" style="stop-color:#B7B7B7;stop-opacity:0.0665"/>
		<stop  offset="0.7498" style="stop-color:#979797;stop-opacity:0.075"/>
		<stop  offset="0.8297" style="stop-color:#707070;stop-opacity:0.083"/>
		<stop  offset="0.9057" style="stop-color:#444444;stop-opacity:0.0906"/>
		<stop  offset="0.9761" style="stop-color:#121212;stop-opacity:0.0976"/>
		<stop  offset="1" style="stop-color:#000000;stop-opacity:0.1"/>
	</linearGradient>
	<path fill="url(#SVGID_1_)" d="M29,2H9v10.2942L3,13v19l6,0.7058V38h28V10L29,2z"/>
	<linearGradient id="SVGID_2_" gradientUnits="userSpaceOnUse" x1="32" y1="13.9063" x2="32" y2="11.0875">
		<stop  offset="0" style="stop-color:#828282;stop-opacity:0"/>
		<stop  offset="0.2812" style="stop-color:#7F7F7F;stop-opacity:0.0281"/>
		<stop  offset="0.4503" style="stop-color:#777777;stop-opacity:0.045"/>
		<stop  offset="0.5899" style="stop-color:#696969;stop-opacity:0.059"/>
		<stop  offset="0.7133" style="stop-color:#545454;stop-opacity:0.0713"/>
		<stop  offset="0.8259" style="stop-color:#3A3A3A;stop-opacity:0.0826"/>
		<stop  offset="0.9294" style="stop-color:#1A1A1A;stop-opacity:0.0929"/>
		<stop  offset="1" style="stop-color:#000000;stop-opacity:0.1"/>
	</linearGradient>
	<rect x="28" y="11" fill="url(#SVGID_2_)" width="8" height="3"/>
	<linearGradient id="SVGID_3_" gradientUnits="userSpaceOnUse" x1="14.2784" y1="36.9414" x2="14.657" y2="33.3769">
		<stop  offset="0" style="stop-color:#828282;stop-opacity:0"/>
		<stop  offset="0.1699" style="stop-color:#7E7E7E;stop-opacity:0.0341"/>
		<stop  offset="0.346" style="stop-color:#717171;stop-opacity:0.0694"/>
		<stop  offset="0.5248" style="stop-color:#5D5D5D;stop-opacity:0.1053"/>
		<stop  offset="0.7057" style="stop-color:#404040;stop-opacity:0.1415"/>
		<stop  offset="0.8863" style="stop-color:#1B1B1B;stop-opacity:0.1778"/>
		<stop  offset="0.9972" style="stop-color:#000000;stop-opacity:0.2"/>
	</linearGradient>
	<polygon fill="url(#SVGID_3_)" points="20,37 9,37 9,32.71 20,34 	"/>
	<linearGradient id="SVGID_4_" gradientUnits="userSpaceOnUse" x1="11.5" y1="32.792" x2="11.5" y2="12.2173">
		<stop  offset="0" style="stop-color:#FFFFFF;stop-opacity:0"/>
		<stop  offset="0.8587" style="stop-color:#FFFFFF;stop-opacity:0.1546"/>
		<stop  offset="1" style="stop-color:#FFFFFF;stop-opacity:0.18"/>
	</linearGradient>
	<polygon fill="url(#SVGID_4_)" points="20,34 3,32 3,13 20,11 	"/>
	<linearGradient id="SVGID_5_" gradientUnits="userSpaceOnUse" x1="26.7917" y1="9.7083" x2="31.7299" y2="4.7701">
		<stop  offset="0" style="stop-color:#FFFFFF;stop-opacity:0"/>
		<stop  offset="0.8537" style="stop-color:#FFFFFF;stop-opacity:0.2134"/>
		<stop  offset="1" style="stop-color:#FFFFFF;stop-opacity:0.25"/>
	</linearGradient>
	<polygon fill="url(#SVGID_5_)" points="29,2 9,2 9,3 28,3 28,11 35.9999,10.9999 36,25 37,25 37,10 	"/>
</g>
</svg>
