<svg id="8d3b75f1-4bd1-4c1b-a260-42d71409b887" data-name="ICONS" xmlns="http://www.w3.org/2000/svg" xmlns:xlink="http://www.w3.org/1999/xlink" viewBox="0 0 40 40"><defs><linearGradient id="bb5ce7bc-a2a7-4383-8ca1-8d73a9e34130" x1="6.09939" y1="4.4339" x2="35.39486" y2="39.34688" gradientUnits="userSpaceOnUse"><stop offset="0" stop-color="#fff" stop-opacity="0"/><stop offset="0.86247" stop-color="#5e5e5e" stop-opacity="0.06315"/><stop offset="1" stop-opacity="0.1"/></linearGradient><linearGradient id="ff765f9d-ec87-498c-9832-e1b34e4a91f5" x1="32" y1="13.90625" x2="32" y2="11.08751" gradientUnits="userSpaceOnUse"><stop offset="0" stop-color="#828282" stop-opacity="0"/><stop offset="0.86247" stop-color="#303030" stop-opacity="0.06315"/><stop offset="1" stop-opacity="0.1"/></linearGradient><linearGradient id="100ed877-6998-4ff7-b826-7efe49947c44" x1="14.27844" y1="36.94138" x2="14.65697" y2="33.3769" gradientUnits="userSpaceOnUse"><stop offset="0" stop-color="#828282" stop-opacity="0"/><stop offset="0.99719" stop-opacity="0.2"/></linearGradient><linearGradient id="ad30c36b-5051-4a00-8361-71b989e4254e" x1="11.5" y1="32.79198" x2="11.5" y2="12.21733" gradientUnits="userSpaceOnUse"><stop offset="0" stop-color="#fff" stop-opacity="0"/><stop offset="0.52587" stop-color="#fff" stop-opacity="0.00735"/><stop offset="0.71529" stop-color="#fff" stop-opacity="0.03396"/><stop offset="0.8503" stop-color="#fff" stop-opacity="0.0803"/><stop offset="0.95875" stop-color="#fff" stop-opacity="0.14595"/><stop offset="1" stop-color="#fff" stop-opacity="0.18"/></linearGradient><linearGradient id="256ece73-3290-4a0c-b4a8-3c19c8298ad3" x1="26.79167" y1="9.70833" x2="31.72991" y2="4.77009" gradientUnits="userSpaceOnUse"><stop offset="0" stop-color="#fff" stop-opacity="0"/><stop offset="0.44604" stop-color="#fff" stop-opacity="0.00799"/><stop offset="0.63551" stop-color="#fff" stop-opacity="0.03616"/><stop offset="0.77636" stop-color="#fff" stop-opacity="0.08493"/><stop offset="0.8924" stop-color="#fff" stop-opacity="0.15385"/><stop offset="0.99328" stop-color="#fff" stop-opacity="0.24291"/><stop offset="1" stop-color="#fff" stop-opacity="0.25"/></linearGradient></defs><title>FileTypeIcons_Master_All_NEW</title><polygon points="10 3 29 3 36 10 36 37 10 37 10 3" fill="#fff"/><path d="M29,2H9V38H37V10Zm0,1.5L35.5,10H29ZM36,37H10V3H28v8h8Z" fill="#949494"/><path d="M22,22v5H17V22h5m1-1H16v7h7V21Z" fill="#c8c8c8"/><polygon points="3 13 20 11 20 34 3 32 3 13" fill="#3955a3"/><path d="M16,18l-3.29822,9H10.25816L7,18H9.32344l1.99629,6.2636a4.26062,4.26062,0,0,1,.19362.89749h.04006a4.802,4.802,0,0,1,.207-.9226L13.74332,18Z" fill="#fff"/><path d="M29.5,28A2.5,2.5,0,1,1,27,30.5,2.50294,2.50294,0,0,1,29.5,28m0-1A3.5,3.5,0,1,0,33,30.5,3.49985,3.49985,0,0,0,29.5,27Z" fill="#c8c8c8"/><path d="M26.5,15A2.5,2.5,0,1,1,24,17.5,2.50294,2.50294,0,0,1,26.5,15m0-1A3.5,3.5,0,1,0,30,17.5,3.49985,3.49985,0,0,0,26.5,14Z" fill="#c8c8c8"/><rect x="22" y="24" width="8" height="1" fill="#c8c8c8"/><rect x="29" y="24" width="1" height="4" fill="#c8c8c8"/><rect x="26" y="21" width="1" height="4" fill="#c8c8c8"/><circle cx="13.5" cy="6.5" r="0.5" fill="#c8c8c8"/><circle cx="16.5" cy="6.5" r="0.5" fill="#c8c8c8"/><circle cx="16.5" cy="9.5" r="0.5" fill="#c8c8c8"/><circle cx="19.5" cy="6.5" r="0.5" fill="#c8c8c8"/><circle cx="22.5" cy="6.5" r="0.5" fill="#c8c8c8"/><circle cx="25.5" cy="6.5" r="0.5" fill="#c8c8c8"/><circle cx="32.5" cy="16.5" r="0.5" fill="#c8c8c8"/><circle cx="32.5" cy="13.5" r="0.5" fill="#c8c8c8"/><circle cx="32.5" cy="19.5" r="0.5" fill="#c8c8c8"/><circle cx="32.5" cy="22.5" r="0.5" fill="#c8c8c8"/><circle cx="32.5" cy="25.5" r="0.5" fill="#c8c8c8"/><circle cx="24.5" cy="33.5" r="0.5" fill="#c8c8c8"/><circle cx="21.5" cy="33.5" r="0.5" fill="#c8c8c8"/><path d="M29,2H9V12.29419L3,13V32l6,.70581V38H37V10Z" fill="url(#bb5ce7bc-a2a7-4383-8ca1-8d73a9e34130)"/><rect x="28" y="11" width="8" height="3" fill="url(#ff765f9d-ec87-498c-9832-e1b34e4a91f5)"/><polygon points="20 37 9 37 9 32.71 20 34 20 37" fill="url(#100ed877-6998-4ff7-b826-7efe49947c44)"/><polygon points="20 34 3 32 3 13 20 11 20 34" fill="url(#ad30c36b-5051-4a00-8361-71b989e4254e)"/><polygon points="29 2 9 2 9 3 28 3 28 11 36 11 36 25 37 25 37 10 29 2" fill="url(#256ece73-3290-4a0c-b4a8-3c19c8298ad3)"/></svg>