<svg id="065ef0f7-0c26-42fc-938b-f022d878464a" data-name="ICONS" xmlns="http://www.w3.org/2000/svg" xmlns:xlink="http://www.w3.org/1999/xlink" viewBox="0 0 40 40"><defs><linearGradient id="7fc6ba7e-e9eb-4c2b-b9d9-198a9ac6ee65" x1="8.06901" y1="2.7812" x2="37.36447" y2="37.69417" gradientUnits="userSpaceOnUse"><stop offset="0" stop-color="#fff" stop-opacity="0"/><stop offset="0.86247" stop-color="#5e5e5e" stop-opacity="0.06315"/><stop offset="1" stop-opacity="0.1"/></linearGradient><linearGradient id="16eb00ed-1cfb-41b3-a6b6-16eb0d41e087" x1="14.27844" y1="36.94138" x2="14.65697" y2="33.3769" gradientUnits="userSpaceOnUse"><stop offset="0" stop-color="#828282" stop-opacity="0"/><stop offset="0.99719" stop-opacity="0.2"/></linearGradient><linearGradient id="390b802f-c822-4d71-9365-46622a171395" x1="11.5" y1="32.79198" x2="11.5" y2="12.21733" gradientUnits="userSpaceOnUse"><stop offset="0" stop-color="#fff" stop-opacity="0"/><stop offset="0.52587" stop-color="#fff" stop-opacity="0.00735"/><stop offset="0.71529" stop-color="#fff" stop-opacity="0.03396"/><stop offset="0.8503" stop-color="#fff" stop-opacity="0.0803"/><stop offset="0.95875" stop-color="#fff" stop-opacity="0.14595"/><stop offset="1" stop-color="#fff" stop-opacity="0.18"/></linearGradient></defs><title>FileTypeIcons_Master_All_NEW</title><rect x="10" y="3" width="26" height="34" fill="#fff"/><path d="M37,2H9V12.29419L3,13V32l6,.70581V38H37Z" fill="url(#7fc6ba7e-e9eb-4c2b-b9d9-198a9ac6ee65)"/><path d="M9,2V38H37V2ZM36,37H10V3H36Z" fill="#949494"/><rect x="14" y="18" width="8" height="1" fill="#c8c8c8"/><rect x="15.50008" y="12.5" width="12" height="1" transform="translate(34.50008 -8.50008) rotate(90)" fill="#c8c8c8"/><rect x="7.00009" y="12.00013" width="13" height="1" transform="translate(26.00021 -0.99996) rotate(90)" fill="#c8c8c8"/><rect x="14" y="6" width="8" height="1" fill="#c8c8c8"/><rect x="14" y="33" width="8" height="1" fill="#c8c8c8"/><rect x="16" y="27" width="11" height="1" transform="translate(49 6) rotate(90)" fill="#c8c8c8"/><rect x="7" y="27" width="13" height="1" transform="translate(41 14) rotate(90)" fill="#c8c8c8"/><rect x="14" y="21" width="8" height="1" fill="#c8c8c8"/><polygon points="3 13 20 11 20 34 3 32 3 13" fill="#3955a3"/><path d="M16,18l-3.29822,9H10.25816L7,18H9.32344l1.99629,6.2636a4.26062,4.26062,0,0,1,.19362.89749h.04006a4.802,4.802,0,0,1,.207-.9226L13.74332,18Z" fill="#fff"/><rect x="25" y="18" width="8" height="1" fill="#c8c8c8"/><rect x="27" y="12" width="11" height="1" transform="translate(45 -20) rotate(90)" fill="#c8c8c8"/><rect x="18" y="12" width="13" height="1" transform="translate(37 -12) rotate(90)" fill="#c8c8c8"/><rect x="25" y="6" width="8" height="1" fill="#c8c8c8"/><rect x="25" y="33" width="8" height="1" fill="#c8c8c8"/><rect x="27" y="27" width="11" height="1" transform="translate(60 -5) rotate(90)" fill="#c8c8c8"/><rect x="18" y="27" width="13" height="1" transform="translate(52 3) rotate(90)" fill="#c8c8c8"/><rect x="25" y="21" width="8" height="1" fill="#c8c8c8"/><polygon points="20 37 9 37 9 32.71 20 34 20 37" fill="url(#16eb00ed-1cfb-41b3-a6b6-16eb0d41e087)"/><polygon points="20 34 3 32 3 13 20 11 20 34" fill="url(#390b802f-c822-4d71-9365-46622a171395)"/></svg>