<svg id="571877f3-c177-4824-94d5-d2b6fd1b70b8" data-name="ICONS" xmlns="http://www.w3.org/2000/svg" xmlns:xlink="http://www.w3.org/1999/xlink" viewBox="0 0 40 40"><defs><linearGradient id="9a90cfdc-6c93-409d-9ad4-430fcbe538b8" x1="23" y1="37.90625" x2="23" y2="35.08751" gradientUnits="userSpaceOnUse"><stop offset="0" stop-color="#828282" stop-opacity="0"/><stop offset="0.86247" stop-color="#303030" stop-opacity="0.06315"/><stop offset="1" stop-opacity="0.1"/></linearGradient><linearGradient id="e9e2974a-8efa-4912-9035-6011f7d5957e" x1="11.5" y1="32.79198" x2="11.5" y2="12.21733" gradientUnits="userSpaceOnUse"><stop offset="0" stop-color="#fff" stop-opacity="0"/><stop offset="0.52587" stop-color="#fff" stop-opacity="0.00735"/><stop offset="0.71529" stop-color="#fff" stop-opacity="0.03396"/><stop offset="0.8503" stop-color="#fff" stop-opacity="0.0803"/><stop offset="0.95875" stop-color="#fff" stop-opacity="0.14595"/><stop offset="1" stop-color="#fff" stop-opacity="0.18"/></linearGradient><linearGradient id="434d427f-1206-4936-9d8f-b304717428a6" x1="22.9099" y1="6.21915" x2="23.13365" y2="1.94985" gradientUnits="userSpaceOnUse"><stop offset="0" stop-color="#fff" stop-opacity="0"/><stop offset="0.44604" stop-color="#fff" stop-opacity="0.00799"/><stop offset="0.63551" stop-color="#fff" stop-opacity="0.03616"/><stop offset="0.77636" stop-color="#fff" stop-opacity="0.08493"/><stop offset="0.8924" stop-color="#fff" stop-opacity="0.15385"/><stop offset="0.99328" stop-color="#fff" stop-opacity="0.24291"/><stop offset="1" stop-color="#fff" stop-opacity="0.25"/></linearGradient><linearGradient id="551f9978-87f2-4a43-b26e-a357be49e4ef" x1="19.12564" y1="15.62113" x2="36.75778" y2="38.18924" gradientUnits="userSpaceOnUse"><stop offset="0" stop-color="#fff" stop-opacity="0"/><stop offset="0.86247" stop-color="#5e5e5e" stop-opacity="0.06315"/><stop offset="1" stop-opacity="0.1"/></linearGradient><linearGradient id="1ebf2899-865b-46a7-abc6-3901a63494c8" x1="9.96994" y1="6.2422" x2="33.03006" y2="35.7578" xlink:href="#551f9978-87f2-4a43-b26e-a357be49e4ef"/><linearGradient id="9533501d-9571-427e-9204-171e9fdd28b6" x1="14.30706" y1="36.67182" x2="14.65748" y2="33.37204" gradientUnits="userSpaceOnUse"><stop offset="0" stop-color="#828282" stop-opacity="0"/><stop offset="0.99719" stop-opacity="0.2"/></linearGradient></defs><title>FileTypeIcons_Master_All_NEW</title><polygon points="34 5 34 2 9 2 9 35 12 35 12 38 37 38 37 5 34 5" fill="#fff"/><polygon points="36 6 36 37 13 37 13 35 34 35 34 7 33 7 33 34 13 34 12 34 10 34 10 7 9 7 9 35 12 35 12 38 37 38 37 7 36 6" fill="#949494"/><path d="M21,20v5H16V20h5m1-1H15v7h7V19Z" fill="#c8c8c8"/><polygon points="34 2 9 2 9 7 34 7 34 4 37 7 37 5 34 2" fill="#3955a3"/><polygon points="3 13 20 11 20 34 3 32 3 13" fill="#3955a3"/><path d="M27.5,26A2.5,2.5,0,1,1,25,28.5,2.50294,2.50294,0,0,1,27.5,26m0-1A3.5,3.5,0,1,0,31,28.5,3.49985,3.49985,0,0,0,27.5,25Z" fill="#c8c8c8"/><path d="M25.5,13A2.5,2.5,0,1,1,23,15.5,2.50294,2.50294,0,0,1,25.5,13m0-1A3.5,3.5,0,1,0,29,15.5,3.49985,3.49985,0,0,0,25.5,12Z" fill="#c8c8c8"/><rect x="22" y="22" width="6" height="1" fill="#c8c8c8"/><rect x="27" y="22" width="1" height="4" fill="#c8c8c8"/><rect x="25" y="19" width="1" height="4" fill="#c8c8c8"/><circle cx="12.5" cy="9.5" r="0.5" fill="#c8c8c8"/><circle cx="15.5" cy="9.5" r="0.5" fill="#c8c8c8"/><circle cx="18.5" cy="9.5" r="0.5" fill="#c8c8c8"/><circle cx="21.5" cy="9.5" r="0.5" fill="#c8c8c8"/><circle cx="24.5" cy="9.5" r="0.5" fill="#c8c8c8"/><circle cx="30.5" cy="23.5" r="0.5" fill="#c8c8c8"/><circle cx="22.5" cy="31.5" r="0.5" fill="#c8c8c8"/><circle cx="30.5" cy="20.5" r="0.5" fill="#c8c8c8"/><circle cx="30.5" cy="17.5" r="0.5" fill="#c8c8c8"/><circle cx="30.5" cy="14.5" r="0.5" fill="#c8c8c8"/><path d="M16,18l-3.29822,9H10.25816L7,18H9.32344l1.99629,6.2636a4.26062,4.26062,0,0,1,.19362.89749h.04006a4.802,4.802,0,0,1,.207-.9226L13.74332,18Z" fill="#fff"/><rect x="12" y="35" width="22" height="3" fill="url(#9a90cfdc-6c93-409d-9ad4-430fcbe538b8)"/><polygon points="20 34 3 32 3 13 20 11 20 34" fill="url(#e9e2974a-8efa-4912-9035-6011f7d5957e)"/><polygon points="34 2 9 2 9 7 34 7 34 4 37 7 37 5 34 2" fill="url(#434d427f-1206-4936-9d8f-b304717428a6)"/><polygon points="34 4 34 35 13 35 12 35 12 38 37 38 37 7 34 4" fill="url(#551f9978-87f2-4a43-b26e-a357be49e4ef)"/><polygon points="9 7 9 35 12 35 13 35 34 35 34 10.394 34 9.545 34 7 9 7" fill="url(#1ebf2899-865b-46a7-abc6-3901a63494c8)"/><polygon points="20 37 12 37 12 35 9 35 9 32.71 20 34 20 37" fill="url(#9533501d-9571-427e-9204-171e9fdd28b6)"/></svg>