<svg id="0fb8c728-eec5-4268-8cb8-04de19faa331" data-name="ICONS" xmlns="http://www.w3.org/2000/svg" xmlns:xlink="http://www.w3.org/1999/xlink" viewBox="0 0 40 40"><defs><linearGradient id="a406e6c3-778d-45a6-ba6b-1838f31162f9" x1="6.09939" y1="4.4339" x2="35.39486" y2="39.34688" gradientUnits="userSpaceOnUse"><stop offset="0" stop-color="#fff" stop-opacity="0"/><stop offset="0.86247" stop-color="#5e5e5e" stop-opacity="0.06315"/><stop offset="1" stop-opacity="0.1"/></linearGradient><linearGradient id="5cc954b9-89cc-4013-8e7f-1df9211a0c0c" x1="32" y1="13.90625" x2="32" y2="11.08751" gradientUnits="userSpaceOnUse"><stop offset="0" stop-color="#828282" stop-opacity="0"/><stop offset="0.86247" stop-color="#303030" stop-opacity="0.06315"/><stop offset="1" stop-opacity="0.1"/></linearGradient><linearGradient id="b147c8ab-d29f-44c1-aa95-1c8647e9b704" x1="14.27844" y1="36.94138" x2="14.65697" y2="33.3769" gradientUnits="userSpaceOnUse"><stop offset="0" stop-color="#828282" stop-opacity="0"/><stop offset="0.99719" stop-opacity="0.2"/></linearGradient><linearGradient id="ff3671e5-60a6-4fe5-b2c0-9a422b5cdafb" x1="11.5" y1="32.79198" x2="11.5" y2="12.21733" gradientUnits="userSpaceOnUse"><stop offset="0" stop-color="#fff" stop-opacity="0"/><stop offset="0.52587" stop-color="#fff" stop-opacity="0.00735"/><stop offset="0.71529" stop-color="#fff" stop-opacity="0.03396"/><stop offset="0.8503" stop-color="#fff" stop-opacity="0.0803"/><stop offset="0.95875" stop-color="#fff" stop-opacity="0.14595"/><stop offset="1" stop-color="#fff" stop-opacity="0.18"/></linearGradient><linearGradient id="97d08c0e-373e-48f0-b40e-4f63290ffc9b" x1="26.79167" y1="9.70833" x2="31.72991" y2="4.77009" gradientUnits="userSpaceOnUse"><stop offset="0" stop-color="#fff" stop-opacity="0"/><stop offset="0.44604" stop-color="#fff" stop-opacity="0.00799"/><stop offset="0.63551" stop-color="#fff" stop-opacity="0.03616"/><stop offset="0.77636" stop-color="#fff" stop-opacity="0.08493"/><stop offset="0.8924" stop-color="#fff" stop-opacity="0.15385"/><stop offset="0.99328" stop-color="#fff" stop-opacity="0.24291"/><stop offset="1" stop-color="#fff" stop-opacity="0.25"/></linearGradient></defs><title>FileTypeIcons_Master_All_NEW</title><polygon points="10 3 29 3 36 10 36 37 10 37 10 3" fill="#fff"/><path d="M29,2H9V38H37V10Zm0,1.5L35.5,10H29ZM36,37H10V3H28v8h8Z" fill="#949494"/><polygon points="3 13 20 11 20 34 3 32 3 13" fill="#217346"/><path d="M16,27H13.40632l-1.67269-2.931a2.42845,2.42845,0,0,1-.19638-.60251h-.02709a4.34238,4.34238,0,0,1-.22348.62761L9.60722,27H7l3.09481-4.5L7.26411,18h2.6614l1.38826,2.69874a4.45565,4.45565,0,0,1,.2912.75942h.02708q.08127-.26359.30474-.78452L13.48081,18h2.43793l-2.912,4.46234Z" fill="#fff"/><rect x="28" y="32" width="5" height="2" fill="#c8c8c8"/><rect x="28" y="17" width="5" height="2" fill="#c8c8c8"/><rect x="28" y="20" width="5" height="2" fill="#c8c8c8"/><rect x="28" y="14" width="5" height="2" fill="#c8c8c8"/><rect x="28" y="29" width="5" height="2" fill="#c8c8c8"/><rect x="28" y="23" width="5" height="2" fill="#c8c8c8"/><rect x="28" y="26" width="5" height="2" fill="#c8c8c8"/><rect x="22" y="32" width="5" height="2" fill="#c8c8c8"/><rect x="22" y="17" width="5" height="2" fill="#c8c8c8"/><rect x="22" y="20" width="5" height="2" fill="#c8c8c8"/><rect x="22" y="14" width="5" height="2" fill="#c8c8c8"/><rect x="22" y="29" width="5" height="2" fill="#c8c8c8"/><rect x="22" y="23" width="5" height="2" fill="#c8c8c8"/><rect x="22" y="26" width="5" height="2" fill="#c8c8c8"/><rect x="20" y="32" width="1" height="2" fill="#c8c8c8"/><rect x="20" y="17" width="1" height="2" fill="#c8c8c8"/><rect x="20" y="20" width="1" height="2" fill="#c8c8c8"/><rect x="20" y="14" width="1" height="2" fill="#c8c8c8"/><rect x="20" y="29" width="1" height="2" fill="#c8c8c8"/><rect x="20" y="23" width="1" height="2" fill="#c8c8c8"/><rect x="20" y="26" width="1" height="2" fill="#c8c8c8"/><path d="M29,2H9V12.29419L3,13V32l6,.70581V38H37V10Z" fill="url(#a406e6c3-778d-45a6-ba6b-1838f31162f9)"/><rect x="28" y="11" width="8" height="3" fill="url(#5cc954b9-89cc-4013-8e7f-1df9211a0c0c)"/><polygon points="20 37 9 37 9 32.71 20 34 20 37" fill="url(#b147c8ab-d29f-44c1-aa95-1c8647e9b704)"/><polygon points="20 34 3 32 3 13 20 11 20 34" fill="url(#ff3671e5-60a6-4fe5-b2c0-9a422b5cdafb)"/><polygon points="29 2 9 2 9 3 28 3 28 11 36 11 36 25 37 25 37 10 29 2" fill="url(#97d08c0e-373e-48f0-b40e-4f63290ffc9b)"/></svg>