<svg id="9b51917f-9ef2-4a02-89ca-af64280da1e4" data-name="ICONS" xmlns="http://www.w3.org/2000/svg" xmlns:xlink="http://www.w3.org/1999/xlink" viewBox="0 0 40 40"><defs><linearGradient id="faa507fb-50da-4ed4-b965-6c4c16ea7aeb" x1="23" y1="37.90625" x2="23" y2="35.08751" gradientUnits="userSpaceOnUse"><stop offset="0" stop-color="#828282" stop-opacity="0"/><stop offset="0.86247" stop-color="#303030" stop-opacity="0.06315"/><stop offset="1" stop-opacity="0.1"/></linearGradient><linearGradient id="b72fbfb2-e73e-4a10-82a4-10e57fbd3424" x1="22.9099" y1="6.21915" x2="23.13365" y2="1.94985" gradientUnits="userSpaceOnUse"><stop offset="0" stop-color="#fff" stop-opacity="0"/><stop offset="0.44604" stop-color="#fff" stop-opacity="0.00799"/><stop offset="0.63551" stop-color="#fff" stop-opacity="0.03616"/><stop offset="0.77636" stop-color="#fff" stop-opacity="0.08493"/><stop offset="0.8924" stop-color="#fff" stop-opacity="0.15385"/><stop offset="0.99328" stop-color="#fff" stop-opacity="0.24291"/><stop offset="1" stop-color="#fff" stop-opacity="0.25"/></linearGradient><linearGradient id="ffbd2c26-4c92-4609-8fca-406178963e5e" x1="19.12564" y1="15.62113" x2="36.75778" y2="38.18924" gradientUnits="userSpaceOnUse"><stop offset="0" stop-color="#fff" stop-opacity="0"/><stop offset="0.86247" stop-color="#5e5e5e" stop-opacity="0.06315"/><stop offset="1" stop-opacity="0.1"/></linearGradient><linearGradient id="6cf7251f-af5b-4d6f-be72-5f4fca2e18f4" x1="9.96994" y1="6.2422" x2="33.03006" y2="35.7578" xlink:href="#ffbd2c26-4c92-4609-8fca-406178963e5e"/><linearGradient id="9559a013-388f-4448-b346-46f08a00e908" x1="14.30706" y1="36.67182" x2="14.65748" y2="33.37204" gradientUnits="userSpaceOnUse"><stop offset="0" stop-color="#828282" stop-opacity="0"/><stop offset="0.99719" stop-opacity="0.2"/></linearGradient><linearGradient id="4acd999a-e057-4975-9795-0c5866f4cb33" x1="11.5" y1="32.79198" x2="11.5" y2="12.21733" gradientUnits="userSpaceOnUse"><stop offset="0" stop-color="#fff" stop-opacity="0"/><stop offset="0.52587" stop-color="#fff" stop-opacity="0.00735"/><stop offset="0.71529" stop-color="#fff" stop-opacity="0.03396"/><stop offset="0.8503" stop-color="#fff" stop-opacity="0.0803"/><stop offset="0.95875" stop-color="#fff" stop-opacity="0.14595"/><stop offset="1" stop-color="#fff" stop-opacity="0.18"/></linearGradient></defs><title>FileTypeIcons_Master_All_NEW</title><polygon points="34 5 34 2 9 2 9 35 12 35 12 38 37 38 37 5 34 5" fill="#fff"/><polygon points="34 2 9 2 9 7 34 7 34 4 37 7 37 5 34 2" fill="#217346"/><polygon points="36 6 36 37 13 37 13 35 34 35 34 7 33 7 33 34 13 34 12 34 10 34 10 7 9 7 9 35 12 35 12 38 37 38 37 7 36 6" fill="#949494"/><polygon points="3 13 20 11 20 34 3 32 3 13" fill="#217346"/><rect x="25" y="29" width="5" height="2" fill="#c8c8c8"/><rect x="20" y="29" width="4" height="2" fill="#c8c8c8"/><rect x="25" y="26" width="5" height="2" fill="#c8c8c8"/><rect x="20" y="26" width="4" height="2" fill="#c8c8c8"/><rect x="25" y="23" width="5" height="2" fill="#c8c8c8"/><rect x="20" y="23" width="4" height="2" fill="#c8c8c8"/><rect x="25" y="20" width="5" height="2" fill="#c8c8c8"/><rect x="20" y="20" width="4" height="2" fill="#c8c8c8"/><rect x="25" y="17" width="5" height="2" fill="#c8c8c8"/><rect x="20" y="17" width="4" height="2" fill="#c8c8c8"/><rect x="25" y="14" width="5" height="2" fill="#c8c8c8"/><rect x="20" y="14" width="4" height="2" fill="#c8c8c8"/><path d="M16,27H13.40632l-1.67269-2.931a2.42845,2.42845,0,0,1-.19638-.60251h-.02709a4.34238,4.34238,0,0,1-.22348.62761L9.60722,27H7l3.09481-4.5L7.26411,18h2.6614l1.38826,2.69874a4.45565,4.45565,0,0,1,.2912.75942h.02708q.08127-.26359.30474-.78452L13.48081,18h2.43793l-2.912,4.46234Z" fill="#fff"/><rect x="12" y="35" width="22" height="3" fill="url(#faa507fb-50da-4ed4-b965-6c4c16ea7aeb)"/><polygon points="34 2 9 2 9 7 34 7 34 4 37 7 37 5 34 2" fill="url(#b72fbfb2-e73e-4a10-82a4-10e57fbd3424)"/><polygon points="34 4 34 35 13 35 12 35 12 38 37 38 37 7 34 4" fill="url(#ffbd2c26-4c92-4609-8fca-406178963e5e)"/><polygon points="9 7 9 35 12 35 13 35 34 35 34 10.394 34 9.545 34 7 9 7" fill="url(#6cf7251f-af5b-4d6f-be72-5f4fca2e18f4)"/><polygon points="20 37 12 37 12 35 9 35 9 32.71 20 34 20 37" fill="url(#9559a013-388f-4448-b346-46f08a00e908)"/><polygon points="20 34 3 32 3 13 20 11 20 34" fill="url(#4acd999a-e057-4975-9795-0c5866f4cb33)"/></svg>