<svg id="e565af58-1326-4958-98e3-fd97d8089e63" data-name="ICONS" xmlns="http://www.w3.org/2000/svg" xmlns:xlink="http://www.w3.org/1999/xlink" viewBox="0 0 40 40"><defs><linearGradient id="f627ffa4-70b2-4359-9ceb-9133460b416a" x1="3.38265" y1="4.19622" x2="32.67812" y2="39.10919" gradientUnits="userSpaceOnUse"><stop offset="0" stop-color="#fff" stop-opacity="0"/><stop offset="0.86247" stop-color="#5e5e5e" stop-opacity="0.06315"/><stop offset="1" stop-opacity="0.1"/></linearGradient><linearGradient id="ce992a5f-56f2-4054-964f-316deb565761" x1="29" y1="13.90625" x2="29" y2="11.08751" gradientUnits="userSpaceOnUse"><stop offset="0" stop-color="#828282" stop-opacity="0"/><stop offset="1" stop-opacity="0.1"/></linearGradient><linearGradient id="ee0ec6d9-0a34-4011-baa6-470756717ffe" x1="23.79167" y1="9.70833" x2="28.72991" y2="4.77009" gradientUnits="userSpaceOnUse"><stop offset="0" stop-color="#fff" stop-opacity="0"/><stop offset="0.44604" stop-color="#fff" stop-opacity="0.00799"/><stop offset="0.63551" stop-color="#fff" stop-opacity="0.03616"/><stop offset="0.77636" stop-color="#fff" stop-opacity="0.08493"/><stop offset="0.8924" stop-color="#fff" stop-opacity="0.15385"/><stop offset="0.99328" stop-color="#fff" stop-opacity="0.24291"/><stop offset="1" stop-color="#fff" stop-opacity="0.25"/></linearGradient></defs><title>FileTypeIcons_Master_All_NEW</title><polygon points="7 3 26 3 33 10 33 37 7 37 7 3" fill="#fff"/><path d="M26,2H6V38H34V10Zm0,1.5L32.5,10H26ZM33,37H7V3H25v8h8Z" fill="#949494"/><rect x="10" y="32" width="20" height="1" fill="#c8c8c8"/><rect x="10" y="29" width="20" height="1" fill="#c8c8c8"/><polygon points="27 24 26 24 29 20 26 16 27 16 30.143 20 27 24" fill="#949494"/><polygon points="13.143 24 14.143 24 11.143 20 14.143 16 13.143 16 10 20 13.143 24" fill="#949494"/><circle cx="20" cy="20" r="5" fill="#6caedf"/><path d="M22.53792,15.69237l-.03174-.01825-.00185.01068C22.51643,15.68687,22.52642,15.69,22.53792,15.69237Z" fill="#deebf8"/><path d="M17.38739,19.64274c-.063-.01489.01917.26687.06911.295.13294-.01368-.02568-.11336.18718-.001a.2537.2537,0,0,0,.18164.05563c-.0049.00919.00264.013.04055-.0061l.00064-.00266C17.90585,19.79094,17.53724,19.67617,17.38739,19.64274Z" fill="#deebf8"/><path d="M17.22451,19.41563c-.03386-.1421-.23669-.52578-.42079-.44526-.044.25034.19347.44751.21938.53577C17.08507,19.71979,17.36579,19.45415,17.22451,19.41563Z" fill="#deebf8"/><path d="M23.99133,16.98889c-.01351-.00913-.0264-.02093-.04012-.0291-.01039.14885.01163.38961-.16045.37349-.07012-.00672-.118.05323-.18062-.00487-.04444-.041-.04934-.09259-.10969-.1099-.0801-.23833-.2638-.022-.29519.14414.052.18512-.20509.20386-.20612.34394-.00081.08664-.05342.14125-.05953.23363-.00654.09642.14271.24156.11661.28295l-.09134.47035a1.39813,1.39813,0,0,0,.02245.578c.06055.13862.23769.28584.20162.46891-.02794.146.02486.37063.19347.378a1.82159,1.82159,0,0,0,.2577.19347c.00752.06584.10438.145.15637.16514.13882.03811.1743.09212.26381-.05872.05973-.10073.29561-.16535.27643-.22813a.37562.37562,0,0,1,.3743-.35412c.11867-.01571.1105.264.11909.32658a.85726.85726,0,0,0,.1564.1866C24.9945,20.2337,25,20.11752,25,20A4.97721,4.97721,0,0,0,23.99133,16.98889Z" fill="#deebf8"/><path d="M21.32433,15.21407a.81217.81217,0,0,0-.403-.01835c-.20775.04811.30622.32352.37777.3806.06179.04874.07645.105.14312.15861.073-.01283.10378.02694.16515.04875.08419.02976.17388-.03345.27215.00162.07993.02916.06362.10213.08074.17451.14231-.02385-.00164-.22488-.04179-.27787-.06179-.082-.21672-.07115-.29173-.17186.09948-.01489.19142-.13375.21608.043.0836.05911.14394.06158.22161.13864.04262.04221.07992-.01223.10642.01569.01814.06382.05484.17085-.00021.234-.07521.08605-.00141.23263.00633.33069-.0163.08357.09541.21874.0204.29113-.05525.05342.1164.09173.15412.107.0638.02566.22365.16309.21527.23729-.003.02835-.17289.11315-.20711.11477-.08338.00348.08155.21446.09234.24872.0416.07687.14189.1364.17553.208.08155.1737.06911-.012.15189.05547.07236.05953.16328-.02429.21161-.07278a.5318.5318,0,0,0,.00063-.239c-.02082-.05769-.07668-.0532-.11294-.07257a1.38382,1.38382,0,0,1-.02325-.208c-.02182-.11234-.075-.18531.00854-.30375.04345-.06179.306.10071.35455.14556.05217.04832.12212-.16208-.06016-.17533-.06664-.05076-.20651-.08359-.23259-.15964.06889-.13191.35288.26075.46911.18736.01466-.06953-.10969-.1099-.11807-.19492a.50975.50975,0,0,0-.029-.13718c-.02037-.03841-.05455-.11824-.08868-.17933a5.01334,5.01334,0,0,0-.62125-.43266c-.0115-.00236-.02149-.0055-.03359-.00757l.00185-.01068a4.98057,4.98057,0,0,0-.54159-.27289c-.05938-.01121-.11257-.02179-.15178-.03325C21.69743,15.33475,21.44321,15.168,21.32433,15.21407Z" fill="#deebf8"/><path d="M21.88234,16.15921c-.00081-.00551-.47625-.2263-.46992-.21427.00654.01264-.01365,0-.00223,0-.17717-.01631.19795.24036.20651.24156-.11071.08951-.00775.19655.07217.27972.06095.00082.12069-.17105.12069-.17105.06441.02835.20142.18674.27766.07462C22.18283,16.22935,21.97245,16.15614,21.88234,16.15921Z" fill="#deebf8"/><path d="M19.17758,24.25736c.16045-.06627.31274-.43935.47911-.49561.01366-.31825.45565-.211.6326-.25668a.42342.42342,0,0,0,.35229-.31438c.03057-.125.04669-.22181.188-.26932.0948-.0905.28154-.24016.27562-.38265-.00408-.08991.01529-.21958-.12313-.20591-.12457.01263-.15107-.098-.25607-.11194-.13414-.01732-.26952.01531-.39979.00777a1.32155,1.32155,0,0,0-.25648-.11131c-.07685-.02509-.21506-.24139-.26522-.29095-.073-.07215-.15574-.02037-.24546-.01976-.07932-.06748.12721-.18246.05893-.27565-.104-.02181-.18573-.13167-.27095-.2224a1.39247,1.39247,0,0,0-.17678-.12906c-.16164-.03-.30863.04587-.42913-.08523-.01611-.01752-.20222-.18041-.20222-.18041.00222-.01856.10254-.04751.00894-.07176-.04037-.05158-.06116-.08848-.1274-.08971-.11294-.04914-.06628-.14862-.1998-.0952a1.224,1.224,0,0,0-.15658.03485c-.0583-.0263-.06013-.10356-.138-.09417-.12682.01569-.19205-.13478-.32905-.13131a.18715.18715,0,0,1-.17268.17472c-.12477-.00244-.11315-.22121-.28053-.13843-.07849.03874-.01183.12846-.14637.12945-.07624.00063-.07239.03344-.07239.06037-.10619-.03223-.22609-.22937-.30884-.3415-.0367-.13394-.31478-.16433-.2677-.31782a.68694.68694,0,0,0,.00142-.4679c-.031-.04627-.07808-.15433-.13107-.18041-.04568-.02285.03792-.03384.01427-.09481a.89058.89058,0,0,0,.15391-.42464c-.18653-.1356-.23485.09865-.37023.10865-.22037.01589-.20121-.115-.22893-.25383a.84472.84472,0,0,1,.03-.40162c.03691-.14741.25037-.20815.26179-.391.0632-.0263.19307-.0907.2642-.06483.07932.02874.166.1111.2416.13354a1.49029,1.49029,0,0,0,.23709.0157c.05361.03875.03711.0942.11681.10255.07321.00774-.00713.12477-.01346.2-.00548.06544-.11029.399.04751.39124.107-.00512.18247-.37331.1941-.45239.01937-.13171.15779-.20491.27133-.25588.09318-.042.33906-.0789.36862-.18572A.60365.60365,0,0,0,17.882,17.647c.01488-.04281.13069-.05076.167-.07481.10909-.07258.2671-.20572.40491-.16635.09132.02588.21161-.1625.32822-.17493a2.97183,2.97183,0,0,1,.30846-.05118c-.01874.086-.1431.06973-.1425.17288.10478.06179.50538-.094.31641-.12782-.2098-.03771-.08644-.34087-.12029-.348-.17187-.03548-.00244-.11763.10845-.0954.071.01406.22795.10275.28441.06278.2679-.18877.10336.16982.09887.22263a.56157.56157,0,0,0,.23018.08829c.03731-.03853.13313-.00491.09785-.10092-.04567-.04365-.0801-.00328-.12007-.0679-.04791-.07727.043-.16574.05789-.24585.01143-.061.0051-.08667-.05768-.10032-.02181-.04892.02874-.10785.00039-.15514a.63809.63809,0,0,1-.12639-.2677c-.04181-.24666-.21346-.05789-.3533-.17388.08826-.09972-.00226-.199-.07381-.23467-.07829-.03893-.19226-.11988-.22672.02874-.1064.051-.1492.04058-.17267.16637-.02977.16045-.01407.08481-.10743.14291-.13334.083-.18756-.01833-.23343.17308-.11479.03916-.2846.05057-.11071-.12619.18023-.18368-.38308-.34678-.07726-.5643.10786-.07647.26318-.06076.35025-.12681a.985.985,0,0,1,.15249-.02141.26332.26332,0,0,0,.221.06808c.09113-.012.19509-.1011.2846.02082.08483.11619.0779.16776.22365.17205.21775-.11518.39388-.07463.46158-.35575.05585-.23281-.35943-.21142-.50316-.27891-.15475-.07215.22914-.072.23465-.07766l-.0348-.02352a4.97932,4.97932,0,0,0-1.41955.27936,3.49575,3.49575,0,0,0-.41392.19532c-.133.0564-.27091.11786-.40861.1834a5.01807,5.01807,0,0,0-2.08508,2.31673.678.678,0,0,1-.00841.29249,1.16079,1.16079,0,0,0,.03466.49093,1.27448,1.27448,0,0,0,.11355.35882c.03567.05932.13476-.02814.188-.00367.08438.03873.11906.16451.14027.23077a2.10256,2.10256,0,0,1,.08561.20775c.0373.03973.16186.00813.17532.07318a.24335.24335,0,0,0,.0155.15758c.03916.096-.02508.25525.05057.46525a.51257.51257,0,0,0,.29866.32192c.07339.03687.09827.12436.16045.275.03037.0744.1164-.0157.11987.10233a.85192.85192,0,0,1-.0006.22895c-.03263.12456-.285.1959-.2732.34719-.00917.06013.07238.07483.08115.1268.0059.03609-.00531.09459-.00266.13273.00654.08847.12458.15454.1782.21976.063.07667.08887.19349.14924.26974a1.05714,1.05714,0,0,1,.22546.39,2.7649,2.7649,0,0,0,.43117.30457c.20308.22223.17187.948.16536,1.27359a.71669.71669,0,0,0,.02825.23454,4.96376,4.96376,0,0,0,.92016.34766c.04241-.03824.09-.07611.10621-.09149C18.93866,24.61452,19.02346,24.32157,19.17758,24.25736Zm-1.3321-7.6476a.18432.18432,0,0,1,.35168-.10827c.05791.15394.15108.23875.14864.42182-.00124.07747-.10418.11315-.14189.17451-.25485-.02895-.13252-.04465-.18288-.21427.012.04689-.04016-.02-.01079-.01121-.07932-.02814-.1841.09642-.23019-.04342C17.74764,16.72677,17.86793,16.6976,17.84548,16.60976Z" fill="#deebf8"/><path d="M34,10,26,2H6V38H34Z" fill="url(#f627ffa4-70b2-4359-9ceb-9133460b416a)"/><rect x="25" y="11" width="8" height="3" fill="url(#ce992a5f-56f2-4054-964f-316deb565761)"/><polygon points="26 2 6 2 6 3 25 3 25 11 33 11 33 25 34 25 34 10 26 2" fill="url(#ee0ec6d9-0a34-4011-baa6-470756717ffe)"/></svg>