<?xml version="1.0" encoding="utf-8"?>
<!-- Generator: Adobe Illustrator 21.1.0, SVG Export Plug-In . SVG Version: 6.00 Build 0)  -->
<svg version="1.1" xmlns="http://www.w3.org/2000/svg" xmlns:xlink="http://www.w3.org/1999/xlink" x="0px" y="0px"
	 viewBox="0 0 40 40" enable-background="new 0 0 40 40" xml:space="preserve">
<g id="TEMPLATE" display="none">
	<g display="inline">
		<path fill="#D0D0D0" d="M40,0v40H0V0H40 M41-1h-1H0h-1v1v40v1h1h40h1v-1V0V-1L41-1z"/>
	</g>
	<g display="inline" opacity="0.1">
		<path fill="#FF3A6D" d="M38,2v36H2V2H38 M40,0H0v40h40V0L40,0z"/>
	</g>
</g>
<g id="ICONS">
	<g>
		<polygon fill="#FFFFFF" points="7,3 26,3 33,10 33,37 7,37 		"/>
		<path fill="#949494" d="M26,2H6v36h28V10L26,2z M26,3.5l6.5,6.5H26V3.5z M33,37H7V3h18v8h8V37z"/>
	</g>
	<rect x="10" y="32" fill="#C8C8C8" width="20" height="1"/>
	<rect x="10" y="29" fill="#C8C8C8" width="20" height="1"/>
	<polygon fill="#949494" points="27,24 26,24 29,20 26,16 27,16 30.1429,20 	"/>
	<polygon fill="#949494" points="13.1429,24 14.1429,24 11.1429,20 14.1429,16 13.1429,16 10,20 	"/>
	<g>
		<circle fill="#6CAEDF" cx="20" cy="20" r="5"/>
		<g>
			<path fill="#DEEBF8" d="M22.5379,15.6924c-0.0105-0.0062-0.0212-0.0121-0.0317-0.0183
				c-0.0009,0.0036-0.0006,0.0069-0.0018,0.0107C22.5164,15.6869,22.5264,15.69,22.5379,15.6924z"/>
			<path fill="#DEEBF8" d="M17.3874,19.6427c-0.063-0.0149,0.0192,0.2669,0.0691,0.295c0.1329-0.0137-0.0257-0.1134,0.1872-0.001
				c0.0561,0.0428,0.1168,0.0616,0.1816,0.0556c-0.0049,0.0092,0.0026,0.013,0.0406-0.0061
				c0.0004-0.0012,0.0006-0.0027,0.0006-0.0027C17.9058,19.7909,17.5372,19.6762,17.3874,19.6427z"/>
			<path fill="#DEEBF8" d="M17.2245,19.4156c-0.0339-0.1421-0.2367-0.5258-0.4208-0.4453c-0.044,0.2503,0.1935,0.4475,0.2194,0.5358
				C17.0851,19.7198,17.3658,19.4541,17.2245,19.4156z"/>
			<path fill="#DEEBF8" d="M23.9913,16.9889c-0.0135-0.0091-0.0264-0.0209-0.0401-0.0291
				c-0.0104,0.1488,0.0116,0.3896-0.1604,0.3735c-0.0701-0.0067-0.118,0.0532-0.1806-0.0049
				c-0.0444-0.041-0.0493-0.0926-0.1097-0.1099c-0.0801-0.2383-0.2638-0.022-0.2952,0.1441
				c0.052,0.1851-0.2051,0.2039-0.2061,0.3439c-0.0008,0.0866-0.0534,0.1413-0.0595,0.2336
				c-0.0065,0.0964,0.1427,0.2416,0.1166,0.283l-0.0913,0.4704c-0.0434,0.0563-0.0159,0.4901,0.0224,0.578
				c0.0606,0.1386,0.2377,0.2858,0.2016,0.4689c-0.0279,0.146,0.0249,0.3706,0.1935,0.378
				c0.0852,0.0771,0.1519,0.1247,0.2577,0.1935c0.0075,0.0658,0.1044,0.145,0.1564,0.1651
				c0.1388,0.0381,0.1743,0.0921,0.2638-0.0587c0.0597-0.1007,0.2956-0.1654,0.2764-0.2281
				c0.0428-0.2465,0.1668-0.3266,0.3743-0.3541c0.1187-0.0157,0.1105,0.264,0.1191,0.3266
				c0.0016,0.0119,0.0801,0.1189,0.1564,0.1866C24.9945,20.2337,25,20.1175,25,20C25,18.8692,24.6242,17.8265,23.9913,16.9889z"/>
			<path fill="#DEEBF8" d="M21.3243,15.2141c-0.1657-0.0216-0.2085-0.0632-0.403-0.0183c-0.2078,0.0481,0.3062,0.3235,0.3778,0.3806
				c0.0618,0.0487,0.0765,0.105,0.1431,0.1586c0.073-0.0128,0.1038,0.0269,0.1651,0.0487c0.0842,0.0298,0.1739-0.0334,0.2722,0.0016
				c0.0799,0.0292,0.0636,0.1021,0.0807,0.1745c0.1423-0.0239-0.0016-0.2249-0.0418-0.2779
				c-0.0618-0.082-0.2167-0.0712-0.2917-0.1719c0.0995-0.0149,0.1914-0.1338,0.2161,0.043
				c0.0836,0.0591,0.1439,0.0616,0.2216,0.1386c0.0426,0.0422,0.0799-0.0122,0.1064,0.0157
				c0.0181,0.0638,0.0548,0.1708-0.0002,0.234c-0.0752,0.086-0.0014,0.2326,0.0063,0.3307
				c-0.0163,0.0836,0.0954,0.2187,0.0204,0.2911c-0.0552,0.0534,0.1164,0.0917,0.1541,0.107
				c0.0638,0.0257,0.2236,0.1631,0.2153,0.2373c-0.003,0.0283-0.1729,0.1131-0.2071,0.1148
				c-0.0834,0.0035,0.0815,0.2145,0.0923,0.2487c0.0416,0.0769,0.1419,0.1364,0.1755,0.2079
				c0.0815,0.1737,0.0691-0.012,0.1519,0.0555c0.0724,0.0595,0.1633-0.0243,0.2116-0.0728c0.0157-0.0603,0.0212-0.1831,0.0006-0.239
				c-0.0208-0.0577-0.0767-0.0532-0.1129-0.0726c-0.0214-0.0528-0.0118-0.1496-0.0233-0.2079
				c-0.0218-0.1123-0.075-0.1853,0.0085-0.3038c0.0434-0.0618,0.306,0.1007,0.3545,0.1456
				c0.0522,0.0483,0.1221-0.1621-0.0602-0.1753c-0.0666-0.0508-0.2065-0.0836-0.2326-0.1596
				c0.0689-0.1319,0.3529,0.2607,0.4691,0.1874c0.0147-0.0695-0.1097-0.1099-0.1181-0.1949
				c-0.0026-0.0265-0.0122-0.1064-0.029-0.1372c-0.0204-0.0384-0.0546-0.1182-0.0887-0.1793
				c-0.1953-0.1594-0.4031-0.3038-0.6213-0.4327c-0.0115-0.0024-0.0215-0.0055-0.0336-0.0076
				c0.0013-0.0038,0.0009-0.007,0.0018-0.0107c-0.1743-0.1012-0.3547-0.193-0.5416-0.2729
				c-0.0594-0.0112-0.1126-0.0218-0.1518-0.0333C21.6974,15.3348,21.4432,15.168,21.3243,15.2141z"/>
			<path fill="#DEEBF8" d="M21.8823,16.1592c-0.0008-0.0055-0.4762-0.2263-0.4699-0.2143c0.0065,0.0126-0.0136,0-0.0022,0
				c-0.1772-0.0163,0.1979,0.2404,0.2065,0.2416c-0.1107,0.0895-0.0077,0.1965,0.0722,0.2797
				c0.0609,0.0008,0.1207-0.1711,0.1207-0.1711c0.0644,0.0283,0.2014,0.1867,0.2777,0.0746
				C22.1828,16.2293,21.9724,16.1561,21.8823,16.1592z"/>
			<path fill="#DEEBF8" d="M19.1776,24.2574c0.1604-0.0663,0.3127-0.4393,0.4791-0.4956c0.0137-0.3183,0.4556-0.211,0.6326-0.2567
				c0.1965-0.0496,0.3119-0.148,0.3523-0.3144c0.0306-0.125,0.0467-0.2218,0.188-0.2693c0.0948-0.0905,0.2815-0.2402,0.2756-0.3827
				c-0.0041-0.0899,0.0153-0.2196-0.1231-0.2059c-0.1246,0.0126-0.1511-0.098-0.2561-0.1119
				c-0.1341-0.0173-0.2695,0.0153-0.3998,0.0078c-0.1083-0.0577-0.1466-0.0744-0.2565-0.1113
				c-0.0769-0.0251-0.2151-0.2414-0.2652-0.291c-0.073-0.0722-0.1557-0.0204-0.2455-0.0198
				c-0.0793-0.0675,0.1272-0.1825,0.0589-0.2756c-0.104-0.0218-0.1857-0.1317-0.271-0.2224
				c-0.0122-0.0131-0.1582-0.1256-0.1768-0.1291c-0.1616-0.03-0.3086,0.0459-0.4291-0.0852
				c-0.0161-0.0175-0.2022-0.1804-0.2022-0.1804c0.0022-0.0186,0.1025-0.0475,0.0089-0.0718
				c-0.0404-0.0516-0.0612-0.0885-0.1274-0.0897c-0.1129-0.0491-0.0663-0.1486-0.1998-0.0952
				c-0.0171-0.0057-0.1378,0.033-0.1566,0.0349c-0.0583-0.0263-0.0601-0.1036-0.138-0.0942
				c-0.1268,0.0157-0.192-0.1348-0.3291-0.1313c-0.0092,0.0942-0.0864,0.1766-0.1727,0.1747
				c-0.1248-0.0024-0.1131-0.2212-0.2805-0.1384c-0.0785,0.0387-0.0118,0.1285-0.1464,0.1295
				c-0.0762,0.0006-0.0724,0.0334-0.0724,0.0604c-0.1062-0.0322-0.2261-0.2294-0.3088-0.3415
				c-0.0367-0.1339-0.3148-0.1643-0.2677-0.3178c0.0343-0.1122,0.0767-0.3562,0.0014-0.4679
				c-0.031-0.0463-0.0781-0.1543-0.1311-0.1804c-0.0457-0.0228,0.0379-0.0338,0.0143-0.0948
				c0.0591-0.0561,0.167-0.3398,0.1539-0.4246c-0.1865-0.1356-0.2349,0.0987-0.3702,0.1087
				c-0.2204,0.0159-0.2012-0.115-0.2289-0.2538c-0.028-0.1356-0.0084-0.2489,0.03-0.4016c0.0369-0.1474,0.2504-0.2081,0.2618-0.391
				c0.0632-0.0263,0.1931-0.0907,0.2642-0.0648c0.0793,0.0287,0.166,0.1111,0.2416,0.1335
				c0.0457,0.0136,0.1849,0.0143,0.2371,0.0157c0.0536,0.0387,0.0371,0.0942,0.1168,0.1025c0.0732,0.0077-0.0071,0.1248-0.0135,0.2
				c-0.0055,0.0654-0.1103,0.399,0.0475,0.3912c0.107-0.0051,0.1825-0.3733,0.1941-0.4524
				c0.0194-0.1317,0.1578-0.2049,0.2713-0.2559c0.0932-0.042,0.3391-0.0789,0.3686-0.1857
				c0.0391-0.0591,0.0487-0.0909,0.0746-0.1649c0.0149-0.0428,0.1307-0.0508,0.167-0.0748
				c0.1091-0.0726,0.2671-0.2057,0.4049-0.1663c0.0913,0.0259,0.2116-0.1625,0.3282-0.1749
				c0.0915-0.0098,0.2198-0.053,0.3085-0.0512c-0.0187,0.086-0.1431,0.0697-0.1425,0.1729c0.1048,0.0618,0.5054-0.094,0.3164-0.1278
				c-0.2098-0.0377-0.0864-0.3409-0.1203-0.348c-0.1719-0.0355-0.0024-0.1176,0.1085-0.0954
				c0.071,0.0141,0.2279,0.1028,0.2844,0.0628c0.2679-0.1888,0.1034,0.1698,0.0989,0.2226
				c-0.0014,0.018,0.2157,0.1034,0.2302,0.0883c0.0373-0.0385,0.1331-0.0049,0.0978-0.1009
				c-0.0457-0.0437-0.0801-0.0033-0.1201-0.0679c-0.0479-0.0773,0.043-0.1657,0.0579-0.2459
				c0.0114-0.061,0.0051-0.0867-0.0577-0.1003c-0.0218-0.0489,0.0287-0.1079,0.0004-0.1551
				c-0.0618-0.1038-0.1048-0.1403-0.1264-0.2677c-0.0418-0.2467-0.2135-0.0579-0.3533-0.1739
				c0.0883-0.0997-0.0023-0.199-0.0738-0.2347c-0.0783-0.0389-0.1923-0.1199-0.2267,0.0287
				c-0.1064,0.051-0.1492,0.0406-0.1727,0.1664c-0.0298,0.1604-0.0141,0.0848-0.1074,0.1429
				c-0.1333,0.083-0.1876-0.0183-0.2334,0.1731c-0.1148,0.0392-0.2846,0.0506-0.1107-0.1262
				c0.1802-0.1837-0.3831-0.3468-0.0773-0.5643c0.1079-0.0765,0.2632-0.0608,0.3502-0.1268
				c0.0652-0.0045,0.0608-0.0212,0.1525-0.0214c0.0485,0.0571,0.1474,0.0779,0.221,0.0681c0.0911-0.012,0.1951-0.1011,0.2846,0.0208
				c0.0848,0.1162,0.0779,0.1678,0.2236,0.172c0.2178-0.1152,0.3939-0.0746,0.4616-0.3557
				c0.0558-0.2328-0.3594-0.2114-0.5032-0.2789c-0.1547-0.0722,0.2291-0.072,0.2346-0.0777l-0.0348-0.0235
				c-0.4957,0.0241-0.9721,0.1212-1.4195,0.2794c-0.1381,0.055-0.2763,0.1184-0.4139,0.1953
				c-0.1329,0.0564-0.2709,0.1179-0.4086,0.1834c-0.9188,0.5287-1.6535,1.3403-2.0851,2.3167
				c0.0024,0.104,0.0316,0.1966-0.0084,0.2925c-0.0471,0.1142,0.0124,0.3937,0.0347,0.4909
				c0.0253,0.1113,0.0526,0.2583,0.1135,0.3588c0.0357,0.0593,0.1348-0.0281,0.188-0.0037
				c0.0844,0.0387,0.1191,0.1645,0.1403,0.2308c0.0283,0.0889,0.0689,0.126,0.0856,0.2078
				c0.0373,0.0397,0.1619,0.0081,0.1753,0.0732c-0.0059,0.0744-0.0136,0.0877,0.0155,0.1576
				c0.0392,0.096-0.0251,0.2552,0.0506,0.4653c0.0683,0.189,0.1639,0.254,0.2987,0.3219c0.0734,0.0369,0.0983,0.1244,0.1604,0.275
				c0.0304,0.0744,0.1164-0.0157,0.1199,0.1023c0.002,0.0714,0.0179,0.1588-0.0006,0.2289
				c-0.0326,0.1246-0.285,0.1959-0.2732,0.3472c-0.0092,0.0601,0.0724,0.0748,0.0812,0.1268
				c0.0059,0.0361-0.0053,0.0946-0.0027,0.1327c0.0065,0.0885,0.1246,0.1545,0.1782,0.2198
				c0.063,0.0767,0.0889,0.1935,0.1492,0.2697c0.0982,0.1244,0.1871,0.2399,0.2255,0.39c0.01,0.0393,0.4206,0.306,0.4312,0.3046
				c0.2031,0.2222,0.1719,0.948,0.1654,1.2736c-0.0019,0.0972,0.0085,0.1732,0.0282,0.2345
				c0.2918,0.1447,0.5995,0.2617,0.9202,0.3477c0.0424-0.0382,0.09-0.0761,0.1062-0.0915
				C18.9387,24.6145,19.0235,24.3216,19.1776,24.2574z M17.8455,16.6098c-0.0601-0.2353,0.2756-0.3144,0.3517-0.1083
				c0.0579,0.1539,0.1511,0.2387,0.1486,0.4218c-0.0012,0.0775-0.1042,0.1131-0.1419,0.1745
				c-0.2549-0.029-0.1325-0.0447-0.1829-0.2143c0.012,0.0469-0.0402-0.02-0.0108-0.0112c-0.0793-0.0281-0.1841,0.0964-0.2302-0.0434
				C17.7476,16.7268,17.8679,16.6976,17.8455,16.6098z"/>
		</g>
	</g>
	<linearGradient id="SVGID_1_" gradientUnits="userSpaceOnUse" x1="3.3827" y1="4.1962" x2="32.6781" y2="39.1092">
		<stop  offset="0" style="stop-color:#FFFFFF;stop-opacity:0"/>
		<stop  offset="0.2264" style="stop-color:#FCFCFC;stop-opacity:0.0226"/>
		<stop  offset="0.3626" style="stop-color:#F4F4F4;stop-opacity:0.0363"/>
		<stop  offset="0.475" style="stop-color:#E6E6E6;stop-opacity:0.0475"/>
		<stop  offset="0.5744" style="stop-color:#D1D1D1;stop-opacity:0.0574"/>
		<stop  offset="0.6652" style="stop-color:#B7B7B7;stop-opacity:0.0665"/>
		<stop  offset="0.7498" style="stop-color:#979797;stop-opacity:0.075"/>
		<stop  offset="0.8297" style="stop-color:#707070;stop-opacity:0.083"/>
		<stop  offset="0.9057" style="stop-color:#444444;stop-opacity:0.0906"/>
		<stop  offset="0.9761" style="stop-color:#121212;stop-opacity:0.0976"/>
		<stop  offset="1" style="stop-color:#000000;stop-opacity:0.1"/>
	</linearGradient>
	<path fill="url(#SVGID_1_)" d="M34,10l-8-8H6v36h28V10z"/>
	<linearGradient id="SVGID_2_" gradientUnits="userSpaceOnUse" x1="29" y1="13.9063" x2="29" y2="11.0875">
		<stop  offset="0" style="stop-color:#828282;stop-opacity:0"/>
		<stop  offset="0.1597" style="stop-color:#747474;stop-opacity:0.016"/>
		<stop  offset="0.4616" style="stop-color:#4F4F4F;stop-opacity:0.0462"/>
		<stop  offset="0.8704" style="stop-color:#141414;stop-opacity:0.087"/>
		<stop  offset="1" style="stop-color:#000000;stop-opacity:0.1"/>
	</linearGradient>
	<rect x="25" y="11" fill="url(#SVGID_2_)" width="8" height="3"/>
	<linearGradient id="SVGID_3_" gradientUnits="userSpaceOnUse" x1="23.7917" y1="9.7083" x2="28.7299" y2="4.7701">
		<stop  offset="0" style="stop-color:#FFFFFF;stop-opacity:0"/>
		<stop  offset="0.8537" style="stop-color:#FFFFFF;stop-opacity:0.2134"/>
		<stop  offset="1" style="stop-color:#FFFFFF;stop-opacity:0.25"/>
	</linearGradient>
	<polygon fill="url(#SVGID_3_)" points="26,2 6,2 6,3 25,3 25,11 32.9999,10.9999 33,25 34,25 34,10 	"/>
</g>
</svg>
