<svg id="2b1935ac-4ec1-440a-9167-1dea04c9515f" data-name="ICONS" xmlns="http://www.w3.org/2000/svg" xmlns:xlink="http://www.w3.org/1999/xlink" viewBox="0 0 40 40"><defs><linearGradient id="e7ef3ce6-797b-4012-b183-887b1e0e2bc5" x1="6.09939" y1="4.4339" x2="35.39486" y2="39.34688" gradientUnits="userSpaceOnUse"><stop offset="0" stop-color="#fff" stop-opacity="0"/><stop offset="0.86247" stop-color="#5e5e5e" stop-opacity="0.06315"/><stop offset="1" stop-opacity="0.1"/></linearGradient><linearGradient id="a9b89fcf-3855-423b-8acc-d4814a33b4d4" x1="32" y1="13.90625" x2="32" y2="11.08751" gradientUnits="userSpaceOnUse"><stop offset="0" stop-color="#828282" stop-opacity="0"/><stop offset="0.86247" stop-color="#303030" stop-opacity="0.06315"/><stop offset="1" stop-opacity="0.1"/></linearGradient><linearGradient id="58cc7798-1715-4f91-9e90-28f75719881d" x1="14.27844" y1="36.94138" x2="14.65697" y2="33.3769" gradientUnits="userSpaceOnUse"><stop offset="0" stop-color="#828282" stop-opacity="0"/><stop offset="0.99719" stop-opacity="0.2"/></linearGradient><linearGradient id="4120ccac-1d08-4efa-b878-68dd7159e0f4" x1="11.5" y1="32.79198" x2="11.5" y2="12.21733" gradientUnits="userSpaceOnUse"><stop offset="0" stop-color="#fff" stop-opacity="0"/><stop offset="0.52587" stop-color="#fff" stop-opacity="0.00735"/><stop offset="0.71529" stop-color="#fff" stop-opacity="0.03396"/><stop offset="0.8503" stop-color="#fff" stop-opacity="0.0803"/><stop offset="0.95875" stop-color="#fff" stop-opacity="0.14595"/><stop offset="1" stop-color="#fff" stop-opacity="0.18"/></linearGradient><linearGradient id="0a2173cb-c9ea-4628-b633-68592ab6b88d" x1="26.79167" y1="9.70833" x2="31.72991" y2="4.77009" gradientUnits="userSpaceOnUse"><stop offset="0" stop-color="#fff" stop-opacity="0"/><stop offset="0.44604" stop-color="#fff" stop-opacity="0.00799"/><stop offset="0.63551" stop-color="#fff" stop-opacity="0.03616"/><stop offset="0.77636" stop-color="#fff" stop-opacity="0.08493"/><stop offset="0.8924" stop-color="#fff" stop-opacity="0.15385"/><stop offset="0.99328" stop-color="#fff" stop-opacity="0.24291"/><stop offset="1" stop-color="#fff" stop-opacity="0.25"/></linearGradient></defs><title>FileTypeIcons_Master_All_NEW</title><polygon points="10 3 29 3 36 10 36 37 10 37 10 3" fill="#fff"/><path d="M29,2H9V38H37V10Zm0,1.5L35.5,10H29ZM36,37H10V3H28v8h8Z" fill="#949494"/><rect x="13" y="6" width="7" height="1" fill="#c8c8c8"/><polygon points="3 13 20 11 20 34 3 32 3 13" fill="#6a3889"/><path d="M11.89583,27h-1.625V18h1.625Z" fill="#fff"/><rect x="20" y="16" width="11" height="1" fill="#c3a9d4"/><rect x="20" y="23" width="11" height="1" fill="#c3a9d4"/><rect x="20" y="30" width="11" height="1" fill="#c3a9d4"/><polygon points="32 14 20 14 20 15 32 15 32 18 20 18 20 19 32 19 33 19 33 18 33 15 33 14 32 14" fill="#c8c8c8"/><polygon points="32 21 20 21 20 22 32 22 32 25 20 25 20 26 32 26 33 26 33 25 33 22 33 21 32 21" fill="#c8c8c8"/><polygon points="32 28 20 28 20 29 32 29 32 32 20 32 20 33 32 33 33 33 33 32 33 29 33 28 32 28" fill="#c8c8c8"/><path d="M29,2H9V12.29419L3,13V32l6,.70581V38H37V10Z" fill="url(#e7ef3ce6-797b-4012-b183-887b1e0e2bc5)"/><rect x="28" y="11" width="8" height="3" fill="url(#a9b89fcf-3855-423b-8acc-d4814a33b4d4)"/><polygon points="20 37 9 37 9 32.71 20 34 20 37" fill="url(#58cc7798-1715-4f91-9e90-28f75719881d)"/><polygon points="20 34 3 32 3 13 20 11 20 34" fill="url(#4120ccac-1d08-4efa-b878-68dd7159e0f4)"/><polygon points="29 2 9 2 9 3 28 3 28 11 36 11 36 25 37 25 37 10 29 2" fill="url(#0a2173cb-c9ea-4628-b633-68592ab6b88d)"/></svg>