<svg id="13cf7a95-9e8e-40c6-9803-03b3d65b65f3" data-name="ICONS" xmlns="http://www.w3.org/2000/svg" xmlns:xlink="http://www.w3.org/1999/xlink" viewBox="0 0 40 40"><defs><linearGradient id="9d415ce8-5d9a-4aed-9c48-17919e70aa07" x1="8.1312" y1="5.85531" x2="33.83842" y2="36.49198" gradientUnits="userSpaceOnUse"><stop offset="0" stop-opacity="0"/><stop offset="0.86247" stop-opacity="0.12631"/><stop offset="1" stop-opacity="0.2"/></linearGradient><linearGradient id="8ead8b51-6090-465f-9ea9-965f17dc7b59" x1="29.58931" y1="6.26416" x2="28.78837" y2="15.41893" gradientUnits="userSpaceOnUse"><stop offset="0" stop-color="#828282" stop-opacity="0"/><stop offset="0.85866" stop-color="#454545" stop-opacity="0.1171"/><stop offset="1" stop-opacity="0.25"/></linearGradient><linearGradient id="893c9873-6e86-437b-8afc-7ce47b53fc9f" x1="8.5" y1="12.90662" x2="8.5" y2="12.14706" gradientUnits="userSpaceOnUse"><stop offset="0" stop-color="#828282" stop-opacity="0"/><stop offset="0.99719" stop-opacity="0.07"/></linearGradient><linearGradient id="e0d35a39-bb90-4f90-a0d7-8b61c11a2509" y1="19.81324" y2="18.29412" xlink:href="#893c9873-6e86-437b-8afc-7ce47b53fc9f"/><linearGradient id="8529496e-e481-4ccb-b5c9-013b32b62f9c" y1="23.81324" y2="22.29412" xlink:href="#893c9873-6e86-437b-8afc-7ce47b53fc9f"/><linearGradient id="dea8b50c-7713-4e10-9610-890d8e8ef9fd" y1="26.81324" y2="25.29412" xlink:href="#893c9873-6e86-437b-8afc-7ce47b53fc9f"/><linearGradient id="2befa3ed-d935-4ee2-8977-86e1e0352af3" y1="29.81324" y2="28.29412" xlink:href="#893c9873-6e86-437b-8afc-7ce47b53fc9f"/><linearGradient id="a5238ab0-dea1-400a-a267-1d8645b7e01b" y1="32.81324" y2="31.29412" xlink:href="#893c9873-6e86-437b-8afc-7ce47b53fc9f"/><linearGradient id="3652499e-4548-451b-b678-669555c4e470" x1="8.5" y1="11.90662" x2="8.5" y2="11.14706" gradientUnits="userSpaceOnUse"><stop offset="0" stop-color="#fff" stop-opacity="0"/><stop offset="0.20669" stop-color="#fff" stop-opacity="0.01635"/><stop offset="0.4209" stop-color="#fff" stop-opacity="0.06512"/><stop offset="0.63854" stop-color="#fff" stop-opacity="0.14638"/><stop offset="0.85718" stop-color="#fff" stop-opacity="0.25942"/><stop offset="1" stop-color="#fff" stop-opacity="0.35"/></linearGradient><linearGradient id="13348926-2360-4936-926b-b16c7ded3076" x1="6.5" y1="13.81324" x2="6.5" y2="12.29412" xlink:href="#3652499e-4548-451b-b678-669555c4e470"/><linearGradient id="46ad8765-df9a-4b78-9427-992176cc528f" x1="10.5" y1="13.81324" x2="10.5" y2="12.29412" xlink:href="#3652499e-4548-451b-b678-669555c4e470"/><linearGradient id="5785b94c-b82f-4a2d-bab8-00489eb54420" y1="14.81324" y2="13.29412" xlink:href="#3652499e-4548-451b-b678-669555c4e470"/><linearGradient id="d5b34d9c-2638-424a-bce4-81066cb973ed" y1="21.90662" y2="21.14706" xlink:href="#3652499e-4548-451b-b678-669555c4e470"/><linearGradient id="0fca4d23-185b-4258-9cb1-84700ccdb8ea" y1="24.90662" y2="24.14706" xlink:href="#3652499e-4548-451b-b678-669555c4e470"/><linearGradient id="9d60c9cd-2fc4-4e53-8d26-990e15c814f8" y1="27.90662" y2="27.14706" xlink:href="#3652499e-4548-451b-b678-669555c4e470"/><linearGradient id="a7dc0082-b9e5-4ba2-bf1a-530b5799ce8f" y1="30.90662" y2="30.14706" xlink:href="#3652499e-4548-451b-b678-669555c4e470"/></defs><title>FileTypeIcons_Master_All_NEW</title><polygon points="2 33 2 11 20 11 24 7 38 7 38 33 2 33" fill="#a6a6a6"/><polygon points="24 7 20 11 24 15 38 15 38 7 24 7" fill="#828282"/><polygon points="2 33 2 11 20 11 24 7 38 7 38 33 2 33" fill="url(#9d415ce8-5d9a-4aed-9c48-17919e70aa07)"/><polygon points="24 7 20 11 24 15 38 15 38 7 24 7" fill="url(#8ead8b51-6090-465f-9ea9-965f17dc7b59)"/><polygon points="38 15 38 16 23.5 16 18.5 11 20 11 24 15 38 15" fill="#fff" opacity="0.15"/><rect x="7" y="11" width="3" height="1" fill="#eaeaea"/><rect x="7" y="24" width="3" height="1" fill="#eaeaea"/><rect x="7" y="27" width="3" height="1" fill="#eaeaea"/><rect x="7" y="30" width="3" height="1" fill="#eaeaea"/><path d="M10,12v1H7V12H6V22h5V12Zm0,9H7V18h3Z" fill="#eaeaea"/><rect x="7" y="12" width="3" height="1" fill="url(#893c9873-6e86-437b-8afc-7ce47b53fc9f)"/><rect x="7" y="18" width="3" height="2" fill="url(#e0d35a39-bb90-4f90-a0d7-8b61c11a2509)"/><rect x="6" y="22" width="5" height="2" fill="url(#8529496e-e481-4ccb-b5c9-013b32b62f9c)"/><rect x="7" y="25" width="3" height="2" fill="url(#dea8b50c-7713-4e10-9610-890d8e8ef9fd)"/><rect x="7" y="28" width="3" height="2" fill="url(#2befa3ed-d935-4ee2-8977-86e1e0352af3)"/><rect x="7" y="31" width="3" height="2" fill="url(#a5238ab0-dea1-400a-a267-1d8645b7e01b)"/><rect x="7" y="11" width="3" height="1" fill="url(#3652499e-4548-451b-b678-669555c4e470)"/><rect x="6" y="12" width="1" height="2" fill="url(#13348926-2360-4936-926b-b16c7ded3076)"/><rect x="10" y="12" width="1" height="2" fill="url(#46ad8765-df9a-4b78-9427-992176cc528f)"/><rect x="7" y="13" width="3" height="2" fill="url(#5785b94c-b82f-4a2d-bab8-00489eb54420)"/><rect x="7" y="21" width="3" height="1" fill="url(#d5b34d9c-2638-424a-bce4-81066cb973ed)"/><rect x="7" y="24" width="3" height="1" fill="url(#0fca4d23-185b-4258-9cb1-84700ccdb8ea)"/><rect x="7" y="27" width="3" height="1" fill="url(#9d60c9cd-2fc4-4e53-8d26-990e15c814f8)"/><rect x="7" y="30" width="3" height="1" fill="url(#a7dc0082-b9e5-4ba2-bf1a-530b5799ce8f)"/></svg>