<?xml version="1.0" encoding="utf-8"?>
<!-- Generator: Adobe Illustrator 21.1.0, SVG Export Plug-In . SVG Version: 6.00 Build 0)  -->
<svg version="1.1" xmlns="http://www.w3.org/2000/svg" xmlns:xlink="http://www.w3.org/1999/xlink" x="0px" y="0px"
	 viewBox="0 0 16 16" enable-background="new 0 0 16 16" xml:space="preserve">
<g id="TEMPLATE" display="none">
	<g display="inline">
		<path fill="#D0D0D0" d="M16,0v16H0V0H16 M17-1h-1H0h-1v1v16v1h1h16h1v-1V0V-1L17-1z"/>
	</g>
</g>
<g id="ICONS">
	<polygon fill="#A6A6A6" points="0,14 0,4 7,4 9,2 16,2 16,14 	"/>
	<polygon fill="#666666" points="9,2 7,4 9,6 16,6 16,4 16,2 	"/>
	<rect x="2" y="4" fill="#EAEAEA" width="2" height="1"/>
	<rect x="2" y="12" fill="#EAEAEA" width="2" height="2"/>
	<path fill="#EAEAEA" d="M1,6v5h4V6H1z M4,7v3H2V7H4z"/>
</g>
</svg>
