<svg id="8bca98ec-65b8-4952-9695-110bc38d25ea" data-name="ICONS" xmlns="http://www.w3.org/2000/svg" viewBox="0 0 16 16"><title>FileTypeIcons_Master_All_NEW</title><path d="M16,0,5,2V12.519A3.91009,3.91009,0,0,0,3,12c-1.65674,0-3,.89551-3,2s1.34326,2,3,2,3-.89551,3-2V3l9-1.6v9.119A3.91009,3.91009,0,0,0,13,10c-1.65674,0-3,.89551-3,2s1.34326,2,3,2,3-.89551,3-2ZM3,15c-1.2207,0-2-.59229-2-1s.7793-1,2-1,2,.59229,2,1S4.2207,15,3,15Zm10-2c-1.2207,0-2-.59229-2-1s.7793-1,2-1,2,.59229,2,1S14.2207,13,13,13Z" fill="#949494"/></svg>