<svg id="4e8d5563-9f68-4127-9b73-8063d1bd618a" data-name="ICONS" xmlns="http://www.w3.org/2000/svg" viewBox="0 0 16 16"><title>FileTypeIcons_Master_All_NEW</title><polygon points="13 15 3 15 3 1 11 1 13 3 13 15" fill="#fff"/><rect x="4" y="11" width="8" height="1" fill="#c8c8c8"/><rect x="4" y="13" width="8" height="1" fill="#c8c8c8"/><path d="M11,0H2V16H14V3Zm0,1.5L12.5,3H11ZM13,15H3V1h7V4h3Z" fill="#949494"/><polygon points="5 9 6 9 5 7.5 6 6 5 6 4 7.5 5 9" fill="#949494"/><polygon points="7 10 10 5 9 5 6 10 7 10" fill="#949494"/><polygon points="11 9 10 9 11 7.5 10 6 11 6 12 7.5 11 9" fill="#949494"/></svg>