<?xml version="1.0" encoding="utf-8"?>
<!-- Generator: Adobe Illustrator 21.1.0, SVG Export Plug-In . SVG Version: 6.00 Build 0)  -->
<svg version="1.1" xmlns="http://www.w3.org/2000/svg" xmlns:xlink="http://www.w3.org/1999/xlink" x="0px" y="0px"
	 viewBox="0 0 16 16" enable-background="new 0 0 16 16" xml:space="preserve">
<g id="TEMPLATE" display="none">
	<g display="inline">
		<path fill="#D0D0D0" d="M16,0v16H0V0H16 M17-1h-1H0h-1v1v16v1h1h16h1v-1V0V-1L17-1z"/>
	</g>
</g>
<g id="ICONS">
	<polygon fill="#FFFFFF" points="13,15 3,15 3,1 11,1 13,2.9998 	"/>
	<rect x="4" y="11" fill="#C8C8C8" width="8" height="1"/>
	<rect x="4" y="13" fill="#C8C8C8" width="8" height="1"/>
	<path fill="#949494" d="M11,0H2v16h12V3L11,0z M11,1.5L12.5,3H11V1.5z M13,15H3V1h7v3h3V15z"/>
	<polygon fill="#949494" points="5,9 6,9 5,7.5 6,6 5,6 4,7.5 	"/>
	<polygon fill="#949494" points="7,10 10,5 9,5 6,10 	"/>
	<polygon fill="#949494" points="11,9 10,9 11,7.5 10,6 11,6 12,7.5 	"/>
</g>
</svg>
