<svg id="2c7c325e-6801-4587-9911-50ad84dad6eb" data-name="ICONS" xmlns="http://www.w3.org/2000/svg" viewBox="0 0 16 16"><title>FileTypeIcons_Master_All_NEW</title><polygon points="14 15 4 15 4 1 12 1 14 3 14 15" fill="#fff"/><path d="M12,0H3V16H15V3Zm0,1.5L13.5,3H12ZM14,15H4V1h7V4h3Z" fill="#949494"/><polygon points="1 5 8 4 8 14 1 13 1 5" fill="#217346"/><rect x="3" y="7" width="1" height="1" fill="#fff"/><rect x="4" y="8" width="1" height="2" fill="#fff"/><rect x="5" y="7" width="1" height="1" fill="#fff"/><rect x="3" y="10" width="1" height="1" fill="#fff"/><rect x="5" y="10" width="1" height="1" fill="#fff"/><rect x="10" y="12" width="1" height="1" fill="#8bbf8a"/><rect x="10" y="10" width="2" height="1" fill="#8bbf8a"/><rect x="10" y="8" width="2" height="1" fill="#8bbf8a"/><rect x="9" y="11" width="1" height="1" fill="#8bbf8a"/><rect x="12" y="8" width="1" height="1" fill="#8bbf8a" opacity="0.4"/><rect x="11" y="12" width="1" height="1" fill="#8bbf8a" opacity="0.4"/><rect x="9" y="12" width="1" height="1" fill="#8bbf8a" opacity="0.4"/><rect x="9" y="10" width="1" height="1" fill="#8bbf8a" opacity="0.4"/><rect x="9" y="8" width="1" height="1" fill="#8bbf8a" opacity="0.4"/><rect x="12" y="9" width="1" height="4" fill="#8bbf8a"/></svg>