<?xml version="1.0" encoding="utf-8"?>
<!-- Generator: Adobe Illustrator 21.1.0, SVG Export Plug-In . SVG Version: 6.00 Build 0)  -->
<svg version="1.1" xmlns="http://www.w3.org/2000/svg" xmlns:xlink="http://www.w3.org/1999/xlink" x="0px" y="0px"
	 viewBox="0 0 16 16" enable-background="new 0 0 16 16" xml:space="preserve">
<g id="TEMPLATE" display="none">
	<g display="inline">
		<path fill="#D0D0D0" d="M16,0v16H0V0H16 M17-1h-1H0h-1v1v16v1h1h16h1v-1V0V-1L17-1z"/>
	</g>
</g>
<g id="ICONS">
	<g>
		<polygon fill="#FFFFFF" points="14,15 4,15 4,1 12,1 14,2.9998 		"/>
		<path fill="#949494" d="M12,0H3v16h12V3L12,0z M12,1.5L13.5,3H12V1.5z M14,15H4V1h7v3h3V15z"/>
	</g>
	<polygon fill="#217346" points="1,5 8,4 8,14 1,13 	"/>
	<g>
		<rect x="3" y="7" fill="#FFFFFF" width="1" height="1"/>
		<rect x="4" y="8" fill="#FFFFFF" width="1" height="2"/>
		<rect x="5" y="7" fill="#FFFFFF" width="1" height="1"/>
		<rect x="3" y="10" fill="#FFFFFF" width="1" height="1"/>
		<rect x="5" y="10" fill="#FFFFFF" width="1" height="1"/>
	</g>
	<rect x="10" y="12" fill="#8BBF8A" width="1" height="1"/>
	<rect x="10" y="10" fill="#8BBF8A" width="2" height="1"/>
	<rect x="10" y="8" fill="#8BBF8A" width="2" height="1"/>
	<rect x="9" y="11" fill="#8BBF8A" width="1" height="1"/>
	<rect x="12" y="8" opacity="0.4" fill="#8BBF8A" width="1" height="1"/>
	<rect x="11" y="12" opacity="0.4" fill="#8BBF8A" width="1" height="1"/>
	<rect x="9" y="12" opacity="0.4" fill="#8BBF8A" width="1" height="1"/>
	<rect x="9" y="10" opacity="0.4" fill="#8BBF8A" width="1" height="1"/>
	<rect x="9" y="8" opacity="0.4" fill="#8BBF8A" width="1" height="1"/>
	<rect x="12" y="9" fill="#8BBF8A" width="1" height="4"/>
</g>
</svg>
