<?xml version="1.0" encoding="utf-8"?>
<!-- Generator: Adobe Illustrator 21.1.0, SVG Export Plug-In . SVG Version: 6.00 Build 0)  -->
<svg version="1.1" xmlns="http://www.w3.org/2000/svg" xmlns:xlink="http://www.w3.org/1999/xlink" x="0px" y="0px"
	 viewBox="0 0 16 16" enable-background="new 0 0 16 16" xml:space="preserve">
<g id="TEMPLATE" display="none">
	<g display="inline">
		<path fill="#D0D0D0" d="M16,0v16H0V0H16 M17-1h-1H0h-1v1v16v1h1h16h1v-1V0V-1L17-1z"/>
	</g>
</g>
<g id="ICONS">
	<polygon fill="#A6A6A6" points="9,9 16,9 16,16 0,16 0,11 7,11 	"/>
	<polygon fill="#C8C8C8" points="3,0 3,2 1,2 1,11 2,11 2,3 3,3 3,11 4,11 4,1 14,1 14,9 15,9 15,0 	"/>
</g>
</svg>
