<?xml version="1.0" encoding="utf-8"?>
<!-- Generator: Adobe Illustrator 21.1.0, SVG Export Plug-In . SVG Version: 6.00 Build 0)  -->
<svg version="1.1" xmlns="http://www.w3.org/2000/svg" xmlns:xlink="http://www.w3.org/1999/xlink" x="0px" y="0px"
	 viewBox="0 0 16 16" enable-background="new 0 0 16 16" xml:space="preserve">
<g id="TEMPLATE" display="none">
	<g display="inline">
		<path fill="#D0D0D0" d="M16,0v16H0V0H16 M17-1h-1H0h-1v1v16v1h1h16h1v-1V0V-1L17-1z"/>
	</g>
</g>
<g id="ICONS">
	<rect y="2" fill="#FFFFFF" width="16" height="12"/>
	<rect x="10" y="5" fill="#C8C8C8" width="4" height="1"/>
	<rect x="10" y="7" fill="#C8C8C8" width="4" height="1"/>
	<rect x="10" y="9" fill="#C8C8C8" width="3" height="1"/>
	<polygon fill="#EAEAEA" points="4,13 4,4 15,4 15,3 1,3 1,13 	"/>
	<path fill="#949494" d="M0,2v12h16V2H0z M15,4v9H1V4h11V3h1v1h1V3h1V4z"/>
	<g>
		<rect x="5" y="5" fill="#69AFE5" width="4" height="6"/>
	</g>
	<rect x="2" y="5" fill="#C8C8C8" width="1" height="1"/>
	<rect x="2" y="7" fill="#C8C8C8" width="1" height="1"/>
	<rect x="2" y="9" fill="#C8C8C8" width="1" height="1"/>
</g>
</svg>
