<svg id="9f5024e1-d133-425a-9ca3-bb940fe0f071" data-name="ICONS" xmlns="http://www.w3.org/2000/svg" viewBox="0 0 16 16"><title>FileTypeIcons_Master_All_NEW</title><rect y="2" width="16" height="12" fill="#fff"/><rect x="10" y="5" width="4" height="1" fill="#c8c8c8"/><rect x="10" y="7" width="4" height="1" fill="#c8c8c8"/><rect x="10" y="9" width="3" height="1" fill="#c8c8c8"/><polygon points="4 13 4 4 15 4 15 3 1 3 1 13 4 13" fill="#eaeaea"/><path d="M0,2V14H16V2ZM15,4v9H1V4H12V3h1V4h1V3h1Z" fill="#949494"/><rect x="5" y="5" width="4" height="6" fill="#69afe5"/><rect x="2" y="5" width="1" height="1" fill="#c8c8c8"/><rect x="2" y="7" width="1" height="1" fill="#c8c8c8"/><rect x="2" y="9" width="1" height="1" fill="#c8c8c8"/></svg>