<svg id="6f33fa76-dbcc-470a-a7a5-712b765c7968" data-name="ICONS" xmlns="http://www.w3.org/2000/svg" viewBox="0 0 16 16"><title>FileTypeIcons_Master_All_NEW</title><polygon points="13 15 3 15 3 1 11 1 13 3 13 15" fill="#fff"/><path d="M11,0H2V16H14V3Zm0,1.5L12.5,3H11ZM13,15H3V1h7V4h3Z" fill="#949494"/><path d="M11.00176,11.13443,8.09354,4H7.89893L4.92584,11.14941a1.04492,1.04492,0,0,1-.92976.59961V12H6.37255v-.24706s-1.06832.11217-.80885-.76465L6.17547,9.5006H9.16484l.5648,1.4165s.18739.46089-.05406.66323A1.03206,1.03206,0,0,1,9,11.749V12h3v-.24706A1.02575,1.02575,0,0,1,11.00176,11.13443ZM6.37894,9.00275l1.311-3.19291,1.29537,3.1931Z" fill="#ff5f10"/></svg>