<svg id="50dcfd7c-ea08-4258-b686-274c02a4fd64" data-name="ICONS" xmlns="http://www.w3.org/2000/svg" viewBox="0 0 16 16"><title>FileTypeIcons_Master_All_NEW</title><polygon points="13 15 3 15 3 1 11 1 13 3 13 15" fill="#fff"/><path d="M10.894,6.25A2.70728,2.70728,0,1,0,11,7,2.99735,2.99735,0,0,0,10.894,6.25Zm-.7417-.5H9.35986a3.58643,3.58643,0,0,0-.41455-1.06152A2.5056,2.5056,0,0,1,10.15234,5.75ZM9,7a5.32539,5.32539,0,0,1-.05664.75H7.05664a4.99389,4.99389,0,0,1,0-1.5H8.94336A5.32539,5.32539,0,0,1,9,7ZM8,9.5c-.28027,0-.64307-.46777-.8457-1.25H8.8457C8.64307,9.03223,8.28027,9.5,8,9.5Zm0-5c.28027,0,.64307.46777.8457,1.25H7.1543C7.35693,4.96777,7.71973,4.5,8,4.5Zm-.94531.18848A3.58643,3.58643,0,0,0,6.64014,5.75H5.84766A2.5056,2.5056,0,0,1,7.05469,4.68848ZM5.5,7a2.46345,2.46345,0,0,1,.12793-.75h.92529a5.31128,5.31128,0,0,0,0,1.5H5.62793A2.46345,2.46345,0,0,1,5.5,7Zm.34766,1.25h.79248a3.58643,3.58643,0,0,0,.41455,1.06152A2.5056,2.5056,0,0,1,5.84766,8.25ZM8.94531,9.31152A3.58643,3.58643,0,0,0,9.35986,8.25h.79248A2.5056,2.5056,0,0,1,8.94531,9.31152ZM9.44678,7.75a5.31128,5.31128,0,0,0,0-1.5h.92529a2.26243,2.26243,0,0,1,0,1.5Z" fill="#69afe5"/><rect x="4" y="11" width="8" height="1" fill="#c8c8c8"/><rect x="4" y="13" width="8" height="1" fill="#c8c8c8"/><path d="M11,0H2V16H14V3Zm0,1.5L12.5,3H11ZM13,15H3V1h7V4h3Z" fill="#949494"/></svg>