<?xml version="1.0" encoding="utf-8"?>
<!-- Generator: Adobe Illustrator 21.1.0, SVG Export Plug-In . SVG Version: 6.00 Build 0)  -->
<svg version="1.1" xmlns="http://www.w3.org/2000/svg" xmlns:xlink="http://www.w3.org/1999/xlink" x="0px" y="0px"
	 viewBox="0 0 16 16" enable-background="new 0 0 16 16" xml:space="preserve">
<g id="TEMPLATE" display="none">
	<g display="inline">
		<path fill="#D0D0D0" d="M16,0v16H0V0H16 M17-1h-1H0h-1v1v16v1h1h16h1v-1V0V-1L17-1z"/>
	</g>
</g>
<g id="ICONS">
	<polygon fill="#FFFFFF" points="13,15 3,15 3,1 11,1 13,2.9998 	"/>
	<path fill="#69AFE5" d="M10.894,6.25c-0.0449-0.1729-0.1011-0.3408-0.1743-0.5C10.2446,4.7192,9.209,4,8,4
		S5.7554,4.7192,5.2803,5.75C5.207,5.9092,5.1509,6.0771,5.106,6.25C5.0439,6.4912,5,6.7393,5,7s0.0439,0.5088,0.106,0.75
		c0.0449,0.1729,0.1011,0.3408,0.1743,0.5C5.7554,9.2808,6.791,10,8,10s2.2446-0.7192,2.7197-1.75
		c0.0732-0.1592,0.1294-0.3271,0.1743-0.5C10.9561,7.5088,11,7.2607,11,7S10.9561,6.4912,10.894,6.25z M10.1523,5.75H9.3599
		C9.2642,5.334,9.1206,4.9756,8.9453,4.6885C9.457,4.8984,9.876,5.2769,10.1523,5.75z M9,7c0,0.2705-0.0239,0.5166-0.0566,0.75
		H7.0566C7.0239,7.5166,7,7.2705,7,7s0.0239-0.5166,0.0566-0.75h1.8867C8.9761,6.4834,9,6.7295,9,7z M8,9.5
		c-0.2803,0-0.6431-0.4678-0.8457-1.25h1.6914C8.6431,9.0322,8.2803,9.5,8,9.5z M8,4.5c0.2803,0,0.6431,0.4678,0.8457,1.25H7.1543
		C7.3569,4.9678,7.7197,4.5,8,4.5z M7.0547,4.6885C6.8794,4.9756,6.7358,5.334,6.6401,5.75H5.8477
		C6.124,5.2769,6.543,4.8984,7.0547,4.6885z M5.5,7c0-0.2632,0.0522-0.5117,0.1279-0.75h0.9253C6.522,6.4912,6.5,6.7393,6.5,7
		s0.022,0.5088,0.0532,0.75H5.6279C5.5522,7.5117,5.5,7.2632,5.5,7z M5.8477,8.25h0.7925c0.0957,0.416,0.2393,0.7744,0.4146,1.0615
		C6.543,9.1016,6.124,8.7231,5.8477,8.25z M8.9453,9.3115C9.1206,9.0244,9.2642,8.666,9.3599,8.25h0.7925
		C9.876,8.7231,9.457,9.1016,8.9453,9.3115z M9.4468,7.75C9.478,7.5088,9.5,7.2607,9.5,7S9.478,6.4912,9.4468,6.25h0.9253
		C10.4478,6.4883,10.5,6.7368,10.5,7s-0.0522,0.5117-0.1279,0.75H9.4468z"/>
	<rect x="4" y="11" fill="#C8C8C8" width="8" height="1"/>
	<rect x="4" y="13" fill="#C8C8C8" width="8" height="1"/>
	<path fill="#949494" d="M11,0H2v16h12V3L11,0z M11,1.5L12.5,3H11V1.5z M13,15H3V1h7v3h3V15z"/>
</g>
</svg>
