<svg id="5937a03e-b06a-4462-9acd-a56c99821166" data-name="ICONS" xmlns="http://www.w3.org/2000/svg" viewBox="0 0 16 16"><title>FileTypeIcons_Master_All_NEW</title><rect y="2" width="16" height="12" fill="#fff"/><path d="M0,2V14H16V2ZM15,4v9H1V4H1V3H2V4H3V3H4V4Z" fill="#949494"/><path d="M11.37638,7.625A3.1585,3.1585,0,1,0,11.5,8.5,3.49685,3.49685,0,0,0,11.37638,7.625Zm-.86531-.58333H9.58651a4.18475,4.18475,0,0,0-.48365-1.23845A2.92323,2.92323,0,0,1,10.51107,7.04167ZM9.16667,8.5a6.21327,6.21327,0,0,1-.06608.875H6.89941a5.82621,5.82621,0,0,1,0-1.75H9.10059A6.21327,6.21327,0,0,1,9.16667,8.5ZM8,11.41667c-.327,0-.75024-.54574-.98665-1.45834h1.9733C8.75024,10.87093,8.327,11.41667,8,11.41667ZM8,5.58333c.327,0,.75024.54574.98665,1.45834H7.01335C7.24976,6.12907,7.673,5.58333,8,5.58333Zm-1.10286.21989a4.18475,4.18475,0,0,0-.48365,1.23845H5.48893A2.92323,2.92323,0,0,1,6.89714,5.80322ZM5.08333,8.5a2.87407,2.87407,0,0,1,.14925-.875H6.31209a6.19649,6.19649,0,0,0,0,1.75H5.23258A2.87407,2.87407,0,0,1,5.08333,8.5Zm.4056,1.45833h.92456a4.18475,4.18475,0,0,0,.48365,1.23845A2.92323,2.92323,0,0,1,5.48893,9.95833Zm3.61393,1.23845a4.18475,4.18475,0,0,0,.48365-1.23845h.92456A2.92323,2.92323,0,0,1,9.10286,11.19678ZM9.68791,9.375a6.19649,6.19649,0,0,0,0-1.75h1.07951a2.63953,2.63953,0,0,1,0,1.75Z" fill="#a6a6a6"/></svg>