<?xml version="1.0" encoding="utf-8"?>
<!-- Generator: Adobe Illustrator 21.1.0, SVG Export Plug-In . SVG Version: 6.00 Build 0)  -->
<svg version="1.1" xmlns="http://www.w3.org/2000/svg" xmlns:xlink="http://www.w3.org/1999/xlink" x="0px" y="0px"
	 viewBox="0 0 16 16" enable-background="new 0 0 16 16" xml:space="preserve">
<g id="TEMPLATE" display="none">
	<g display="inline">
		<path fill="#D0D0D0" d="M16,0v16H0V0H16 M17-1h-1H0h-1v1v16v1h1h16h1v-1V0V-1L17-1z"/>
	</g>
</g>
<g id="ICONS">
	<rect y="2" fill="#FFFFFF" width="16" height="12"/>
	<path fill="#949494" d="M0,2v12h16V2H0z M15,4v9H1V4l0,0V3h1v1h1V3h1v1H15z"/>
	<path fill="#A6A6A6" d="M11.3764,7.625c-0.0524-0.2017-0.1179-0.3976-0.2034-0.5833C10.6187,5.8391,9.4105,5,8,5
		S5.3813,5.8391,4.827,7.0417C4.7415,7.2274,4.676,7.4233,4.6236,7.625C4.5513,7.9064,4.5,8.1958,4.5,8.5
		s0.0513,0.5936,0.1236,0.875C4.676,9.5767,4.7415,9.7726,4.827,9.9583C5.3813,11.1609,6.5895,12,8,12s2.6187-0.8391,3.173-2.0417
		c0.0854-0.1857,0.151-0.3817,0.2034-0.5833C11.4487,9.0936,11.5,8.8042,11.5,8.5S11.4487,7.9064,11.3764,7.625z M10.5111,7.0417
		H9.5865C9.4749,6.5563,9.3074,6.1382,9.1029,5.8032C9.6999,6.0482,10.1886,6.4897,10.5111,7.0417z M9.1667,8.5
		c0,0.3156-0.0279,0.6027-0.0661,0.875H6.8994C6.8612,9.1027,6.8333,8.8156,6.8333,8.5s0.0279-0.6027,0.0661-0.875h2.2012
		C9.1388,7.8973,9.1667,8.1844,9.1667,8.5z M8,11.4167c-0.327,0-0.7502-0.5457-0.9867-1.4583h1.9733
		C8.7502,10.8709,8.327,11.4167,8,11.4167z M8,5.5833c0.327,0,0.7502,0.5457,0.9867,1.4583H7.0133
		C7.2498,6.1291,7.673,5.5833,8,5.5833z M6.8971,5.8032c-0.2045,0.335-0.372,0.7531-0.4836,1.2384H5.4889
		C5.8114,6.4897,6.3001,6.0482,6.8971,5.8032z M5.0833,8.5c0-0.307,0.061-0.597,0.1493-0.875h1.0795
		C6.2756,7.9064,6.25,8.1958,6.25,8.5s0.0256,0.5936,0.0621,0.875H5.2326C5.1443,9.097,5.0833,8.807,5.0833,8.5z M5.4889,9.9583
		h0.9246c0.1117,0.4854,0.2791,0.9035,0.4836,1.2384C6.3001,10.9518,5.8114,10.5103,5.4889,9.9583z M9.1029,11.1968
		c0.2045-0.335,0.372-0.7531,0.4836-1.2384h0.9246C10.1886,10.5103,9.6999,10.9518,9.1029,11.1968z M9.6879,9.375
		C9.7244,9.0936,9.75,8.8042,9.75,8.5S9.7244,7.9064,9.6879,7.625h1.0795c0.0883,0.278,0.1493,0.568,0.1493,0.875
		s-0.061,0.597-0.1493,0.875H9.6879z"/>
</g>
</svg>
