<?xml version="1.0" encoding="utf-8"?>
<!-- Generator: Adobe Illustrator 21.1.0, SVG Export Plug-In . SVG Version: 6.00 Build 0)  -->
<svg version="1.1" xmlns="http://www.w3.org/2000/svg" xmlns:xlink="http://www.w3.org/1999/xlink" x="0px" y="0px"
	 viewBox="0 0 16 16" enable-background="new 0 0 16 16" xml:space="preserve">
<g id="TEMPLATE" display="none">
	<g display="inline">
		<path fill="#D0D0D0" d="M16,0v16H0V0H16 M17-1h-1H0h-1v1v16v1h1h16h1v-1V0V-1L17-1z"/>
	</g>
</g>
<g id="ICONS">
	<g>
		<polygon fill="#FFFFFF" points="13,15 3,15 3,1 11,1 13,2.9998 		"/>
		<path fill="#949494" d="M11,0H2v16h12V3L11,0z M11,1.5L12.5,3H11V1.5z M13,15H3V1h7v3h3V15z"/>
	</g>
	<g>
		<polygon fill="#C7E0F4" points="8,7 8,9 5,8 		"/>
		<polygon fill="#69AFE5" points="8,7 8,9 11,8 		"/>
		<polygon fill="#0078D7" points="8,9 11,8 11,12 8,13 		"/>
		<polygon fill="#DEECF9" points="8,9 8,13 5,12 5,8 		"/>
		<polygon fill="#69AFE5" points="8,13 5,12 8,11 		"/>
		<polygon fill="#005A9E" points="8,13 8,11 11,12 		"/>
	</g>
</g>
</svg>
