<svg id="8a36a4a2-07d2-4c98-8211-2d786a106bd9" data-name="ICONS" xmlns="http://www.w3.org/2000/svg" viewBox="0 0 16 16"><title>FileTypeIcons_Master_All_NEW</title><polygon points="13 15 3 15 3 1 11 1 13 3 13 15" fill="#fff"/><path d="M11,0H2V16H14V3Zm0,1.5L12.5,3H11ZM13,15H3V1h7V4h3Z" fill="#949494"/><polygon points="8 7 8 9 5 8 8 7" fill="#c7e0f4"/><polygon points="8 7 8 9 11 8 8 7" fill="#69afe5"/><polygon points="8 9 11 8 11 12 8 13 8 9" fill="#0078d7"/><polygon points="8 9 8 13 5 12 5 8 8 9" fill="#deecf9"/><polygon points="8 13 5 12 8 11 8 13" fill="#69afe5"/><polygon points="8 13 8 11 11 12 8 13" fill="#005a9e"/></svg>