<svg id="09d6812d-d905-4e74-b6a8-819e1d4d9072" data-name="ICONS" xmlns="http://www.w3.org/2000/svg" viewBox="0 0 16 16"><title>FileTypeIcons_Master_All_NEW</title><polygon points="14 15 4 15 4 1 12 1 14 3 14 15" fill="#fff"/><path d="M12,0H3V16H15V3Zm0,1.5L13.5,3H12ZM14,15H4V1h7V4h3Z" fill="#949494"/><polygon points="12 5 8 5 8 6 12 6 12 13 8 13 8 14 13 14 13 13 13 6 13 5 12 5" fill="#c8c8c8"/><polygon points="1 5 8 4 8 14 1 13 1 5" fill="#31752f"/><rect x="8" y="7" width="3" height="1" fill="#8bbf8a"/><rect x="9" y="11" width="3" height="1" fill="#8bbf8a"/><rect x="8" y="9" width="3" height="1" fill="#8bbf8a"/><path d="M5,7H3v4H4V10H5V9H6V8H5ZM5,9H4V8H5Z" fill="#fff"/><rect x="5" y="9" width="1" height="1" fill="#fff" opacity="0.6"/><rect x="5" y="7" width="1" height="1" fill="#fff" opacity="0.6"/></svg>