<?xml version="1.0" encoding="utf-8"?>
<!-- Generator: Adobe Illustrator 21.1.0, SVG Export Plug-In . SVG Version: 6.00 Build 0)  -->
<svg version="1.1" xmlns="http://www.w3.org/2000/svg" xmlns:xlink="http://www.w3.org/1999/xlink" x="0px" y="0px"
	 viewBox="0 0 16 16" enable-background="new 0 0 16 16" xml:space="preserve">
<g id="TEMPLATE" display="none">
	<g display="inline">
		<path fill="#D0D0D0" d="M16,0v16H0V0H16 M17-1h-1H0h-1v1v16v1h1h16h1v-1V0V-1L17-1z"/>
	</g>
</g>
<g id="ICONS">
	<g>
		<polygon fill="#FFFFFF" points="14,15 4,15 4,1 12,1 14,2.9998 		"/>
		<path fill="#949494" d="M12,0H3v16h12V3L12,0z M12,1.5L13.5,3H12V1.5z M14,15H4V1h7v3h3V15z"/>
	</g>
	<polygon fill="#C8C8C8" points="12,5 8,5 8,6 12,6 12,13 8,13 8,14 13,14 13,13 13,6 13,5 	"/>
	<polygon fill="#31752F" points="1,5 8,4 8,14 1,13 	"/>
	<rect x="8" y="7" fill="#8BBF8A" width="3" height="1"/>
	<rect x="9" y="11" fill="#8BBF8A" width="3" height="1"/>
	<rect x="8" y="9" fill="#8BBF8A" width="3" height="1"/>
	<g>
		<path fill="#FFFFFF" d="M5,7H4H3v1v3h1v-1h1V9h1V8H5V7z M5,9H4V8h1V9z"/>
		<rect x="5" y="9" opacity="0.6" fill="#FFFFFF" width="1" height="1"/>
		<rect x="5" y="7" opacity="0.6" fill="#FFFFFF" width="1" height="1"/>
	</g>
</g>
</svg>
