<svg id="d7ff9b24-c53f-4813-a3ba-279631915fa1" data-name="ICONS" xmlns="http://www.w3.org/2000/svg" viewBox="0 0 16 16"><title>FileTypeIcons_Master_All_NEW</title><path d="M13,0H3V14H5v2H15V2Z" fill="#fff"/><polygon points="14 15 6 15 6 14 13 14 13 3 12 3 12 13 6 13 5 13 4 13 4 3 3 3 3 14 5 14 5 16 15 16 15 4 14 3 14 15" fill="#949494"/><polygon points="10 5 8 5 8 6 10 6 10 11 8 11 8 12 10 12 11 12 11 11 11 6 11 5 10 5" fill="#c8c8c8"/><polygon points="1 5 8 4 8 14 1 13 1 5" fill="#31752f"/><rect x="8" y="7" width="1" height="1" fill="#8bbf8a"/><rect x="8" y="9" width="2" height="1" fill="#8bbf8a"/><polygon points="13 0 3 0 3 3 13 3 13 2 15 4 15 2 13 0" fill="#31752f"/><path d="M5,7H3v4H4V10H5V9H6V8H5ZM5,9H4V8H5Z" fill="#fff"/><rect x="5" y="9" width="1" height="1" fill="#fff" opacity="0.6"/><rect x="5" y="7" width="1" height="1" fill="#fff" opacity="0.6"/></svg>