<?xml version="1.0" encoding="utf-8"?>
<!-- Generator: Adobe Illustrator 21.1.0, SVG Export Plug-In . SVG Version: 6.00 Build 0)  -->
<svg version="1.1" xmlns="http://www.w3.org/2000/svg" xmlns:xlink="http://www.w3.org/1999/xlink" x="0px" y="0px"
	 viewBox="0 0 16 16" enable-background="new 0 0 16 16" xml:space="preserve">
<g id="TEMPLATE" display="none">
	<g display="inline">
		<path fill="#D0D0D0" d="M16,0v16H0V0H16 M17-1h-1H0h-1v1v16v1h1h16h1v-1V0V-1L17-1z"/>
	</g>
</g>
<g id="ICONS">
	<g>
		<polygon fill="#FFFFFF" points="14,15 4,15 4,1 12,1 14,2.9998 		"/>
		<path fill="#949494" d="M12,0H3v16h12V3L12,0z M12,1.5L13.5,3H12V1.5z M14,15H4V1h7v3h3V15z"/>
	</g>
	<rect x="8" y="11" fill="#C8C8C8" width="5" height="1"/>
	<rect x="8" y="13" fill="#C8C8C8" width="5" height="1"/>
	<polygon fill="#B7472A" points="1,5 8,4 8,14 1,13 	"/>
	<g>
		<path fill="#F5BA9D" d="M12,9h-2V8H9.0405C9.2256,9.1411,10.0322,10,11,10s1.7744-0.8589,1.9595-2H12V9z"/>
		<path fill="#F5BA9D" d="M10,6h2v1h0.9595C12.7744,5.8589,11.9678,5,11,5S9.2256,5.8589,9.0405,7H10V6z"/>
	</g>
	<g>
		<path fill="#FFFFFF" d="M5,7H4H3v1v3h1v-1h1V9h1V8H5V7z M5,9H4V8h1V9z"/>
		<rect x="5" y="9" opacity="0.6" fill="#FFFFFF" width="1" height="1"/>
		<rect x="5" y="7" opacity="0.6" fill="#FFFFFF" width="1" height="1"/>
	</g>
</g>
</svg>
