<svg id="b02a075d-9d9c-47e3-b7c0-e1ee0ae87ba4" data-name="ICONS" xmlns="http://www.w3.org/2000/svg" viewBox="0 0 16 16"><title>FileTypeIcons_Master_All_NEW</title><polygon points="13 15 4 15 4 1 13 1 13 2 14 2 14 5 13 5 13 15" fill="#fff"/><path d="M14,1V0H3V1H2.5a.5.5,0,0,0,0,1H3V3H2.5a.5.5,0,0,0,0,1H3V14H2.5a.5.5,0,0,0,0,1H3v1H14V6h1V1Zm0,4H13V15H4V1h9V2h1Z" fill="#949494"/><rect x="8" y="7" width="3" height="1" fill="#c8c8c8"/><rect x="8" y="9" width="3" height="1" fill="#c8c8c8"/><rect x="8" y="5" width="3" height="1" fill="#c8c8c8"/><rect x="14" y="7" width="1" height="3" fill="#949494"/><rect x="14" y="11" width="1" height="3" fill="#949494"/><polygon points="1 5 8 4 8 14 1 13 1 5" fill="#7719aa"/><rect x="3" y="7" width="1" height="4" fill="#fff"/><rect x="3" y="8" width="1" height="1" fill="#fff"/><rect x="4" y="8" width="1" height="1" fill="#fff" opacity="0.6"/><rect x="3" y="7" width="1" height="1" fill="#fff" opacity="0.6"/><rect x="5" y="10" width="1" height="1" fill="#fff" opacity="0.6"/><rect x="4" y="9" width="1" height="1" fill="#fff" opacity="0.6"/><rect x="5" y="9" width="1" height="1" fill="#fff"/><rect x="5" y="7" width="1" height="4" fill="#fff"/></svg>