<?xml version="1.0" encoding="utf-8"?>
<!-- Generator: Adobe Illustrator 21.1.0, SVG Export Plug-In . SVG Version: 6.00 Build 0)  -->
<svg version="1.1" xmlns="http://www.w3.org/2000/svg" xmlns:xlink="http://www.w3.org/1999/xlink" x="0px" y="0px"
	 viewBox="0 0 16 16" enable-background="new 0 0 16 16" xml:space="preserve">
<g id="TEMPLATE" display="none">
	<g display="inline">
		<path fill="#D0D0D0" d="M16,0v16H0V0H16 M17-1h-1H0h-1v1v16v1h1h16h1v-1V0V-1L17-1z"/>
	</g>
</g>
<g id="ICONS">
	<polygon fill="#FFFFFF" points="13,15 4,15 4,1 13,1 13,2 14,2 14,5 13,4.9998 	"/>
	<path fill="#949494" d="M14,1V0H3v1H2.5C2.2251,1,2,1.2251,2,1.5S2.2251,2,2.5,2H3v1H2.5C2.2251,3,2,3.2251,2,3.5S2.2251,4,2.5,4H3
		v10H2.5C2.2251,14,2,14.2251,2,14.5S2.2251,15,2.5,15H3v1h11V6h1V1H14z M14,5h-1v1v9H4V1h9v1h1V5z"/>
	<rect x="8" y="7" fill="#C8C8C8" width="3" height="1"/>
	<rect x="8" y="9" fill="#C8C8C8" width="3" height="1"/>
	<rect x="8" y="5" fill="#C8C8C8" width="3" height="1"/>
	<g>
		<rect x="14" y="7" fill="#949494" width="1" height="3"/>
	</g>
	<g>
		<rect x="14" y="11" fill="#949494" width="1" height="3"/>
	</g>
	<polygon fill="#7719AA" points="1,5 8,4 8,14 1,13 	"/>
	<g>
		<rect x="3" y="7" fill="#FFFFFF" width="1" height="4"/>
		<rect x="3" y="8" fill="#FFFFFF" width="1" height="1"/>
		<rect x="4" y="8" opacity="0.6" fill="#FFFFFF" width="1" height="1"/>
		<rect x="3" y="7" opacity="0.6" fill="#FFFFFF" width="1" height="1"/>
		<rect x="5" y="10" opacity="0.6" fill="#FFFFFF" width="1" height="1"/>
		<rect x="4" y="9" opacity="0.6" fill="#FFFFFF" width="1" height="1"/>
		<rect x="5" y="9" fill="#FFFFFF" width="1" height="1"/>
		<rect x="5" y="7" fill="#FFFFFF" width="1" height="4"/>
	</g>
</g>
</svg>
