<svg id="9e84510d-25e1-4127-8b71-f511ec599c98" data-name="ICONS" xmlns="http://www.w3.org/2000/svg" viewBox="0 0 16 16"><title>FileTypeIcons_Master_All_NEW</title><polygon points="13 15 3 15 3 1 11 1 13 3 13 15" fill="#fff"/><path d="M11,0H2V16H14V3Zm0,1.5L12.5,3H11ZM13,15H3V1h7V4h3Z" fill="#949494"/><rect x="4" y="5" width="8" height="1" fill="#c8c8c8"/><rect x="4" y="7" width="8" height="1" fill="#c8c8c8"/><rect x="12" y="10" width="3" height="3" fill="#d65532"/><rect x="1" y="10" width="3" height="3" fill="#d65532"/><path d="M10,10v3H6V10h4m1-1H5v5h6V9Z" fill="#d65532"/><rect x="4" y="2" width="3" height="1" fill="#c8c8c8"/></svg>