<svg id="83b4a0b5-c68f-4237-8413-77d1d1c0d060" data-name="ICONS" xmlns="http://www.w3.org/2000/svg" viewBox="0 0 16 16"><title>FileTypeIcons_Master_All_NEW</title><polygon points="12 0 3 0 3 2 2 2 1 2 1 3 2 3 2 8 4 8 4 9 4 10 4 11 3 11 3 12 2 12 2 13 3 13 3 16 4 16 4 15 6 15 6 16 15 16 15 3 12 0" fill="#fff"/><path d="M15,3,12,0H3V3H4V1h7V4h3V15H6v1h9ZM12,3V1.5L13.5,3Z" fill="#949494"/><polygon points="5 12 4 12 4 11 3 11 3 12 2 12 2 13 3 13 3 16 4 16 4 13 5 13 5 12" fill="#d04727"/><path d="M9,2H1V3H2V8H5V9H4v1H7V9H6V8H9V3h1V2ZM8,7H3V3H8Z" fill="gray"/><rect x="3" y="3" width="5" height="4" fill="#fff"/><rect x="4" y="4" width="1" height="2" fill="#c8c8c8"/><rect x="6" y="5" width="1" height="1" fill="#f5ba9d"/></svg>