<svg id="cd7ad8e5-89ca-4424-97ef-75d6c66284bd" data-name="ICONS" xmlns="http://www.w3.org/2000/svg" viewBox="0 0 16 16"><title>FileTypeIcons_Master_All_NEW</title><polygon points="14 15 4 15 4 1 12 1 14 3 14 15" fill="#fff"/><path d="M10,3a2,2,0,0,1,2,2l-2-.00024Z" fill="#f5ba9d"/><path d="M12,0H3V16H15V3Zm0,1.5L13.5,3H12ZM14,15H4V1h7V4h3Z" fill="#949494"/><path d="M12,6A3,3,0,1,1,9,3L8.99965,6Z" fill="#c8c8c8"/><rect x="8" y="11" width="5" height="1" fill="#c8c8c8"/><rect x="8" y="13" width="5" height="1" fill="#c8c8c8"/><polygon points="1 5 8 4 8 14 1 13 1 5" fill="#b7472a"/><path d="M5,7H3v4H4V10H5V9H6V8H5ZM5,9H4V8H5Z" fill="#fff"/><rect x="5" y="9" width="1" height="1" fill="#fff" opacity="0.6"/><rect x="5" y="7" width="1" height="1" fill="#fff" opacity="0.6"/></svg>