<?xml version="1.0" encoding="utf-8"?>
<!-- Generator: Adobe Illustrator 22.0.1, SVG Export Plug-In . SVG Version: 6.00 Build 0)  -->
<svg version="1.1" xmlns="http://www.w3.org/2000/svg" xmlns:xlink="http://www.w3.org/1999/xlink" x="0px" y="0px"
	 viewBox="0 0 16 16" enable-background="new 0 0 16 16" xml:space="preserve">
<g id="TEMPLATE" display="none">
	<g display="inline">
		<path fill="#D0D0D0" d="M16,0v16H0V0H16 M17-1h-1H0h-1v1v16v1h1h16h1v-1V0V-1L17-1z"/>
	</g>
	<rect display="inline" fill="none" width="16" height="16"/>
</g>
<g id="ICONS">
	<polygon fill="#FFFFFF" points="15,13 1,13 1,3 13,3 15,5 	"/>
	<g>
		<path fill="#D14C32" d="M11,8h1.9496C12.7507,7.0205,11.9795,6.2493,11,6.0504V8z"/>
		<path fill="#C8C8C8" d="M11,9h-1V8V6.0504C8.8589,6.2821,8,7.2905,8,8.5C8,9.8807,9.1194,11,10.5,11
			c1.2095,0,2.2179-0.8589,2.4496-2H11z"/>
	</g>
	<rect x="2" y="6" fill="#C8C8C8" width="4" height="1"/>
	<rect x="2" y="8" fill="#C8C8C8" width="4" height="1"/>
	<rect x="2" y="10" fill="#C8C8C8" width="4" height="1"/>
	<path fill="#949494" d="M13,2H0v12h16V5L13,2z M13,3.5L14.5,5H13V3.5z M15,13H1V3h11v3h3V13z"/>
</g>
</svg>
