<svg id="12ddf1d4-61b5-43fd-96ff-9eae5b9abd33" data-name="ICONS" xmlns="http://www.w3.org/2000/svg" viewBox="0 0 16 16"><title>FileTypeIcons_Master_All_NEW</title><polygon points="15 13 1 13 1 3 13 3 15 5 15 13" fill="#fff"/><path d="M11,8h1.94958A2.50222,2.50222,0,0,0,11,6.05042Z" fill="#d14c32"/><path d="M11,9H10V6.05042A2.5,2.5,0,1,0,12.94958,9Z" fill="#c8c8c8"/><rect x="2" y="6" width="4" height="1" fill="#c8c8c8"/><rect x="2" y="8" width="4" height="1" fill="#c8c8c8"/><rect x="2" y="10" width="4" height="1" fill="#c8c8c8"/><path d="M13,2H0V14H16V5Zm0,1.5L14.5,5H13ZM15,13H1V3H12V6h3Z" fill="#949494"/></svg>