<svg id="093a1861-ce16-4823-a212-36dacad8cb22" data-name="ICONS" xmlns="http://www.w3.org/2000/svg" viewBox="0 0 16 16"><title>FileTypeIcons_Master_All_NEW</title><polygon points="14 15 4 15 4 1 12 1 14 3 14 15" fill="#fff"/><path d="M12,0H3V16H15V3Zm0,1.5L13.5,3H12ZM14,15H4V1h7V4h3Z" fill="#949494"/><path d="M12,10v3H8V10h4m1-1H7v5h6V9Z" fill="#c8c8c8"/><path d="M10,6V9H7V6h3m1-1H6v5h5V5Z" fill="#c8c8c8"/><polygon points="1 5 8 4 8 14 1 13 1 5" fill="#077568"/><path d="M5,7H3v4H4V10H5V9H6V8H5ZM5,9H4V8H5Z" fill="#fff"/><rect x="5" y="9" width="1" height="1" fill="#fff" opacity="0.6"/><rect x="5" y="7" width="1" height="1" fill="#fff" opacity="0.6"/></svg>