<svg id="3e12a38f-fec1-4d40-b5ef-6b4d83f997e8" data-name="ICONS" xmlns="http://www.w3.org/2000/svg" viewBox="0 0 16 16"><title>FileTypeIcons_Master_All_NEW</title><polygon points="13 15 3 15 3 1 11 1 13 3 13 15" fill="#fff"/><path d="M11,0H2V16H14V3Zm0,1.5L12.5,3H11ZM13,15H3V1h7V4h3Z" fill="#949494"/><rect x="8" y="5" width="4" height="1" fill="#9ed1f1"/><rect x="8" y="3" width="1" height="1" fill="#9ed1f1"/><rect x="5" y="3" width="1" height="1" fill="#d5edff"/><rect x="4" y="7" width="8" height="1" fill="#69afe5"/><rect x="4" y="9" width="3" height="1" fill="#c8c8c8"/><rect x="4" y="11" width="3" height="1" fill="#c8c8c8"/><rect x="4" y="13" width="8" height="1" fill="#c8c8c8"/><rect x="6" y="3" width="1" height="3" fill="#9ed1f1"/><rect x="4" y="5" width="1" height="1" fill="#9ed1f1"/><rect x="5" y="4" width="1" height="1" fill="#9ed1f1"/><rect x="6" y="2" width="1" height="1" fill="#9ed1f1"/><rect x="8" y="9" width="4" height="3" fill="#69afe5"/></svg>