<?xml version="1.0" encoding="utf-8"?>
<!-- Generator: Adobe Illustrator 21.1.0, SVG Export Plug-In . SVG Version: 6.00 Build 0)  -->
<svg version="1.1" xmlns="http://www.w3.org/2000/svg" xmlns:xlink="http://www.w3.org/1999/xlink" x="0px" y="0px"
	 viewBox="0 0 16 16" enable-background="new 0 0 16 16" xml:space="preserve">
<g id="TEMPLATE" display="none">
	<g display="inline">
		<path fill="#D0D0D0" d="M16,0v16H0V0H16 M17-1h-1H0h-1v1v16v1h1h16h1v-1V0V-1L17-1z"/>
	</g>
</g>
<g id="ICONS">
	<polygon fill="#A6A6A6" points="0,14 0,4 7,4 9,2 16,2 16,14 	"/>
	<polygon fill="#666666" points="9,2 7,4 9,6 16,6 16,4 16,2 	"/>
	<path fill="#EAEAEA" d="M5.4396,10.3833C5.7851,10.0239,6,9.5378,6,9c0-1.1045-0.8954-2-2-2S2,7.8955,2,9
		c0,0.5378,0.2149,1.0239,0.5604,1.3833C1.6345,10.894,1,11.8679,1,13h1c0-1.1028,0.8972-2,2-2s2,0.8972,2,2h1
		C7,11.8679,6.3655,10.894,5.4396,10.3833z M3,9c0-0.5515,0.4486-1,1-1s1,0.4485,1,1s-0.4486,1-1,1S3,9.5515,3,9z"/>
</g>
</svg>
