<svg id="cd3a7350-2316-4a8b-b02d-2ac475c1d819" data-name="ICONS" xmlns="http://www.w3.org/2000/svg" viewBox="0 0 16 16"><title>FileTypeIcons_Master_All_NEW</title><polygon points="14 15 4 15 4 1 12 1 14 3 14 15" fill="#fff"/><path d="M12,0H3V16H15V3Zm0,1.5L13.5,3H12ZM14,15H4V1h7V4h3Z" fill="#949494"/><polygon points="1 5 8 4 8 14 1 13 1 5" fill="#0078d7"/><rect x="8" y="5" width="5" height="4" fill="#b3d3e8"/><rect x="8" y="10" width="5" height="1" fill="#c8c8c8"/><rect x="8" y="12" width="5" height="1" fill="#c8c8c8"/><rect x="3" y="7" width="1" height="2" fill="#fff"/><rect x="5" y="7" width="1" height="1" fill="#fff"/><rect x="3" y="10" width="1" height="1" fill="#fff"/><rect x="5" y="9" width="1" height="2" fill="#fff"/><rect x="4" y="8" width="1" height="1" fill="#fff" opacity="0.6"/><rect x="3" y="6" width="1" height="1" fill="#fff" opacity="0.6"/><rect x="5" y="6" width="1" height="1" fill="#fff" opacity="0.6"/><rect x="3" y="11" width="1" height="1" fill="#fff" opacity="0.6"/><rect x="5" y="11" width="1" height="1" fill="#fff" opacity="0.6"/><rect x="4" y="9" width="1" height="1" fill="#fff" opacity="0.6"/><rect x="4" y="6" width="1" height="1" fill="#fff"/><rect x="4" y="11" width="1" height="1" fill="#fff"/></svg>