<?xml version="1.0" encoding="utf-8"?>
<!-- Generator: Adobe Illustrator 22.0.1, SVG Export Plug-In . SVG Version: 6.00 Build 0)  -->
<svg version="1.1" xmlns="http://www.w3.org/2000/svg" xmlns:xlink="http://www.w3.org/1999/xlink" x="0px" y="0px"
	 viewBox="0 0 16 16" enable-background="new 0 0 16 16" xml:space="preserve">
<g id="TEMPLATE" display="none">
	<g display="inline">
		<path fill="#D0D0D0" d="M16,0v16H0V0H16 M17-1h-1H0h-1v1v16v1h1h16h1v-1V0V-1L17-1z"/>
	</g>
	<rect x="0" display="inline" fill="none" width="16" height="16"/>
</g>
<g id="ICONS">
	<polygon fill="#FFFFFF" points="15,13 1,13 1,3 13,3 15,5 	"/>
	<rect x="10" y="11" transform="matrix(-1 -3.299809e-07 3.299809e-07 -1 22.9994 23)" fill="#C8C8C8" width="2.9994" height="1"/>
	<rect x="10" y="7" transform="matrix(-1 -3.299778e-07 3.299778e-07 -1 22.9994 15)" fill="#C8C8C8" width="2.9994" height="1"/>
	<rect x="10" y="5" transform="matrix(-1 -3.299778e-07 3.299778e-07 -1 22.9994 11)" fill="#C8C8C8" width="2.9994" height="1"/>
	<rect x="10" y="9" transform="matrix(-1 -3.299778e-07 3.299778e-07 -1 22.9994 19)" fill="#C8C8C8" width="2.9994" height="1"/>
	<path fill="#949494" d="M13,2H0v12h16V5L13,2z M13,3.5L14.5,5H13V3.5z M15,13H1V3h11v3h3V13z"/>
	
		<rect x="2.0003" y="5" transform="matrix(-1 -3.299452e-07 3.299452e-07 -1 7.0003 11)" fill="#217346" width="2.9997" height="1"/>
	
		<rect x="2.0003" y="7" transform="matrix(-1 -3.299452e-07 3.299452e-07 -1 7.0003 15)" fill="#217346" width="2.9997" height="1"/>
	
		<rect x="2.0003" y="9" transform="matrix(-1 -3.299452e-07 3.299452e-07 -1 7.0003 19)" fill="#217346" width="2.9997" height="1"/>
	
		<rect x="2.0003" y="11" transform="matrix(-1 -3.299452e-07 3.299452e-07 -1 7.0003 23)" fill="#217346" width="2.9997" height="1"/>
	<rect x="6" y="11" transform="matrix(-1 -3.299809e-07 3.299809e-07 -1 14.9994 23)" fill="#C8C8C8" width="2.9994" height="1"/>
	<rect x="6" y="7" transform="matrix(-1 -3.299778e-07 3.299778e-07 -1 14.9994 15)" fill="#C8C8C8" width="2.9994" height="1"/>
	<rect x="6" y="5" transform="matrix(-1 -3.299778e-07 3.299778e-07 -1 14.9994 11)" fill="#C8C8C8" width="2.9994" height="1"/>
	<rect x="6" y="9" transform="matrix(-1 -3.299778e-07 3.299778e-07 -1 14.9994 19)" fill="#C8C8C8" width="2.9994" height="1"/>
</g>
</svg>
