<svg id="8c835a17-59db-4676-8853-36d87afdefe3" data-name="ICONS" xmlns="http://www.w3.org/2000/svg" viewBox="0 0 16 16"><title>FileTypeIcons_Master_All_NEW</title><polygon points="15 13 1 13 1 3 13 3 15 5 15 13" fill="#fff"/><rect x="10" y="11" width="2.99941" height="1" transform="translate(22.99941 23) rotate(-179.99998)" fill="#c8c8c8"/><rect x="10" y="7" width="2.99941" height="1" transform="translate(22.99941 15) rotate(-179.99998)" fill="#c8c8c8"/><rect x="10" y="5" width="2.99941" height="1" transform="translate(22.99941 11) rotate(-179.99998)" fill="#c8c8c8"/><rect x="10" y="9" width="2.99941" height="1" transform="translate(22.99941 19) rotate(-179.99998)" fill="#c8c8c8"/><path d="M13,2H0V14H16V5Zm0,1.5L14.5,5H13ZM15,13H1V3H12V6h3Z" fill="#949494"/><rect x="2.00028" y="5" width="2.99971" height="1" transform="translate(7.00027 11) rotate(-179.99998)" fill="#217346"/><rect x="2.00028" y="7" width="2.99971" height="1" transform="translate(7.00027 15) rotate(-179.99998)" fill="#217346"/><rect x="2.00028" y="9" width="2.99971" height="1" transform="translate(7.00027 19) rotate(-179.99998)" fill="#217346"/><rect x="2.00028" y="11" width="2.99971" height="1" transform="translate(7.00027 23) rotate(-179.99998)" fill="#217346"/><rect x="6" y="11" width="2.99941" height="1" transform="translate(14.99941 23) rotate(-179.99998)" fill="#c8c8c8"/><rect x="6" y="7" width="2.99941" height="1" transform="translate(14.99941 15) rotate(-179.99998)" fill="#c8c8c8"/><rect x="6" y="5" width="2.99941" height="1" transform="translate(14.99941 11) rotate(-179.99998)" fill="#c8c8c8"/><rect x="6" y="9" width="2.99941" height="1" transform="translate(14.99941 19) rotate(-179.99998)" fill="#c8c8c8"/></svg>