<svg id="fb5657ec-417d-4942-abe6-943ae52ad46d" data-name="ICONS" xmlns="http://www.w3.org/2000/svg" viewBox="0 0 16 16"><title>FileTypeIcons_Master_All_NEW</title><polygon points="14 15 4 15 4 1 12 1 14 3 14 15" fill="#fff"/><polygon points="7.5 5 4 9 11 9 7.5 5" fill="#99cdc7"/><path d="M12,0H3V16H15V3Zm0,1.5L13.5,3H12ZM14,15H4V1h7V4h3Z" fill="#949494"/><polygon points="1 5 8 4 8 14 1 13 1 5" fill="#008272"/><rect x="8" y="10" width="2" height="1" fill="#c8c8c8"/><rect x="8" y="12" width="2" height="1" fill="#c8c8c8"/><rect x="11" y="10" width="2" height="1" fill="#c8c8c8"/><rect x="11" y="12" width="2" height="1" fill="#c8c8c8"/><rect x="3" y="7" width="1" height="2" fill="#fff"/><rect x="5" y="7" width="1" height="1" fill="#fff"/><rect x="3" y="10" width="1" height="1" fill="#fff"/><rect x="5" y="9" width="1" height="2" fill="#fff"/><rect x="4" y="8" width="1" height="1" fill="#fff" opacity="0.6"/><rect x="3" y="6" width="1" height="1" fill="#fff" opacity="0.6"/><rect x="5" y="6" width="1" height="1" fill="#fff" opacity="0.6"/><rect x="3" y="11" width="1" height="1" fill="#fff" opacity="0.6"/><rect x="5" y="11" width="1" height="1" fill="#fff" opacity="0.6"/><rect x="4" y="9" width="1" height="1" fill="#fff" opacity="0.6"/><rect x="4" y="6" width="1" height="1" fill="#fff"/><rect x="4" y="11" width="1" height="1" fill="#fff"/><rect x="11" y="5" width="1" height="1" fill="#99cdc7"/><polygon points="11 7 9 9 13 9 11 7" fill="#99cdc7"/></svg>