<svg id="25aea034-33e4-4c53-aaf6-f0eb4ccaef7a" data-name="ICONS" xmlns="http://www.w3.org/2000/svg" viewBox="0 0 16 16"><title>FileTypeIcons_Master_All_NEW</title><polygon points="13 15 3 15 3 1 11 1 13 3 13 15" fill="#fff"/><path d="M11,0H2V16H14V3Zm0,1.5L12.5,3H11ZM13,15H3V1h7V4h3Z" fill="#949494"/><rect x="6" y="5" width="2" height="1" fill="#c8c8c8"/><rect x="6" y="10" width="2" height="1" fill="#c8c8c8"/><rect x="4" y="7" width="1" height="2" fill="#c8c8c8"/><rect x="9" y="7" width="1" height="2" fill="#c8c8c8"/><rect x="5" y="6" width="1" height="1" fill="#c8c8c8"/><rect x="6" y="7" width="1" height="1" fill="#c8c8c8"/><rect x="7" y="7" width="1" height="1" fill="#c8c8c8"/><rect x="7" y="8" width="1" height="1" fill="#c8c8c8"/><rect x="6" y="8" width="1" height="1" fill="#c8c8c8"/><rect x="8" y="6" width="1" height="1" fill="#c8c8c8"/><rect x="5" y="9" width="1" height="1" fill="#c8c8c8"/><rect x="8" y="9" width="1" height="1" fill="#c8c8c8"/><rect x="10" y="10" width="1" height="1" fill="#c8c8c8"/><rect x="9" y="11" width="1" height="1" fill="#c8c8c8"/><rect x="10" y="12" width="1" height="1" fill="#c8c8c8"/><rect x="11" y="11" width="1" height="1" fill="#c8c8c8"/></svg>