<svg id="dcaea167-d842-4bf0-bcf0-cb1681e265da" data-name="ICONS" xmlns="http://www.w3.org/2000/svg" viewBox="0 0 16 16"><title>FileTypeIcons_Master_All_NEW</title><polygon points="13 15 3 15 3 1 11 1 13 3 13 15" fill="#fff"/><path d="M11,0H2V16H14V3Zm0,1.5L12.5,3H11ZM13,15H3V1h7V4h3Z" fill="#949494"/><circle cx="5" cy="7" r="1" fill="#0078d7"/><path d="M12,12l-1.5.5L10,14,8,10Z" fill="#0078d7"/><path d="M6,12v1H5V12H6m1-1H4v3H7V11Z" fill="#0078d7"/><rect x="5" y="9" width="1" height="1" fill="#c8c8c8"/><path d="M11,7V8H10V7h1m1-1H9V9h3V6Z" fill="#0078d7"/><rect x="7" y="7" width="1" height="1" fill="#c8c8c8"/></svg>