<svg id="4247123b-1c85-47e9-9bf8-4901a54c2ea7" data-name="ICONS" xmlns="http://www.w3.org/2000/svg" viewBox="0 0 16 16"><title>FileTypeIcons_Master_All_NEW</title><rect x="1" y="3" width="14" height="10" fill="#fff"/><path d="M0,2V14H16V2ZM15,13H1V3H15Z" fill="#949494"/><polygon points="6 5 6 11 11 8 6 5" fill="#69afe5"/><rect x="2" y="4" width="1" height="1" fill="#c8c8c8"/><rect x="2" y="8" width="1" height="1" fill="#c8c8c8"/><rect x="2" y="6" width="1" height="1" fill="#c8c8c8"/><rect x="2" y="10" width="1" height="1" fill="#c8c8c8"/><rect x="2" y="12" width="1" height="1" fill="#c8c8c8"/><rect x="13" y="4" width="1" height="1" fill="#c8c8c8"/><rect x="13" y="8" width="1" height="1" fill="#c8c8c8"/><rect x="13" y="6" width="1" height="1" fill="#c8c8c8"/><rect x="13" y="10" width="1" height="1" fill="#c8c8c8"/><rect x="13" y="12" width="1" height="1" fill="#c8c8c8"/></svg>