<?xml version="1.0" encoding="utf-8"?>
<!-- Generator: Adobe Illustrator 21.1.0, SVG Export Plug-In . SVG Version: 6.00 Build 0)  -->
<svg version="1.1" xmlns="http://www.w3.org/2000/svg" xmlns:xlink="http://www.w3.org/1999/xlink" x="0px" y="0px"
	 viewBox="0 0 16 16" enable-background="new 0 0 16 16" xml:space="preserve">
<g id="TEMPLATE" display="none">
	<g display="inline">
		<path fill="#D0D0D0" d="M16,0v16H0V0H16 M17-1h-1H0h-1v1v16v1h1h16h1v-1V0V-1L17-1z"/>
	</g>
</g>
<g id="ICONS">
	<rect x="1" y="3" fill="#FFFFFF" width="14" height="10"/>
	<path fill="#949494" d="M0,2v12h16V2H0z M15,13H1V3h14V13z"/>
	<polygon fill="#69AFE5" points="6,5 6,11 11,8 	"/>
	<rect x="2" y="4" fill="#C8C8C8" width="1" height="1"/>
	<rect x="2" y="8" fill="#C8C8C8" width="1" height="1"/>
	<rect x="2" y="6" fill="#C8C8C8" width="1" height="1"/>
	<rect x="2" y="10" fill="#C8C8C8" width="1" height="1"/>
	<rect x="2" y="12" fill="#C8C8C8" width="1" height="1"/>
	<rect x="13" y="4" fill="#C8C8C8" width="1" height="1"/>
	<rect x="13" y="8" fill="#C8C8C8" width="1" height="1"/>
	<rect x="13" y="6" fill="#C8C8C8" width="1" height="1"/>
	<rect x="13" y="10" fill="#C8C8C8" width="1" height="1"/>
	<rect x="13" y="12" fill="#C8C8C8" width="1" height="1"/>
</g>
</svg>
