<svg id="c66fb905-4c57-4dda-a105-dc4c62ffe349" data-name="ICONS" xmlns="http://www.w3.org/2000/svg" viewBox="0 0 16 16"><title>FileTypeIcons_Master_All_NEW</title><polygon points="14 15 4 15 4 1 12 1 14 3 14 15" fill="#fff"/><path d="M12,0H3V16H15V3Zm0,1.5L13.5,3H12ZM14,15H4V1h7V4h3Z" fill="#949494"/><polygon points="1 5 8 4 8 14 1 13 1 5" fill="#2b579a"/><rect x="3" y="7" width="1" height="3" fill="#fff"/><rect x="5" y="7" width="1" height="3" fill="#fff"/><rect x="4" y="10" width="1" height="2" fill="#fff"/><rect x="3" y="10" width="1" height="1" fill="#b0c0d8"/><rect x="5" y="10" width="1" height="1" fill="#b0c0d8"/><polygon points="1 5 8 4 8 14 1 13 1 5" fill="#3955a3"/><rect x="3" y="7" width="1" height="3" fill="#fff"/><rect x="5" y="7" width="1" height="3" fill="#fff"/><rect x="4" y="10" width="1" height="2" fill="#fff"/><rect x="3" y="10" width="1" height="1" fill="#b0c0d8"/><rect x="5" y="10" width="1" height="1" fill="#b0c0d8"/><path d="M11,10V7H8V8h2v2H9v4h4V10Zm1,3H10V11h2Z" fill="#c8c8c8"/></svg>