<?xml version="1.0" encoding="utf-8"?>
<!-- Generator: Adobe Illustrator 21.1.0, SVG Export Plug-In . SVG Version: 6.00 Build 0)  -->
<svg version="1.1" xmlns="http://www.w3.org/2000/svg" xmlns:xlink="http://www.w3.org/1999/xlink" x="0px" y="0px"
	 viewBox="0 0 16 16" enable-background="new 0 0 16 16" xml:space="preserve">
<g id="TEMPLATE" display="none">
	<g display="inline">
		<path fill="#D0D0D0" d="M16,0v16H0V0H16 M17-1h-1H0h-1v1v16v1h1h16h1v-1V0V-1L17-1z"/>
	</g>
</g>
<g id="ICONS">
	<rect x="4" y="1" fill="#FFFFFF" width="10" height="14"/>
	<rect x="10" y="6" fill="#C8C8C8" width="3" height="1"/>
	<rect x="10.5" y="3.5" transform="matrix(-1.836970e-16 1 -1 -1.836970e-16 16.5 -8.5)" fill="#C8C8C8" width="4" height="1"/>
	<rect x="8.5" y="3.5" transform="matrix(-1.836970e-16 1 -1 -1.836970e-16 14.5 -6.5)" fill="#C8C8C8" width="4" height="1"/>
	<path fill="#949494" d="M3,0v16h12V0H3z M14,15H4V1h10V15z"/>
	<rect x="10" y="2" fill="#C8C8C8" width="3" height="1"/>
	<rect x="5" y="6" fill="#C8C8C8" width="3" height="1"/>
	<rect x="5.5" y="3.5" transform="matrix(-1.836970e-16 1 -1 -1.836970e-16 11.5 -3.5)" fill="#C8C8C8" width="4" height="1"/>
	<rect x="3.5" y="3.5" transform="matrix(-1.836970e-16 1 -1 -1.836970e-16 9.5 -1.5)" fill="#C8C8C8" width="4" height="1"/>
	<rect x="5" y="2" fill="#C8C8C8" width="3" height="1"/>
	
		<rect x="9" y="10.9996" transform="matrix(-1.836970e-16 1 -1 -1.836970e-16 21.9996 0.9996)" fill="#C8C8C8" width="3" height="1"/>
	
		<rect x="11" y="10.9996" transform="matrix(-1.836970e-16 1 -1 -1.836970e-16 23.9996 -1.0004)" fill="#C8C8C8" width="3" height="1"/>
	<rect x="10" y="9" fill="#C8C8C8" width="3" height="1"/>
	<rect x="10" y="13" fill="#C8C8C8" width="3" height="1"/>
	
		<rect x="3.5004" y="11.5003" transform="matrix(-1.836970e-16 1 -1 -1.836970e-16 17.5004 6.5002)" fill="#C8C8C8" width="3.9994" height="1"/>
	
		<rect x="5.5004" y="11.5003" transform="matrix(-1.836970e-16 1 -1 -1.836970e-16 19.5004 4.5002)" fill="#C8C8C8" width="3.9994" height="1"/>
	<rect x="5" y="9" fill="#C8C8C8" width="3" height="1"/>
	<rect x="5" y="13" fill="#C8C8C8" width="3" height="1"/>
	<g>
		<polygon fill="#2B579A" points="1,5 8,4 8,14 1,13 		"/>
		<rect x="3" y="7" fill="#FFFFFF" width="1" height="3"/>
		<rect x="5" y="7" fill="#FFFFFF" width="1" height="3"/>
		<rect x="4" y="10" fill="#FFFFFF" width="1" height="2"/>
		<rect x="3" y="10" fill="#B0C0D8" width="1" height="1"/>
		<rect x="5" y="10" fill="#B0C0D8" width="1" height="1"/>
		<polygon fill="#3955A3" points="1,5 8,4 8,14 1,13 		"/>
		<rect x="3" y="7" fill="#FFFFFF" width="1" height="3"/>
		<rect x="5" y="7" fill="#FFFFFF" width="1" height="3"/>
		<rect x="4" y="10" fill="#FFFFFF" width="1" height="2"/>
		<rect x="3" y="10" fill="#B0C0D8" width="1" height="1"/>
		<rect x="5" y="10" fill="#B0C0D8" width="1" height="1"/>
	</g>
</g>
</svg>
