<svg id="878351bb-bd99-4318-8134-0608736c9a6a" data-name="ICONS" xmlns="http://www.w3.org/2000/svg" viewBox="0 0 16 16"><title>FileTypeIcons_Master_All_NEW</title><rect x="4" y="1" width="10" height="14" fill="#fff"/><rect x="10" y="6" width="3" height="1" fill="#c8c8c8"/><rect x="10.5" y="3.5" width="4" height="1" transform="translate(16.5 -8.5) rotate(90)" fill="#c8c8c8"/><rect x="8.5" y="3.5" width="4" height="1" transform="translate(14.5 -6.5) rotate(90)" fill="#c8c8c8"/><path d="M3,0V16H15V0ZM14,15H4V1H14Z" fill="#949494"/><rect x="10" y="2" width="3" height="1" fill="#c8c8c8"/><rect x="5" y="6" width="3" height="1" fill="#c8c8c8"/><rect x="5.5" y="3.5" width="4" height="1" transform="translate(11.5 -3.5) rotate(90)" fill="#c8c8c8"/><rect x="3.5" y="3.5" width="4" height="1" transform="translate(9.5 -1.5) rotate(90)" fill="#c8c8c8"/><rect x="5" y="2" width="3" height="1" fill="#c8c8c8"/><rect x="9" y="10.99956" width="3" height="1" transform="translate(21.99956 0.99956) rotate(90)" fill="#c8c8c8"/><rect x="11" y="10.99956" width="3" height="1" transform="translate(23.99956 -1.00044) rotate(90)" fill="#c8c8c8"/><rect x="10" y="9" width="3" height="1" fill="#c8c8c8"/><rect x="10" y="13" width="3" height="1" fill="#c8c8c8"/><rect x="3.50041" y="11.5003" width="3.99941" height="1" transform="translate(17.50041 6.50018) rotate(90)" fill="#c8c8c8"/><rect x="5.50041" y="11.5003" width="3.99941" height="1" transform="translate(19.50041 4.50018) rotate(90)" fill="#c8c8c8"/><rect x="5" y="9" width="3" height="1" fill="#c8c8c8"/><rect x="5" y="13" width="3" height="1" fill="#c8c8c8"/><polygon points="1 5 8 4 8 14 1 13 1 5" fill="#2b579a"/><rect x="3" y="7" width="1" height="3" fill="#fff"/><rect x="5" y="7" width="1" height="3" fill="#fff"/><rect x="4" y="10" width="1" height="2" fill="#fff"/><rect x="3" y="10" width="1" height="1" fill="#b0c0d8"/><rect x="5" y="10" width="1" height="1" fill="#b0c0d8"/><polygon points="1 5 8 4 8 14 1 13 1 5" fill="#3955a3"/><rect x="3" y="7" width="1" height="3" fill="#fff"/><rect x="5" y="7" width="1" height="3" fill="#fff"/><rect x="4" y="10" width="1" height="2" fill="#fff"/><rect x="3" y="10" width="1" height="1" fill="#b0c0d8"/><rect x="5" y="10" width="1" height="1" fill="#b0c0d8"/></svg>