<svg id="3b03ebb1-4790-4944-ac16-19c61c478689" data-name="ICONS" xmlns="http://www.w3.org/2000/svg" viewBox="0 0 16 16"><title>FileTypeIcons_Master_All_NEW</title><path d="M13,0H3V14H5v2H15V2Z" fill="#fff"/><polygon points="14 15 6 15 6 14 13 14 13 3 12 3 12 13 6 13 5 13 4 13 4 3 3 3 3 14 5 14 5 16 15 16 15 4 14 3 14 15" fill="#949494"/><polygon points="13 0 3 0 3 3 13 3 13 2 15 4 15 2 13 0" fill="#3955a3"/><path d="M10,9V6H8V7H9V9H8v3h3V9Zm0,2H9V10h1Z" fill="#c8c8c8"/><polygon points="1 5 8 4 8 14 1 13 1 5" fill="#2b579a"/><rect x="3" y="7" width="1" height="3" fill="#fff"/><rect x="5" y="7" width="1" height="3" fill="#fff"/><rect x="4" y="10" width="1" height="2" fill="#fff"/><rect x="3" y="10" width="1" height="1" fill="#b0c0d8"/><rect x="5" y="10" width="1" height="1" fill="#b0c0d8"/><polygon points="1 5 8 4 8 14 1 13 1 5" fill="#3955a3"/><rect x="3" y="7" width="1" height="3" fill="#fff"/><rect x="5" y="7" width="1" height="3" fill="#fff"/><rect x="4" y="10" width="1" height="2" fill="#fff"/><rect x="3" y="10" width="1" height="1" fill="#b0c0d8"/><rect x="5" y="10" width="1" height="1" fill="#b0c0d8"/></svg>