<svg id="0ed6e8c2-b137-441b-b804-87ecb8eb1231" data-name="ICONS" xmlns="http://www.w3.org/2000/svg" viewBox="0 0 16 16"><title>FileTypeIcons_Master_All_NEW</title><path d="M13,0H3V14H5v2H15V2Z" fill="#fff"/><rect x="9" y="5" width="2" height="1" fill="#c8c8c8"/><rect x="9" y="7" width="2" height="1" fill="#c8c8c8"/><rect x="9" y="9" width="2" height="1" fill="#c8c8c8"/><rect x="9" y="11" width="2" height="1" fill="#c8c8c8"/><polygon points="14 15 6 15 6 14 13 14 13 3 12 3 12 13 6 13 5 13 4 13 4 3 3 3 3 14 5 14 5 16 15 16 15 4 14 3 14 15" fill="#949494"/><polygon points="13 0 3 0 3 3 13 3 13 2 15 4 15 2 13 0" fill="#217346"/><polygon points="1 5 8 4 8 14 1 13 1 5" fill="#217346"/><rect x="3" y="7" width="1" height="1" fill="#fff"/><rect x="4" y="8" width="1" height="2" fill="#fff"/><rect x="5" y="7" width="1" height="1" fill="#fff"/><rect x="3" y="10" width="1" height="1" fill="#fff"/><rect x="5" y="10" width="1" height="1" fill="#fff"/></svg>