<?xml version="1.0" encoding="utf-8"?>
<!-- Generator: Adobe Illustrator 21.1.0, SVG Export Plug-In . SVG Version: 6.00 Build 0)  -->
<svg version="1.1" xmlns="http://www.w3.org/2000/svg" xmlns:xlink="http://www.w3.org/1999/xlink" x="0px" y="0px"
	 viewBox="0 0 16 16" enable-background="new 0 0 16 16" xml:space="preserve">
<g id="TEMPLATE" display="none">
	<g display="inline">
		<path fill="#D0D0D0" d="M16,0v16H0V0H16 M17-1h-1H0h-1v1v16v1h1h16h1v-1V0V-1L17-1z"/>
	</g>
</g>
<g id="ICONS">
	<polygon fill="#FFFFFF" points="13,15 3,15 3,1 11,1 13,2.9998 	"/>
	<rect x="4" y="11" fill="#C8C8C8" width="8" height="1"/>
	<rect x="4" y="13" fill="#C8C8C8" width="8" height="1"/>
	<path fill="#949494" d="M11,0H2v16h12V3L11,0z M11,1.5L12.5,3H11V1.5z M13,15H3V1h7v3h3V15z"/>
	<polygon fill="#949494" points="5,9 6,9 5,7.5 6,6 5,6 4,7.5 	"/>
	<polygon fill="#949494" points="11,9 10,9 11,7.5 10,6 11,6 12,7.5 	"/>
	<g>
		<circle fill="#6CAEDF" cx="8" cy="7.5" r="1.5"/>
		<g>
			<polygon fill="#DEEBF8" points="8.7614,6.2077 8.7519,6.2022 8.7513,6.2054 			"/>
			<path fill="#DEEBF8" d="M7.2162,7.3928C7.1973,7.3884,7.222,7.4729,7.237,7.4813c0.0399-0.0041-0.0077-0.034,0.0562-0.0003
				c0.0168,0.0128,0.035,0.0185,0.0545,0.0167C7.3461,7.5005,7.3484,7.5016,7.3598,7.4959L7.36,7.4951
				C7.3718,7.4373,7.2612,7.4029,7.2162,7.3928z"/>
			<path fill="#DEEBF8" d="M7.1674,7.3247C7.1572,7.2821,7.0963,7.167,7.0411,7.1911c-0.0132,0.0751,0.058,0.1343,0.0658,0.1607
				C7.1255,7.4159,7.2097,7.3362,7.1674,7.3247z"/>
			<path fill="#DEEBF8" d="M9.1974,6.5967c-0.0041-0.0027-0.0079-0.0063-0.012-0.0087C9.1822,6.6326,9.1889,6.7048,9.1372,6.7
				C9.1162,6.698,9.1018,6.716,9.083,6.6985c-0.0133-0.0123-0.0148-0.0278-0.0329-0.033C9.0261,6.5941,8.971,6.6589,8.9616,6.7088
				C8.9772,6.7643,8.9,6.77,8.8997,6.812c-0.0002,0.026-0.016,0.0424-0.0179,0.0701C8.8799,6.911,8.9247,6.9545,8.9169,6.967
				L8.8895,7.1081c-0.013,0.0169-0.0048,0.147,0.0067,0.1734C8.9144,7.323,8.9675,7.3672,8.9567,7.4221
				c-0.0084,0.0438,0.0075,0.1112,0.058,0.1134c0.0256,0.0231,0.0456,0.0374,0.0773,0.058C9.0943,7.6133,9.1233,7.637,9.1389,7.6431
				c0.0416,0.0114,0.0523,0.0276,0.0791-0.0176C9.236,7.5953,9.3068,7.5759,9.301,7.557c0.0128-0.0739,0.05-0.098,0.1123-0.1062
				C9.4489,7.4461,9.4465,7.53,9.449,7.5488c0.0005,0.0036,0.024,0.0357,0.0469,0.056C9.4983,7.5701,9.5,7.5353,9.5,7.5
				C9.5,7.1608,9.3873,6.8479,9.1974,6.5967z"/>
			<path fill="#DEEBF8" d="M8.3973,6.0642c-0.0497-0.0065-0.0626-0.019-0.1209-0.0055C8.2141,6.0731,8.3683,6.1558,8.3897,6.1729
				c0.0185,0.0146,0.0229,0.0315,0.0429,0.0476c0.0219-0.0038,0.0311,0.0081,0.0495,0.0146c0.0253,0.0089,0.0522-0.01,0.0816,0.0005
				c0.024,0.0087,0.0191,0.0306,0.0242,0.0524c0.0427-0.0072-0.0005-0.0675-0.0125-0.0834C8.557,6.18,8.5105,6.1832,8.488,6.153
				c0.0298-0.0045,0.0574-0.0401,0.0648,0.0129C8.5779,6.1837,8.596,6.1844,8.6193,6.2075c0.0128,0.0127,0.024-0.0037,0.0319,0.0047
				c0.0054,0.0191,0.0165,0.0513-0.0001,0.0702C8.6286,6.3083,8.6508,6.3522,8.6531,6.3816
				C8.6482,6.4067,8.6817,6.4473,8.6592,6.469C8.6426,6.485,8.6941,6.4965,8.7054,6.5011C8.7246,6.5088,8.7725,6.55,8.77,6.5723
				C8.7691,6.5808,8.7182,6.6062,8.7079,6.6067c-0.025,0.001,0.0245,0.0643,0.0277,0.0746
				c0.0125,0.0231,0.0426,0.0409,0.0527,0.0624C8.8127,6.7958,8.809,6.7401,8.8338,6.7604c0.0217,0.0179,0.049-0.0073,0.0635-0.0218
				C8.902,6.7204,8.9037,6.6836,8.8975,6.6668c-0.0062-0.0173-0.023-0.016-0.0339-0.0218c-0.0064-0.0158-0.0035-0.0449-0.007-0.0624
				C8.8501,6.549,8.8341,6.5271,8.8592,6.4916C8.8722,6.473,8.951,6.5218,8.9656,6.5352c0.0157,0.0145,0.0366-0.0486-0.018-0.0526
				c-0.02-0.0152-0.062-0.0251-0.0698-0.0479C8.8984,6.3952,8.9836,6.513,9.0185,6.4909C9.0229,6.4701,8.9856,6.458,8.983,6.4325
				C8.9822,6.4245,8.9794,6.4005,8.9744,6.3913C8.9682,6.3798,8.958,6.3558,8.9478,6.3375
				C8.8892,6.2897,8.8268,6.2464,8.7614,6.2077C8.7579,6.207,8.7549,6.2061,8.7513,6.2054
				c0.0004-0.0011,0.0003-0.0021,0.0006-0.0032C8.6996,6.1719,8.6454,6.1443,8.5894,6.1204
				c-0.0178-0.0034-0.0338-0.0065-0.0455-0.01C8.5092,6.1004,8.433,6.0504,8.3973,6.0642z"/>
			<path fill="#DEEBF8" d="M8.5647,6.3478c-0.0002-0.0017-0.1429-0.0679-0.141-0.0643c0.002,0.0038-0.0041,0-0.0007,0
				C8.3699,6.2786,8.4824,6.3556,8.485,6.356c-0.0332,0.0269-0.0023,0.059,0.0217,0.0839c0.0183,0.0002,0.0362-0.0513,0.0362-0.0513
				c0.0193,0.0085,0.0604,0.056,0.0833,0.0224C8.6549,6.3688,8.5917,6.3468,8.5647,6.3478z"/>
			<path fill="#DEEBF8" d="M7.7533,8.7772C7.8014,8.7573,7.8471,8.6454,7.897,8.6285c0.0041-0.0955,0.1367-0.0633,0.1898-0.077
				c0.059-0.0149,0.0936-0.0444,0.1057-0.0943c0.0092-0.0375,0.014-0.0665,0.0564-0.0808c0.0284-0.0272,0.0845-0.072,0.0827-0.1148
				c-0.0012-0.027,0.0046-0.0659-0.0369-0.0618C8.2572,8.2036,8.2493,8.1704,8.2178,8.1663
				C8.1776,8.1611,8.1369,8.1709,8.0979,8.1686c-0.0325-0.0173-0.044-0.0223-0.0769-0.0334
				C7.9979,8.1277,7.9564,8.0628,7.9413,8.0479C7.9195,8.0263,7.8946,8.0418,7.8677,8.042
				C7.8439,8.0217,7.9059,7.9872,7.8854,7.9593C7.8542,7.9527,7.8297,7.9198,7.8041,7.8926
				c-0.0037-0.0039-0.0475-0.0377-0.053-0.0387c-0.0485-0.009-0.0926,0.0138-0.1287-0.0256
				C7.6175,7.823,7.5617,7.7742,7.5617,7.7742c0.0007-0.0056,0.0308-0.0143,0.0027-0.0215C7.5522,7.7372,7.546,7.7261,7.5261,7.7257
				C7.4922,7.711,7.5062,7.6811,7.4662,7.6972C7.461,7.6954,7.4248,7.7071,7.4192,7.7076c-0.0175-0.0079-0.018-0.0311-0.0414-0.0283
				C7.3398,7.6841,7.3202,7.6389,7.2791,7.64c-0.0028,0.0283-0.0259,0.053-0.0518,0.0524C7.1899,7.6917,7.1933,7.626,7.1431,7.6509
				C7.1196,7.6625,7.1396,7.6894,7.0992,7.6897c-0.0229,0.0002-0.0217,0.01-0.0217,0.0181C7.0456,7.6981,7.0097,7.639,6.9849,7.6054
				C6.9738,7.5652,6.8904,7.5561,6.9045,7.51c0.0103-0.0336,0.023-0.1069,0.0004-0.1404C6.8957,7.3558,6.8815,7.3233,6.8656,7.3155
				C6.8519,7.3087,6.877,7.3054,6.8699,7.2871C6.8877,7.2703,6.92,7.1851,6.9161,7.1597C6.8601,7.119,6.8456,7.1893,6.805,7.1923
				C6.7389,7.197,6.7447,7.1578,6.7364,7.1161C6.728,7.0755,6.7338,7.0415,6.7453,6.9956c0.0111-0.0442,0.0751-0.0624,0.0785-0.1173
				c0.019-0.0079,0.0579-0.0272,0.0793-0.0194c0.0238,0.0086,0.0498,0.0333,0.0725,0.0401C6.9893,6.903,7.0311,6.9032,7.0467,6.9037
				c0.0161,0.0116,0.0111,0.0283,0.035,0.0308c0.022,0.0023-0.0021,0.0374-0.004,0.06C7.0761,7.014,7.0447,7.1141,7.092,7.1118
				c0.0321-0.0015,0.0547-0.112,0.0582-0.1357C7.156,6.9366,7.1976,6.9146,7.2316,6.8993c0.028-0.0126,0.1017-0.0237,0.1106-0.0557
				C7.354,6.8259,7.3568,6.8163,7.3646,6.7941c0.0045-0.0128,0.0392-0.0152,0.0501-0.0224C7.4474,6.7499,7.4948,6.71,7.5362,6.7218
				C7.5636,6.7295,7.5996,6.673,7.6346,6.6693c0.0275-0.0029,0.0659-0.0159,0.0925-0.0154
				C7.7215,6.6797,7.6842,6.6749,7.6844,6.7058C7.7158,6.7243,7.836,6.6776,7.7793,6.6674C7.7164,6.6561,7.7534,6.5652,7.7432,6.563
				C7.6917,6.5524,7.7425,6.5278,7.7758,6.5344c0.0213,0.0042,0.0684,0.0308,0.0853,0.0188C7.9415,6.4966,7.8921,6.6042,7.8908,6.62
				c-0.0004,0.0054,0.0647,0.031,0.0691,0.0265C7.971,6.635,7.9998,6.6451,7.9892,6.6163c-0.0137-0.0131-0.024-0.001-0.036-0.0204
				C7.9388,6.5727,7.9661,6.5462,7.9705,6.5221C7.9739,6.5038,7.972,6.4961,7.9532,6.492C7.9467,6.4774,7.9618,6.4597,7.9533,6.4455
				C7.9348,6.4144,7.9219,6.4034,7.9154,6.3652c-0.0125-0.074-0.064-0.0174-0.106-0.0522c0.0265-0.0299-0.0007-0.0597-0.0221-0.0704
				c-0.0235-0.0117-0.0577-0.036-0.068,0.0086C7.6873,6.2665,7.6745,6.2634,7.6675,6.3012C7.6585,6.3493,7.6632,6.3266,7.6352,6.344
				c-0.04,0.0249-0.0563-0.0055-0.07,0.0519C7.5308,6.4077,7.4798,6.4111,7.532,6.3581c0.0541-0.0551-0.1149-0.104-0.0232-0.1693
				c0.0324-0.0229,0.079-0.0182,0.1051-0.038c0.0196-0.0013,0.0182-0.0064,0.0457-0.0064c0.0146,0.0171,0.0442,0.0234,0.0663,0.0204
				C7.7533,6.1612,7.7845,6.1344,7.8113,6.171c0.0255,0.0349,0.0234,0.0503,0.0671,0.0516
				c0.0653-0.0346,0.1182-0.0224,0.1385-0.1067c0.0168-0.0698-0.1078-0.0634-0.1509-0.0837
				C7.8195,6.0106,7.9347,6.0106,7.9363,6.0089L7.9259,6.0019C7.7772,6.0091,7.6343,6.0382,7.5,6.0857
				C7.4586,6.1022,7.4171,6.1212,7.3759,6.1443C7.336,6.1612,7.2946,6.1796,7.2533,6.1993c-0.2757,0.1586-0.496,0.4021-0.6255,0.695
				c0.0007,0.0312,0.0095,0.059-0.0025,0.0877C6.6111,7.0163,6.629,7.1002,6.6356,7.1293C6.6432,7.1627,6.6514,7.2068,6.6697,7.237
				c0.0107,0.0178,0.0404-0.0084,0.0564-0.0011c0.0253,0.0116,0.0357,0.0494,0.0421,0.0692
				c0.0085,0.0267,0.0207,0.0378,0.0257,0.0623c0.0112,0.0119,0.0486,0.0024,0.0526,0.022
				C6.8447,7.4117,6.8423,7.4157,6.8511,7.4367c0.0117,0.0288-0.0075,0.0766,0.0152,0.1396
				c0.0205,0.0567,0.0492,0.0762,0.0896,0.0966c0.022,0.0111,0.0295,0.0373,0.0481,0.0825C7.0131,7.7776,7.0389,7.7506,7.04,7.786
				c0.0006,0.0214,0.0054,0.0476-0.0002,0.0687C7.03,7.8921,6.9543,7.9135,6.9578,7.9589c-0.0027,0.018,0.0217,0.0225,0.0243,0.038
				c0.0018,0.0108-0.0016,0.0284-0.0008,0.0398c0.002,0.0265,0.0374,0.0464,0.0535,0.0659c0.0189,0.023,0.0267,0.058,0.0448,0.0809
				c0.0295,0.0373,0.0561,0.072,0.0676,0.117c0.003,0.0118,0.1262,0.0918,0.1294,0.0914C7.3375,8.4586,7.3281,8.6763,7.3262,8.774
				C7.3256,8.8032,7.3287,8.826,7.3347,8.8444c0.0875,0.0434,0.1799,0.0785,0.276,0.1043c0.0127-0.0115,0.027-0.0228,0.0319-0.0274
				C7.6816,8.8844,7.707,8.7965,7.7533,8.7772z M7.3536,6.4829c-0.018-0.0706,0.0827-0.0943,0.1055-0.0325
				C7.4765,6.4966,7.5045,6.5221,7.5037,6.577C7.5034,6.6002,7.4725,6.6109,7.4612,6.6293C7.3847,6.6207,7.4214,6.616,7.4063,6.5651
				c0.0036,0.0141-0.012-0.006-0.0032-0.0034C7.3793,6.5533,7.3478,6.5906,7.334,6.5487C7.3243,6.518,7.3604,6.5093,7.3536,6.4829z"
				/>
		</g>
	</g>
</g>
</svg>
