<svg id="1ea4c861-aeba-4694-84e6-172b80f23d64" data-name="ICONS" xmlns="http://www.w3.org/2000/svg" viewBox="0 0 16 16"><title>FileTypeIcons_Master_All_NEW</title><polygon points="13 15 3 15 3 1 11 1 13 3 13 15" fill="#fff"/><rect x="4" y="11" width="8" height="1" fill="#c8c8c8"/><rect x="4" y="13" width="8" height="1" fill="#c8c8c8"/><path d="M11,0H2V16H14V3Zm0,1.5L12.5,3H11ZM13,15H3V1h7V4h3Z" fill="#949494"/><polygon points="5 9 6 9 5 7.5 6 6 5 6 4 7.5 5 9" fill="#949494"/><polygon points="11 9 10 9 11 7.5 10 6 11 6 12 7.5 11 9" fill="#949494"/><circle cx="8" cy="7.5" r="1.5" fill="#6caedf"/><polygon points="8.761 6.208 8.752 6.202 8.751 6.205 8.761 6.208" fill="#deebf8"/><path d="M7.21622,7.39282c-.0189-.00447.00575.08006.02073.0885.03988-.0041-.00771-.034.05615-.0003a.07614.07614,0,0,0,.0545.01669c-.00147.00276.00079.00391.01216-.00183L7.36,7.49508C7.37175,7.43728,7.26117,7.40285,7.21622,7.39282Z" fill="#deebf8"/><path d="M7.16735,7.32469c-.01015-.04263-.071-.15774-.12623-.13358-.01321.0751.058.13425.06581.16073C7.12552,7.41594,7.20974,7.33624,7.16735,7.32469Z" fill="#deebf8"/><path d="M9.1974,6.59667l-.012-.00873c-.00311.04465.00349.11688-.04813.112-.021-.002-.03541.016-.05419-.00146-.01333-.01229-.0148-.02777-.0329-.033-.024-.0715-.07915-.0066-.08856.04325.01559.05553-.06153.06115-.06184.10318-.00024.026-.016.04237-.01786.07008-.002.02893.04282.07247.035.08489l-.02741.14111a.41958.41958,0,0,0,.00674.17339c.01817.04158.07131.08575.06049.14067-.00839.04379.00745.11119.058.11339a.54609.54609,0,0,0,.07731.058c.00226.01976.03132.04349.04692.04955.04164.01143.05229.02763.07914-.01762.01792-.03022.08868-.0496.08293-.06844a.1127.1127,0,0,1,.11229-.10624c.0356-.00471.03315.07921.03573.098a.25709.25709,0,0,0,.04691.056c.0024-.03465.004-.0695.004-.10476A1.49317,1.49317,0,0,0,9.1974,6.59667Z" fill="#deebf8"/><path d="M8.3973,6.06422a.24358.24358,0,0,0-.12091-.0055c-.06233.01443.09186.09705.11333.11418.01853.01462.02293.0315.04294.04758.02189-.00385.03113.00808.04954.01462.02526.00893.05216-.01.08164.00049.024.00875.01909.03064.02423.05235.04269-.00715-.0005-.06746-.01254-.08336C8.557,6.18,8.51051,6.18324,8.488,6.153c.02984-.00446.05743-.04012.06483.01291.02507.01773.04318.01847.06648.04159.01278.01266.024-.00367.03192.00471.00545.01914.01646.05125-.00006.07021-.02256.02581-.00042.06979.0019.09921-.00489.02507.02862.06562.00612.08733-.01658.016.03492.02752.04623.03211.01914.0077.0671.04893.06459.07119-.00092.00851-.05187.03395-.06214.03443-.025.00105.02447.06434.0277.07462.01248.02306.04257.04092.05266.06239.02447.05211.02074-.00361.04557.01664.02171.01785.049-.00729.06348-.02184a.15938.15938,0,0,0,.00019-.07169c-.00624-.0173-.023-.016-.03388-.02177a.41547.41547,0,0,1-.007-.06238c-.00655-.03371-.02251-.0556.00256-.09113.013-.01853.0918.03021.10636.04367.01566.0145.03664-.04862-.01805-.0526-.02-.01523-.06195-.02508-.06977-.04789.02066-.03957.10586.07822.14073.05621.0044-.02086-.03291-.033-.03542-.05848a.15313.15313,0,0,0-.00868-.04115c-.00611-.01153-.01637-.03547-.02661-.0538a1.50365,1.50365,0,0,0-.18637-.1298L8.7513,6.20544l.00055-.0032a1.49445,1.49445,0,0,0-.16247-.08187c-.01782-.00336-.03377-.00654-.04554-.01C8.50923,6.10043,8.433,6.05039,8.3973,6.06422Z" fill="#deebf8"/><path d="M8.5647,6.34776l-.141-.06428H8.42306c-.05315-.00489.05938.07211.062.07247-.03321.02685-.00232.059.02165.08392.01829.00024.03621-.05132.03621-.05132.01932.00851.06042.056.0833.02239C8.65485,6.3688,8.59173,6.34684,8.5647,6.34776Z" fill="#deebf8"/><path d="M7.75327,8.77721c.04814-.01988.09382-.13181.14374-.14869.00409-.09547.13669-.0633.18978-.077a.127.127,0,0,0,.10568-.09431c.00918-.03749.014-.06654.0564-.0808.02844-.02715.08446-.072.08268-.11479-.00122-.027.00459-.06588-.03693-.06178-.03738.00379-.04533-.02941-.07683-.03358-.04024-.0052-.08085.00459-.11993.00233a.39659.39659,0,0,0-.077-.03339c-.02305-.00753-.06452-.07242-.07956-.08729-.0219-.02164-.04673-.00611-.07364-.00593-.0238-.02024.03816-.05473.01768-.08269-.0312-.00654-.05572-.0395-.08129-.06672a.41764.41764,0,0,0-.053-.03872c-.04849-.009-.09259.01376-.12874-.02557-.00483-.00525-.06067-.05412-.06067-.05412.00067-.00557.03077-.01425.00268-.02153-.01211-.01547-.01834-.02654-.03821-.02691-.03389-.01474-.01989-.04459-.05994-.02856a.3664.3664,0,0,0-.047.01046c-.01749-.0079-.018-.03107-.0414-.02826-.03805.00471-.05762-.04043-.09872-.03939a.05614.05614,0,0,1-.0518.05242c-.03743-.00073-.03394-.06637-.08416-.04153-.02355.01162-.00355.03854-.04391.03883-.02287.00019-.02172.01-.02172.01811-.03185-.00966-.06782-.06881-.09265-.10245-.011-.04018-.09443-.04929-.08031-.09534A.2061.2061,0,0,0,6.905,7.36964c-.0093-.01388-.02343-.0463-.03932-.05413-.01371-.00685.01137-.01015.00428-.02844a.26722.26722,0,0,0,.04617-.12739c-.056-.04068-.07046.0296-.11107.0326-.06611.00476-.06036-.0345-.06868-.07615a.25353.25353,0,0,1,.009-.12049c.01107-.04422.07511-.06244.07853-.11731.019-.00789.05792-.02721.07926-.01945.0238.00863.04979.03333.07248.04006a.44739.44739,0,0,0,.07113.00472c.01609.01162.01113.02825.035.03076.022.00232-.00213.03743-.004.06-.00165.01963-.03309.11969.01425.11737.03211-.00154.05474-.112.05823-.13572.00581-.03951.04733-.06147.0814-.07676.02795-.0126.10172-.02367.11058-.05572a.1812.1812,0,0,0,.02239-.04948c.00446-.01284.0392-.01523.05008-.02244.03273-.02177.08013-.06172.12148-.04991.02739.00777.06348-.04874.09846-.05248a.89406.89406,0,0,1,.09254-.01535c-.00562.02581-.04293.02092-.04275.05187.03143.01853.15161-.0282.09492-.03835-.06294-.01131-.02593-.10226-.03609-.1044-.05156-.01065-.00073-.03529.03254-.02862.02129.00421.06839.03082.08532.01883.08037-.05663.031.051.02966.06679a.16856.16856,0,0,0,.06906.02649c.01119-.01156.03994-.00148.02935-.03028-.0137-.0131-.024-.001-.036-.02037-.01437-.02318.01291-.04972.01737-.07376.00343-.01829.00153-.026-.01731-.03009-.00654-.01468.00863-.03236.00012-.04654a.1914.1914,0,0,1-.03791-.08031c-.01255-.074-.064-.01737-.106-.05217.02647-.02991-.00068-.05969-.02215-.0704-.02348-.01168-.05768-.036-.068.00862-.03192.01529-.04476.01218-.05181.04992-.00893.04813-.00422.02544-.03222.04287-.04.02489-.05627-.0055-.07.05192-.03444.01175-.08538.01517-.03322-.03786.05407-.0551-.11492-.104-.02317-.16929.03235-.02293.07895-.01822.10507-.038a.29566.29566,0,0,1,.04575-.00642.079.079,0,0,0,.0663.02042c.02733-.0036.05852-.03033.08537.00625.02546.03485.02338.05033.0671.05161.06532-.03455.11817-.02239.13847-.10672.01676-.06985-.10783-.06343-.15094-.08367-.04643-.02165.06874-.02159.07039-.0233l-.01044-.00706A1.49387,1.49387,0,0,0,7.5,6.08568a1.05108,1.05108,0,0,0-.12417.05859c-.03988.01693-.08127.03536-.12258.055a1.50539,1.50539,0,0,0-.62553.695.20338.20338,0,0,1-.00252.08774.34812.34812,0,0,0,.0104.14728.38234.38234,0,0,0,.03406.10765c.0107.01779.04043-.00845.0564-.00111.02531.01162.03572.04936.04208.06924a.63245.63245,0,0,1,.02568.06232c.01119.01192.04856.00244.0526.022a.07293.07293,0,0,0,.00465.04727c.01174.02881-.00753.07657.01517.13958a.15375.15375,0,0,0,.0896.09657c.022.01106.02948.03731.04813.08251.00911.02232.03492-.00471.036.0307a.25513.25513,0,0,1-.00018.06868c-.00979.03737-.0855.05877-.082.10416-.00275.018.02172.02245.02435.038.00177.01082-.0016.02838-.0008.03982.002.02654.03737.04636.05346.06592.01889.023.02666.058.04477.08093a.31707.31707,0,0,1,.06764.117.82977.82977,0,0,0,.12935.09137c.06092.06667.05156.2844.04961.38208a.21494.21494,0,0,0,.00847.07036,1.48887,1.48887,0,0,0,.276.10429l.03186-.02744C7.6816,8.88436,7.707,8.79647,7.75327,8.77721ZM7.35364,6.48293a.0553.0553,0,0,1,.10551-.03248c.01737.04618.04532.07162.04459.12654-.00037.02324-.03125.03395-.04257.05236-.07645-.00869-.03975-.0134-.05486-.06429.00361.01407-.01205-.006-.00324-.00336-.02379-.00844-.05523.02893-.069-.013C7.32429,6.518,7.36038,6.50928,7.35364,6.48293Z" fill="#deebf8"/></svg>