<svg id="d2c628dc-d479-4c8d-bdad-034fc49e0915" data-name="ICONS" xmlns="http://www.w3.org/2000/svg" viewBox="0 0 16 16"><title>FileTypeIcons_Master_All_NEW</title><polygon points="14 15 4 15 4 1 12 1 14 3 14 15" fill="#fff"/><path d="M12,0H3V16H15V3Zm0,1.5L13.5,3H12ZM14,15H4V1h7V4h3Z" fill="#949494"/><rect x="5" y="2" width="3" height="1" fill="#c8c8c8"/><polygon points="1 5 8 4 8 14 1 13 1 5" fill="#6a3889"/><polygon points="12 5 8 5 8 6 12 6 12 7 8 7 8 8 12 8 13 8 13 7 13 6 13 5 12 5" fill="#c8c8c8"/><polygon points="12 9 8 9 8 10 12 10 12 11 8 11 8 12 12 12 13 12 13 11 13 10 13 9 12 9" fill="#c8c8c8"/><rect x="4" y="7" width="1" height="4" fill="#fff"/></svg>