<svg id="63c3b496-4c1a-4897-afb2-c90e6c4bfeeb" data-name="ICONS" xmlns="http://www.w3.org/2000/svg" xmlns:xlink="http://www.w3.org/1999/xlink" viewBox="0 0 32 32"><defs><linearGradient id="e3fd4291-fb09-4f9d-8cf3-177b536c1856" x1="5.0842" y1="3.60755" x2="27.96138" y2="30.87151" gradientUnits="userSpaceOnUse"><stop offset="0" stop-color="#fff" stop-opacity="0"/><stop offset="0.86247" stop-color="#5e5e5e" stop-opacity="0.06315"/><stop offset="1" stop-opacity="0.1"/></linearGradient><linearGradient id="21292e07-407d-4f31-b4e5-b1ac2e8d12a2" x1="22.14788" y1="9.10212" x2="26.11437" y2="5.13563" gradientUnits="userSpaceOnUse"><stop offset="0" stop-color="#fff" stop-opacity="0"/><stop offset="0.44604" stop-color="#fff" stop-opacity="0.00799"/><stop offset="0.63551" stop-color="#fff" stop-opacity="0.03616"/><stop offset="0.77636" stop-color="#fff" stop-opacity="0.08493"/><stop offset="0.8924" stop-color="#fff" stop-opacity="0.15385"/><stop offset="0.99328" stop-color="#fff" stop-opacity="0.24291"/><stop offset="1" stop-color="#fff" stop-opacity="0.25"/></linearGradient><linearGradient id="1211e28a-cfe0-482d-8349-b001f927934a" x1="9.5" y1="26.4375" x2="9.5" y2="9.52504" gradientUnits="userSpaceOnUse"><stop offset="0" stop-color="#fff" stop-opacity="0"/><stop offset="0.52587" stop-color="#fff" stop-opacity="0.00735"/><stop offset="0.71529" stop-color="#fff" stop-opacity="0.03396"/><stop offset="0.8503" stop-color="#fff" stop-opacity="0.0803"/><stop offset="0.95875" stop-color="#fff" stop-opacity="0.14595"/><stop offset="1" stop-color="#fff" stop-opacity="0.18"/></linearGradient><linearGradient id="e91404d0-9931-4267-bc23-c4b76808b04e" x1="11.28178" y1="29.35196" x2="11.61734" y2="26.21204" gradientUnits="userSpaceOnUse"><stop offset="0" stop-color="#828282" stop-opacity="0"/><stop offset="0.86247" stop-color="#303030" stop-opacity="0.12631"/><stop offset="1" stop-opacity="0.2"/></linearGradient><linearGradient id="508c2754-a1bd-41a0-97c8-27f99ceb88d9" x1="25" y1="10.9375" x2="25" y2="9.05834" gradientUnits="userSpaceOnUse"><stop offset="0" stop-color="#828282" stop-opacity="0"/><stop offset="0.86247" stop-color="#303030" stop-opacity="0.06315"/><stop offset="1" stop-opacity="0.1"/></linearGradient></defs><title>FileTypeIcons_Master_All_NEW</title><polygon points="28 29 8 29 8 3 23 3 28 8 28 29" fill="#fff"/><path d="M23,2H7V30H29V8Zm0,1.5L27.5,8H23ZM28,29H8V3H22V9h6Z" fill="#949494"/><path d="M25,17v8H16V17h9m1-1H15V26H26V16Z" fill="#c8c8c8"/><path d="M21,12v4H13V12h8m1-1H12v6H22V11Z" fill="#c8c8c8"/><polygon points="3 11 16 9 16 27 3 25 3 11" fill="#a4373a"/><path d="M14,22H11.76113l-.64876-1.77964H7.86855L7.22615,22H5l3.32014-8h2.436Zm-3.3583-3.16318-.97951-2.689a3.12368,3.12368,0,0,1-.15265-.71967H9.45866a2.72532,2.72532,0,0,1-.159.69735l-.99223,2.7113Z" fill="#fff"/><rect x="16" y="16" width="10" height="2" fill="#f7a8ab"/><rect x="16" y="11" width="6" height="2" fill="#f7a8ab"/><rect x="17" y="21" width="2" height="1" fill="#f7a8ab"/><rect x="20" y="21" width="4" height="1" fill="#c8c8c8"/><rect x="17" y="19" width="2" height="1" fill="#f7a8ab"/><rect x="20" y="19" width="4" height="1" fill="#c8c8c8"/><rect x="17" y="14" width="3" height="1" fill="#c8c8c8"/><rect x="17" y="23" width="2" height="1" fill="#f7a8ab"/><rect x="20" y="23" width="4" height="1" fill="#c8c8c8"/><path d="M29,8,23,2H7V30H29Z" fill="url(#e3fd4291-fb09-4f9d-8cf3-177b536c1856)"/><polygon points="7 2 7 3 22 3 22 9 28 9 28 24.5 29 24.5 29 8 23 2 7 2" fill="url(#21292e07-407d-4f31-b4e5-b1ac2e8d12a2)"/><polygon points="16 9 3 11 3 25 16 27 16 9" fill="url(#1211e28a-cfe0-482d-8349-b001f927934a)"/><polygon points="16 29 7 29 7 25.62 16 27 16 29" fill="url(#e91404d0-9931-4267-bc23-c4b76808b04e)"/><rect x="22" y="9" width="6" height="2" fill="url(#508c2754-a1bd-41a0-97c8-27f99ceb88d9)"/></svg>