<?xml version="1.0" encoding="utf-8"?>
<!-- Generator: Adobe Illustrator 21.1.0, SVG Export Plug-In . SVG Version: 6.00 Build 0)  -->
<svg version="1.1" xmlns="http://www.w3.org/2000/svg" xmlns:xlink="http://www.w3.org/1999/xlink" x="0px" y="0px"
	 viewBox="0 0 32 32" enable-background="new 0 0 32 32" xml:space="preserve">
<g id="TEMPLATE" display="none">
	<g display="inline">
		<path fill="#D0D0D0" d="M32,0v32H0V0H32 M33-1h-1H0h-1v1v32v1h1h32h1v-1V0V-1L33-1z"/>
	</g>
	<g display="inline" opacity="0.1">
		<path fill="#FF3A6D" d="M30,2v28H2V2H30 M32,0H0v32h32V0L32,0z"/>
	</g>
</g>
<g id="ICONS">
	<polygon fill="#A6A6A6" points="2,26 2,9 16,9 19,6 30,6 30,26 	"/>
	<polygon fill="#828282" points="19,6 16,9 19,12 30,12 30,6 	"/>
	<linearGradient id="SVGID_1_" gradientUnits="userSpaceOnUse" x1="6.7687" y1="4.9986" x2="26.7085" y2="28.7619">
		<stop  offset="0" style="stop-color:#000000;stop-opacity:0"/>
		<stop  offset="0.8625" style="stop-color:#000000;stop-opacity:0.1725"/>
		<stop  offset="1" style="stop-color:#000000;stop-opacity:0.2"/>
	</linearGradient>
	<polygon fill="url(#SVGID_1_)" points="2,26 2,9 16,9 19,6 30,6 30,26 	"/>
	<linearGradient id="SVGID_2_" gradientUnits="userSpaceOnUse" x1="23.4439" y1="5.4264" x2="22.8394" y2="12.3359">
		<stop  offset="0" style="stop-color:#828282;stop-opacity:0"/>
		<stop  offset="0.4267" style="stop-color:#808080;stop-opacity:0.1067"/>
		<stop  offset="0.5804" style="stop-color:#797979;stop-opacity:0.1451"/>
		<stop  offset="0.6899" style="stop-color:#6E6E6E;stop-opacity:0.1725"/>
		<stop  offset="0.7785" style="stop-color:#5D5D5D;stop-opacity:0.1946"/>
		<stop  offset="0.8543" style="stop-color:#474747;stop-opacity:0.2136"/>
		<stop  offset="0.9215" style="stop-color:#2B2B2B;stop-opacity:0.2304"/>
		<stop  offset="0.9808" style="stop-color:#0C0C0C;stop-opacity:0.2452"/>
		<stop  offset="1" style="stop-color:#000000;stop-opacity:0.25"/>
	</linearGradient>
	<polygon fill="url(#SVGID_2_)" points="19,6 16,9 19,12 30,12 30,6 	"/>
	<polygon opacity="0.15" fill="#FFFFFF" points="30,12 30,12.5 18.7708,12.5 15.25,9 16,9 19.0208,12 	"/>
	<rect x="5" y="9" fill="#EAEAEA" width="3" height="2"/>
	<rect x="5" y="20" fill="#EAEAEA" width="3" height="6"/>
	<path fill="#EAEAEA" d="M7,12H6H4v7h5v-7H7z M8,18H5v-5h1v2h1v-2h1V18z"/>
	<linearGradient id="SVGID_3_" gradientUnits="userSpaceOnUse" x1="6.5" y1="11.9066" x2="6.5" y2="11.1471">
		<stop  offset="0" style="stop-color:#828282;stop-opacity:0"/>
		<stop  offset="0.1699" style="stop-color:#7E7E7E;stop-opacity:0.0119"/>
		<stop  offset="0.346" style="stop-color:#717171;stop-opacity:0.0243"/>
		<stop  offset="0.5248" style="stop-color:#5D5D5D;stop-opacity:0.0368"/>
		<stop  offset="0.7057" style="stop-color:#404040;stop-opacity:0.0495"/>
		<stop  offset="0.8863" style="stop-color:#1B1B1B;stop-opacity:0.0622"/>
		<stop  offset="0.9972" style="stop-color:#000000;stop-opacity:0.07"/>
	</linearGradient>
	<rect x="5" y="11" fill="url(#SVGID_3_)" width="3" height="1"/>
	<linearGradient id="SVGID_4_" gradientUnits="userSpaceOnUse" x1="6.5" y1="19.9066" x2="6.5" y2="19.1471">
		<stop  offset="0" style="stop-color:#828282;stop-opacity:0"/>
		<stop  offset="0.1699" style="stop-color:#7E7E7E;stop-opacity:0.0119"/>
		<stop  offset="0.346" style="stop-color:#717171;stop-opacity:0.0243"/>
		<stop  offset="0.5248" style="stop-color:#5D5D5D;stop-opacity:0.0368"/>
		<stop  offset="0.7057" style="stop-color:#404040;stop-opacity:0.0495"/>
		<stop  offset="0.8863" style="stop-color:#1B1B1B;stop-opacity:0.0622"/>
		<stop  offset="0.9972" style="stop-color:#000000;stop-opacity:0.07"/>
	</linearGradient>
	<rect x="4" y="19" fill="url(#SVGID_4_)" width="5" height="1"/>
	<linearGradient id="SVGID_5_" gradientUnits="userSpaceOnUse" x1="5.5" y1="13.9066" x2="5.5" y2="13.1471">
		<stop  offset="0" style="stop-color:#828282;stop-opacity:0"/>
		<stop  offset="0.1699" style="stop-color:#7E7E7E;stop-opacity:0.0119"/>
		<stop  offset="0.346" style="stop-color:#717171;stop-opacity:0.0243"/>
		<stop  offset="0.5248" style="stop-color:#5D5D5D;stop-opacity:0.0368"/>
		<stop  offset="0.7057" style="stop-color:#404040;stop-opacity:0.0495"/>
		<stop  offset="0.8863" style="stop-color:#1B1B1B;stop-opacity:0.0622"/>
		<stop  offset="0.9972" style="stop-color:#000000;stop-opacity:0.07"/>
	</linearGradient>
	<rect x="5" y="13" fill="url(#SVGID_5_)" width="1" height="1"/>
	<linearGradient id="SVGID_6_" gradientUnits="userSpaceOnUse" x1="7.5" y1="13.9066" x2="7.5" y2="13.1471">
		<stop  offset="0" style="stop-color:#828282;stop-opacity:0"/>
		<stop  offset="0.1699" style="stop-color:#7E7E7E;stop-opacity:0.0119"/>
		<stop  offset="0.346" style="stop-color:#717171;stop-opacity:0.0243"/>
		<stop  offset="0.5248" style="stop-color:#5D5D5D;stop-opacity:0.0368"/>
		<stop  offset="0.7057" style="stop-color:#404040;stop-opacity:0.0495"/>
		<stop  offset="0.8863" style="stop-color:#1B1B1B;stop-opacity:0.0622"/>
		<stop  offset="0.9972" style="stop-color:#000000;stop-opacity:0.07"/>
	</linearGradient>
	<rect x="7" y="13" fill="url(#SVGID_6_)" width="1" height="1"/>
	<linearGradient id="SVGID_7_" gradientUnits="userSpaceOnUse" x1="6.5" y1="15.9066" x2="6.5" y2="15.1471">
		<stop  offset="0" style="stop-color:#828282;stop-opacity:0"/>
		<stop  offset="0.1699" style="stop-color:#7E7E7E;stop-opacity:0.0119"/>
		<stop  offset="0.346" style="stop-color:#717171;stop-opacity:0.0243"/>
		<stop  offset="0.5248" style="stop-color:#5D5D5D;stop-opacity:0.0368"/>
		<stop  offset="0.7057" style="stop-color:#404040;stop-opacity:0.0495"/>
		<stop  offset="0.8863" style="stop-color:#1B1B1B;stop-opacity:0.0622"/>
		<stop  offset="0.9972" style="stop-color:#000000;stop-opacity:0.07"/>
	</linearGradient>
	<rect x="6" y="15" fill="url(#SVGID_7_)" width="1" height="1"/>
	<linearGradient id="SVGID_8_" gradientUnits="userSpaceOnUse" x1="6.5" y1="9.9066" x2="6.5" y2="9.1471">
		<stop  offset="0" style="stop-color:#FFFFFF;stop-opacity:0"/>
		<stop  offset="1" style="stop-color:#FFFFFF;stop-opacity:0.35"/>
	</linearGradient>
	<rect x="5" y="9" fill="url(#SVGID_8_)" width="3" height="1"/>
	<linearGradient id="SVGID_9_" gradientUnits="userSpaceOnUse" x1="6.5" y1="12.9066" x2="6.5" y2="12.1471">
		<stop  offset="0" style="stop-color:#FFFFFF;stop-opacity:0"/>
		<stop  offset="1" style="stop-color:#FFFFFF;stop-opacity:0.35"/>
	</linearGradient>
	<rect x="4" y="12" fill="url(#SVGID_9_)" width="5" height="1"/>
	<linearGradient id="SVGID_10_" gradientUnits="userSpaceOnUse" x1="6.5" y1="18.9066" x2="6.5" y2="18.1471">
		<stop  offset="0" style="stop-color:#FFFFFF;stop-opacity:0"/>
		<stop  offset="1" style="stop-color:#FFFFFF;stop-opacity:0.35"/>
	</linearGradient>
	<rect x="5" y="18" fill="url(#SVGID_10_)" width="3" height="1"/>
	<linearGradient id="SVGID_11_" gradientUnits="userSpaceOnUse" x1="6.5" y1="20.9066" x2="6.5" y2="20.1471">
		<stop  offset="0" style="stop-color:#FFFFFF;stop-opacity:0"/>
		<stop  offset="1" style="stop-color:#FFFFFF;stop-opacity:0.35"/>
	</linearGradient>
	<rect x="5" y="20" fill="url(#SVGID_11_)" width="3" height="1"/>
</g>
</svg>
