<svg id="62851d91-c4ab-40eb-86d8-9dea99115f31" data-name="ICONS" xmlns="http://www.w3.org/2000/svg" xmlns:xlink="http://www.w3.org/1999/xlink" viewBox="0 0 32 32"><defs><linearGradient id="a3d9a89a-eebe-4a39-ba56-2eff9d415d9b" x1="6.76871" y1="4.99858" x2="26.7085" y2="28.7619" gradientUnits="userSpaceOnUse"><stop offset="0" stop-opacity="0"/><stop offset="0.86247" stop-opacity="0.12631"/><stop offset="1" stop-opacity="0.2"/></linearGradient><linearGradient id="e6038b39-4776-4fb8-b5a3-e79e34bd731c" x1="23.44388" y1="5.42641" x2="22.83938" y2="12.3359" gradientUnits="userSpaceOnUse"><stop offset="0" stop-color="#828282" stop-opacity="0"/><stop offset="0.85866" stop-color="#454545" stop-opacity="0.1171"/><stop offset="1" stop-opacity="0.25"/></linearGradient><linearGradient id="7d26adc3-3dbc-4336-a514-b539ed9df89c" x1="6.5" y1="11.90662" x2="6.5" y2="11.14706" gradientUnits="userSpaceOnUse"><stop offset="0" stop-color="#828282" stop-opacity="0"/><stop offset="0.99719" stop-opacity="0.07"/></linearGradient><linearGradient id="56291b3d-38fc-4641-83f2-b0eaa6bdbbce" y1="19.90662" y2="19.14706" xlink:href="#7d26adc3-3dbc-4336-a514-b539ed9df89c"/><linearGradient id="d275de84-8f32-4ef0-80c8-f57c28a6939f" x1="5.5" y1="13.90662" x2="5.5" y2="13.14706" xlink:href="#7d26adc3-3dbc-4336-a514-b539ed9df89c"/><linearGradient id="0d851dbd-130e-4432-a3fd-6fa756ebf1ea" x1="7.5" y1="13.90662" x2="7.5" y2="13.14706" xlink:href="#7d26adc3-3dbc-4336-a514-b539ed9df89c"/><linearGradient id="f53771e1-cb90-4c82-92e3-5fdfd036ade8" y1="15.90662" y2="15.14706" xlink:href="#7d26adc3-3dbc-4336-a514-b539ed9df89c"/><linearGradient id="ea391bc4-655b-465d-896e-336f37b4bf80" x1="6.5" y1="9.90662" x2="6.5" y2="9.14706" gradientUnits="userSpaceOnUse"><stop offset="0" stop-color="#fff" stop-opacity="0"/><stop offset="0.20669" stop-color="#fff" stop-opacity="0.01635"/><stop offset="0.4209" stop-color="#fff" stop-opacity="0.06512"/><stop offset="0.63854" stop-color="#fff" stop-opacity="0.14638"/><stop offset="0.85718" stop-color="#fff" stop-opacity="0.25942"/><stop offset="1" stop-color="#fff" stop-opacity="0.35"/></linearGradient><linearGradient id="9ce0f8c6-3d5f-4de2-bd8c-cedd8dac0271" y1="12.90662" y2="12.14706" xlink:href="#ea391bc4-655b-465d-896e-336f37b4bf80"/><linearGradient id="e2d8b9bf-09d6-4e6f-a222-bfb1cf1bac42" y1="18.90662" y2="18.14706" xlink:href="#ea391bc4-655b-465d-896e-336f37b4bf80"/><linearGradient id="209b79f6-21dc-4ec0-902a-e246983244c7" y1="20.90662" y2="20.14706" xlink:href="#ea391bc4-655b-465d-896e-336f37b4bf80"/></defs><title>FileTypeIcons_Master_All_NEW</title><polygon points="2 26 2 9 16 9 19 6 30 6 30 26 2 26" fill="#a6a6a6"/><polygon points="19 6 16 9 19 12 30 12 30 6 19 6" fill="#828282"/><polygon points="2 26 2 9 16 9 19 6 30 6 30 26 2 26" fill="url(#a3d9a89a-eebe-4a39-ba56-2eff9d415d9b)"/><polygon points="19 6 16 9 19 12 30 12 30 6 19 6" fill="url(#e6038b39-4776-4fb8-b5a3-e79e34bd731c)"/><polygon points="30 12 30 12.5 18.771 12.5 15.25 9 16 9 19.021 12 30 12" fill="#fff" opacity="0.15"/><rect x="5" y="9" width="3" height="2" fill="#eaeaea"/><rect x="5" y="20" width="3" height="6" fill="#eaeaea"/><path d="M7,12H4v7H9V12Zm1,6H5V13H6v2H7V13H8Z" fill="#eaeaea"/><rect x="5" y="11" width="3" height="1" fill="url(#7d26adc3-3dbc-4336-a514-b539ed9df89c)"/><rect x="4" y="19" width="5" height="1" fill="url(#56291b3d-38fc-4641-83f2-b0eaa6bdbbce)"/><rect x="5" y="13" width="1" height="1" fill="url(#d275de84-8f32-4ef0-80c8-f57c28a6939f)"/><rect x="7" y="13" width="1" height="1" fill="url(#0d851dbd-130e-4432-a3fd-6fa756ebf1ea)"/><rect x="6" y="15" width="1" height="1" fill="url(#f53771e1-cb90-4c82-92e3-5fdfd036ade8)"/><rect x="5" y="9" width="3" height="1" fill="url(#ea391bc4-655b-465d-896e-336f37b4bf80)"/><rect x="4" y="12" width="5" height="1" fill="url(#9ce0f8c6-3d5f-4de2-bd8c-cedd8dac0271)"/><rect x="5" y="18" width="3" height="1" fill="url(#e2d8b9bf-09d6-4e6f-a222-bfb1cf1bac42)"/><rect x="5" y="20" width="3" height="1" fill="url(#209b79f6-21dc-4ec0-902a-e246983244c7)"/></svg>