<svg id="a7d2f29b-dd79-4645-9156-d0a310aac2a4" data-name="ICONS" xmlns="http://www.w3.org/2000/svg" xmlns:xlink="http://www.w3.org/1999/xlink" viewBox="0 0 32 32"><defs><linearGradient id="5c05dc8c-abe0-45c5-a725-76e4c1c14750" x1="3.0842" y1="3.60755" x2="25.96138" y2="30.87151" gradientUnits="userSpaceOnUse"><stop offset="0" stop-color="#fff" stop-opacity="0"/><stop offset="0.86247" stop-color="#5e5e5e" stop-opacity="0.06315"/><stop offset="1" stop-opacity="0.1"/></linearGradient><linearGradient id="aa1dfe55-8057-4c4e-ab4b-ff7d2a8bb297" x1="20.14788" y1="9.10212" x2="24.11437" y2="5.13563" gradientUnits="userSpaceOnUse"><stop offset="0" stop-color="#fff" stop-opacity="0"/><stop offset="0.44604" stop-color="#fff" stop-opacity="0.00799"/><stop offset="0.63551" stop-color="#fff" stop-opacity="0.03616"/><stop offset="0.77636" stop-color="#fff" stop-opacity="0.08493"/><stop offset="0.8924" stop-color="#fff" stop-opacity="0.15385"/><stop offset="0.99328" stop-color="#fff" stop-opacity="0.24291"/><stop offset="1" stop-color="#fff" stop-opacity="0.25"/></linearGradient><linearGradient id="5bfcc705-dd6e-4bca-85bf-fd4274672d6a" x1="23" y1="10.9375" x2="23" y2="9.05834" gradientUnits="userSpaceOnUse"><stop offset="0" stop-color="#828282" stop-opacity="0"/><stop offset="0.86247" stop-color="#303030" stop-opacity="0.06315"/><stop offset="1" stop-opacity="0.1"/></linearGradient></defs><title>FileTypeIcons_Master_All_NEW</title><polygon points="26 29 6 29 6 3 21 3 26 8 26 29" fill="#fff"/><path d="M21,2H5V30H27V8Zm0,1.5L25.5,8H21ZM26,29H6V3H20V9h6Z" fill="#949494"/><path d="M22.54785,14.08838C21.39551,11.31226,17,10,17,9V8.5a.5.5,0,0,0-1,0V21.60229a5.22834,5.22834,0,0,0-3.46729-.51831c-2.19433.35328-3.76367,1.7212-3.50488,3.05567.2583,1.33447,2.24561,2.12988,4.43946,1.77637C15.585,25.5752,17.12793,24.28882,17,23V13a4.62656,4.62656,0,0,1,3.7251,1.85278c2.60547,3.10547-.47852,5.68506-.47852,5.83521a.17836.17836,0,0,0,.09522.27783.39952.39952,0,0,0,.41064-.05273A5.79344,5.79344,0,0,0,22.54785,14.08838Z" fill="#69afe5"/><path d="M27,8,21,2H5V30H27Z" fill="url(#5c05dc8c-abe0-45c5-a725-76e4c1c14750)"/><polygon points="5 2 5 3 20 3 20 9 26 9 26 24.5 27 24.5 27 8 21 2 5 2" fill="url(#aa1dfe55-8057-4c4e-ab4b-ff7d2a8bb297)"/><rect x="20" y="9" width="6" height="2" fill="url(#5bfcc705-dd6e-4bca-85bf-fd4274672d6a)"/></svg>