<svg id="0870e757-4c03-4dca-8320-1fa362e71da4" data-name="ICONS" xmlns="http://www.w3.org/2000/svg" viewBox="0 0 32 32"><title>FileTypeIcons_Master_All_NEW</title><path d="M12,6V23.70459A6.28764,6.28764,0,0,0,7.5,22C4.4624,22,2,23.791,2,26s2.4624,4,5.5,4S13,28.209,13,26V7L29,3.4V19.70459A6.28764,6.28764,0,0,0,24.5,18c-3.0376,0-5.5,1.791-5.5,4s2.4624,4,5.5,4S30,24.209,30,22V2ZM7.5,29C5.06055,29,3,27.626,3,26s2.06055-3,4.5-3S12,24.374,12,26,9.93945,29,7.5,29Zm17-4c-2.43945,0-4.5-1.374-4.5-3s2.06055-3,4.5-3S29,20.374,29,22,26.93945,25,24.5,25Z" fill="#949494"/></svg>