<svg id="90d49f21-ccab-4065-b028-9fa8489a503d" data-name="ICONS" xmlns="http://www.w3.org/2000/svg" xmlns:xlink="http://www.w3.org/1999/xlink" viewBox="0 0 32 32"><defs><linearGradient id="41b99d35-4a5e-41a7-911c-9e1829356af9" x1="3.0842" y1="3.60755" x2="25.96138" y2="30.87151" gradientUnits="userSpaceOnUse"><stop offset="0" stop-color="#fff" stop-opacity="0"/><stop offset="0.86247" stop-color="#5e5e5e" stop-opacity="0.06315"/><stop offset="1" stop-opacity="0.1"/></linearGradient><linearGradient id="b7d82963-f39e-45d8-9260-4a63e48c0398" x1="20.14788" y1="9.10212" x2="24.11437" y2="5.13563" gradientUnits="userSpaceOnUse"><stop offset="0" stop-color="#fff" stop-opacity="0"/><stop offset="0.44604" stop-color="#fff" stop-opacity="0.00799"/><stop offset="0.63551" stop-color="#fff" stop-opacity="0.03616"/><stop offset="0.77636" stop-color="#fff" stop-opacity="0.08493"/><stop offset="0.8924" stop-color="#fff" stop-opacity="0.15385"/><stop offset="0.99328" stop-color="#fff" stop-opacity="0.24291"/><stop offset="1" stop-color="#fff" stop-opacity="0.25"/></linearGradient><linearGradient id="d9357429-c552-426f-9712-760a1bad7167" x1="23" y1="10.9375" x2="23" y2="9.05834" gradientUnits="userSpaceOnUse"><stop offset="0" stop-color="#828282" stop-opacity="0"/><stop offset="0.86247" stop-color="#303030" stop-opacity="0.06315"/><stop offset="1" stop-opacity="0.1"/></linearGradient></defs><title>FileTypeIcons_Master_All_NEW</title><polygon points="26 29 6 29 6 3 21 3 26 8 26 29" fill="#fff"/><path d="M21,2H5V30H27V8Zm0,1.5L25.5,8H21ZM26,29H6V3H20V9h6Z" fill="#949494"/><rect x="8" y="23" width="16" height="1" fill="#c8c8c8"/><rect x="8" y="25" width="16" height="1" fill="#c8c8c8"/><polygon points="10 19 11 19 9 16 11 13 10 13 8 16 10 19" fill="#949494"/><polygon points="22 19 21 19 23 16 21 13 22 13 24 16 22 19" fill="#949494"/><polygon points="14 21 19 11 18 11 13 21 14 21" fill="#949494"/><path d="M27,8,21,2H5V30H27Z" fill="url(#41b99d35-4a5e-41a7-911c-9e1829356af9)"/><polygon points="5 2 5 3 20 3 20 9 26 9 26 24.5 27 24.5 27 8 21 2 5 2" fill="url(#b7d82963-f39e-45d8-9260-4a63e48c0398)"/><rect x="20" y="9" width="6" height="2" fill="url(#d9357429-c552-426f-9712-760a1bad7167)"/></svg>