<svg id="125416e5-2d5f-4ea4-93a3-242eafad6d1c" data-name="ICONS" xmlns="http://www.w3.org/2000/svg" xmlns:xlink="http://www.w3.org/1999/xlink" viewBox="0 0 32 32"><defs><linearGradient id="7a02b3e0-88a7-411d-a300-9d5973eee21a" x1="5.0842" y1="3.60755" x2="27.96138" y2="30.87151" gradientUnits="userSpaceOnUse"><stop offset="0" stop-color="#fff" stop-opacity="0"/><stop offset="0.86247" stop-color="#5e5e5e" stop-opacity="0.06315"/><stop offset="1" stop-opacity="0.1"/></linearGradient><linearGradient id="20af7070-31bf-486a-92fb-91bf37c9fe64" x1="22.14788" y1="9.10212" x2="26.11437" y2="5.13563" gradientUnits="userSpaceOnUse"><stop offset="0" stop-color="#fff" stop-opacity="0"/><stop offset="0.44604" stop-color="#fff" stop-opacity="0.00799"/><stop offset="0.63551" stop-color="#fff" stop-opacity="0.03616"/><stop offset="0.77636" stop-color="#fff" stop-opacity="0.08493"/><stop offset="0.8924" stop-color="#fff" stop-opacity="0.15385"/><stop offset="0.99328" stop-color="#fff" stop-opacity="0.24291"/><stop offset="1" stop-color="#fff" stop-opacity="0.25"/></linearGradient><linearGradient id="60353a0e-97fe-4752-aba1-7e49803d34ea" x1="9.5" y1="26.4375" x2="9.5" y2="9.52504" gradientUnits="userSpaceOnUse"><stop offset="0" stop-color="#fff" stop-opacity="0"/><stop offset="0.52587" stop-color="#fff" stop-opacity="0.00735"/><stop offset="0.71529" stop-color="#fff" stop-opacity="0.03396"/><stop offset="0.8503" stop-color="#fff" stop-opacity="0.0803"/><stop offset="0.95875" stop-color="#fff" stop-opacity="0.14595"/><stop offset="1" stop-color="#fff" stop-opacity="0.18"/></linearGradient><linearGradient id="aa476174-da6d-46ab-9388-c0375b18d7c2" x1="11.28178" y1="29.35196" x2="11.61734" y2="26.21204" gradientUnits="userSpaceOnUse"><stop offset="0" stop-color="#828282" stop-opacity="0"/><stop offset="0.86247" stop-color="#303030" stop-opacity="0.12631"/><stop offset="1" stop-opacity="0.2"/></linearGradient><linearGradient id="66e996c8-7659-44d2-a698-4204a4476c93" x1="25" y1="10.9375" x2="25" y2="9.05834" gradientUnits="userSpaceOnUse"><stop offset="0" stop-color="#828282" stop-opacity="0"/><stop offset="0.86247" stop-color="#303030" stop-opacity="0.06315"/><stop offset="1" stop-opacity="0.1"/></linearGradient></defs><title>FileTypeIcons_Master_All_NEW</title><polygon points="28 29 8 29 8 3 23 3 28 8 28 29" fill="#fff"/><path d="M23,2H7V30H29V8Zm0,1.5L27.5,8H23ZM28,29H8V3H22V9h6Z" fill="#949494"/><polygon points="3 11 16 9 16 27 3 25 3 11" fill="#217346"/><path d="M13,22H10.98269l-1.301-2.6053a2.38606,2.38606,0,0,1-.15275-.53556H9.5079a4.228,4.228,0,0,1-.17381.55788L8.02784,22H6l2.40707-4L6.20542,14h2.07l1.07975,2.39888a4.30868,4.30868,0,0,1,.22649.675h.02107q.06321-.23432.237-.69735L11.04063,14h1.89616l-2.26486,3.96653Z" fill="#fff"/><path d="M23,25H22V23.85019h0A3.05375,3.05375,0,0,1,19.4178,25a2.55251,2.55251,0,0,1-1.77627-.57994A1.97513,1.97513,0,0,1,17,22.8807q0-2.05458,2.5068-2.39137l2.27688-.30787q0-1.8687-1.56489-1.8687A5.23343,5.23343,0,0,0,18,19.21489V18.01205a4.42456,4.42456,0,0,1,2.45416-.68734q2.54571,0,2.54584,2.735Zm-1-3.88061-2.07128.24344a3.75568,3.75568,0,0,0-1.44235.4048A1.09511,1.09511,0,0,0,18,22.79479a1.05413,1.05413,0,0,0,.44864.87734,1.93106,1.93106,0,0,0,1.195.33982,2.40372,2.40372,0,0,0,1.68972-.61189A2.01495,2.01495,0,0,0,22,21.84969Z" fill="#8bbf8a"/><path d="M26,24l-1.15523,3H24l.84477-3Z" fill="#8bbf8a"/><path d="M29,8,23,2H7V30H29Z" fill="url(#7a02b3e0-88a7-411d-a300-9d5973eee21a)"/><polygon points="7 2 7 3 22 3 22 9 28 9 28 24.5 29 24.5 29 8 23 2 7 2" fill="url(#20af7070-31bf-486a-92fb-91bf37c9fe64)"/><polygon points="16 9 3 11 3 25 16 27 16 9" fill="url(#60353a0e-97fe-4752-aba1-7e49803d34ea)"/><polygon points="16 29 7 29 7 25.62 16 27 16 29" fill="url(#aa476174-da6d-46ab-9388-c0375b18d7c2)"/><rect x="22" y="9" width="6" height="2" fill="url(#66e996c8-7659-44d2-a698-4204a4476c93)"/></svg>