<svg id="c05f6f1b-602b-4759-961b-c1b272ca598d" data-name="ICONS" xmlns="http://www.w3.org/2000/svg" xmlns:xlink="http://www.w3.org/1999/xlink" viewBox="0 0 32 32"><defs><linearGradient id="1eefb1c7-ba85-408b-87eb-78ae3fded9e2" x1="8.73833" y1="15.34587" x2="24.73889" y2="34.4146" gradientUnits="userSpaceOnUse"><stop offset="0" stop-opacity="0"/><stop offset="0.86247" stop-opacity="0.12631"/><stop offset="1" stop-opacity="0.2"/></linearGradient><linearGradient id="4132c838-cb45-49f1-b068-1a14fd47f2a8" x1="4.5" y1="5" x2="4.5" y2="21" gradientUnits="userSpaceOnUse"><stop offset="0" stop-opacity="0"/><stop offset="0.85866" stop-opacity="0.07026"/><stop offset="1" stop-opacity="0.15"/></linearGradient><linearGradient id="f26f780c-8cae-43b7-8e98-44c3ecbdd8bd" x1="27.5" y1="2" x2="27.5" y2="18" xlink:href="#4132c838-cb45-49f1-b068-1a14fd47f2a8"/><linearGradient id="3ff30768-1cac-4983-9e7d-f56b56ae6bf5" x1="8.5" y1="2" x2="8.5" xlink:href="#4132c838-cb45-49f1-b068-1a14fd47f2a8"/></defs><title>FileTypeIcons_Master_All_NEW</title><polygon points="8 2 8 5 4 5 4 21 5 21 5 6 8 6 8 21 9 21 9 3 27 3 27 18 28 18 28 2 8 2" fill="#c8c8c8"/><polygon points="2 30 2 21 16 21 19 18 30 18 30 30 2 30" fill="#a6a6a6"/><polygon points="2 30 2 21 16 21 19 18 30 18 30 30 2 30" fill="url(#1eefb1c7-ba85-408b-87eb-78ae3fded9e2)"/><polygon points="2 21 2 21.5 16.25 21.5 19.75 18 19 18 16 21 2 21" fill="#fff" opacity="0.15"/><rect x="4" y="5" width="1" height="16" fill="url(#4132c838-cb45-49f1-b068-1a14fd47f2a8)"/><rect x="27" y="2" width="1" height="16" fill="url(#f26f780c-8cae-43b7-8e98-44c3ecbdd8bd)"/><rect x="8" y="2" width="1" height="19" fill="url(#3ff30768-1cac-4983-9e7d-f56b56ae6bf5)"/></svg>