<?xml version="1.0" encoding="utf-8"?>
<!-- Generator: Adobe Illustrator 21.1.0, SVG Export Plug-In . SVG Version: 6.00 Build 0)  -->
<svg version="1.1" xmlns="http://www.w3.org/2000/svg" xmlns:xlink="http://www.w3.org/1999/xlink" x="0px" y="0px"
	 viewBox="0 0 32 32" enable-background="new 0 0 32 32" xml:space="preserve">
<g id="TEMPLATE" display="none">
	<g display="inline">
		<path fill="#D0D0D0" d="M32,0v32H0V0H32 M33-1h-1H0h-1v1v32v1h1h32h1v-1V0V-1L33-1z"/>
	</g>
	<g display="inline" opacity="0.1">
		<path fill="#FF3A6D" d="M30,2v28H2V2H30 M32,0H0v32h32V0L32,0z"/>
	</g>
</g>
<g id="ICONS">
	<polygon fill="#C8C8C8" points="8,2 8,5 4,5 4,21 5,21 5,6 8,6 8,21 9,21 9,3 27,3 27,18 28,18 28,2 	"/>
	<polygon fill="#A6A6A6" points="2,30 2,21 16,21 19,18 30,18 30,30 	"/>
	<linearGradient id="SVGID_1_" gradientUnits="userSpaceOnUse" x1="8.7383" y1="15.3459" x2="24.7389" y2="34.4146">
		<stop  offset="0" style="stop-color:#000000;stop-opacity:0"/>
		<stop  offset="0.8625" style="stop-color:#000000;stop-opacity:0.1725"/>
		<stop  offset="1" style="stop-color:#000000;stop-opacity:0.2"/>
	</linearGradient>
	<polygon fill="url(#SVGID_1_)" points="2,30 2,21 16,21 19,18 30,18 30,30 	"/>
	<polygon opacity="0.15" fill="#FFFFFF" points="2,21 2,21.5 16.25,21.5 19.75,18 19,18 16,21 	"/>
	<linearGradient id="SVGID_2_" gradientUnits="userSpaceOnUse" x1="4.5" y1="5" x2="4.5" y2="21">
		<stop  offset="0" style="stop-color:#000000;stop-opacity:0"/>
		<stop  offset="0.8587" style="stop-color:#000000;stop-opacity:0.1288"/>
		<stop  offset="1" style="stop-color:#000000;stop-opacity:0.15"/>
	</linearGradient>
	<rect x="4" y="5" fill="url(#SVGID_2_)" width="1" height="16"/>
	<linearGradient id="SVGID_3_" gradientUnits="userSpaceOnUse" x1="27.5" y1="2" x2="27.5" y2="18">
		<stop  offset="0" style="stop-color:#000000;stop-opacity:0"/>
		<stop  offset="0.8587" style="stop-color:#000000;stop-opacity:0.1288"/>
		<stop  offset="1" style="stop-color:#000000;stop-opacity:0.15"/>
	</linearGradient>
	<rect x="27" y="2" fill="url(#SVGID_3_)" width="1" height="16"/>
	<linearGradient id="SVGID_4_" gradientUnits="userSpaceOnUse" x1="8.5" y1="2" x2="8.5" y2="21">
		<stop  offset="0" style="stop-color:#000000;stop-opacity:0"/>
		<stop  offset="0.8587" style="stop-color:#000000;stop-opacity:0.1288"/>
		<stop  offset="1" style="stop-color:#000000;stop-opacity:0.15"/>
	</linearGradient>
	<rect x="8" y="2" fill="url(#SVGID_4_)" width="1" height="19"/>
</g>
</svg>
