<svg id="94dd6d4e-6249-44af-b19d-aedc1e99927d" data-name="ICONS" xmlns="http://www.w3.org/2000/svg" xmlns:xlink="http://www.w3.org/1999/xlink" viewBox="0 0 32 32"><defs><linearGradient id="df7698a3-1098-4a9c-a91a-1fb5f3dada65" x1="5.0842" y1="3.60755" x2="27.96138" y2="30.87151" gradientUnits="userSpaceOnUse"><stop offset="0" stop-color="#fff" stop-opacity="0"/><stop offset="0.86247" stop-color="#5e5e5e" stop-opacity="0.06315"/><stop offset="1" stop-opacity="0.1"/></linearGradient><linearGradient id="ed84a46f-8017-497a-bc1f-4adf5d927aaa" x1="22.14788" y1="9.10212" x2="26.11437" y2="5.13563" gradientUnits="userSpaceOnUse"><stop offset="0" stop-color="#fff" stop-opacity="0"/><stop offset="0.44604" stop-color="#fff" stop-opacity="0.00799"/><stop offset="0.63551" stop-color="#fff" stop-opacity="0.03616"/><stop offset="0.77636" stop-color="#fff" stop-opacity="0.08493"/><stop offset="0.8924" stop-color="#fff" stop-opacity="0.15385"/><stop offset="0.99328" stop-color="#fff" stop-opacity="0.24291"/><stop offset="1" stop-color="#fff" stop-opacity="0.25"/></linearGradient><linearGradient id="fa80ddb6-91d4-41d9-bfd2-af239b2a551c" x1="9.5" y1="26.4375" x2="9.5" y2="9.52504" gradientUnits="userSpaceOnUse"><stop offset="0" stop-color="#fff" stop-opacity="0"/><stop offset="0.52587" stop-color="#fff" stop-opacity="0.00735"/><stop offset="0.71529" stop-color="#fff" stop-opacity="0.03396"/><stop offset="0.8503" stop-color="#fff" stop-opacity="0.0803"/><stop offset="0.95875" stop-color="#fff" stop-opacity="0.14595"/><stop offset="1" stop-color="#fff" stop-opacity="0.18"/></linearGradient><linearGradient id="f296b703-ba6b-4c28-a1ed-099091ba93eb" x1="11.28178" y1="29.35196" x2="11.61734" y2="26.21204" gradientUnits="userSpaceOnUse"><stop offset="0" stop-color="#828282" stop-opacity="0"/><stop offset="0.86247" stop-color="#303030" stop-opacity="0.12631"/><stop offset="1" stop-opacity="0.2"/></linearGradient><linearGradient id="5f631620-22ba-4f7d-ac07-d5f324968699" x1="25" y1="10.9375" x2="25" y2="9.05834" gradientUnits="userSpaceOnUse"><stop offset="0" stop-color="#828282" stop-opacity="0"/><stop offset="0.86247" stop-color="#303030" stop-opacity="0.06315"/><stop offset="1" stop-opacity="0.1"/></linearGradient></defs><title>FileTypeIcons_Master_All_NEW</title><polygon points="28 29 8 29 8 3 23 3 28 8 28 29" fill="#fff"/><path d="M23,2H7V30H29V8Zm0,1.5L27.5,8H23ZM28,29H8V3H22V9h6Z" fill="#949494"/><rect x="16" y="11" width="10" height="1" fill="#c8c8c8"/><rect x="16" y="13" width="10" height="1" fill="#c8c8c8"/><rect x="16" y="15" width="10" height="1" fill="#c8c8c8"/><rect x="16" y="17" width="10" height="1" fill="#c8c8c8"/><rect x="16" y="19" width="10" height="1" fill="#c8c8c8"/><rect x="16" y="21" width="10" height="1" fill="#c8c8c8"/><rect x="16" y="23" width="10" height="1" fill="#c8c8c8"/><rect x="16" y="25" width="10" height="1" fill="#c8c8c8"/><rect x="10" y="5" width="6" height="1" fill="#c8c8c8"/><polygon points="3 11 16 9 16 27 3 25 3 11" fill="#2b579a"/><path d="M14.31248,15l-1.80407,7H10.80428L9.67136,17.50907a3.83376,3.83376,0,0,1-.10948-.78592h-.019a4.87626,4.87626,0,0,1-.12376.78592L8.2576,22H6.48207L4.68748,15H6.36783l.96155,4.66179a5.71529,5.71529,0,0,1,.09044.80055h.02856a3.9659,3.9659,0,0,1,.138-.82008L8.82406,15h1.647l1.11863,4.70084a5.89439,5.89439,0,0,1,.10948.75174h.019a5.143,5.143,0,0,1,.1-.781L12.76069,15Z" fill="#fff"/><path d="M29,8,23,2H7V30H29Z" fill="url(#df7698a3-1098-4a9c-a91a-1fb5f3dada65)"/><polygon points="7 2 7 3 22 3 22 9 28 9 28 24.5 29 24.5 29 8 23 2 7 2" fill="url(#ed84a46f-8017-497a-bc1f-4adf5d927aaa)"/><polygon points="16 9 3 11 3 25 16 27 16 9" fill="url(#fa80ddb6-91d4-41d9-bfd2-af239b2a551c)"/><polygon points="16 29 7 29 7 25.62 16 27 16 29" fill="url(#f296b703-ba6b-4c28-a1ed-099091ba93eb)"/><rect x="22" y="9" width="6" height="2" fill="url(#5f631620-22ba-4f7d-ac07-d5f324968699)"/></svg>