<svg id="731c1dd0-10b4-4282-86ca-c62cfe0d0c86" data-name="ICONS" xmlns="http://www.w3.org/2000/svg" xmlns:xlink="http://www.w3.org/1999/xlink" viewBox="0 0 32 32"><defs><linearGradient id="395a0ef8-09f3-4e7a-8eb4-961207419691" x1="15.17234" y1="13.24078" x2="28.54426" y2="30.35606" gradientUnits="userSpaceOnUse"><stop offset="0" stop-color="#fff" stop-opacity="0"/><stop offset="0.86247" stop-color="#5e5e5e" stop-opacity="0.06315"/><stop offset="1" stop-opacity="0.1"/></linearGradient><linearGradient id="2029ad5e-ed54-46d1-b0c5-6347cf2e977f" x1="7.87298" y1="5.31795" x2="26.12702" y2="28.68205" xlink:href="#395a0ef8-09f3-4e7a-8eb4-961207419691"/><linearGradient id="e15919e8-731d-4713-b14d-3a97f4acb237" x1="9.5" y1="26.4375" x2="9.5" y2="9.52504" gradientUnits="userSpaceOnUse"><stop offset="0" stop-color="#fff" stop-opacity="0"/><stop offset="0.52587" stop-color="#fff" stop-opacity="0.00735"/><stop offset="0.71529" stop-color="#fff" stop-opacity="0.03396"/><stop offset="0.8503" stop-color="#fff" stop-opacity="0.0803"/><stop offset="0.95875" stop-color="#fff" stop-opacity="0.14595"/><stop offset="1" stop-color="#fff" stop-opacity="0.18"/></linearGradient><linearGradient id="6fe1ba10-829b-42a1-93c6-2cd91b09bd00" x1="11.28178" y1="29.35196" x2="11.61734" y2="26.21204" gradientUnits="userSpaceOnUse"><stop offset="0" stop-color="#828282" stop-opacity="0"/><stop offset="0.86247" stop-color="#303030" stop-opacity="0.12631"/><stop offset="1" stop-opacity="0.2"/></linearGradient><linearGradient id="c8889091-91db-4d12-a7ae-99158b56cb00" x1="17.91811" y1="5.56256" x2="18.12848" y2="1.5484" gradientUnits="userSpaceOnUse"><stop offset="0" stop-color="#fff" stop-opacity="0"/><stop offset="0.44604" stop-color="#fff" stop-opacity="0.00799"/><stop offset="0.63551" stop-color="#fff" stop-opacity="0.03616"/><stop offset="0.77636" stop-color="#fff" stop-opacity="0.08493"/><stop offset="0.8924" stop-color="#fff" stop-opacity="0.15385"/><stop offset="0.99328" stop-color="#fff" stop-opacity="0.24291"/><stop offset="1" stop-color="#fff" stop-opacity="0.25"/></linearGradient><linearGradient id="bbaba585-9c92-4a04-a7c9-fd5b47c26cfc" x1="18" y1="29.9375" x2="18" y2="28.05834" gradientUnits="userSpaceOnUse"><stop offset="0" stop-color="#828282" stop-opacity="0"/><stop offset="0.86247" stop-color="#303030" stop-opacity="0.06315"/><stop offset="1" stop-opacity="0.1"/></linearGradient></defs><title>FileTypeIcons_Master_All_NEW</title><polygon points="27 2 7 2 7 28 9 28 9 30 29 30 29 4 27 2" fill="#fff"/><polygon points="28 5 28 29 10 29 10 28 27 28 27 6 26 6 26 27 10 27 9 27 8 27 8 6 7 6 7 28 9 28 9 30 29 30 29 6 28 5" fill="#949494"/><polygon points="27 2 7 2 7 6 27 6 27 4 29 6 29 4 27 2" fill="#2b579a"/><rect x="10" y="7" width="4" height="1" fill="#c8c8c8"/><polygon points="3 11 16 9 16 27 3 25 3 11" fill="#2b579a"/><path d="M14,15l-1.68694,7H10.71958L9.66024,17.50907a4.08279,4.08279,0,0,1-.10238-.78592h-.0178a5.18991,5.18991,0,0,1-.11573.78592L8.33828,22H6.678L5,15H6.57122l.89911,4.66179a6.09406,6.09406,0,0,1,.08457.80055h.0267a4.21581,4.21581,0,0,1,.12908-.82008L8.868,15H10.408l1.046,4.70084a6.27559,6.27559,0,0,1,.10237.75174h.0178a5.48269,5.48269,0,0,1,.09348-.781L12.549,15Z" fill="#fff"/><rect x="16" y="12" width="8" height="1" fill="#c8c8c8"/><rect x="16" y="14" width="8" height="1" fill="#c8c8c8"/><rect x="16" y="16" width="8" height="1" fill="#c8c8c8"/><rect x="16" y="18" width="8" height="1" fill="#c8c8c8"/><rect x="16" y="20" width="8" height="1" fill="#c8c8c8"/><rect x="16" y="22" width="8" height="1" fill="#c8c8c8"/><rect x="16" y="24" width="8" height="1" fill="#c8c8c8"/><polygon points="9 28 9 30 29 30 29 7 28 6 28 5 27 4 27 28 9 28" fill="url(#395a0ef8-09f3-4e7a-8eb4-961207419691)"/><polygon points="8.111 28 9.222 28 27 28 27 6 7 6 7 28 8.111 28" fill="url(#2029ad5e-ed54-46d1-b0c5-6347cf2e977f)"/><polygon points="16 9 3 11 3 25 16 27 16 9" fill="url(#e15919e8-731d-4713-b14d-3a97f4acb237)"/><polygon points="16 29 7 29 7 25.62 16 27 16 29" fill="url(#6fe1ba10-829b-42a1-93c6-2cd91b09bd00)"/><polygon points="27 2 7 2 7 6 27 6 27 4 29 6 29 4 27 2" fill="url(#c8889091-91db-4d12-a7ae-99158b56cb00)"/><rect x="9" y="28" width="18" height="2" fill="url(#bbaba585-9c92-4a04-a7c9-fd5b47c26cfc)"/></svg>