<svg id="d970fa8f-3d18-4bce-9d79-93ccfa60c7f6" data-name="ICONS" xmlns="http://www.w3.org/2000/svg" xmlns:xlink="http://www.w3.org/1999/xlink" viewBox="0 0 32 32"><defs><linearGradient id="efbf4c68-5c13-4dde-99f1-39d5fc2fdafe" x1="5.2915" y1="3.2381" x2="26.7085" y2="28.7619" gradientUnits="userSpaceOnUse"><stop offset="0" stop-color="#fff" stop-opacity="0"/><stop offset="0.86247" stop-color="#5e5e5e" stop-opacity="0.06315"/><stop offset="1" stop-opacity="0.1"/></linearGradient><linearGradient id="9cd3275e-2e01-4e03-a1d7-8e9decc102d4" x1="13.5" y1="18.5" x2="28" y2="4" gradientUnits="userSpaceOnUse"><stop offset="0" stop-color="#fff" stop-opacity="0"/><stop offset="0.44604" stop-color="#fff" stop-opacity="0.00799"/><stop offset="0.63551" stop-color="#fff" stop-opacity="0.03616"/><stop offset="0.77636" stop-color="#fff" stop-opacity="0.08493"/><stop offset="0.8924" stop-color="#fff" stop-opacity="0.15385"/><stop offset="0.99328" stop-color="#fff" stop-opacity="0.24291"/><stop offset="1" stop-color="#fff" stop-opacity="0.25"/></linearGradient></defs><title>FileTypeIcons_Master_All_NEW</title><rect x="2.5" y="6.5" width="27" height="19" fill="#fff"/><path d="M2,6V26H30V6ZM29,25H3V7H29Z" fill="#949494"/><rect x="10" y="18" width="12" height="1" fill="#c8c8c8"/><rect x="10" y="16" width="12" height="1" fill="#c8c8c8"/><rect x="10" y="20" width="12" height="1" fill="#c8c8c8"/><rect x="5" y="9" width="5" height="1" fill="#c8c8c8"/><rect x="5" y="11" width="5" height="1" fill="#c8c8c8"/><path d="M26,10v3H23V10h3m1-1H22v5h5V9Z" fill="#69afe5"/><rect x="2" y="6" width="28" height="20" fill="url(#efbf4c68-5c13-4dde-99f1-39d5fc2fdafe)"/><polygon points="30 6 2 6 2 7 3 7 29 7 29 25 29 26 30 26 30 6" fill="url(#9cd3275e-2e01-4e03-a1d7-8e9decc102d4)"/></svg>