<svg id="f58c23c6-eff8-4bef-9fbb-68f1ebe92e33" data-name="ICONS" xmlns="http://www.w3.org/2000/svg" xmlns:xlink="http://www.w3.org/1999/xlink" viewBox="0 0 32 32"><defs><linearGradient id="f692a032-6f88-46b9-9b1e-91c04e38dfd1" x1="5.2915" y1="3.2381" x2="26.7085" y2="28.7619" gradientUnits="userSpaceOnUse"><stop offset="0" stop-color="#fff" stop-opacity="0"/><stop offset="0.86247" stop-color="#5e5e5e" stop-opacity="0.06315"/><stop offset="1" stop-opacity="0.1"/></linearGradient><linearGradient id="6dea7a37-f5cb-4416-ad43-397f2862aa31" x1="13" y1="19" x2="28" y2="4" gradientUnits="userSpaceOnUse"><stop offset="0" stop-color="#fff" stop-opacity="0"/><stop offset="0.44604" stop-color="#fff" stop-opacity="0.00799"/><stop offset="0.63551" stop-color="#fff" stop-opacity="0.03616"/><stop offset="0.77636" stop-color="#fff" stop-opacity="0.08493"/><stop offset="0.8924" stop-color="#fff" stop-opacity="0.15385"/><stop offset="0.99328" stop-color="#fff" stop-opacity="0.24291"/><stop offset="1" stop-color="#fff" stop-opacity="0.25"/></linearGradient></defs><title>FileTypeIcons_Master_All_NEW</title><rect x="2" y="6" width="28" height="20" fill="#fff"/><rect x="3" y="8" width="5" height="17" fill="#eaeaea"/><path d="M2,6V26H30V6ZM29,25H3V7H29Z" fill="#949494"/><rect x="27" y="7" width="1" height="1" fill="#949494"/><rect x="25" y="7" width="1" height="1" fill="#949494"/><rect x="3" y="7" width="21" height="1" fill="#949494"/><rect x="9" y="10" width="9" height="12" fill="#69afe5"/><rect x="4" y="10" width="3" height="1" fill="#c8c8c8"/><rect x="20" y="10" width="7" height="1" fill="#c8c8c8"/><rect x="20" y="12" width="7" height="1" fill="#c8c8c8"/><rect x="20" y="14" width="7" height="1" fill="#c8c8c8"/><rect x="20" y="16" width="7" height="1" fill="#c8c8c8"/><rect x="20" y="18" width="4" height="1" fill="#c8c8c8"/><rect x="4" y="12" width="3" height="1" fill="#c8c8c8"/><rect x="4" y="14" width="3" height="1" fill="#c8c8c8"/><rect x="4" y="16" width="3" height="1" fill="#c8c8c8"/><rect x="2" y="6" width="28" height="20" fill="url(#f692a032-6f88-46b9-9b1e-91c04e38dfd1)"/><polygon points="30 6 2 6 2 8 3 8 29 8 29 25 29 26 30 26 30 6" fill="url(#6dea7a37-f5cb-4416-ad43-397f2862aa31)"/></svg>