<svg id="17d99642-f7b3-40d3-915c-75f3d7b6c498" data-name="ICONS" xmlns="http://www.w3.org/2000/svg" xmlns:xlink="http://www.w3.org/1999/xlink" viewBox="0 0 32 32"><defs><linearGradient id="e3eeeec6-3d6c-485d-9d57-306888e064b0" x1="6.76871" y1="4.99858" x2="26.7085" y2="28.7619" gradientUnits="userSpaceOnUse"><stop offset="0" stop-opacity="0"/><stop offset="0.86247" stop-opacity="0.12631"/><stop offset="1" stop-opacity="0.2"/></linearGradient><linearGradient id="1c9a2a6c-a426-4d18-a1e3-1535299405f3" x1="23.44388" y1="5.42641" x2="22.83938" y2="12.3359" gradientUnits="userSpaceOnUse"><stop offset="0" stop-color="#828282" stop-opacity="0"/><stop offset="0.85866" stop-color="#454545" stop-opacity="0.1171"/><stop offset="1" stop-opacity="0.25"/></linearGradient></defs><title>FileTypeIcons_Master_All_NEW</title><polygon points="2 26 2 9 16 9 19 6 30 6 30 26 2 26" fill="#a6a6a6"/><polygon points="19 6 16 9 19 12 30 12 30 6 19 6" fill="#828282"/><polygon points="2 26 2 9 16 9 19 6 30 6 30 26 2 26" fill="url(#e3eeeec6-3d6c-485d-9d57-306888e064b0)"/><polygon points="19 6 16 9 19 12 30 12 30 6 19 6" fill="url(#1c9a2a6c-a426-4d18-a1e3-1535299405f3)"/><polygon points="30 12 30 12.5 18.771 12.5 15.25 9 16 9 19.021 12 30 12" fill="#fff" opacity="0.15"/></svg>