<svg id="51565acf-2410-40fe-93d0-ea014f1c1135" data-name="ICONS" xmlns="http://www.w3.org/2000/svg" xmlns:xlink="http://www.w3.org/1999/xlink" viewBox="0 0 32 32"><defs><linearGradient id="87169386-7545-42d2-87a9-e89d9cf4d3fc" x1="15.54688" y1="9.65283" x2="15.54688" y2="23.875" gradientUnits="userSpaceOnUse"><stop offset="0" stop-color="#f7903b"/><stop offset="1" stop-color="#ff5c0d"/></linearGradient><linearGradient id="f048ea27-d498-4917-aa83-c438e2802583" x1="3.0842" y1="3.60755" x2="25.96138" y2="30.87151" gradientUnits="userSpaceOnUse"><stop offset="0" stop-color="#fff" stop-opacity="0"/><stop offset="0.86247" stop-color="#5e5e5e" stop-opacity="0.06315"/><stop offset="1" stop-opacity="0.1"/></linearGradient><linearGradient id="1fb0e8a4-db71-432d-b9c6-4ca26c66df8a" x1="20.14788" y1="9.10212" x2="24.11437" y2="5.13563" gradientUnits="userSpaceOnUse"><stop offset="0" stop-color="#fff" stop-opacity="0"/><stop offset="0.44604" stop-color="#fff" stop-opacity="0.00799"/><stop offset="0.63551" stop-color="#fff" stop-opacity="0.03616"/><stop offset="0.77636" stop-color="#fff" stop-opacity="0.08493"/><stop offset="0.8924" stop-color="#fff" stop-opacity="0.15385"/><stop offset="0.99328" stop-color="#fff" stop-opacity="0.24291"/><stop offset="1" stop-color="#fff" stop-opacity="0.25"/></linearGradient><linearGradient id="777a8a30-7d0a-471f-8311-d38a9607adf8" x1="23" y1="10.9375" x2="23" y2="9.05834" gradientUnits="userSpaceOnUse"><stop offset="0" stop-color="#828282" stop-opacity="0"/><stop offset="0.86247" stop-color="#303030" stop-opacity="0.06315"/><stop offset="1" stop-opacity="0.1"/></linearGradient></defs><title>FileTypeIcons_Master_All_NEW</title><polygon points="26 29 6 29 6 3 21 3 26 8 26 29" fill="#fff"/><path d="M21,2H5V30H27V8Zm0,1.5L25.5,8H21ZM26,29H6V3H20V9h6Z" fill="#949494"/><path d="M17.60791,19.21973h-5.3833l-.94336,2.19433a3.474,3.474,0,0,0-.34863,1.21.70067.70067,0,0,0,.30273.5586,2.63414,2.63414,0,0,0,1.30713.313V23.875H8.16406v-.37939A2.35921,2.35921,0,0,0,9.292,23.0957a6.2811,6.2811,0,0,0,1.15869-1.99951L15.3418,9.65283h.35888l4.83985,11.56641a5.2878,5.2878,0,0,0,1.061,1.81006,2.16829,2.16829,0,0,0,1.32813.46631V23.875H17.44385v-.37939a2.05431,2.05431,0,0,0,1.12256-.27686.71286.71286,0,0,0,.29248-.57422,4.25134,4.25134,0,0,0-.41016-1.42529Zm-.28711-.75879L14.9624,12.8418l-2.41992,5.61914Z" fill="url(#87169386-7545-42d2-87a9-e89d9cf4d3fc)"/><path d="M27,8,21,2H5V30H27Z" fill="url(#f048ea27-d498-4917-aa83-c438e2802583)"/><polygon points="5 2 5 3 20 3 20 9 26 9 26 24.5 27 24.5 27 8 21 2 5 2" fill="url(#1fb0e8a4-db71-432d-b9c6-4ca26c66df8a)"/><rect x="20" y="9" width="6" height="2" fill="url(#777a8a30-7d0a-471f-8311-d38a9607adf8)"/></svg>