<svg id="0b8ab312-1c0c-426f-9924-993f70af8233" data-name="ICONS" xmlns="http://www.w3.org/2000/svg" xmlns:xlink="http://www.w3.org/1999/xlink" viewBox="0 0 32 32"><defs><linearGradient id="a8e143e0-8ad8-4532-916d-c6d35d33512b" x1="23.44388" y1="5.42641" x2="22.83938" y2="12.3359" gradientUnits="userSpaceOnUse"><stop offset="0" stop-color="#828282" stop-opacity="0"/><stop offset="0.85866" stop-color="#454545" stop-opacity="0.1171"/><stop offset="1" stop-opacity="0.25"/></linearGradient><linearGradient id="ebe7a419-e62c-4202-b742-09a17d0b3ae6" x1="5.2915" y1="6.2381" x2="25.23129" y2="30.00142" gradientUnits="userSpaceOnUse"><stop offset="0" stop-opacity="0"/><stop offset="0.86247" stop-opacity="0.12631"/><stop offset="1" stop-opacity="0.2"/></linearGradient></defs><title>FileTypeIcons_Master_All_NEW</title><polygon points="19 6 16 9 19 12 30 12 30 6 19 6" fill="#828282"/><polygon points="19 6 16 9 19 12 30 12 30 6 19 6" fill="url(#a8e143e0-8ad8-4532-916d-c6d35d33512b)"/><rect x="3" y="7" width="26" height="19" fill="#fff"/><polygon points="2 26 2 9 16 9 19 12 30 12 30 26 2 26" fill="#a6a6a6"/><polygon points="30 12 30 12.5 18.771 12.5 15.25 9 16 9 19.021 12 30 12" fill="#fff" opacity="0.15"/><polygon points="2 26 2 9 16 9 19 12 30 12 30 26 2 26" fill="url(#ebe7a419-e62c-4202-b742-09a17d0b3ae6)"/></svg>