<svg id="b53a2cc1-c2df-487f-875b-2e879ea41a71" data-name="ICONS" xmlns="http://www.w3.org/2000/svg" xmlns:xlink="http://www.w3.org/1999/xlink" viewBox="0 0 32 32"><defs><linearGradient id="a4668335-ec9d-4974-a1dc-f6a0d192c3a7" x1="3.0842" y1="3.60755" x2="25.96138" y2="30.87151" gradientUnits="userSpaceOnUse"><stop offset="0" stop-color="#fff" stop-opacity="0"/><stop offset="0.86247" stop-color="#5e5e5e" stop-opacity="0.06315"/><stop offset="1" stop-opacity="0.1"/></linearGradient><linearGradient id="0e5e436c-2216-42bd-80ce-1f3bf90132d6" x1="20.14788" y1="9.10212" x2="24.11437" y2="5.13563" gradientUnits="userSpaceOnUse"><stop offset="0" stop-color="#fff" stop-opacity="0"/><stop offset="0.44604" stop-color="#fff" stop-opacity="0.00799"/><stop offset="0.63551" stop-color="#fff" stop-opacity="0.03616"/><stop offset="0.77636" stop-color="#fff" stop-opacity="0.08493"/><stop offset="0.8924" stop-color="#fff" stop-opacity="0.15385"/><stop offset="0.99328" stop-color="#fff" stop-opacity="0.24291"/><stop offset="1" stop-color="#fff" stop-opacity="0.25"/></linearGradient><linearGradient id="d444ff8b-1e4e-471f-908a-f14ef774c87f" x1="23" y1="10.9375" x2="23" y2="9.05834" gradientUnits="userSpaceOnUse"><stop offset="0" stop-color="#828282" stop-opacity="0"/><stop offset="0.86247" stop-color="#303030" stop-opacity="0.06315"/><stop offset="1" stop-opacity="0.1"/></linearGradient></defs><title>FileTypeIcons_Master_All_NEW</title><polygon points="26 29 6 29 6 3 21 3 26 8 26 29" fill="#fff"/><path d="M21,2H5V30H27V8Zm0,1.5L25.5,8H21ZM26,29H6V3H20V9h6Z" fill="#949494"/><rect x="8" y="23" width="16" height="1" fill="#c8c8c8"/><rect x="8" y="25" width="16" height="1" fill="#c8c8c8"/><path d="M16,9a6,6,0,1,0,6,6A6.00014,6.00014,0,0,0,16,9Zm3.97461,3h-1.3794a6.87121,6.87121,0,0,0-.67871-1.61523A5.01386,5.01386,0,0,1,19.97461,12ZM18,15a10.44273,10.44273,0,0,1-.18751,2h-3.625a10.761,10.761,0,0,1,0-4h3.625A10.44273,10.44273,0,0,1,18,15Zm-2,5c-.499,0-1.1333-.73535-1.55273-2h3.10546C17.1333,19.26465,16.499,20,16,20Zm-1.55273-8C14.8667,10.73535,15.501,10,16,10s1.1333.73535,1.55273,2Zm-.36377-1.61523A6.87121,6.87121,0,0,0,13.40479,12h-1.3794A5.01386,5.01386,0,0,1,14.0835,10.38477ZM11.42383,13h1.75049a11.56031,11.56031,0,0,0,0,4H11.42383a4.93079,4.93079,0,0,1,0-4Zm.60156,5h1.3794a6.87121,6.87121,0,0,0,.67871,1.61523A5.01386,5.01386,0,0,1,12.02539,18Zm5.89111,1.61523A6.87121,6.87121,0,0,0,18.59521,18h1.3794A5.01386,5.01386,0,0,1,17.9165,19.61523ZM20.57617,17H18.82568a11.56031,11.56031,0,0,0,0-4h1.75049a4.93079,4.93079,0,0,1,0,4Z" fill="#69afe5"/><path d="M27,8,21,2H5V30H27Z" fill="url(#a4668335-ec9d-4974-a1dc-f6a0d192c3a7)"/><polygon points="5 2 5 3 20 3 20 9 26 9 26 24.5 27 24.5 27 8 21 2 5 2" fill="url(#0e5e436c-2216-42bd-80ce-1f3bf90132d6)"/><rect x="20" y="9" width="6" height="2" fill="url(#d444ff8b-1e4e-471f-908a-f14ef774c87f)"/></svg>