<svg id="c18caf24-235b-4497-9cd5-a5ee86d824ec" data-name="ICONS" xmlns="http://www.w3.org/2000/svg" xmlns:xlink="http://www.w3.org/1999/xlink" viewBox="0 0 32 32"><defs><linearGradient id="7ff76a21-258d-40c2-b7af-1cddbbb28014" x1="5.2915" y1="3.2381" x2="26.7085" y2="28.7619" gradientUnits="userSpaceOnUse"><stop offset="0" stop-color="#fff" stop-opacity="0"/><stop offset="0.86247" stop-color="#5e5e5e" stop-opacity="0.06315"/><stop offset="1" stop-opacity="0.1"/></linearGradient><linearGradient id="c9dedabb-9f64-4357-b201-8ca03156f3b7" x1="13" y1="19" x2="28" y2="4" gradientUnits="userSpaceOnUse"><stop offset="0" stop-color="#fff" stop-opacity="0"/><stop offset="0.44604" stop-color="#fff" stop-opacity="0.00799"/><stop offset="0.63551" stop-color="#fff" stop-opacity="0.03616"/><stop offset="0.77636" stop-color="#fff" stop-opacity="0.08493"/><stop offset="0.8924" stop-color="#fff" stop-opacity="0.15385"/><stop offset="0.99328" stop-color="#fff" stop-opacity="0.24291"/><stop offset="1" stop-color="#fff" stop-opacity="0.25"/></linearGradient></defs><title>FileTypeIcons_Master_All_NEW</title><rect x="2" y="6" width="28" height="20" fill="#fff"/><path d="M2,6V26H30V6ZM29,25H3V7H29Z" fill="#949494"/><rect x="6" y="7" width="1" height="1" fill="#949494"/><rect x="4" y="7" width="1" height="1" fill="#949494"/><rect x="8" y="7" width="21" height="1" fill="#949494"/><path d="M16,11a6,6,0,1,0,6,6A6.00014,6.00014,0,0,0,16,11Zm3.97461,3h-1.3794a6.87121,6.87121,0,0,0-.67871-1.61523A5.01386,5.01386,0,0,1,19.97461,14ZM18,17a10.44273,10.44273,0,0,1-.18751,2h-3.625a10.761,10.761,0,0,1,0-4h3.625A10.44273,10.44273,0,0,1,18,17Zm-2,5c-.499,0-1.1333-.73535-1.55273-2h3.10546C17.1333,21.26465,16.499,22,16,22Zm-1.55273-8C14.8667,12.73535,15.501,12,16,12s1.1333.73535,1.55273,2Zm-.36377-1.61523A6.87121,6.87121,0,0,0,13.40479,14h-1.3794A5.01386,5.01386,0,0,1,14.0835,12.38477ZM11.42383,15h1.75049a11.56031,11.56031,0,0,0,0,4H11.42383a4.93079,4.93079,0,0,1,0-4Zm.60156,5h1.3794a6.87121,6.87121,0,0,0,.67871,1.61523A5.01386,5.01386,0,0,1,12.02539,20Zm5.89111,1.61523A6.87121,6.87121,0,0,0,18.59521,20h1.3794A5.01386,5.01386,0,0,1,17.9165,21.61523ZM20.57617,19H18.82568a11.56031,11.56031,0,0,0,0-4h1.75049a4.93079,4.93079,0,0,1,0,4Z" fill="#a6a6a6"/><rect x="2" y="6" width="28" height="20" fill="url(#7ff76a21-258d-40c2-b7af-1cddbbb28014)"/><polygon points="30 6 2 6 2 8 3 8 29 8 29 25 29 26 30 26 30 6" fill="url(#c9dedabb-9f64-4357-b201-8ca03156f3b7)"/></svg>