<svg id="e2d275a9-2e60-4a23-9ec8-c149f486fd77" data-name="ICONS" xmlns="http://www.w3.org/2000/svg" xmlns:xlink="http://www.w3.org/1999/xlink" viewBox="0 0 32 32"><defs><linearGradient id="28c59c83-ed79-44ac-8db1-a57ddeb38d96" x1="3.0842" y1="3.60755" x2="25.96138" y2="30.87151" gradientUnits="userSpaceOnUse"><stop offset="0" stop-color="#fff" stop-opacity="0"/><stop offset="0.86247" stop-color="#5e5e5e" stop-opacity="0.06315"/><stop offset="1" stop-opacity="0.1"/></linearGradient><linearGradient id="ee633d46-0db0-42ed-afc3-52d3859baec6" x1="20.14788" y1="9.10212" x2="24.11437" y2="5.13563" gradientUnits="userSpaceOnUse"><stop offset="0" stop-color="#fff" stop-opacity="0"/><stop offset="0.44604" stop-color="#fff" stop-opacity="0.00799"/><stop offset="0.63551" stop-color="#fff" stop-opacity="0.03616"/><stop offset="0.77636" stop-color="#fff" stop-opacity="0.08493"/><stop offset="0.8924" stop-color="#fff" stop-opacity="0.15385"/><stop offset="0.99328" stop-color="#fff" stop-opacity="0.24291"/><stop offset="1" stop-color="#fff" stop-opacity="0.25"/></linearGradient><linearGradient id="c283b51c-148b-4f77-8b11-3761e917a515" x1="23" y1="10.9375" x2="23" y2="9.05834" gradientUnits="userSpaceOnUse"><stop offset="0" stop-color="#828282" stop-opacity="0"/><stop offset="0.86247" stop-color="#303030" stop-opacity="0.06315"/><stop offset="1" stop-opacity="0.1"/></linearGradient></defs><title>FileTypeIcons_Master_All_NEW</title><polygon points="26 29 6 29 6 3 21 3 26 8 26 29" fill="#fff"/><path d="M21,2H5V30H27V8Zm0,1.5L25.5,8H21ZM26,29H6V3H20V9h6Z" fill="#949494"/><rect x="10" y="11" width="14" height="1" fill="#c8c8c8"/><rect x="10" y="13" width="14" height="1" fill="#c8c8c8"/><rect x="10" y="15" width="12" height="1" fill="#c8c8c8"/><rect x="10" y="17" width="12" height="1" fill="#c8c8c8"/><rect x="10" y="19" width="10" height="1" fill="#c8c8c8"/><rect x="10" y="21" width="10" height="1" fill="#c8c8c8"/><rect x="10" y="23" width="14" height="1" fill="#c8c8c8"/><rect x="10" y="25" width="14" height="1" fill="#c8c8c8"/><rect x="8" y="11" width="1" height="1" fill="#69afe5"/><rect x="8" y="13" width="1" height="1" fill="#69afe5"/><rect x="8" y="15" width="1" height="1" fill="#69afe5"/><rect x="8" y="17" width="1" height="1" fill="#69afe5"/><rect x="8" y="19" width="1" height="1" fill="#69afe5"/><rect x="8" y="21" width="1" height="1" fill="#69afe5"/><rect x="8" y="23" width="1" height="1" fill="#69afe5"/><rect x="8" y="25" width="1" height="1" fill="#69afe5"/><path d="M27,8,21,2H5V30H27Z" fill="url(#28c59c83-ed79-44ac-8db1-a57ddeb38d96)"/><polygon points="5 2 5 3 20 3 20 9 26 9 26 24.5 27 24.5 27 8 21 2 5 2" fill="url(#ee633d46-0db0-42ed-afc3-52d3859baec6)"/><rect x="20" y="9" width="6" height="2" fill="url(#c283b51c-148b-4f77-8b11-3761e917a515)"/></svg>