<svg id="b29baedd-c32d-431e-8b98-ca3ce2626e8f" data-name="ICONS" xmlns="http://www.w3.org/2000/svg" xmlns:xlink="http://www.w3.org/1999/xlink" viewBox="0 0 32 32"><defs><linearGradient id="b34dfba5-d68b-4e67-b812-9aab4588ad6f" x1="3.0842" y1="3.60755" x2="25.96138" y2="30.87151" gradientUnits="userSpaceOnUse"><stop offset="0" stop-color="#fff" stop-opacity="0"/><stop offset="0.86247" stop-color="#5e5e5e" stop-opacity="0.06315"/><stop offset="1" stop-opacity="0.1"/></linearGradient><linearGradient id="d3cbe8fb-8b85-4cd7-9c49-2e4eb300ee41" x1="20.14788" y1="9.10212" x2="24.11437" y2="5.13563" gradientUnits="userSpaceOnUse"><stop offset="0" stop-color="#fff" stop-opacity="0"/><stop offset="0.44604" stop-color="#fff" stop-opacity="0.00799"/><stop offset="0.63551" stop-color="#fff" stop-opacity="0.03616"/><stop offset="0.77636" stop-color="#fff" stop-opacity="0.08493"/><stop offset="0.8924" stop-color="#fff" stop-opacity="0.15385"/><stop offset="0.99328" stop-color="#fff" stop-opacity="0.24291"/><stop offset="1" stop-color="#fff" stop-opacity="0.25"/></linearGradient><linearGradient id="847cb3c4-1fca-489b-8602-3356875deaa5" x1="23" y1="10.9375" x2="23" y2="9.05834" gradientUnits="userSpaceOnUse"><stop offset="0" stop-color="#828282" stop-opacity="0"/><stop offset="0.86247" stop-color="#303030" stop-opacity="0.06315"/><stop offset="1" stop-opacity="0.1"/></linearGradient></defs><title>FileTypeIcons_Master_All_NEW</title><polygon points="26 29 6 29 6 3 21 3 26 8 26 29" fill="#fff"/><path d="M21,2H5V30H27V8Zm0,1.5L25.5,8H21ZM26,29H6V3H20V9h6Z" fill="#949494"/><polygon points="16 14 16 18 10 16 16 14" fill="#c7e0f4"/><polygon points="16 14 16 18 22 16 16 14" fill="#69afe5"/><polygon points="16 18 22 16 22 24 16 26 16 18" fill="#0078d7"/><polygon points="16 18 16 26 10 24 10 16 16 18" fill="#deecf9"/><polygon points="16 26 10 24 16 22 16 26" fill="#69afe5"/><polygon points="16 26 16 22 22 24 16 26" fill="#005a9e"/><path d="M27,8,21,2H5V30H27Z" fill="url(#b34dfba5-d68b-4e67-b812-9aab4588ad6f)"/><polygon points="5 2 5 3 20 3 20 9 26 9 26 24.5 27 24.5 27 8 21 2 5 2" fill="url(#d3cbe8fb-8b85-4cd7-9c49-2e4eb300ee41)"/><rect x="20" y="9" width="6" height="2" fill="url(#847cb3c4-1fca-489b-8602-3356875deaa5)"/></svg>