<svg id="72e7a387-7885-4b94-bcf6-c15156bfa31e" data-name="ICONS" xmlns="http://www.w3.org/2000/svg" xmlns:xlink="http://www.w3.org/1999/xlink" viewBox="0 0 32 32"><defs><linearGradient id="f97cbf1d-0973-43a7-9b71-6b94e1cc44c5" x1="15.17234" y1="13.24078" x2="28.54426" y2="30.35606" gradientUnits="userSpaceOnUse"><stop offset="0" stop-color="#fff" stop-opacity="0"/><stop offset="0.86247" stop-color="#5e5e5e" stop-opacity="0.06315"/><stop offset="1" stop-opacity="0.1"/></linearGradient><linearGradient id="9955f057-8066-4602-8891-ca97e7ce4476" x1="7.87298" y1="5.31795" x2="26.12702" y2="28.68205" xlink:href="#f97cbf1d-0973-43a7-9b71-6b94e1cc44c5"/><linearGradient id="a954f99e-8802-4058-92e7-09895e042fe3" x1="9.5" y1="26.4375" x2="9.5" y2="9.52504" gradientUnits="userSpaceOnUse"><stop offset="0" stop-color="#fff" stop-opacity="0"/><stop offset="0.52587" stop-color="#fff" stop-opacity="0.00735"/><stop offset="0.71529" stop-color="#fff" stop-opacity="0.03396"/><stop offset="0.8503" stop-color="#fff" stop-opacity="0.0803"/><stop offset="0.95875" stop-color="#fff" stop-opacity="0.14595"/><stop offset="1" stop-color="#fff" stop-opacity="0.18"/></linearGradient><linearGradient id="f05d70be-4c44-4b09-afaa-86487ed3f287" x1="11.28178" y1="29.35196" x2="11.61734" y2="26.21204" gradientUnits="userSpaceOnUse"><stop offset="0" stop-color="#828282" stop-opacity="0"/><stop offset="0.86247" stop-color="#303030" stop-opacity="0.12631"/><stop offset="1" stop-opacity="0.2"/></linearGradient><linearGradient id="ffa1b474-2eca-4983-b3df-05601c6e8817" x1="17.91811" y1="5.56256" x2="18.12848" y2="1.5484" gradientUnits="userSpaceOnUse"><stop offset="0" stop-color="#fff" stop-opacity="0"/><stop offset="0.44604" stop-color="#fff" stop-opacity="0.00799"/><stop offset="0.63551" stop-color="#fff" stop-opacity="0.03616"/><stop offset="0.77636" stop-color="#fff" stop-opacity="0.08493"/><stop offset="0.8924" stop-color="#fff" stop-opacity="0.15385"/><stop offset="0.99328" stop-color="#fff" stop-opacity="0.24291"/><stop offset="1" stop-color="#fff" stop-opacity="0.25"/></linearGradient><linearGradient id="52fd4dc2-f7c4-46a4-a35b-ee5cb6eb4beb" x1="18" y1="29.9375" x2="18" y2="28.05834" gradientUnits="userSpaceOnUse"><stop offset="0" stop-color="#828282" stop-opacity="0"/><stop offset="0.86247" stop-color="#303030" stop-opacity="0.06315"/><stop offset="1" stop-opacity="0.1"/></linearGradient></defs><title>FileTypeIcons_Master_All_NEW</title><polygon points="27 2 7 2 7 28 9 28 9 30 29 30 29 4 27 2" fill="#fff"/><polygon points="27 2 7 2 7 6 27 6 27 4 29 6 29 4 27 2" fill="#31752f"/><polygon points="28 5 28 29 10 29 10 28 27 28 27 6 26 6 26 27 10 27 9 27 8 27 8 6 7 6 7 28 9 28 9 30 29 30 29 6 28 5" fill="#949494"/><path d="M16,10v1h3V24H16v1h8V10Zm7,14H20V11h3Z" fill="#c8c8c8"/><rect x="16" y="12" width="5" height="2" fill="#8bbf8a"/><rect x="16" y="15" width="5" height="2" fill="#8bbf8a"/><rect x="18" y="18" width="5" height="2" fill="#8bbf8a"/><rect x="16" y="21" width="5" height="2" fill="#8bbf8a"/><polygon points="3 11 16 9 16 27 3 25 3 11" fill="#31752f"/><path d="M8.84924,19.24407V22H7V14H9.897Q13,14,13,16.54951a2.41967,2.41967,0,0,1-.89027,1.94979,3.58778,3.58778,0,0,1-2.37881.74477Zm0-3.86053v2.49373h.7271q1.4771,0,1.4771-1.26081,0-1.23292-1.4771-1.23292Z" fill="#fff"/><polygon points="9 28 9 30 29 30 29 7 28 6 28 5 27 4 27 28 9 28" fill="url(#f97cbf1d-0973-43a7-9b71-6b94e1cc44c5)"/><polygon points="8.111 28 9.222 28 27 28 27 6 7 6 7 28 8.111 28" fill="url(#9955f057-8066-4602-8891-ca97e7ce4476)"/><polygon points="16 9 3 11 3 25 16 27 16 9" fill="url(#a954f99e-8802-4058-92e7-09895e042fe3)"/><polygon points="16 29 7 29 7 25.62 16 27 16 29" fill="url(#f05d70be-4c44-4b09-afaa-86487ed3f287)"/><polygon points="27 2 7 2 7 6 27 6 27 4 29 6 29 4 27 2" fill="url(#ffa1b474-2eca-4983-b3df-05601c6e8817)"/><rect x="9" y="28" width="18" height="2" fill="url(#52fd4dc2-f7c4-46a4-a35b-ee5cb6eb4beb)"/></svg>