<svg id="642865ed-a369-481b-8e59-8d1b20c18f85" data-name="ICONS" xmlns="http://www.w3.org/2000/svg" xmlns:xlink="http://www.w3.org/1999/xlink" viewBox="0 0 32 32"><defs><linearGradient id="a53952ff-aec4-40ac-9b23-d91312d38045" x1="5.44724" y1="3.21315" x2="25.64187" y2="29.06109" gradientUnits="userSpaceOnUse"><stop offset="0" stop-color="#fff" stop-opacity="0"/><stop offset="0.86247" stop-color="#5e5e5e" stop-opacity="0.06315"/><stop offset="1" stop-opacity="0.1"/></linearGradient><linearGradient id="14430362-e6b1-44e2-bfd9-3ead0aa9d960" x1="20.64788" y1="9.60212" x2="24.61437" y2="5.63563" gradientUnits="userSpaceOnUse"><stop offset="0" stop-color="#fff" stop-opacity="0"/><stop offset="0.44604" stop-color="#fff" stop-opacity="0.00799"/><stop offset="0.63551" stop-color="#fff" stop-opacity="0.03616"/><stop offset="0.77636" stop-color="#fff" stop-opacity="0.08493"/><stop offset="0.8924" stop-color="#fff" stop-opacity="0.15385"/><stop offset="0.99328" stop-color="#fff" stop-opacity="0.24291"/><stop offset="1" stop-color="#fff" stop-opacity="0.25"/></linearGradient><linearGradient id="37e4705b-fb6b-47a0-a6b4-3283a4668b35" x1="23" y1="10.9375" x2="23" y2="9.05834" gradientUnits="userSpaceOnUse"><stop offset="0" stop-color="#828282" stop-opacity="0"/><stop offset="0.86247" stop-color="#303030" stop-opacity="0.06315"/><stop offset="1" stop-opacity="0.1"/></linearGradient><linearGradient id="9b5c72a8-50f2-4a5c-b604-6b7ae174ccd7" x1="16" y1="29.9375" x2="16" y2="28.05834" xlink:href="#37e4705b-fb6b-47a0-a6b4-3283a4668b35"/><linearGradient id="e6b75af5-f30d-431a-bf5b-ea3570e9347e" x1="-0.68596" y1="8.44236" x2="19.50866" y2="34.2903" xlink:href="#a53952ff-aec4-40ac-9b23-d91312d38045"/></defs><title>FileTypeIcons_Master_All_NEW</title><polygon points="21 2 20 2 7 2 7 4 5 4 5 30 25 30 25 28 27 28 27 9 27 8 21 2" fill="#fff"/><path d="M21,2H7V4H5V30H25V28h2V8Zm0,1.5L25.5,8H21ZM24,29H6V5H7V28H24Zm2-2H8V3H20V9h6Z" fill="#949494"/><path d="M27,8,21,2H7V28H27Z" fill="url(#a53952ff-aec4-40ac-9b23-d91312d38045)"/><polygon points="7 2 7 3 20 3 20 9 26 9 26 24.5 27 24.5 27 8 21 2 7 2" fill="url(#14430362-e6b1-44e2-bfd9-3ead0aa9d960)"/><rect x="20" y="9" width="6" height="2" fill="url(#37e4705b-fb6b-47a0-a6b4-3283a4668b35)"/><rect x="7" y="28" width="18" height="2" fill="url(#9b5c72a8-50f2-4a5c-b604-6b7ae174ccd7)"/><polygon points="5 4 7 4 7 28 25 28 25 30 5 30 5 4" fill="url(#e6b75af5-f30d-431a-bf5b-ea3570e9347e)"/></svg>