<svg id="b1491489-4636-4716-99b4-eef76025325c" data-name="ICONS" xmlns="http://www.w3.org/2000/svg" xmlns:xlink="http://www.w3.org/1999/xlink" viewBox="0 0 32 32"><defs><linearGradient id="40930e5a-5d74-4994-a4a2-fd9433c3a683" x1="6.06901" y1="2.7812" x2="28.11983" y2="29.06035" gradientUnits="userSpaceOnUse"><stop offset="0" stop-color="#fff" stop-opacity="0"/><stop offset="0.86247" stop-color="#5e5e5e" stop-opacity="0.06315"/><stop offset="1" stop-opacity="0.1"/></linearGradient><linearGradient id="2d4fbc55-cd55-4be7-9212-a6d4b377d7ce" x1="9.5" y1="26.4375" x2="9.5" y2="9.52504" gradientUnits="userSpaceOnUse"><stop offset="0" stop-color="#fff" stop-opacity="0"/><stop offset="0.52587" stop-color="#fff" stop-opacity="0.00735"/><stop offset="0.71529" stop-color="#fff" stop-opacity="0.03396"/><stop offset="0.8503" stop-color="#fff" stop-opacity="0.0803"/><stop offset="0.95875" stop-color="#fff" stop-opacity="0.14595"/><stop offset="1" stop-color="#fff" stop-opacity="0.18"/></linearGradient><linearGradient id="472610ac-a610-4ed0-a707-4850e667a58a" x1="11.28178" y1="29.35196" x2="11.61734" y2="26.21204" gradientUnits="userSpaceOnUse"><stop offset="0" stop-color="#828282" stop-opacity="0"/><stop offset="0.86247" stop-color="#303030" stop-opacity="0.12631"/><stop offset="1" stop-opacity="0.2"/></linearGradient><linearGradient id="376e743a-4692-438c-990d-342b95a50d10" x1="22.52165" y1="10.47835" x2="30.43568" y2="2.56432" gradientUnits="userSpaceOnUse"><stop offset="0" stop-color="#fff" stop-opacity="0"/><stop offset="0.44604" stop-color="#fff" stop-opacity="0.00799"/><stop offset="0.63551" stop-color="#fff" stop-opacity="0.03616"/><stop offset="0.77636" stop-color="#fff" stop-opacity="0.08493"/><stop offset="0.8924" stop-color="#fff" stop-opacity="0.15385"/><stop offset="0.99328" stop-color="#fff" stop-opacity="0.24291"/><stop offset="1" stop-color="#fff" stop-opacity="0.25"/></linearGradient></defs><title>FileTypeIcons_Master_All_NEW</title><polygon points="7.5 2.5 26.5 2.5 26.5 4.5 28.5 4.5 28.5 9.5 26.5 9.5 26.5 29.5 7.5 29.5 7.5 2.5" fill="#fff"/><path d="M26,3V5h2V9l-1,.00012H26V29H8V3H26m1-1H7V30H27V10h2V4H27V2Z" fill="#949494"/><polygon points="3 11 16 9 16 27 3 25 3 11" fill="#7719aa"/><path d="M13,22H11.231L8.024,16.9735a7.314,7.314,0,0,1-.3907-.66388h-.0217q.04341.424.04341,1.29429V22H6V14H7.88837l3.0876,4.87029q.21162.32916.3907.65272h.0217a8.792,8.792,0,0,1-.04341-1.099V14H13Z" fill="#fff"/><rect x="16" y="11" width="8" height="1" fill="#c8c8c8"/><rect x="16" y="13" width="8" height="1" fill="#c8c8c8"/><rect x="16" y="15" width="8" height="1" fill="#c8c8c8"/><rect x="16" y="17" width="8" height="1" fill="#c8c8c8"/><rect x="16" y="19" width="8" height="1" fill="#c8c8c8"/><rect x="16" y="21" width="8" height="1" fill="#c8c8c8"/><rect x="16" y="23" width="8" height="1" fill="#c8c8c8"/><rect x="16" y="25" width="8" height="1" fill="#c8c8c8"/><rect x="10" y="5" width="6" height="1" fill="#c8c8c8"/><path d="M27,2H7V30H27V10.00012L29,10V4H27V2Z" fill="url(#40930e5a-5d74-4994-a4a2-fd9433c3a683)"/><polygon points="16 9 3 11 3 25 16 27 16 9" fill="url(#2d4fbc55-cd55-4be7-9212-a6d4b377d7ce)"/><polygon points="16 29 7 29 7 25.62 16 27 16 29" fill="url(#472610ac-a610-4ed0-a707-4850e667a58a)"/><path d="M26,3V5h2V9l-1,.00012H26V29H8V3H26m1-1H7V30H27V10.00012L29,10V4H27V2Z" fill="url(#376e743a-4692-438c-990d-342b95a50d10)"/></svg>