<svg id="3be8ff6f-5a35-4793-ab1a-eff9b55622d4" data-name="ICONS" xmlns="http://www.w3.org/2000/svg" xmlns:xlink="http://www.w3.org/1999/xlink" viewBox="0 0 32 32"><defs><linearGradient id="869c36aa-33be-4771-a083-ef22120bebb3" x1="6.06901" y1="2.7812" x2="28.11983" y2="29.06035" gradientUnits="userSpaceOnUse"><stop offset="0" stop-color="#fff" stop-opacity="0"/><stop offset="0.86247" stop-color="#5e5e5e" stop-opacity="0.06315"/><stop offset="1" stop-opacity="0.1"/></linearGradient><linearGradient id="9be07549-36af-46ab-b905-22df7e4a856c" x1="9.5" y1="26.4375" x2="9.5" y2="9.52504" gradientUnits="userSpaceOnUse"><stop offset="0" stop-color="#fff" stop-opacity="0"/><stop offset="0.52587" stop-color="#fff" stop-opacity="0.00735"/><stop offset="0.71529" stop-color="#fff" stop-opacity="0.03396"/><stop offset="0.8503" stop-color="#fff" stop-opacity="0.0803"/><stop offset="0.95875" stop-color="#fff" stop-opacity="0.14595"/><stop offset="1" stop-color="#fff" stop-opacity="0.18"/></linearGradient><linearGradient id="dbe18dff-76c1-402c-9f60-89ded4febd6d" x1="11.28178" y1="29.35196" x2="11.61734" y2="26.21204" gradientUnits="userSpaceOnUse"><stop offset="0" stop-color="#828282" stop-opacity="0"/><stop offset="0.86247" stop-color="#303030" stop-opacity="0.12631"/><stop offset="1" stop-opacity="0.2"/></linearGradient><linearGradient id="43899ed7-7070-49d9-8424-8c64f8b020ad" x1="28.93754" y1="12.99974" x2="26.99464" y2="12.99974" gradientUnits="userSpaceOnUse"><stop offset="0" stop-color="#a6a6a6" stop-opacity="0"/><stop offset="1" stop-opacity="0.1"/></linearGradient><linearGradient id="1ebdcf1d-9c35-413f-a475-b1288711cde2" x1="28.93754" y1="17.99974" x2="26.99464" y2="17.99974" xlink:href="#43899ed7-7070-49d9-8424-8c64f8b020ad"/><linearGradient id="addc900d-4e00-4762-b053-f4ffa7f35757" x1="28.93754" y1="22.99974" x2="26.99464" y2="22.99974" xlink:href="#43899ed7-7070-49d9-8424-8c64f8b020ad"/><linearGradient id="6c508072-c96f-4716-a7fc-6e8053a5aed5" x1="22.52165" y1="10.47835" x2="30.43568" y2="2.56432" gradientUnits="userSpaceOnUse"><stop offset="0" stop-color="#fff" stop-opacity="0"/><stop offset="0.44604" stop-color="#fff" stop-opacity="0.00799"/><stop offset="0.63551" stop-color="#fff" stop-opacity="0.03616"/><stop offset="0.77636" stop-color="#fff" stop-opacity="0.08493"/><stop offset="0.8924" stop-color="#fff" stop-opacity="0.15385"/><stop offset="0.99328" stop-color="#fff" stop-opacity="0.24291"/><stop offset="1" stop-color="#fff" stop-opacity="0.25"/></linearGradient></defs><title>FileTypeIcons_Master_All_NEW</title><rect x="5" y="9" width="3" height="1" rx="0.5" ry="0.5" fill="#949494"/><rect x="5" y="28" width="3" height="1" rx="0.5" ry="0.5" fill="#949494"/><rect x="5" y="25" width="3" height="1" rx="0.5" ry="0.5" fill="#949494"/><polygon points="7.5 2.5 26.5 2.5 26.5 4.5 28.5 4.5 28.5 9.5 26.5 9.5 26.5 29.5 7.5 29.5 7.5 2.5" fill="#fff"/><path d="M26,3V5h2V9l-1,.00012H26V29H8V3H26m1-1H7V30H27V10.00012L29,10V4H27V2Z" fill="#949494"/><rect x="16" y="10" width="6" height="1" fill="#c8c8c8"/><rect x="16" y="12" width="6" height="1" fill="#c8c8c8"/><rect x="16" y="14" width="6" height="1" fill="#c8c8c8"/><rect x="27" y="11" width="2" height="4" fill="#949494"/><rect x="27" y="16" width="2" height="4" fill="#949494"/><rect x="27" y="21" width="2" height="4" fill="#949494"/><polygon points="3 11 16 9 16 27 3 25 3 11" fill="#7719aa"/><path d="M13,22H11.231L8.024,16.9735a7.29733,7.29733,0,0,1-.3907-.66388h-.0217q.04341.424.04341,1.29429V22H6V14H7.88837l3.0876,4.87029q.21162.32932.3907.65272h.0217a8.792,8.792,0,0,1-.04341-1.099V14H13Z" fill="#fff"/><rect x="5" y="3" width="3" height="1" rx="0.5" ry="0.5" fill="#949494"/><rect x="5" y="6" width="3" height="1" rx="0.5" ry="0.5" fill="#949494"/><path d="M27,2H7V30H27V10.00012L29,10V4H27V2Z" fill="url(#869c36aa-33be-4771-a083-ef22120bebb3)"/><polygon points="16 9 3 11 3 25 16 27 16 9" fill="url(#9be07549-36af-46ab-b905-22df7e4a856c)"/><polygon points="16 29 7 29 7 25.62 16 27 16 29" fill="url(#dbe18dff-76c1-402c-9f60-89ded4febd6d)"/><rect x="26.99985" y="10.99955" width="2.00013" height="4.00038" fill="url(#43899ed7-7070-49d9-8424-8c64f8b020ad)"/><rect x="26.99985" y="15.99955" width="2.00013" height="4.00038" fill="url(#1ebdcf1d-9c35-413f-a475-b1288711cde2)"/><rect x="26.99985" y="20.99955" width="2.00013" height="4.00038" fill="url(#addc900d-4e00-4762-b053-f4ffa7f35757)"/><path d="M26,3V5h2V9l-1,.00012H26V29H8V3H26m1-1H7V30H27V10.00012L29,10V4H27V2Z" fill="url(#6c508072-c96f-4716-a7fc-6e8053a5aed5)"/></svg>