<svg id="69d3bbc4-2ed4-476e-ab43-5b688c8f85ec" data-name="ICONS" xmlns="http://www.w3.org/2000/svg" xmlns:xlink="http://www.w3.org/1999/xlink" viewBox="0 0 32 32"><defs><linearGradient id="be1015c8-ee3e-4172-947c-7a12ba197b83" x1="3.0842" y1="3.60755" x2="25.96138" y2="30.87151" gradientUnits="userSpaceOnUse"><stop offset="0" stop-color="#fff" stop-opacity="0"/><stop offset="0.86247" stop-color="#5e5e5e" stop-opacity="0.06315"/><stop offset="1" stop-opacity="0.1"/></linearGradient><linearGradient id="eef4f793-a81c-43aa-9aaa-ffc0e4b152e0" x1="23" y1="10.9375" x2="23" y2="9.05834" gradientUnits="userSpaceOnUse"><stop offset="0" stop-color="#828282" stop-opacity="0"/><stop offset="0.86247" stop-color="#303030" stop-opacity="0.06315"/><stop offset="1" stop-opacity="0.1"/></linearGradient><linearGradient id="62943864-577a-4778-9f3c-d349e78d7d9d" x1="7.5" y1="28.9375" x2="7.5" y2="27.05834" xlink:href="#eef4f793-a81c-43aa-9aaa-ffc0e4b152e0"/><linearGradient id="013667f0-6071-411a-a7ba-7c8fb389529a" x1="24.5" y1="28.9375" x2="24.5" y2="27.05834" xlink:href="#eef4f793-a81c-43aa-9aaa-ffc0e4b152e0"/><linearGradient id="dfe9cdda-9947-4135-8511-8b40b89bcfe0" x1="16" y1="28.96875" x2="16" y2="28.02917" xlink:href="#eef4f793-a81c-43aa-9aaa-ffc0e4b152e0"/><linearGradient id="4972b1e2-41cb-43c2-a9a0-d399a46b576f" x1="16" y1="22.9375" x2="16" y2="21.05834" xlink:href="#eef4f793-a81c-43aa-9aaa-ffc0e4b152e0"/><linearGradient id="13be9418-922d-43a9-9e4d-d982b3d3c80b" x1="16" y1="23.62647" x2="16" y2="20.58824" gradientUnits="userSpaceOnUse"><stop offset="0" stop-color="#fff" stop-opacity="0"/><stop offset="0.34281" stop-color="#fff" stop-opacity="0.03509"/><stop offset="0.90031" stop-color="#fff" stop-opacity="0.13008"/><stop offset="1" stop-color="#fff" stop-opacity="0.15"/></linearGradient><linearGradient id="41f2a1d1-bc7b-4b96-8203-fb16f6ba2444" x1="7" y1="23.71985" x2="7" y2="21.44118" xlink:href="#13be9418-922d-43a9-9e4d-d982b3d3c80b"/><linearGradient id="5d8918a3-eb5d-4d9c-ab57-622d41e0fb20" x1="25" y1="23.71985" x2="25" y2="21.44118" xlink:href="#13be9418-922d-43a9-9e4d-d982b3d3c80b"/><linearGradient id="89b13bad-029c-4296-8775-9da294240250" y1="27.35993" y2="26.22059" xlink:href="#13be9418-922d-43a9-9e4d-d982b3d3c80b"/><linearGradient id="69592da4-5f64-49f7-96e9-1a0d64290017" x1="20.14788" y1="9.10212" x2="24.11437" y2="5.13563" gradientUnits="userSpaceOnUse"><stop offset="0" stop-color="#fff" stop-opacity="0"/><stop offset="0.44604" stop-color="#fff" stop-opacity="0.00799"/><stop offset="0.63551" stop-color="#fff" stop-opacity="0.03616"/><stop offset="0.77636" stop-color="#fff" stop-opacity="0.08493"/><stop offset="0.8924" stop-color="#fff" stop-opacity="0.15385"/><stop offset="0.99328" stop-color="#fff" stop-opacity="0.24291"/><stop offset="1" stop-color="#fff" stop-opacity="0.25"/></linearGradient></defs><title>FileTypeIcons_Master_All_NEW</title><polygon points="26 29 6 29 6 3 21 3 26 8 26 29" fill="#fff"/><path d="M21,2H5V30H27V8Zm0,1.5L25.5,8H21ZM26,29H6V3H20V9h6Z" fill="#949494"/><rect x="8" y="11" width="16" height="1" fill="#c8c8c8"/><rect x="8" y="13" width="16" height="1" fill="#c8c8c8"/><rect x="8" y="15" width="16" height="1" fill="#c8c8c8"/><rect x="8" y="17" width="16" height="1" fill="#c8c8c8"/><rect x="8" y="5" width="6" height="1" fill="#c8c8c8"/><path d="M20,21v6H12V21h8m1-1H11v8H21V20Z" fill="#d65532"/><rect x="4" y="21" width="6" height="6" fill="#d65532"/><rect x="22" y="21" width="6" height="6" fill="#d65532"/><path d="M28,21H27V8L21,2H5V21H4v6H5v3H27V27h1Z" fill="url(#be1015c8-ee3e-4172-947c-7a12ba197b83)"/><rect x="20" y="9" width="6" height="2" fill="url(#eef4f793-a81c-43aa-9aaa-ffc0e4b152e0)"/><rect x="5" y="27" width="5" height="2" fill="url(#62943864-577a-4778-9f3c-d349e78d7d9d)"/><rect x="22" y="27" width="5" height="2" fill="url(#013667f0-6071-411a-a7ba-7c8fb389529a)"/><rect x="11" y="28" width="10" height="1" fill="url(#dfe9cdda-9947-4135-8511-8b40b89bcfe0)"/><rect x="12" y="21" width="8" height="2" fill="url(#4972b1e2-41cb-43c2-a9a0-d399a46b576f)"/><polygon points="21 24 20 24 20 21 12 21 12 24 11 24 11 20 21 20 21 24" fill="url(#13be9418-922d-43a9-9e4d-d982b3d3c80b)"/><rect x="4" y="21" width="6" height="3" fill="url(#41f2a1d1-bc7b-4b96-8203-fb16f6ba2444)"/><rect x="22" y="21" width="6" height="3" fill="url(#5d8918a3-eb5d-4d9c-ab57-622d41e0fb20)"/><rect x="12" y="26" width="8" height="1.5" fill="url(#89b13bad-029c-4296-8775-9da294240250)"/><polygon points="5 2 5 3 20 3 20 9 26 9 26 24.5 27 24.5 27 8 21 2 5 2" fill="url(#69592da4-5f64-49f7-96e9-1a0d64290017)"/></svg>