<?xml version="1.0" encoding="utf-8"?>
<!-- Generator: Adobe Illustrator 21.1.0, SVG Export Plug-In . SVG Version: 6.00 Build 0)  -->
<svg version="1.1" xmlns="http://www.w3.org/2000/svg" xmlns:xlink="http://www.w3.org/1999/xlink" x="0px" y="0px"
	 viewBox="0 0 32 32" enable-background="new 0 0 32 32" xml:space="preserve">
<g id="TEMPLATE" display="none">
	<g display="inline">
		<path fill="#D0D0D0" d="M32,0v32H0V0H32 M33-1h-1H0h-1v1v32v1h1h32h1v-1V0V-1L33-1z"/>
	</g>
	<g display="inline" opacity="0.1">
		<path fill="#FF3A6D" d="M30,2v28H2V2H30 M32,0H0v32h32V0L32,0z"/>
	</g>
</g>
<g id="ICONS">
	<g>
		<polygon fill="#FFFFFF" points="26,29 6,29 6,3 21,3 26,8 		"/>
		<path fill="#949494" d="M21,2H5v28h22V8L21,2z M21,3.5L25.5,8H21V3.5z M26,29H6V3h14v6h6V29z"/>
	</g>
	<rect x="8" y="11" fill="#C8C8C8" width="16" height="1"/>
	<rect x="8" y="13" fill="#C8C8C8" width="16" height="1"/>
	<rect x="8" y="15" fill="#C8C8C8" width="16" height="1"/>
	<rect x="8" y="17" fill="#C8C8C8" width="16" height="1"/>
	<rect x="8" y="5" fill="#C8C8C8" width="6" height="1"/>
	<path fill="#D65532" d="M20,21v6h-8v-6H20 M21,20H11v8h10V20L21,20z"/>
	<rect x="4" y="21" fill="#D65532" width="6" height="6"/>
	<rect x="22" y="21" fill="#D65532" width="6" height="6"/>
	<linearGradient id="SVGID_1_" gradientUnits="userSpaceOnUse" x1="3.0842" y1="3.6075" x2="25.9614" y2="30.8715">
		<stop  offset="0" style="stop-color:#FFFFFF;stop-opacity:0"/>
		<stop  offset="0.2264" style="stop-color:#FCFCFC;stop-opacity:0.0226"/>
		<stop  offset="0.3626" style="stop-color:#F4F4F4;stop-opacity:0.0363"/>
		<stop  offset="0.475" style="stop-color:#E6E6E6;stop-opacity:0.0475"/>
		<stop  offset="0.5744" style="stop-color:#D1D1D1;stop-opacity:0.0574"/>
		<stop  offset="0.6652" style="stop-color:#B7B7B7;stop-opacity:0.0665"/>
		<stop  offset="0.7498" style="stop-color:#979797;stop-opacity:0.075"/>
		<stop  offset="0.8297" style="stop-color:#707070;stop-opacity:0.083"/>
		<stop  offset="0.9057" style="stop-color:#444444;stop-opacity:0.0906"/>
		<stop  offset="0.9761" style="stop-color:#121212;stop-opacity:0.0976"/>
		<stop  offset="1" style="stop-color:#000000;stop-opacity:0.1"/>
	</linearGradient>
	<path fill="url(#SVGID_1_)" d="M28,21h-1V8l-6-6H5v19H4v6h1v3h22v-3h1V21z"/>
	<linearGradient id="SVGID_2_" gradientUnits="userSpaceOnUse" x1="23" y1="10.9375" x2="23" y2="9.0583">
		<stop  offset="0" style="stop-color:#828282;stop-opacity:0"/>
		<stop  offset="0.2812" style="stop-color:#7F7F7F;stop-opacity:0.0281"/>
		<stop  offset="0.4503" style="stop-color:#777777;stop-opacity:0.045"/>
		<stop  offset="0.5899" style="stop-color:#696969;stop-opacity:0.059"/>
		<stop  offset="0.7133" style="stop-color:#545454;stop-opacity:0.0713"/>
		<stop  offset="0.8259" style="stop-color:#3A3A3A;stop-opacity:0.0826"/>
		<stop  offset="0.9294" style="stop-color:#1A1A1A;stop-opacity:0.0929"/>
		<stop  offset="1" style="stop-color:#000000;stop-opacity:0.1"/>
	</linearGradient>
	<rect x="20" y="9" fill="url(#SVGID_2_)" width="6" height="2"/>
	<linearGradient id="SVGID_3_" gradientUnits="userSpaceOnUse" x1="7.5" y1="28.9375" x2="7.5" y2="27.0583">
		<stop  offset="0" style="stop-color:#828282;stop-opacity:0"/>
		<stop  offset="0.2812" style="stop-color:#7F7F7F;stop-opacity:0.0281"/>
		<stop  offset="0.4503" style="stop-color:#777777;stop-opacity:0.045"/>
		<stop  offset="0.5899" style="stop-color:#696969;stop-opacity:0.059"/>
		<stop  offset="0.7133" style="stop-color:#545454;stop-opacity:0.0713"/>
		<stop  offset="0.8259" style="stop-color:#3A3A3A;stop-opacity:0.0826"/>
		<stop  offset="0.9294" style="stop-color:#1A1A1A;stop-opacity:0.0929"/>
		<stop  offset="1" style="stop-color:#000000;stop-opacity:0.1"/>
	</linearGradient>
	<rect x="5" y="27" fill="url(#SVGID_3_)" width="5" height="2"/>
	<linearGradient id="SVGID_4_" gradientUnits="userSpaceOnUse" x1="24.5" y1="28.9375" x2="24.5" y2="27.0583">
		<stop  offset="0" style="stop-color:#828282;stop-opacity:0"/>
		<stop  offset="0.2812" style="stop-color:#7F7F7F;stop-opacity:0.0281"/>
		<stop  offset="0.4503" style="stop-color:#777777;stop-opacity:0.045"/>
		<stop  offset="0.5899" style="stop-color:#696969;stop-opacity:0.059"/>
		<stop  offset="0.7133" style="stop-color:#545454;stop-opacity:0.0713"/>
		<stop  offset="0.8259" style="stop-color:#3A3A3A;stop-opacity:0.0826"/>
		<stop  offset="0.9294" style="stop-color:#1A1A1A;stop-opacity:0.0929"/>
		<stop  offset="1" style="stop-color:#000000;stop-opacity:0.1"/>
	</linearGradient>
	<rect x="22" y="27" fill="url(#SVGID_4_)" width="5" height="2"/>
	<linearGradient id="SVGID_5_" gradientUnits="userSpaceOnUse" x1="16" y1="28.9688" x2="16" y2="28.0292">
		<stop  offset="0" style="stop-color:#828282;stop-opacity:0"/>
		<stop  offset="0.2812" style="stop-color:#7F7F7F;stop-opacity:0.0281"/>
		<stop  offset="0.4503" style="stop-color:#777777;stop-opacity:0.045"/>
		<stop  offset="0.5899" style="stop-color:#696969;stop-opacity:0.059"/>
		<stop  offset="0.7133" style="stop-color:#545454;stop-opacity:0.0713"/>
		<stop  offset="0.8259" style="stop-color:#3A3A3A;stop-opacity:0.0826"/>
		<stop  offset="0.9294" style="stop-color:#1A1A1A;stop-opacity:0.0929"/>
		<stop  offset="1" style="stop-color:#000000;stop-opacity:0.1"/>
	</linearGradient>
	<rect x="11" y="28" fill="url(#SVGID_5_)" width="10" height="1"/>
	<linearGradient id="SVGID_6_" gradientUnits="userSpaceOnUse" x1="16" y1="22.9375" x2="16" y2="21.0583">
		<stop  offset="0" style="stop-color:#828282;stop-opacity:0"/>
		<stop  offset="0.2812" style="stop-color:#7F7F7F;stop-opacity:0.0281"/>
		<stop  offset="0.4503" style="stop-color:#777777;stop-opacity:0.045"/>
		<stop  offset="0.5899" style="stop-color:#696969;stop-opacity:0.059"/>
		<stop  offset="0.7133" style="stop-color:#545454;stop-opacity:0.0713"/>
		<stop  offset="0.8259" style="stop-color:#3A3A3A;stop-opacity:0.0826"/>
		<stop  offset="0.9294" style="stop-color:#1A1A1A;stop-opacity:0.0929"/>
		<stop  offset="1" style="stop-color:#000000;stop-opacity:0.1"/>
	</linearGradient>
	<rect x="12" y="21" fill="url(#SVGID_6_)" width="8" height="2"/>
	<linearGradient id="SVGID_7_" gradientUnits="userSpaceOnUse" x1="16" y1="23.6265" x2="16" y2="20.5882">
		<stop  offset="0" style="stop-color:#FFFFFF;stop-opacity:0"/>
		<stop  offset="1" style="stop-color:#FFFFFF;stop-opacity:0.15"/>
	</linearGradient>
	<polygon fill="url(#SVGID_7_)" points="21,24 20,24 20.0002,21 11.9998,21 12,24 11,24 11,20 21,20 	"/>
	<linearGradient id="SVGID_8_" gradientUnits="userSpaceOnUse" x1="7" y1="23.7199" x2="7" y2="21.4412">
		<stop  offset="0" style="stop-color:#FFFFFF;stop-opacity:0"/>
		<stop  offset="1" style="stop-color:#FFFFFF;stop-opacity:0.15"/>
	</linearGradient>
	<rect x="4" y="21" fill="url(#SVGID_8_)" width="6" height="3"/>
	<linearGradient id="SVGID_9_" gradientUnits="userSpaceOnUse" x1="25" y1="23.7199" x2="25" y2="21.4412">
		<stop  offset="0" style="stop-color:#FFFFFF;stop-opacity:0"/>
		<stop  offset="1" style="stop-color:#FFFFFF;stop-opacity:0.15"/>
	</linearGradient>
	<rect x="22" y="21" fill="url(#SVGID_9_)" width="6" height="3"/>
	<linearGradient id="SVGID_10_" gradientUnits="userSpaceOnUse" x1="16" y1="27.3599" x2="16" y2="26.2206">
		<stop  offset="0" style="stop-color:#FFFFFF;stop-opacity:0"/>
		<stop  offset="1" style="stop-color:#FFFFFF;stop-opacity:0.15"/>
	</linearGradient>
	<rect x="12" y="26" fill="url(#SVGID_10_)" width="8" height="1.5"/>
	<linearGradient id="SVGID_11_" gradientUnits="userSpaceOnUse" x1="20.1479" y1="9.1021" x2="24.1144" y2="5.1356">
		<stop  offset="0" style="stop-color:#FFFFFF;stop-opacity:0"/>
		<stop  offset="0.8537" style="stop-color:#FFFFFF;stop-opacity:0.2134"/>
		<stop  offset="1" style="stop-color:#FFFFFF;stop-opacity:0.25"/>
	</linearGradient>
	<polygon fill="url(#SVGID_11_)" points="5,2 5,3 20,3 20,9 26,9 26,24.5 27,24.5 27,8 21,2 	"/>
</g>
</svg>
