<svg id="4bdceb42-843a-49ff-9df1-58515336c3b6" data-name="ICONS" xmlns="http://www.w3.org/2000/svg" xmlns:xlink="http://www.w3.org/1999/xlink" viewBox="0 0 32 32"><defs><linearGradient id="12ebd139-1e6f-4a69-95e8-6efe40645c56" x1="5.2915" y1="3.2381" x2="26.7085" y2="28.7619" gradientUnits="userSpaceOnUse"><stop offset="0" stop-color="#fff" stop-opacity="0"/><stop offset="0.86247" stop-color="#5e5e5e" stop-opacity="0.06315"/><stop offset="1" stop-opacity="0.1"/></linearGradient><linearGradient id="ad2e8d88-86be-4a94-96ea-5fc1dca24c25" x1="13.5" y1="18.5" x2="28" y2="4" gradientUnits="userSpaceOnUse"><stop offset="0" stop-color="#fff" stop-opacity="0"/><stop offset="0.44604" stop-color="#fff" stop-opacity="0.00799"/><stop offset="0.63551" stop-color="#fff" stop-opacity="0.03616"/><stop offset="0.77636" stop-color="#fff" stop-opacity="0.08493"/><stop offset="0.8924" stop-color="#fff" stop-opacity="0.15385"/><stop offset="0.99328" stop-color="#fff" stop-opacity="0.24291"/><stop offset="1" stop-color="#fff" stop-opacity="0.25"/></linearGradient></defs><title>FileTypeIcons_Master_All_NEW</title><rect x="3" y="7" width="26" height="18" fill="#fff"/><path d="M2,6V26H30V6ZM29,25H3V7H29Z" fill="#949494"/><polygon points="29 23.707 29 22.293 20.982 14.275 16.697 18.99 9 11.293 3 17.293 3 18.707 9 12.707 21.293 25 22.707 25 17.405 19.698 21.018 15.725 29 23.707" fill="#7dbab2"/><path d="M25,10a1,1,0,1,1-1,1,1.0013,1.0013,0,0,1,1-1m0-1a2,2,0,1,0,2,2,2.0001,2.0001,0,0,0-2-2Z" fill="#f5ba9d"/><rect x="2" y="6" width="28" height="20" fill="url(#12ebd139-1e6f-4a69-95e8-6efe40645c56)"/><polygon points="30 6 2 6 2 7 3 7 29 7 29 25 29 26 30 26 30 6" fill="url(#ad2e8d88-86be-4a94-96ea-5fc1dca24c25)"/></svg>