<?xml version="1.0" encoding="utf-8"?>
<!-- Generator: Adobe Illustrator 21.1.0, SVG Export Plug-In . SVG Version: 6.00 Build 0)  -->
<svg version="1.1" xmlns="http://www.w3.org/2000/svg" xmlns:xlink="http://www.w3.org/1999/xlink" x="0px" y="0px"
	 viewBox="0 0 32 32" enable-background="new 0 0 32 32" xml:space="preserve">
<g id="TEMPLATE" display="none">
	<g display="inline">
		<path fill="#D0D0D0" d="M32,0v32H0V0H32 M33-1h-1H0h-1v1v32v1h1h32h1v-1V0V-1L33-1z"/>
	</g>
	<g display="inline" opacity="0.1">
		<path fill="#FF3A6D" d="M30,2v28H2V2H30 M32,0H0v32h32V0L32,0z"/>
	</g>
</g>
<g id="ICONS">
	<g>
		<path fill="#949494" d="M25,13c1.1045,0,2-0.8955,2-2s-0.8955-2-2-2s-2,0.8955-2,2S23.8955,13,25,13z M25,10
			c0.5513,0,1,0.4487,1,1s-0.4487,1-1,1s-1-0.4487-1-1S24.4487,10,25,10z"/>
		<path fill="#949494" d="M2,6v1v19h27h1V6H2z M3,25v-6.293l6-6L21.293,25H3z M29,25h-6.293l-5.3022-5.3022l3.6128-3.9731L29,23.707
			V25z M29,22.293l-8.0176-8.0176l-4.2856,4.7144L9,11.293l-6,6V7h26V22.293z"/>
	</g>
</g>
</svg>
