<svg id="68275185-b3da-4605-9b4e-d43ec62dd444" data-name="ICONS" xmlns="http://www.w3.org/2000/svg" xmlns:xlink="http://www.w3.org/1999/xlink" viewBox="0 0 32 32"><defs><linearGradient id="6257b459-a131-41e4-979f-4ca6201f1d47" x1="15.17234" y1="13.24078" x2="28.54426" y2="30.35606" gradientUnits="userSpaceOnUse"><stop offset="0" stop-color="#fff" stop-opacity="0"/><stop offset="0.86247" stop-color="#5e5e5e" stop-opacity="0.06315"/><stop offset="1" stop-opacity="0.1"/></linearGradient><linearGradient id="50043d5d-1743-4f85-b1d6-1ebb5854fc71" x1="7.87298" y1="5.31795" x2="26.12702" y2="28.68205" xlink:href="#6257b459-a131-41e4-979f-4ca6201f1d47"/><linearGradient id="23021c5c-4aa5-40b5-ae66-9c090d7bfe81" x1="9.5" y1="26.4375" x2="9.5" y2="9.52504" gradientUnits="userSpaceOnUse"><stop offset="0" stop-color="#fff" stop-opacity="0"/><stop offset="0.52587" stop-color="#fff" stop-opacity="0.00735"/><stop offset="0.71529" stop-color="#fff" stop-opacity="0.03396"/><stop offset="0.8503" stop-color="#fff" stop-opacity="0.0803"/><stop offset="0.95875" stop-color="#fff" stop-opacity="0.14595"/><stop offset="1" stop-color="#fff" stop-opacity="0.18"/></linearGradient><linearGradient id="41be990e-6808-45d1-8eda-8049c8f39698" x1="11.28178" y1="29.35196" x2="11.61734" y2="26.21204" gradientUnits="userSpaceOnUse"><stop offset="0" stop-color="#828282" stop-opacity="0"/><stop offset="0.86247" stop-color="#303030" stop-opacity="0.12631"/><stop offset="1" stop-opacity="0.2"/></linearGradient><linearGradient id="13c9592d-62ec-4933-815a-29b144f9c931" x1="17.91811" y1="5.56256" x2="18.12848" y2="1.5484" gradientUnits="userSpaceOnUse"><stop offset="0" stop-color="#fff" stop-opacity="0"/><stop offset="0.44604" stop-color="#fff" stop-opacity="0.00799"/><stop offset="0.63551" stop-color="#fff" stop-opacity="0.03616"/><stop offset="0.77636" stop-color="#fff" stop-opacity="0.08493"/><stop offset="0.8924" stop-color="#fff" stop-opacity="0.15385"/><stop offset="0.99328" stop-color="#fff" stop-opacity="0.24291"/><stop offset="1" stop-color="#fff" stop-opacity="0.25"/></linearGradient><linearGradient id="700afe96-205b-40f3-897e-1ef6fb7ab298" x1="18" y1="29.9375" x2="18" y2="28.05834" gradientUnits="userSpaceOnUse"><stop offset="0" stop-color="#828282" stop-opacity="0"/><stop offset="0.86247" stop-color="#303030" stop-opacity="0.06315"/><stop offset="1" stop-opacity="0.1"/></linearGradient></defs><title>FileTypeIcons_Master_All_NEW</title><polygon points="27 2 7 2 7 28 9 28 9 30 29 30 29 4 27 2" fill="#fff"/><path d="M23,14a6,6,0,1,1-6-6v6Z" fill="#c8c8c8"/><rect x="16" y="22" width="8" height="1" fill="#c8c8c8"/><rect x="16" y="24" width="8" height="1" fill="#c8c8c8"/><polygon points="28 5 28 29 10 29 10 28 27 28 27 6 26 6 26 27 10 27 9 27 8 27 8 6 7 6 7 28 9 28 9 30 29 30 29 6 28 5" fill="#949494"/><polygon points="27 2 7 2 7 6 27 6 27 4 29 6 29 4 27 2" fill="#b7472a"/><path d="M18,8a5,5,0,0,1,5,5H18Z" fill="#f5ba9d"/><polygon points="3 11 16 9 16 27 3 25 3 11" fill="#b7472a"/><path d="M8.84924,19.24407V22H7V14H9.897Q13,14,13,16.54951a2.41967,2.41967,0,0,1-.89027,1.94979,3.58778,3.58778,0,0,1-2.37881.74477Zm0-3.86053v2.49373h.7271q1.4771,0,1.4771-1.26081,0-1.23292-1.4771-1.23292Z" fill="#fff"/><polygon points="9 28 9 30 29 30 29 7 28 6 28 5 27 4 27 28 9 28" fill="url(#6257b459-a131-41e4-979f-4ca6201f1d47)"/><polygon points="8.111 28 9.222 28 27 28 27 6 7 6 7 28 8.111 28" fill="url(#50043d5d-1743-4f85-b1d6-1ebb5854fc71)"/><polygon points="16 9 3 11 3 25 16 27 16 9" fill="url(#23021c5c-4aa5-40b5-ae66-9c090d7bfe81)"/><polygon points="16 29 7 29 7 25.62 16 27 16 29" fill="url(#41be990e-6808-45d1-8eda-8049c8f39698)"/><polygon points="27 2 7 2 7 6 27 6 27 4 29 6 29 4 27 2" fill="url(#13c9592d-62ec-4933-815a-29b144f9c931)"/><rect x="9" y="28" width="18" height="2" fill="url(#700afe96-205b-40f3-897e-1ef6fb7ab298)"/></svg>