<svg id="dac29165-e3f6-4666-8056-55ef5f6ba46a" data-name="ICONS" xmlns="http://www.w3.org/2000/svg" xmlns:xlink="http://www.w3.org/1999/xlink" viewBox="0 0 32 32"><defs><linearGradient id="8c22e3b4-b23d-4a89-9ee4-7b1bfdf09091" x1="5.0842" y1="3.60755" x2="27.96138" y2="30.87151" gradientUnits="userSpaceOnUse"><stop offset="0" stop-color="#fff" stop-opacity="0"/><stop offset="0.86247" stop-color="#5e5e5e" stop-opacity="0.06315"/><stop offset="1" stop-opacity="0.1"/></linearGradient><linearGradient id="063b6a8e-6841-4131-b775-8abe418b671c" x1="22.14788" y1="9.10212" x2="26.11437" y2="5.13563" gradientUnits="userSpaceOnUse"><stop offset="0" stop-color="#fff" stop-opacity="0"/><stop offset="0.44604" stop-color="#fff" stop-opacity="0.00799"/><stop offset="0.63551" stop-color="#fff" stop-opacity="0.03616"/><stop offset="0.77636" stop-color="#fff" stop-opacity="0.08493"/><stop offset="0.8924" stop-color="#fff" stop-opacity="0.15385"/><stop offset="0.99328" stop-color="#fff" stop-opacity="0.24291"/><stop offset="1" stop-color="#fff" stop-opacity="0.25"/></linearGradient><linearGradient id="359ed368-33e5-4169-b056-78b1e884e473" x1="25" y1="10.9375" x2="25" y2="9.05834" gradientUnits="userSpaceOnUse"><stop offset="0" stop-color="#828282" stop-opacity="0"/><stop offset="0.86247" stop-color="#303030" stop-opacity="0.06315"/><stop offset="1" stop-opacity="0.1"/></linearGradient></defs><title>FileTypeIcons_Master_All_NEW</title><polygon points="23 2 7 2 7 5 4 5 3 5 3 6 4 6 4 17 8 17 8 19 7 19 7 20 8 20 8 22 5 25 5 27 7 25 7 30 9 30 9 29 11 29 11 30 29 30 29 8 23 2" fill="#fff"/><rect x="4.5" y="5.5" width="14" height="11" fill="#fff"/><path d="M18,6V16H5V6H18m1-1H4V17H19V5Z" fill="gray"/><rect x="3" y="5" width="17" height="1" fill="gray"/><rect x="7" y="19" width="9" height="1" fill="gray"/><rect x="11" y="16" width="1" height="3" fill="gray"/><path d="M29,8,23,2H7V5H8V3H22V9h6V29H11v1H29ZM23,8V3.5L27.5,8Z" fill="#949494"/><polygon points="11 25 8 22 5 25 5 27 7 25 7 30 9 30 9 25 11 27 11 25" fill="#d04727"/><rect x="7" y="8" width="1" height="6" fill="#c8c8c8"/><rect x="9" y="9" width="1" height="5" fill="#f5ba9d"/><rect x="11" y="10" width="1" height="4" fill="#c8c8c8"/><rect x="13" y="11" width="1" height="3" fill="#f5ba9d"/><rect x="15" y="12" width="1" height="2" fill="#c8c8c8"/><path d="M29,8,23,2H7V30H29Z" fill="url(#8c22e3b4-b23d-4a89-9ee4-7b1bfdf09091)"/><polygon points="7 2 7 3 22 3 22 9 28 9 28 24.5 29 24.5 29 8 23 2 7 2" fill="url(#063b6a8e-6841-4131-b775-8abe418b671c)"/><rect x="22" y="9" width="6" height="2" fill="url(#359ed368-33e5-4169-b056-78b1e884e473)"/></svg>