<svg id="eadef842-505d-4d75-9c43-a1a8cb3b4b1a" data-name="ICONS" xmlns="http://www.w3.org/2000/svg" xmlns:xlink="http://www.w3.org/1999/xlink" viewBox="0 0 32 32"><defs><linearGradient id="cd645f6b-30c9-4c27-8bf2-f8904b8e86a0" x1="5.0842" y1="3.60755" x2="27.96138" y2="30.87151" gradientUnits="userSpaceOnUse"><stop offset="0" stop-color="#fff" stop-opacity="0"/><stop offset="0.86247" stop-color="#5e5e5e" stop-opacity="0.06315"/><stop offset="1" stop-opacity="0.1"/></linearGradient><linearGradient id="992fcd79-cf7c-487b-9124-e97703a5b294" x1="22.14788" y1="9.10212" x2="26.11437" y2="5.13563" gradientUnits="userSpaceOnUse"><stop offset="0" stop-color="#fff" stop-opacity="0"/><stop offset="0.44604" stop-color="#fff" stop-opacity="0.00799"/><stop offset="0.63551" stop-color="#fff" stop-opacity="0.03616"/><stop offset="0.77636" stop-color="#fff" stop-opacity="0.08493"/><stop offset="0.8924" stop-color="#fff" stop-opacity="0.15385"/><stop offset="0.99328" stop-color="#fff" stop-opacity="0.24291"/><stop offset="1" stop-color="#fff" stop-opacity="0.25"/></linearGradient><linearGradient id="c6a1496d-6eb7-4156-a84c-25e96e34abb5" x1="9.5" y1="26.4375" x2="9.5" y2="9.52504" gradientUnits="userSpaceOnUse"><stop offset="0" stop-color="#fff" stop-opacity="0"/><stop offset="0.52587" stop-color="#fff" stop-opacity="0.00735"/><stop offset="0.71529" stop-color="#fff" stop-opacity="0.03396"/><stop offset="0.8503" stop-color="#fff" stop-opacity="0.0803"/><stop offset="0.95875" stop-color="#fff" stop-opacity="0.14595"/><stop offset="1" stop-color="#fff" stop-opacity="0.18"/></linearGradient><linearGradient id="138fcd2c-8067-4056-b8d0-a2267fe58612" x1="11.28178" y1="29.35196" x2="11.61734" y2="26.21204" gradientUnits="userSpaceOnUse"><stop offset="0" stop-color="#828282" stop-opacity="0"/><stop offset="0.86247" stop-color="#303030" stop-opacity="0.12631"/><stop offset="1" stop-opacity="0.2"/></linearGradient><linearGradient id="dc661e22-a2fc-4202-a065-becf22eec0c4" x1="25" y1="10.9375" x2="25" y2="9.05834" gradientUnits="userSpaceOnUse"><stop offset="0" stop-color="#828282" stop-opacity="0"/><stop offset="0.86247" stop-color="#303030" stop-opacity="0.06315"/><stop offset="1" stop-opacity="0.1"/></linearGradient></defs><title>FileTypeIcons_Master_All_NEW</title><polygon points="28 29 8 29 8 3 23 3 28 8 28 29" fill="#fff"/><path d="M19,7a5,5,0,0,1,5,5H19Z" fill="#f5ba9d"/><path d="M23,2H7V30H29V8Zm0,1.5L27.5,8H23ZM28,29H8V3H22V9h6Z" fill="#949494"/><path d="M24,13a6,6,0,1,1-6-6v6Z" fill="#c8c8c8"/><rect x="16" y="23" width="10" height="1" fill="#c8c8c8"/><rect x="16" y="21" width="10" height="1" fill="#c8c8c8"/><rect x="16" y="25" width="10" height="1" fill="#c8c8c8"/><polygon points="3 11 16 9 16 27 3 25 3 11" fill="#b7472a"/><path d="M8.84924,19.24407V22H7V14H9.897Q13,14,13,16.54951a2.41967,2.41967,0,0,1-.89027,1.94979,3.58778,3.58778,0,0,1-2.37881.74477Zm0-3.86053v2.49373h.7271q1.4771,0,1.4771-1.26081,0-1.23292-1.4771-1.23292Z" fill="#fff"/><path d="M29,8,23,2H7V30H29Z" fill="url(#cd645f6b-30c9-4c27-8bf2-f8904b8e86a0)"/><polygon points="7 2 7 3 22 3 22 9 28 9 28 24.5 29 24.5 29 8 23 2 7 2" fill="url(#992fcd79-cf7c-487b-9124-e97703a5b294)"/><polygon points="16 9 3 11 3 25 16 27 16 9" fill="url(#c6a1496d-6eb7-4156-a84c-25e96e34abb5)"/><polygon points="16 29 7 29 7 25.62 16 27 16 29" fill="url(#138fcd2c-8067-4056-b8d0-a2267fe58612)"/><rect x="22" y="9" width="6" height="2" fill="url(#dc661e22-a2fc-4202-a065-becf22eec0c4)"/></svg>