<svg id="6cf0dc00-c077-4f8e-b848-14d110c8afda" data-name="ICONS" xmlns="http://www.w3.org/2000/svg" xmlns:xlink="http://www.w3.org/1999/xlink" viewBox="0 0 32 32"><defs><linearGradient id="26afdf1b-2c35-4e1f-b5ea-3c3e2edbc77f" x1="22.63651" y1="12.36349" x2="26.48967" y2="8.51033" gradientUnits="userSpaceOnUse"><stop offset="0" stop-color="#fff" stop-opacity="0"/><stop offset="0.44604" stop-color="#fff" stop-opacity="0.00799"/><stop offset="0.63551" stop-color="#fff" stop-opacity="0.03616"/><stop offset="0.77636" stop-color="#fff" stop-opacity="0.08493"/><stop offset="0.8924" stop-color="#fff" stop-opacity="0.15385"/><stop offset="0.99328" stop-color="#fff" stop-opacity="0.24291"/><stop offset="1" stop-color="#fff" stop-opacity="0.25"/></linearGradient><linearGradient id="8a204d12-5c2b-4d69-95ce-2c2d0a7ecd5c" x1="26" y1="14.9375" x2="26" y2="13.05834" gradientUnits="userSpaceOnUse"><stop offset="0" stop-color="#828282" stop-opacity="0"/><stop offset="0.86247" stop-color="#303030" stop-opacity="0.06315"/><stop offset="1" stop-opacity="0.1"/></linearGradient><linearGradient id="1ac17a17-40fa-45df-aeca-4cda82867ccb" x1="3.81429" y1="4.47763" x2="25.23129" y2="30.00142" gradientUnits="userSpaceOnUse"><stop offset="0" stop-color="#fff" stop-opacity="0"/><stop offset="0.86247" stop-color="#5e5e5e" stop-opacity="0.06315"/><stop offset="1" stop-opacity="0.1"/></linearGradient></defs><title>FileTypeIcons_Master_All_NEW</title><polygon points="29 25 3 25 3 7 23 7 24 7 29 12 29 13 29 25" fill="#fff"/><path d="M20,16h4.97485A5.48282,5.48282,0,0,0,20,11.04761Z" fill="#d14c32"/><path d="M19,17V11a5.51192,5.51192,0,1,0,6,6Z" fill="#c8c8c8"/><rect x="5" y="11" width="6" height="1" fill="#c8c8c8"/><rect x="5" y="13" width="6" height="1" fill="#c8c8c8"/><rect x="5" y="15" width="6" height="1" fill="#c8c8c8"/><rect x="5" y="17" width="6" height="1" fill="#c8c8c8"/><rect x="5" y="19" width="6" height="1" fill="#c8c8c8"/><rect x="5" y="21" width="6" height="1" fill="#c8c8c8"/><path d="M24,6H2V26H30V12Zm0,1.5L28.5,12H24ZM29,25H3V7H23v6h6Z" fill="#949494"/><polygon points="8 6 8 7 23 7 23 13 29 13 29 26 30 26 30 12 24 6 8 6" fill="url(#26afdf1b-2c35-4e1f-b5ea-3c3e2edbc77f)"/><rect x="23" y="13" width="6" height="2" fill="url(#8a204d12-5c2b-4d69-95ce-2c2d0a7ecd5c)"/><path d="M30,12,24,6H2V26H30Z" fill="url(#1ac17a17-40fa-45df-aeca-4cda82867ccb)"/></svg>