<svg id="c06fe9f5-8258-4ac9-8d0b-274d2c25b264" data-name="ICONS" xmlns="http://www.w3.org/2000/svg" xmlns:xlink="http://www.w3.org/1999/xlink" viewBox="0 0 32 32"><defs><linearGradient id="6da913ab-eaff-4b68-b8f3-828e847b154f" x1="5.0842" y1="3.60755" x2="27.96138" y2="30.87151" gradientUnits="userSpaceOnUse"><stop offset="0" stop-color="#fff" stop-opacity="0"/><stop offset="0.86247" stop-color="#5e5e5e" stop-opacity="0.06315"/><stop offset="1" stop-opacity="0.1"/></linearGradient><linearGradient id="6413d3ec-addb-422b-8ea2-d1351896607e" x1="22.14788" y1="9.10212" x2="26.11437" y2="5.13563" gradientUnits="userSpaceOnUse"><stop offset="0" stop-color="#fff" stop-opacity="0"/><stop offset="0.44604" stop-color="#fff" stop-opacity="0.00799"/><stop offset="0.63551" stop-color="#fff" stop-opacity="0.03616"/><stop offset="0.77636" stop-color="#fff" stop-opacity="0.08493"/><stop offset="0.8924" stop-color="#fff" stop-opacity="0.15385"/><stop offset="0.99328" stop-color="#fff" stop-opacity="0.24291"/><stop offset="1" stop-color="#fff" stop-opacity="0.25"/></linearGradient><linearGradient id="0ae77488-62ac-4266-b6c8-2c5afdddfcaf" x1="9.5" y1="26.4375" x2="9.5" y2="9.52504" gradientUnits="userSpaceOnUse"><stop offset="0" stop-color="#fff" stop-opacity="0"/><stop offset="0.52587" stop-color="#fff" stop-opacity="0.00735"/><stop offset="0.71529" stop-color="#fff" stop-opacity="0.03396"/><stop offset="0.8503" stop-color="#fff" stop-opacity="0.0803"/><stop offset="0.95875" stop-color="#fff" stop-opacity="0.14595"/><stop offset="1" stop-color="#fff" stop-opacity="0.18"/></linearGradient><linearGradient id="412a6a1d-8dda-4d09-8b28-149d67ae46b3" x1="11.28178" y1="29.35196" x2="11.61734" y2="26.21204" gradientUnits="userSpaceOnUse"><stop offset="0" stop-color="#828282" stop-opacity="0"/><stop offset="0.86247" stop-color="#303030" stop-opacity="0.12631"/><stop offset="1" stop-opacity="0.2"/></linearGradient><linearGradient id="71ecd355-e8e9-4ac4-a20b-f99f55952860" x1="25" y1="10.9375" x2="25" y2="9.05834" gradientUnits="userSpaceOnUse"><stop offset="0" stop-color="#828282" stop-opacity="0"/><stop offset="0.86247" stop-color="#303030" stop-opacity="0.06315"/><stop offset="1" stop-opacity="0.1"/></linearGradient></defs><title>FileTypeIcons_Master_All_NEW</title><polygon points="28 29 8 29 8 3 23 3 28 8 28 29" fill="#fff"/><path d="M23,2H7V30H29V8Zm0,1.5L27.5,8H23ZM28,29H8V3H22V9h6Z" fill="#949494"/><path d="M25,18v7H16V18h9m1-1H15v9H26V17Z" fill="#c8c8c8"/><path d="M21,12v5H13V12h8m1-1H12v7H22V11Z" fill="#c8c8c8"/><polygon points="3 11 16 9 16 27 3 25 3 11" fill="#077568"/><path d="M8.84924,19.24407V22H7V14H9.897Q13,14,13,16.54951a2.41967,2.41967,0,0,1-.89027,1.94979,3.58778,3.58778,0,0,1-2.37881.74477Zm0-3.86053v2.49373h.7271q1.4771,0,1.4771-1.26081,0-1.23292-1.4771-1.23292Z" fill="#fff"/><rect x="16" y="19" width="3" height="5" fill="#c8c8c8"/><rect x="20" y="19" width="4" height="1" fill="#7dbab2"/><rect x="16" y="13" width="4" height="1" fill="#7dbab2"/><rect x="16" y="15" width="4" height="1" fill="#7dbab2"/><rect x="20" y="21" width="4" height="1" fill="#7dbab2"/><rect x="20" y="23" width="4" height="1" fill="#7dbab2"/><path d="M29,8,23,2H7V30H29Z" fill="url(#6da913ab-eaff-4b68-b8f3-828e847b154f)"/><polygon points="7 2 7 3 22 3 22 9 28 9 28 24.5 29 24.5 29 8 23 2 7 2" fill="url(#6413d3ec-addb-422b-8ea2-d1351896607e)"/><polygon points="16 9 3 11 3 25 16 27 16 9" fill="url(#0ae77488-62ac-4266-b6c8-2c5afdddfcaf)"/><polygon points="16 29 7 29 7 25.62 16 27 16 29" fill="url(#412a6a1d-8dda-4d09-8b28-149d67ae46b3)"/><rect x="22" y="9" width="6" height="2" fill="url(#71ecd355-e8e9-4ac4-a20b-f99f55952860)"/></svg>