<svg id="2ed63f8a-89ee-49aa-b756-070e2d82600e" data-name="ICONS" xmlns="http://www.w3.org/2000/svg" xmlns:xlink="http://www.w3.org/1999/xlink" viewBox="0 0 32 32"><defs><linearGradient id="4198d2ed-d0a8-4f38-ae19-a27465ae7992" x1="3.0842" y1="3.60755" x2="25.96138" y2="30.87151" gradientUnits="userSpaceOnUse"><stop offset="0" stop-color="#fff" stop-opacity="0"/><stop offset="0.86247" stop-color="#5e5e5e" stop-opacity="0.06315"/><stop offset="1" stop-opacity="0.1"/></linearGradient><linearGradient id="64bcf393-feff-4e9b-a91f-5cdece89c6ce" x1="20.14788" y1="9.10212" x2="24.11437" y2="5.13563" gradientUnits="userSpaceOnUse"><stop offset="0" stop-color="#fff" stop-opacity="0"/><stop offset="0.44604" stop-color="#fff" stop-opacity="0.00799"/><stop offset="0.63551" stop-color="#fff" stop-opacity="0.03616"/><stop offset="0.77636" stop-color="#fff" stop-opacity="0.08493"/><stop offset="0.8924" stop-color="#fff" stop-opacity="0.15385"/><stop offset="0.99328" stop-color="#fff" stop-opacity="0.24291"/><stop offset="1" stop-color="#fff" stop-opacity="0.25"/></linearGradient><linearGradient id="bedf6141-5979-45b7-b96e-9ac389e6eeda" x1="23" y1="10.9375" x2="23" y2="9.05834" gradientUnits="userSpaceOnUse"><stop offset="0" stop-color="#828282" stop-opacity="0"/><stop offset="0.86247" stop-color="#303030" stop-opacity="0.06315"/><stop offset="1" stop-opacity="0.1"/></linearGradient></defs><title>FileTypeIcons_Master_All_NEW</title><polygon points="26 29 6 29 6 3 21 3 26 8 26 29" fill="#fff"/><path d="M21,2H5V30H27V8Zm0,1.5L25.5,8H21ZM26,29H6V3H20V9h6Z" fill="#949494"/><rect x="15" y="11" width="9" height="1" fill="#69afe5"/><rect x="8" y="13" width="16" height="1" fill="#0078d7"/><rect x="15" y="9" width="3" height="1" fill="#69afe5"/><path d="M13.55518,5.329l-.49537,5.42529q-.03863.37995-.03857.50025a.50121.50121,0,0,0,.07214.29333.54912.54912,0,0,0,.24781.20691,1.45677,1.45677,0,0,0,.52661.06726L13.81494,12H11.24646l.053-.178H11.41a.88627.88627,0,0,0,.50989-.13464.5862.5862,0,0,0,.21643-.303,3.74458,3.74458,0,0,0,.10095-.70227l.07691-.82727H10.44812l-.6637.89941a2.68639,2.68639,0,0,0-.28381.43531.62275.62275,0,0,0-.05774.24768.34122.34122,0,0,0,.12512.26452.6531.6531,0,0,0,.41358.12024L9.92871,12H8l.05286-.178a1.02758,1.02758,0,0,0,.62768-.238,5.98583,5.98583,0,0,0,.81043-.95471L13.38684,5.329Zm-.95227,1.60168L10.71265,9.50378h1.64013Z" fill="#0078d7"/><rect x="8" y="15" width="8" height="1" fill="#c8c8c8"/><rect x="8" y="17" width="8" height="1" fill="#c8c8c8"/><rect x="8" y="19" width="8" height="1" fill="#c8c8c8"/><rect x="8" y="21" width="16" height="1" fill="#c8c8c8"/><rect x="8" y="23" width="16" height="1" fill="#c8c8c8"/><rect x="8" y="25" width="16" height="1" fill="#c8c8c8"/><rect x="17" y="15" width="7" height="5" fill="#69afe5"/><path d="M27,8,21,2H5V30H27Z" fill="url(#4198d2ed-d0a8-4f38-ae19-a27465ae7992)"/><polygon points="5 2 5 3 20 3 20 9 26 9 26 24.5 27 24.5 27 8 21 2 5 2" fill="url(#64bcf393-feff-4e9b-a91f-5cdece89c6ce)"/><rect x="20" y="9" width="6" height="2" fill="url(#bedf6141-5979-45b7-b96e-9ac389e6eeda)"/></svg>