<svg id="f51a2822-8e27-45c7-af57-910b29c3c043" data-name="ICONS" xmlns="http://www.w3.org/2000/svg" xmlns:xlink="http://www.w3.org/1999/xlink" viewBox="0 0 32 32"><defs><linearGradient id="eab633bb-d18c-4c4f-a227-c9341f096cff" x1="6.76871" y1="4.99858" x2="26.7085" y2="28.7619" gradientUnits="userSpaceOnUse"><stop offset="0" stop-opacity="0"/><stop offset="0.86247" stop-opacity="0.12631"/><stop offset="1" stop-opacity="0.2"/></linearGradient><linearGradient id="2ec42344-1cbc-4cac-b25d-f802ba09db38" x1="23.44388" y1="5.42641" x2="22.83938" y2="12.3359" gradientUnits="userSpaceOnUse"><stop offset="0" stop-color="#828282" stop-opacity="0"/><stop offset="0.85866" stop-color="#454545" stop-opacity="0.1171"/><stop offset="1" stop-opacity="0.25"/></linearGradient><linearGradient id="fc0bbdb0-5469-4654-834a-d7475cbf544f" x1="4.5" y1="25.35993" x2="4.5" y2="24.22059" gradientUnits="userSpaceOnUse"><stop offset="0" stop-color="#828282" stop-opacity="0"/><stop offset="0.99719" stop-opacity="0.1"/></linearGradient><linearGradient id="b0b19c69-a8b3-4787-b68a-cc8417ab712b" x1="9.5" y1="25.35993" x2="9.5" y2="24.22059" xlink:href="#fc0bbdb0-5469-4654-834a-d7475cbf544f"/><linearGradient id="f1cac299-f42a-42ff-8046-02998de6a065" x1="13.5" y1="21.35993" x2="13.5" y2="20.22059" xlink:href="#fc0bbdb0-5469-4654-834a-d7475cbf544f"/><linearGradient id="90dfa7c7-e748-4cc5-bb93-7b1f326e726b" x1="7" y1="20.97917" x2="7" y2="19.01541" xlink:href="#fc0bbdb0-5469-4654-834a-d7475cbf544f"/><linearGradient id="1e318454-6b24-4285-8e97-2ee9b67f5585" x1="11" y1="16.97917" x2="11" y2="15.01541" xlink:href="#fc0bbdb0-5469-4654-834a-d7475cbf544f"/><linearGradient id="209310d5-6c9a-4cd7-be2c-d1bfa0f014ee" x1="11" y1="21.95833" x2="11" y2="18.03082" xlink:href="#fc0bbdb0-5469-4654-834a-d7475cbf544f"/><linearGradient id="2f129819-72a5-4ab6-936c-2ea394280581" x1="7" y1="25.95833" x2="7" y2="22.03082" xlink:href="#fc0bbdb0-5469-4654-834a-d7475cbf544f"/><linearGradient id="975a1f5c-375a-4a30-90a6-5d392dd97101" x1="12.40625" y1="17.40625" x2="9.57181" y2="14.57181" gradientUnits="userSpaceOnUse"><stop offset="0" stop-color="#fff" stop-opacity="0"/><stop offset="0.20669" stop-color="#fff" stop-opacity="0.01635"/><stop offset="0.4209" stop-color="#fff" stop-opacity="0.06512"/><stop offset="0.63854" stop-color="#fff" stop-opacity="0.14638"/><stop offset="0.85718" stop-color="#fff" stop-opacity="0.25942"/><stop offset="1" stop-color="#fff" stop-opacity="0.35"/></linearGradient><linearGradient id="cf5646ff-11a4-4a24-a1aa-b8477690d0e7" x1="8.40625" y1="21.40625" x2="5.57181" y2="18.57181" xlink:href="#975a1f5c-375a-4a30-90a6-5d392dd97101"/></defs><title>FileTypeIcons_Master_All_NEW</title><polygon points="2 26 2 9 16 9 19 6 30 6 30 26 2 26" fill="#a6a6a6"/><polygon points="19 6 16 9 19 12 30 12 30 6 19 6" fill="#828282"/><polygon points="2 26 2 9 16 9 19 6 30 6 30 26 2 26" fill="url(#eab633bb-d18c-4c4f-a227-c9341f096cff)"/><polygon points="19 6 16 9 19 12 30 12 30 6 19 6" fill="url(#2ec42344-1cbc-4cac-b25d-f802ba09db38)"/><polygon points="30 12 30 12.5 18.771 12.5 15.25 9 16 9 19.021 12 30 12" fill="#fff" opacity="0.15"/><path d="M12.43964,17.3833a2,2,0,1,0-2.87928,0,3.03586,3.03586,0,0,0-1.1795,1.17505,1.9963,1.9963,0,0,0-2.8205,2.82495A2.987,2.987,0,0,0,4,24H5a2,2,0,0,1,4,0h1a2.987,2.987,0,0,0-1.56036-2.6167A1.98969,1.98969,0,0,0,9,20a2,2,0,0,1,4,0h1A2.987,2.987,0,0,0,12.43964,17.3833ZM7,21a1,1,0,1,1,1-1A1.00107,1.00107,0,0,1,7,21Zm4-4a1,1,0,1,1,1-1A1.00107,1.00107,0,0,1,11,17Z" fill="#eaeaea"/><rect x="4" y="24" width="1" height="1.5" fill="url(#fc0bbdb0-5469-4654-834a-d7475cbf544f)"/><rect x="9" y="24" width="1" height="1.5" fill="url(#b0b19c69-a8b3-4787-b68a-cc8417ab712b)"/><rect x="13" y="20" width="1" height="1.5" fill="url(#f1cac299-f42a-42ff-8046-02998de6a065)"/><circle cx="7" cy="20" r="1" fill="url(#90dfa7c7-e748-4cc5-bb93-7b1f326e726b)"/><circle cx="11" cy="16" r="1" fill="url(#1e318454-6b24-4285-8e97-2ee9b67f5585)"/><circle cx="11" cy="20" r="2" fill="url(#209310d5-6c9a-4cd7-be2c-d1bfa0f014ee)"/><circle cx="7" cy="24" r="2" fill="url(#2f129819-72a5-4ab6-936c-2ea394280581)"/><path d="M11,15a1,1,0,1,1-1,1,1.00115,1.00115,0,0,1,1-1m0-1a2,2,0,1,0,2,2,2,2,0,0,0-2-2Z" fill="url(#975a1f5c-375a-4a30-90a6-5d392dd97101)"/><path d="M7,19a1,1,0,1,1-1,1,1.00115,1.00115,0,0,1,1-1m0-1a2,2,0,1,0,2,2,2,2,0,0,0-2-2Z" fill="url(#cf5646ff-11a4-4a24-a1aa-b8477690d0e7)"/></svg>