<?xml version="1.0" encoding="utf-8"?>
<!-- Generator: Adobe Illustrator 22.0.1, SVG Export Plug-In . SVG Version: 6.00 Build 0)  -->
<svg version="1.1" xmlns="http://www.w3.org/2000/svg" xmlns:xlink="http://www.w3.org/1999/xlink" x="0px" y="0px"
	 viewBox="0 0 32 32" enable-background="new 0 0 32 32" xml:space="preserve">
<g id="TEMPLATE" display="none">
	<g display="inline">
		<path fill="#D0D0D0" d="M32,0v32H0V0H32 M33-1h-1H0h-1v1v32v1h1h32h1v-1V0V-1L33-1z"/>
	</g>
	<rect display="inline" fill="none" width="32" height="32"/>
	<g display="inline" opacity="0.1">
		<path fill="#FF3A6D" d="M30,2v28H2V2H30 M32,0H0v32h32V0L32,0z"/>
	</g>
</g>
<g id="ICONS">
	<polygon fill="#FFFFFF" points="29,25 3,25 3,7 23,7 24,7 29,12 29,13 	"/>
	
		<rect x="10.0001" y="10.0006" transform="matrix(-1 -2.471675e-07 2.471675e-07 -1 24.0004 21.0002)" fill="#C8C8C8" width="4.0001" height="0.9989"/>
	
		<rect x="10.0001" y="12.0006" transform="matrix(-1 -2.471675e-07 2.471675e-07 -1 24.0004 25.0002)" fill="#C8C8C8" width="4.0001" height="0.9989"/>
	
		<rect x="10.0001" y="14.0006" transform="matrix(-1 -2.471675e-07 2.471675e-07 -1 24.0004 29.0002)" fill="#C8C8C8" width="4.0001" height="0.9989"/>
	
		<rect x="10.0001" y="16.0006" transform="matrix(-1 -2.471675e-07 2.471675e-07 -1 24.0004 33.0002)" fill="#C8C8C8" width="4.0001" height="0.9989"/>
	
		<rect x="10.0001" y="18.0006" transform="matrix(-1 -2.471675e-07 2.471675e-07 -1 24.0004 37.0002)" fill="#C8C8C8" width="4.0001" height="0.9989"/>
	
		<rect x="10.0001" y="20.0006" transform="matrix(-1 -2.471675e-07 2.471675e-07 -1 24.0004 41.0002)" fill="#C8C8C8" width="4.0001" height="0.9989"/>
	
		<rect x="15.0001" y="10.0006" transform="matrix(-1 -2.471675e-07 2.471675e-07 -1 34.0004 21.0002)" fill="#C8C8C8" width="4.0001" height="0.9989"/>
	
		<rect x="15.0001" y="12.0006" transform="matrix(-1 -2.471675e-07 2.471675e-07 -1 34.0004 25.0002)" fill="#C8C8C8" width="4.0001" height="0.9989"/>
	
		<rect x="15.0001" y="14.0006" transform="matrix(-1 -2.471675e-07 2.471675e-07 -1 34.0004 29.0002)" fill="#C8C8C8" width="4.0001" height="0.9989"/>
	
		<rect x="15.0001" y="16.0006" transform="matrix(-1 -2.471675e-07 2.471675e-07 -1 34.0004 33.0002)" fill="#C8C8C8" width="4.0001" height="0.9989"/>
	
		<rect x="15.0001" y="18.0006" transform="matrix(-1 -2.471675e-07 2.471675e-07 -1 34.0004 37.0002)" fill="#C8C8C8" width="4.0001" height="0.9989"/>
	
		<rect x="15.0001" y="20.0006" transform="matrix(-1 -2.471675e-07 2.471675e-07 -1 34.0004 41.0002)" fill="#C8C8C8" width="4.0001" height="0.9989"/>
	
		<rect x="20.0001" y="10.0006" transform="matrix(-1 -2.471675e-07 2.471675e-07 -1 44.0004 21.0002)" fill="#C8C8C8" width="4.0001" height="0.9989"/>
	
		<rect x="20.0001" y="12.0006" transform="matrix(-1 -2.471675e-07 2.471675e-07 -1 44.0004 25.0002)" fill="#C8C8C8" width="4.0001" height="0.9989"/>
	
		<rect x="20.0001" y="14.0006" transform="matrix(-1 -2.471675e-07 2.471675e-07 -1 44.0004 29.0002)" fill="#C8C8C8" width="4.0001" height="0.9989"/>
	
		<rect x="20.0001" y="16.0006" transform="matrix(-1 -2.471675e-07 2.471675e-07 -1 44.0004 33.0002)" fill="#C8C8C8" width="4.0001" height="0.9989"/>
	
		<rect x="20.0001" y="18.0006" transform="matrix(-1 -2.471675e-07 2.471675e-07 -1 44.0004 37.0002)" fill="#C8C8C8" width="4.0001" height="0.9989"/>
	
		<rect x="20.0001" y="20.0006" transform="matrix(-1 -2.471675e-07 2.471675e-07 -1 44.0004 41.0002)" fill="#C8C8C8" width="4.0001" height="0.9989"/>
	<path fill="#949494" d="M24,6H2v20h28V12L24,6z M24,7.5l4.5,4.5H24V7.5z M29,25H3V7h20v6h6V25z"/>
	
		<rect x="5.0001" y="10.0006" transform="matrix(-1 -2.471675e-07 2.471675e-07 -1 14.0004 21.0002)" fill="#217346" width="4.0001" height="0.9989"/>
	
		<rect x="5.0001" y="12.0006" transform="matrix(-1 -2.471675e-07 2.471675e-07 -1 14.0004 25.0002)" fill="#217346" width="4.0001" height="0.9989"/>
	
		<rect x="5.0001" y="14.0006" transform="matrix(-1 -2.471675e-07 2.471675e-07 -1 14.0004 29.0002)" fill="#217346" width="4.0001" height="0.9989"/>
	
		<rect x="5.0001" y="16.0006" transform="matrix(-1 -2.471675e-07 2.471675e-07 -1 14.0004 33.0002)" fill="#217346" width="4.0001" height="0.9989"/>
	
		<rect x="5.0001" y="18.0006" transform="matrix(-1 -2.471675e-07 2.471675e-07 -1 14.0004 37.0002)" fill="#217346" width="4.0001" height="0.9989"/>
	
		<rect x="5.0001" y="20.0006" transform="matrix(-1 -2.471675e-07 2.471675e-07 -1 14.0004 41.0002)" fill="#217346" width="4.0001" height="0.9989"/>
	
		<rect x="10.0001" y="22.0006" transform="matrix(-1 -2.471675e-07 2.471675e-07 -1 24.0004 45.0002)" fill="#C8C8C8" width="4.0001" height="0.9989"/>
	
		<rect x="15.0001" y="22.0006" transform="matrix(-1 -2.471675e-07 2.471675e-07 -1 34.0004 45.0002)" fill="#C8C8C8" width="4.0001" height="0.9989"/>
	
		<rect x="20.0001" y="22.0006" transform="matrix(-1 -2.471675e-07 2.471675e-07 -1 44.0004 45.0002)" fill="#C8C8C8" width="4.0001" height="0.9989"/>
	
		<rect x="5.0001" y="22.0006" transform="matrix(-1 -2.471675e-07 2.471675e-07 -1 14.0004 45.0002)" fill="#217346" width="4.0001" height="0.9989"/>
	<linearGradient id="SVGID_1_" gradientUnits="userSpaceOnUse" x1="3.8143" y1="4.4776" x2="25.2313" y2="30.0014">
		<stop  offset="0" style="stop-color:#FFFFFF;stop-opacity:0"/>
		<stop  offset="0.2264" style="stop-color:#FCFCFC;stop-opacity:0.0226"/>
		<stop  offset="0.3626" style="stop-color:#F4F4F4;stop-opacity:0.0363"/>
		<stop  offset="0.475" style="stop-color:#E6E6E6;stop-opacity:0.0475"/>
		<stop  offset="0.5744" style="stop-color:#D1D1D1;stop-opacity:0.0574"/>
		<stop  offset="0.6652" style="stop-color:#B7B7B7;stop-opacity:0.0665"/>
		<stop  offset="0.7498" style="stop-color:#979797;stop-opacity:0.075"/>
		<stop  offset="0.8297" style="stop-color:#707070;stop-opacity:0.083"/>
		<stop  offset="0.9057" style="stop-color:#444444;stop-opacity:0.0906"/>
		<stop  offset="0.9761" style="stop-color:#121212;stop-opacity:0.0976"/>
		<stop  offset="1" style="stop-color:#000000;stop-opacity:0.1"/>
	</linearGradient>
	<path fill="url(#SVGID_1_)" d="M30,12l-6-6H2v20h28V12z"/>
	<linearGradient id="SVGID_2_" gradientUnits="userSpaceOnUse" x1="22.6365" y1="12.3635" x2="26.4897" y2="8.5103">
		<stop  offset="0" style="stop-color:#FFFFFF;stop-opacity:0"/>
		<stop  offset="0.8537" style="stop-color:#FFFFFF;stop-opacity:0.2134"/>
		<stop  offset="1" style="stop-color:#FFFFFF;stop-opacity:0.25"/>
	</linearGradient>
	<polygon fill="url(#SVGID_2_)" points="8,6 8,7 23,7 23,13 29,13 29,26 30,26 30,12 24,6 	"/>
	<linearGradient id="SVGID_3_" gradientUnits="userSpaceOnUse" x1="26" y1="14.9375" x2="26" y2="13.0583">
		<stop  offset="0" style="stop-color:#828282;stop-opacity:0"/>
		<stop  offset="0.2812" style="stop-color:#7F7F7F;stop-opacity:0.0281"/>
		<stop  offset="0.4503" style="stop-color:#777777;stop-opacity:0.045"/>
		<stop  offset="0.5899" style="stop-color:#696969;stop-opacity:0.059"/>
		<stop  offset="0.7133" style="stop-color:#545454;stop-opacity:0.0713"/>
		<stop  offset="0.8259" style="stop-color:#3A3A3A;stop-opacity:0.0826"/>
		<stop  offset="0.9294" style="stop-color:#1A1A1A;stop-opacity:0.0929"/>
		<stop  offset="1" style="stop-color:#000000;stop-opacity:0.1"/>
	</linearGradient>
	<rect x="23" y="13" fill="url(#SVGID_3_)" width="6" height="2"/>
</g>
</svg>
