<svg id="c011a532-7241-4c0e-abf0-f09ca616db89" data-name="ICONS" xmlns="http://www.w3.org/2000/svg" xmlns:xlink="http://www.w3.org/1999/xlink" viewBox="0 0 32 32"><defs><linearGradient id="584ab8c1-e9a7-41f3-a13a-2cfc4d2ad7c0" x1="3.81429" y1="4.47763" x2="25.23129" y2="30.00142" gradientUnits="userSpaceOnUse"><stop offset="0" stop-color="#fff" stop-opacity="0"/><stop offset="0.86247" stop-color="#5e5e5e" stop-opacity="0.06315"/><stop offset="1" stop-opacity="0.1"/></linearGradient><linearGradient id="bf62cadf-c34e-457b-96e3-9960092ae8cf" x1="22.63651" y1="12.36349" x2="26.48967" y2="8.51033" gradientUnits="userSpaceOnUse"><stop offset="0" stop-color="#fff" stop-opacity="0"/><stop offset="0.44604" stop-color="#fff" stop-opacity="0.00799"/><stop offset="0.63551" stop-color="#fff" stop-opacity="0.03616"/><stop offset="0.77636" stop-color="#fff" stop-opacity="0.08493"/><stop offset="0.8924" stop-color="#fff" stop-opacity="0.15385"/><stop offset="0.99328" stop-color="#fff" stop-opacity="0.24291"/><stop offset="1" stop-color="#fff" stop-opacity="0.25"/></linearGradient><linearGradient id="82296c1a-c01f-4b79-9588-0dc26ef27f37" x1="26" y1="14.9375" x2="26" y2="13.05834" gradientUnits="userSpaceOnUse"><stop offset="0" stop-color="#828282" stop-opacity="0"/><stop offset="0.86247" stop-color="#303030" stop-opacity="0.06315"/><stop offset="1" stop-opacity="0.1"/></linearGradient></defs><title>FileTypeIcons_Master_All_NEW</title><polygon points="29 25 3 25 3 7 23 7 24 7 29 12 29 13 29 25" fill="#fff"/><rect x="10.00015" y="10.00063" width="4.00008" height="0.99894" transform="translate(24.00037 21.00021) rotate(-179.99999)" fill="#c8c8c8"/><rect x="10.00015" y="12.00063" width="4.00008" height="0.99894" transform="translate(24.00037 25.00021) rotate(-179.99999)" fill="#c8c8c8"/><rect x="10.00015" y="14.00063" width="4.00008" height="0.99894" transform="translate(24.00037 29.00021) rotate(-179.99999)" fill="#c8c8c8"/><rect x="10.00015" y="16.00063" width="4.00008" height="0.99894" transform="translate(24.00037 33.00021) rotate(-179.99999)" fill="#c8c8c8"/><rect x="10.00015" y="18.00063" width="4.00008" height="0.99894" transform="translate(24.00037 37.00021) rotate(-179.99999)" fill="#c8c8c8"/><rect x="10.00015" y="20.00063" width="4.00008" height="0.99894" transform="translate(24.00037 41.00021) rotate(-179.99999)" fill="#c8c8c8"/><rect x="15.00015" y="10.00063" width="4.00008" height="0.99894" transform="translate(34.00037 21.00021) rotate(-179.99999)" fill="#c8c8c8"/><rect x="15.00015" y="12.00063" width="4.00008" height="0.99894" transform="translate(34.00037 25.00021) rotate(-179.99999)" fill="#c8c8c8"/><rect x="15.00015" y="14.00063" width="4.00008" height="0.99894" transform="translate(34.00037 29.00021) rotate(-179.99999)" fill="#c8c8c8"/><rect x="15.00015" y="16.00063" width="4.00008" height="0.99894" transform="translate(34.00037 33.00021) rotate(-179.99999)" fill="#c8c8c8"/><rect x="15.00015" y="18.00063" width="4.00008" height="0.99894" transform="translate(34.00037 37.00021) rotate(-179.99999)" fill="#c8c8c8"/><rect x="15.00015" y="20.00063" width="4.00008" height="0.99894" transform="translate(34.00037 41.00021) rotate(-179.99999)" fill="#c8c8c8"/><rect x="20.00015" y="10.00063" width="4.00008" height="0.99894" transform="translate(44.00037 21.00021) rotate(-179.99999)" fill="#c8c8c8"/><rect x="20.00015" y="12.00063" width="4.00008" height="0.99894" transform="translate(44.00037 25.00021) rotate(-179.99999)" fill="#c8c8c8"/><rect x="20.00015" y="14.00063" width="4.00008" height="0.99894" transform="translate(44.00037 29.00021) rotate(-179.99999)" fill="#c8c8c8"/><rect x="20.00015" y="16.00063" width="4.00008" height="0.99894" transform="translate(44.00037 33.00021) rotate(-179.99999)" fill="#c8c8c8"/><rect x="20.00015" y="18.00063" width="4.00008" height="0.99894" transform="translate(44.00037 37.00021) rotate(-179.99999)" fill="#c8c8c8"/><rect x="20.00015" y="20.00063" width="4.00008" height="0.99894" transform="translate(44.00037 41.00021) rotate(-179.99999)" fill="#c8c8c8"/><path d="M24,6H2V26H30V12Zm0,1.5L28.5,12H24ZM29,25H3V7H23v6h6Z" fill="#949494"/><rect x="5.00015" y="10.00063" width="4.00008" height="0.99894" transform="translate(14.00037 21.0002) rotate(-179.99999)" fill="#217346"/><rect x="5.00015" y="12.00063" width="4.00008" height="0.99894" transform="translate(14.00037 25.0002) rotate(-179.99999)" fill="#217346"/><rect x="5.00015" y="14.00063" width="4.00008" height="0.99894" transform="translate(14.00037 29.0002) rotate(-179.99999)" fill="#217346"/><rect x="5.00015" y="16.00063" width="4.00008" height="0.99894" transform="translate(14.00037 33.0002) rotate(-179.99999)" fill="#217346"/><rect x="5.00015" y="18.00063" width="4.00008" height="0.99894" transform="translate(14.00037 37.0002) rotate(-179.99999)" fill="#217346"/><rect x="5.00015" y="20.00063" width="4.00008" height="0.99894" transform="translate(14.00037 41.0002) rotate(-179.99999)" fill="#217346"/><rect x="10.00015" y="22.00063" width="4.00008" height="0.99894" transform="translate(24.00037 45.00021) rotate(-179.99999)" fill="#c8c8c8"/><rect x="15.00015" y="22.00063" width="4.00008" height="0.99894" transform="translate(34.00037 45.00021) rotate(-179.99999)" fill="#c8c8c8"/><rect x="20.00015" y="22.00063" width="4.00008" height="0.99894" transform="translate(44.00037 45.00021) rotate(-179.99999)" fill="#c8c8c8"/><rect x="5.00015" y="22.00063" width="4.00008" height="0.99894" transform="translate(14.00037 45.0002) rotate(-179.99999)" fill="#217346"/><path d="M30,12,24,6H2V26H30Z" fill="url(#584ab8c1-e9a7-41f3-a13a-2cfc4d2ad7c0)"/><polygon points="8 6 8 7 23 7 23 13 29 13 29 26 30 26 30 12 24 6 8 6" fill="url(#bf62cadf-c34e-457b-96e3-9960092ae8cf)"/><rect x="23" y="13" width="6" height="2" fill="url(#82296c1a-c01f-4b79-9588-0dc26ef27f37)"/></svg>