<svg id="e10693ef-0d6d-46fd-b772-7e42d5886cb9" data-name="ICONS" xmlns="http://www.w3.org/2000/svg" xmlns:xlink="http://www.w3.org/1999/xlink" viewBox="0 0 32 32"><defs><linearGradient id="bd0e7d6c-f2c4-4da9-bb5a-d35f33175a65" x1="5.0842" y1="3.60755" x2="27.96138" y2="30.87151" gradientUnits="userSpaceOnUse"><stop offset="0" stop-color="#fff" stop-opacity="0"/><stop offset="0.86247" stop-color="#5e5e5e" stop-opacity="0.06315"/><stop offset="1" stop-opacity="0.1"/></linearGradient><linearGradient id="56681129-47ff-409e-8705-632864a53964" x1="22.14788" y1="9.10212" x2="26.11437" y2="5.13563" gradientUnits="userSpaceOnUse"><stop offset="0" stop-color="#fff" stop-opacity="0"/><stop offset="0.44604" stop-color="#fff" stop-opacity="0.00799"/><stop offset="0.63551" stop-color="#fff" stop-opacity="0.03616"/><stop offset="0.77636" stop-color="#fff" stop-opacity="0.08493"/><stop offset="0.8924" stop-color="#fff" stop-opacity="0.15385"/><stop offset="0.99328" stop-color="#fff" stop-opacity="0.24291"/><stop offset="1" stop-color="#fff" stop-opacity="0.25"/></linearGradient><linearGradient id="bfe2fef9-68df-48d5-a04b-d38ff10c95c0" x1="9.5" y1="26.4375" x2="9.5" y2="9.52504" gradientUnits="userSpaceOnUse"><stop offset="0" stop-color="#fff" stop-opacity="0"/><stop offset="0.52587" stop-color="#fff" stop-opacity="0.00735"/><stop offset="0.71529" stop-color="#fff" stop-opacity="0.03396"/><stop offset="0.8503" stop-color="#fff" stop-opacity="0.0803"/><stop offset="0.95875" stop-color="#fff" stop-opacity="0.14595"/><stop offset="1" stop-color="#fff" stop-opacity="0.18"/></linearGradient><linearGradient id="96841224-2ade-4094-8d18-130c5bb78483" x1="11.28178" y1="29.35196" x2="11.61734" y2="26.21204" gradientUnits="userSpaceOnUse"><stop offset="0" stop-color="#828282" stop-opacity="0"/><stop offset="0.86247" stop-color="#303030" stop-opacity="0.12631"/><stop offset="1" stop-opacity="0.2"/></linearGradient><linearGradient id="bbe79456-2d5c-41a4-872b-c5933bd522c3" x1="25" y1="10.9375" x2="25" y2="9.05834" gradientUnits="userSpaceOnUse"><stop offset="0" stop-color="#828282" stop-opacity="0"/><stop offset="0.86247" stop-color="#303030" stop-opacity="0.06315"/><stop offset="1" stop-opacity="0.1"/></linearGradient></defs><title>FileTypeIcons_Master_All_NEW</title><polygon points="28 29 8 29 8 3 23 3 28 8 28 29" fill="#fff"/><polygon points="17.5 13 12 20 23 20 17.5 13" fill="#99cdc7"/><path d="M23,2H7V30H29V8Zm0,1.5L27.5,8H23ZM28,29H8V3H22V9h6Z" fill="#949494"/><polygon points="3 11 16 9 16 27 3 25 3 11" fill="#008272"/><path d="M7.03049,21.56844V19.84221a3.08627,3.08627,0,0,0,.96036.5907,2.92726,2.92726,0,0,0,1.04675.19689,2.19253,2.19253,0,0,0,.54116-.05933,1.227,1.227,0,0,0,.38618-.16454.69925.69925,0,0,0,.2312-.24814.64912.64912,0,0,0,.07622-.31018.699.699,0,0,0-.12195-.40459,1.34777,1.34777,0,0,0-.33283-.32906,3.42144,3.42144,0,0,0-.50051-.2913q-.28963-.14026-.625-.28591a3.19412,3.19412,0,0,1-1.27286-.92245A2.09445,2.09445,0,0,1,7,16.298a2.20164,2.20164,0,0,1,.22866-1.03843,2.02,2.02,0,0,1,.62246-.71477,2.70868,2.70868,0,0,1,.91209-.41268A4.42724,4.42724,0,0,1,9.86077,14a6.225,6.225,0,0,1,1.00864.07283,3.783,3.783,0,0,1,.81047.22387v1.61294a2.41462,2.41462,0,0,0-.39888-.23735,3.04213,3.04213,0,0,0-.44462-.16993,3.22071,3.22071,0,0,0-.45477-.0998,3.03476,3.03476,0,0,0-.42937-.03236,2.11454,2.11454,0,0,0-.50813.05664,1.2596,1.2596,0,0,0-.38618.15913.76718.76718,0,0,0-.24391.24545.60855.60855,0,0,0-.08638.321.64053.64053,0,0,0,.09655.348,1.14477,1.14477,0,0,0,.27439.2913,2.8796,2.8796,0,0,0,.43191.26972q.25405.13217.57418.27242a6.25626,6.25626,0,0,1,.78507.41268,2.82141,2.82141,0,0,1,.597.49359,1.94021,1.94021,0,0,1,.3811.62846A2.34374,2.34374,0,0,1,12,19.69117a2.31542,2.31542,0,0,1-.2312,1.087,1.95019,1.95019,0,0,1-.62754.71207,2.63329,2.63329,0,0,1-.92226.3911A5.03185,5.03185,0,0,1,9.10874,22,5.8253,5.8253,0,0,1,7.968,21.89211,3.30587,3.30587,0,0,1,7.03049,21.56844Z" fill="#fff"/><polygon points="22.5 15 19 20 26 20 22.5 15" fill="#99cdc7"/><rect x="16" y="21" width="4" height="1" fill="#c8c8c8"/><rect x="16" y="25" width="4" height="1" fill="#c8c8c8"/><rect x="21" y="21" width="5" height="1" fill="#c8c8c8"/><rect x="16" y="23" width="4" height="1" fill="#c8c8c8"/><rect x="21" y="23" width="5" height="1" fill="#c8c8c8"/><rect x="21" y="25" width="5" height="1" fill="#c8c8c8"/><rect x="23" y="11" width="2" height="2" rx="1" ry="1" fill="#99cdc7"/><path d="M29,8,23,2H7V30H29Z" fill="url(#bd0e7d6c-f2c4-4da9-bb5a-d35f33175a65)"/><polygon points="7 2 7 3 22 3 22 9 28 9 28 24.5 29 24.5 29 8 23 2 7 2" fill="url(#56681129-47ff-409e-8705-632864a53964)"/><polygon points="16 9 3 11 3 25 16 27 16 9" fill="url(#bfe2fef9-68df-48d5-a04b-d38ff10c95c0)"/><polygon points="16 29 7 29 7 25.62 16 27 16 29" fill="url(#96841224-2ade-4094-8d18-130c5bb78483)"/><rect x="22" y="9" width="6" height="2" fill="url(#bbe79456-2d5c-41a4-872b-c5933bd522c3)"/></svg>