<?xml version="1.0" encoding="utf-8"?>
<!-- Generator: Adobe Illustrator 21.1.0, SVG Export Plug-In . SVG Version: 6.00 Build 0)  -->
<svg version="1.1" xmlns="http://www.w3.org/2000/svg" xmlns:xlink="http://www.w3.org/1999/xlink" x="0px" y="0px"
	 viewBox="0 0 32 32" enable-background="new 0 0 32 32" xml:space="preserve">
<g id="TEMPLATE" display="none">
	<g display="inline">
		<path fill="#D0D0D0" d="M32,0v32H0V0H32 M33-1h-1H0h-1v1v32v1h1h32h1v-1V0V-1L33-1z"/>
	</g>
	<g display="inline" opacity="0.1">
		<path fill="#FF3A6D" d="M30,2v28H2V2H30 M32,0H0v32h32V0L32,0z"/>
	</g>
</g>
<g id="ICONS">
	<g>
		<polygon fill="#FFFFFF" points="26,29 6,29 6,3 21,3 26,8 		"/>
		<path fill="#949494" d="M21,2H5v28h22V8L21,2z M21,3.5L25.5,8H21V3.5z M26,29H6V3h14v6h6V29z"/>
	</g>
	<g>
		<path fill="#C8C8C8" d="M16.7279,14.8232c0,0.0295,0.0007,0.0589,0.0025,0.0884c0.0017,0.0295,0.0025,0.0589,0.0025,0.0884
			s-0.0007,0.0589-0.0025,0.0884c-0.0017,0.0295-0.0025,0.0589-0.0025,0.0884L18,15.9676l-0.7809,1.8811l-1.4587-0.334
			c-0.0786,0.0852-0.1604,0.167-0.2456,0.2456l0.334,1.4587L13.9676,20l-0.7908-1.2721c-0.0295,0-0.0589,0.0007-0.0884,0.0025
			c-0.0295,0.0017-0.0589,0.0025-0.0884,0.0025s-0.0589-0.0007-0.0884-0.0025c-0.0295-0.0017-0.0589-0.0025-0.0884-0.0025
			L12.0324,20l-1.8811-0.7809l0.334-1.4587c-0.0852-0.0786-0.167-0.1604-0.2456-0.2456l-1.4587,0.334L8,15.9676l1.2721-0.7908
			c0-0.0295-0.0007-0.0589-0.0025-0.0884C9.2679,15.0589,9.2672,15.0295,9.2672,15s0.0007-0.0589,0.0025-0.0884
			c0.0017-0.0295,0.0025-0.0589,0.0025-0.0884L8,14.0324l0.7809-1.8811l1.4587,0.334c0.0786-0.0852,0.1604-0.167,0.2456-0.2456
			l-0.334-1.4587L12.0324,10l0.7908,1.2721c0.0295,0,0.0589-0.0007,0.0884-0.0025c0.0295-0.0017,0.0589-0.0025,0.0884-0.0025
			s0.0589,0.0007,0.0884,0.0025c0.0295,0.0017,0.0589,0.0025,0.0884,0.0025L13.9676,10l1.8811,0.7809l-0.334,1.4587
			c0.0852,0.0786,0.167,0.1604,0.2456,0.2456l1.4587-0.334L18,14.0324L16.7279,14.8232z M16.1532,15.4617
			c0.0066-0.0786,0.013-0.1564,0.0196-0.2333s0.0098-0.1547,0.0098-0.2333c0-0.0754-0.0032-0.1523-0.0098-0.2308
			c-0.0066-0.0786-0.013-0.1555-0.0196-0.2308l1.1591-0.722L16.89,12.7898l-1.331,0.3094
			c-0.1014-0.1245-0.2056-0.2389-0.3119-0.3438s-0.2218-0.2095-0.3463-0.3143l0.3094-1.331l-1.0216-0.4224l-0.7269,1.1591
			c-0.0754-0.0066-0.1523-0.013-0.2308-0.0196S13.0754,11.8173,13,11.8173c-0.0786,0-0.1564,0.0032-0.2333,0.0098
			c-0.0769,0.0066-0.1547,0.013-0.2333,0.0196l-0.722-1.1591L10.7898,11.11l0.3094,1.331
			c-0.1245,0.1014-0.2389,0.2056-0.3438,0.3119s-0.2095,0.2218-0.3143,0.3463L9.11,12.7898l-0.4224,1.0216l1.1591,0.7269
			c-0.0066,0.0786-0.013,0.1564-0.0196,0.2333s-0.0098,0.1547-0.0098,0.2333c0,0.0754,0.0032,0.1523,0.0098,0.2308
			c0.0066,0.0786,0.013,0.1555,0.0196,0.2308l-1.1591,0.722L9.11,17.2102l1.331-0.3094c0.1014,0.1245,0.2056,0.2389,0.3119,0.3438
			c0.1063,0.1049,0.2218,0.2095,0.3463,0.3143l-0.3094,1.331l1.0216,0.4224l0.7269-1.1591c0.0754,0.0066,0.1523,0.013,0.2308,0.0196
			S12.9246,18.1827,13,18.1827c0.0786,0,0.1564-0.0032,0.2333-0.0098c0.0769-0.0066,0.1547-0.013,0.2333-0.0196l0.722,1.1591
			l1.0216-0.4224l-0.3094-1.331c0.1245-0.1014,0.2389-0.2055,0.3438-0.3119s0.2095-0.2218,0.3143-0.3463l1.331,0.3094l0.4224-1.0216
			L16.1532,15.4617z M13,13.1532c0.2554,0,0.4953,0.0484,0.7195,0.1449c0.2242,0.0965,0.4199,0.2284,0.5869,0.3954
			s0.2989,0.3627,0.3954,0.5869c0.0965,0.2242,0.1449,0.4641,0.1449,0.7195s-0.0484,0.4953-0.1449,0.7195
			c-0.0965,0.2242-0.2284,0.4199-0.3954,0.5869s-0.3627,0.2989-0.5869,0.3954c-0.2242,0.0965-0.4641,0.1449-0.7195,0.1449
			s-0.4953-0.0484-0.7195-0.1449c-0.2242-0.0965-0.4199-0.2284-0.5869-0.3954s-0.2989-0.3627-0.3954-0.5869
			c-0.0965-0.2242-0.1449-0.4641-0.1449-0.7195s0.0484-0.4953,0.1449-0.7195c0.0965-0.2242,0.2284-0.4199,0.3954-0.5869
			s0.3627-0.2989,0.5869-0.3954C12.5047,13.2016,12.7446,13.1532,13,13.1532z M13,16.2967c0.18,0,0.3487-0.0336,0.5059-0.1007
			c0.1572-0.067,0.2947-0.1596,0.4126-0.2775c0.1179-0.1179,0.2105-0.2554,0.2775-0.4126C14.263,15.3487,14.2967,15.18,14.2967,15
			s-0.0336-0.3487-0.1007-0.5059c-0.067-0.1572-0.1596-0.2947-0.2775-0.4126s-0.2554-0.2105-0.4126-0.2775
			C13.3487,13.737,13.18,13.7033,13,13.7033s-0.3487,0.0336-0.5059,0.1007c-0.1572,0.067-0.2947,0.1596-0.4126,0.2775
			s-0.2105,0.2554-0.2775,0.4126C11.737,14.6513,11.7033,14.82,11.7033,15s0.0336,0.3487,0.1007,0.5059
			c0.067,0.1572,0.1596,0.2947,0.2775,0.4126c0.1179,0.1179,0.2554,0.2105,0.4126,0.2775C12.6513,16.263,12.82,16.2967,13,16.2967z"
			/>
	</g>
	<g>
		<path fill="#C8C8C8" d="M22.9824,21.8586c0,0.0234,0.0007,0.0471,0.002,0.0706c0.0012,0.0237,0.002,0.0471,0.002,0.0708
			s-0.0007,0.0471-0.002,0.0708c-0.0012,0.0234-0.002,0.0471-0.002,0.0706L24,22.774l-0.6246,1.5051l-1.167-0.2673
			c-0.0628,0.0681-0.1284,0.1337-0.1965,0.1965l0.2673,1.167L20.774,26l-0.6326-1.0176c-0.0234,0-0.0471,0.0007-0.0706,0.002
			c-0.0237,0.0012-0.0471,0.002-0.0708,0.002s-0.0471-0.0007-0.0708-0.002c-0.0234-0.0012-0.0471-0.002-0.0706-0.002L19.226,26
			l-1.5051-0.6246l0.2673-1.167c-0.0681-0.0628-0.1337-0.1284-0.1965-0.1965l-1.167,0.2673L16,22.774l1.0176-0.6326
			c0-0.0234-0.0007-0.0471-0.002-0.0706c-0.0012-0.0237-0.002-0.0471-0.002-0.0708s0.0007-0.0471,0.002-0.0708
			c0.0012-0.0234,0.002-0.0471,0.002-0.0706L16,21.226l0.6246-1.5051l1.167,0.2673c0.0628-0.0681,0.1284-0.1337,0.1965-0.1965
			l-0.2673-1.167L19.226,18l0.6326,1.0176c0.0234,0,0.0471-0.0007,0.0706-0.002c0.0237-0.0012,0.0471-0.002,0.0708-0.002
			s0.0471,0.0007,0.0708,0.002c0.0234,0.0012,0.0471,0.002,0.0706,0.002L20.774,18l1.5051,0.6246l-0.2673,1.167
			c0.0681,0.0628,0.1337,0.1284,0.1965,0.1965l1.167-0.2673L24,21.226L22.9824,21.8586z M22.5228,22.3693
			c0.005-0.0628,0.0102-0.1249,0.0157-0.1865c0.005-0.0616,0.0077-0.1239,0.0077-0.1868c0-0.0601-0.0027-0.1217-0.0077-0.1845
			c-0.0055-0.0631-0.0107-0.1244-0.0157-0.1848l0.9271-0.5775l-0.3379-0.8174l-1.0648,0.2476
			c-0.0813-0.0995-0.1646-0.1913-0.2496-0.275s-0.1775-0.1678-0.277-0.2516l0.2476-1.0648l-0.8174-0.3379l-0.5815,0.9271
			c-0.0603-0.005-0.1217-0.0102-0.1845-0.0157c-0.0631-0.005-0.1244-0.0077-0.1848-0.0077c-0.0628,0-0.1252,0.0027-0.1865,0.0077
			c-0.0616,0.0055-0.1239,0.0107-0.1868,0.0157l-0.5775-0.9271l-0.8174,0.3379l0.2476,1.0648
			c-0.0997,0.0813-0.1913,0.1646-0.275,0.2496c-0.084,0.085-0.1678,0.1775-0.2516,0.277l-1.0648-0.2476l-0.3379,0.8174
			l0.9271,0.5815c-0.0052,0.0628-0.0105,0.1252-0.0157,0.1865c-0.0052,0.0616-0.0077,0.1239-0.0077,0.1868
			c0,0.0603,0.0025,0.1217,0.0077,0.1845c0.0052,0.0628,0.0105,0.1244,0.0157,0.1848l-0.9271,0.5775l0.3379,0.8174l1.0648-0.2476
			c0.0813,0.0997,0.1643,0.1913,0.2496,0.275c0.085,0.084,0.1773,0.1678,0.277,0.2516l-0.2476,1.0648l0.8174,0.3379l0.5815-0.9271
			c0.0601,0.0052,0.1217,0.0105,0.1845,0.0157c0.0631,0.0052,0.1244,0.0077,0.1848,0.0077c0.0628,0,0.1252-0.0025,0.1868-0.0077
			c0.0613-0.0052,0.1237-0.0105,0.1865-0.0157l0.5775,0.9271l0.8174-0.3379l-0.2476-1.0648
			c0.0995-0.0813,0.1913-0.1643,0.275-0.2496c0.0838-0.085,0.1678-0.1773,0.2516-0.277l1.0648,0.2476l0.3379-0.8174L22.5228,22.3693
			z M20,20.5225c0.2042,0,0.3962,0.0387,0.5758,0.116c0.1793,0.0773,0.3359,0.1828,0.4695,0.3162
			c0.1334,0.1337,0.2389,0.2903,0.3162,0.4695c0.0773,0.1795,0.116,0.3715,0.116,0.5758s-0.0387,0.3962-0.116,0.5758
			c-0.0773,0.1793-0.1828,0.3359-0.3162,0.4695c-0.1337,0.1334-0.2903,0.2389-0.4695,0.3162
			c-0.1795,0.0773-0.3715,0.116-0.5758,0.116s-0.3962-0.0387-0.5758-0.116c-0.1793-0.0773-0.3359-0.1828-0.4695-0.3162
			c-0.1334-0.1337-0.2389-0.2903-0.3162-0.4695c-0.0773-0.1795-0.116-0.3715-0.116-0.5758s0.0387-0.3962,0.116-0.5758
			c0.0773-0.1793,0.1828-0.3359,0.3162-0.4695c0.1337-0.1334,0.2903-0.2389,0.4695-0.3162
			C19.6038,20.5612,19.7958,20.5225,20,20.5225z M20,23.0373c0.1441,0,0.279-0.0269,0.4047-0.0805
			c0.1257-0.0536,0.2359-0.1277,0.3302-0.2219c0.0943-0.0943,0.1683-0.2045,0.2219-0.3302
			c0.0536-0.1257,0.0805-0.2606,0.0805-0.4047s-0.0269-0.279-0.0805-0.4047c-0.0536-0.1257-0.1277-0.2359-0.2219-0.3302
			c-0.0943-0.0943-0.2045-0.1683-0.3302-0.2219C20.279,20.9896,20.1441,20.9627,20,20.9627s-0.279,0.0269-0.4047,0.0805
			c-0.1257,0.0536-0.2359,0.1277-0.3302,0.2219c-0.0943,0.0943-0.1683,0.2045-0.2219,0.3302
			C18.9896,21.721,18.9627,21.8559,18.9627,22s0.0269,0.279,0.0805,0.4047c0.0536,0.1257,0.1277,0.2359,0.2219,0.3302
			c0.0943,0.0943,0.2045,0.1683,0.3302,0.2219C19.721,23.0104,19.8559,23.0373,20,23.0373z"/>
	</g>
	<linearGradient id="SVGID_1_" gradientUnits="userSpaceOnUse" x1="3.0842" y1="3.6075" x2="25.9614" y2="30.8715">
		<stop  offset="0" style="stop-color:#FFFFFF;stop-opacity:0"/>
		<stop  offset="0.2264" style="stop-color:#FCFCFC;stop-opacity:0.0226"/>
		<stop  offset="0.3626" style="stop-color:#F4F4F4;stop-opacity:0.0363"/>
		<stop  offset="0.475" style="stop-color:#E6E6E6;stop-opacity:0.0475"/>
		<stop  offset="0.5744" style="stop-color:#D1D1D1;stop-opacity:0.0574"/>
		<stop  offset="0.6652" style="stop-color:#B7B7B7;stop-opacity:0.0665"/>
		<stop  offset="0.7498" style="stop-color:#979797;stop-opacity:0.075"/>
		<stop  offset="0.8297" style="stop-color:#707070;stop-opacity:0.083"/>
		<stop  offset="0.9057" style="stop-color:#444444;stop-opacity:0.0906"/>
		<stop  offset="0.9761" style="stop-color:#121212;stop-opacity:0.0976"/>
		<stop  offset="1" style="stop-color:#000000;stop-opacity:0.1"/>
	</linearGradient>
	<path fill="url(#SVGID_1_)" d="M27,8l-6-6H5v28h22V8z"/>
	<linearGradient id="SVGID_2_" gradientUnits="userSpaceOnUse" x1="20.1479" y1="9.1021" x2="24.1144" y2="5.1356">
		<stop  offset="0" style="stop-color:#FFFFFF;stop-opacity:0"/>
		<stop  offset="0.8537" style="stop-color:#FFFFFF;stop-opacity:0.2134"/>
		<stop  offset="1" style="stop-color:#FFFFFF;stop-opacity:0.25"/>
	</linearGradient>
	<polygon fill="url(#SVGID_2_)" points="5,2 5,3 20,3 20,9 26,9 26,24.5 27,24.5 27,8 21,2 	"/>
	<linearGradient id="SVGID_3_" gradientUnits="userSpaceOnUse" x1="23" y1="10.9375" x2="23" y2="9.0583">
		<stop  offset="0" style="stop-color:#828282;stop-opacity:0"/>
		<stop  offset="0.2812" style="stop-color:#7F7F7F;stop-opacity:0.0281"/>
		<stop  offset="0.4503" style="stop-color:#777777;stop-opacity:0.045"/>
		<stop  offset="0.5899" style="stop-color:#696969;stop-opacity:0.059"/>
		<stop  offset="0.7133" style="stop-color:#545454;stop-opacity:0.0713"/>
		<stop  offset="0.8259" style="stop-color:#3A3A3A;stop-opacity:0.0826"/>
		<stop  offset="0.9294" style="stop-color:#1A1A1A;stop-opacity:0.0929"/>
		<stop  offset="1" style="stop-color:#000000;stop-opacity:0.1"/>
	</linearGradient>
	<rect x="20" y="9" fill="url(#SVGID_3_)" width="6" height="2"/>
</g>
</svg>
