<svg id="00d1b9cd-d5f8-44e3-a248-20612d34a4d6" data-name="ICONS" xmlns="http://www.w3.org/2000/svg" xmlns:xlink="http://www.w3.org/1999/xlink" viewBox="0 0 32 32"><defs><linearGradient id="9c90b8c3-0674-4d86-8d00-e4ed6a3e6f27" x1="3.0842" y1="3.60755" x2="25.96138" y2="30.87151" gradientUnits="userSpaceOnUse"><stop offset="0" stop-color="#fff" stop-opacity="0"/><stop offset="0.86247" stop-color="#5e5e5e" stop-opacity="0.06315"/><stop offset="1" stop-opacity="0.1"/></linearGradient><linearGradient id="e69f73b6-edbf-4d32-aac1-c544ad02e71f" x1="20.14788" y1="9.10212" x2="24.11437" y2="5.13563" gradientUnits="userSpaceOnUse"><stop offset="0" stop-color="#fff" stop-opacity="0"/><stop offset="0.44604" stop-color="#fff" stop-opacity="0.00799"/><stop offset="0.63551" stop-color="#fff" stop-opacity="0.03616"/><stop offset="0.77636" stop-color="#fff" stop-opacity="0.08493"/><stop offset="0.8924" stop-color="#fff" stop-opacity="0.15385"/><stop offset="0.99328" stop-color="#fff" stop-opacity="0.24291"/><stop offset="1" stop-color="#fff" stop-opacity="0.25"/></linearGradient><linearGradient id="8def9fd7-9ef9-4df1-8bf6-56a1fc141029" x1="23" y1="10.9375" x2="23" y2="9.05834" gradientUnits="userSpaceOnUse"><stop offset="0" stop-color="#828282" stop-opacity="0"/><stop offset="0.86247" stop-color="#303030" stop-opacity="0.06315"/><stop offset="1" stop-opacity="0.1"/></linearGradient></defs><title>FileTypeIcons_Master_All_NEW</title><polygon points="26 29 6 29 6 3 21 3 26 8 26 29" fill="#fff"/><path d="M21,2H5V30H27V8Zm0,1.5L25.5,8H21ZM26,29H6V3H20V9h6Z" fill="#949494"/><path d="M16.7279,14.82318c0,.02947.00073.05894.00245.08841s.00246.05894.00246.08841-.00074.05894-.00246.08841-.00245.05894-.00245.08841L18,15.96758l-.78094,1.88114-1.45875-.334q-.11787.12783-.24558.24558l.334,1.45875L13.96758,20l-.79076-1.2721c-.02947,0-.05894.00073-.08841.00245s-.05894.00246-.08841.00246-.05894-.00074-.08841-.00246-.05894-.00245-.08841-.00245L12.03242,20l-1.88114-.78094.334-1.45875q-.12783-.11787-.24558-.24558l-1.45875.334L8,15.96758l1.2721-.79076c0-.02947-.00073-.05894-.00245-.08841S9.26719,15.02947,9.26719,15s.00074-.05894.00246-.08841.00245-.05894.00245-.08841L8,14.03242l.78094-1.88114,1.45875.334q.11787-.12783.24558-.24558l-.334-1.45875L12.03242,10l.79076,1.2721c.02947,0,.05894-.00073.08841-.00245s.05894-.00246.08841-.00246.05894.00074.08841.00246.05894.00245.08841.00245L13.96758,10l1.88114.78094-.334,1.45875q.12783.11787.24558.24558l1.45875-.334L18,14.03242Zm-.57466.63851c.00663-.07859.013-.15643.01965-.2333s.00982-.15472.00982-.2333q0-.11308-.00982-.23085c-.00663-.07858-.013-.15545-.01965-.23084l1.15914-.722L16.89,12.78978l-1.331.30943a4.27061,4.27061,0,0,0-.31189-.34381q-.15949-.15729-.34626-.31434l.30943-1.331-1.02161-.4224-.72692,1.15914c-.07539-.00663-.15226-.013-.23085-.01965s-.15545-.00982-.23084-.00982q-.11789,0-.2333.00982c-.07687.00663-.15472.013-.2333.01965l-.722-1.15914-1.02161.4224.30943,1.331a4.27061,4.27061,0,0,0-.34381.31189q-.15729.15949-.31434.34626L9.11,12.78978l-.4224,1.02161,1.15914.72692c-.00663.07859-.013.15643-.01965.2333s-.00982.15472-.00982.2333q0,.11308.00982.23085c.00663.07858.013.15545.01965.23084l-1.15914.722L9.11,17.21022l1.331-.30943a4.27061,4.27061,0,0,0,.31189.34381q.15949.15729.34626.31434l-.30943,1.331,1.02161.4224.72692-1.15914c.07539.00663.15226.013.23085.01965s.15545.00982.23084.00982q.11789,0,.2333-.00982c.07687-.00663.15472-.013.2333-.01965l.722,1.15914,1.02161-.4224-.30943-1.331a4.27061,4.27061,0,0,0,.34381-.31189q.15729-.15949.31434-.34626l1.331.30943.4224-1.02161ZM13,13.15324a1.80082,1.80082,0,0,1,.71955.14489,1.84887,1.84887,0,0,1,.98232.98232,1.85915,1.85915,0,0,1,0,1.4391,1.84887,1.84887,0,0,1-.98232.98232,1.85915,1.85915,0,0,1-1.4391,0,1.84887,1.84887,0,0,1-.98232-.98232,1.85915,1.85915,0,0,1,0-1.4391,1.84887,1.84887,0,0,1,.98232-.98232A1.80082,1.80082,0,0,1,13,13.15324Zm0,3.14342a1.276,1.276,0,0,0,.50589-.10069,1.29417,1.29417,0,0,0,.69008-.69008,1.3212,1.3212,0,0,0,0-1.01178,1.29417,1.29417,0,0,0-.69008-.69008,1.3212,1.3212,0,0,0-1.01178,0,1.29417,1.29417,0,0,0-.69008.69008,1.3212,1.3212,0,0,0,0,1.01178,1.29417,1.29417,0,0,0,.69008.69008A1.276,1.276,0,0,0,13,16.29666Z" fill="#c8c8c8"/><path d="M22.98236,21.85861c0,.02344.00075.04713.002.07057.00125.02369.002.04713.002.07082s-.00075.04713-.002.07082c-.00124.02344-.002.04713-.002.07057L24,22.774l-.62465,1.50514-1.167-.26732q-.09426.10212-.1965.1965l.26732,1.167L20.774,26l-.63263-1.01764c-.02344,0-.04713.00075-.07057.002-.02369.00125-.04713.002-.07082.002s-.04713-.00075-.07082-.002c-.02344-.00124-.04713-.002-.07057-.002L19.226,26l-1.50514-.62465.26732-1.167q-.10212-.09426-.1965-.1965l-1.167.26732L16,22.774l1.01764-.63263c0-.02344-.00075-.04713-.002-.07057-.00125-.02369-.002-.04713-.002-.07082s.00075-.04713.002-.07082c.00124-.02344.002-.04713.002-.07057L16,21.226l.62465-1.50514,1.167.26732q.09426-.10212.1965-.1965l-.26732-1.167L19.226,18l.63263,1.01764c.02344,0,.04713-.00075.07057-.002.02369-.00125.04713-.002.07082-.002s.04713.00075.07082.002c.02344.00124.04713.002.07057.002L20.774,18l1.50514.62465-.26732,1.167q.10212.09426.1965.1965l1.167-.26732L24,21.226Zm-.45957.51069q.00747-.09426.01571-.18652c.005-.06159.00773-.12393.00773-.18677,0-.0601-.00275-.12169-.00773-.18453-.00549-.06309-.01073-.12443-.01571-.18477l.92712-.57752-.33788-.81741-1.06478.24762a3.45,3.45,0,0,0-.24961-.275q-.12754-.12567-.277-.2516l.24762-1.06478-.81741-.33788-.58151.92712c-.06034-.005-.12168-.01022-.18452-.01571-.06309-.005-.12443-.00773-.18478-.00773-.06284,0-.12518.00275-.18652.00773q-.09239.00823-.18677.01571l-.57752-.92712-.81741.33788.24762,1.06478a3.407,3.407,0,0,0-.275.24961q-.126.12754-.2516.277L16.888,20.23178l-.33788.81741.92712.58151-.01571.18652q-.00785.09239-.00773.18677c0,.06035.0025.12169.00773.18453l.01571.18477-.92712.57752.33788.81741,1.06478-.24762a3.36108,3.36108,0,0,0,.24961.275q.12754.126.277.2516L18.23178,25.112l.81741.33788.58151-.92712q.09014.00785.18452.01571c.06309.00523.12443.00773.18478.00773q.09426,0,.18677-.00773l.18652-.01571.57752.92712.81741-.33788-.24762-1.06478a3.40283,3.40283,0,0,0,.275-.24961q.12567-.12754.2516-.277l1.06478.24762.33788-.81741ZM20,20.52254a1.44062,1.44062,0,0,1,.57577.116,1.47753,1.47753,0,0,1,.78574.78574,1.48752,1.48752,0,0,1,0,1.15154,1.47753,1.47753,0,0,1-.78574.78574,1.48752,1.48752,0,0,1-1.15154,0,1.47753,1.47753,0,0,1-.78574-.78574,1.48752,1.48752,0,0,1,0-1.15154,1.47753,1.47753,0,0,1,.78574-.78574A1.44062,1.44062,0,0,1,20,20.52254Zm0,2.5148a1.02065,1.02065,0,0,0,.40471-.08054,1.034,1.034,0,0,0,.55209-.55209,1.0571,1.0571,0,0,0,0-.80942,1.034,1.034,0,0,0-.55209-.55209,1.0571,1.0571,0,0,0-.80942,0,1.034,1.034,0,0,0-.55209.55209,1.0571,1.0571,0,0,0,0,.80942,1.034,1.034,0,0,0,.55209.55209A1.02065,1.02065,0,0,0,20,23.03734Z" fill="#c8c8c8"/><path d="M27,8,21,2H5V30H27Z" fill="url(#9c90b8c3-0674-4d86-8d00-e4ed6a3e6f27)"/><polygon points="5 2 5 3 20 3 20 9 26 9 26 24.5 27 24.5 27 8 21 2 5 2" fill="url(#e69f73b6-edbf-4d32-aac1-c544ad02e71f)"/><rect x="20" y="9" width="6" height="2" fill="url(#8def9fd7-9ef9-4df1-8bf6-56a1fc141029)"/></svg>