<svg id="ca55d59e-417e-4183-885f-bf3774804671" data-name="ICONS" xmlns="http://www.w3.org/2000/svg" xmlns:xlink="http://www.w3.org/1999/xlink" viewBox="0 0 32 32"><defs><linearGradient id="fefc2790-2162-4f88-b924-e86c12af6153" x1="3.0842" y1="3.60755" x2="25.96138" y2="30.87151" gradientUnits="userSpaceOnUse"><stop offset="0" stop-color="#fff" stop-opacity="0"/><stop offset="0.86247" stop-color="#5e5e5e" stop-opacity="0.06315"/><stop offset="1" stop-opacity="0.1"/></linearGradient><linearGradient id="561b7e55-23d4-4fe6-a37e-401daed3a9b8" x1="20.14788" y1="9.10212" x2="24.11437" y2="5.13563" gradientUnits="userSpaceOnUse"><stop offset="0" stop-color="#fff" stop-opacity="0"/><stop offset="0.44604" stop-color="#fff" stop-opacity="0.00799"/><stop offset="0.63551" stop-color="#fff" stop-opacity="0.03616"/><stop offset="0.77636" stop-color="#fff" stop-opacity="0.08493"/><stop offset="0.8924" stop-color="#fff" stop-opacity="0.15385"/><stop offset="0.99328" stop-color="#fff" stop-opacity="0.24291"/><stop offset="1" stop-color="#fff" stop-opacity="0.25"/></linearGradient><linearGradient id="664640db-e9cc-4bd6-abfc-c864a43fc2bb" x1="23" y1="10.9375" x2="23" y2="9.05834" gradientUnits="userSpaceOnUse"><stop offset="0" stop-color="#828282" stop-opacity="0"/><stop offset="0.86247" stop-color="#303030" stop-opacity="0.06315"/><stop offset="1" stop-opacity="0.1"/></linearGradient></defs><title>FileTypeIcons_Master_All_NEW</title><polygon points="26 29 6 29 6 3 21 3 26 8 26 29" fill="#fff"/><path d="M21,2H5V30H27V8Zm0,1.5L25.5,8H21ZM26,29H6V3H20V9h6Z" fill="#949494"/><rect x="8" y="11" width="16" height="1" fill="#c8c8c8"/><rect x="8" y="13" width="16" height="1" fill="#c8c8c8"/><rect x="8" y="15" width="16" height="1" fill="#c8c8c8"/><rect x="8" y="17" width="16" height="1" fill="#c8c8c8"/><rect x="8" y="19" width="16" height="1" fill="#c8c8c8"/><rect x="8" y="21" width="16" height="1" fill="#c8c8c8"/><rect x="8" y="23" width="16" height="1" fill="#c8c8c8"/><rect x="8" y="25" width="16" height="1" fill="#c8c8c8"/><rect x="8" y="5" width="6" height="1" fill="#c8c8c8"/><path d="M27,8,21,2H5V30H27Z" fill="url(#fefc2790-2162-4f88-b924-e86c12af6153)"/><polygon points="5 2 5 3 20 3 20 9 26 9 26 24.5 27 24.5 27 8 21 2 5 2" fill="url(#561b7e55-23d4-4fe6-a37e-401daed3a9b8)"/><rect x="20" y="9" width="6" height="2" fill="url(#664640db-e9cc-4bd6-abfc-c864a43fc2bb)"/></svg>