<svg id="9085c79e-457e-4d74-af8b-cd8167e94d59" data-name="ICONS" xmlns="http://www.w3.org/2000/svg" xmlns:xlink="http://www.w3.org/1999/xlink" viewBox="0 0 32 32"><defs><linearGradient id="292526b9-731a-4319-afdd-8c920e078abb" x1="3.0842" y1="3.60755" x2="25.96138" y2="30.87151" gradientUnits="userSpaceOnUse"><stop offset="0" stop-color="#fff" stop-opacity="0"/><stop offset="0.86247" stop-color="#5e5e5e" stop-opacity="0.06315"/><stop offset="1" stop-opacity="0.1"/></linearGradient><linearGradient id="d02764f7-5b65-4eff-80e5-86565255ca0d" x1="20.14788" y1="9.10212" x2="24.11437" y2="5.13563" gradientUnits="userSpaceOnUse"><stop offset="0" stop-color="#fff" stop-opacity="0"/><stop offset="0.44604" stop-color="#fff" stop-opacity="0.00799"/><stop offset="0.63551" stop-color="#fff" stop-opacity="0.03616"/><stop offset="0.77636" stop-color="#fff" stop-opacity="0.08493"/><stop offset="0.8924" stop-color="#fff" stop-opacity="0.15385"/><stop offset="0.99328" stop-color="#fff" stop-opacity="0.24291"/><stop offset="1" stop-color="#fff" stop-opacity="0.25"/></linearGradient><linearGradient id="de3182e3-0385-49ed-9521-f35115e99bda" x1="23" y1="10.9375" x2="23" y2="9.05834" gradientUnits="userSpaceOnUse"><stop offset="0" stop-color="#828282" stop-opacity="0"/><stop offset="0.86247" stop-color="#303030" stop-opacity="0.06315"/><stop offset="1" stop-opacity="0.1"/></linearGradient></defs><title>FileTypeIcons_Master_All_NEW</title><polygon points="26 29 6 29 6 3 21 3 26 8 26 29" fill="#fff"/><path d="M21,2H5V30H27V8Zm0,1.5L25.5,8H21ZM26,29H6V3H20V9h6Z" fill="#949494"/><polygon points="16 19 24 22 20 23 19 27 16 19" fill="#0078d7"/><circle cx="13" cy="16" r="2" fill="#0078d7"/><path d="M11,24v2H9V24h2m1-1H8v4h4V23Z" fill="#0078d7"/><path d="M23,12v2H21V12h2m1-1H20v4h4V11Z" fill="#0078d7"/><path d="M15.55762,14.45361A10.89888,10.89888,0,0,1,19,13.19092V12.18066a11.91209,11.91209,0,0,0-4.10938,1.50928A3.00578,3.00578,0,0,1,15.55762,14.45361Z" fill="#c8c8c8"/><path d="M11.45361,18.55762a3.00578,3.00578,0,0,1-.76367-.667A11.91209,11.91209,0,0,0,9.18066,22h1.01026A10.89888,10.89888,0,0,1,11.45361,18.55762Z" fill="#c8c8c8"/><path d="M27,8,21,2H5V30H27Z" fill="url(#292526b9-731a-4319-afdd-8c920e078abb)"/><polygon points="5 2 5 3 20 3 20 9 26 9 26 24.5 27 24.5 27 8 21 2 5 2" fill="url(#d02764f7-5b65-4eff-80e5-86565255ca0d)"/><rect x="20" y="9" width="6" height="2" fill="url(#de3182e3-0385-49ed-9521-f35115e99bda)"/></svg>