<?xml version="1.0" encoding="utf-8"?>
<!-- Generator: Adobe Illustrator 21.1.0, SVG Export Plug-In . SVG Version: 6.00 Build 0)  -->
<svg version="1.1" xmlns="http://www.w3.org/2000/svg" xmlns:xlink="http://www.w3.org/1999/xlink" x="0px" y="0px"
	 viewBox="0 0 32 32" enable-background="new 0 0 32 32" xml:space="preserve">
<g id="TEMPLATE" display="none">
	<g display="inline">
		<path fill="#D0D0D0" d="M32,0v32H0V0H32 M33-1h-1H0h-1v1v32v1h1h32h1v-1V0V-1L33-1z"/>
	</g>
	<g display="inline" opacity="0.1">
		<path fill="#FF3A6D" d="M30,2v28H2V2H30 M32,0H0v32h32V0L32,0z"/>
	</g>
</g>
<g id="ICONS">
	<path fill="#949494" d="M2,6v20h28V6H2z M29,25H3V7h26V25z"/>
	<polygon fill="#949494" points="12,11 12,21 21,16 	"/>
	<g>
		<rect x="27" y="24" fill="#949494" width="1" height="1"/>
		<rect x="27" y="22" fill="#949494" width="1" height="1"/>
		<rect x="27" y="20" fill="#949494" width="1" height="1"/>
		<rect x="27" y="18" fill="#949494" width="1" height="1"/>
		<rect x="27" y="16" fill="#949494" width="1" height="1"/>
		<rect x="27" y="14" fill="#949494" width="1" height="1"/>
		<rect x="27" y="12" fill="#949494" width="1" height="1"/>
		<rect x="27" y="10" fill="#949494" width="1" height="1"/>
		<rect x="27" y="8" fill="#949494" width="1" height="1"/>
	</g>
	<g>
		<rect x="4" y="24" fill="#949494" width="1" height="1"/>
		<rect x="4" y="22" fill="#949494" width="1" height="1"/>
		<rect x="4" y="20" fill="#949494" width="1" height="1"/>
		<rect x="4" y="18" fill="#949494" width="1" height="1"/>
		<rect x="4" y="16" fill="#949494" width="1" height="1"/>
		<rect x="4" y="14" fill="#949494" width="1" height="1"/>
		<rect x="4" y="12" fill="#949494" width="1" height="1"/>
		<rect x="4" y="10" fill="#949494" width="1" height="1"/>
		<rect x="4" y="8" fill="#949494" width="1" height="1"/>
	</g>
</g>
</svg>
