<svg id="5103979e-75d0-4c8b-802a-17e5cb2d2837" data-name="ICONS" xmlns="http://www.w3.org/2000/svg" viewBox="0 0 32 32"><title>FileTypeIcons_Master_All_NEW</title><path d="M2,6V26H30V6ZM29,25H3V7H29Z" fill="#949494"/><polygon points="12 11 12 21 21 16 12 11" fill="#949494"/><rect x="27" y="24" width="1" height="1" fill="#949494"/><rect x="27" y="22" width="1" height="1" fill="#949494"/><rect x="27" y="20" width="1" height="1" fill="#949494"/><rect x="27" y="18" width="1" height="1" fill="#949494"/><rect x="27" y="16" width="1" height="1" fill="#949494"/><rect x="27" y="14" width="1" height="1" fill="#949494"/><rect x="27" y="12" width="1" height="1" fill="#949494"/><rect x="27" y="10" width="1" height="1" fill="#949494"/><rect x="27" y="8" width="1" height="1" fill="#949494"/><rect x="4" y="24" width="1" height="1" fill="#949494"/><rect x="4" y="22" width="1" height="1" fill="#949494"/><rect x="4" y="20" width="1" height="1" fill="#949494"/><rect x="4" y="18" width="1" height="1" fill="#949494"/><rect x="4" y="16" width="1" height="1" fill="#949494"/><rect x="4" y="14" width="1" height="1" fill="#949494"/><rect x="4" y="12" width="1" height="1" fill="#949494"/><rect x="4" y="10" width="1" height="1" fill="#949494"/><rect x="4" y="8" width="1" height="1" fill="#949494"/></svg>