<svg id="788003f2-c0a3-4a1f-a02a-eb3d71d39037" data-name="ICONS" xmlns="http://www.w3.org/2000/svg" xmlns:xlink="http://www.w3.org/1999/xlink" viewBox="0 0 32 32"><defs><linearGradient id="76baed52-0420-4fdd-b9c1-86118185b38b" x1="5.2915" y1="3.2381" x2="26.7085" y2="28.7619" gradientUnits="userSpaceOnUse"><stop offset="0" stop-color="#fff" stop-opacity="0"/><stop offset="0.86247" stop-color="#5e5e5e" stop-opacity="0.06315"/><stop offset="1" stop-opacity="0.1"/></linearGradient><linearGradient id="0fc93c25-eb52-4b84-9b59-9729d44bae08" x1="13.5" y1="18.5" x2="28" y2="4" gradientUnits="userSpaceOnUse"><stop offset="0" stop-color="#fff" stop-opacity="0"/><stop offset="0.44604" stop-color="#fff" stop-opacity="0.00799"/><stop offset="0.63551" stop-color="#fff" stop-opacity="0.03616"/><stop offset="0.77636" stop-color="#fff" stop-opacity="0.08493"/><stop offset="0.8924" stop-color="#fff" stop-opacity="0.15385"/><stop offset="0.99328" stop-color="#fff" stop-opacity="0.24291"/><stop offset="1" stop-color="#fff" stop-opacity="0.25"/></linearGradient></defs><title>FileTypeIcons_Master_All_NEW</title><rect x="3" y="7" width="26" height="18" fill="#fff"/><path d="M2,6V26H30V6ZM29,25H3V7H29Z" fill="#949494"/><polygon points="12 11 12 21 21 16 12 11" fill="#69afe5"/><rect x="27" y="24" width="1" height="1" fill="#c8c8c8"/><rect x="27" y="22" width="1" height="1" fill="#c8c8c8"/><rect x="27" y="20" width="1" height="1" fill="#c8c8c8"/><rect x="27" y="18" width="1" height="1" fill="#c8c8c8"/><rect x="27" y="16" width="1" height="1" fill="#c8c8c8"/><rect x="27" y="14" width="1" height="1" fill="#c8c8c8"/><rect x="27" y="12" width="1" height="1" fill="#c8c8c8"/><rect x="27" y="10" width="1" height="1" fill="#c8c8c8"/><rect x="27" y="8" width="1" height="1" fill="#c8c8c8"/><rect x="4" y="24" width="1" height="1" fill="#c8c8c8"/><rect x="4" y="22" width="1" height="1" fill="#c8c8c8"/><rect x="4" y="20" width="1" height="1" fill="#c8c8c8"/><rect x="4" y="18" width="1" height="1" fill="#c8c8c8"/><rect x="4" y="16" width="1" height="1" fill="#c8c8c8"/><rect x="4" y="14" width="1" height="1" fill="#c8c8c8"/><rect x="4" y="12" width="1" height="1" fill="#c8c8c8"/><rect x="4" y="10" width="1" height="1" fill="#c8c8c8"/><rect x="4" y="8" width="1" height="1" fill="#c8c8c8"/><rect x="2" y="6" width="28" height="20" fill="url(#76baed52-0420-4fdd-b9c1-86118185b38b)"/><polygon points="30 6 2 6 2 7 3 7 29 7 29 25 29 26 30 26 30 6" fill="url(#0fc93c25-eb52-4b84-9b59-9729d44bae08)"/></svg>