<svg id="477502ac-b1e9-4eea-876c-38c69b20e914" data-name="ICONS" xmlns="http://www.w3.org/2000/svg" xmlns:xlink="http://www.w3.org/1999/xlink" viewBox="0 0 32 32"><defs><linearGradient id="1619e8ec-30a9-4a90-834e-970dcaf1af8d" x1="5.0842" y1="3.60755" x2="27.96138" y2="30.87151" gradientUnits="userSpaceOnUse"><stop offset="0" stop-color="#fff" stop-opacity="0"/><stop offset="0.86247" stop-color="#5e5e5e" stop-opacity="0.06315"/><stop offset="1" stop-opacity="0.1"/></linearGradient><linearGradient id="2e83873b-fa76-4a89-928c-e898ed2757b5" x1="22.14788" y1="9.10212" x2="26.11437" y2="5.13563" gradientUnits="userSpaceOnUse"><stop offset="0" stop-color="#fff" stop-opacity="0"/><stop offset="0.44604" stop-color="#fff" stop-opacity="0.00799"/><stop offset="0.63551" stop-color="#fff" stop-opacity="0.03616"/><stop offset="0.77636" stop-color="#fff" stop-opacity="0.08493"/><stop offset="0.8924" stop-color="#fff" stop-opacity="0.15385"/><stop offset="0.99328" stop-color="#fff" stop-opacity="0.24291"/><stop offset="1" stop-color="#fff" stop-opacity="0.25"/></linearGradient><linearGradient id="26e5c7cb-b3da-468b-afea-7ae772e6f54b" x1="9.5" y1="26.4375" x2="9.5" y2="9.52504" gradientUnits="userSpaceOnUse"><stop offset="0" stop-color="#fff" stop-opacity="0"/><stop offset="0.52587" stop-color="#fff" stop-opacity="0.00735"/><stop offset="0.71529" stop-color="#fff" stop-opacity="0.03396"/><stop offset="0.8503" stop-color="#fff" stop-opacity="0.0803"/><stop offset="0.95875" stop-color="#fff" stop-opacity="0.14595"/><stop offset="1" stop-color="#fff" stop-opacity="0.18"/></linearGradient><linearGradient id="881c5f03-67f8-464c-a4c6-a469c8b81586" x1="11.28178" y1="29.35196" x2="11.61734" y2="26.21204" gradientUnits="userSpaceOnUse"><stop offset="0" stop-color="#828282" stop-opacity="0"/><stop offset="0.86247" stop-color="#303030" stop-opacity="0.12631"/><stop offset="1" stop-opacity="0.2"/></linearGradient><linearGradient id="94147e78-ba9c-4b7b-807b-08eb6d2a7996" x1="25" y1="10.9375" x2="25" y2="9.05834" gradientUnits="userSpaceOnUse"><stop offset="0" stop-color="#828282" stop-opacity="0"/><stop offset="0.86247" stop-color="#303030" stop-opacity="0.06315"/><stop offset="1" stop-opacity="0.1"/></linearGradient></defs><title>FileTypeIcons_Master_All_NEW</title><polygon points="28 29 8 29 8 3 23 3 28 8 28 29" fill="#fff"/><path d="M23,2H7V30H29V8Zm0,1.5L27.5,8H23ZM28,29H8V3H22V9h6Z" fill="#949494"/><path d="M24,21.05029V18H22V15.94971a2.5,2.5,0,1,0-1,0V18H19V16H14v5h5V19h4v2.05029a2.5,2.5,0,1,0,1,0ZM20,13.5A1.5,1.5,0,1,1,21.5,15,1.50164,1.50164,0,0,1,20,13.5ZM18,20H15V17h3v3Zm5.5,5A1.5,1.5,0,1,1,25,23.5,1.50164,1.50164,0,0,1,23.5,25Z" fill="#c8c8c8"/><polygon points="3 11 16 9 16 27 3 25 3 11" fill="#3955a3"/><path d="M13,14l-2.56528,8H8.53412L6,14H7.80712l1.55267,5.56764a4.24924,4.24924,0,0,1,.1506.79777h.03115a4.80352,4.80352,0,0,1,.161-.82008L11.24481,14Z" fill="#fff"/><path d="M25.5,11a.5.5,0,1,0,.5.5.49971.49971,0,0,0-.5-.5Z" fill="#c8c8c8"/><path d="M25.5,14a.5.5,0,1,0,.5.5.49971.49971,0,0,0-.5-.5Z" fill="#c8c8c8"/><path d="M25.5,17a.5.5,0,1,0,.5.5.49971.49971,0,0,0-.5-.5Z" fill="#c8c8c8"/><path d="M18.5,25a.5.5,0,1,0,.5.5.49971.49971,0,0,0-.5-.5Z" fill="#c8c8c8"/><path d="M10.5,5a.5.5,0,1,0,.5.5.49971.49971,0,0,0-.5-.5Z" fill="#c8c8c8"/><path d="M13.5,5a.5.5,0,1,0,.5.5.49971.49971,0,0,0-.5-.5Z" fill="#c8c8c8"/><path d="M13.5,8a.5.5,0,1,0,.5.5.49971.49971,0,0,0-.5-.5Z" fill="#c8c8c8"/><path d="M16.5,5a.5.5,0,1,0,.5.5.49971.49971,0,0,0-.5-.5Z" fill="#c8c8c8"/><path d="M19.5,5a.5.5,0,1,0,.5.5.49971.49971,0,0,0-.5-.5Z" fill="#c8c8c8"/><path d="M29,8,23,2H7V30H29Z" fill="url(#1619e8ec-30a9-4a90-834e-970dcaf1af8d)"/><polygon points="7 2 7 3 22 3 22 9 28 9 28 24.5 29 24.5 29 8 23 2 7 2" fill="url(#2e83873b-fa76-4a89-928c-e898ed2757b5)"/><polygon points="16 9 3 11 3 25 16 27 16 9" fill="url(#26e5c7cb-b3da-468b-afea-7ae772e6f54b)"/><polygon points="16 29 7 29 7 25.62 16 27 16 29" fill="url(#881c5f03-67f8-464c-a4c6-a469c8b81586)"/><rect x="22" y="9" width="6" height="2" fill="url(#94147e78-ba9c-4b7b-807b-08eb6d2a7996)"/></svg>