<svg id="aaf62d5e-87ba-4df8-bffe-c31865429f38" data-name="ICONS" xmlns="http://www.w3.org/2000/svg" xmlns:xlink="http://www.w3.org/1999/xlink" viewBox="0 0 32 32"><defs><linearGradient id="52526ab6-eb33-408c-b297-a7d874787a41" x1="6.56141" y1="2.36802" x2="29.43859" y2="29.63198" gradientUnits="userSpaceOnUse"><stop offset="0" stop-color="#fff" stop-opacity="0"/><stop offset="0.86247" stop-color="#5e5e5e" stop-opacity="0.06315"/><stop offset="1" stop-opacity="0.1"/></linearGradient><linearGradient id="7900a421-ec48-4771-9310-35940f07fe9a" x1="9.5" y1="26.4375" x2="9.5" y2="9.52504" gradientUnits="userSpaceOnUse"><stop offset="0" stop-color="#fff" stop-opacity="0"/><stop offset="0.52587" stop-color="#fff" stop-opacity="0.00735"/><stop offset="0.71529" stop-color="#fff" stop-opacity="0.03396"/><stop offset="0.8503" stop-color="#fff" stop-opacity="0.0803"/><stop offset="0.95875" stop-color="#fff" stop-opacity="0.14595"/><stop offset="1" stop-color="#fff" stop-opacity="0.18"/></linearGradient><linearGradient id="125509d2-c03a-44eb-bd32-60006c9c5797" x1="11.28178" y1="29.35196" x2="11.61734" y2="26.21204" gradientUnits="userSpaceOnUse"><stop offset="0" stop-color="#828282" stop-opacity="0"/><stop offset="0.86247" stop-color="#303030" stop-opacity="0.12631"/><stop offset="1" stop-opacity="0.2"/></linearGradient></defs><title>FileTypeIcons_Master_All_NEW</title><rect x="8" y="3" width="20" height="26" fill="#fff"/><path d="M7,2V30H29V2ZM28,29H8V3H28Z" fill="#949494"/><rect x="20" y="14" width="6" height="1" fill="#c8c8c8"/><rect x="21.5" y="9.5" width="8" height="1" transform="translate(35.5 -15.5) rotate(90)" fill="#c8c8c8"/><rect x="14.5" y="9.5" width="10" height="1" transform="translate(29.5 -9.5) rotate(90)" fill="#c8c8c8"/><rect x="20" y="5" width="6" height="1" fill="#c8c8c8"/><rect x="20" y="26" width="6" height="0.99963" fill="#c8c8c8"/><rect x="21.00007" y="21.00007" width="9" height="0.99987" transform="translate(47.00007 -4.00007) rotate(90)" fill="#c8c8c8"/><rect x="14.50007" y="21.50024" width="10" height="0.99987" transform="translate(41.50024 2.50011) rotate(90)" fill="#c8c8c8"/><rect x="20" y="17" width="6" height="1" fill="#c8c8c8"/><rect x="11" y="14" width="6" height="0.99963" fill="#c8c8c8"/><rect x="12.5" y="9.5" width="8" height="1" transform="translate(26.5 -6.5) rotate(90)" fill="#c8c8c8"/><rect x="5.5" y="9.5" width="10" height="1" transform="translate(20.5 -0.5) rotate(90)" fill="#c8c8c8"/><rect x="11" y="5" width="6" height="1" fill="#c8c8c8"/><rect x="11" y="26" width="6" height="1" fill="#c8c8c8"/><rect x="12.00007" y="21.00007" width="9" height="0.99987" transform="translate(38.00007 4.99993) rotate(90)" fill="#c8c8c8"/><rect x="5.5" y="21.5" width="10" height="1" transform="translate(32.5 11.5) rotate(90)" fill="#c8c8c8"/><rect x="11" y="17" width="6" height="1" fill="#c8c8c8"/><polygon points="3 11 16 9 16 27 3 25 3 11" fill="#3955a3"/><path d="M13,14l-2.56528,8H8.53412L6,14H7.80712l1.55267,5.56764a4.24924,4.24924,0,0,1,.1506.79777h.03115a4.80352,4.80352,0,0,1,.161-.82008L11.24481,14Z" fill="#fff"/><path d="M29,2H7V30H29Z" fill="url(#52526ab6-eb33-408c-b297-a7d874787a41)"/><polygon points="16 9 3 11 3 25 16 27 16 9" fill="url(#7900a421-ec48-4771-9310-35940f07fe9a)"/><polygon points="16 29 7 29 7 25.62 16 27 16 29" fill="url(#125509d2-c03a-44eb-bd32-60006c9c5797)"/></svg>