<?xml version="1.0" encoding="utf-8"?>
<!-- Generator: Adobe Illustrator 21.1.0, SVG Export Plug-In . SVG Version: 6.00 Build 0)  -->
<svg version="1.1" xmlns="http://www.w3.org/2000/svg" xmlns:xlink="http://www.w3.org/1999/xlink" x="0px" y="0px"
	 viewBox="0 0 32 32" enable-background="new 0 0 32 32" xml:space="preserve">
<g id="TEMPLATE" display="none">
	<g display="inline">
		<path fill="#D0D0D0" d="M32,0v32H0V0H32 M33-1h-1H0h-1v1v32v1h1h32h1v-1V0V-1L33-1z"/>
	</g>
	<g display="inline" opacity="0.1">
		<path fill="#FF3A6D" d="M30,2v28H2V2H30 M32,0H0v32h32V0L32,0z"/>
	</g>
</g>
<g id="ICONS">
	<polygon fill="#FFFFFF" points="27,2 7,2 7,28 9,28 9,30 29,30 29,4 	"/>
	<path fill="#C8C8C8" d="M23,20.0503V18v-1h-1h-1v-2.0503c1.1411-0.2319,2-1.2402,2-2.4497c0-1.3809-1.1191-2.5-2.5-2.5
		S18,11.1191,18,12.5c0,1.2095,0.8589,2.2178,2,2.4497V17h-2v-2h-5v5h5v-2h2h1h1v2.0503c-1.1411,0.2319-2,1.2402-2,2.4497
		c0,1.3809,1.1191,2.5,2.5,2.5s2.5-1.1191,2.5-2.5C25,21.2905,24.1411,20.2822,23,20.0503z M19,12.5c0-0.8271,0.6729-1.5,1.5-1.5
		s1.5,0.6729,1.5,1.5S21.3271,14,20.5,14S19,13.3271,19,12.5z M17,19h-3v-3h3V19z M22.5,24c-0.8271,0-1.5-0.6729-1.5-1.5
		s0.6729-1.5,1.5-1.5s1.5,0.6729,1.5,1.5S23.3271,24,22.5,24z"/>
	<polygon fill="#949494" points="28,5 28,29 10,29 10,28 27,28 27,6 26,6 26,27 10,27 9,27 8,27 8,6 7,6 7,28 9,28 9,30 29,30 29,6 
			"/>
	<polygon fill="#3955A3" points="3,11 16,9 16,27 3,25 	"/>
	<g>
		<path fill="#FFFFFF" d="M13,14l-2.5653,8H8.5341L6,14h1.8071l1.5527,5.5676c0.0831,0.3013,0.1333,0.5672,0.1506,0.7978h0.0312
			c0.0242-0.2492,0.0779-0.5225,0.161-0.8201L11.2448,14H13z"/>
	</g>
	<polygon fill="#3955A3" points="27,2 7,2 7,6 27,6 27,4 29,6 29,4 	"/>
	<g>
		<path fill="#C8C8C8" d="M10.5,7C10.2236,7,10,7.2236,10,7.5S10.2236,8,10.5,8S11,7.7764,11,7.5S10.7764,7,10.5,7L10.5,7z"/>
	</g>
	<g>
		<path fill="#C8C8C8" d="M13.5,7C13.2236,7,13,7.2236,13,7.5S13.2236,8,13.5,8S14,7.7764,14,7.5S13.7764,7,13.5,7L13.5,7z"/>
	</g>
	<g>
		<path fill="#C8C8C8" d="M16.5,7C16.2236,7,16,7.2236,16,7.5S16.2236,8,16.5,8S17,7.7764,17,7.5S16.7764,7,16.5,7L16.5,7z"/>
	</g>
	<g>
		<path fill="#C8C8C8" d="M19.5,7C19.2236,7,19,7.2236,19,7.5S19.2236,8,19.5,8S20,7.7764,20,7.5S19.7764,7,19.5,7L19.5,7z"/>
	</g>
	<g>
		<path fill="#C8C8C8" d="M24.5,14c-0.2764,0-0.5,0.2236-0.5,0.5s0.2236,0.5,0.5,0.5s0.5-0.2236,0.5-0.5S24.7764,14,24.5,14L24.5,14
			z"/>
	</g>
	<g>
		<path fill="#C8C8C8" d="M24.5,11c-0.2764,0-0.5,0.2236-0.5,0.5s0.2236,0.5,0.5,0.5s0.5-0.2236,0.5-0.5S24.7764,11,24.5,11L24.5,11
			z"/>
	</g>
	<g>
		<path fill="#C8C8C8" d="M24.5,17c-0.2764,0-0.5,0.2236-0.5,0.5s0.2236,0.5,0.5,0.5s0.5-0.2236,0.5-0.5S24.7764,17,24.5,17L24.5,17
			z"/>
	</g>
	<g>
		<path fill="#C8C8C8" d="M18.5,24c-0.2764,0-0.5,0.2236-0.5,0.5s0.2236,0.5,0.5,0.5s0.5-0.2236,0.5-0.5S18.7764,24,18.5,24L18.5,24
			z"/>
	</g>
	<linearGradient id="SVGID_1_" gradientUnits="userSpaceOnUse" x1="15.1723" y1="13.2408" x2="28.5443" y2="30.3561">
		<stop  offset="0" style="stop-color:#FFFFFF;stop-opacity:0"/>
		<stop  offset="0.2264" style="stop-color:#FCFCFC;stop-opacity:0.0226"/>
		<stop  offset="0.3626" style="stop-color:#F4F4F4;stop-opacity:0.0363"/>
		<stop  offset="0.475" style="stop-color:#E6E6E6;stop-opacity:0.0475"/>
		<stop  offset="0.5744" style="stop-color:#D1D1D1;stop-opacity:0.0574"/>
		<stop  offset="0.6652" style="stop-color:#B7B7B7;stop-opacity:0.0665"/>
		<stop  offset="0.7498" style="stop-color:#979797;stop-opacity:0.075"/>
		<stop  offset="0.8297" style="stop-color:#707070;stop-opacity:0.083"/>
		<stop  offset="0.9057" style="stop-color:#444444;stop-opacity:0.0906"/>
		<stop  offset="0.9761" style="stop-color:#121212;stop-opacity:0.0976"/>
		<stop  offset="1" style="stop-color:#000000;stop-opacity:0.1"/>
	</linearGradient>
	<polygon fill="url(#SVGID_1_)" points="9,28 9,30 29,30 29,7 28,6 28,5 27,4 27,28 	"/>
	<linearGradient id="SVGID_2_" gradientUnits="userSpaceOnUse" x1="7.873" y1="5.318" x2="26.127" y2="28.682">
		<stop  offset="0" style="stop-color:#FFFFFF;stop-opacity:0"/>
		<stop  offset="0.2264" style="stop-color:#FCFCFC;stop-opacity:0.0226"/>
		<stop  offset="0.3626" style="stop-color:#F4F4F4;stop-opacity:0.0363"/>
		<stop  offset="0.475" style="stop-color:#E6E6E6;stop-opacity:0.0475"/>
		<stop  offset="0.5744" style="stop-color:#D1D1D1;stop-opacity:0.0574"/>
		<stop  offset="0.6652" style="stop-color:#B7B7B7;stop-opacity:0.0665"/>
		<stop  offset="0.7498" style="stop-color:#979797;stop-opacity:0.075"/>
		<stop  offset="0.8297" style="stop-color:#707070;stop-opacity:0.083"/>
		<stop  offset="0.9057" style="stop-color:#444444;stop-opacity:0.0906"/>
		<stop  offset="0.9761" style="stop-color:#121212;stop-opacity:0.0976"/>
		<stop  offset="1" style="stop-color:#000000;stop-opacity:0.1"/>
	</linearGradient>
	<polygon fill="url(#SVGID_2_)" points="8.1111,28 9.2222,28 27,28 27,6 7,6 7,28 	"/>
	<linearGradient id="SVGID_3_" gradientUnits="userSpaceOnUse" x1="9.5" y1="26.4375" x2="9.5" y2="9.525">
		<stop  offset="0" style="stop-color:#FFFFFF;stop-opacity:0"/>
		<stop  offset="0.8587" style="stop-color:#FFFFFF;stop-opacity:0.1546"/>
		<stop  offset="1" style="stop-color:#FFFFFF;stop-opacity:0.18"/>
	</linearGradient>
	<polygon fill="url(#SVGID_3_)" points="16,9 3,11 3,25 16,27 	"/>
	<linearGradient id="SVGID_4_" gradientUnits="userSpaceOnUse" x1="11.2818" y1="29.352" x2="11.6173" y2="26.212">
		<stop  offset="0" style="stop-color:#828282;stop-opacity:0"/>
		<stop  offset="0.2812" style="stop-color:#7F7F7F;stop-opacity:0.0562"/>
		<stop  offset="0.4503" style="stop-color:#777777;stop-opacity:0.0901"/>
		<stop  offset="0.5899" style="stop-color:#696969;stop-opacity:0.118"/>
		<stop  offset="0.7133" style="stop-color:#545454;stop-opacity:0.1427"/>
		<stop  offset="0.8259" style="stop-color:#3A3A3A;stop-opacity:0.1652"/>
		<stop  offset="0.9294" style="stop-color:#1A1A1A;stop-opacity:0.1859"/>
		<stop  offset="1" style="stop-color:#000000;stop-opacity:0.2"/>
	</linearGradient>
	<polygon fill="url(#SVGID_4_)" points="16,29 7,29 7,25.62 16,27 	"/>
	<linearGradient id="SVGID_5_" gradientUnits="userSpaceOnUse" x1="17.9181" y1="5.5626" x2="18.1285" y2="1.5484">
		<stop  offset="0" style="stop-color:#FFFFFF;stop-opacity:0"/>
		<stop  offset="0.8537" style="stop-color:#FFFFFF;stop-opacity:0.2134"/>
		<stop  offset="1" style="stop-color:#FFFFFF;stop-opacity:0.25"/>
	</linearGradient>
	<polygon fill="url(#SVGID_5_)" points="27,2 7,2 7,6 27,6 27,4 29,6 29,4 	"/>
	<linearGradient id="SVGID_6_" gradientUnits="userSpaceOnUse" x1="18" y1="29.9375" x2="18" y2="28.0583">
		<stop  offset="0" style="stop-color:#828282;stop-opacity:0"/>
		<stop  offset="0.2812" style="stop-color:#7F7F7F;stop-opacity:0.0281"/>
		<stop  offset="0.4503" style="stop-color:#777777;stop-opacity:0.045"/>
		<stop  offset="0.5899" style="stop-color:#696969;stop-opacity:0.059"/>
		<stop  offset="0.7133" style="stop-color:#545454;stop-opacity:0.0713"/>
		<stop  offset="0.8259" style="stop-color:#3A3A3A;stop-opacity:0.0826"/>
		<stop  offset="0.9294" style="stop-color:#1A1A1A;stop-opacity:0.0929"/>
		<stop  offset="1" style="stop-color:#000000;stop-opacity:0.1"/>
	</linearGradient>
	<rect x="9" y="28" fill="url(#SVGID_6_)" width="18" height="2"/>
</g>
</svg>
