<svg id="1a02a188-5c4c-461c-9775-2ef2128dcb67" data-name="ICONS" xmlns="http://www.w3.org/2000/svg" xmlns:xlink="http://www.w3.org/1999/xlink" viewBox="0 0 32 32"><defs><linearGradient id="23b83b71-7a15-41a9-a92b-22c25d6a8285" x1="15.17234" y1="13.24078" x2="28.54426" y2="30.35606" gradientUnits="userSpaceOnUse"><stop offset="0" stop-color="#fff" stop-opacity="0"/><stop offset="0.86247" stop-color="#5e5e5e" stop-opacity="0.06315"/><stop offset="1" stop-opacity="0.1"/></linearGradient><linearGradient id="ee6cd321-3afb-4681-8eca-3e32d98f2029" x1="7.87298" y1="5.31795" x2="26.12702" y2="28.68205" xlink:href="#23b83b71-7a15-41a9-a92b-22c25d6a8285"/><linearGradient id="d37c9bb6-a392-440e-b15f-49ba7e7cac3e" x1="9.5" y1="26.4375" x2="9.5" y2="9.52504" gradientUnits="userSpaceOnUse"><stop offset="0" stop-color="#fff" stop-opacity="0"/><stop offset="0.52587" stop-color="#fff" stop-opacity="0.00735"/><stop offset="0.71529" stop-color="#fff" stop-opacity="0.03396"/><stop offset="0.8503" stop-color="#fff" stop-opacity="0.0803"/><stop offset="0.95875" stop-color="#fff" stop-opacity="0.14595"/><stop offset="1" stop-color="#fff" stop-opacity="0.18"/></linearGradient><linearGradient id="15e8fa67-f423-412d-89be-402eb04a98ce" x1="11.28178" y1="29.35196" x2="11.61734" y2="26.21204" gradientUnits="userSpaceOnUse"><stop offset="0" stop-color="#828282" stop-opacity="0"/><stop offset="0.86247" stop-color="#303030" stop-opacity="0.12631"/><stop offset="1" stop-opacity="0.2"/></linearGradient><linearGradient id="c6286404-a0ff-43c9-8c40-1db66ba68730" x1="17.91811" y1="5.56256" x2="18.12848" y2="1.5484" gradientUnits="userSpaceOnUse"><stop offset="0" stop-color="#fff" stop-opacity="0"/><stop offset="0.44604" stop-color="#fff" stop-opacity="0.00799"/><stop offset="0.63551" stop-color="#fff" stop-opacity="0.03616"/><stop offset="0.77636" stop-color="#fff" stop-opacity="0.08493"/><stop offset="0.8924" stop-color="#fff" stop-opacity="0.15385"/><stop offset="0.99328" stop-color="#fff" stop-opacity="0.24291"/><stop offset="1" stop-color="#fff" stop-opacity="0.25"/></linearGradient><linearGradient id="ff8df252-884c-4252-aa52-bb28e13801bd" x1="18" y1="29.9375" x2="18" y2="28.05834" gradientUnits="userSpaceOnUse"><stop offset="0" stop-color="#828282" stop-opacity="0"/><stop offset="0.86247" stop-color="#303030" stop-opacity="0.06315"/><stop offset="1" stop-opacity="0.1"/></linearGradient></defs><title>FileTypeIcons_Master_All_NEW</title><polygon points="27 2 7 2 7 28 9 28 9 30 29 30 29 4 27 2" fill="#fff"/><path d="M23,20.05029V17H21V14.94971a2.5,2.5,0,1,0-1,0V17H18V15H13v5h5V18h4v2.05029a2.5,2.5,0,1,0,1,0ZM19,12.5A1.5,1.5,0,1,1,20.5,14,1.50164,1.50164,0,0,1,19,12.5ZM17,19H14V16h3Zm5.5,5A1.5,1.5,0,1,1,24,22.5,1.50164,1.50164,0,0,1,22.5,24Z" fill="#c8c8c8"/><polygon points="28 5 28 29 10 29 10 28 27 28 27 6 26 6 26 27 10 27 9 27 8 27 8 6 7 6 7 28 9 28 9 30 29 30 29 6 28 5" fill="#949494"/><polygon points="3 11 16 9 16 27 3 25 3 11" fill="#3955a3"/><path d="M13,14l-2.56528,8H8.53412L6,14H7.80712l1.55267,5.56764a4.24924,4.24924,0,0,1,.1506.79777h.03115a4.80352,4.80352,0,0,1,.161-.82008L11.24481,14Z" fill="#fff"/><polygon points="27 2 7 2 7 6 27 6 27 4 29 6 29 4 27 2" fill="#3955a3"/><path d="M10.5,7a.5.5,0,1,0,.5.5.49971.49971,0,0,0-.5-.5Z" fill="#c8c8c8"/><path d="M13.5,7a.5.5,0,1,0,.5.5.49971.49971,0,0,0-.5-.5Z" fill="#c8c8c8"/><path d="M16.5,7a.5.5,0,1,0,.5.5.49971.49971,0,0,0-.5-.5Z" fill="#c8c8c8"/><path d="M19.5,7a.5.5,0,1,0,.5.5.49971.49971,0,0,0-.5-.5Z" fill="#c8c8c8"/><path d="M24.5,14a.5.5,0,1,0,.5.5.49971.49971,0,0,0-.5-.5Z" fill="#c8c8c8"/><path d="M24.5,11a.5.5,0,1,0,.5.5.49971.49971,0,0,0-.5-.5Z" fill="#c8c8c8"/><path d="M24.5,17a.5.5,0,1,0,.5.5.49971.49971,0,0,0-.5-.5Z" fill="#c8c8c8"/><path d="M18.5,24a.5.5,0,1,0,.5.5.49971.49971,0,0,0-.5-.5Z" fill="#c8c8c8"/><polygon points="9 28 9 30 29 30 29 7 28 6 28 5 27 4 27 28 9 28" fill="url(#23b83b71-7a15-41a9-a92b-22c25d6a8285)"/><polygon points="8.111 28 9.222 28 27 28 27 6 7 6 7 28 8.111 28" fill="url(#ee6cd321-3afb-4681-8eca-3e32d98f2029)"/><polygon points="16 9 3 11 3 25 16 27 16 9" fill="url(#d37c9bb6-a392-440e-b15f-49ba7e7cac3e)"/><polygon points="16 29 7 29 7 25.62 16 27 16 29" fill="url(#15e8fa67-f423-412d-89be-402eb04a98ce)"/><polygon points="27 2 7 2 7 6 27 6 27 4 29 6 29 4 27 2" fill="url(#c6286404-a0ff-43c9-8c40-1db66ba68730)"/><rect x="9" y="28" width="18" height="2" fill="url(#ff8df252-884c-4252-aa52-bb28e13801bd)"/></svg>