<svg id="ecc0ac2b-372b-4ed0-b046-1e1b09acc678" data-name="ICONS" xmlns="http://www.w3.org/2000/svg" xmlns:xlink="http://www.w3.org/1999/xlink" viewBox="0 0 32 32"><defs><linearGradient id="fb7e6fee-1360-425e-a42f-e573f6bdb823" x1="5.0842" y1="3.60755" x2="27.96138" y2="30.87151" gradientUnits="userSpaceOnUse"><stop offset="0" stop-color="#fff" stop-opacity="0"/><stop offset="0.86247" stop-color="#5e5e5e" stop-opacity="0.06315"/><stop offset="1" stop-opacity="0.1"/></linearGradient><linearGradient id="a6b4a5c9-d02c-440e-8e99-e2895e78e813" x1="22.14788" y1="9.10212" x2="26.11437" y2="5.13563" gradientUnits="userSpaceOnUse"><stop offset="0" stop-color="#fff" stop-opacity="0"/><stop offset="0.44604" stop-color="#fff" stop-opacity="0.00799"/><stop offset="0.63551" stop-color="#fff" stop-opacity="0.03616"/><stop offset="0.77636" stop-color="#fff" stop-opacity="0.08493"/><stop offset="0.8924" stop-color="#fff" stop-opacity="0.15385"/><stop offset="0.99328" stop-color="#fff" stop-opacity="0.24291"/><stop offset="1" stop-color="#fff" stop-opacity="0.25"/></linearGradient><linearGradient id="0eb77d27-d5ff-4dcc-a139-06beebdb03f0" x1="9.5" y1="26.4375" x2="9.5" y2="9.52504" gradientUnits="userSpaceOnUse"><stop offset="0" stop-color="#fff" stop-opacity="0"/><stop offset="0.52587" stop-color="#fff" stop-opacity="0.00735"/><stop offset="0.71529" stop-color="#fff" stop-opacity="0.03396"/><stop offset="0.8503" stop-color="#fff" stop-opacity="0.0803"/><stop offset="0.95875" stop-color="#fff" stop-opacity="0.14595"/><stop offset="1" stop-color="#fff" stop-opacity="0.18"/></linearGradient><linearGradient id="cb896262-5058-4fc3-ade8-c09cab06fe26" x1="11.28178" y1="29.35196" x2="11.61734" y2="26.21204" gradientUnits="userSpaceOnUse"><stop offset="0" stop-color="#828282" stop-opacity="0"/><stop offset="0.86247" stop-color="#303030" stop-opacity="0.12631"/><stop offset="1" stop-opacity="0.2"/></linearGradient><linearGradient id="1daa9c3c-1fc5-43fc-9e1d-ef5a39f478e4" x1="25" y1="10.9375" x2="25" y2="9.05834" gradientUnits="userSpaceOnUse"><stop offset="0" stop-color="#828282" stop-opacity="0"/><stop offset="0.86247" stop-color="#303030" stop-opacity="0.06315"/><stop offset="1" stop-opacity="0.1"/></linearGradient></defs><title>FileTypeIcons_Master_All_NEW</title><polygon points="28 29 8 29 8 3 23 3 28 8 28 29" fill="#fff"/><path d="M23,2H7V30H29V8Zm0,1.5L27.5,8H23ZM28,29H8V3H22V9h6Z" fill="#949494"/><rect x="22" y="23" width="4" height="1" fill="#c8c8c8"/><rect x="22" y="25" width="4" height="1" fill="#c8c8c8"/><rect x="22" y="19" width="4" height="1" fill="#c8c8c8"/><rect x="22" y="21" width="4" height="1" fill="#c8c8c8"/><rect x="22" y="15" width="4" height="1" fill="#c8c8c8"/><rect x="22" y="17" width="4" height="1" fill="#c8c8c8"/><rect x="22" y="11" width="4" height="1" fill="#c8c8c8"/><rect x="22" y="13" width="4" height="1" fill="#c8c8c8"/><rect x="17" y="23" width="4" height="1" fill="#c8c8c8"/><rect x="17" y="25" width="4" height="1" fill="#c8c8c8"/><rect x="17" y="19" width="4" height="1" fill="#c8c8c8"/><rect x="17" y="21" width="4" height="1" fill="#c8c8c8"/><rect x="17" y="15" width="4" height="1" fill="#c8c8c8"/><rect x="17" y="17" width="4" height="1" fill="#c8c8c8"/><rect x="17" y="11" width="4" height="1" fill="#c8c8c8"/><rect x="17" y="13" width="4" height="1" fill="#c8c8c8"/><polygon points="3 11 16 9 16 27 3 25 3 11" fill="#217346"/><path d="M13,22H10.98269l-1.301-2.6053a2.38606,2.38606,0,0,1-.15275-.53556H9.5079a4.228,4.228,0,0,1-.17381.55788L8.02784,22H6l2.40707-4L6.20542,14h2.07l1.07975,2.39888a4.30868,4.30868,0,0,1,.22649.675h.02107q.06321-.23432.237-.69735L11.04063,14h1.89616l-2.26486,3.96653Z" fill="#fff"/><path d="M29,8,23,2H7V30H29Z" fill="url(#fb7e6fee-1360-425e-a42f-e573f6bdb823)"/><polygon points="7 2 7 3 22 3 22 9 28 9 28 24.5 29 24.5 29 8 23 2 7 2" fill="url(#a6b4a5c9-d02c-440e-8e99-e2895e78e813)"/><polygon points="16 9 3 11 3 25 16 27 16 9" fill="url(#0eb77d27-d5ff-4dcc-a139-06beebdb03f0)"/><polygon points="16 29 7 29 7 25.62 16 27 16 29" fill="url(#cb896262-5058-4fc3-ade8-c09cab06fe26)"/><rect x="22" y="9" width="6" height="2" fill="url(#1daa9c3c-1fc5-43fc-9e1d-ef5a39f478e4)"/></svg>