<?xml version="1.0" encoding="utf-8"?>
<!-- Generator: Adobe Illustrator 21.1.0, SVG Export Plug-In . SVG Version: 6.00 Build 0)  -->
<svg version="1.1" xmlns="http://www.w3.org/2000/svg" xmlns:xlink="http://www.w3.org/1999/xlink" x="0px" y="0px"
	 viewBox="0 0 32 32" enable-background="new 0 0 32 32" xml:space="preserve">
<g id="TEMPLATE" display="none">
	<g display="inline">
		<path fill="#D0D0D0" d="M32,0v32H0V0H32 M33-1h-1H0h-1v1v32v1h1h32h1v-1V0V-1L33-1z"/>
	</g>
	<g display="inline" opacity="0.1">
		<path fill="#FF3A6D" d="M30,2v28H2V2H30 M32,0H0v32h32V0L32,0z"/>
	</g>
</g>
<g id="ICONS">
	<polygon fill="#FFFFFF" points="27,2 7,2 7,28 9,28 9,30 29,30 29,4 	"/>
	<polygon fill="#949494" points="28,5 28,29 10,29 10,28 27,28 27,6 26,6 26,27 10,27 9,27 8,27 8,6 7,6 7,28 9,28 9,30 29,30 29,6 
			"/>
	<polygon fill="#217346" points="27,2 7,2 7,6 27,6 27,4 29,6 29,4 	"/>
	<polygon fill="#217346" points="3,11 16,9 16,27 3,25 	"/>
	<g>
		<path fill="#FFFFFF" d="M13,22h-2.0173l-1.301-2.6053c-0.0492-0.0967-0.1001-0.2752-0.1527-0.5356H9.5079
			c-0.0246,0.1227-0.0825,0.3087-0.1738,0.5579L8.0278,22H6l2.4071-4l-2.2017-4h2.07l1.0798,2.3989
			c0.0843,0.1897,0.1598,0.4147,0.2265,0.675h0.0211c0.0421-0.1562,0.1211-0.3887,0.237-0.6973L11.0406,14h1.8962l-2.2649,3.9665
			L13,22z"/>
	</g>
	<rect x="20" y="24" fill="#C8C8C8" width="4" height="1"/>
	<rect x="16" y="24" fill="#C8C8C8" width="3" height="1"/>
	<rect x="20" y="22" fill="#C8C8C8" width="4" height="1"/>
	<rect x="16" y="22" fill="#C8C8C8" width="3" height="1"/>
	<rect x="20" y="20" fill="#C8C8C8" width="4" height="1"/>
	<rect x="16" y="20" fill="#C8C8C8" width="3" height="1"/>
	<rect x="20" y="18" fill="#C8C8C8" width="4" height="1"/>
	<rect x="16" y="18" fill="#C8C8C8" width="3" height="1"/>
	<rect x="20" y="16" fill="#C8C8C8" width="4" height="1"/>
	<rect x="16" y="16" fill="#C8C8C8" width="3" height="1"/>
	<rect x="20" y="14" fill="#C8C8C8" width="4" height="1"/>
	<rect x="16" y="14" fill="#C8C8C8" width="3" height="1"/>
	<rect x="20" y="12" fill="#C8C8C8" width="4" height="1"/>
	<rect x="16" y="12" fill="#C8C8C8" width="3" height="1"/>
	<rect x="20" y="10" fill="#C8C8C8" width="4" height="1"/>
	<rect x="16" y="10" fill="#C8C8C8" width="3" height="1"/>
	<linearGradient id="SVGID_1_" gradientUnits="userSpaceOnUse" x1="15.1723" y1="13.2408" x2="28.5443" y2="30.3561">
		<stop  offset="0" style="stop-color:#FFFFFF;stop-opacity:0"/>
		<stop  offset="0.2264" style="stop-color:#FCFCFC;stop-opacity:0.0226"/>
		<stop  offset="0.3626" style="stop-color:#F4F4F4;stop-opacity:0.0363"/>
		<stop  offset="0.475" style="stop-color:#E6E6E6;stop-opacity:0.0475"/>
		<stop  offset="0.5744" style="stop-color:#D1D1D1;stop-opacity:0.0574"/>
		<stop  offset="0.6652" style="stop-color:#B7B7B7;stop-opacity:0.0665"/>
		<stop  offset="0.7498" style="stop-color:#979797;stop-opacity:0.075"/>
		<stop  offset="0.8297" style="stop-color:#707070;stop-opacity:0.083"/>
		<stop  offset="0.9057" style="stop-color:#444444;stop-opacity:0.0906"/>
		<stop  offset="0.9761" style="stop-color:#121212;stop-opacity:0.0976"/>
		<stop  offset="1" style="stop-color:#000000;stop-opacity:0.1"/>
	</linearGradient>
	<polygon fill="url(#SVGID_1_)" points="9,28 9,30 29,30 29,7 28,6 28,5 27,4 27,28 	"/>
	<linearGradient id="SVGID_2_" gradientUnits="userSpaceOnUse" x1="7.873" y1="5.318" x2="26.127" y2="28.682">
		<stop  offset="0" style="stop-color:#FFFFFF;stop-opacity:0"/>
		<stop  offset="0.2264" style="stop-color:#FCFCFC;stop-opacity:0.0226"/>
		<stop  offset="0.3626" style="stop-color:#F4F4F4;stop-opacity:0.0363"/>
		<stop  offset="0.475" style="stop-color:#E6E6E6;stop-opacity:0.0475"/>
		<stop  offset="0.5744" style="stop-color:#D1D1D1;stop-opacity:0.0574"/>
		<stop  offset="0.6652" style="stop-color:#B7B7B7;stop-opacity:0.0665"/>
		<stop  offset="0.7498" style="stop-color:#979797;stop-opacity:0.075"/>
		<stop  offset="0.8297" style="stop-color:#707070;stop-opacity:0.083"/>
		<stop  offset="0.9057" style="stop-color:#444444;stop-opacity:0.0906"/>
		<stop  offset="0.9761" style="stop-color:#121212;stop-opacity:0.0976"/>
		<stop  offset="1" style="stop-color:#000000;stop-opacity:0.1"/>
	</linearGradient>
	<polygon fill="url(#SVGID_2_)" points="8.1111,28 9.2222,28 27,28 27,6 7,6 7,28 	"/>
	<linearGradient id="SVGID_3_" gradientUnits="userSpaceOnUse" x1="9.5" y1="26.4375" x2="9.5" y2="9.525">
		<stop  offset="0" style="stop-color:#FFFFFF;stop-opacity:0"/>
		<stop  offset="0.8587" style="stop-color:#FFFFFF;stop-opacity:0.1546"/>
		<stop  offset="1" style="stop-color:#FFFFFF;stop-opacity:0.18"/>
	</linearGradient>
	<polygon fill="url(#SVGID_3_)" points="16,9 3,11 3,25 16,27 	"/>
	<linearGradient id="SVGID_4_" gradientUnits="userSpaceOnUse" x1="11.2818" y1="29.352" x2="11.6173" y2="26.212">
		<stop  offset="0" style="stop-color:#828282;stop-opacity:0"/>
		<stop  offset="0.2812" style="stop-color:#7F7F7F;stop-opacity:0.0562"/>
		<stop  offset="0.4503" style="stop-color:#777777;stop-opacity:0.0901"/>
		<stop  offset="0.5899" style="stop-color:#696969;stop-opacity:0.118"/>
		<stop  offset="0.7133" style="stop-color:#545454;stop-opacity:0.1427"/>
		<stop  offset="0.8259" style="stop-color:#3A3A3A;stop-opacity:0.1652"/>
		<stop  offset="0.9294" style="stop-color:#1A1A1A;stop-opacity:0.1859"/>
		<stop  offset="1" style="stop-color:#000000;stop-opacity:0.2"/>
	</linearGradient>
	<polygon fill="url(#SVGID_4_)" points="16,29 7,29 7,25.62 16,27 	"/>
	<linearGradient id="SVGID_5_" gradientUnits="userSpaceOnUse" x1="17.9181" y1="5.5626" x2="18.1285" y2="1.5484">
		<stop  offset="0" style="stop-color:#FFFFFF;stop-opacity:0"/>
		<stop  offset="0.8537" style="stop-color:#FFFFFF;stop-opacity:0.2134"/>
		<stop  offset="1" style="stop-color:#FFFFFF;stop-opacity:0.25"/>
	</linearGradient>
	<polygon fill="url(#SVGID_5_)" points="27,2 7,2 7,6 27,6 27,4 29,6 29,4 	"/>
	<linearGradient id="SVGID_6_" gradientUnits="userSpaceOnUse" x1="18" y1="29.9375" x2="18" y2="28.0583">
		<stop  offset="0" style="stop-color:#828282;stop-opacity:0"/>
		<stop  offset="0.2812" style="stop-color:#7F7F7F;stop-opacity:0.0281"/>
		<stop  offset="0.4503" style="stop-color:#777777;stop-opacity:0.045"/>
		<stop  offset="0.5899" style="stop-color:#696969;stop-opacity:0.059"/>
		<stop  offset="0.7133" style="stop-color:#545454;stop-opacity:0.0713"/>
		<stop  offset="0.8259" style="stop-color:#3A3A3A;stop-opacity:0.0826"/>
		<stop  offset="0.9294" style="stop-color:#1A1A1A;stop-opacity:0.0929"/>
		<stop  offset="1" style="stop-color:#000000;stop-opacity:0.1"/>
	</linearGradient>
	<rect x="9" y="28" fill="url(#SVGID_6_)" width="18" height="2"/>
</g>
</svg>
