<svg id="7616a82b-0120-4510-983b-30be8c7d7d5f" data-name="ICONS" xmlns="http://www.w3.org/2000/svg" xmlns:xlink="http://www.w3.org/1999/xlink" viewBox="0 0 32 32"><defs><linearGradient id="13dae1d0-37c7-4d18-9dd0-335d28eafb09" x1="15.17234" y1="13.24078" x2="28.54426" y2="30.35606" gradientUnits="userSpaceOnUse"><stop offset="0" stop-color="#fff" stop-opacity="0"/><stop offset="0.86247" stop-color="#5e5e5e" stop-opacity="0.06315"/><stop offset="1" stop-opacity="0.1"/></linearGradient><linearGradient id="40cd2420-d424-4e03-a1fc-e49cb9b296dd" x1="7.87298" y1="5.31795" x2="26.12702" y2="28.68205" xlink:href="#13dae1d0-37c7-4d18-9dd0-335d28eafb09"/><linearGradient id="b9450b80-a96d-4b36-9d89-d07dfd55bcc4" x1="9.5" y1="26.4375" x2="9.5" y2="9.52504" gradientUnits="userSpaceOnUse"><stop offset="0" stop-color="#fff" stop-opacity="0"/><stop offset="0.52587" stop-color="#fff" stop-opacity="0.00735"/><stop offset="0.71529" stop-color="#fff" stop-opacity="0.03396"/><stop offset="0.8503" stop-color="#fff" stop-opacity="0.0803"/><stop offset="0.95875" stop-color="#fff" stop-opacity="0.14595"/><stop offset="1" stop-color="#fff" stop-opacity="0.18"/></linearGradient><linearGradient id="cae6e94a-6c2e-4db4-b564-79500d8fa205" x1="11.28178" y1="29.35196" x2="11.61734" y2="26.21204" gradientUnits="userSpaceOnUse"><stop offset="0" stop-color="#828282" stop-opacity="0"/><stop offset="0.86247" stop-color="#303030" stop-opacity="0.12631"/><stop offset="1" stop-opacity="0.2"/></linearGradient><linearGradient id="fc178870-4131-48eb-be50-452594a6bb56" x1="17.91811" y1="5.56256" x2="18.12848" y2="1.5484" gradientUnits="userSpaceOnUse"><stop offset="0" stop-color="#fff" stop-opacity="0"/><stop offset="0.44604" stop-color="#fff" stop-opacity="0.00799"/><stop offset="0.63551" stop-color="#fff" stop-opacity="0.03616"/><stop offset="0.77636" stop-color="#fff" stop-opacity="0.08493"/><stop offset="0.8924" stop-color="#fff" stop-opacity="0.15385"/><stop offset="0.99328" stop-color="#fff" stop-opacity="0.24291"/><stop offset="1" stop-color="#fff" stop-opacity="0.25"/></linearGradient><linearGradient id="61c4eedd-28be-4aed-a1de-d03007041a9b" x1="18" y1="29.9375" x2="18" y2="28.05834" gradientUnits="userSpaceOnUse"><stop offset="0" stop-color="#828282" stop-opacity="0"/><stop offset="0.86247" stop-color="#303030" stop-opacity="0.06315"/><stop offset="1" stop-opacity="0.1"/></linearGradient></defs><title>FileTypeIcons_Master_All_NEW</title><polygon points="27 2 7 2 7 28 9 28 9 30 29 30 29 4 27 2" fill="#fff"/><polygon points="28 5 28 29 10 29 10 28 27 28 27 6 26 6 26 27 10 27 9 27 8 27 8 6 7 6 7 28 9 28 9 30 29 30 29 6 28 5" fill="#949494"/><polygon points="27 2 7 2 7 6 27 6 27 4 29 6 29 4 27 2" fill="#217346"/><polygon points="3 11 16 9 16 27 3 25 3 11" fill="#217346"/><path d="M13,22H10.98269l-1.301-2.6053a2.38606,2.38606,0,0,1-.15275-.53556H9.5079a4.228,4.228,0,0,1-.17381.55788L8.02784,22H6l2.40707-4L6.20542,14h2.07l1.07975,2.39888a4.30868,4.30868,0,0,1,.22649.675h.02107q.06321-.23432.237-.69735L11.04063,14h1.89616l-2.26486,3.96653Z" fill="#fff"/><rect x="20" y="24" width="4" height="1" fill="#c8c8c8"/><rect x="16" y="24" width="3" height="1" fill="#c8c8c8"/><rect x="20" y="22" width="4" height="1" fill="#c8c8c8"/><rect x="16" y="22" width="3" height="1" fill="#c8c8c8"/><rect x="20" y="20" width="4" height="1" fill="#c8c8c8"/><rect x="16" y="20" width="3" height="1" fill="#c8c8c8"/><rect x="20" y="18" width="4" height="1" fill="#c8c8c8"/><rect x="16" y="18" width="3" height="1" fill="#c8c8c8"/><rect x="20" y="16" width="4" height="1" fill="#c8c8c8"/><rect x="16" y="16" width="3" height="1" fill="#c8c8c8"/><rect x="20" y="14" width="4" height="1" fill="#c8c8c8"/><rect x="16" y="14" width="3" height="1" fill="#c8c8c8"/><rect x="20" y="12" width="4" height="1" fill="#c8c8c8"/><rect x="16" y="12" width="3" height="1" fill="#c8c8c8"/><rect x="20" y="10" width="4" height="1" fill="#c8c8c8"/><rect x="16" y="10" width="3" height="1" fill="#c8c8c8"/><polygon points="9 28 9 30 29 30 29 7 28 6 28 5 27 4 27 28 9 28" fill="url(#13dae1d0-37c7-4d18-9dd0-335d28eafb09)"/><polygon points="8.111 28 9.222 28 27 28 27 6 7 6 7 28 8.111 28" fill="url(#40cd2420-d424-4e03-a1fc-e49cb9b296dd)"/><polygon points="16 9 3 11 3 25 16 27 16 9" fill="url(#b9450b80-a96d-4b36-9d89-d07dfd55bcc4)"/><polygon points="16 29 7 29 7 25.62 16 27 16 29" fill="url(#cae6e94a-6c2e-4db4-b564-79500d8fa205)"/><polygon points="27 2 7 2 7 6 27 6 27 4 29 6 29 4 27 2" fill="url(#fc178870-4131-48eb-be50-452594a6bb56)"/><rect x="9" y="28" width="18" height="2" fill="url(#61c4eedd-28be-4aed-a1de-d03007041a9b)"/></svg>