<?xml version="1.0" encoding="utf-8"?>
<!-- Generator: Adobe Illustrator 21.1.0, SVG Export Plug-In . SVG Version: 6.00 Build 0)  -->
<svg version="1.1" xmlns="http://www.w3.org/2000/svg" xmlns:xlink="http://www.w3.org/1999/xlink" x="0px" y="0px"
	 viewBox="0 0 32 32" enable-background="new 0 0 32 32" xml:space="preserve">
<g id="TEMPLATE" display="none">
	<g display="inline">
		<path fill="#D0D0D0" d="M32,0v32H0V0H32 M33-1h-1H0h-1v1v32v1h1h32h1v-1V0V-1L33-1z"/>
	</g>
	<g display="inline" opacity="0.1">
		<path fill="#FF3A6D" d="M30,2v28H2V2H30 M32,0H0v32h32V0L32,0z"/>
	</g>
</g>
<g id="ICONS">
	<g>
		<polygon fill="#FFFFFF" points="26,29 6,29 6,3 21,3 26,8 		"/>
		<path fill="#949494" d="M21,2H5v28h22V8L21,2z M21,3.5L25.5,8H21V3.5z M26,29H6V3h14v6h6V29z"/>
	</g>
	<rect x="8" y="23" fill="#C8C8C8" width="16" height="1"/>
	<rect x="8" y="25" fill="#C8C8C8" width="16" height="1"/>
	<polygon fill="#949494" points="10,19 11,19 9,16 11,13 10,13 8,16 	"/>
	<polygon fill="#949494" points="22,19 21,19 23,16 21,13 22,13 24,16 	"/>
	<g>
		<circle fill="#6CAEDF" cx="16" cy="16" r="4"/>
		<g>
			<path fill="#DEEBF8" d="M18.0303,12.5539c-0.0084-0.005-0.0169-0.0097-0.0254-0.0146c-0.0007,0.0029-0.0005,0.0055-0.0015,0.0085
				C18.0131,12.5495,18.0211,12.552,18.0303,12.5539z"/>
			<path fill="#DEEBF8" d="M13.9099,15.7142c-0.0504-0.0119,0.0153,0.2135,0.0553,0.236c0.1064-0.0109-0.0206-0.0907,0.1497-0.0008
				c0.0448,0.0342,0.0934,0.0493,0.1453,0.0445c-0.0039,0.0073,0.0021,0.0104,0.0324-0.0049
				c0.0003-0.001,0.0005-0.0021,0.0005-0.0021C14.3247,15.8328,14.0298,15.7409,13.9099,15.7142z"/>
			<path fill="#DEEBF8" d="M13.7796,15.5325c-0.0271-0.1137-0.1894-0.4206-0.3366-0.3562c-0.0352,0.2003,0.1548,0.358,0.1755,0.4286
				C13.6681,15.7758,13.8926,15.5633,13.7796,15.5325z"/>
			<path fill="#DEEBF8" d="M19.1931,13.5911c-0.0108-0.0073-0.0211-0.0167-0.0321-0.0233
				c-0.0083,0.1191,0.0093,0.3117-0.1284,0.2988c-0.0561-0.0054-0.0944,0.0426-0.1445-0.0039
				c-0.0356-0.0328-0.0395-0.0741-0.0878-0.0879c-0.0641-0.1907-0.211-0.0176-0.2362,0.1153
				c0.0416,0.1481-0.1641,0.1631-0.1649,0.2752c-0.0007,0.0693-0.0427,0.113-0.0476,0.1869
				c-0.0052,0.0771,0.1142,0.1933,0.0933,0.2264l-0.0731,0.3763c-0.0347,0.045-0.0127,0.3921,0.018,0.4624
				c0.0484,0.1109,0.1902,0.2287,0.1613,0.3751c-0.0224,0.1168,0.0199,0.2965,0.1548,0.3024
				c0.0682,0.0616,0.1215,0.0998,0.2062,0.1548c0.006,0.0527,0.0835,0.116,0.1251,0.1321c0.1111,0.0305,0.1394,0.0737,0.211-0.047
				c0.0478-0.0806,0.2365-0.1323,0.2211-0.1825c0.0343-0.1972,0.1334-0.2613,0.2994-0.2833
				c0.0949-0.0126,0.0884,0.2112,0.0953,0.2613c0.0013,0.0095,0.0641,0.0951,0.1251,0.1493C19.9956,16.187,20,16.094,20,16
				C20,15.0954,19.6994,14.2612,19.1931,13.5911z"/>
			<path fill="#DEEBF8" d="M17.0595,12.1713c-0.1326-0.0173-0.1668-0.0506-0.3224-0.0147c-0.1662,0.0385,0.245,0.2588,0.3022,0.3045
				c0.0494,0.039,0.0612,0.084,0.1145,0.1269c0.0584-0.0103,0.083,0.0215,0.1321,0.039c0.0674,0.0238,0.1391-0.0268,0.2177,0.0013
				c0.0639,0.0233,0.0509,0.0817,0.0646,0.1396c0.1138-0.0191-0.0013-0.1799-0.0334-0.2223
				c-0.0494-0.0656-0.1734-0.0569-0.2334-0.1375c0.0796-0.0119,0.1531-0.107,0.1729,0.0344
				c0.0669,0.0473,0.1151,0.0493,0.1773,0.1109c0.0341,0.0338,0.0639-0.0098,0.0851,0.0126
				c0.0145,0.0511,0.0439,0.1367-0.0002,0.1872c-0.0602,0.0688-0.0011,0.1861,0.0051,0.2646
				c-0.013,0.0669,0.0763,0.175,0.0163,0.2329c-0.0442,0.0427,0.0931,0.0734,0.1233,0.0856
				c0.051,0.0205,0.1789,0.1305,0.1722,0.1898c-0.0024,0.0227-0.1383,0.0905-0.1657,0.0918
				c-0.0667,0.0028,0.0652,0.1716,0.0739,0.199c0.0333,0.0615,0.1135,0.1091,0.1404,0.1664
				c0.0652,0.139,0.0553-0.0096,0.1215,0.0444c0.0579,0.0476,0.1306-0.0194,0.1693-0.0582c0.0126-0.0483,0.017-0.1465,0.0005-0.1912
				c-0.0167-0.0462-0.0613-0.0426-0.0904-0.0581c-0.0171-0.0422-0.0095-0.1197-0.0186-0.1664
				c-0.0175-0.0899-0.06-0.1483,0.0068-0.243c0.0348-0.0494,0.2448,0.0806,0.2836,0.1164c0.0417,0.0387,0.0977-0.1297-0.0481-0.1403
				c-0.0533-0.0406-0.1652-0.0669-0.1861-0.1277c0.0551-0.1055,0.2823,0.2086,0.3753,0.1499
				c0.0117-0.0556-0.0877-0.0879-0.0944-0.1559c-0.0021-0.0212-0.0098-0.0851-0.0232-0.1097
				c-0.0163-0.0307-0.0436-0.0946-0.0709-0.1435c-0.1562-0.1275-0.3225-0.2431-0.497-0.3461
				c-0.0092-0.0019-0.0172-0.0044-0.0269-0.0061c0.001-0.003,0.0007-0.0056,0.0015-0.0085
				c-0.1395-0.081-0.2838-0.1544-0.4333-0.2183c-0.0475-0.009-0.0901-0.0174-0.1214-0.0266
				C17.3579,12.2678,17.1546,12.1344,17.0595,12.1713z"/>
			<path fill="#DEEBF8" d="M17.5059,12.9274c-0.0006-0.0044-0.381-0.181-0.3759-0.1714c0.0052,0.0101-0.0109,0-0.0018,0
				c-0.1417-0.013,0.1584,0.1923,0.1652,0.1933c-0.0886,0.0716-0.0062,0.1572,0.0577,0.2238
				c0.0488,0.0006,0.0965-0.1368,0.0965-0.1368c0.0515,0.0227,0.1611,0.1494,0.2221,0.0597
				C17.7463,12.9835,17.578,12.9249,17.5059,12.9274z"/>
			<path fill="#DEEBF8" d="M15.3421,19.4059c0.1284-0.053,0.2502-0.3515,0.3833-0.3965c0.0109-0.2546,0.3645-0.1688,0.5061-0.2053
				c0.1572-0.0396,0.2495-0.1184,0.2818-0.2515c0.0245-0.1,0.0374-0.1774,0.1504-0.2155c0.0758-0.0724,0.2252-0.1921,0.2205-0.3061
				c-0.0033-0.0719,0.0122-0.1757-0.0985-0.1647c-0.0997,0.0101-0.1209-0.0784-0.2049-0.0896
				c-0.1073-0.0139-0.2156,0.0122-0.3198,0.0062c-0.0866-0.0462-0.1173-0.0595-0.2052-0.0891
				c-0.0615-0.0201-0.1721-0.1931-0.2122-0.2328c-0.0584-0.0577-0.1246-0.0163-0.1964-0.0158
				c-0.0635-0.054,0.1018-0.146,0.0471-0.2205c-0.0832-0.0174-0.1486-0.1053-0.2168-0.1779
				c-0.0098-0.0104-0.1266-0.1005-0.1414-0.1032c-0.1293-0.024-0.2469,0.0367-0.3433-0.0682
				c-0.0129-0.014-0.1618-0.1443-0.1618-0.1443c0.0018-0.0148,0.082-0.038,0.0072-0.0574
				c-0.0323-0.0413-0.0489-0.0708-0.1019-0.0718c-0.0904-0.0393-0.053-0.1189-0.1598-0.0762
				c-0.0137-0.0046-0.1103,0.0264-0.1253,0.0279c-0.0466-0.021-0.0481-0.0829-0.1104-0.0753
				c-0.1015,0.0126-0.1536-0.1078-0.2632-0.105c-0.0073,0.0754-0.0691,0.1412-0.1381,0.1398
				c-0.0998-0.0019-0.0905-0.177-0.2244-0.1107c-0.0628,0.031-0.0095,0.1028-0.1171,0.1036
				c-0.061,0.0005-0.0579,0.0267-0.0579,0.0483c-0.085-0.0258-0.1809-0.1835-0.2471-0.2732
				c-0.0294-0.1071-0.2518-0.1315-0.2142-0.2543c0.0274-0.0897,0.0613-0.2849,0.0011-0.3743
				c-0.0248-0.037-0.0625-0.1235-0.1049-0.1443c-0.0365-0.0183,0.0303-0.0271,0.0114-0.0758
				c0.0473-0.0448,0.1336-0.2719,0.1231-0.3397c-0.1492-0.1085-0.1879,0.0789-0.2962,0.0869
				c-0.1763,0.0127-0.161-0.092-0.1831-0.2031c-0.0224-0.1084-0.0067-0.1991,0.024-0.3213
				c0.0295-0.1179,0.2003-0.1665,0.2094-0.3128c0.0506-0.021,0.1545-0.0726,0.2114-0.0519c0.0635,0.023,0.1328,0.0889,0.1933,0.1068
				c0.0365,0.0109,0.1479,0.0114,0.1897,0.0126c0.0429,0.031,0.0297,0.0754,0.0935,0.082c0.0586,0.0062-0.0057,0.0998-0.0108,0.16
				c-0.0044,0.0524-0.0882,0.3192,0.038,0.313c0.0856-0.0041,0.146-0.2986,0.1553-0.3619c0.0155-0.1054,0.1262-0.1639,0.2171-0.2047
				c0.0745-0.0336,0.2713-0.0631,0.2949-0.1486c0.0313-0.0473,0.039-0.0727,0.0597-0.1319
				c0.0119-0.0342,0.1045-0.0406,0.1336-0.0598c0.0873-0.0581,0.2137-0.1646,0.3239-0.1331c0.0731,0.0207,0.1693-0.13,0.2626-0.1399
				c0.0732-0.0078,0.1758-0.0424,0.2468-0.0409c-0.015,0.0688-0.1145,0.0558-0.114,0.1383
				c0.0838,0.0494,0.4043-0.0752,0.2531-0.1023c-0.1678-0.0302-0.0691-0.2727-0.0962-0.2784
				c-0.1375-0.0284-0.002-0.0941,0.0868-0.0763c0.0568,0.0113,0.1824,0.0822,0.2275,0.0502
				c0.2143-0.151,0.0827,0.1359,0.0791,0.1781c-0.0011,0.0144,0.1726,0.0827,0.1842,0.0706
				c0.0298-0.0308,0.1065-0.0039,0.0783-0.0807c-0.0365-0.0349-0.0641-0.0026-0.0961-0.0543
				c-0.0383-0.0618,0.0344-0.1326,0.0463-0.1967c0.0091-0.0488,0.0041-0.0693-0.0461-0.0803
				c-0.0174-0.0391,0.023-0.0863,0.0003-0.1241c-0.0494-0.083-0.0838-0.1122-0.1011-0.2142
				c-0.0334-0.1973-0.1708-0.0463-0.2826-0.1391c0.0706-0.0798-0.0018-0.1592-0.0591-0.1877
				c-0.0626-0.0311-0.1538-0.0959-0.1814,0.023c-0.0851,0.0408-0.1194,0.0325-0.1381,0.1331
				c-0.0238,0.1284-0.0113,0.0678-0.0859,0.1143c-0.1067,0.0664-0.1501-0.0147-0.1868,0.1385
				c-0.0918,0.0313-0.2277,0.0405-0.0886-0.101c0.1442-0.1469-0.3065-0.2774-0.0618-0.4514
				c0.0863-0.0612,0.2105-0.0486,0.2802-0.1014c0.0522-0.0036,0.0486-0.017,0.122-0.0171c0.0388,0.0457,0.1179,0.0623,0.1768,0.0545
				c0.0729-0.0096,0.1561-0.0809,0.2277,0.0167c0.0679,0.093,0.0623,0.1342,0.1789,0.1376
				c0.1742-0.0921,0.3151-0.0597,0.3693-0.2846c0.0447-0.1862-0.2875-0.1691-0.4025-0.2231
				c-0.1238-0.0577,0.1833-0.0576,0.1877-0.0621l-0.0278-0.0188c-0.3965,0.0193-0.7776,0.0969-1.1356,0.2235
				c-0.1104,0.044-0.2211,0.0947-0.3311,0.1563c-0.1064,0.0451-0.2167,0.0943-0.3269,0.1467
				c-0.7351,0.4229-1.3228,1.0723-1.6681,1.8534c0.0019,0.0832,0.0253,0.1573-0.0067,0.234
				c-0.0377,0.0913,0.01,0.3149,0.0277,0.3927c0.0202,0.0891,0.0421,0.2066,0.0908,0.2871
				c0.0285,0.0475,0.1078-0.0225,0.1504-0.0029c0.0675,0.031,0.0952,0.1316,0.1122,0.1846
				c0.0226,0.0711,0.0551,0.1008,0.0685,0.1662c0.0298,0.0318,0.1295,0.0065,0.1403,0.0585
				c-0.0047,0.0595-0.0109,0.0701,0.0124,0.1261c0.0313,0.0768-0.0201,0.2042,0.0405,0.3722
				c0.0546,0.1512,0.1311,0.2032,0.2389,0.2575c0.0587,0.0295,0.0786,0.0995,0.1284,0.22c0.0243,0.0595,0.0931-0.0126,0.0959,0.0819
				c0.0016,0.0571,0.0144,0.1271-0.0005,0.1832c-0.0261,0.0996-0.228,0.1567-0.2186,0.2778
				c-0.0073,0.0481,0.0579,0.0599,0.0649,0.1014c0.0047,0.0289-0.0042,0.0757-0.0021,0.1062
				c0.0052,0.0708,0.0997,0.1236,0.1426,0.1758c0.0504,0.0613,0.0711,0.1548,0.1194,0.2158c0.0786,0.0995,0.1497,0.192,0.1804,0.312
				c0.008,0.0315,0.3365,0.2448,0.3449,0.2437c0.1625,0.1778,0.1375,0.7584,0.1323,1.0189
				c-0.0016,0.0778,0.0068,0.1385,0.0226,0.1876c0.2334,0.1157,0.4796,0.2094,0.7361,0.2781
				c0.0339-0.0306,0.072-0.0609,0.085-0.0732C15.1509,19.6916,15.2188,19.4573,15.3421,19.4059z M14.2764,13.2878
				c-0.0481-0.1882,0.2205-0.2515,0.2813-0.0866c0.0463,0.1231,0.1209,0.191,0.1189,0.3375
				c-0.001,0.062-0.0833,0.0905-0.1135,0.1396c-0.2039-0.0232-0.106-0.0357-0.1463-0.1714c0.0096,0.0375-0.0321-0.016-0.0086-0.009
				c-0.0635-0.0225-0.1473,0.0771-0.1842-0.0347C14.1981,13.3814,14.2943,13.3581,14.2764,13.2878z"/>
		</g>
	</g>
	<linearGradient id="SVGID_1_" gradientUnits="userSpaceOnUse" x1="3.0842" y1="3.6075" x2="25.9614" y2="30.8715">
		<stop  offset="0" style="stop-color:#FFFFFF;stop-opacity:0"/>
		<stop  offset="0.2264" style="stop-color:#FCFCFC;stop-opacity:0.0226"/>
		<stop  offset="0.3626" style="stop-color:#F4F4F4;stop-opacity:0.0363"/>
		<stop  offset="0.475" style="stop-color:#E6E6E6;stop-opacity:0.0475"/>
		<stop  offset="0.5744" style="stop-color:#D1D1D1;stop-opacity:0.0574"/>
		<stop  offset="0.6652" style="stop-color:#B7B7B7;stop-opacity:0.0665"/>
		<stop  offset="0.7498" style="stop-color:#979797;stop-opacity:0.075"/>
		<stop  offset="0.8297" style="stop-color:#707070;stop-opacity:0.083"/>
		<stop  offset="0.9057" style="stop-color:#444444;stop-opacity:0.0906"/>
		<stop  offset="0.9761" style="stop-color:#121212;stop-opacity:0.0976"/>
		<stop  offset="1" style="stop-color:#000000;stop-opacity:0.1"/>
	</linearGradient>
	<path fill="url(#SVGID_1_)" d="M27,8l-6-6H5v28h22V8z"/>
	<linearGradient id="SVGID_2_" gradientUnits="userSpaceOnUse" x1="20.1479" y1="9.1021" x2="24.1144" y2="5.1356">
		<stop  offset="0" style="stop-color:#FFFFFF;stop-opacity:0"/>
		<stop  offset="0.8537" style="stop-color:#FFFFFF;stop-opacity:0.2134"/>
		<stop  offset="1" style="stop-color:#FFFFFF;stop-opacity:0.25"/>
	</linearGradient>
	<polygon fill="url(#SVGID_2_)" points="5,2 5,3 20,3 20,9 26,9 26,24.5 27,24.5 27,8 21,2 	"/>
	<linearGradient id="SVGID_3_" gradientUnits="userSpaceOnUse" x1="23" y1="10.9375" x2="23" y2="9.0583">
		<stop  offset="0" style="stop-color:#828282;stop-opacity:0"/>
		<stop  offset="0.2812" style="stop-color:#7F7F7F;stop-opacity:0.0281"/>
		<stop  offset="0.4503" style="stop-color:#777777;stop-opacity:0.045"/>
		<stop  offset="0.5899" style="stop-color:#696969;stop-opacity:0.059"/>
		<stop  offset="0.7133" style="stop-color:#545454;stop-opacity:0.0713"/>
		<stop  offset="0.8259" style="stop-color:#3A3A3A;stop-opacity:0.0826"/>
		<stop  offset="0.9294" style="stop-color:#1A1A1A;stop-opacity:0.0929"/>
		<stop  offset="1" style="stop-color:#000000;stop-opacity:0.1"/>
	</linearGradient>
	<rect x="20" y="9" fill="url(#SVGID_3_)" width="6" height="2"/>
</g>
</svg>
