<svg id="eb332e43-4fac-4928-b5c0-62a1d03abba4" data-name="ICONS" xmlns="http://www.w3.org/2000/svg" xmlns:xlink="http://www.w3.org/1999/xlink" viewBox="0 0 32 32"><defs><linearGradient id="27ce4ca7-8df4-4888-99da-956b64df49fd" x1="3.0842" y1="3.60755" x2="25.96138" y2="30.87151" gradientUnits="userSpaceOnUse"><stop offset="0" stop-color="#fff" stop-opacity="0"/><stop offset="0.86247" stop-color="#5e5e5e" stop-opacity="0.06315"/><stop offset="1" stop-opacity="0.1"/></linearGradient><linearGradient id="8f5e5d69-2f10-4457-8373-78db55fbf501" x1="20.14788" y1="9.10212" x2="24.11437" y2="5.13563" gradientUnits="userSpaceOnUse"><stop offset="0" stop-color="#fff" stop-opacity="0"/><stop offset="0.44604" stop-color="#fff" stop-opacity="0.00799"/><stop offset="0.63551" stop-color="#fff" stop-opacity="0.03616"/><stop offset="0.77636" stop-color="#fff" stop-opacity="0.08493"/><stop offset="0.8924" stop-color="#fff" stop-opacity="0.15385"/><stop offset="0.99328" stop-color="#fff" stop-opacity="0.24291"/><stop offset="1" stop-color="#fff" stop-opacity="0.25"/></linearGradient><linearGradient id="db807032-3cc4-4fa0-b4c5-7b91d6502d90" x1="23" y1="10.9375" x2="23" y2="9.05834" gradientUnits="userSpaceOnUse"><stop offset="0" stop-color="#828282" stop-opacity="0"/><stop offset="0.86247" stop-color="#303030" stop-opacity="0.06315"/><stop offset="1" stop-opacity="0.1"/></linearGradient></defs><title>FileTypeIcons_Master_All_NEW</title><polygon points="26 29 6 29 6 3 21 3 26 8 26 29" fill="#fff"/><path d="M21,2H5V30H27V8Zm0,1.5L25.5,8H21ZM26,29H6V3H20V9h6Z" fill="#949494"/><rect x="8" y="23" width="16" height="1" fill="#c8c8c8"/><rect x="8" y="25" width="16" height="1" fill="#c8c8c8"/><polygon points="10 19 11 19 9 16 11 13 10 13 8 16 10 19" fill="#949494"/><polygon points="22 19 21 19 23 16 21 13 22 13 24 16 22 19" fill="#949494"/><circle cx="16" cy="16" r="4" fill="#6caedf"/><path d="M18.03033,12.5539l-.02538-.0146-.00148.00854Z" fill="#deebf8"/><path d="M13.90991,15.71419c-.05039-.01191.01533.2135.05529.236.10635-.011-.02055-.09069.14974-.00082a.203.203,0,0,0,.14532.04451c-.00393.00735.0021.01043.03244-.00489l.00051-.00212C14.32468,15.83275,14.02979,15.74094,13.90991,15.71419Z" fill="#deebf8"/><path d="M13.7796,15.5325c-.02708-.11368-.18935-.42062-.33662-.3562-.03523.20027.15477.358.1755.42861C13.66805,15.77583,13.89263,15.56332,13.7796,15.5325Z" fill="#deebf8"/><path d="M19.19307,13.59111c-.01081-.0073-.02113-.01674-.0321-.02328-.00832.11908.0093.31169-.12836.2988-.0561-.00538-.09442.04258-.1445-.00391-.03555-.03277-.03947-.07406-.08775-.08791-.06408-.19067-.211-.01762-.23616.11531.0416.14809-.16407.16309-.16489.27515-.00065.06931-.04273.113-.04762.1869-.00523.07714.11416.19326.09329.22637l-.07307.37628a1.11844,1.11844,0,0,0,.018.46237c.04844.1109.19015.22868.16129.37513-.02235.11677.01989.2965.15477.30239a1.459,1.459,0,0,0,.20616.15477c.006.05268.08351.116.1251.13211.11106.03049.13944.0737.21105-.047.04779-.08059.23649-.13228.22114-.18251a.30051.30051,0,0,1,.29945-.2833c.09493-.01256.0884.21122.09526.26127a.68612.68612,0,0,0,.12512.14928C19.9956,16.187,20,16.094,20,16A3.98182,3.98182,0,0,0,19.19307,13.59111Z" fill="#deebf8"/><path d="M17.05947,12.17125a.64982.64982,0,0,0-.32244-.01468c-.1662.0385.245.25882.30222.30449.04943.039.06116.084.1145.12689.05839-.01027.083.02154.13211.039.06736.02381.13911-.02676.21773.0013.06393.02333.05089.0817.06458.13961.11385-.01908-.00131-.1799-.03342-.2223-.04944-.06557-.17338-.05692-.23339-.13749.07958-.01191.15313-.107.17287.03441.06687.04729.11515.04926.17728.11092.0341.03376.06394-.00979.08514.01255.01451.05105.04387.13667-.00017.18723-.06017.06884-.00113.1861.00507.26455-.013.06686.07632.175.01631.2329-.04419.04274.09312.07339.1233.08563.051.02053.17892.13048.17222.18984-.00244.02268-.13831.09052-.16569.09182-.06671.00277.06524.17157.07387.199.03328.0615.11351.10912.14043.16636.06523.139.05528-.00961.12151.04437.05789.04763.13062-.01942.16928-.05822a.42523.42523,0,0,0,.0005-.19116c-.01664-.04616-.06133-.04256-.09035-.05806a1.1094,1.1094,0,0,1-.0186-.16636c-.01745-.08988-.06-.14825.00684-.243.03476-.04943.24481.08056.28363.11644.04175.03866.09771-.12966-.04812-.14026-.05331-.04061-.16521-.06687-.18607-.12771.05511-.10553.2823.2086.37528.14989.01174-.05562-.08775-.08792-.09445-.15594a.40786.40786,0,0,0-.02316-.10974c-.01629-.03073-.04364-.09459-.07094-.14347a4.01058,4.01058,0,0,0-.497-.34612l-.02686-.00606.00148-.00854a3.9868,3.9868,0,0,0-.43328-.21832c-.0475-.009-.09005-.01743-.12142-.0266C17.358,12.2678,17.15457,12.13438,17.05947,12.17125Z" fill="#deebf8"/><path d="M17.50587,12.92737c-.00065-.00441-.381-.181-.37593-.17142.00523.01012-.01092,0-.00179,0-.14174-.013.15836.19229.16521.19325-.08857.07161-.0062.15724.05774.22378.04876.00065.09655-.13684.09655-.13684.05152.02267.16113.14939.22213.05969C17.74627,12.98348,17.578,12.92491,17.50587,12.92737Z" fill="#deebf8"/><path d="M15.34207,19.40589c.12835-.053.25018-.35148.38328-.39649.01093-.2546.36452-.1688.50608-.20534a.33875.33875,0,0,0,.28183-.25151c.02446-.1.03736-.17744.15039-.21545.07584-.0724.22523-.19213.22049-.30613-.00326-.07192.01224-.17565-.0985-.16472-.09966.0101-.12086-.07844-.20486-.08955-.10731-.01386-.21561.01224-.31982.00621a1.05813,1.05813,0,0,0-.20519-.08905c-.06148-.02006-.172-.19311-.21218-.23276-.05839-.05772-.12459-.01629-.19636-.01581-.06346-.054.10177-.146.04714-.22051-.0832-.01745-.14859-.10534-.21676-.17793a1.11523,1.11523,0,0,0-.14143-.10324c-.12931-.024-.2469.0367-.3433-.06819-.01289-.014-.16178-.14433-.16178-.14433.00178-.01484.082-.038.00715-.0574-.03229-.04126-.04892-.07079-.10191-.07177-.09036-.03931-.053-.1189-.15984-.07616a.97791.97791,0,0,0-.12527.02788c-.04664-.021-.0481-.08285-.11041-.07533-.10145.01255-.15364-.10783-.26324-.10505a.14972.14972,0,0,1-.13814.13977c-.09982-.002-.09052-.177-.22442-.11074-.0628.031-.00947.10276-.1171.10356-.061.0005-.05791.02675-.05791.0483-.085-.02579-.18087-.1835-.24708-.27321-.02935-.10714-.25182-.13146-.21415-.25425a.5496.5496,0,0,0,.00113-.37432c-.02478-.037-.06246-.12347-.10485-.14433-.03655-.01828.03033-.02707.01141-.07585a.71246.71246,0,0,0,.12313-.33971c-.14922-.10848-.18788.07892-.29618.08692-.1763.01271-.161-.092-.18315-.20306a.676.676,0,0,1,.024-.3213c.02953-.11793.2003-.16652.20943-.31283.05056-.021.15446-.07256.21136-.05186.06346.023.13276.08889.19328.10684a1.19492,1.19492,0,0,0,.18967.01256c.0429.031.0297.07535.09346.082.05857.0062-.00571.09982-.01077.16-.00439.05235-.08823.31919.038.313.08562-.0041.146-.29865.15527-.36192.0155-.10536.12623-.16392.21707-.2047.07455-.03359.27125-.06312.29489-.14857a.48261.48261,0,0,0,.05969-.13195c.0119-.03424.10455-.04061.13357-.05985.08726-.05806.21367-.16457.32392-.13308.07305.02071.16929-.13.26257-.13994a2.37514,2.37514,0,0,1,.24677-.041c-.015.06883-.11448.05579-.114.13831.08382.04943.4043-.07519.25312-.10226-.16784-.03017-.06915-.27269-.09623-.2784-.13749-.02839-.00195-.09411.08676-.07632.05678.01125.18236.0822.22753.05022.21432-.151.08269.13586.07909.1781a.44917.44917,0,0,0,.18415.07064c.02984-.03083.1065-.00393.07827-.08074-.03653-.03492-.06407-.00263-.09605-.05432-.03832-.06182.03441-.1326.04631-.19668.00914-.04878.00408-.06934-.04614-.08025-.01745-.03915.023-.08629.00031-.12412a.5104.5104,0,0,1-.10111-.21416c-.03344-.19733-.17077-.04631-.28264-.1391.07061-.07977-.00181-.15918-.059-.18774-.06263-.03114-.15381-.0959-.18137.023-.08512.04078-.11937.03246-.13814.1331-.02381.12836-.01125.06785-.08594.11433-.10668.06638-.15005-.01467-.18675.13846-.09183.03133-.22768.04046-.08857-.101.14419-.14694-.30646-.27742-.0618-.45144.08628-.06117.21054-.04861.2802-.10145a.78849.78849,0,0,1,.122-.01713.21067.21067,0,0,0,.17679.05447c.07291-.00961.15607-.08088.22768.01665.06787.093.06232.13421.17892.13764.1742-.09214.31511-.0597.36926-.2846.04468-.18625-.28754-.16913-.40252-.22312-.1238-.05772.18331-.05758.18771-.06213l-.02784-.01882a3.98345,3.98345,0,0,0-1.13564.22349,2.79816,2.79816,0,0,0-.33113.15625c-.10636.04512-.21673.0943-.32689.14673a4.01442,4.01442,0,0,0-1.66806,1.85338.5423.5423,0,0,1-.00673.234.92846.92846,0,0,0,.02773.39275,1.01972,1.01972,0,0,0,.09083.287c.02855.04745.10781-.02251.15039-.00294.06751.031.09525.13161.11222.18463a1.68361,1.68361,0,0,1,.06849.1662c.02984.03178.12949.0065.14026.05854a.19464.19464,0,0,0,.01239.12606c.03133.07683-.02006.2042.04046.3722a.41005.41005,0,0,0,.23893.25754c.0587.02949.07861.09948.12836.22.02429.05952.09312-.01256.09589.08187a.68146.68146,0,0,1-.00048.18315c-.02611.09965-.228.15673-.21856.27776-.00733.0481.05791.05987.06492.10144.00472.02887-.00424.07567-.00213.10618.00524.07078.09967.12363.14256.17581.05039.06134.0711.15479.11939.21579a.84566.84566,0,0,1,.18037.312,2.21139,2.21139,0,0,0,.34494.24366c.16246.17778.1375.7584.13228,1.01887a.57378.57378,0,0,0,.0226.18763,3.97091,3.97091,0,0,0,.73613.27813c.03393-.03059.072-.06089.085-.07319C15.15093,19.69162,15.21877,19.45725,15.34207,19.40589Zm-1.06569-6.11808a.14746.14746,0,0,1,.28135-.08662c.04633.12315.12086.191.11891.33746-.001.062-.08334.09052-.11351.13961-.20388-.02316-.106-.03572-.14631-.17142.00964.03751-.03213-.016-.00863-.009-.06345-.02251-.14727.07714-.18415-.03474C14.19811,13.38141,14.29434,13.35808,14.27638,13.28781Z" fill="#deebf8"/><path d="M27,8,21,2H5V30H27Z" fill="url(#27ce4ca7-8df4-4888-99da-956b64df49fd)"/><polygon points="5 2 5 3 20 3 20 9 26 9 26 24.5 27 24.5 27 8 21 2 5 2" fill="url(#8f5e5d69-2f10-4457-8373-78db55fbf501)"/><rect x="20" y="9" width="6" height="2" fill="url(#db807032-3cc4-4fa0-b4c5-7b91d6502d90)"/></svg>