<svg id="894cb225-fa71-456a-b2cd-517fb0ab9327" data-name="ICONS" xmlns="http://www.w3.org/2000/svg" xmlns:xlink="http://www.w3.org/1999/xlink" viewBox="0 0 32 32"><defs><linearGradient id="af28f7f9-75fd-458c-9773-36eb81ff6081" x1="5.0842" y1="3.60755" x2="27.96138" y2="30.87151" gradientUnits="userSpaceOnUse"><stop offset="0" stop-color="#fff" stop-opacity="0"/><stop offset="0.86247" stop-color="#5e5e5e" stop-opacity="0.06315"/><stop offset="1" stop-opacity="0.1"/></linearGradient><linearGradient id="d1ebfa73-ced2-4714-9b9e-c1c16b1543c2" x1="22.14788" y1="9.10212" x2="26.11437" y2="5.13563" gradientUnits="userSpaceOnUse"><stop offset="0" stop-color="#fff" stop-opacity="0"/><stop offset="0.44604" stop-color="#fff" stop-opacity="0.00799"/><stop offset="0.63551" stop-color="#fff" stop-opacity="0.03616"/><stop offset="0.77636" stop-color="#fff" stop-opacity="0.08493"/><stop offset="0.8924" stop-color="#fff" stop-opacity="0.15385"/><stop offset="0.99328" stop-color="#fff" stop-opacity="0.24291"/><stop offset="1" stop-color="#fff" stop-opacity="0.25"/></linearGradient><linearGradient id="09de2742-d009-48ae-bae7-c803bee86c80" x1="9.5" y1="26.4375" x2="9.5" y2="9.52504" gradientUnits="userSpaceOnUse"><stop offset="0" stop-color="#fff" stop-opacity="0"/><stop offset="0.52587" stop-color="#fff" stop-opacity="0.00735"/><stop offset="0.71529" stop-color="#fff" stop-opacity="0.03396"/><stop offset="0.8503" stop-color="#fff" stop-opacity="0.0803"/><stop offset="0.95875" stop-color="#fff" stop-opacity="0.14595"/><stop offset="1" stop-color="#fff" stop-opacity="0.18"/></linearGradient><linearGradient id="1bfcfd25-f971-4691-9cdd-11a61a9aee27" x1="11.28178" y1="29.35196" x2="11.61734" y2="26.21204" gradientUnits="userSpaceOnUse"><stop offset="0" stop-color="#828282" stop-opacity="0"/><stop offset="0.86247" stop-color="#303030" stop-opacity="0.12631"/><stop offset="1" stop-opacity="0.2"/></linearGradient><linearGradient id="34dae155-4061-460f-be14-5df29a44c4e3" x1="25" y1="10.9375" x2="25" y2="9.05834" gradientUnits="userSpaceOnUse"><stop offset="0" stop-color="#828282" stop-opacity="0"/><stop offset="0.86247" stop-color="#303030" stop-opacity="0.06315"/><stop offset="1" stop-opacity="0.1"/></linearGradient></defs><title>FileTypeIcons_Master_All_NEW</title><polygon points="28 29 8 29 8 3 23 3 28 8 28 29" fill="#fff"/><path d="M23,2H7V30H29V8Zm0,1.5L27.5,8H23ZM28,29H8V3H22V9h6Z" fill="#949494"/><rect x="10" y="5" width="6" height="1" fill="#c8c8c8"/><rect x="16" y="12" width="8" height="1" fill="#c3a9d4"/><rect x="16" y="18" width="8" height="1" fill="#c3a9d4"/><rect x="16" y="24" width="8" height="1" fill="#c3a9d4"/><polygon points="3 11 16 9 16 27 3 25 3 11" fill="#6a3889"/><path d="M10,22H8.5V14H10Z" fill="#fff"/><polygon points="25 10 16 10 16 11 25 11 25 14 16 14 16 15 25 15 26 15 26 14 26 11 26 10 25 10" fill="#c8c8c8"/><polygon points="25 16 16 16 16 17 25 17 25 20 16 20 16 21 25 21 26 21 26 20 26 17 26 16 25 16" fill="#c8c8c8"/><polygon points="25 22 16 22 16 23 25 23 25 26 16 26 16 27 25 27 26 27 26 26 26 23 26 22 25 22" fill="#c8c8c8"/><path d="M29,8,23,2H7V30H29Z" fill="url(#af28f7f9-75fd-458c-9773-36eb81ff6081)"/><polygon points="7 2 7 3 22 3 22 9 28 9 28 24.5 29 24.5 29 8 23 2 7 2" fill="url(#d1ebfa73-ced2-4714-9b9e-c1c16b1543c2)"/><polygon points="16 9 3 11 3 25 16 27 16 9" fill="url(#09de2742-d009-48ae-bae7-c803bee86c80)"/><polygon points="16 29 7 29 7 25.62 16 27 16 29" fill="url(#1bfcfd25-f971-4691-9cdd-11a61a9aee27)"/><rect x="22" y="9" width="6" height="2" fill="url(#34dae155-4061-460f-be14-5df29a44c4e3)"/></svg>