<svg id="29fd6ed8-5e4f-4c3e-9a64-8bd8e5f1346e" data-name="ICONS" xmlns="http://www.w3.org/2000/svg" xmlns:xlink="http://www.w3.org/1999/xlink" viewBox="0 0 32 32"><defs><linearGradient id="9e9287f0-9755-4fa5-9146-a42cdbba3f98" x1="6.76871" y1="4.99858" x2="26.7085" y2="28.7619" gradientUnits="userSpaceOnUse"><stop offset="0" stop-opacity="0"/><stop offset="0.86247" stop-opacity="0.12631"/><stop offset="1" stop-opacity="0.2"/></linearGradient><linearGradient id="57bae784-d5be-4874-a9a1-408fbe05c4be" x1="23.44388" y1="5.42641" x2="22.83938" y2="12.3359" gradientUnits="userSpaceOnUse"><stop offset="0" stop-color="#828282" stop-opacity="0"/><stop offset="0.85866" stop-color="#454545" stop-opacity="0.1171"/><stop offset="1" stop-opacity="0.25"/></linearGradient><linearGradient id="232b9774-3ff7-42dd-8bf5-cf11472e0bf0" x1="6" y1="10.90662" x2="6" y2="10.14706" gradientUnits="userSpaceOnUse"><stop offset="0" stop-color="#828282" stop-opacity="0"/><stop offset="0.99719" stop-opacity="0.07"/></linearGradient><linearGradient id="3a7abac4-436a-4aac-a2c8-00fac7c74fef" y1="14.90662" y2="14.14706" xlink:href="#232b9774-3ff7-42dd-8bf5-cf11472e0bf0"/><linearGradient id="35fd8749-9d8e-4f8c-8101-be24d0f7088a" y1="17.90662" y2="17.14706" xlink:href="#232b9774-3ff7-42dd-8bf5-cf11472e0bf0"/><linearGradient id="230f6b6f-7208-4e94-aede-2827d0275e32" y1="19.90662" y2="19.14706" xlink:href="#232b9774-3ff7-42dd-8bf5-cf11472e0bf0"/><linearGradient id="a6065bca-055b-499c-8ff8-ad02b110d34b" y1="21.90662" y2="21.14706" xlink:href="#232b9774-3ff7-42dd-8bf5-cf11472e0bf0"/><linearGradient id="47557974-773e-41a9-b81d-ab9e2bd691b0" y1="23.90662" y2="23.14706" xlink:href="#232b9774-3ff7-42dd-8bf5-cf11472e0bf0"/><linearGradient id="b51e8cf3-30c9-4d6d-aae3-ffe964f36e0d" y1="25.90662" y2="25.14706" xlink:href="#232b9774-3ff7-42dd-8bf5-cf11472e0bf0"/><linearGradient id="ba69a2cb-d984-427a-89a3-5d5bb7351e2a" x1="6" y1="9.90662" x2="6" y2="9.14706" gradientUnits="userSpaceOnUse"><stop offset="0" stop-color="#fff" stop-opacity="0"/><stop offset="0.20669" stop-color="#fff" stop-opacity="0.01635"/><stop offset="0.4209" stop-color="#fff" stop-opacity="0.06512"/><stop offset="0.63854" stop-color="#fff" stop-opacity="0.14638"/><stop offset="0.85718" stop-color="#fff" stop-opacity="0.25942"/><stop offset="1" stop-color="#fff" stop-opacity="0.35"/></linearGradient><linearGradient id="79469812-bb49-4635-bf43-6c9d5c085d60" y1="11.90662" y2="11.14706" xlink:href="#ba69a2cb-d984-427a-89a3-5d5bb7351e2a"/><linearGradient id="ac8890e1-f4ff-465a-acf6-2468621b167f" y1="16.90662" y2="16.14706" xlink:href="#ba69a2cb-d984-427a-89a3-5d5bb7351e2a"/><linearGradient id="1c487add-508a-46ab-89d4-9d8e06115872" y1="18.90662" y2="18.14706" xlink:href="#ba69a2cb-d984-427a-89a3-5d5bb7351e2a"/><linearGradient id="6c82d4e4-0eba-40d8-9363-c5ca012c148d" y1="20.90662" y2="20.14706" xlink:href="#ba69a2cb-d984-427a-89a3-5d5bb7351e2a"/><linearGradient id="d8daaf87-1297-49f7-8df7-d8df5373393e" y1="22.90662" y2="22.14706" xlink:href="#ba69a2cb-d984-427a-89a3-5d5bb7351e2a"/><linearGradient id="b420eb15-ed7d-4d27-bfbf-0b5d9f2a6694" y1="24.90662" y2="24.14706" xlink:href="#ba69a2cb-d984-427a-89a3-5d5bb7351e2a"/><linearGradient id="492bb92a-7fa6-467e-8b7e-691fe58dfaaa" x1="4.5" y1="10.90662" x2="4.5" y2="10.14706" xlink:href="#ba69a2cb-d984-427a-89a3-5d5bb7351e2a"/><linearGradient id="af196337-f95c-407e-9af1-8cc0f547f5ed" x1="7.5" y1="10.90662" x2="7.5" y2="10.14706" xlink:href="#ba69a2cb-d984-427a-89a3-5d5bb7351e2a"/></defs><title>FileTypeIcons_Master_All_NEW</title><polygon points="2 26 2 9 16 9 19 6 30 6 30 26 2 26" fill="#a6a6a6"/><polygon points="19 6 16 9 19 12 30 12 30 6 19 6" fill="#828282"/><polygon points="2 26 2 9 16 9 19 6 30 6 30 26 2 26" fill="url(#9e9287f0-9755-4fa5-9146-a42cdbba3f98)"/><polygon points="19 6 16 9 19 12 30 12 30 6 19 6" fill="url(#57bae784-d5be-4874-a9a1-408fbe05c4be)"/><polygon points="30 12 30 12.5 18.771 12.5 15.25 9 16 9 19.021 12 30 12" fill="#fff" opacity="0.15"/><rect x="5" y="9" width="2" height="1" fill="#eaeaea"/><rect x="5" y="18" width="2" height="1" fill="#eaeaea"/><rect x="5" y="20" width="2" height="1" fill="#eaeaea"/><rect x="5" y="22" width="2" height="1" fill="#eaeaea"/><rect x="5" y="24" width="2" height="1" fill="#eaeaea"/><path d="M7,10v1H5V10H4v7H8V10Zm0,6H5V14H7Z" fill="#eaeaea"/><rect x="5" y="10" width="2" height="1" fill="url(#232b9774-3ff7-42dd-8bf5-cf11472e0bf0)"/><rect x="5" y="14" width="2" height="1" fill="url(#3a7abac4-436a-4aac-a2c8-00fac7c74fef)"/><rect x="4" y="17" width="4" height="1" fill="url(#35fd8749-9d8e-4f8c-8101-be24d0f7088a)"/><rect x="5" y="19" width="2" height="1" fill="url(#230f6b6f-7208-4e94-aede-2827d0275e32)"/><rect x="5" y="21" width="2" height="1" fill="url(#a6065bca-055b-499c-8ff8-ad02b110d34b)"/><rect x="5" y="23" width="2" height="1" fill="url(#47557974-773e-41a9-b81d-ab9e2bd691b0)"/><rect x="5" y="25" width="2" height="1" fill="url(#b51e8cf3-30c9-4d6d-aae3-ffe964f36e0d)"/><rect x="5" y="9" width="2" height="1" fill="url(#ba69a2cb-d984-427a-89a3-5d5bb7351e2a)"/><rect x="5" y="11" width="2" height="1" fill="url(#79469812-bb49-4635-bf43-6c9d5c085d60)"/><rect x="5" y="16" width="2" height="1" fill="url(#ac8890e1-f4ff-465a-acf6-2468621b167f)"/><rect x="5" y="18" width="2" height="1" fill="url(#1c487add-508a-46ab-89d4-9d8e06115872)"/><rect x="5" y="20" width="2" height="1" fill="url(#6c82d4e4-0eba-40d8-9363-c5ca012c148d)"/><rect x="5" y="22" width="2" height="1" fill="url(#d8daaf87-1297-49f7-8df7-d8df5373393e)"/><rect x="5" y="24" width="2" height="1" fill="url(#b420eb15-ed7d-4d27-bfbf-0b5d9f2a6694)"/><rect x="4" y="10" width="1" height="1" fill="url(#492bb92a-7fa6-467e-8b7e-691fe58dfaaa)"/><rect x="7" y="10" width="1" height="1" fill="url(#af196337-f95c-407e-9af1-8cc0f547f5ed)"/></svg>