<svg id="68438303-93d1-474f-9383-a0b061284e78" data-name="ICONS" xmlns="http://www.w3.org/2000/svg" viewBox="0 0 20 20"><title>FileTypeIcons_Master_All_NEW</title><polygon points="17 18 5 18 5 2 15 2 17 4 17 18" fill="#fff"/><path d="M15,1H4V19H18V4Zm0,1.5L16.5,4H15ZM17,18H5V2h9V5h3Z" fill="#949494"/><path d="M15,12v4H10V12h5m1-1H9v6h7V11Z" fill="#c8c8c8"/><path d="M13,7v4H9V7h4m1-1H8v6h6V6Z" fill="#c8c8c8"/><polygon points="2 6 10 5 10 17 2 16 2 6" fill="#a4373a"/><rect x="10" y="11" width="6" height="2" fill="#f7a8ab"/><rect x="10" y="6" width="4" height="2" fill="#f7a8ab"/><polygon points="7 9 7 8 5 8 5 9 5 10 7 10 7 9" fill="#fff"/><polygon points="8 13 8 10 7 10 7 12 5 12 5 10 4 10 4 13 3 13 3 14 5 14 5 13 7 13 7 14 9 14 9 13 8 13" fill="#fff"/><polygon points="5 11 5 12 6 12 7 12 7 11 7 10 5 10 5 11" fill="#fff" opacity="0.6"/><rect x="7" y="9" width="1" height="1" fill="#fff" opacity="0.6"/><rect x="8" y="12" width="1" height="1" fill="#fff" opacity="0.6"/><rect x="3" y="12" width="1" height="1" fill="#fff" opacity="0.6"/><rect x="4" y="9" width="1" height="1" fill="#fff" opacity="0.6"/></svg>