<?xml version="1.0" encoding="utf-8"?>
<!-- Generator: Adobe Illustrator 21.1.0, SVG Export Plug-In . SVG Version: 6.00 Build 0)  -->
<svg version="1.1" xmlns="http://www.w3.org/2000/svg" xmlns:xlink="http://www.w3.org/1999/xlink" x="0px" y="0px"
	 viewBox="0 0 20 20" enable-background="new 0 0 20 20" xml:space="preserve">
<g id="TEMPLATE" display="none">
	<g display="inline">
		<path fill="#D0D0D0" d="M20,0v20H0V0H20 M21-1h-1H0h-1v1v20v1h1h20h1v-1V0V-1L21-1z"/>
	</g>
	<g display="inline" opacity="0.1">
		<path fill="#FF3A6D" d="M19,1v18H1V1H19 M20,0H0v20h20V0L20,0z"/>
	</g>
</g>
<g id="ICONS">
	<g>
		<polygon fill="#FFFFFF" points="17,18 5,18 5,2 15,2 17,4 		"/>
		<path fill="#949494" d="M15,1H4v18h14V4L15,1z M15,2.5L16.5,4H15V2.5z M17,18H5V2h9v3h3V18z"/>
	</g>
	<g>
		<path fill="#C8C8C8" d="M15,12v4h-5v-4H15 M16,11H9v6h7V11L16,11z"/>
	</g>
	<g>
		<path fill="#C8C8C8" d="M13,7v4H9V7H13 M14,6H8v6h6V6L14,6z"/>
	</g>
	<polygon fill="#A4373A" points="2,6 10,5 10,17 2,16 	"/>
	<rect x="10" y="11" fill="#F7A8AB" width="6" height="2"/>
	<rect x="10" y="6" fill="#F7A8AB" width="4" height="2"/>
	<g>
		<g>
			<polygon fill="#FFFFFF" points="7,9 7,8 5,8 5,9 5,10 7,10 			"/>
			<polygon fill="#FFFFFF" points="8,13 8,10 7,10 7,12 5,12 5,10 4,10 4,13 3,13 3,14 5,14 5,13 7,13 7,14 9,14 9,13 			"/>
		</g>
		<g>
			<polygon opacity="0.6" fill="#FFFFFF" points="5,11 5,12 6,12 7,12 7,11 7,10 5,10 			"/>
			<rect x="7" y="9" opacity="0.6" fill="#FFFFFF" width="1" height="1"/>
			<rect x="8" y="12" opacity="0.6" fill="#FFFFFF" width="1" height="1"/>
			<rect x="3" y="12" opacity="0.6" fill="#FFFFFF" width="1" height="1"/>
			<rect x="4" y="9" opacity="0.6" fill="#FFFFFF" width="1" height="1"/>
		</g>
	</g>
</g>
</svg>
