<svg id="d4f0fe23-f566-4649-b454-e3034dbac2a2" data-name="ICONS" xmlns="http://www.w3.org/2000/svg" viewBox="0 0 20 20"><title>FileTypeIcons_Master_All_NEW</title><polygon points="16 18 4 18 4 2 14 2 16 4 16 18" fill="#fff"/><path d="M14,1H3V19H17V4Zm0,1.5L15.5,4H14ZM16,18H4V2h9V5h3Z" fill="#949494"/><path d="M13.77393,8.44482C13.19775,7.01709,11.56836,6.74854,11,6V5.5a.5.5,0,0,0-1,0v6.81348a2.888,2.888,0,0,0-1.8501-.26612,2.28245,2.28245,0,0,0-2.125,2.38379,2.30947,2.30947,0,0,0,2.8252,1.52149A2.40327,2.40327,0,0,0,11,13.90088V8a2.69934,2.69934,0,0,1,1.86279.83789,2.19692,2.19692,0,0,1-.23974,3.00147.093.093,0,0,0,.04785.14306.19486.19486,0,0,0,.20508-.02734A3.03855,3.03855,0,0,0,13.77393,8.44482Z" fill="#69afe5"/></svg>