<svg id="9fb8ef58-7431-4307-992b-63ae2162113e" data-name="ICONS" xmlns="http://www.w3.org/2000/svg" viewBox="0 0 20 20"><title>FileTypeIcons_Master_All_NEW</title><path d="M19,1,7,3V14.75391A4.26883,4.26883,0,0,0,4.5,14C2.56689,14,1,15.11914,1,16.5S2.56689,19,4.5,19,8,17.88086,8,16.5V4L18,2.3l.002,10.45537A4.2666,4.2666,0,0,0,15.5,12c-1.93311,0-3.5,1.11914-3.5,2.5S13.56689,17,15.5,17,19,15.88086,19,14.5ZM4.5,18C3.02686,18,2,17.20947,2,16.5S3.02686,15,4.5,15,7,15.79053,7,16.5,5.97314,18,4.5,18Zm11-2c-1.47314,0-2.5-.79053-2.5-1.5S14.02686,13,15.5,13s2.5.79053,2.5,1.5S16.97314,16,15.5,16Z" fill="#949494"/></svg>