<svg id="55cdbfb2-b023-4cd5-b73b-bf46be27db55" data-name="ICONS" xmlns="http://www.w3.org/2000/svg" viewBox="0 0 20 20"><title>FileTypeIcons_Master_All_NEW</title><polygon points="16 18 4 18 4 2 14 2 16 4 16 18" fill="#fff"/><path d="M14,1H3V19H17V4Zm0,1.5L15.5,4H14ZM16,18H4V2h9V5h3Z" fill="#949494"/><rect x="5" y="14" width="10" height="1" fill="#c8c8c8"/><rect x="5" y="16" width="10" height="1" fill="#c8c8c8"/><polygon points="9 13 12 7 11 7 8 13 9 13" fill="#949494"/><polygon points="14 12 13 12 14 10 13 8 14 8 15 10 14 12" fill="#949494"/><polygon points="6 12 7 12 6 10 7 8 6 8 5 10 6 12" fill="#949494"/></svg>