<svg id="8c6aa58c-1e59-4ea0-9c02-9792815501ba" data-name="ICONS" xmlns="http://www.w3.org/2000/svg" viewBox="0 0 20 20"><title>FileTypeIcons_Master_All_NEW</title><polygon points="17 18 5 18 5 2 15 2 17 4 17 18" fill="#fff"/><path d="M15,1H4V19H18V4Zm0,1.5L16.5,4H15ZM17,18H5V2h9V5h3Z" fill="#949494"/><polygon points="2 6 10 5 10 17 2 16 2 6" fill="#217346"/><rect x="5" y="10" width="2" height="2" fill="#fff"/><rect x="7" y="9" width="1" height="1" fill="#fff"/><rect x="7" y="8" width="1" height="1" fill="#fff"/><rect x="4" y="9" width="1" height="1" fill="#fff"/><rect x="4" y="8" width="1" height="1" fill="#fff"/><rect x="8" y="8" width="1" height="1" fill="#fff" opacity="0.6"/><rect x="3" y="8" width="1" height="1" fill="#fff" opacity="0.6"/><rect x="3" y="13" width="1" height="1" fill="#fff" opacity="0.6"/><rect x="4" y="11" width="1" height="1" fill="#fff" opacity="0.6"/><rect x="5" y="9" width="1" height="1" fill="#fff" opacity="0.6"/><rect x="6" y="12" width="1" height="1" fill="#fff" opacity="0.6"/><rect x="7" y="10" width="1" height="1" fill="#fff" opacity="0.6"/><rect x="8" y="13" width="1" height="1" fill="#fff" opacity="0.6"/><rect x="4" y="12" width="1" height="1" fill="#fff"/><rect x="4" y="13" width="1" height="1" fill="#fff"/><rect x="7" y="12" width="1" height="1" fill="#fff"/><rect x="7" y="13" width="1" height="1" fill="#fff"/><rect x="12" y="16" width="2" height="1" fill="#8bbf8a"/><rect x="12" y="13" width="3" height="1" fill="#8bbf8a"/><rect x="12" y="11" width="3" height="1" fill="#8bbf8a"/><rect x="11" y="15" width="1" height="1" fill="#8bbf8a"/><rect x="11" y="14" width="1" height="1" fill="#8bbf8a"/><rect x="15" y="11" width="1" height="1" fill="#8bbf8a" opacity="0.4"/><rect x="14" y="16" width="1" height="1" fill="#8bbf8a" opacity="0.4"/><rect x="11" y="16" width="1" height="1" fill="#8bbf8a" opacity="0.4"/><rect x="11" y="13" width="1" height="1" fill="#8bbf8a" opacity="0.4"/><rect x="11" y="11" width="1" height="1" fill="#8bbf8a" opacity="0.4"/><rect x="15" y="12" width="1" height="5" fill="#8bbf8a"/></svg>