<svg id="63328c4b-63d8-497d-b32c-9739c7ef3f6a" data-name="ICONS" xmlns="http://www.w3.org/2000/svg" viewBox="0 0 20 20"><title>FileTypeIcons_Master_All_NEW</title><polygon points="17 18 5 18 5 2 15 2 17 4 17 18" fill="#fff"/><path d="M15,1H4V19H18V4Zm0,1.5L16.5,4H15ZM17,18H5V2h9V5h3Z" fill="#949494"/><polygon points="2 6 10 5 10 17 2 16 2 6" fill="#2b579a"/><rect x="6" y="3" width="4" height="1" fill="#c8c8c8"/><rect x="10" y="6" width="6" height="1" fill="#c8c8c8"/><rect x="10" y="8" width="6" height="1" fill="#c8c8c8"/><rect x="10" y="10" width="6" height="1" fill="#c8c8c8"/><rect x="10" y="12" width="6" height="1" fill="#c8c8c8"/><rect x="10" y="14" width="6" height="1" fill="#c8c8c8"/><rect x="5" y="9" width="1" height="1" fill="#fff" opacity="0.6"/><rect x="3" y="12" width="1" height="1" fill="#fff" opacity="0.6"/><rect x="8" y="12" width="1" height="1" fill="#fff" opacity="0.6"/><polygon points="6 12 5 12 5 13 6 13 7 13 7 11 6 11 6 12" fill="#fff" opacity="0.6"/><polygon points="6 9 6 10 5 10 5 11 4 11 4 9 3 9 3 12 4 12 4 14 5 14 5 12 6 12 6 11 7 11 7 9 6 9" fill="#fff"/><polygon points="8 9 8 11 7 11 7 14 8 14 8 12 9 12 9 9 8 9" fill="#fff"/></svg>