<?xml version="1.0" encoding="utf-8"?>
<!-- Generator: Adobe Illustrator 21.1.0, SVG Export Plug-In . SVG Version: 6.00 Build 0)  -->
<svg version="1.1" xmlns="http://www.w3.org/2000/svg" xmlns:xlink="http://www.w3.org/1999/xlink" x="0px" y="0px"
	 viewBox="0 0 20 20" enable-background="new 0 0 20 20" xml:space="preserve">
<g id="TEMPLATE" display="none">
	<g display="inline">
		<path fill="#D0D0D0" d="M20,0v20H0V0H20 M21-1h-1H0h-1v1v20v1h1h20h1v-1V0V-1L21-1z"/>
	</g>
	<g display="inline" opacity="0.1">
		<path fill="#FF3A6D" d="M19,1v18H1V1H19 M20,0H0v20h20V0L20,0z"/>
	</g>
</g>
<g id="ICONS">
	<g>
		<polygon fill="#FFFFFF" points="17,18 5,18 5,2 15,2 17,4 		"/>
		<path fill="#949494" d="M15,1H4v18h14V4L15,1z M15,2.5L16.5,4H15V2.5z M17,18H5V2h9v3h3V18z"/>
	</g>
	<polygon fill="#2B579A" points="2,6 10,5 10,17 2,16 	"/>
	<rect x="6" y="3" fill="#C8C8C8" width="4" height="1"/>
	<rect x="10" y="6" fill="#C8C8C8" width="6" height="1"/>
	<rect x="10" y="8" fill="#C8C8C8" width="6" height="1"/>
	<rect x="10" y="10" fill="#C8C8C8" width="6" height="1"/>
	<rect x="10" y="12" fill="#C8C8C8" width="6" height="1"/>
	<rect x="10" y="14" fill="#C8C8C8" width="6" height="1"/>
	<g>
		<g>
			<rect x="5" y="9" opacity="0.6" fill="#FFFFFF" width="1" height="1"/>
			<rect x="3" y="12" opacity="0.6" fill="#FFFFFF" width="1" height="1"/>
			<rect x="8" y="12" opacity="0.6" fill="#FFFFFF" width="1" height="1"/>
			<polygon opacity="0.6" fill="#FFFFFF" points="6,12 5,12 5,13 6,13 7,13 7,11 6,11 			"/>
		</g>
		<g>
			<polygon fill="#FFFFFF" points="6,9 6,10 5,10 5,11 4,11 4,9 3,9 3,12 4,12 4,14 5,14 5,12 6,12 6,11 7,11 7,9 			"/>
			<polygon fill="#FFFFFF" points="8,9 8,11 7,11 7,14 8,14 8,12 9,12 9,9 			"/>
		</g>
	</g>
</g>
</svg>
