<svg id="ed8bfa67-44fd-4c55-8aba-f946b69b012e" data-name="ICONS" xmlns="http://www.w3.org/2000/svg" viewBox="0 0 20 20"><title>FileTypeIcons_Master_All_NEW</title><polygon points="16 1 4 1 4 17 6 17 6 19 18 19 18 3 16 1" fill="#fff"/><polygon points="17 4 17 18 7 18 7 17 16 17 16 4 15 4 15 16 7 16 6 16 5 16 5 4 4 4 4 17 6 17 6 19 18 19 18 5 17 4" fill="#949494"/><polygon points="16 1 4 1 4 4 16 4 16 3 18 5 18 3 16 1" fill="#2b579a"/><polygon points="2 6 10 5 10 17 2 16 2 6" fill="#2b579a"/><rect x="10" y="6" width="4" height="1" fill="#c8c8c8"/><rect x="10" y="8" width="4" height="1" fill="#c8c8c8"/><rect x="10" y="10" width="4" height="1" fill="#c8c8c8"/><rect x="10" y="12" width="4" height="1" fill="#c8c8c8"/><rect x="10" y="14" width="4" height="1" fill="#c8c8c8"/><rect x="5" y="9" width="1" height="1" fill="#fff" opacity="0.6"/><rect x="3" y="12" width="1" height="1" fill="#fff" opacity="0.6"/><rect x="8" y="12" width="1" height="1" fill="#fff" opacity="0.6"/><polygon points="6 12 5 12 5 13 6 13 7 13 7 11 6 11 6 12" fill="#fff" opacity="0.6"/><polygon points="6 9 6 10 5 10 5 11 4 11 4 9 3 9 3 12 4 12 4 14 5 14 5 12 6 12 6 11 7 11 7 9 6 9" fill="#fff"/><polygon points="8 9 8 11 7 11 7 14 8 14 8 12 9 12 9 9 8 9" fill="#fff"/></svg>