<svg id="89f201de-f830-4687-9abe-f1f490ae2b7e" data-name="ICONS" xmlns="http://www.w3.org/2000/svg" viewBox="0 0 20 20"><title>FileTypeIcons_Master_All_NEW</title><rect x="1" y="3" width="18" height="14" fill="#fff"/><rect x="5" y="6" width="13" height="10" fill="#fff"/><rect x="13" y="7" width="4" height="1" fill="#c8c8c8"/><rect x="13" y="9" width="4" height="1" fill="#c8c8c8"/><rect x="13" y="11" width="3" height="1" fill="#c8c8c8"/><polygon points="6 16 6 5 18 5 18 4 2 4 2 16 6 16" fill="#eaeaea"/><path d="M1,3V17H19V3ZM18,5V16H2V5H12.99959l0-1H14V5h1V4h1V5h1V4h1Z" fill="#949494"/><rect x="7" y="7" width="5" height="7" fill="#69afe5"/><rect x="3" y="7" width="2" height="1" fill="#c8c8c8"/><rect x="3" y="9" width="2" height="1" fill="#c8c8c8"/><rect x="3" y="11" width="2" height="1" fill="#c8c8c8"/></svg>