<?xml version="1.0" encoding="utf-8"?>
<!-- Generator: Adobe Illustrator 21.1.0, SVG Export Plug-In . SVG Version: 6.00 Build 0)  -->
<svg version="1.1" xmlns="http://www.w3.org/2000/svg" xmlns:xlink="http://www.w3.org/1999/xlink" x="0px" y="0px"
	 viewBox="0 0 20 20" enable-background="new 0 0 20 20" xml:space="preserve">
<g id="TEMPLATE" display="none">
	<g display="inline">
		<path fill="#D0D0D0" d="M20,0v20H0V0H20 M21-1h-1H0h-1v1v20v1h1h20h1v-1V0V-1L21-1z"/>
	</g>
	<g display="inline" opacity="0.1">
		<path fill="#FF3A6D" d="M19,1v18H1V1H19 M20,0H0v20h20V0L20,0z"/>
	</g>
</g>
<g id="ICONS">
	<rect x="1" y="3" fill="#FFFFFF" width="18" height="14"/>
	<rect x="5" y="6" fill="#FFFFFF" width="13" height="10"/>
	<rect x="13" y="7" fill="#C8C8C8" width="4" height="1"/>
	<rect x="13" y="9" fill="#C8C8C8" width="4" height="1"/>
	<rect x="13" y="11" fill="#C8C8C8" width="3" height="1"/>
	<polygon fill="#EAEAEA" points="6,16 6,5 18,5 18,4 2,4 2,16 	"/>
	<path fill="#949494" d="M1,3v14h18V3H1z M18,5v11H2V5h10.9996l0-1H14v1h1V4h1v1h1V4h1V5z"/>
	<rect x="7" y="7" fill="#69AFE5" width="5" height="7"/>
	<rect x="3" y="7" fill="#C8C8C8" width="2" height="1"/>
	<rect x="3" y="9" fill="#C8C8C8" width="2" height="1"/>
	<rect x="3" y="11" fill="#C8C8C8" width="2" height="1"/>
</g>
</svg>
