<svg id="d4840771-c9e3-4a42-87e9-fe1e0959ecde" data-name="ICONS" xmlns="http://www.w3.org/2000/svg" viewBox="0 0 20 20"><title>FileTypeIcons_Master_All_NEW</title><polygon points="16 18 4 18 4 2 14 2 16 4 16 18" fill="#fff"/><path d="M14,1H3V19H17V4Zm0,1.5L15.5,4H14ZM16,18H4V2h9V5h3Z" fill="#949494"/><path d="M13.75232,13.91814,10.1174,5.001H9.87417l-3.716,8.93589a1.306,1.306,0,0,1-1.16209.74944V15h2.9703v-.30879s-1.33527.14019-1.011-.95572l.76463-1.85943h3.73634l.70594,1.77044s.23422.57606-.06757.829a1.29,1.29,0,0,1-.84439.21085V15H15v-.30879A1.28206,1.28206,0,0,1,13.75232,13.91814ZM7.97437,11.2538,9.61292,7.26305,11.232,11.254Z" fill="#ff5f10"/></svg>