<?xml version="1.0" encoding="utf-8"?>
<!-- Generator: Adobe Illustrator 21.1.0, SVG Export Plug-In . SVG Version: 6.00 Build 0)  -->
<svg version="1.1" xmlns="http://www.w3.org/2000/svg" xmlns:xlink="http://www.w3.org/1999/xlink" x="0px" y="0px"
	 viewBox="0 0 20 20" enable-background="new 0 0 20 20" xml:space="preserve">
<g id="TEMPLATE" display="none">
	<g display="inline">
		<path fill="#D0D0D0" d="M20,0v20H0V0H20 M21-1h-1H0h-1v1v20v1h1h20h1v-1V0V-1L21-1z"/>
	</g>
	<g display="inline" opacity="0.1">
		<path fill="#FF3A6D" d="M19,1v18H1V1H19 M20,0H0v20h20V0L20,0z"/>
	</g>
</g>
<g id="ICONS">
	<g>
		<polygon fill="#FFFFFF" points="16,18 4,18 4,2 14,2 16,4 		"/>
		<path fill="#949494" d="M14,1H3v18h14V4L14,1z M14,2.5L15.5,4H14V2.5z M16,18H4V2h9v3h3V18z"/>
	</g>
	<path fill="#FF5F10" d="M13.7523,13.9181L10.1174,5.001H9.8742l-3.716,8.9359c0,0-0.2793,0.7073-1.1621,0.7494V15h2.9703v-0.3088
		c0,0-1.3353,0.1402-1.011-0.9557l0.7646-1.8594h3.7363l0.7059,1.7704c0,0,0.2342,0.5761-0.0676,0.829
		c0,0-0.2387,0.2155-0.8444,0.2108V15H15v-0.3088C15,14.6912,14.1802,14.7892,13.7523,13.9181z M7.9744,11.2538l1.6386-3.9908
		l1.6191,3.991L7.9744,11.2538z"/>
</g>
</svg>
