<svg id="b477b029-45d0-4eed-b521-c603e722af1f" data-name="ICONS" xmlns="http://www.w3.org/2000/svg" viewBox="0 0 20 20"><title>FileTypeIcons_Master_All_NEW</title><polygon points="16 18 4 18 4 2 14 2 16 4 16 18" fill="#fff"/><path d="M14,1H3V19H17V4Zm0,1.5L15.5,4H14ZM16,18H4V2h9V5h3Z" fill="#949494"/><rect x="5" y="14" width="10" height="1" fill="#c8c8c8"/><rect x="5" y="16" width="10" height="1" fill="#c8c8c8"/><path d="M13.8584,8A3.60187,3.60187,0,1,0,14,9,3.94989,3.94989,0,0,0,13.8584,8ZM12.73,7.25h-.93945a4.98385,4.98385,0,0,0-.437-1.17871A3.26571,3.26571,0,0,1,12.73,7.25ZM11.25,9a6.91438,6.91438,0,0,1-.07715,1H8.82715a6.51946,6.51946,0,0,1,0-2h2.3457A6.91438,6.91438,0,0,1,11.25,9ZM10,12.25c-.32617,0-.75879-.56494-1.02-1.5h2.04C10.75879,11.68506,10.32617,12.25,10,12.25Zm-1.02-5c.26123-.93506.69385-1.5,1.02-1.5s.75879.56494,1.02,1.5Zm-.3335-1.17871A4.98385,4.98385,0,0,0,8.20947,7.25H7.27A3.26571,3.26571,0,0,1,8.64648,6.07129ZM6.75,9a3.20406,3.20406,0,0,1,.17383-1h1.147A7.75,7.75,0,0,0,8,9a7.75,7.75,0,0,0,.0708,1h-1.147A3.20406,3.20406,0,0,1,6.75,9Zm.52,1.75h.93945a4.98385,4.98385,0,0,0,.437,1.17871A3.26571,3.26571,0,0,1,7.27,10.75Zm4.0835,1.17871a4.98385,4.98385,0,0,0,.437-1.17871H12.73A3.26571,3.26571,0,0,1,11.35352,11.92871ZM11.9292,10A7.75,7.75,0,0,0,12,9a7.75,7.75,0,0,0-.0708-1h1.147a2.96329,2.96329,0,0,1,0,2Z" fill="#69afe5"/></svg>