<?xml version="1.0" encoding="utf-8"?>
<!-- Generator: Adobe Illustrator 21.1.0, SVG Export Plug-In . SVG Version: 6.00 Build 0)  -->
<svg version="1.1" xmlns="http://www.w3.org/2000/svg" xmlns:xlink="http://www.w3.org/1999/xlink" x="0px" y="0px"
	 viewBox="0 0 20 20" enable-background="new 0 0 20 20" xml:space="preserve">
<g id="TEMPLATE" display="none">
	<g display="inline">
		<path fill="#D0D0D0" d="M20,0v20H0V0H20 M21-1h-1H0h-1v1v20v1h1h20h1v-1V0V-1L21-1z"/>
	</g>
	<g display="inline" opacity="0.1">
		<path fill="#FF3A6D" d="M19,1v18H1V1H19 M20,0H0v20h20V0L20,0z"/>
	</g>
</g>
<g id="ICONS">
	<g>
		<polygon fill="#FFFFFF" points="16,18 4,18 4,2 14,2 16,4 		"/>
		<path fill="#949494" d="M14,1H3v18h14V4L14,1z M14,2.5L15.5,4H14V2.5z M16,18H4V2h9v3h3V18z"/>
	</g>
	<rect x="5" y="14" fill="#C8C8C8" width="10" height="1"/>
	<rect x="5" y="16" fill="#C8C8C8" width="10" height="1"/>
	<g>
		<path fill="#69AFE5" d="M13.8584,8c-0.0679-0.2622-0.1606-0.5117-0.2773-0.75C12.9302,5.9224,11.5781,5,10,5
			S7.0698,5.9224,6.4189,7.25C6.3022,7.4883,6.2095,7.7378,6.1416,8C6.0581,8.3213,6,8.6523,6,9s0.0581,0.6787,0.1416,1
			c0.0679,0.2622,0.1606,0.5117,0.2773,0.75C7.0698,12.0776,8.4219,13,10,13s2.9302-0.9224,3.5811-2.25
			c0.1167-0.2383,0.2095-0.4878,0.2773-0.75C13.9419,9.6787,14,9.3477,14,9S13.9419,8.3213,13.8584,8z M12.73,7.25h-0.9395
			c-0.1094-0.4463-0.2563-0.8447-0.437-1.1787C11.9141,6.3335,12.3975,6.7329,12.73,7.25z M11.25,9c0,0.3599-0.0322,0.6885-0.0771,1
			H8.8271C8.7822,9.6885,8.75,9.3599,8.75,9s0.0322-0.6885,0.0771-1h2.3457C11.2178,8.3115,11.25,8.6401,11.25,9z M10,12.25
			c-0.3262,0-0.7588-0.5649-1.02-1.5h2.04C10.7588,11.6851,10.3262,12.25,10,12.25z M8.98,7.25c0.2612-0.9351,0.6938-1.5,1.02-1.5
			s0.7588,0.5649,1.02,1.5H8.98z M8.6465,6.0713C8.4658,6.4053,8.3188,6.8037,8.2095,7.25H7.27
			C7.6025,6.7329,8.0859,6.3335,8.6465,6.0713z M6.75,9c0-0.3511,0.0703-0.6831,0.1738-1h1.147C8.0293,8.3213,8,8.6523,8,9
			s0.0293,0.6787,0.0708,1h-1.147C6.8203,9.6831,6.75,9.3511,6.75,9z M7.27,10.75h0.9395c0.1094,0.4463,0.2563,0.8447,0.437,1.1787
			C8.0859,11.6665,7.6025,11.2671,7.27,10.75z M11.3535,11.9287c0.1807-0.334,0.3276-0.7324,0.437-1.1787H12.73
			C12.3975,11.2671,11.9141,11.6665,11.3535,11.9287z M11.9292,10C11.9707,9.6787,12,9.3477,12,9s-0.0293-0.6787-0.0708-1h1.147
			C13.1797,8.3169,13.25,8.6489,13.25,9s-0.0703,0.6831-0.1738,1H11.9292z"/>
	</g>
</g>
</svg>
