<?xml version="1.0" encoding="utf-8"?>
<!-- Generator: Adobe Illustrator 21.1.0, SVG Export Plug-In . SVG Version: 6.00 Build 0)  -->
<svg version="1.1" xmlns="http://www.w3.org/2000/svg" xmlns:xlink="http://www.w3.org/1999/xlink" x="0px" y="0px"
	 viewBox="0 0 20 20" enable-background="new 0 0 20 20" xml:space="preserve">
<g id="TEMPLATE" display="none">
	<g display="inline">
		<path fill="#D0D0D0" d="M20,0v20H0V0H20 M21-1h-1H0h-1v1v20v1h1h20h1v-1V0V-1L21-1z"/>
	</g>
	<g display="inline" opacity="0.1">
		<path fill="#FF3A6D" d="M19,1v18H1V1H19 M20,0H0v20h20V0L20,0z"/>
	</g>
</g>
<g id="ICONS">
	<rect x="1" y="3" fill="#FFFFFF" width="18" height="14"/>
	<path fill="#949494" d="M1,3v14h18V3H1z M18,5v11H1.9996L1.9995,4H3v1h1l0-1h1v1h1V4h1v1H18z"/>
	<path fill="#A6A6A6" d="M13.8584,10c-0.0679-0.2622-0.1606-0.5117-0.2773-0.75C12.9302,7.9224,11.5781,7,10,7
		S7.0698,7.9224,6.4189,9.25C6.3022,9.4883,6.2095,9.7378,6.1416,10C6.0581,10.3213,6,10.6523,6,11s0.0581,0.6787,0.1416,1
		c0.0679,0.2622,0.1606,0.5117,0.2773,0.75C7.0698,14.0776,8.4219,15,10,15s2.9302-0.9224,3.5811-2.25
		c0.1167-0.2383,0.2095-0.4878,0.2773-0.75C13.9419,11.6787,14,11.3477,14,11S13.9419,10.3213,13.8584,10z M12.73,9.25h-0.9395
		c-0.1094-0.4463-0.2563-0.8447-0.437-1.1787C11.9141,8.3335,12.3975,8.7329,12.73,9.25z M11.25,11c0,0.3599-0.0322,0.6885-0.0771,1
		H8.8271C8.7822,11.6885,8.75,11.3599,8.75,11s0.0322-0.6885,0.0771-1h2.3457C11.2178,10.3115,11.25,10.6401,11.25,11z M10,14.25
		c-0.3262,0-0.7588-0.5649-1.02-1.5h2.04C10.7588,13.6851,10.3262,14.25,10,14.25z M8.98,9.25c0.2612-0.9351,0.6938-1.5,1.02-1.5
		s0.7588,0.5649,1.02,1.5H8.98z M8.6465,8.0713C8.4658,8.4053,8.3188,8.8037,8.2095,9.25H7.27
		C7.6025,8.7329,8.0859,8.3335,8.6465,8.0713z M6.75,11c0-0.3511,0.0703-0.6831,0.1738-1h1.147C8.0293,10.3213,8,10.6523,8,11
		s0.0293,0.6787,0.0708,1h-1.147C6.8203,11.6831,6.75,11.3511,6.75,11z M7.27,12.75h0.9395
		c0.1094,0.4463,0.2563,0.8447,0.437,1.1787C8.0859,13.6665,7.6025,13.2671,7.27,12.75z M11.3535,13.9287
		c0.1807-0.334,0.3276-0.7324,0.437-1.1787H12.73C12.3975,13.2671,11.9141,13.6665,11.3535,13.9287z M11.9292,12
		C11.9707,11.6787,12,11.3477,12,11s-0.0293-0.6787-0.0708-1h1.147c0.1035,0.3169,0.1738,0.6489,0.1738,1s-0.0703,0.6831-0.1738,1
		H11.9292z"/>
</g>
</svg>
