<svg id="f99367e7-a79c-4c53-a259-5e0fcf0a6ba1" data-name="ICONS" xmlns="http://www.w3.org/2000/svg" viewBox="0 0 20 20"><title>FileTypeIcons_Master_All_NEW</title><rect x="1" y="3" width="18" height="14" fill="#fff"/><path d="M1,3V17H19V3ZM18,5V16H1.99961L1.99955,4H3V5H4V4H5V5H6V4H7V5Z" fill="#949494"/><path d="M13.8584,10A3.60187,3.60187,0,1,0,14,11,3.94989,3.94989,0,0,0,13.8584,10ZM12.73,9.25h-.93945a4.98385,4.98385,0,0,0-.437-1.17871A3.26571,3.26571,0,0,1,12.73,9.25ZM11.25,11a6.91438,6.91438,0,0,1-.07715,1H8.82715a6.51946,6.51946,0,0,1,0-2h2.3457A6.91438,6.91438,0,0,1,11.25,11ZM10,14.25c-.32617,0-.75879-.56494-1.02-1.5h2.04C10.75879,13.68506,10.32617,14.25,10,14.25Zm-1.02-5c.26123-.93506.69385-1.5,1.02-1.5s.75879.56494,1.02,1.5Zm-.3335-1.17871A4.98385,4.98385,0,0,0,8.20947,9.25H7.27A3.26571,3.26571,0,0,1,8.64648,8.07129ZM6.75,11a3.20406,3.20406,0,0,1,.17383-1h1.147a7.09755,7.09755,0,0,0,0,2h-1.147A3.20406,3.20406,0,0,1,6.75,11Zm.52,1.75h.93945a4.98385,4.98385,0,0,0,.437,1.17871A3.26571,3.26571,0,0,1,7.27,12.75Zm4.0835,1.17871a4.98385,4.98385,0,0,0,.437-1.17871H12.73A3.26571,3.26571,0,0,1,11.35352,13.92871ZM11.9292,12a7.09755,7.09755,0,0,0,0-2h1.147a2.96329,2.96329,0,0,1,0,2Z" fill="#a6a6a6"/></svg>