<svg id="0ad39689-492d-46e4-aecc-e7e32149c165" data-name="ICONS" xmlns="http://www.w3.org/2000/svg" viewBox="0 0 20 20"><title>FileTypeIcons_Master_All_NEW</title><polygon points="16 18 4 18 4 2 14 2 16 4 16 18" fill="#fff"/><path d="M14,1H3V19H17V4Zm0,1.5L15.5,4H14ZM16,18H4V2h9V5h3Z" fill="#949494"/><rect x="7" y="9" width="7" height="1" fill="#c8c8c8"/><rect x="7" y="7" width="8" height="1" fill="#c8c8c8"/><rect x="7" y="11" width="7" height="1" fill="#c8c8c8"/><rect x="7" y="13" width="6" height="1" fill="#c8c8c8"/><rect x="7" y="15" width="8" height="1" fill="#c8c8c8"/><rect x="5" y="7" width="1" height="1" fill="#69afe5"/><rect x="5" y="9" width="1" height="1" fill="#69afe5"/><rect x="5" y="11" width="1" height="1" fill="#69afe5"/><rect x="5" y="13" width="1" height="1" fill="#69afe5"/><rect x="5" y="15" width="1" height="1" fill="#69afe5"/></svg>