<svg id="c8070217-1f7e-4b87-959c-db907de017e9" data-name="ICONS" xmlns="http://www.w3.org/2000/svg" viewBox="0 0 20 20"><title>FileTypeIcons_Master_All_NEW</title><polygon points="16 18 4 18 4 2 14 2 16 4 16 18" fill="#fff"/><path d="M14,1H3V19H17V4Zm0,1.5L15.5,4H14ZM16,18H4V2h9V5h3Z" fill="#949494"/><polygon points="10 8 10 10.667 6 9.333 10 8" fill="#c7e0f4"/><polygon points="10 8 10 10.667 14 9.333 10 8" fill="#69afe5"/><polygon points="10 10.667 14 9.333 14 14.667 10 16 10 10.667" fill="#0078d7"/><polygon points="10 10.667 10 16 6 14.667 6 9.333 10 10.667" fill="#deecf9"/><polygon points="10 16 6 14.667 10 13.333 10 16" fill="#69afe5"/><polygon points="10 16 10 13.333 14 14.667 10 16" fill="#005a9e"/></svg>