<svg id="2a3222e0-a19c-4f5e-a16d-ef4b357569da" data-name="ICONS" xmlns="http://www.w3.org/2000/svg" viewBox="0 0 20 20"><title>FileTypeIcons_Master_All_NEW</title><polygon points="16 1 4 1 4 17 6 17 6 19 18 19 18 3 16 1" fill="#fff"/><polygon points="17 4 17 18 7 18 7 17 16 17 16 4 15 4 15 16 7 16 6 16 5 16 5 4 4 4 4 17 6 17 6 19 18 19 18 5 17 4" fill="#949494"/><polygon points="2 6 10 5 10 17 2 16 2 6" fill="#31752f"/><polygon points="13 6 10 6 10 7 13 7 13 14 10 14 10 15 13 15 14 15 14 14 14 7 14 6 13 6" fill="#c8c8c8"/><rect x="10" y="8" width="2" height="1" fill="#8bbf8a"/><rect x="10" y="10" width="2" height="1" fill="#8bbf8a"/><rect x="11" y="12" width="2" height="1" fill="#8bbf8a"/><polygon points="16 1 4 1 4 4 16 4 16 3 18 5 18 3 16 1" fill="#31752f"/><rect x="4" y="9" width="1" height="5" fill="#fff"/><rect x="7" y="9" width="1" height="2" fill="#fff"/><rect x="5" y="11" width="2" height="1" fill="#fff"/><rect x="5" y="8" width="2" height="1" fill="#fff"/><rect x="4" y="8" width="1" height="1" fill="#fff"/><rect x="7" y="8" width="1" height="1" fill="#fff" opacity="0.6"/><rect x="7" y="11" width="1" height="1" fill="#fff" opacity="0.6"/></svg>