<?xml version="1.0" encoding="utf-8"?>
<!-- Generator: Adobe Illustrator 21.1.0, SVG Export Plug-In . SVG Version: 6.00 Build 0)  -->
<svg version="1.1" xmlns="http://www.w3.org/2000/svg" xmlns:xlink="http://www.w3.org/1999/xlink" x="0px" y="0px"
	 viewBox="0 0 20 20" enable-background="new 0 0 20 20" xml:space="preserve">
<g id="TEMPLATE" display="none">
	<g display="inline">
		<path fill="#D0D0D0" d="M20,0v20H0V0H20 M21-1h-1H0h-1v1v20v1h1h20h1v-1V0V-1L21-1z"/>
	</g>
	<g display="inline" opacity="0.1">
		<path fill="#FF3A6D" d="M19,1v18H1V1H19 M20,0H0v20h20V0L20,0z"/>
	</g>
</g>
<g id="ICONS">
	<polygon fill="#FFFFFF" points="16,18 5,18 5,2 16,2 16,3 17,3 17,6 16,6 	"/>
	<g>
		<path fill="#949494" d="M16,2v1h1v3h-1v1v11H5V2H16 M17,1H4v18h13V7h1V2h-1V1L17,1z"/>
	</g>
	<rect x="10" y="6" fill="#C8C8C8" width="4" height="1"/>
	<rect x="10" y="8" fill="#C8C8C8" width="4" height="1"/>
	<rect x="10" y="10" fill="#C8C8C8" width="4" height="1"/>
	<polygon fill="#7719AA" points="2,6 10,5 10,17 2,16 	"/>
	<g>
		<rect x="17" y="8" fill="#949494" width="1" height="3"/>
	</g>
	<g>
		<rect x="17" y="12" fill="#949494" width="1" height="3"/>
	</g>
	<g>
		<rect x="4" y="8" fill="#FFFFFF" width="1" height="6"/>
		<rect x="7" y="8" fill="#FFFFFF" width="1" height="6"/>
		<rect x="5" y="10" fill="#FFFFFF" width="1" height="1"/>
		<rect x="6" y="11" fill="#FFFFFF" width="1" height="1"/>
		<rect x="6" y="10" opacity="0.6" fill="#FFFFFF" width="1" height="1"/>
		<rect x="5" y="9" opacity="0.6" fill="#FFFFFF" width="1" height="1"/>
		<rect x="5" y="11" opacity="0.6" fill="#FFFFFF" width="1" height="1"/>
		<rect x="6" y="12" opacity="0.6" fill="#FFFFFF" width="1" height="1"/>
	</g>
	<path fill="#949494" d="M4.5,3h-1C3.225,3,3,2.775,3,2.5v0C3,2.225,3.225,2,3.5,2h1C4.775,2,5,2.225,5,2.5v0C5,2.775,4.775,3,4.5,3
		z"/>
	<path fill="#949494" d="M4.5,5h-1C3.225,5,3,4.775,3,4.5v0C3,4.225,3.225,4,3.5,4h1C4.775,4,5,4.225,5,4.5v0C5,4.775,4.775,5,4.5,5
		z"/>
	<path fill="#949494" d="M4.5,18h-1C3.225,18,3,17.775,3,17.5l0,0C3,17.225,3.225,17,3.5,17h1C4.775,17,5,17.225,5,17.5l0,0
		C5,17.775,4.775,18,4.5,18z"/>
</g>
</svg>
