<svg id="cfd0fe1a-8550-4279-b57e-b0c217e5df12" data-name="ICONS" xmlns="http://www.w3.org/2000/svg" viewBox="0 0 20 20"><title>FileTypeIcons_Master_All_NEW</title><polygon points="16 18 5 18 5 2 16 2 16 3 17 3 17 6 16 6 16 18" fill="#fff"/><path d="M16,2V3h1V6H16V18H5V2H16m1-1H4V19H17V7h1V2H17V1Z" fill="#949494"/><rect x="10" y="6" width="4" height="1" fill="#c8c8c8"/><rect x="10" y="8" width="4" height="1" fill="#c8c8c8"/><rect x="10" y="10" width="4" height="1" fill="#c8c8c8"/><polygon points="2 6 10 5 10 17 2 16 2 6" fill="#7719aa"/><rect x="17" y="8" width="1" height="3" fill="#949494"/><rect x="17" y="12" width="1" height="3" fill="#949494"/><rect x="4" y="8" width="1" height="6" fill="#fff"/><rect x="7" y="8" width="1" height="6" fill="#fff"/><rect x="5" y="10" width="1" height="1" fill="#fff"/><rect x="6" y="11" width="1" height="1" fill="#fff"/><rect x="6" y="10" width="1" height="1" fill="#fff" opacity="0.6"/><rect x="5" y="9" width="1" height="1" fill="#fff" opacity="0.6"/><rect x="5" y="11" width="1" height="1" fill="#fff" opacity="0.6"/><rect x="6" y="12" width="1" height="1" fill="#fff" opacity="0.6"/></svg>