<svg id="d48d1674-f459-43fa-b56f-ec0505ee3b4b" data-name="ICONS" xmlns="http://www.w3.org/2000/svg" viewBox="0 0 20 20"><title>FileTypeIcons_Master_All_NEW</title><polygon points="16 18 4 18 4 2 14 2 16 4 16 18" fill="#fff"/><path d="M14,1H3V19H17V4Zm0,1.5L15.5,4H14ZM16,18H4V2h9V5h3Z" fill="#949494"/><rect x="5" y="3" width="4" height="1" fill="#c8c8c8"/><rect x="5" y="6" width="10" height="1" fill="#c8c8c8"/><rect x="5" y="8" width="10" height="1" fill="#c8c8c8"/><path d="M13,12v4H7V12h6m1-1H6v6h8V11Z" fill="#d65532"/><rect x="2" y="12" width="3" height="4" fill="#d65532"/><rect x="15" y="12" width="3" height="4" fill="#d65532"/></svg>