<svg id="9e588d07-3521-4084-8326-c10a2e1c9f05" data-name="ICONS" xmlns="http://www.w3.org/2000/svg" viewBox="0 0 20 20"><title>FileTypeIcons_Master_All_NEW</title><rect x="2" y="15" width="1" height="1" fill="#fff"/><polygon points="15 1 4 1 4 3 3 3 2 3 2 4 3 4 3 10 5 10 5 11 5 12 5 13 4 13 4 14 3 14 3 15 4 15 4 19 5 19 5 18 7 18 7 19 18 19 18 4 15 1" fill="#fff"/><rect x="2" y="15" width="1" height="1" fill="#d04727"/><polygon points="5 14 5 13 4 13 4 14 3 14 3 15 4 15 4 19 5 19 5 15 6 15 6 14 5 14" fill="#d04727"/><rect x="6" y="15" width="1" height="1" fill="#d04727"/><path d="M11,4V9H4V4h7m1-1H3v7h9V3Z" fill="gray"/><rect x="2" y="3" width="11" height="1" fill="gray"/><path d="M15,1H4V3H5V2h9V5h3V18H7v1H18V4Zm0,3V2.5L16.5,4Z" fill="#949494"/><rect x="5" y="11" width="5" height="1" fill="gray"/><rect x="7" y="9" width="1" height="2" fill="gray"/><rect x="5" y="5" width="1" height="3" fill="#c8c8c8"/><rect x="7" y="6" width="1" height="2" fill="#f5ba9d"/><rect x="9" y="7" width="1" height="1" fill="#c8c8c8"/></svg>