<svg id="12f53b9c-3c41-431b-b6b7-60101677a7b7" data-name="ICONS" xmlns="http://www.w3.org/2000/svg" viewBox="0 0 20 20"><title>FileTypeIcons_Master_All_NEW</title><polygon points="17 18 5 18 5 2 15 2 17 4 17 18" fill="#fff"/><path d="M12,4a3,3,0,0,1,3,3H12Z" fill="#f5ba9d"/><path d="M15,1H4V19H18V4Zm0,1.5L16.5,4H15ZM17,18H5V2h9V5h3Z" fill="#949494"/><path d="M15,8a4,4,0,1,1-4-4V8Z" fill="#c8c8c8"/><polygon points="2 6 10 5 10 17 2 16 2 6" fill="#b7472a"/><rect x="10" y="14" width="6" height="1" fill="#c8c8c8"/><rect x="10" y="16" width="6" height="1" fill="#c8c8c8"/><rect x="4" y="9" width="1" height="5" fill="#fff"/><rect x="7" y="9" width="1" height="2" fill="#fff"/><rect x="5" y="11" width="2" height="1" fill="#fff"/><rect x="5" y="8" width="2" height="1" fill="#fff"/><rect x="4" y="8" width="1" height="1" fill="#fff"/><rect x="7" y="8" width="1" height="1" fill="#fff" opacity="0.6"/><rect x="7" y="11" width="1" height="1" fill="#fff" opacity="0.6"/></svg>