<?xml version="1.0" encoding="utf-8"?>
<!-- Generator: Adobe Illustrator 22.0.1, SVG Export Plug-In . SVG Version: 6.00 Build 0)  -->
<svg version="1.1" xmlns="http://www.w3.org/2000/svg" xmlns:xlink="http://www.w3.org/1999/xlink" x="0px" y="0px"
	 viewBox="0 0 20 20" enable-background="new 0 0 20 20" xml:space="preserve">
<g id="TEMPLATE" display="none">
	<g display="inline">
		<path fill="#D0D0D0" d="M20,0v20H0V0H20 M21-1h-1H0h-1v1v20v1h1h20h1v-1V0V-1L21-1z"/>
	</g>
	<rect display="inline" fill="none" width="20" height="20"/>
	<g display="inline" opacity="0.1">
		<path fill="#FF3A6D" d="M19,1v18H1V1H19 M20,0H0v20h20V0L20,0z"/>
	</g>
</g>
<g id="ICONS">
	<polygon fill="#FFFFFF" points="18,16 2,16 2,4 14.1212,4 16,4 18,6 18,8 	"/>
	<g>
		<path fill="#C8C8C8" d="M12,11V7c-1.7214,0.2327-3,1.6918-3,3.4762C9,12.4223,10.5784,14,12.5254,14
			c1.7745,0,3.2283-1.2945,3.4746-3H12z"/>
		<path fill="#D14C32" d="M13,10h3c-0.2254-1.5466-1.443-2.7634-3-3V10z"/>
	</g>
	<rect x="3" y="7" fill="#C8C8C8" width="4" height="1"/>
	<rect x="3" y="9" fill="#C8C8C8" width="4" height="1"/>
	<rect x="3" y="11" fill="#C8C8C8" width="4" height="1"/>
	<rect x="3" y="13" fill="#C8C8C8" width="4" height="1"/>
	<path fill="#949494" d="M16,3H1v14h18V6L16,3z M16,4.5L17.5,6H16L16,4.5z M18,16H2V4h13v3h3V16z"/>
</g>
</svg>
