<svg id="6b657629-b0b7-45ac-86cf-bbcb6130ae88" data-name="ICONS" xmlns="http://www.w3.org/2000/svg" viewBox="0 0 20 20"><title>FileTypeIcons_Master_All_NEW</title><polygon points="18 16 2 16 2 4 14.121 4 16 4 18 6 18 8 18 16" fill="#fff"/><path d="M12,11V7a3.46753,3.46753,0,0,0-3,3.47622A3.51926,3.51926,0,0,0,16,11Z" fill="#c8c8c8"/><path d="M13,10h3a3.56226,3.56226,0,0,0-3-3Z" fill="#d14c32"/><rect x="3" y="7" width="4" height="1" fill="#c8c8c8"/><rect x="3" y="9" width="4" height="1" fill="#c8c8c8"/><rect x="3" y="11" width="4" height="1" fill="#c8c8c8"/><rect x="3" y="13" width="4" height="1" fill="#c8c8c8"/><path d="M16,3H1V17H19V6Zm0,1.5L17.5,6H16ZM18,16H2V4H15V7h3Z" fill="#949494"/></svg>