<svg id="b613ac93-c599-4c0c-b42d-668cb33fff07" data-name="ICONS" xmlns="http://www.w3.org/2000/svg" viewBox="0 0 20 20"><title>FileTypeIcons_Master_All_NEW</title><polygon points="17 18 5 18 5 2 15 2 17 4 17 18" fill="#fff"/><path d="M15,1H4V19H18V4Zm0,1.5L16.5,4H15ZM17,18H5V2h9V5h3Z" fill="#949494"/><path d="M15,11v5H10V11h5m1-1H9v7h7V10Z" fill="#c8c8c8"/><path d="M13,7v3H8V7h5m1-1H7v5h7V6Z" fill="#c8c8c8"/><polygon points="2 6 10 5 10 17 2 16 2 6" fill="#077568"/><rect x="10" y="12" width="1" height="3" fill="#c8c8c8"/><rect x="12" y="12" width="2" height="1" fill="#7dbab2"/><rect x="10" y="8" width="2" height="1" fill="#7dbab2"/><rect x="12" y="14" width="2" height="1" fill="#7dbab2"/><rect x="4" y="9" width="1" height="5" fill="#fff"/><rect x="7" y="9" width="1" height="2" fill="#fff"/><rect x="5" y="11" width="2" height="1" fill="#fff"/><rect x="5" y="8" width="2" height="1" fill="#fff"/><rect x="4" y="8" width="1" height="1" fill="#fff"/><rect x="7" y="8" width="1" height="1" fill="#fff" opacity="0.6"/><rect x="7" y="11" width="1" height="1" fill="#fff" opacity="0.6"/></svg>