<svg id="a856aec1-7183-43d0-88a3-44175d94d9c2" data-name="ICONS" xmlns="http://www.w3.org/2000/svg" viewBox="0 0 20 20"><title>FileTypeIcons_Master_All_NEW</title><polygon points="16 18 4 18 4 2 14 2 16 4 16 18" fill="#fff"/><path d="M14,1H3V19H17V4Zm0,1.5L15.5,4H14ZM16,18H4V2h9V5h3Z" fill="#949494"/><rect x="9" y="6" width="6" height="1" fill="#9ed1f1"/><rect x="9" y="4" width="3" height="1" fill="#9ed1f1"/><rect x="6" y="4" width="1" height="1" fill="#d5edff"/><rect x="5" y="8" width="10" height="1" fill="#69afe5"/><rect x="5" y="12" width="5" height="1" fill="#c8c8c8"/><rect x="5" y="10" width="5" height="1" fill="#c8c8c8"/><rect x="5" y="14" width="10" height="1" fill="#c8c8c8"/><rect x="5" y="16" width="10" height="1" fill="#c8c8c8"/><rect x="5" y="6" width="1" height="1" fill="#9ed1f1"/><polygon points="7 3 7 4 7 5 6 5 6 6 7 6 7 7 8 7 8 4 8 3 7 3" fill="#9ed1f1"/><rect x="11" y="10" width="4" height="3" fill="#69afe5"/></svg>