<svg id="ab486198-b63d-42ba-8941-95f4b7208fcf" data-name="ICONS" xmlns="http://www.w3.org/2000/svg" viewBox="0 0 20 20"><title>FileTypeIcons_Master_All_NEW</title><polygon points="18 16 2 16 2 4 14.121 4 16 4 18 6 18 8 18 16" fill="#fff"/><path d="M16,3H1V17H19V6Zm0,1.5L17.5,6H16ZM18,16H2V4H15V7h3Z" fill="#949494"/><rect x="3" y="12.00116" width="2.99941" height="0.99884" transform="translate(8.99941 25.00117) rotate(-179.99998)" fill="#217346"/><rect x="3" y="8.00116" width="2.99941" height="0.99884" transform="translate(8.99941 17.00117) rotate(-179.99998)" fill="#217346"/><rect x="2.99983" y="6.00136" width="2.99949" height="0.99899" transform="translate(8.99915 13.00171) rotate(-179.99998)" fill="#217346"/><rect x="3" y="10.00116" width="2.99941" height="0.99884" transform="translate(8.99941 21.00117) rotate(-179.99998)" fill="#217346"/><rect x="3" y="14.00116" width="2.99941" height="0.99884" transform="translate(8.99941 29.00117) rotate(-179.99998)" fill="#217346"/><rect x="7" y="12.00116" width="2.99941" height="0.99884" transform="translate(16.99941 25.00117) rotate(-179.99998)" fill="#c8c8c8"/><rect x="7" y="8.00116" width="2.99941" height="0.99884" transform="translate(16.99941 17.00117) rotate(-179.99998)" fill="#c8c8c8"/><rect x="6.99983" y="6.00136" width="2.99949" height="0.99899" transform="translate(16.99915 13.00171) rotate(-179.99998)" fill="#c8c8c8"/><rect x="7" y="10.00116" width="2.99941" height="0.99884" transform="translate(16.99941 21.00117) rotate(-179.99998)" fill="#c8c8c8"/><rect x="7" y="14.00116" width="2.99941" height="0.99884" transform="translate(16.99941 29.00117) rotate(-179.99998)" fill="#c8c8c8"/><rect x="11" y="12.00116" width="2.99941" height="0.99884" transform="translate(24.99941 25.00117) rotate(-179.99998)" fill="#c8c8c8"/><rect x="11" y="8.00116" width="2.99941" height="0.99884" transform="translate(24.99941 17.00117) rotate(-179.99998)" fill="#c8c8c8"/><rect x="10.99983" y="6.00136" width="2.99949" height="0.99899" transform="translate(24.99915 13.00171) rotate(-179.99998)" fill="#c8c8c8"/><rect x="11" y="10.00116" width="2.99941" height="0.99884" transform="translate(24.99941 21.00117) rotate(-179.99998)" fill="#c8c8c8"/><rect x="11" y="14.00116" width="2.99941" height="0.99884" transform="translate(24.99941 29.00117) rotate(-179.99998)" fill="#c8c8c8"/></svg>