<?xml version="1.0" encoding="utf-8"?>
<!-- Generator: Adobe Illustrator 22.0.1, SVG Export Plug-In . SVG Version: 6.00 Build 0)  -->
<svg version="1.1" xmlns="http://www.w3.org/2000/svg" xmlns:xlink="http://www.w3.org/1999/xlink" x="0px" y="0px"
	 viewBox="0 0 20 20" enable-background="new 0 0 20 20" xml:space="preserve">
<g id="TEMPLATE" display="none">
	<g display="inline">
		<path fill="#D0D0D0" d="M20,0v20H0V0H20 M21-1h-1H0h-1v1v20v1h1h20h1v-1V0V-1L21-1z"/>
	</g>
	<rect x="0" display="inline" fill="none" width="20" height="20"/>
	<g display="inline" opacity="0.1">
		<path fill="#FF3A6D" d="M19,1v18H1V1H19 M20,0H0v20h20V0L20,0z"/>
	</g>
</g>
<g id="ICONS">
	<polygon fill="#FFFFFF" points="18,16 2,16 2,4 14.1212,4 16,4 18,6 18,8 	"/>
	<path fill="#949494" d="M16,3H1v14h18V6L16,3z M16,4.5L17.5,6H16L16,4.5z M18,16H2V4h13v3h3V16z"/>
	
		<rect x="3" y="12.0012" transform="matrix(-1 -3.295980e-07 3.295980e-07 -1 8.9994 25.0012)" fill="#217346" width="2.9994" height="0.9988"/>
	
		<rect x="3" y="8.0012" transform="matrix(-1 -3.295943e-07 3.295943e-07 -1 8.9994 17.0012)" fill="#217346" width="2.9994" height="0.9988"/>
	
		<rect x="2.9998" y="6.0014" transform="matrix(-1 -3.296387e-07 3.296387e-07 -1 8.9991 13.0017)" fill="#217346" width="2.9995" height="0.999"/>
	
		<rect x="3" y="10.0012" transform="matrix(-1 -3.295943e-07 3.295943e-07 -1 8.9994 21.0012)" fill="#217346" width="2.9994" height="0.9988"/>
	
		<rect x="3" y="14.0012" transform="matrix(-1 -3.295980e-07 3.295980e-07 -1 8.9994 29.0012)" fill="#217346" width="2.9994" height="0.9988"/>
	
		<rect x="7" y="12.0012" transform="matrix(-1 -3.295980e-07 3.295980e-07 -1 16.9994 25.0012)" fill="#C8C8C8" width="2.9994" height="0.9988"/>
	
		<rect x="7" y="8.0012" transform="matrix(-1 -3.295943e-07 3.295943e-07 -1 16.9994 17.0012)" fill="#C8C8C8" width="2.9994" height="0.9988"/>
	
		<rect x="6.9998" y="6.0014" transform="matrix(-1 -3.296387e-07 3.296387e-07 -1 16.9991 13.0017)" fill="#C8C8C8" width="2.9995" height="0.999"/>
	
		<rect x="7" y="10.0012" transform="matrix(-1 -3.295943e-07 3.295943e-07 -1 16.9994 21.0012)" fill="#C8C8C8" width="2.9994" height="0.9988"/>
	
		<rect x="7" y="14.0012" transform="matrix(-1 -3.295980e-07 3.295980e-07 -1 16.9994 29.0012)" fill="#C8C8C8" width="2.9994" height="0.9988"/>
	
		<rect x="11" y="12.0012" transform="matrix(-1 -3.295980e-07 3.295980e-07 -1 24.9994 25.0012)" fill="#C8C8C8" width="2.9994" height="0.9988"/>
	
		<rect x="11" y="8.0012" transform="matrix(-1 -3.295943e-07 3.295943e-07 -1 24.9994 17.0012)" fill="#C8C8C8" width="2.9994" height="0.9988"/>
	
		<rect x="10.9998" y="6.0014" transform="matrix(-1 -3.296387e-07 3.296387e-07 -1 24.9991 13.0017)" fill="#C8C8C8" width="2.9995" height="0.999"/>
	
		<rect x="11" y="10.0012" transform="matrix(-1 -3.295943e-07 3.295943e-07 -1 24.9994 21.0012)" fill="#C8C8C8" width="2.9994" height="0.9988"/>
	
		<rect x="11" y="14.0012" transform="matrix(-1 -3.295980e-07 3.295980e-07 -1 24.9994 29.0012)" fill="#C8C8C8" width="2.9994" height="0.9988"/>
</g>
</svg>
