<svg id="34a7b81e-843e-42c8-92ad-c4d8a771f03c" data-name="ICONS" xmlns="http://www.w3.org/2000/svg" viewBox="0 0 20 20"><title>FileTypeIcons_Master_All_NEW</title><polygon points="17 18 5 18 5 2 15 2 17 4 17 18" fill="#fff"/><path d="M15,1H4V19H18V4Zm0,1.5L16.5,4H15ZM17,18H5V2h9V5h3Z" fill="#949494"/><polygon points="10 6 6 11 14 11 10 6" fill="#99cdc7"/><rect x="10" y="12" width="2" height="1" fill="#c8c8c8"/><rect x="10" y="16" width="2" height="1" fill="#c8c8c8"/><rect x="13" y="12" width="3" height="1" fill="#c8c8c8"/><rect x="10" y="14" width="2" height="1" fill="#c8c8c8"/><rect x="13" y="14" width="3" height="1" fill="#c8c8c8"/><rect x="13" y="16" width="3" height="1" fill="#c8c8c8"/><rect x="14" y="6" width="1" height="1" fill="#99cdc7"/><polygon points="14 8 12 11 16 11 14 8" fill="#99cdc7"/><polygon points="2 6 10 5 10 17 2 16 2 6" fill="#008272"/><rect x="5" y="13" width="2" height="1" fill="#fff"/><rect x="5" y="8" width="2" height="1" fill="#fff"/><rect x="7" y="12" width="1" height="1" fill="#fff"/><rect x="6" y="11" width="1" height="1" fill="#fff"/><rect x="5" y="10" width="1" height="1" fill="#fff"/><rect x="4" y="9" width="1" height="1" fill="#fff"/><rect x="7" y="13" width="1" height="1" fill="#fff" opacity="0.6"/><rect x="4" y="12" width="1" height="2" fill="#fff" opacity="0.6"/><rect x="4" y="8" width="1" height="1" fill="#fff" opacity="0.6"/><rect x="7" y="8" width="1" height="2" fill="#fff" opacity="0.6"/><rect x="4" y="10" width="1" height="1" fill="#fff" opacity="0.6"/><rect x="6" y="12" width="1" height="1" fill="#fff" opacity="0.6"/><rect x="5" y="9" width="1" height="1" fill="#fff" opacity="0.6"/><rect x="6" y="10" width="1" height="1" fill="#fff" opacity="0.6"/><rect x="5" y="11" width="1" height="1" fill="#fff" opacity="0.6"/><rect x="7" y="11" width="1" height="1" fill="#fff" opacity="0.6"/></svg>