<svg id="a338de9e-edd2-40d3-b4a3-b30ebc8abcef" data-name="ICONS" xmlns="http://www.w3.org/2000/svg" viewBox="0 0 20 20"><title>FileTypeIcons_Master_All_NEW</title><polygon points="16 18 4 18 4 2 14 2 16 4 16 18" fill="#fff"/><path d="M14,1H3V19H17V4Zm0,1.5L15.5,4H14ZM16,18H4V2h9V5h3Z" fill="#949494"/><rect x="8" y="6" width="1" height="1" fill="#eaeaea"/><rect x="5" y="9" width="1" height="1" fill="#eaeaea"/><rect x="11" y="9" width="1" height="1" fill="#eaeaea"/><rect x="8" y="12" width="1" height="1" fill="#eaeaea"/><rect x="7" y="6" width="1" height="1" fill="#c8c8c8"/><rect x="8" y="8" width="1" height="1" fill="#c8c8c8"/><rect x="8" y="10" width="1" height="1" fill="#c8c8c8"/><rect x="9" y="9" width="1" height="1" fill="#c8c8c8"/><rect x="7" y="9" width="1" height="1" fill="#c8c8c8"/><rect x="9" y="6" width="1" height="1" fill="#c8c8c8"/><rect x="11" y="8" width="1" height="1" transform="translate(20 -3) rotate(90)" fill="#c8c8c8"/><rect x="11" y="10" width="1" height="1" transform="translate(22 -1) rotate(90)" fill="#c8c8c8"/><rect x="5" y="8" width="1" height="1" transform="translate(14 3) rotate(90)" fill="#c8c8c8"/><rect x="6" y="7" width="1" height="1" transform="translate(14 1) rotate(90)" fill="#c8c8c8"/><rect x="6" y="11" width="1" height="1" transform="translate(18 5) rotate(90)" fill="#c8c8c8"/><rect x="10" y="7" width="1" height="1" transform="translate(18 -3) rotate(90)" fill="#c8c8c8"/><rect x="10" y="11" width="1" height="1" transform="translate(22 1) rotate(90)" fill="#c8c8c8"/><rect x="5" y="10" width="1" height="1" transform="translate(16 5) rotate(90)" fill="#c8c8c8"/><rect x="7" y="12" width="1" height="1" fill="#c8c8c8"/><rect x="9" y="12" width="1" height="1" fill="#c8c8c8"/><rect x="12" y="12" width="2" height="1" fill="#c8c8c8"/><rect x="12" y="15" width="2" height="1" fill="#c8c8c8"/><rect x="10.5" y="13.5" width="2" height="1" transform="translate(25.5 2.5) rotate(90)" fill="#c8c8c8"/><rect x="13.5" y="13.5" width="2" height="1" transform="translate(28.5 -0.5) rotate(90)" fill="#c8c8c8"/></svg>