<svg id="5563d5ce-4067-4e62-8377-81e6e0781a17" data-name="ICONS" xmlns="http://www.w3.org/2000/svg" viewBox="0 0 20 20"><title>FileTypeIcons_Master_All_NEW</title><polygon points="16 18 4 18 4 2 14 2 16 4 16 18" fill="#fff"/><path d="M14,1H3V19H17V4Zm0,1.5L15.5,4H14ZM16,18H4V2h9V5h3Z" fill="#949494"/><circle cx="7.5" cy="9.5" r="1.5" fill="#0078d7"/><path d="M7,15v1H6V15H7m1-1H5v3H8V14Z" fill="#0078d7"/><path d="M14,8V9H13V8h1m1-1H12v3h3V7Z" fill="#0078d7"/><path d="M15,14l-2.5.5L12,17,9.5,11.5Z" fill="#0078d7"/><rect x="6" y="12" width="1" height="1" fill="#c8c8c8"/><rect x="10" y="8" width="1" height="1" fill="#c8c8c8"/></svg>