<svg id="7d81d3a7-396d-4005-b7fa-b93d9185fa3e" data-name="ICONS" xmlns="http://www.w3.org/2000/svg" viewBox="0 0 20 20"><title>FileTypeIcons_Master_All_NEW</title><path d="M1,3V17H19V3ZM18,16H2V4H18Z" fill="#949494"/><polygon points="8 7 8 13 13 10 8 7" fill="#949494"/><rect x="3" y="13" width="1" height="1" fill="#949494"/><rect x="3" y="15" width="1" height="1" fill="#949494"/><rect x="3" y="11" width="1" height="1" fill="#949494"/><rect x="3" y="9" width="1" height="1" fill="#949494"/><rect x="3" y="7" width="1" height="1" fill="#949494"/><rect x="3" y="5" width="1" height="1" fill="#949494"/><rect x="16" y="13" width="1" height="1" fill="#949494"/><rect x="16" y="15" width="1" height="1" fill="#949494"/><rect x="16" y="11" width="1" height="1" fill="#949494"/><rect x="16" y="9" width="1" height="1" fill="#949494"/><rect x="16" y="7" width="1" height="1" fill="#949494"/><rect x="16" y="5" width="1" height="1" fill="#949494"/></svg>