<svg id="8976d7c5-f342-4d22-9f9a-8cecd80c672f" data-name="ICONS" xmlns="http://www.w3.org/2000/svg" viewBox="0 0 20 20"><title>FileTypeIcons_Master_All_NEW</title><rect x="2" y="4" width="16" height="12" fill="#fff"/><path d="M1,3V17H19V3ZM18,16H2V4H18Z" fill="#949494"/><polygon points="8 7 8 13 13 10 8 7" fill="#69afe5"/><rect x="3" y="13" width="1" height="1" fill="#c8c8c8"/><rect x="3" y="15" width="1" height="1" fill="#c8c8c8"/><rect x="3" y="11" width="1" height="1" fill="#c8c8c8"/><rect x="3" y="9" width="1" height="1" fill="#c8c8c8"/><rect x="3" y="7" width="1" height="1" fill="#c8c8c8"/><rect x="3" y="5" width="1" height="1" fill="#c8c8c8"/><rect x="16" y="13" width="1" height="1" fill="#c8c8c8"/><rect x="16" y="15" width="1" height="1" fill="#c8c8c8"/><rect x="16" y="11" width="1" height="1" fill="#c8c8c8"/><rect x="16" y="9" width="1" height="1" fill="#c8c8c8"/><rect x="16" y="7" width="1" height="1" fill="#c8c8c8"/><rect x="16" y="5" width="1" height="1" fill="#c8c8c8"/></svg>