<svg id="fce35322-2df0-4bde-a0f1-5ee2682678ae" data-name="ICONS" xmlns="http://www.w3.org/2000/svg" viewBox="0 0 20 20"><title>FileTypeIcons_Master_All_NEW</title><polygon points="17 18 5 18 5 2 15 2 17 4 17 18" fill="#fff"/><path d="M15,1H4V19H18V4Zm0,1.5L16.5,4H15ZM17,18H5V2h9V5h3Z" fill="#949494"/><path d="M14,12.05029V8H12V6H7v5h5V9h1v3.05029a2.5,2.5,0,1,0,1,0ZM11,10H8V7h3v3Zm2.5,6A1.5,1.5,0,1,1,15,14.5,1.50164,1.50164,0,0,1,13.5,16Z" fill="#c8c8c8"/><polygon points="2 6 10 5 10 17 2 16 2 6" fill="#3955a3"/><rect x="5" y="11" width="2" height="1" fill="#fff" opacity="0.6"/><rect x="5" y="13" width="2" height="1" fill="#fff"/><rect x="5" y="12" width="2" height="1" fill="#fff"/><rect x="4" y="9" width="1" height="3" fill="#fff"/><rect x="7" y="9" width="1" height="3" fill="#fff"/><rect x="3" y="8" width="1" height="1" fill="#fff"/><rect x="4" y="12" width="1" height="1" fill="#fff" opacity="0.6"/><rect x="6" y="10" width="1" height="1" fill="#fff" opacity="0.6"/><rect x="5" y="10" width="1" height="1" fill="#fff" opacity="0.6"/><rect x="3" y="9" width="1" height="1" fill="#fff" opacity="0.6"/><rect x="4" y="8" width="1" height="1" fill="#fff" opacity="0.6"/><rect x="7" y="8" width="1" height="1" fill="#fff" opacity="0.6"/><rect x="8" y="9" width="1" height="1" fill="#fff" opacity="0.6"/><rect x="8" y="8" width="1" height="1" fill="#fff"/><rect x="7" y="12" width="1" height="1" fill="#fff" opacity="0.6"/></svg>