<svg id="26490def-5256-4e65-be1b-cf1f1a3e85d7" data-name="ICONS" xmlns="http://www.w3.org/2000/svg" viewBox="0 0 20 20"><title>FileTypeIcons_Master_All_NEW</title><rect x="5" y="2" width="12" height="16" fill="#fff"/><rect x="13" y="8" width="3" height="1" fill="#c8c8c8"/><rect x="13.5" y="5.5" width="4" height="1" transform="translate(21.5 -9.5) rotate(90)" fill="#c8c8c8"/><rect x="10" y="6" width="5" height="1" transform="translate(19 -6) rotate(90)" fill="#c8c8c8"/><rect x="13" y="4" width="3" height="1" fill="#c8c8c8"/><rect x="7" y="8" width="3" height="1" fill="#c8c8c8"/><rect x="7.5" y="5.5" width="4" height="1" transform="translate(15.5 -3.5) rotate(90)" fill="#c8c8c8"/><rect x="4" y="6" width="5" height="1" transform="translate(13) rotate(90)" fill="#c8c8c8"/><rect x="7" y="4" width="3" height="1" fill="#c8c8c8"/><rect x="7" y="15" width="3" height="1" fill="#c8c8c8"/><rect x="7.5" y="12.5" width="4" height="1" transform="translate(22.5 3.5) rotate(90)" fill="#c8c8c8"/><rect x="4" y="13" width="5" height="1" transform="translate(20 7) rotate(90)" fill="#c8c8c8"/><rect x="7" y="11" width="3" height="1" fill="#c8c8c8"/><rect x="13" y="15" width="3" height="1" fill="#c8c8c8"/><rect x="13.5" y="12.5" width="4" height="1" transform="translate(28.5 -2.5) rotate(90)" fill="#c8c8c8"/><rect x="10" y="13" width="5" height="1" transform="translate(26 1) rotate(90)" fill="#c8c8c8"/><rect x="13" y="11" width="3" height="1" fill="#c8c8c8"/><path d="M4,1V19H18V1ZM17,18H5V2H17Z" fill="#949494"/><rect x="5" y="11" width="2" height="1" fill="#fff" opacity="0.6"/><polygon points="2 6 10 5 10 17 2 16 2 6" fill="#3955a3"/><rect x="5" y="13" width="2" height="1" fill="#fff"/><rect x="5" y="12" width="2" height="1" fill="#fff"/><rect x="4" y="9" width="1" height="3" fill="#fff"/><rect x="7" y="9" width="1" height="3" fill="#fff"/><rect x="3" y="8" width="1" height="1" fill="#fff"/><rect x="4" y="12" width="1" height="1" fill="#fff" opacity="0.6"/><rect x="3" y="9" width="1" height="1" fill="#fff" opacity="0.6"/><rect x="4" y="8" width="1" height="1" fill="#fff" opacity="0.6"/><rect x="7" y="8" width="1" height="1" fill="#fff" opacity="0.6"/><rect x="8" y="9" width="1" height="1" fill="#fff" opacity="0.6"/><rect x="8" y="8" width="1" height="1" fill="#fff"/><rect x="7" y="12" width="1" height="1" fill="#fff" opacity="0.6"/></svg>