<svg id="2b2c3312-945e-4846-b451-3927fe8671f9" data-name="ICONS" xmlns="http://www.w3.org/2000/svg" viewBox="0 0 20 20"><title>FileTypeIcons_Master_All_NEW</title><polygon points="17 18 5 18 5 2 15 2 17 4 17 18" fill="#fff"/><path d="M15,1H4V19H18V4Zm0,1.5L16.5,4H15ZM17,18H5V2h9V5h3Z" fill="#949494"/><polygon points="2 6 10 5 10 17 2 16 2 6" fill="#217346"/><rect x="14" y="14" width="2" height="1" fill="#c8c8c8"/><rect x="14" y="16" width="2" height="1" fill="#c8c8c8"/><rect x="14" y="10" width="2" height="1" fill="#c8c8c8"/><rect x="14" y="12" width="2" height="1" fill="#c8c8c8"/><rect x="14" y="6" width="2" height="1" fill="#c8c8c8"/><rect x="14" y="8" width="2" height="1" fill="#c8c8c8"/><rect x="11" y="14" width="2" height="1" fill="#c8c8c8"/><rect x="11" y="16" width="2" height="1" fill="#c8c8c8"/><rect x="11" y="10" width="2" height="1" fill="#c8c8c8"/><rect x="11" y="12" width="2" height="1" fill="#c8c8c8"/><rect x="11" y="6" width="2" height="1" fill="#c8c8c8"/><rect x="11" y="8" width="2" height="1" fill="#c8c8c8"/><rect x="5" y="10" width="2" height="2" fill="#fff"/><rect x="7" y="9" width="1" height="1" fill="#fff"/><rect x="7" y="8" width="1" height="1" fill="#fff"/><rect x="4" y="9" width="1" height="1" fill="#fff"/><rect x="4" y="8" width="1" height="1" fill="#fff"/><rect x="8" y="8" width="1" height="1" fill="#fff" opacity="0.6"/><rect x="3" y="8" width="1" height="1" fill="#fff" opacity="0.6"/><rect x="3" y="13" width="1" height="1" fill="#fff" opacity="0.6"/><rect x="4" y="11" width="1" height="1" fill="#fff" opacity="0.6"/><rect x="5" y="9" width="1" height="1" fill="#fff" opacity="0.6"/><rect x="6" y="12" width="1" height="1" fill="#fff" opacity="0.6"/><rect x="7" y="10" width="1" height="1" fill="#fff" opacity="0.6"/><rect x="8" y="13" width="1" height="1" fill="#fff" opacity="0.6"/><rect x="4" y="12" width="1" height="1" fill="#fff"/><rect x="4" y="13" width="1" height="1" fill="#fff"/><rect x="7" y="12" width="1" height="1" fill="#fff"/><rect x="7" y="13" width="1" height="1" fill="#fff"/></svg>