<svg id="b16e78c0-4bf2-4a14-8df7-c68b6923b52d" data-name="ICONS" xmlns="http://www.w3.org/2000/svg" viewBox="0 0 20 20"><title>FileTypeIcons_Master_All_NEW</title><polygon points="16 1 4 1 4 17 6 17 6 19 18 19 18 3 16 1" fill="#fff"/><polygon points="17 4 17 18 7 18 7 17 16 17 16 4 15 4 15 16 7 16 6 16 5 16 5 4 4 4 4 17 6 17 6 19 18 19 18 5 17 4" fill="#949494"/><polygon points="16 1 4 1 4 4 16 4 16 3 18 5 18 3 16 1" fill="#217346"/><rect x="12" y="14" width="2" height="1" fill="#c8c8c8"/><rect x="10" y="14" width="1" height="1" fill="#c8c8c8"/><rect x="12" y="12" width="2" height="1" fill="#c8c8c8"/><rect x="10" y="12" width="1" height="1" fill="#c8c8c8"/><rect x="12" y="10" width="2" height="1" fill="#c8c8c8"/><rect x="10" y="10" width="1" height="1" fill="#c8c8c8"/><rect x="12" y="8" width="2" height="1" fill="#c8c8c8"/><rect x="10" y="8" width="1" height="1" fill="#c8c8c8"/><rect x="12" y="6" width="2" height="1" fill="#c8c8c8"/><rect x="10" y="6" width="1" height="1" fill="#c8c8c8"/><polygon points="2 6 10 5 10 17 2 16 2 6" fill="#217346"/><rect x="5" y="10" width="2" height="2" fill="#fff"/><rect x="7" y="9" width="1" height="1" fill="#fff"/><rect x="7" y="8" width="1" height="1" fill="#fff"/><rect x="4" y="9" width="1" height="1" fill="#fff"/><rect x="4" y="8" width="1" height="1" fill="#fff"/><rect x="8" y="8" width="1" height="1" fill="#fff" opacity="0.6"/><rect x="3" y="8" width="1" height="1" fill="#fff" opacity="0.6"/><rect x="3" y="13" width="1" height="1" fill="#fff" opacity="0.6"/><rect x="4" y="11" width="1" height="1" fill="#fff" opacity="0.6"/><rect x="5" y="9" width="1" height="1" fill="#fff" opacity="0.6"/><rect x="6" y="12" width="1" height="1" fill="#fff" opacity="0.6"/><rect x="7" y="10" width="1" height="1" fill="#fff" opacity="0.6"/><rect x="8" y="13" width="1" height="1" fill="#fff" opacity="0.6"/><rect x="4" y="12" width="1" height="1" fill="#fff"/><rect x="4" y="13" width="1" height="1" fill="#fff"/><rect x="7" y="12" width="1" height="1" fill="#fff"/><rect x="7" y="13" width="1" height="1" fill="#fff"/></svg>