<svg id="9292a1f2-9251-4e86-9c9c-ba0e0a9a7be1" data-name="ICONS" xmlns="http://www.w3.org/2000/svg" viewBox="0 0 20 20"><title>FileTypeIcons_Master_All_NEW</title><polygon points="16 18 4 18 4 2 14 2 16 4 16 18" fill="#fff"/><path d="M14,1H3V19H17V4Zm0,1.5L15.5,4H14ZM16,18H4V2h9V5h3Z" fill="#949494"/><rect x="5" y="14" width="10" height="1" fill="#c8c8c8"/><rect x="5" y="16" width="10" height="1" fill="#c8c8c8"/><polygon points="14 11 13 11 14 9 13 7 14 7 15 9 14 11" fill="#949494"/><polygon points="6 11 7 11 6 9 7 7 6 7 5 9 6 11" fill="#949494"/><circle cx="10" cy="9" r="2" fill="#6caedf"/><path d="M11.01517,7.277l-.0127-.0073-.00074.00427Z" fill="#deebf8"/><path d="M8.955,8.85709c-.0252-.006.00766.10675.02764.118.05318-.00547-.01027-.04534.07487-.00041a.10152.10152,0,0,0,.07266.02226c-.002.00367.00105.00521.01622-.00245l.00026-.00106C9.16234,8.91638,9.0149,8.87047,8.955,8.85709Z" fill="#deebf8"/><path d="M8.8898,8.76625c-.01354-.05684-.09467-.21031-.16831-.1781-.01762.10013.07738.179.08775.21431C8.834,8.88792,8.94632,8.78166,8.8898,8.76625Z" fill="#deebf8"/><path d="M11.59653,7.79555l-.016-.01164c-.00415.05954.00465.15585-.06418.1494-.028-.00269-.04721.02129-.07224-.00195-.01778-.01639-.01974-.037-.04388-.044-.032-.09533-.10552-.0088-.11808.05766.0208.074-.082.08154-.08244.13758-.00033.03465-.02137.0565-.02381.09345-.00262.03857.05708.09662.04664.11318l-.03654.18814a.55933.55933,0,0,0,.009.23119c.02422.05544.09508.11433.08065.18756-.01118.05838.00995.14825.07739.15119a.72864.72864,0,0,0,.10308.07739c.003.02634.04175.058.06255.06606.05553.01524.06972.03685.10552-.02349.02389-.0403.11824-.06614.11057-.09125a.15025.15025,0,0,1,.14972-.14165c.04747-.00628.0442.1056.04764.13063a.34251.34251,0,0,0,.06256.07464C11.9978,9.09348,12,9.047,12,9A1.9909,1.9909,0,0,0,11.59653,7.79555Z" fill="#deebf8"/><path d="M10.52973,7.08563a.32487.32487,0,0,0-.16121-.00734c-.0831.01924.12249.12941.1511.15224.02472.01949.03058.042.05725.06344.0292-.00513.04151.01078.06606.0195.03368.01191.06955-.01338.10886.00065.032.01166.02545.04085.0323.06981.05692-.00955-.00066-.09-.01672-.11115-.02471-.03279-.08669-.02846-.11669-.06875.03979-.006.07657-.0535.08643.01721.03344.02364.05758.02463.08865.05545.017.01688.032-.00489.04257.00628.00725.02553.02193.06834-.00009.09362-.03009.03441-.00056.093.00253.13227-.00652.03343.03816.0875.00816.11645-.0221.02137.04656.03669.06165.04282.02552.01026.08946.06523.08611.09491-.00122.01134-.06916.04526-.08285.04591-.03335.00139.03262.08579.03694.09949.01664.03075.05676.05456.07021.08318.03262.06948.02765-.00481.06076.02219.02894.02381.06531-.00972.08464-.02912a.21262.21262,0,0,0,.00025-.09558c-.00832-.02308-.03067-.02128-.04517-.029a.55262.55262,0,0,1-.0093-.08317c-.00873-.04494-.03-.07413.00342-.12151.01737-.02471.1224.04029.14181.05823.02087.01933.04885-.06483-.02406-.07013-.02665-.02031-.0826-.03344-.093-.06386.02756-.05276.14116.1043.18765.07494.00586-.02781-.04388-.044-.04723-.078a.20423.20423,0,0,0-.01158-.05488c-.00815-.01536-.02182-.04729-.03547-.07173a2.00561,2.00561,0,0,0-.2485-.17306l-.01344-.003.00074-.00427a1.99324,1.99324,0,0,0-.21663-.10916c-.02376-.00448-.045-.00871-.06072-.0133C10.679,7.1339,10.57728,7.06719,10.52973,7.08563Z" fill="#deebf8"/><path d="M10.75294,7.46369c-.00033-.00221-.1905-.09053-.188-.08571.00261.005-.00546,0-.00089,0-.07087-.00653.07918.09614.0826.09662-.04429.0358-.0031.07862.02887.11189.02438.00032.04827-.06842.04827-.06842.02577.01134.08057.07469.11107.02984C10.87313,7.49174,10.789,7.46245,10.75294,7.46369Z" fill="#deebf8"/><path d="M9.671,10.70294c.06418-.0265.1251-.17573.19165-.19824.00546-.1273.18225-.0844.253-.10267a.16937.16937,0,0,0,.14092-.12576c.01223-.05.01868-.08872.07519-.10772.03792-.0362.11262-.09607.11025-.15306-.00163-.036.00612-.08783-.04925-.08236-.04983.005-.06043-.03922-.10243-.04478-.05366-.00693-.10781.00612-.15991.00311a.52932.52932,0,0,0-.10259-.04453c-.03075-.01-.086-.09656-.10609-.11638-.0292-.02886-.0623-.00815-.09819-.0079-.03172-.027.05089-.073.02357-.11026-.0416-.00872-.07429-.05267-.10838-.089a.55742.55742,0,0,0-.07071-.05163c-.06466-.012-.12345.01835-.17165-.03409-.00644-.007-.08089-.07216-.08089-.07216.00089-.00743.041-.019.00358-.02871-.01615-.02063-.02447-.03539-.051-.03588-.04518-.01966-.02651-.05945-.07992-.03808a.48936.48936,0,0,0-.06263.01394c-.02332-.01052-.02406-.04143-.05521-.03767-.05073.00628-.07682-.05391-.13162-.05252a.07486.07486,0,0,1-.06907.06989c-.04991-.001-.04526-.08849-.11221-.05538-.0314.0155-.00474.05139-.05855.05179-.0305.00025-.029.01337-.029.02414-.04247-.01289-.09043-.09175-.12353-.1366-.01468-.05357-.12591-.06573-.10708-.12713a.27474.27474,0,0,0,.00056-.18716c-.01238-.0185-.03123-.06173-.05242-.07216-.01827-.00914.01516-.01354.00571-.03793a.35619.35619,0,0,0,.06156-.16985c-.07461-.05424-.09394.03946-.14809.04346-.08815.00636-.08049-.046-.09157-.10153a.33784.33784,0,0,1,.012-.16065c.01476-.059.10014-.08326.10471-.15641.02528-.01052.07723-.03628.10568-.02593.03173.01149.06638.04444.09664.05341a.59568.59568,0,0,0,.09484.00628c.02144.0155.01484.03768.04672.041.02929.0031-.00285.04991-.00538.08-.00219.02617-.04412.15959.019.15649.04281-.002.073-.14932.07764-.18095.00775-.05269.06312-.082.10853-.10235.03728-.0168.13563-.03156.14745-.07429a.24171.24171,0,0,0,.02985-.066c.006-.01713.05227-.02031.06678-.02993.04363-.029.10684-.08229.162-.06654.03653.01036.08464-.065.13129-.07a1.1859,1.1859,0,0,1,.12338-.02047c-.0075.03441-.05724.02789-.057.06915.04191.02471.20215-.03759.12657-.05113-.08392-.01508-.03458-.13634-.04812-.1392-.06875-.01419-.001-.047.04338-.03816.02839.00562.09118.0411.11377.02511.10715-.07551.04134.06793.03954.08905a.22469.22469,0,0,0,.09208.03532c.01492-.01541.05324-.002.03913-.04037-.01826-.01746-.032-.00131-.048-.02716-.01916-.03091.01721-.0663.02316-.09834.00457-.02439.002-.03467-.02307-.04013-.00873-.01957.0115-.04314.00016-.062a.25521.25521,0,0,1-.05056-.10708c-.01672-.09867-.08538-.02316-.14132-.06956.03531-.03988-.0009-.07959-.02952-.09387-.03132-.01557-.07691-.04794-.09069.0115-.04256.02039-.05968.01623-.06907.06655-.01191.06418-.00563.03393-.043.05717-.05334.03319-.075-.00734-.09338.06922-.04591.01567-.11383.02024-.04428-.05047.0721-.07347-.15323-.13871-.0309-.22572.04314-.03059.10527-.02431.1401-.05072a.3924.3924,0,0,1,.061-.00857.10531.10531,0,0,0,.08839.02724c.03645-.00481.078-.04045.11384.00832.03393.04648.03116.06711.08946.06882.0871-.04607.15755-.02985.18463-.1423.02234-.09312-.14377-.08457-.20126-.11156-.0619-.02886.09165-.02879.09386-.03106L9.90119,7.0025a1.99124,1.99124,0,0,0-.56782.11174,1.398,1.398,0,0,0-.16557.07813c-.05318.02256-.10836.04714-.16345.07336a2.00727,2.00727,0,0,0-.834.92669.27118.27118,0,0,1-.00336.117.46405.46405,0,0,0,.01387.19637.50955.50955,0,0,0,.04541.14352c.01427.02373.05391-.01125.0752-.00146.03375.01549.04762.0658.0561.09231a.839.839,0,0,1,.03425.0831c.01492.01589.06474.00325.07013.02927a.09735.09735,0,0,0,.00619.063c.01567.03842-.01.1021.02024.1861a.205.205,0,0,0,.11946.12877c.02935.01475.03931.04974.06418.11.01215.02977.04656-.00628.048.04094A.34159.34159,0,0,1,8.7197,9.473c-.01306.04982-.114.07836-.10929.13887-.00366.02406.029.02994.03247.05073.00236.01443-.00213.03783-.00107.05309.00262.03538.04983.06181.07128.0879.0252.03067.03555.0774.0597.1079a.42277.42277,0,0,1,.09018.156,1.10594,1.10594,0,0,0,.17247.12182c.08123.0889.06875.37921.06614.50944a.28694.28694,0,0,0,.0113.09382,1.98562,1.98562,0,0,0,.36807.13906c.017-.0153.036-.03044.04248-.0366C9.57547,10.84581,9.60938,10.72863,9.671,10.70294Zm-.53284-3.059a.07373.07373,0,0,1,.14068-.04331c.02316.06157.06043.0955.05945.16872-.0005.031-.04167.04526-.05675.06981-.102-.01158-.053-.01786-.07316-.08571.00482.01876-.01606-.008-.00431-.00448-.03173-.01126-.07364.03857-.09208-.01737C9.09906,7.69071,9.14717,7.679,9.13819,7.64391Z" fill="#deebf8"/></svg>