<?xml version="1.0" encoding="utf-8"?>
<!-- Generator: Adobe Illustrator 21.1.0, SVG Export Plug-In . SVG Version: 6.00 Build 0)  -->
<svg version="1.1" xmlns="http://www.w3.org/2000/svg" xmlns:xlink="http://www.w3.org/1999/xlink" x="0px" y="0px"
	 viewBox="0 0 20 20" enable-background="new 0 0 20 20" xml:space="preserve">
<g id="TEMPLATE" display="none">
	<g display="inline">
		<path fill="#D0D0D0" d="M20,0v20H0V0H20 M21-1h-1H0h-1v1v20v1h1h20h1v-1V0V-1L21-1z"/>
	</g>
	<g display="inline" opacity="0.1">
		<path fill="#FF3A6D" d="M19,1v18H1V1H19 M20,0H0v20h20V0L20,0z"/>
	</g>
</g>
<g id="ICONS">
	<g>
		<polygon fill="#FFFFFF" points="17,18 5,18 5,2 15,2 17,4 		"/>
		<path fill="#949494" d="M15,1H4v18h14V4L15,1z M15,2.5L16.5,4H15V2.5z M17,18H5V2h9v3h3V18z"/>
	</g>
	<polygon fill="#6A3889" points="2,6 10,5 10,17 2,16 	"/>
	<polygon fill="#C8C8C8" points="15,6 10,6 10,7 15,7 15,8 10,8 10,9 15,9 16,9 16,8 16,7 16,6 	"/>
	<polygon fill="#C8C8C8" points="15,10 10,10 10,11 15,11 15,12 10,12 10,13 15,13 16,13 16,12 16,11 16,10 	"/>
	<polygon fill="#C8C8C8" points="15,14 10,14 10,15 15,15 15,16 10,16 10,17 15,17 16,17 16,16 16,15 16,14 	"/>
	<rect x="6" y="3" fill="#C8C8C8" width="4" height="1"/>
	<g>
		<rect x="5" y="8" fill="#FFFFFF" width="1" height="6"/>
		<rect x="6" y="8" opacity="0.6" fill="#FFFFFF" width="1" height="6"/>
	</g>
</g>
</svg>
