<svg id="a8fb681d-d27b-4517-9774-3293cb322ba7" data-name="ICONS" xmlns="http://www.w3.org/2000/svg" viewBox="0 0 20 20"><title>FileTypeIcons_Master_All_NEW</title><polygon points="17 18 5 18 5 2 15 2 17 4 17 18" fill="#fff"/><path d="M15,1H4V19H18V4Zm0,1.5L16.5,4H15ZM17,18H5V2h9V5h3Z" fill="#949494"/><polygon points="2 6 10 5 10 17 2 16 2 6" fill="#6a3889"/><polygon points="15 6 10 6 10 7 15 7 15 8 10 8 10 9 15 9 16 9 16 8 16 7 16 6 15 6" fill="#c8c8c8"/><polygon points="15 10 10 10 10 11 15 11 15 12 10 12 10 13 15 13 16 13 16 12 16 11 16 10 15 10" fill="#c8c8c8"/><polygon points="15 14 10 14 10 15 15 15 15 16 10 16 10 17 15 17 16 17 16 16 16 15 16 14 15 14" fill="#c8c8c8"/><rect x="6" y="3" width="4" height="1" fill="#c8c8c8"/><rect x="5" y="8" width="1" height="6" fill="#fff"/><rect x="6" y="8" width="1" height="6" fill="#fff" opacity="0.6"/></svg>