<svg width="320" height="320" viewBox="0 0 320 320" xmlns="http://www.w3.org/2000/svg" xmlns:xlink="http://www.w3.org/1999/xlink"><path d="M160.053 131.77L64.141 35.856c-7.81-7.81-20.473-7.81-28.284 0-7.81 7.81-7.81 20.474 0 28.284l95.912 95.912-95.912 95.912c-7.81 7.81-7.81 20.474 0 28.285 7.81 7.81 20.474 7.81 28.284 0l95.912-95.912 95.912 95.912c7.81 7.81 20.474 7.81 28.285 0 7.81-7.81 7.81-20.474 0-28.285l-95.912-95.912 95.912-95.912c7.81-7.81 7.81-20.473 0-28.284-7.81-7.81-20.474-7.81-28.285 0l-95.912 95.912z"/></svg>