<svg id="5a9a5de8-9ef3-4d91-9228-083ac8e07fe4" data-name="ICONS" xmlns="http://www.w3.org/2000/svg" xmlns:xlink="http://www.w3.org/1999/xlink" viewBox="0 0 48 48"><defs><linearGradient id="69371064-b7b9-4355-b553-790df1a0580e" x1="8.58668" y1="5.86411" x2="42.48928" y2="46.26765" gradientUnits="userSpaceOnUse"><stop offset="0" stop-color="#fff" stop-opacity="0"/><stop offset="0.86247" stop-color="#5e5e5e" stop-opacity="0.06315"/><stop offset="1" stop-opacity="0.1"/></linearGradient><linearGradient id="0cbf3102-45ca-4a56-a8eb-0328a84d3fc6" x1="38" y1="16.90625" x2="38" y2="14.08751" gradientUnits="userSpaceOnUse"><stop offset="0" stop-color="#828282" stop-opacity="0"/><stop offset="0.86247" stop-color="#303030" stop-opacity="0.06315"/><stop offset="1" stop-opacity="0.1"/></linearGradient><linearGradient id="9be599e0-0df2-4e1d-b468-2aa1a4051f05" x1="31.27" y1="12.23" x2="37.23606" y2="6.26394" gradientUnits="userSpaceOnUse"><stop offset="0" stop-color="#fff" stop-opacity="0"/><stop offset="0.44604" stop-color="#fff" stop-opacity="0.00799"/><stop offset="0.63551" stop-color="#fff" stop-opacity="0.03616"/><stop offset="0.77636" stop-color="#fff" stop-opacity="0.08493"/><stop offset="0.8924" stop-color="#fff" stop-opacity="0.15385"/><stop offset="0.99328" stop-color="#fff" stop-opacity="0.24291"/><stop offset="1" stop-color="#fff" stop-opacity="0.25"/></linearGradient><linearGradient id="be9a8965-bda3-49ea-bdf6-55c253417f67" x1="14" y1="39.1875" x2="14" y2="14.75839" gradientUnits="userSpaceOnUse"><stop offset="0" stop-color="#fff" stop-opacity="0"/><stop offset="0.52587" stop-color="#fff" stop-opacity="0.00735"/><stop offset="0.71529" stop-color="#fff" stop-opacity="0.03396"/><stop offset="0.8503" stop-color="#fff" stop-opacity="0.0803"/><stop offset="0.95875" stop-color="#fff" stop-opacity="0.14595"/><stop offset="1" stop-color="#fff" stop-opacity="0.18"/></linearGradient><linearGradient id="2e6cbf6b-2d71-478c-a34c-2b744f0109f2" x1="17.75381" y1="42.91826" x2="18.17734" y2="38.93002" gradientUnits="userSpaceOnUse"><stop offset="0" stop-color="#828282" stop-opacity="0"/><stop offset="0.99719" stop-opacity="0.2"/></linearGradient></defs><title>FileTypeIcons_Master_All_NEW</title><polygon points="43 44 13 44 13 4 34 4 43 13 43 44" fill="#fff"/><path d="M34.00049,3H12V45H44V13ZM34,4.5,42.5,13H34ZM43,44H13V4H33V14H43Z" fill="#949494"/><path d="M39,25V38H24V25H39m1-1H23V39H40V24Z" fill="#c8c8c8"/><path d="M32,17v7H18V17H32m1-1H17v9H33V16Z" fill="#c8c8c8"/><polygon points="4 17 24 14 24 40 4 37 4 17" fill="#a4373a"/><path d="M20,33H17.01484l-.865-2.66946H11.82473L10.9682,33H8l4.42686-12h3.24805Zm-4.47774-4.74477-1.306-4.03347a5.18294,5.18294,0,0,1-.20353-1.0795h-.06784a4.53589,4.53589,0,0,1-.212,1.046l-1.323,4.067Z" fill="#fff"/><rect x="24" y="24" width="16" height="3" fill="#f7a8ab"/><rect x="24" y="16" width="9" height="3" fill="#f7a8ab"/><rect x="26" y="29" width="3" height="1" fill="#f7a8ab"/><rect x="31" y="29" width="6" height="1" fill="#c8c8c8"/><rect x="25" y="21" width="5" height="1" fill="#c8c8c8"/><rect x="26" y="32" width="3" height="1" fill="#f7a8ab"/><rect x="31" y="32" width="6" height="1" fill="#c8c8c8"/><rect x="26" y="35" width="3" height="1" fill="#f7a8ab"/><rect x="31" y="35" width="6" height="1" fill="#c8c8c8"/><path d="M44,13,34,3H12V45H44Z" fill="url(#69371064-b7b9-4355-b553-790df1a0580e)"/><rect x="33" y="14" width="10" height="3" fill="url(#0cbf3102-45ca-4a56-a8eb-0328a84d3fc6)"/><polygon points="12 3 12 4 33 4 33 14 43 14 43 28 44 28 44 13 34 3 12 3" fill="url(#9be599e0-0df2-4e1d-b468-2aa1a4051f05)"/><polygon points="24 14 4 17 4 37 24 40 24 14" fill="url(#be9a8965-bda3-49ea-bdf6-55c253417f67)"/><polygon points="24 43 12 43 12 38.2 24 40 24 43" fill="url(#2e6cbf6b-2d71-478c-a34c-2b744f0109f2)"/></svg>