<svg id="19a2af26-9a91-403e-bf8d-289286ebda66" data-name="ICONS" xmlns="http://www.w3.org/2000/svg" xmlns:xlink="http://www.w3.org/1999/xlink" viewBox="0 0 48 48"><defs><linearGradient id="2d4c7550-15ab-435f-bab0-56701356b021" x1="10.39927" y1="7.79128" x2="40.06275" y2="43.14284" gradientUnits="userSpaceOnUse"><stop offset="0" stop-opacity="0"/><stop offset="0.86247" stop-opacity="0.12631"/><stop offset="1" stop-opacity="0.2"/></linearGradient><linearGradient id="106ae26a-6585-4a3d-8111-e2476ffe1ea8" x1="35.23094" y1="8.14532" x2="34.24116" y2="19.45854" gradientUnits="userSpaceOnUse"><stop offset="0" stop-color="#828282" stop-opacity="0"/><stop offset="0.85866" stop-color="#454545" stop-opacity="0.1171"/><stop offset="1" stop-opacity="0.25"/></linearGradient><linearGradient id="cecdc62e-e065-4709-96ab-fc2fcef95ac8" x1="9.5" y1="18.81324" x2="9.5" y2="17.29412" gradientUnits="userSpaceOnUse"><stop offset="0" stop-color="#828282" stop-opacity="0"/><stop offset="0.99719" stop-opacity="0.07"/></linearGradient><linearGradient id="0e7fbabd-27b6-4eb2-9334-f1c2f36a90b4" y1="30.81324" y2="29.29412" xlink:href="#cecdc62e-e065-4709-96ab-fc2fcef95ac8"/><linearGradient id="0333931f-24b9-49ef-947a-dd68f525dcba" x1="8" y1="21.81324" x2="8" y2="20.29412" xlink:href="#cecdc62e-e065-4709-96ab-fc2fcef95ac8"/><linearGradient id="3ad0d6bc-ab83-4807-ac80-9ab837fc89e2" y1="25.81324" y2="24.29412" xlink:href="#cecdc62e-e065-4709-96ab-fc2fcef95ac8"/><linearGradient id="a71c4047-62df-46bf-ada8-6fa47e63723f" x1="11" y1="21.81324" x2="11" y2="20.29412" xlink:href="#cecdc62e-e065-4709-96ab-fc2fcef95ac8"/><linearGradient id="b4dd299c-cd76-48cd-b716-ff3c9908730d" x1="9.5" y1="15.81324" x2="9.5" y2="14.29412" gradientUnits="userSpaceOnUse"><stop offset="0" stop-color="#fff" stop-opacity="0"/><stop offset="0.20669" stop-color="#fff" stop-opacity="0.01635"/><stop offset="0.4209" stop-color="#fff" stop-opacity="0.06512"/><stop offset="0.63854" stop-color="#fff" stop-opacity="0.14638"/><stop offset="0.85718" stop-color="#fff" stop-opacity="0.25942"/><stop offset="1" stop-color="#fff" stop-opacity="0.35"/></linearGradient><linearGradient id="5a4952c5-9743-41ae-9856-aead36484c24" y1="32.81324" y2="31.29412" xlink:href="#b4dd299c-cd76-48cd-b716-ff3c9908730d"/><linearGradient id="75ca60df-5170-4b51-acc7-a3db563652ae" y1="19.90662" y2="19.14706" xlink:href="#b4dd299c-cd76-48cd-b716-ff3c9908730d"/><linearGradient id="a4f928c8-3833-45d3-82cb-13e2e2570762" y1="28.90662" y2="28.14706" xlink:href="#b4dd299c-cd76-48cd-b716-ff3c9908730d"/></defs><title>FileTypeIcons_Master_All_NEW</title><polygon points="3 39 3 14 24 14 29 9 45 9 45 39 3 39" fill="#a6a6a6"/><polygon points="29 9 24 14 29 19 45 19 45 9 29 9" fill="#828282"/><polygon points="3 39 3 14 24 14 29 9 45 9 45 39 3 39" fill="url(#2d4c7550-15ab-435f-bab0-56701356b021)"/><polygon points="29 9 24 14 29 19 45 19 45 9 29 9" fill="url(#106ae26a-6585-4a3d-8111-e2476ffe1ea8)"/><polygon points="44.958 19 44.958 20 28.5 20 22.5 14 24 14 29 19 44.958 19" fill="#fff" opacity="0.15"/><rect x="7" y="14" width="5" height="3" fill="#eaeaea"/><rect x="7" y="31" width="5" height="8" fill="#eaeaea"/><path d="M10,19H6V29h7V19Zm2,9H7V20H9v4h1V20h2Z" fill="#eaeaea"/><rect x="7" y="17" width="5" height="2" fill="url(#cecdc62e-e065-4709-96ab-fc2fcef95ac8)"/><rect x="6" y="29" width="7" height="2" fill="url(#0e7fbabd-27b6-4eb2-9334-f1c2f36a90b4)"/><rect x="7" y="20" width="2" height="2" fill="url(#0333931f-24b9-49ef-947a-dd68f525dcba)"/><rect x="9" y="24" width="1" height="2" fill="url(#3ad0d6bc-ab83-4807-ac80-9ab837fc89e2)"/><rect x="10" y="20" width="2" height="2" fill="url(#a71c4047-62df-46bf-ada8-6fa47e63723f)"/><rect x="7" y="14" width="5" height="2" fill="url(#b4dd299c-cd76-48cd-b716-ff3c9908730d)"/><rect x="7" y="31" width="5" height="2" fill="url(#5a4952c5-9743-41ae-9856-aead36484c24)"/><rect x="6" y="19" width="7" height="1" fill="url(#75ca60df-5170-4b51-acc7-a3db563652ae)"/><rect x="7" y="28" width="5" height="1" fill="url(#a4f928c8-3833-45d3-82cb-13e2e2570762)"/></svg>