<?xml version="1.0" encoding="utf-8"?>
<!-- Generator: Adobe Illustrator 21.1.0, SVG Export Plug-In . SVG Version: 6.00 Build 0)  -->
<svg version="1.1" xmlns="http://www.w3.org/2000/svg" xmlns:xlink="http://www.w3.org/1999/xlink" x="0px" y="0px"
	 viewBox="0 0 48 48" enable-background="new 0 0 48 48" xml:space="preserve">
<g id="TEMPLATE" display="none">
	<g display="inline">
		<path fill="#D0D0D0" d="M48,0v48H0V0H48 M49-1h-1H0h-1v1v48v1h1h48h1v-1V0V-1L49-1z"/>
	</g>
	<g display="inline" opacity="0.1">
		<path fill="#FF3A6D" d="M45,3v42H3V3H45 M48,0H0v48h48V0L48,0z"/>
	</g>
</g>
<g id="ICONS">
	<polygon fill="#A6A6A6" points="3,39 3,14 24,14 29,9 45,9 45,39 	"/>
	<polygon fill="#828282" points="29,9 24,14 29,19 45,19 45,9 	"/>
	<linearGradient id="SVGID_1_" gradientUnits="userSpaceOnUse" x1="10.3993" y1="7.7913" x2="40.0628" y2="43.1428">
		<stop  offset="0" style="stop-color:#000000;stop-opacity:0"/>
		<stop  offset="0.8625" style="stop-color:#000000;stop-opacity:0.1725"/>
		<stop  offset="1" style="stop-color:#000000;stop-opacity:0.2"/>
	</linearGradient>
	<polygon fill="url(#SVGID_1_)" points="3,39 3,14 24,14 29,9 45,9 45,39 	"/>
	<linearGradient id="SVGID_2_" gradientUnits="userSpaceOnUse" x1="35.2309" y1="8.1453" x2="34.2412" y2="19.4585">
		<stop  offset="0" style="stop-color:#828282;stop-opacity:0"/>
		<stop  offset="0.4267" style="stop-color:#808080;stop-opacity:0.1067"/>
		<stop  offset="0.5804" style="stop-color:#797979;stop-opacity:0.1451"/>
		<stop  offset="0.6899" style="stop-color:#6E6E6E;stop-opacity:0.1725"/>
		<stop  offset="0.7785" style="stop-color:#5D5D5D;stop-opacity:0.1946"/>
		<stop  offset="0.8543" style="stop-color:#474747;stop-opacity:0.2136"/>
		<stop  offset="0.9215" style="stop-color:#2B2B2B;stop-opacity:0.2304"/>
		<stop  offset="0.9808" style="stop-color:#0C0C0C;stop-opacity:0.2452"/>
		<stop  offset="1" style="stop-color:#000000;stop-opacity:0.25"/>
	</linearGradient>
	<polygon fill="url(#SVGID_2_)" points="29,9 24,14 29,19 45,19 45,9 	"/>
	<polygon opacity="0.15" fill="#FFFFFF" points="44.9583,19 44.9583,20 28.5,20 22.5,14 24,14 29,19 	"/>
	<rect x="7" y="14" fill="#EAEAEA" width="5" height="3"/>
	<rect x="7" y="31" fill="#EAEAEA" width="5" height="8"/>
	<path fill="#EAEAEA" d="M10,19H9H6v10h7V19H10z M12,28H7v-8h2v4h1v-4h2V28z"/>
	<linearGradient id="SVGID_3_" gradientUnits="userSpaceOnUse" x1="9.5" y1="18.8132" x2="9.5" y2="17.2941">
		<stop  offset="0" style="stop-color:#828282;stop-opacity:0"/>
		<stop  offset="0.1699" style="stop-color:#7E7E7E;stop-opacity:0.0119"/>
		<stop  offset="0.346" style="stop-color:#717171;stop-opacity:0.0243"/>
		<stop  offset="0.5248" style="stop-color:#5D5D5D;stop-opacity:0.0368"/>
		<stop  offset="0.7057" style="stop-color:#404040;stop-opacity:0.0495"/>
		<stop  offset="0.8863" style="stop-color:#1B1B1B;stop-opacity:0.0622"/>
		<stop  offset="0.9972" style="stop-color:#000000;stop-opacity:0.07"/>
	</linearGradient>
	<rect x="7" y="17" fill="url(#SVGID_3_)" width="5" height="2"/>
	<linearGradient id="SVGID_4_" gradientUnits="userSpaceOnUse" x1="9.5" y1="30.8132" x2="9.5" y2="29.2941">
		<stop  offset="0" style="stop-color:#828282;stop-opacity:0"/>
		<stop  offset="0.1699" style="stop-color:#7E7E7E;stop-opacity:0.0119"/>
		<stop  offset="0.346" style="stop-color:#717171;stop-opacity:0.0243"/>
		<stop  offset="0.5248" style="stop-color:#5D5D5D;stop-opacity:0.0368"/>
		<stop  offset="0.7057" style="stop-color:#404040;stop-opacity:0.0495"/>
		<stop  offset="0.8863" style="stop-color:#1B1B1B;stop-opacity:0.0622"/>
		<stop  offset="0.9972" style="stop-color:#000000;stop-opacity:0.07"/>
	</linearGradient>
	<rect x="6" y="29" fill="url(#SVGID_4_)" width="7" height="2"/>
	<linearGradient id="SVGID_5_" gradientUnits="userSpaceOnUse" x1="8" y1="21.8132" x2="8" y2="20.2941">
		<stop  offset="0" style="stop-color:#828282;stop-opacity:0"/>
		<stop  offset="0.1699" style="stop-color:#7E7E7E;stop-opacity:0.0119"/>
		<stop  offset="0.346" style="stop-color:#717171;stop-opacity:0.0243"/>
		<stop  offset="0.5248" style="stop-color:#5D5D5D;stop-opacity:0.0368"/>
		<stop  offset="0.7057" style="stop-color:#404040;stop-opacity:0.0495"/>
		<stop  offset="0.8863" style="stop-color:#1B1B1B;stop-opacity:0.0622"/>
		<stop  offset="0.9972" style="stop-color:#000000;stop-opacity:0.07"/>
	</linearGradient>
	<rect x="7" y="20" fill="url(#SVGID_5_)" width="2" height="2"/>
	<linearGradient id="SVGID_6_" gradientUnits="userSpaceOnUse" x1="9.5" y1="25.8132" x2="9.5" y2="24.2941">
		<stop  offset="0" style="stop-color:#828282;stop-opacity:0"/>
		<stop  offset="0.1699" style="stop-color:#7E7E7E;stop-opacity:0.0119"/>
		<stop  offset="0.346" style="stop-color:#717171;stop-opacity:0.0243"/>
		<stop  offset="0.5248" style="stop-color:#5D5D5D;stop-opacity:0.0368"/>
		<stop  offset="0.7057" style="stop-color:#404040;stop-opacity:0.0495"/>
		<stop  offset="0.8863" style="stop-color:#1B1B1B;stop-opacity:0.0622"/>
		<stop  offset="0.9972" style="stop-color:#000000;stop-opacity:0.07"/>
	</linearGradient>
	<rect x="9" y="24" fill="url(#SVGID_6_)" width="1" height="2"/>
	<linearGradient id="SVGID_7_" gradientUnits="userSpaceOnUse" x1="11" y1="21.8132" x2="11" y2="20.2941">
		<stop  offset="0" style="stop-color:#828282;stop-opacity:0"/>
		<stop  offset="0.1699" style="stop-color:#7E7E7E;stop-opacity:0.0119"/>
		<stop  offset="0.346" style="stop-color:#717171;stop-opacity:0.0243"/>
		<stop  offset="0.5248" style="stop-color:#5D5D5D;stop-opacity:0.0368"/>
		<stop  offset="0.7057" style="stop-color:#404040;stop-opacity:0.0495"/>
		<stop  offset="0.8863" style="stop-color:#1B1B1B;stop-opacity:0.0622"/>
		<stop  offset="0.9972" style="stop-color:#000000;stop-opacity:0.07"/>
	</linearGradient>
	<rect x="10" y="20" fill="url(#SVGID_7_)" width="2" height="2"/>
	<linearGradient id="SVGID_8_" gradientUnits="userSpaceOnUse" x1="9.5" y1="15.8132" x2="9.5" y2="14.2941">
		<stop  offset="0" style="stop-color:#FFFFFF;stop-opacity:0"/>
		<stop  offset="1" style="stop-color:#FFFFFF;stop-opacity:0.35"/>
	</linearGradient>
	<rect x="7" y="14" fill="url(#SVGID_8_)" width="5" height="2"/>
	<linearGradient id="SVGID_9_" gradientUnits="userSpaceOnUse" x1="9.5" y1="32.8132" x2="9.5" y2="31.2941">
		<stop  offset="0" style="stop-color:#FFFFFF;stop-opacity:0"/>
		<stop  offset="1" style="stop-color:#FFFFFF;stop-opacity:0.35"/>
	</linearGradient>
	<rect x="7" y="31" fill="url(#SVGID_9_)" width="5" height="2"/>
	<linearGradient id="SVGID_10_" gradientUnits="userSpaceOnUse" x1="9.5" y1="19.9066" x2="9.5" y2="19.1471">
		<stop  offset="0" style="stop-color:#FFFFFF;stop-opacity:0"/>
		<stop  offset="1" style="stop-color:#FFFFFF;stop-opacity:0.35"/>
	</linearGradient>
	<rect x="6" y="19" fill="url(#SVGID_10_)" width="7" height="1"/>
	<linearGradient id="SVGID_11_" gradientUnits="userSpaceOnUse" x1="9.5" y1="28.9066" x2="9.5" y2="28.1471">
		<stop  offset="0" style="stop-color:#FFFFFF;stop-opacity:0"/>
		<stop  offset="1" style="stop-color:#FFFFFF;stop-opacity:0.35"/>
	</linearGradient>
	<rect x="7" y="28" fill="url(#SVGID_11_)" width="5" height="1"/>
</g>
</svg>
