<svg id="b52fd6c8-bf94-4332-99ed-e8d925c2d7c7" data-name="ICONS" xmlns="http://www.w3.org/2000/svg" viewBox="0 0 48 48"><title>FileTypeIcons_Master_All_NEW</title><path d="M19,9V36.17822C17.56934,34.2876,14.74854,33,11.5,33,6.80566,33,3,35.68652,3,39s3.80566,6,8.5,6S20,42.31348,20,39V10L44,4.4V30.17822C42.56934,28.2876,39.74854,27,36.5,27c-4.69434,0-8.5,2.68652-8.5,6s3.80566,6,8.5,6S45,36.31348,45,33V3ZM11.5,44C7.36426,44,4,41.75684,4,39s3.36426-5,7.5-5S19,36.24316,19,39,15.63574,44,11.5,44Zm25-6c-4.13574,0-7.5-2.24316-7.5-5s3.36426-5,7.5-5S44,30.24316,44,33,40.63574,38,36.5,38Z" fill="#949494"/></svg>