<svg id="f31637eb-9b02-4544-be5a-a1f71d06a50a" data-name="ICONS" xmlns="http://www.w3.org/2000/svg" xmlns:xlink="http://www.w3.org/1999/xlink" viewBox="0 0 48 48"><defs><linearGradient id="a97c031d-71e8-49fa-8fa1-4b23711bb811" x1="4.58668" y1="5.86411" x2="38.48928" y2="46.26765" gradientUnits="userSpaceOnUse"><stop offset="0" stop-color="#fff" stop-opacity="0"/><stop offset="0.86247" stop-color="#5e5e5e" stop-opacity="0.06315"/><stop offset="1" stop-opacity="0.1"/></linearGradient><linearGradient id="aeadb562-e6d4-4e22-af96-8a596a12ab20" x1="34" y1="16.90625" x2="34" y2="14.08751" gradientUnits="userSpaceOnUse"><stop offset="0" stop-color="#828282" stop-opacity="0"/><stop offset="0.86247" stop-color="#303030" stop-opacity="0.06315"/><stop offset="1" stop-opacity="0.1"/></linearGradient><linearGradient id="84b5b26a-11ad-4cb7-8125-adc9d9096429" x1="27.27" y1="12.23" x2="33.23606" y2="6.26394" gradientUnits="userSpaceOnUse"><stop offset="0" stop-color="#fff" stop-opacity="0"/><stop offset="0.44604" stop-color="#fff" stop-opacity="0.00799"/><stop offset="0.63551" stop-color="#fff" stop-opacity="0.03616"/><stop offset="0.77636" stop-color="#fff" stop-opacity="0.08493"/><stop offset="0.8924" stop-color="#fff" stop-opacity="0.15385"/><stop offset="0.99328" stop-color="#fff" stop-opacity="0.24291"/><stop offset="1" stop-color="#fff" stop-opacity="0.25"/></linearGradient></defs><title>FileTypeIcons_Master_All_NEW</title><polygon points="39 44 9 44 9 4 30 4 39 13 39 44" fill="#fff"/><path d="M30.00049,3H8V45H40V13ZM30,4.5,38.5,13H30ZM39,44H9V4H29V14H39Z" fill="#949494"/><polyline points="30 5 30 13 38 13 30 5" fill="#fff"/><path d="M34.24658,21.9248C32.32568,17.47607,25,15,25,14v-.5a.5.5,0,0,0-1,0V33.34717a6.955,6.955,0,0,0-5.70117-1.21289c-3.291.56543-5.645,2.75415-5.25684,4.88916.38672,2.13525,3.36817,3.40771,6.65918,2.84228C22.46484,39.39111,24.627,37.771,25,36V20.01367a8.11522,8.11522,0,0,1,6.2085,3.136c4.34228,4.97632-.79786,8.90405-.79786,9.14429,0,0-.208.502.15918.65112a.685.685,0,0,0,.68409-.08447C36.42578,28.42676,34.96777,23.5957,34.24658,21.9248Z" fill="#69afe5"/><path d="M40,13,30,3H8V45H40Z" fill="url(#a97c031d-71e8-49fa-8fa1-4b23711bb811)"/><rect x="29" y="14" width="10" height="3" fill="url(#aeadb562-e6d4-4e22-af96-8a596a12ab20)"/><polygon points="8 3 8 4 29 4 29 14 39 14 39 28 40 28 40 13 30 3 8 3" fill="url(#84b5b26a-11ad-4cb7-8125-adc9d9096429)"/></svg>