<svg id="7e02e8cd-4310-41b0-b4f9-4d3f1ad38c29" data-name="ICONS" xmlns="http://www.w3.org/2000/svg" xmlns:xlink="http://www.w3.org/1999/xlink" viewBox="0 0 48 48"><defs><linearGradient id="5779d564-5b24-4779-bc0f-c0f47742d5c3" x1="34" y1="16.90625" x2="34" y2="14.08751" gradientUnits="userSpaceOnUse"><stop offset="0" stop-color="#828282" stop-opacity="0"/><stop offset="0.86247" stop-color="#303030" stop-opacity="0.06315"/><stop offset="1" stop-opacity="0.1"/></linearGradient><linearGradient id="0cd1eaac-159b-4184-b470-8d9de9ff9e82" x1="27.27" y1="12.23" x2="33.23606" y2="6.26394" gradientUnits="userSpaceOnUse"><stop offset="0" stop-color="#fff" stop-opacity="0"/><stop offset="0.44604" stop-color="#fff" stop-opacity="0.00799"/><stop offset="0.63551" stop-color="#fff" stop-opacity="0.03616"/><stop offset="0.77636" stop-color="#fff" stop-opacity="0.08493"/><stop offset="0.8924" stop-color="#fff" stop-opacity="0.15385"/><stop offset="0.99328" stop-color="#fff" stop-opacity="0.24291"/><stop offset="1" stop-color="#fff" stop-opacity="0.25"/></linearGradient><linearGradient id="c512745b-a105-42e3-b73b-e69db9c9f7d4" x1="4.58668" y1="5.86411" x2="38.48928" y2="46.26765" gradientUnits="userSpaceOnUse"><stop offset="0" stop-color="#fff" stop-opacity="0"/><stop offset="0.86247" stop-color="#5e5e5e" stop-opacity="0.06315"/><stop offset="1" stop-opacity="0.1"/></linearGradient></defs><title>FileTypeIcons_Master_All_NEW</title><polygon points="39 44 9 44 9 4 30 4 39 13 39 44" fill="#fff"/><path d="M30.00049,3H8V45H40V13ZM30,4.5,38.5,13H30ZM39,44H9V4H29V14H39Z" fill="#949494"/><rect x="12" y="35" width="24" height="1" fill="#c8c8c8"/><rect x="12" y="38" width="24" height="1" fill="#c8c8c8"/><polygon points="33 29 32 29 35 25 32 21 33 21 36 25 33 29" fill="#949494"/><polygon points="15 29 16 29 13 25 16 21 15 21 12 25 15 29" fill="#949494"/><polygon points="20 32 29 18 28 18 19 32 20 32" fill="#949494"/><rect x="29" y="14" width="10" height="3" fill="url(#5779d564-5b24-4779-bc0f-c0f47742d5c3)"/><polygon points="8 3 8 4 29 4 29 14 39 14 39 28 40 28 40 13 30 3 8 3" fill="url(#0cd1eaac-159b-4184-b470-8d9de9ff9e82)"/><path d="M40,13,30,3H8V45H40Z" fill="url(#c512745b-a105-42e3-b73b-e69db9c9f7d4)"/></svg>