<svg id="704efa5e-45e1-4435-b9bc-e08ebc189590" data-name="ICONS" xmlns="http://www.w3.org/2000/svg" xmlns:xlink="http://www.w3.org/1999/xlink" viewBox="0 0 48 48"><defs><linearGradient id="c45f848a-59ce-4218-85f1-7cccd31509e3" x1="8.58668" y1="5.86411" x2="42.48928" y2="46.26765" gradientUnits="userSpaceOnUse"><stop offset="0" stop-color="#fff" stop-opacity="0"/><stop offset="0.86247" stop-color="#5e5e5e" stop-opacity="0.06315"/><stop offset="1" stop-opacity="0.1"/></linearGradient><linearGradient id="11314d38-c74c-4e57-b4f1-0c3546993351" x1="38" y1="16.90625" x2="38" y2="14.08751" gradientUnits="userSpaceOnUse"><stop offset="0" stop-color="#828282" stop-opacity="0"/><stop offset="0.86247" stop-color="#303030" stop-opacity="0.06315"/><stop offset="1" stop-opacity="0.1"/></linearGradient><linearGradient id="0e73642f-8412-4c96-b9bd-d9f63df7e479" x1="31.27" y1="12.23" x2="37.23606" y2="6.26394" gradientUnits="userSpaceOnUse"><stop offset="0" stop-color="#fff" stop-opacity="0"/><stop offset="0.44604" stop-color="#fff" stop-opacity="0.00799"/><stop offset="0.63551" stop-color="#fff" stop-opacity="0.03616"/><stop offset="0.77636" stop-color="#fff" stop-opacity="0.08493"/><stop offset="0.8924" stop-color="#fff" stop-opacity="0.15385"/><stop offset="0.99328" stop-color="#fff" stop-opacity="0.24291"/><stop offset="1" stop-color="#fff" stop-opacity="0.25"/></linearGradient><linearGradient id="290d60be-d60c-4548-b2ca-e6b8c43c7eee" x1="17.75381" y1="42.91826" x2="18.17734" y2="38.93002" gradientUnits="userSpaceOnUse"><stop offset="0" stop-color="#828282" stop-opacity="0"/><stop offset="0.99719" stop-opacity="0.2"/></linearGradient><linearGradient id="061b1624-0990-4319-a88b-d40d456a6308" x1="14" y1="39.1875" x2="14" y2="14.75839" gradientUnits="userSpaceOnUse"><stop offset="0" stop-color="#fff" stop-opacity="0"/><stop offset="0.52587" stop-color="#fff" stop-opacity="0.00735"/><stop offset="0.71529" stop-color="#fff" stop-opacity="0.03396"/><stop offset="0.8503" stop-color="#fff" stop-opacity="0.0803"/><stop offset="0.95875" stop-color="#fff" stop-opacity="0.14595"/><stop offset="1" stop-color="#fff" stop-opacity="0.18"/></linearGradient></defs><title>FileTypeIcons_Master_All_NEW</title><polygon points="43 44 13 44 13 4 34 4 43 13 43 44" fill="#fff"/><path d="M34.00049,3H12V45H44V13ZM34,4.5,42.5,13H34ZM43,44H13V4H33V14H43Z" fill="#949494"/><polygon points="4 17 24 14 24 40 4 37 4 17" fill="#217346"/><path d="M19,33H16.11813l-1.85854-3.90795a3.70538,3.70538,0,0,1-.21821-.80335h-.03009a6.62529,6.62529,0,0,1-.24831.83682L11.89691,33H9l3.43868-6L9.29345,21h2.95711l1.54252,3.59833a6.71037,6.71037,0,0,1,.32355,1.01255h.0301q.09028-.35147.3386-1.046L16.2009,21h2.70881l-3.23552,5.94979Z" fill="#fff"/><path d="M34,36H33V34.47416s-2.31286,1.75472-3.978,1.75472a3.06725,3.06725,0,0,1-2.22017-.77246A2.71587,2.71587,0,0,1,26,33.40607q0-2.737,3.13326-3.1852L33,30a2.80121,2.80121,0,0,0-3-3,3.53435,3.53435,0,0,0-3,1V27a5.05691,5.05691,0,0,1,3-1c2.4009,0,4,1.22005,4,3.64868Zm-1-5-3.48885.37859a4.12993,4.12993,0,0,0-1.7186.539A1.52146,1.52146,0,0,0,27.213,33.2859a1.46191,1.46191,0,0,0,.53456,1.16845,2.13119,2.13119,0,0,0,1.42384.45276A4.98249,4.98249,0,0,0,32,34a2.81775,2.81775,0,0,0,1-1.97292Z" fill="#8bbf8a"/><path d="M38.3145,34l-1.626,5h-1.189l1.189-5Z" fill="#8bbf8a"/><path d="M44,13,34,3H12V45H44Z" fill="url(#c45f848a-59ce-4218-85f1-7cccd31509e3)"/><rect x="33" y="14" width="10" height="3" fill="url(#11314d38-c74c-4e57-b4f1-0c3546993351)"/><polygon points="12 3 12 4 33 4 33 14 43 14 43 28 44 28 44 13 34 3 12 3" fill="url(#0e73642f-8412-4c96-b9bd-d9f63df7e479)"/><polygon points="24 43 12 43 12 38.2 24 40 24 43" fill="url(#290d60be-d60c-4548-b2ca-e6b8c43c7eee)"/><polygon points="24 14 4 17 4 37 24 40 24 14" fill="url(#061b1624-0990-4319-a88b-d40d456a6308)"/></svg>