<svg id="7ed26797-d322-4a43-bdc0-94513fa9d4d8" data-name="ICONS" xmlns="http://www.w3.org/2000/svg" xmlns:xlink="http://www.w3.org/1999/xlink" viewBox="0 0 48 48"><defs><linearGradient id="a317f3f3-d3dd-4b24-968e-bcabb29b1e83" x1="13.35369" y1="23.31222" x2="37.10833" y2="51.6219" gradientUnits="userSpaceOnUse"><stop offset="0" stop-opacity="0"/><stop offset="0.86247" stop-opacity="0.12631"/><stop offset="1" stop-opacity="0.2"/></linearGradient><linearGradient id="47dcb29c-af77-47d0-8434-1daccacf344f" x1="5.5" y1="8" x2="5.5" y2="32" gradientUnits="userSpaceOnUse"><stop offset="0" stop-opacity="0"/><stop offset="0.85866" stop-opacity="0.07026"/><stop offset="1" stop-opacity="0.15"/></linearGradient><linearGradient id="5502c3f1-04cb-42c3-9bd1-fa4adc28b970" x1="11.5" y1="3" x2="11.5" xlink:href="#47dcb29c-af77-47d0-8434-1daccacf344f"/><linearGradient id="b4cfe825-4673-444f-b3f6-2bab20872cc6" x1="42.5" y1="3" x2="42.5" y2="27" xlink:href="#47dcb29c-af77-47d0-8434-1daccacf344f"/></defs><title>FileTypeIcons_Master_All_NEW</title><polygon points="11 3 11 8 5 8 5 32 6 32 6 9 11 9 11 32 12 32 12 4 42 4 42 27 43 27 43 3 11 3" fill="#c8c8c8"/><polygon points="3 45 3 32 24 32 29 27 45 27 45 45 3 45" fill="#a6a6a6"/><polygon points="3 45 3 32 24 32 29 27 45 27 45 45 3 45" fill="url(#a317f3f3-d3dd-4b24-968e-bcabb29b1e83)"/><polygon points="3 32 3 33 24.458 33 30.458 27 28.958 27 23.958 32 3 32" fill="#fff" opacity="0.15"/><rect x="5" y="8" width="1" height="24" fill="url(#47dcb29c-af77-47d0-8434-1daccacf344f)"/><rect x="11" y="3" width="1" height="29" fill="url(#5502c3f1-04cb-42c3-9bd1-fa4adc28b970)"/><rect x="42" y="3" width="1" height="24" fill="url(#b4cfe825-4673-444f-b3f6-2bab20872cc6)"/></svg>