<svg id="5266cb5c-5804-456b-8e34-1e4d0152ffff" data-name="ICONS" xmlns="http://www.w3.org/2000/svg" xmlns:xlink="http://www.w3.org/1999/xlink" viewBox="0 0 48 48"><defs><linearGradient id="d45e955e-ce6b-48ba-882d-286bb73745ad" x1="14" y1="39.1875" x2="14" y2="14.75839" gradientUnits="userSpaceOnUse"><stop offset="0" stop-color="#fff" stop-opacity="0"/><stop offset="0.52587" stop-color="#fff" stop-opacity="0.00735"/><stop offset="0.71529" stop-color="#fff" stop-opacity="0.03396"/><stop offset="0.8503" stop-color="#fff" stop-opacity="0.0803"/><stop offset="0.95875" stop-color="#fff" stop-opacity="0.14595"/><stop offset="1" stop-color="#fff" stop-opacity="0.18"/></linearGradient><linearGradient id="e907e7b5-c6cf-4669-bb4a-907c5323c18d" x1="17.75381" y1="42.91826" x2="18.17734" y2="38.93002" gradientUnits="userSpaceOnUse"><stop offset="0" stop-color="#828282" stop-opacity="0"/><stop offset="0.99719" stop-opacity="0.2"/></linearGradient><linearGradient id="bdf1caf8-7a29-4928-a606-ae058533060e" x1="8.58668" y1="5.86411" x2="42.48928" y2="46.26765" gradientUnits="userSpaceOnUse"><stop offset="0" stop-color="#fff" stop-opacity="0"/><stop offset="0.86247" stop-color="#5e5e5e" stop-opacity="0.06315"/><stop offset="1" stop-opacity="0.1"/></linearGradient><linearGradient id="14c6ed25-af5a-4329-9359-9896a8f9f748" x1="38" y1="16.90625" x2="38" y2="14.08751" gradientUnits="userSpaceOnUse"><stop offset="0" stop-color="#828282" stop-opacity="0"/><stop offset="0.86247" stop-color="#303030" stop-opacity="0.06315"/><stop offset="1" stop-opacity="0.1"/></linearGradient><linearGradient id="1620f33e-a8e6-40dc-b4e2-953f482d1a6e" x1="31.27" y1="12.23" x2="37.23606" y2="6.26394" gradientUnits="userSpaceOnUse"><stop offset="0" stop-color="#fff" stop-opacity="0"/><stop offset="0.44604" stop-color="#fff" stop-opacity="0.00799"/><stop offset="0.63551" stop-color="#fff" stop-opacity="0.03616"/><stop offset="0.77636" stop-color="#fff" stop-opacity="0.08493"/><stop offset="0.8924" stop-color="#fff" stop-opacity="0.15385"/><stop offset="0.99328" stop-color="#fff" stop-opacity="0.24291"/><stop offset="1" stop-color="#fff" stop-opacity="0.25"/></linearGradient></defs><title>FileTypeIcons_Master_All_NEW</title><polygon points="43 44 13 44 13 4 34 4 43 13 43 44" fill="#fff"/><path d="M34.00049,3H12V45H44V13ZM34,4.5,42.5,13H34ZM43,44H13V4H33V14H43Z" fill="#949494"/><rect x="24" y="17" width="16" height="1" fill="#c8c8c8"/><rect x="24" y="20" width="16" height="1" fill="#c8c8c8"/><rect x="24" y="23" width="16" height="1" fill="#c8c8c8"/><rect x="24" y="26" width="16" height="1" fill="#c8c8c8"/><rect x="24" y="29" width="16" height="1" fill="#c8c8c8"/><rect x="24" y="32" width="16" height="1" fill="#c8c8c8"/><rect x="24" y="35" width="16" height="1" fill="#c8c8c8"/><rect x="24" y="38" width="16" height="1" fill="#c8c8c8"/><rect x="16" y="7" width="8" height="1" fill="#c8c8c8"/><polygon points="4 17 24 14 24 40 4 37 4 17" fill="#2b579a"/><path d="M21,22,18.37587,32H15.89713l-1.64787-6.41562A5.367,5.367,0,0,1,14.09,24.46165h-.0277a6.87162,6.87162,0,0,1-.18,1.12273L12.19288,32H9.61029L7,22H9.44411l1.39862,6.65969a8.03267,8.03267,0,0,1,.13155,1.14366h.04155a5.55711,5.55711,0,0,1,.20079-1.17155L13.01682,22h2.39564l1.6271,6.71548a8.32653,8.32653,0,0,1,.15925,1.07392h.0277a7.21049,7.21049,0,0,1,.1454-1.11576L18.74283,22Z" fill="#fff"/><polygon points="24 14 4 17 4 37 24 40 24 14" fill="url(#d45e955e-ce6b-48ba-882d-286bb73745ad)"/><polygon points="24 43 12 43 12 38.2 24 40 24 43" fill="url(#e907e7b5-c6cf-4669-bb4a-907c5323c18d)"/><path d="M44,13,34,3H12V45H44Z" fill="url(#bdf1caf8-7a29-4928-a606-ae058533060e)"/><rect x="33" y="14" width="10" height="3" fill="url(#14c6ed25-af5a-4329-9359-9896a8f9f748)"/><polygon points="12 3 12 4 33 4 33 14 43 14 43 28 44 28 44 13 34 3 12 3" fill="url(#1620f33e-a8e6-40dc-b4e2-953f482d1a6e)"/></svg>