<svg id="23052750-cb47-4a72-a270-867ec513d99b" data-name="ICONS" xmlns="http://www.w3.org/2000/svg" xmlns:xlink="http://www.w3.org/1999/xlink" viewBox="0 0 48 48"><defs><linearGradient id="273ead29-41e0-4cec-8225-d8427686da16" x1="14" y1="39.1875" x2="14" y2="14.75839" gradientUnits="userSpaceOnUse"><stop offset="0" stop-color="#fff" stop-opacity="0"/><stop offset="0.52587" stop-color="#fff" stop-opacity="0.00735"/><stop offset="0.71529" stop-color="#fff" stop-opacity="0.03396"/><stop offset="0.8503" stop-color="#fff" stop-opacity="0.0803"/><stop offset="0.95875" stop-color="#fff" stop-opacity="0.14595"/><stop offset="1" stop-color="#fff" stop-opacity="0.18"/></linearGradient><linearGradient id="85b96797-6467-4140-9769-cd33c55167e5" x1="17.75381" y1="42.91826" x2="18.17734" y2="38.93002" gradientUnits="userSpaceOnUse"><stop offset="0" stop-color="#828282" stop-opacity="0"/><stop offset="0.99719" stop-opacity="0.2"/></linearGradient><linearGradient id="b3563283-41cf-4c16-9cbd-a3c5c6dbd890" x1="12.99899" y1="8.2195" x2="40.00101" y2="42.7805" gradientUnits="userSpaceOnUse"><stop offset="0" stop-color="#fff" stop-opacity="0"/><stop offset="0.86247" stop-color="#5e5e5e" stop-opacity="0.06315"/><stop offset="1" stop-opacity="0.1"/></linearGradient><linearGradient id="cad9f0d7-f2d8-4680-a858-4b57cd8bc0c0" x1="23.42827" y1="18.72854" x2="43.9713" y2="45.02242" xlink:href="#b3563283-41cf-4c16-9cbd-a3c5c6dbd890"/><linearGradient id="9d2400ec-7ae6-4b80-b6dc-affc8b439586" x1="28" y1="44.90625" x2="28" y2="42.08751" gradientUnits="userSpaceOnUse"><stop offset="0" stop-color="#828282" stop-opacity="0"/><stop offset="0.86247" stop-color="#303030" stop-opacity="0.06315"/><stop offset="1" stop-opacity="0.1"/></linearGradient><linearGradient id="800a4bfa-ce23-4499-8a76-595726a0c7b7" x1="27.83875" y1="8.57677" x2="28.1656" y2="2.34018" gradientUnits="userSpaceOnUse"><stop offset="0" stop-color="#fff" stop-opacity="0"/><stop offset="0.44604" stop-color="#fff" stop-opacity="0.00799"/><stop offset="0.63551" stop-color="#fff" stop-opacity="0.03616"/><stop offset="0.77636" stop-color="#fff" stop-opacity="0.08493"/><stop offset="0.8924" stop-color="#fff" stop-opacity="0.15385"/><stop offset="0.99328" stop-color="#fff" stop-opacity="0.24291"/><stop offset="1" stop-color="#fff" stop-opacity="0.25"/></linearGradient></defs><title>FileTypeIcons_Master_All_NEW</title><polygon points="41 5 41 3 12 3 12 42 15 42 15 45 44 45 44 6 41 5" fill="#fff"/><polygon points="41 3 12 3 12 9 13 9 41 9 41 5 44 8 44 6 41 3" fill="#2b579a"/><polygon points="43 7 43 44 16 44 16 42 41 42 41 9 40 9 40 41 16 41 15 41 13 41 13 9 12 9 12 42 15 42 15 45 44 45 44 8 43 7" fill="#949494"/><rect x="16" y="11" width="5" height="1" fill="#c8c8c8"/><rect x="24" y="16" width="13" height="1" fill="#c8c8c8"/><rect x="24" y="19" width="13" height="1" fill="#c8c8c8"/><rect x="24" y="22" width="13" height="1" fill="#c8c8c8"/><rect x="24" y="25" width="13" height="1" fill="#c8c8c8"/><rect x="24" y="28" width="13" height="1" fill="#c8c8c8"/><rect x="24" y="31" width="13" height="1" fill="#c8c8c8"/><rect x="24" y="34" width="13" height="1" fill="#c8c8c8"/><rect x="24" y="37" width="13" height="1" fill="#c8c8c8"/><polygon points="4 17 24 14 24 40 4 37 4 17" fill="#2b579a"/><path d="M21,22,18.37587,32H15.89713l-1.64787-6.41562A5.367,5.367,0,0,1,14.09,24.46165h-.0277a6.87162,6.87162,0,0,1-.18,1.12273L12.19288,32H9.61029L7,22H9.44411l1.39862,6.65969a8.02812,8.02812,0,0,1,.13155,1.14366h.04155a5.55178,5.55178,0,0,1,.20079-1.17155L13.01682,22h2.39564l1.6271,6.71548a8.31978,8.31978,0,0,1,.15925,1.07392h.0277a7.21049,7.21049,0,0,1,.1454-1.11576L18.74283,22Z" fill="#fff"/><polygon points="24 14 4 17 4 37 24 40 24 14" fill="url(#273ead29-41e0-4cec-8225-d8427686da16)"/><polygon points="24 43 12 43 12 38.2 24 40 24 43" fill="url(#85b96797-6467-4140-9769-cd33c55167e5)"/><rect x="12" y="9" width="29" height="33" fill="url(#b3563283-41cf-4c16-9cbd-a3c5c6dbd890)"/><polygon points="41 5 41 42 16 42 15 42 15 45 44 45 44 8 41 5" fill="url(#cad9f0d7-f2d8-4680-a858-4b57cd8bc0c0)"/><rect x="15" y="42" width="26" height="3" fill="url(#9d2400ec-7ae6-4b80-b6dc-affc8b439586)"/><polygon points="41 3 12 3 12 9 13 9 41 9 41 5 44 8 44 6 41 3" fill="url(#800a4bfa-ce23-4499-8a76-595726a0c7b7)"/></svg>