<svg id="f180703c-31ab-4a58-a131-ea65824044cc" data-name="ICONS" xmlns="http://www.w3.org/2000/svg" xmlns:xlink="http://www.w3.org/1999/xlink" viewBox="0 0 48 48"><defs><linearGradient id="7fe3d880-9edb-4a31-8eac-270b290d9c6a" x1="7.93725" y1="4.85716" x2="40.06275" y2="43.14284" gradientUnits="userSpaceOnUse"><stop offset="0" stop-color="#fff" stop-opacity="0"/><stop offset="0.86247" stop-color="#5e5e5e" stop-opacity="0.06315"/><stop offset="1" stop-opacity="0.1"/></linearGradient><linearGradient id="72511b1b-8206-4bdd-b9db-ce108080b647" x1="22.85417" y1="25.08966" x2="42.61458" y2="6.2979" gradientUnits="userSpaceOnUse"><stop offset="0" stop-color="#fff" stop-opacity="0"/><stop offset="0.44604" stop-color="#fff" stop-opacity="0.00799"/><stop offset="0.63551" stop-color="#fff" stop-opacity="0.03616"/><stop offset="0.77636" stop-color="#fff" stop-opacity="0.08493"/><stop offset="0.8924" stop-color="#fff" stop-opacity="0.15385"/><stop offset="0.99328" stop-color="#fff" stop-opacity="0.24291"/><stop offset="1" stop-color="#fff" stop-opacity="0.25"/></linearGradient></defs><title>FileTypeIcons_Master_All_NEW</title><rect x="4" y="10" width="40" height="28" fill="#fff"/><rect x="4" y="10" width="40" height="28" fill="#fff"/><path d="M3,9V39H45V9ZM44,38H4V10H44Z" fill="#949494"/><path d="M40,14v5H35V14h5m1-1H34v7h7V13Z" fill="#69afe5"/><rect x="7" y="13" width="7" height="1" fill="#c8c8c8"/><rect x="7" y="16" width="7" height="1" fill="#c8c8c8"/><rect x="14" y="28" width="20" height="1" transform="translate(48 57) rotate(180)" fill="#c8c8c8"/><rect x="14" y="25" width="20" height="1" transform="translate(48 51) rotate(180)" fill="#c8c8c8"/><rect x="14" y="31" width="20" height="1" transform="translate(48 63) rotate(180)" fill="#c8c8c8"/><rect x="3" y="9" width="42" height="30" fill="url(#7fe3d880-9edb-4a31-8eac-270b290d9c6a)"/><polygon points="45 9 3 9 3 10 44 10 44 39 45 39 45 9" fill="url(#72511b1b-8206-4bdd-b9db-ce108080b647)"/></svg>