<?xml version="1.0" encoding="utf-8"?>
<!-- Generator: Adobe Illustrator 21.1.0, SVG Export Plug-In . SVG Version: 6.00 Build 0)  -->
<svg version="1.1" xmlns="http://www.w3.org/2000/svg" xmlns:xlink="http://www.w3.org/1999/xlink" x="0px" y="0px"
	 viewBox="0 0 48 48" enable-background="new 0 0 48 48" xml:space="preserve">
<g id="TEMPLATE" display="none">
	<g display="inline">
		<path fill="#D0D0D0" d="M48,0v48H0V0H48 M49-1h-1H0h-1v1v48v1h1h48h1v-1V0V-1L49-1z"/>
	</g>
	<g display="inline" opacity="0.1">
		<path fill="#FF3A6D" d="M45,3v42H3V3H45 M48,0H0v48h48V0L48,0z"/>
	</g>
</g>
<g id="ICONS">
	<rect x="4" y="11" fill="#FFFFFF" width="40" height="27"/>
	<rect x="4" y="11" fill="#FFFFFF" width="40" height="27"/>
	<rect x="16" y="16" fill="#69AFE5" width="12" height="19"/>
	<rect x="4" y="13" fill="#EAEAEA" width="9" height="25"/>
	<path fill="#949494" d="M3,9v4v26h42V13V9H3z M44,38H4V13h40V38z"/>
	<rect x="40" y="11" fill="#FFFFFF" width="1" height="1"/>
	<rect x="37" y="11" fill="#FFFFFF" width="1" height="1"/>
	<rect x="34" y="11" fill="#FFFFFF" width="1" height="1"/>
	<rect x="6" y="16" fill="#C8C8C8" width="5" height="1"/>
	<rect x="6" y="19" fill="#C8C8C8" width="5" height="1"/>
	<rect x="6" y="22" fill="#C8C8C8" width="5" height="1"/>
	<rect x="6" y="25" fill="#C8C8C8" width="5" height="1"/>
	<rect x="31" y="16" fill="#C8C8C8" width="10" height="1"/>
	<rect x="31" y="19" fill="#C8C8C8" width="10" height="1"/>
	<rect x="31" y="22" fill="#C8C8C8" width="10" height="1"/>
	<rect x="31" y="25" fill="#C8C8C8" width="10" height="1"/>
	<rect x="31" y="28" fill="#C8C8C8" width="10" height="1"/>
	<rect x="31" y="31" fill="#C8C8C8" width="5" height="1"/>
	<linearGradient id="SVGID_1_" gradientUnits="userSpaceOnUse" x1="7.9372" y1="4.8572" x2="40.0628" y2="43.1428">
		<stop  offset="0" style="stop-color:#FFFFFF;stop-opacity:0"/>
		<stop  offset="0.2264" style="stop-color:#FCFCFC;stop-opacity:0.0226"/>
		<stop  offset="0.3626" style="stop-color:#F4F4F4;stop-opacity:0.0363"/>
		<stop  offset="0.475" style="stop-color:#E6E6E6;stop-opacity:0.0475"/>
		<stop  offset="0.5744" style="stop-color:#D1D1D1;stop-opacity:0.0574"/>
		<stop  offset="0.6652" style="stop-color:#B7B7B7;stop-opacity:0.0665"/>
		<stop  offset="0.7498" style="stop-color:#979797;stop-opacity:0.075"/>
		<stop  offset="0.8297" style="stop-color:#707070;stop-opacity:0.083"/>
		<stop  offset="0.9057" style="stop-color:#444444;stop-opacity:0.0906"/>
		<stop  offset="0.9761" style="stop-color:#121212;stop-opacity:0.0976"/>
		<stop  offset="1" style="stop-color:#000000;stop-opacity:0.1"/>
	</linearGradient>
	<rect x="3" y="9" fill="url(#SVGID_1_)" width="42" height="30"/>
	<linearGradient id="SVGID_2_" gradientUnits="userSpaceOnUse" x1="21.548" y1="26.3318" x2="42.621" y2="6.2918">
		<stop  offset="0" style="stop-color:#FFFFFF;stop-opacity:0"/>
		<stop  offset="0.8537" style="stop-color:#FFFFFF;stop-opacity:0.2134"/>
		<stop  offset="1" style="stop-color:#FFFFFF;stop-opacity:0.25"/>
	</linearGradient>
	<polygon fill="url(#SVGID_2_)" points="45,9 3,9 3,13 44,13 44,39 45,39 	"/>
</g>
</svg>
