<svg id="c661267c-9ba6-41bd-acb1-4cf6f266392d" data-name="ICONS" xmlns="http://www.w3.org/2000/svg" xmlns:xlink="http://www.w3.org/1999/xlink" viewBox="0 0 48 48"><defs><linearGradient id="2a4c265b-ba02-49d1-9180-2c8eb327616e" x1="7.93725" y1="4.85716" x2="40.06275" y2="43.14284" gradientUnits="userSpaceOnUse"><stop offset="0" stop-color="#fff" stop-opacity="0"/><stop offset="0.86247" stop-color="#5e5e5e" stop-opacity="0.06315"/><stop offset="1" stop-opacity="0.1"/></linearGradient><linearGradient id="316ee9a3-5d86-4daf-a43b-110a6ef1630f" x1="21.54805" y1="26.33176" x2="42.62101" y2="6.29178" gradientUnits="userSpaceOnUse"><stop offset="0" stop-color="#fff" stop-opacity="0"/><stop offset="0.44604" stop-color="#fff" stop-opacity="0.00799"/><stop offset="0.63551" stop-color="#fff" stop-opacity="0.03616"/><stop offset="0.77636" stop-color="#fff" stop-opacity="0.08493"/><stop offset="0.8924" stop-color="#fff" stop-opacity="0.15385"/><stop offset="0.99328" stop-color="#fff" stop-opacity="0.24291"/><stop offset="1" stop-color="#fff" stop-opacity="0.25"/></linearGradient></defs><title>FileTypeIcons_Master_All_NEW</title><rect x="4" y="11" width="40" height="27" fill="#fff"/><rect x="4" y="11" width="40" height="27" fill="#fff"/><rect x="16" y="16" width="12" height="19" fill="#69afe5"/><rect x="4" y="13" width="9" height="25" fill="#eaeaea"/><path d="M3,9V39H45V9ZM44,38H4V13H44Z" fill="#949494"/><rect x="40" y="11" width="1" height="1" fill="#fff"/><rect x="37" y="11" width="1" height="1" fill="#fff"/><rect x="34" y="11" width="1" height="1" fill="#fff"/><rect x="6" y="16" width="5" height="1" fill="#c8c8c8"/><rect x="6" y="19" width="5" height="1" fill="#c8c8c8"/><rect x="6" y="22" width="5" height="1" fill="#c8c8c8"/><rect x="6" y="25" width="5" height="1" fill="#c8c8c8"/><rect x="31" y="16" width="10" height="1" fill="#c8c8c8"/><rect x="31" y="19" width="10" height="1" fill="#c8c8c8"/><rect x="31" y="22" width="10" height="1" fill="#c8c8c8"/><rect x="31" y="25" width="10" height="1" fill="#c8c8c8"/><rect x="31" y="28" width="10" height="1" fill="#c8c8c8"/><rect x="31" y="31" width="5" height="1" fill="#c8c8c8"/><rect x="3" y="9" width="42" height="30" fill="url(#2a4c265b-ba02-49d1-9180-2c8eb327616e)"/><polygon points="45 9 3 9 3 13 44 13 44 39 45 39 45 9" fill="url(#316ee9a3-5d86-4daf-a43b-110a6ef1630f)"/></svg>