<?xml version="1.0" encoding="utf-8"?>
<!-- Generator: Adobe Illustrator 21.1.0, SVG Export Plug-In . SVG Version: 6.00 Build 0)  -->
<svg version="1.1" xmlns="http://www.w3.org/2000/svg" xmlns:xlink="http://www.w3.org/1999/xlink" x="0px" y="0px"
	 viewBox="0 0 48 48" enable-background="new 0 0 48 48" xml:space="preserve">
<g id="TEMPLATE" display="none">
	<g display="inline">
		<path fill="#D0D0D0" d="M48,0v48H0V0H48 M49-1h-1H0h-1v1v48v1h1h48h1v-1V0V-1L49-1z"/>
	</g>
	<path display="inline" opacity="0.1" fill="#FF1D25" d="M0,0v48h48V0H0z M45,45H3V3h42V45z"/>
</g>
<g id="ICONS">
	<polygon fill="#A6A6A6" points="3,39 3,14 24,14 29,9 45,9 45,39 	"/>
	<polygon fill="#828282" points="29,9 24,14 29,19 45,19 45,9 	"/>
	<linearGradient id="SVGID_1_" gradientUnits="userSpaceOnUse" x1="10.3993" y1="7.7913" x2="40.0628" y2="43.1428">
		<stop  offset="0" style="stop-color:#000000;stop-opacity:0"/>
		<stop  offset="0.8625" style="stop-color:#000000;stop-opacity:0.1725"/>
		<stop  offset="1" style="stop-color:#000000;stop-opacity:0.2"/>
	</linearGradient>
	<polygon fill="url(#SVGID_1_)" points="3,39 3,14 24,14 29,9 45,9 45,39 	"/>
	<linearGradient id="SVGID_2_" gradientUnits="userSpaceOnUse" x1="35.2309" y1="8.1453" x2="34.2412" y2="19.4585">
		<stop  offset="0" style="stop-color:#828282;stop-opacity:0"/>
		<stop  offset="0.4267" style="stop-color:#808080;stop-opacity:0.1067"/>
		<stop  offset="0.5804" style="stop-color:#797979;stop-opacity:0.1451"/>
		<stop  offset="0.6899" style="stop-color:#6E6E6E;stop-opacity:0.1725"/>
		<stop  offset="0.7785" style="stop-color:#5D5D5D;stop-opacity:0.1946"/>
		<stop  offset="0.8543" style="stop-color:#474747;stop-opacity:0.2136"/>
		<stop  offset="0.9215" style="stop-color:#2B2B2B;stop-opacity:0.2304"/>
		<stop  offset="0.9808" style="stop-color:#0C0C0C;stop-opacity:0.2452"/>
		<stop  offset="1" style="stop-color:#000000;stop-opacity:0.25"/>
	</linearGradient>
	<polygon fill="url(#SVGID_2_)" points="29,9 24,14 29,19 45,19 45,9 	"/>
	<polygon opacity="0.15" fill="#FFFFFF" points="44.9583,19 44.9583,20 28.5,20 22.5,14 24,14 29,19 	"/>
</g>
</svg>
