<svg id="71f343b9-f4ee-4296-bcab-129d39998f55" data-name="ICONS" xmlns="http://www.w3.org/2000/svg" xmlns:xlink="http://www.w3.org/1999/xlink" viewBox="0 0 48 48"><defs><linearGradient id="4af29560-3ae1-4c4a-b75a-ae32aaa25b0c" x1="10.39927" y1="7.79128" x2="40.06275" y2="43.14284" gradientUnits="userSpaceOnUse"><stop offset="0" stop-opacity="0"/><stop offset="0.86247" stop-opacity="0.12631"/><stop offset="1" stop-opacity="0.2"/></linearGradient><linearGradient id="60061db7-067d-41a2-9413-030d620631cc" x1="35.23094" y1="8.14532" x2="34.24116" y2="19.45854" gradientUnits="userSpaceOnUse"><stop offset="0" stop-color="#828282" stop-opacity="0"/><stop offset="0.85866" stop-color="#454545" stop-opacity="0.1171"/><stop offset="1" stop-opacity="0.25"/></linearGradient></defs><title>FileTypeIcons_Master_All_NEW</title><polygon points="3 39 3 14 24 14 29 9 45 9 45 39 3 39" fill="#a6a6a6"/><polygon points="29 9 24 14 29 19 45 19 45 9 29 9" fill="#828282"/><polygon points="3 39 3 14 24 14 29 9 45 9 45 39 3 39" fill="url(#4af29560-3ae1-4c4a-b75a-ae32aaa25b0c)"/><polygon points="29 9 24 14 29 19 45 19 45 9 29 9" fill="url(#60061db7-067d-41a2-9413-030d620631cc)"/><polygon points="44.958 19 44.958 20 28.5 20 22.5 14 24 14 29 19 44.958 19" fill="#fff" opacity="0.15"/></svg>