<svg id="1c88832e-6892-4b5b-9ee0-f4b179924bd6" data-name="ICONS" xmlns="http://www.w3.org/2000/svg" xmlns:xlink="http://www.w3.org/1999/xlink" viewBox="0 0 48 48"><defs><linearGradient id="07ee28b6-966f-45a9-95f1-2bc6a14aa387" x1="24.05449" y1="12.74036" x2="24.05449" y2="34.9625" gradientUnits="userSpaceOnUse"><stop offset="0" stop-color="#f7903b"/><stop offset="1" stop-color="#ff5c0d"/></linearGradient><linearGradient id="2bc5c393-652d-479d-9190-39e445c09cba" x1="34" y1="16.90625" x2="34" y2="14.08751" gradientUnits="userSpaceOnUse"><stop offset="0" stop-color="#828282" stop-opacity="0"/><stop offset="0.86247" stop-color="#303030" stop-opacity="0.06315"/><stop offset="1" stop-opacity="0.1"/></linearGradient><linearGradient id="655fee74-a148-4e9e-91fd-a0ffa2a12a2c" x1="27.27" y1="12.23" x2="33.23606" y2="6.26394" gradientUnits="userSpaceOnUse"><stop offset="0" stop-color="#fff" stop-opacity="0"/><stop offset="0.44604" stop-color="#fff" stop-opacity="0.00799"/><stop offset="0.63551" stop-color="#fff" stop-opacity="0.03616"/><stop offset="0.77636" stop-color="#fff" stop-opacity="0.08493"/><stop offset="0.8924" stop-color="#fff" stop-opacity="0.15385"/><stop offset="0.99328" stop-color="#fff" stop-opacity="0.24291"/><stop offset="1" stop-color="#fff" stop-opacity="0.25"/></linearGradient><linearGradient id="bae5ac8b-ef98-4a48-b77c-7062f2615755" x1="4.58668" y1="5.86411" x2="38.48928" y2="46.26765" gradientUnits="userSpaceOnUse"><stop offset="0" stop-color="#fff" stop-opacity="0"/><stop offset="0.86247" stop-color="#5e5e5e" stop-opacity="0.06315"/><stop offset="1" stop-opacity="0.1"/></linearGradient></defs><title>FileTypeIcons_Master_All_NEW</title><polygon points="39 44 9 44 9 4 30 4 39 13 39 44" fill="#fff"/><path d="M30.00049,3H8V45H40V13ZM30,4.5,38.5,13H30ZM39,44H9V4H29V14H39Z" fill="#949494"/><path d="M27.275,27.68864h-8.4115l-1.474,3.42865a5.426,5.426,0,0,0-.54474,1.89056,1.09776,1.09776,0,0,0,.4726.87323A4.12667,4.12667,0,0,0,19.36,34.3697v.5928H12.51885v-.5928a3.6881,3.6881,0,0,0,1.76239-.62485,9.81582,9.81582,0,0,0,1.81036-3.12424l7.64246-17.88025h.56067L31.857,30.81287a8.23659,8.23659,0,0,0,1.65839,2.82779,3.37818,3.37818,0,0,0,2.07477.729v.5928H27.0186v-.5928a3.21142,3.21142,0,0,0,1.75434-.43259,1.11551,1.11551,0,0,0,.45648-.89722,6.64608,6.64608,0,0,0-.64087-2.227ZM26.82634,26.503l-3.68518-8.77991L19.36,26.503Z" fill="url(#07ee28b6-966f-45a9-95f1-2bc6a14aa387)"/><rect x="29" y="14" width="10" height="3" fill="url(#2bc5c393-652d-479d-9190-39e445c09cba)"/><polygon points="8 3 8 4 29 4 29 14 39 14 39 28 40 28 40 13 30 3 8 3" fill="url(#655fee74-a148-4e9e-91fd-a0ffa2a12a2c)"/><path d="M40,13,30,3H8V45H40Z" fill="url(#bae5ac8b-ef98-4a48-b77c-7062f2615755)"/></svg>