<svg id="c7a23c8b-6a54-4e36-a4af-0d62fb59e9d8" data-name="ICONS" xmlns="http://www.w3.org/2000/svg" xmlns:xlink="http://www.w3.org/1999/xlink" viewBox="0 0 48 48"><defs><linearGradient id="ebe9fbaf-e869-45e2-85a2-8ebebcec0a19" x1="35.23094" y1="8.14532" x2="34.24116" y2="19.45854" gradientUnits="userSpaceOnUse"><stop offset="0" stop-color="#828282" stop-opacity="0"/><stop offset="0.85866" stop-color="#454545" stop-opacity="0.1171"/><stop offset="1" stop-opacity="0.25"/></linearGradient><linearGradient id="50cc393d-27b2-4ee5-b2ed-ffaf19bec0ad" x1="7.93725" y1="9.85716" x2="37.60073" y2="45.20872" gradientUnits="userSpaceOnUse"><stop offset="0" stop-opacity="0"/><stop offset="0.86247" stop-opacity="0.12631"/><stop offset="1" stop-opacity="0.2"/></linearGradient></defs><title>FileTypeIcons_Master_All_NEW</title><polygon points="29 9 24 14 29 19 45 19 45 9 29 9" fill="#828282"/><polygon points="29 9 24 14 29 19 45 19 45 9 29 9" fill="url(#ebe9fbaf-e869-45e2-85a2-8ebebcec0a19)"/><rect x="5" y="11" width="38" height="28" fill="#fff"/><polygon points="3 39 3 14 24 14 29 19 45 19 45 39 3 39" fill="#a6a6a6"/><polygon points="3 39 3 14 24 14 29 19 45 19 45 39 3 39" fill="url(#50cc393d-27b2-4ee5-b2ed-ffaf19bec0ad)"/><polygon points="44.958 19 44.958 20 28.5 20 22.5 14 24 14 29 19 44.958 19" fill="#fff" opacity="0.15"/></svg>