<svg id="72b1fc21-d2ff-427c-8610-febd2959aa94" data-name="ICONS" xmlns="http://www.w3.org/2000/svg" xmlns:xlink="http://www.w3.org/1999/xlink" viewBox="0 0 48 48"><defs><linearGradient id="b8a869d6-11eb-4016-b660-439eacbd9d7e" x1="4.58668" y1="5.86411" x2="38.48928" y2="46.26765" gradientUnits="userSpaceOnUse"><stop offset="0" stop-color="#fff" stop-opacity="0"/><stop offset="0.86247" stop-color="#5e5e5e" stop-opacity="0.06315"/><stop offset="1" stop-opacity="0.1"/></linearGradient><linearGradient id="b5ad2d56-8170-4852-ae83-532ff3444b87" x1="34" y1="16.90625" x2="34" y2="14.08751" gradientUnits="userSpaceOnUse"><stop offset="0" stop-color="#828282" stop-opacity="0"/><stop offset="0.86247" stop-color="#303030" stop-opacity="0.06315"/><stop offset="1" stop-opacity="0.1"/></linearGradient><linearGradient id="83a72ed8-949b-4867-a50b-1903626af58d" x1="27.27" y1="12.23" x2="33.23606" y2="6.26394" gradientUnits="userSpaceOnUse"><stop offset="0" stop-color="#fff" stop-opacity="0"/><stop offset="0.44604" stop-color="#fff" stop-opacity="0.00799"/><stop offset="0.63551" stop-color="#fff" stop-opacity="0.03616"/><stop offset="0.77636" stop-color="#fff" stop-opacity="0.08493"/><stop offset="0.8924" stop-color="#fff" stop-opacity="0.15385"/><stop offset="0.99328" stop-color="#fff" stop-opacity="0.24291"/><stop offset="1" stop-color="#fff" stop-opacity="0.25"/></linearGradient></defs><title>FileTypeIcons_Master_All_NEW</title><polygon points="39 44 9 44 9 4 30 4 39 13 39 44" fill="#fff"/><path d="M30.00049,3H8V45H40V13ZM30,4.5,38.5,13H30ZM39,44H9V4H29V14H39Z" fill="#949494"/><path d="M40,13,30,3H8V45H40Z" fill="url(#b8a869d6-11eb-4016-b660-439eacbd9d7e)"/><rect x="29" y="14" width="10" height="3" fill="url(#b5ad2d56-8170-4852-ae83-532ff3444b87)"/><polygon points="8 3 8 4 29 4 29 14 39 14 39 28 40 28 40 13 30 3 8 3" fill="url(#83a72ed8-949b-4867-a50b-1903626af58d)"/></svg>