<svg id="6eaa89e4-c0b2-4755-bac6-d0e8e35eed89" data-name="ICONS" xmlns="http://www.w3.org/2000/svg" xmlns:xlink="http://www.w3.org/1999/xlink" viewBox="0 0 48 48"><defs><linearGradient id="63f715c9-1818-46af-9118-f31970385d3d" x1="34" y1="16.90625" x2="34" y2="14.08751" gradientUnits="userSpaceOnUse"><stop offset="0" stop-color="#828282" stop-opacity="0"/><stop offset="0.86247" stop-color="#303030" stop-opacity="0.06315"/><stop offset="1" stop-opacity="0.1"/></linearGradient><linearGradient id="076357e5-cd49-4791-9f99-d4b37d39b529" x1="27.27" y1="12.23" x2="33.23606" y2="6.26394" gradientUnits="userSpaceOnUse"><stop offset="0" stop-color="#fff" stop-opacity="0"/><stop offset="0.44604" stop-color="#fff" stop-opacity="0.00799"/><stop offset="0.63551" stop-color="#fff" stop-opacity="0.03616"/><stop offset="0.77636" stop-color="#fff" stop-opacity="0.08493"/><stop offset="0.8924" stop-color="#fff" stop-opacity="0.15385"/><stop offset="0.99328" stop-color="#fff" stop-opacity="0.24291"/><stop offset="1" stop-color="#fff" stop-opacity="0.25"/></linearGradient><linearGradient id="60d57ead-56fa-4797-b379-3de84dcbe2f1" x1="4.58668" y1="5.86411" x2="38.48928" y2="46.26765" gradientUnits="userSpaceOnUse"><stop offset="0" stop-color="#fff" stop-opacity="0"/><stop offset="0.86247" stop-color="#5e5e5e" stop-opacity="0.06315"/><stop offset="1" stop-opacity="0.1"/></linearGradient></defs><title>FileTypeIcons_Master_All_NEW</title><polygon points="39 44 9 44 9 4 30 4 39 13 39 44" fill="#fff"/><path d="M30.00049,3H8V45H40V13ZM30,4.5,38.5,13H30ZM39,44H9V4H29V14H39Z" fill="#949494"/><rect x="12" y="35" width="24" height="1" fill="#c8c8c8"/><rect x="12" y="38" width="24" height="1" fill="#c8c8c8"/><path d="M24,15a9,9,0,1,0,9,9A8.9999,8.9999,0,0,0,24,15Zm6.23535,4H27.74121a8.56382,8.56382,0,0,0-1.37207-2.6416A8.02218,8.02218,0,0,1,30.23535,19ZM27.5,24a15.59533,15.59533,0,0,1-.49463,4H20.99463a16.421,16.421,0,0,1,0-8h6.01074A15.59533,15.59533,0,0,1,27.5,24ZM24,32c-.96729,0-1.99609-1.1272-2.687-3h5.374C25.99609,30.8728,24.96729,32,24,32ZM21.313,19c.69092-1.8728,1.71972-3,2.687-3s1.99609,1.1272,2.687,3Zm.31787-2.6416A8.56382,8.56382,0,0,0,20.25879,19H17.76465A8.02218,8.02218,0,0,1,21.63086,16.3584ZM17.08252,20h2.89062a17.14488,17.14488,0,0,0,0,8H17.08252a7.93142,7.93142,0,0,1,0-8Zm.68213,9h2.49414a8.56382,8.56382,0,0,0,1.37207,2.6416A8.02218,8.02218,0,0,1,17.76465,29Zm8.60449,2.6416A8.56382,8.56382,0,0,0,27.74121,29h2.49414A8.02218,8.02218,0,0,1,26.36914,31.6416ZM30.91748,28H28.02686a17.14488,17.14488,0,0,0,0-8h2.89062a7.93142,7.93142,0,0,1,0,8Z" fill="#69afe5"/><rect x="29" y="14" width="10" height="3" fill="url(#63f715c9-1818-46af-9118-f31970385d3d)"/><polygon points="8 3 8 4 29 4 29 14 39 14 39 28 40 28 40 13 30 3 8 3" fill="url(#076357e5-cd49-4791-9f99-d4b37d39b529)"/><path d="M40,13,30,3H8V45H40Z" fill="url(#60d57ead-56fa-4797-b379-3de84dcbe2f1)"/></svg>