<svg id="e4fbdf14-b3ab-450f-a03e-83acc8b9b5a5" data-name="ICONS" xmlns="http://www.w3.org/2000/svg" xmlns:xlink="http://www.w3.org/1999/xlink" viewBox="0 0 48 48"><defs><linearGradient id="0ccbf661-a083-4b76-a725-7c8132223b90" x1="7.93725" y1="4.85716" x2="40.06275" y2="43.14284" gradientUnits="userSpaceOnUse"><stop offset="0" stop-color="#fff" stop-opacity="0"/><stop offset="0.86247" stop-color="#5e5e5e" stop-opacity="0.06315"/><stop offset="1" stop-opacity="0.1"/></linearGradient><linearGradient id="24cf50b6-dbb5-49ef-ac6e-729e94fcb11f" x1="21.54805" y1="26.33176" x2="42.62101" y2="6.29178" gradientUnits="userSpaceOnUse"><stop offset="0" stop-color="#fff" stop-opacity="0"/><stop offset="0.44604" stop-color="#fff" stop-opacity="0.00799"/><stop offset="0.63551" stop-color="#fff" stop-opacity="0.03616"/><stop offset="0.77636" stop-color="#fff" stop-opacity="0.08493"/><stop offset="0.8924" stop-color="#fff" stop-opacity="0.15385"/><stop offset="0.99328" stop-color="#fff" stop-opacity="0.24291"/><stop offset="1" stop-color="#fff" stop-opacity="0.25"/></linearGradient></defs><title>FileTypeIcons_Master_All_NEW</title><rect x="4" y="11" width="40" height="27" fill="#fff"/><rect x="4" y="11" width="40" height="27" fill="#fff"/><path d="M3,9V39H45V9ZM44,38H4V13H44Z" fill="#949494"/><rect x="13" y="11" width="1" height="1" fill="#fff"/><rect x="10" y="11" width="1" height="1" fill="#fff"/><rect x="7" y="11" width="1" height="1" fill="#fff"/><path d="M24,17a9,9,0,1,0,9,9A8.99982,8.99982,0,0,0,24,17Zm6.91748,5H27.5791a9.94518,9.94518,0,0,0-1.53467-3.7251A8.01991,8.01991,0,0,1,30.91748,22ZM27,26a18.01283,18.01283,0,0,1-.24561,3H21.24561a18.44453,18.44453,0,0,1,0-6h5.50878A18.01283,18.01283,0,0,1,27,26Zm-3,8c-.84277,0-1.94873-1.481-2.55469-4h5.10938C25.94873,32.519,24.84277,34,24,34ZM21.44531,22c.606-2.519,1.71192-4,2.55469-4s1.94873,1.481,2.55469,4Zm.51026-3.7251A9.94518,9.94518,0,0,0,20.4209,22H17.08252A8.01991,8.01991,0,0,1,21.95557,18.2749ZM16.58887,23h3.64355a19.47771,19.47771,0,0,0,0,6H16.58887a7.93619,7.93619,0,0,1,0-6Zm.49365,7H20.4209a9.94518,9.94518,0,0,0,1.53467,3.7251A8.01991,8.01991,0,0,1,17.08252,30Zm8.96191,3.7251A9.94518,9.94518,0,0,0,27.5791,30h3.33838A8.01991,8.01991,0,0,1,26.04443,33.7251ZM31.41113,29H27.76758a19.47771,19.47771,0,0,0,0-6h3.64355a7.93619,7.93619,0,0,1,0,6Z" fill="#a6a6a6"/><rect x="3" y="9" width="42" height="30" fill="url(#0ccbf661-a083-4b76-a725-7c8132223b90)"/><polygon points="45 9 3 9 3 13 44 13 44 39 45 39 45 9" fill="url(#24cf50b6-dbb5-49ef-ac6e-729e94fcb11f)"/></svg>