<svg id="122241ab-8c79-4747-af53-17d8dbedcbdf" data-name="ICONS" xmlns="http://www.w3.org/2000/svg" xmlns:xlink="http://www.w3.org/1999/xlink" viewBox="0 0 48 48"><defs><linearGradient id="71680656-0a3d-404b-b84d-9a0814a1a27e" x1="4.58668" y1="5.86411" x2="38.48928" y2="46.26765" gradientUnits="userSpaceOnUse"><stop offset="0" stop-color="#fff" stop-opacity="0"/><stop offset="0.86247" stop-color="#5e5e5e" stop-opacity="0.06315"/><stop offset="1" stop-opacity="0.1"/></linearGradient><linearGradient id="e4bfe273-67bf-4340-8751-4702d265c319" x1="34" y1="16.90625" x2="34" y2="14.08751" gradientUnits="userSpaceOnUse"><stop offset="0" stop-color="#828282" stop-opacity="0"/><stop offset="0.86247" stop-color="#303030" stop-opacity="0.06315"/><stop offset="1" stop-opacity="0.1"/></linearGradient><linearGradient id="10f1c4d7-9f41-4e46-9742-a280066cd0f2" x1="27.27" y1="12.23" x2="33.23606" y2="6.26394" gradientUnits="userSpaceOnUse"><stop offset="0" stop-color="#fff" stop-opacity="0"/><stop offset="0.44604" stop-color="#fff" stop-opacity="0.00799"/><stop offset="0.63551" stop-color="#fff" stop-opacity="0.03616"/><stop offset="0.77636" stop-color="#fff" stop-opacity="0.08493"/><stop offset="0.8924" stop-color="#fff" stop-opacity="0.15385"/><stop offset="0.99328" stop-color="#fff" stop-opacity="0.24291"/><stop offset="1" stop-color="#fff" stop-opacity="0.25"/></linearGradient></defs><title>FileTypeIcons_Master_All_NEW</title><polygon points="39 44 9 44 9 4 30 4 39 13 39 44" fill="#fff"/><path d="M30.00049,3H8V45H40V13ZM30,4.5,38.5,13H30ZM39,44H9V4H29V14H39Z" fill="#949494"/><rect x="15" y="18" width="21" height="1" fill="#c8c8c8"/><rect x="15" y="21" width="21" height="1" fill="#c8c8c8"/><rect x="15" y="24" width="18" height="1" fill="#c8c8c8"/><rect x="15" y="27" width="18" height="1" fill="#c8c8c8"/><rect x="15" y="30" width="15" height="1" fill="#c8c8c8"/><rect x="15" y="33" width="15" height="1" fill="#c8c8c8"/><rect x="15" y="36" width="21" height="1" fill="#c8c8c8"/><rect x="15" y="39" width="21" height="1" fill="#c8c8c8"/><rect x="12" y="18" width="1" height="1" fill="#69afe5"/><rect x="12" y="21" width="1" height="1" fill="#69afe5"/><rect x="12" y="24" width="1" height="1" fill="#69afe5"/><rect x="12" y="27" width="1" height="1" fill="#69afe5"/><rect x="12" y="30" width="1" height="1" fill="#69afe5"/><rect x="12" y="33" width="1" height="1" fill="#69afe5"/><rect x="12" y="36" width="1" height="1" fill="#69afe5"/><rect x="12" y="39" width="1" height="1" fill="#69afe5"/><path d="M40,13,30,3H8V45H40Z" fill="url(#71680656-0a3d-404b-b84d-9a0814a1a27e)"/><rect x="29" y="14" width="10" height="3" fill="url(#e4bfe273-67bf-4340-8751-4702d265c319)"/><polygon points="8 3 8 4 29 4 29 14 39 14 39 28 40 28 40 13 30 3 8 3" fill="url(#10f1c4d7-9f41-4e46-9742-a280066cd0f2)"/></svg>