<svg id="c202e232-9514-444f-88f4-68fea052e1d9" data-name="ICONS" xmlns="http://www.w3.org/2000/svg" xmlns:xlink="http://www.w3.org/1999/xlink" viewBox="0 0 48 48"><defs><linearGradient id="d17eacec-3f4e-4eb6-a666-984b40318640" x1="4.58668" y1="5.86411" x2="38.48928" y2="46.26765" gradientUnits="userSpaceOnUse"><stop offset="0" stop-color="#fff" stop-opacity="0"/><stop offset="0.86247" stop-color="#5e5e5e" stop-opacity="0.06315"/><stop offset="1" stop-opacity="0.1"/></linearGradient><linearGradient id="13765d66-3ad4-463b-b459-5d8d7c02d481" x1="34" y1="16.90625" x2="34" y2="14.08751" gradientUnits="userSpaceOnUse"><stop offset="0" stop-color="#828282" stop-opacity="0"/><stop offset="0.86247" stop-color="#303030" stop-opacity="0.06315"/><stop offset="1" stop-opacity="0.1"/></linearGradient><linearGradient id="ef7bd490-7640-4fca-b5cf-df3e50a57431" x1="28.92" y1="19.08" x2="37.48" y2="10.52" gradientUnits="userSpaceOnUse"><stop offset="0" stop-color="#fff" stop-opacity="0"/><stop offset="0.44604" stop-color="#fff" stop-opacity="0.00799"/><stop offset="0.63551" stop-color="#fff" stop-opacity="0.03616"/><stop offset="0.77636" stop-color="#fff" stop-opacity="0.08493"/><stop offset="0.8924" stop-color="#fff" stop-opacity="0.15385"/><stop offset="0.99328" stop-color="#fff" stop-opacity="0.24291"/><stop offset="1" stop-color="#fff" stop-opacity="0.25"/></linearGradient></defs><title>FileTypeIcons_Master_All_NEW</title><polygon points="39 44 9 44 9 4 30 4 39 13 39 44" fill="#fff"/><path d="M30.00049,3H8V45H40V13ZM30,4.5,38.5,13H30ZM39,44H9V4H29V14H39Z" fill="#949494"/><polygon points="24 22 24 28 15 25 24 22" fill="#c7e0f4"/><polygon points="24 22 24 28 33 25 24 22" fill="#69afe5"/><polygon points="24 28 33 25 33 37 24 40 24 28" fill="#0078d7"/><polygon points="24 28 24 40 15 37 15 25 24 28" fill="#deecf9"/><polygon points="24 40 15 37 24 34 24 40" fill="#69afe5"/><polygon points="24 40 24 34 33 37 24 40" fill="#005a9e"/><path d="M40,13,30,3H8V45H40Z" fill="url(#d17eacec-3f4e-4eb6-a666-984b40318640)"/><rect x="29" y="14" width="10" height="3" fill="url(#13765d66-3ad4-463b-b459-5d8d7c02d481)"/><polygon points="8 3 8 4 29 4 29 14 39 14 39 45 40 45 40 13 30 3 8 3" fill="url(#ef7bd490-7640-4fca-b5cf-df3e50a57431)"/></svg>