<svg id="48d54f0d-aa7d-4265-ab1a-c556ab0e3bea" data-name="ICONS" xmlns="http://www.w3.org/2000/svg" xmlns:xlink="http://www.w3.org/1999/xlink" viewBox="0 0 48 48"><defs><linearGradient id="0b66cc95-de28-4d2a-972d-a7313ff1154e" x1="-0.52894" y1="12.66354" x2="29.38396" y2="50.9503" gradientUnits="userSpaceOnUse"><stop offset="0" stop-color="#fff" stop-opacity="0"/><stop offset="0.86247" stop-color="#5e5e5e" stop-opacity="0.06315"/><stop offset="1" stop-opacity="0.1"/></linearGradient><linearGradient id="5c386c10-efa3-43a2-b20e-7202a11d288a" x1="8.11781" y1="5.25181" x2="38.03071" y2="43.53858" xlink:href="#0b66cc95-de28-4d2a-972d-a7313ff1154e"/><linearGradient id="5257ab1f-bdab-4d5e-9d99-ce511c750c22" x1="24" y1="44.90625" x2="24" y2="42.08751" gradientUnits="userSpaceOnUse"><stop offset="0" stop-color="#828282" stop-opacity="0"/><stop offset="0.86247" stop-color="#303030" stop-opacity="0.06315"/><stop offset="1" stop-opacity="0.1"/></linearGradient><linearGradient id="af7fcfe8-a27f-4e9f-8614-0fd78c82a053" x1="34" y1="16.90625" x2="34" y2="14.08751" xlink:href="#5257ab1f-bdab-4d5e-9d99-ce511c750c22"/></defs><title>FileTypeIcons_Master_All_NEW</title><polygon points="30 3 29 3 11 3 11 6 8 6 8 45 37 45 37 42 40 42 40 14 40 13 30 3" fill="#fff"/><path d="M30,3H11V6H8V45H37V42h3V13Zm0,1.5L38.5,13H30ZM36,44H9V7h2V42H36Zm3-3H12V4H29V14H39Z" fill="#949494"/><polygon points="11 6 8 6 8 45 37 45 37 42 11 42 11 6" fill="url(#0b66cc95-de28-4d2a-972d-a7313ff1154e)"/><polygon points="30 3 11 3 11 42 40 42 40 13 30 3" fill="url(#5c386c10-efa3-43a2-b20e-7202a11d288a)"/><rect x="11" y="42" width="26" height="3" fill="url(#5257ab1f-bdab-4d5e-9d99-ce511c750c22)"/><rect x="29" y="14" width="10" height="3" fill="url(#af7fcfe8-a27f-4e9f-8614-0fd78c82a053)"/></svg>