<?xml version="1.0" encoding="utf-8"?>
<!-- Generator: Adobe Illustrator 21.1.0, SVG Export Plug-In . SVG Version: 6.00 Build 0)  -->
<svg version="1.1" xmlns="http://www.w3.org/2000/svg" xmlns:xlink="http://www.w3.org/1999/xlink" x="0px" y="0px"
	 viewBox="0 0 48 48" enable-background="new 0 0 48 48" xml:space="preserve">
<g id="TEMPLATE" display="none">
	<g display="inline">
		<path fill="#D0D0D0" d="M48,0v48H0V0H48 M49-1h-1H0h-1v1v48v1h1h48h1v-1V0V-1L49-1z"/>
	</g>
	<g display="inline" opacity="0.1">
		<path fill="#FF3A6D" d="M45,3v42H3V3H45 M48,0H0v48h48V0L48,0z"/>
	</g>
</g>
<g id="ICONS">
	<g>
		<g>
			<polygon fill="#FFFFFF" points="30,3 29,3 11,3 11,6 8,6 8,45 37,45 37,42 40,42 40,14 40,13 			"/>
		</g>
		<path fill="#949494" d="M30,3h-1H11v3H8v39h29v-3h3V14v-1L30,3z M30,4.5l8.5,8.5H30V4.5z M36,44H9V7h2v35h25V44z M39,41h-2h-1H12
			V7V6V4h17v9v1h1h9V41z"/>
	</g>
	<linearGradient id="SVGID_1_" gradientUnits="userSpaceOnUse" x1="-0.5289" y1="12.6635" x2="29.384" y2="50.9503">
		<stop  offset="0" style="stop-color:#FFFFFF;stop-opacity:0"/>
		<stop  offset="0.2264" style="stop-color:#FCFCFC;stop-opacity:0.0226"/>
		<stop  offset="0.3626" style="stop-color:#F4F4F4;stop-opacity:0.0363"/>
		<stop  offset="0.475" style="stop-color:#E6E6E6;stop-opacity:0.0475"/>
		<stop  offset="0.5744" style="stop-color:#D1D1D1;stop-opacity:0.0574"/>
		<stop  offset="0.6652" style="stop-color:#B7B7B7;stop-opacity:0.0665"/>
		<stop  offset="0.7498" style="stop-color:#979797;stop-opacity:0.075"/>
		<stop  offset="0.8297" style="stop-color:#707070;stop-opacity:0.083"/>
		<stop  offset="0.9057" style="stop-color:#444444;stop-opacity:0.0906"/>
		<stop  offset="0.9761" style="stop-color:#121212;stop-opacity:0.0976"/>
		<stop  offset="1" style="stop-color:#000000;stop-opacity:0.1"/>
	</linearGradient>
	<polygon fill="url(#SVGID_1_)" points="11,6 8,6 8,45 37,45 37,42 11,42 	"/>
	<linearGradient id="SVGID_2_" gradientUnits="userSpaceOnUse" x1="8.1178" y1="5.2518" x2="38.0307" y2="43.5386">
		<stop  offset="0" style="stop-color:#FFFFFF;stop-opacity:0"/>
		<stop  offset="0.2264" style="stop-color:#FCFCFC;stop-opacity:0.0226"/>
		<stop  offset="0.3626" style="stop-color:#F4F4F4;stop-opacity:0.0363"/>
		<stop  offset="0.475" style="stop-color:#E6E6E6;stop-opacity:0.0475"/>
		<stop  offset="0.5744" style="stop-color:#D1D1D1;stop-opacity:0.0574"/>
		<stop  offset="0.6652" style="stop-color:#B7B7B7;stop-opacity:0.0665"/>
		<stop  offset="0.7498" style="stop-color:#979797;stop-opacity:0.075"/>
		<stop  offset="0.8297" style="stop-color:#707070;stop-opacity:0.083"/>
		<stop  offset="0.9057" style="stop-color:#444444;stop-opacity:0.0906"/>
		<stop  offset="0.9761" style="stop-color:#121212;stop-opacity:0.0976"/>
		<stop  offset="1" style="stop-color:#000000;stop-opacity:0.1"/>
	</linearGradient>
	<polygon fill="url(#SVGID_2_)" points="30,3 11,3 11,42 40,42 40,13 	"/>
	<linearGradient id="SVGID_3_" gradientUnits="userSpaceOnUse" x1="24" y1="44.9063" x2="24" y2="42.0875">
		<stop  offset="0" style="stop-color:#828282;stop-opacity:0"/>
		<stop  offset="0.2812" style="stop-color:#7F7F7F;stop-opacity:0.0281"/>
		<stop  offset="0.4503" style="stop-color:#777777;stop-opacity:0.045"/>
		<stop  offset="0.5899" style="stop-color:#696969;stop-opacity:0.059"/>
		<stop  offset="0.7133" style="stop-color:#545454;stop-opacity:0.0713"/>
		<stop  offset="0.8259" style="stop-color:#3A3A3A;stop-opacity:0.0826"/>
		<stop  offset="0.9294" style="stop-color:#1A1A1A;stop-opacity:0.0929"/>
		<stop  offset="1" style="stop-color:#000000;stop-opacity:0.1"/>
	</linearGradient>
	<rect x="11" y="42" fill="url(#SVGID_3_)" width="26" height="3"/>
	<linearGradient id="SVGID_4_" gradientUnits="userSpaceOnUse" x1="34" y1="16.9063" x2="34" y2="14.0875">
		<stop  offset="0" style="stop-color:#828282;stop-opacity:0"/>
		<stop  offset="0.2812" style="stop-color:#7F7F7F;stop-opacity:0.0281"/>
		<stop  offset="0.4503" style="stop-color:#777777;stop-opacity:0.045"/>
		<stop  offset="0.5899" style="stop-color:#696969;stop-opacity:0.059"/>
		<stop  offset="0.7133" style="stop-color:#545454;stop-opacity:0.0713"/>
		<stop  offset="0.8259" style="stop-color:#3A3A3A;stop-opacity:0.0826"/>
		<stop  offset="0.9294" style="stop-color:#1A1A1A;stop-opacity:0.0929"/>
		<stop  offset="1" style="stop-color:#000000;stop-opacity:0.1"/>
	</linearGradient>
	<rect x="29" y="14" fill="url(#SVGID_4_)" width="10" height="3"/>
</g>
</svg>
