<svg id="21144417-cb5f-421a-8164-515e3fece50b" data-name="ICONS" xmlns="http://www.w3.org/2000/svg" xmlns:xlink="http://www.w3.org/1999/xlink" viewBox="0 0 48 48"><defs><linearGradient id="c7955b77-51b0-4aed-931b-8999e92c9235" x1="17.75381" y1="42.91826" x2="18.17734" y2="38.93002" gradientUnits="userSpaceOnUse"><stop offset="0" stop-color="#828282" stop-opacity="0"/><stop offset="0.99719" stop-opacity="0.2"/></linearGradient><linearGradient id="7d13467e-d0fe-41bf-9048-0a666496d3c0" x1="11.01955" y1="3.76601" x2="42.38789" y2="43.91566" gradientUnits="userSpaceOnUse"><stop offset="0" stop-color="#fff" stop-opacity="0"/><stop offset="0.86247" stop-color="#5e5e5e" stop-opacity="0.06315"/><stop offset="1" stop-opacity="0.1"/></linearGradient><linearGradient id="dc475fa3-4268-4383-afe2-278fe52bbedc" x1="14" y1="39.1875" x2="14" y2="14.75839" gradientUnits="userSpaceOnUse"><stop offset="0" stop-color="#fff" stop-opacity="0"/><stop offset="0.52587" stop-color="#fff" stop-opacity="0.00735"/><stop offset="0.71529" stop-color="#fff" stop-opacity="0.03396"/><stop offset="0.8503" stop-color="#fff" stop-opacity="0.0803"/><stop offset="0.95875" stop-color="#fff" stop-opacity="0.14595"/><stop offset="1" stop-color="#fff" stop-opacity="0.18"/></linearGradient><linearGradient id="d81fd82d-0198-47be-911a-106e8958feca" x1="34.81394" y1="15.68606" x2="45.62092" y2="4.87908" gradientUnits="userSpaceOnUse"><stop offset="0" stop-color="#fff" stop-opacity="0"/><stop offset="0.44604" stop-color="#fff" stop-opacity="0.00799"/><stop offset="0.63551" stop-color="#fff" stop-opacity="0.03616"/><stop offset="0.77636" stop-color="#fff" stop-opacity="0.08493"/><stop offset="0.8924" stop-color="#fff" stop-opacity="0.15385"/><stop offset="0.99328" stop-color="#fff" stop-opacity="0.24291"/><stop offset="1" stop-color="#fff" stop-opacity="0.25"/></linearGradient></defs><title>FileTypeIcons_Master_All_NEW</title><polygon points="13 4 40 4 40 7 43 7 43 15 40 15 40 44 13 44 13 4" fill="#fff"/><path d="M40,4V7h3v8l-2,.00012H40V44H13V4H40m1-1H12V45H41V16.00012L44,16V6H41V3Z" fill="#949494"/><polygon points="4 17 24 14 24 40 4 37 4 17" fill="#7719aa"/><path d="M19,33H16.47287l-4.5814-7.53975a10.99615,10.99615,0,0,1-.55814-.99581h-.031q.06177.63624.062,1.94142V33H9V21h2.69767l4.41086,7.30544q.30232.49386.55814.97908h.031a13.82343,13.82343,0,0,1-.062-1.64854V21H19Z" fill="#fff"/><rect x="24" y="17" width="13" height="1" fill="#c8c8c8"/><rect x="24" y="20" width="13" height="1" fill="#c8c8c8"/><rect x="24" y="23" width="13" height="1" fill="#c8c8c8"/><rect x="24" y="26" width="13" height="1" fill="#c8c8c8"/><rect x="24" y="29" width="13" height="1" fill="#c8c8c8"/><rect x="24" y="32" width="13" height="1" fill="#c8c8c8"/><rect x="24" y="35" width="13" height="1" fill="#c8c8c8"/><rect x="24" y="38" width="13" height="1" fill="#c8c8c8"/><rect x="16" y="7" width="8" height="1" fill="#c8c8c8"/><polygon points="24 43 12 43 12 38.2 24 40 24 43" fill="url(#c7955b77-51b0-4aed-931b-8999e92c9235)"/><path d="M41,3H12V45H41V16.00012L44,16V6H41V3Z" fill="url(#7d13467e-d0fe-41bf-9048-0a666496d3c0)"/><polygon points="24 14 4 17 4 37 24 40 24 14" fill="url(#dc475fa3-4268-4383-afe2-278fe52bbedc)"/><path d="M40,7h3v8.00012L40,15V44H13V4H40Zm1-4H12V45H41V16.00012L44,16V6H41V3Z" fill="url(#d81fd82d-0198-47be-911a-106e8958feca)"/></svg>