<?xml version="1.0" encoding="utf-8"?>
<!-- Generator: Adobe Illustrator 21.1.0, SVG Export Plug-In . SVG Version: 6.00 Build 0)  -->
<svg version="1.1" xmlns="http://www.w3.org/2000/svg" xmlns:xlink="http://www.w3.org/1999/xlink" x="0px" y="0px"
	 viewBox="0 0 48 48" enable-background="new 0 0 48 48" xml:space="preserve">
<g id="TEMPLATE" display="none">
	<g display="inline">
		<path fill="#D0D0D0" d="M48,0v48H0V0H48 M49-1h-1H0h-1v1v48v1h1h48h1v-1V0V-1L49-1z"/>
	</g>
	<g display="inline" opacity="0.1">
		<path fill="#FF3A6D" d="M45,3v42H3V3H45 M48,0H0v48h48V0L48,0z"/>
	</g>
</g>
<g id="ICONS">
	<path fill="#949494" d="M12.5,17h-2c-0.275,0-0.5-0.225-0.5-0.5l0,0c0-0.275,0.225-0.5,0.5-0.5h2c0.275,0,0.5,0.225,0.5,0.5l0,0
		C13,16.775,12.775,17,12.5,17z"/>
	<path fill="#949494" d="M12.5,44h-3C9.225,44,9,43.775,9,43.5l0,0C9,43.225,9.225,43,9.5,43h3c0.275,0,0.5,0.225,0.5,0.5l0,0
		C13,43.775,12.775,44,12.5,44z"/>
	<path fill="#949494" d="M12.5,41h-3C9.225,41,9,40.775,9,40.5l0,0C9,40.225,9.225,40,9.5,40h3c0.275,0,0.5,0.225,0.5,0.5l0,0
		C13,40.775,12.775,41,12.5,41z"/>
	<polygon fill="#FFFFFF" points="13,4 40,4 40,7 43,7 43,15 40,15 40,44 13,44 	"/>
	<path fill="#949494" d="M40,4v2v1h1h2v8l-2,0.0001h-1v1V44H13V4H40 M41,3H12v42h29V16.0001L44,16V6h-3V3L41,3z"/>
	<rect x="24" y="15" fill="#C8C8C8" width="9" height="1"/>
	<rect x="24" y="18" fill="#C8C8C8" width="9" height="1"/>
	<rect x="24" y="21" fill="#C8C8C8" width="9" height="1"/>
	<polygon fill="#7719AA" points="4,17 24,14 24,40 4,37 	"/>
	<g>
		<path fill="#FFFFFF" d="M19,33h-2.5271l-4.5814-7.5397c-0.2689-0.4406-0.4549-0.7725-0.5581-0.9958h-0.031
			c0.0412,0.4242,0.062,1.0711,0.062,1.9414V33H9V21h2.6977l4.4109,7.3054c0.2016,0.3292,0.3876,0.6556,0.5581,0.9791h0.031
			c-0.0414-0.2788-0.062-0.8285-0.062-1.6485V21H19V33z"/>
	</g>
	<g>
		<rect x="41" y="18" fill="#949494" width="3" height="6"/>
	</g>
	<g>
		<rect x="41" y="26" fill="#949494" width="3" height="6"/>
	</g>
	<g>
		<rect x="41" y="34" fill="#949494" width="3" height="6"/>
	</g>
	<path fill="#949494" d="M12.5,5h-3C9.225,5,9,4.775,9,4.5v0C9,4.225,9.225,4,9.5,4h3C12.775,4,13,4.225,13,4.5v0
		C13,4.775,12.775,5,12.5,5z"/>
	<path fill="#949494" d="M12.5,8h-3C9.225,8,9,7.775,9,7.5v0C9,7.225,9.225,7,9.5,7h3C12.775,7,13,7.225,13,7.5v0
		C13,7.775,12.775,8,12.5,8z"/>
	<path fill="#949494" d="M12.5,11h-3C9.225,11,9,10.775,9,10.5v0C9,10.225,9.225,10,9.5,10h3c0.275,0,0.5,0.225,0.5,0.5v0
		C13,10.775,12.775,11,12.5,11z"/>
	<path fill="#949494" d="M12.5,14h-3C9.225,14,9,13.775,9,13.5v0C9,13.225,9.225,13,9.5,13h3c0.275,0,0.5,0.225,0.5,0.5v0
		C13,13.775,12.775,14,12.5,14z"/>
	<linearGradient id="SVGID_1_" gradientUnits="userSpaceOnUse" x1="43.906" y1="20.999" x2="40.9919" y2="20.999">
		<stop  offset="0" style="stop-color:#A6A6A6;stop-opacity:0"/>
		<stop  offset="0.1164" style="stop-color:#9D9D9D;stop-opacity:0.0116"/>
		<stop  offset="0.3062" style="stop-color:#858585;stop-opacity:0.0306"/>
		<stop  offset="0.5459" style="stop-color:#5D5D5D;stop-opacity:0.0546"/>
		<stop  offset="0.8233" style="stop-color:#272727;stop-opacity:0.0823"/>
		<stop  offset="1" style="stop-color:#000000;stop-opacity:0.1"/>
	</linearGradient>
	<rect x="40.9997" y="17.999" fill="url(#SVGID_1_)" width="2.9999" height="6"/>
	<linearGradient id="SVGID_2_" gradientUnits="userSpaceOnUse" x1="43.906" y1="28.999" x2="40.9919" y2="28.999">
		<stop  offset="0" style="stop-color:#A6A6A6;stop-opacity:0"/>
		<stop  offset="0.1164" style="stop-color:#9D9D9D;stop-opacity:0.0116"/>
		<stop  offset="0.3062" style="stop-color:#858585;stop-opacity:0.0306"/>
		<stop  offset="0.5459" style="stop-color:#5D5D5D;stop-opacity:0.0546"/>
		<stop  offset="0.8233" style="stop-color:#272727;stop-opacity:0.0823"/>
		<stop  offset="1" style="stop-color:#000000;stop-opacity:0.1"/>
	</linearGradient>
	<rect x="40.9997" y="25.999" fill="url(#SVGID_2_)" width="2.9999" height="6"/>
	<linearGradient id="SVGID_3_" gradientUnits="userSpaceOnUse" x1="43.906" y1="36.999" x2="40.9919" y2="36.999">
		<stop  offset="0" style="stop-color:#A6A6A6;stop-opacity:0"/>
		<stop  offset="0.1164" style="stop-color:#9D9D9D;stop-opacity:0.0116"/>
		<stop  offset="0.3062" style="stop-color:#858585;stop-opacity:0.0306"/>
		<stop  offset="0.5459" style="stop-color:#5D5D5D;stop-opacity:0.0546"/>
		<stop  offset="0.8233" style="stop-color:#272727;stop-opacity:0.0823"/>
		<stop  offset="1" style="stop-color:#000000;stop-opacity:0.1"/>
	</linearGradient>
	<rect x="40.9997" y="33.999" fill="url(#SVGID_3_)" width="2.9999" height="6"/>
	<linearGradient id="SVGID_4_" gradientUnits="userSpaceOnUse" x1="34.8139" y1="15.6861" x2="45.6209" y2="4.8791">
		<stop  offset="0" style="stop-color:#FFFFFF;stop-opacity:0"/>
		<stop  offset="0.8537" style="stop-color:#FFFFFF;stop-opacity:0.2134"/>
		<stop  offset="1" style="stop-color:#FFFFFF;stop-opacity:0.25"/>
	</linearGradient>
	<path fill="url(#SVGID_4_)" d="M40,7h3v8.0001L40,15v29H13V4h27V7z M41,3H12v42h29V16.0001L44,16V6h-3V3L41,3z"/>
	<linearGradient id="SVGID_5_" gradientUnits="userSpaceOnUse" x1="17.7538" y1="42.9183" x2="18.1773" y2="38.93">
		<stop  offset="0" style="stop-color:#828282;stop-opacity:0"/>
		<stop  offset="0.1699" style="stop-color:#7E7E7E;stop-opacity:0.0341"/>
		<stop  offset="0.346" style="stop-color:#717171;stop-opacity:0.0694"/>
		<stop  offset="0.5248" style="stop-color:#5D5D5D;stop-opacity:0.1053"/>
		<stop  offset="0.7057" style="stop-color:#404040;stop-opacity:0.1415"/>
		<stop  offset="0.8863" style="stop-color:#1B1B1B;stop-opacity:0.1778"/>
		<stop  offset="0.9972" style="stop-color:#000000;stop-opacity:0.2"/>
	</linearGradient>
	<polygon fill="url(#SVGID_5_)" points="24,43 12,43 12,38.2 24,40 	"/>
	<linearGradient id="SVGID_6_" gradientUnits="userSpaceOnUse" x1="11.0195" y1="3.766" x2="42.3879" y2="43.9157">
		<stop  offset="0" style="stop-color:#FFFFFF;stop-opacity:0"/>
		<stop  offset="0.2264" style="stop-color:#FCFCFC;stop-opacity:0.0226"/>
		<stop  offset="0.3626" style="stop-color:#F4F4F4;stop-opacity:0.0363"/>
		<stop  offset="0.475" style="stop-color:#E6E6E6;stop-opacity:0.0475"/>
		<stop  offset="0.5744" style="stop-color:#D1D1D1;stop-opacity:0.0574"/>
		<stop  offset="0.6652" style="stop-color:#B7B7B7;stop-opacity:0.0665"/>
		<stop  offset="0.7498" style="stop-color:#979797;stop-opacity:0.075"/>
		<stop  offset="0.8297" style="stop-color:#707070;stop-opacity:0.083"/>
		<stop  offset="0.9057" style="stop-color:#444444;stop-opacity:0.0906"/>
		<stop  offset="0.9761" style="stop-color:#121212;stop-opacity:0.0976"/>
		<stop  offset="1" style="stop-color:#000000;stop-opacity:0.1"/>
	</linearGradient>
	<path fill="url(#SVGID_6_)" d="M41,3H12v42h29V16.0001L44,16V6h-3V3L41,3z"/>
	<linearGradient id="SVGID_7_" gradientUnits="userSpaceOnUse" x1="14" y1="39.1875" x2="14" y2="14.7584">
		<stop  offset="0" style="stop-color:#FFFFFF;stop-opacity:0"/>
		<stop  offset="0.8587" style="stop-color:#FFFFFF;stop-opacity:0.1546"/>
		<stop  offset="1" style="stop-color:#FFFFFF;stop-opacity:0.18"/>
	</linearGradient>
	<polygon fill="url(#SVGID_7_)" points="24,14 4,17 4,37 24,40 	"/>
</g>
</svg>
