<svg id="3626260a-81dc-461b-bb51-c088ec97dd34" data-name="ICONS" xmlns="http://www.w3.org/2000/svg" xmlns:xlink="http://www.w3.org/1999/xlink" viewBox="0 0 48 48"><defs><linearGradient id="23fbae4d-a108-4db8-9a24-5dd013008365" x1="43.90603" y1="20.99903" x2="40.99193" y2="20.99903" gradientUnits="userSpaceOnUse"><stop offset="0" stop-color="#a6a6a6" stop-opacity="0"/><stop offset="1" stop-opacity="0.1"/></linearGradient><linearGradient id="f8100a98-1256-42de-93cc-64c2d597a08a" x1="43.90603" y1="28.99903" x2="40.99193" y2="28.99903" xlink:href="#23fbae4d-a108-4db8-9a24-5dd013008365"/><linearGradient id="538ab4c7-fc24-434d-90a9-e6b59e186727" x1="43.90603" y1="36.99903" x2="40.99193" y2="36.99903" xlink:href="#23fbae4d-a108-4db8-9a24-5dd013008365"/><linearGradient id="c1a675c9-4218-45bd-831d-e5689b40297f" x1="34.81394" y1="15.68606" x2="45.62092" y2="4.87908" gradientUnits="userSpaceOnUse"><stop offset="0" stop-color="#fff" stop-opacity="0"/><stop offset="0.44604" stop-color="#fff" stop-opacity="0.00799"/><stop offset="0.63551" stop-color="#fff" stop-opacity="0.03616"/><stop offset="0.77636" stop-color="#fff" stop-opacity="0.08493"/><stop offset="0.8924" stop-color="#fff" stop-opacity="0.15385"/><stop offset="0.99328" stop-color="#fff" stop-opacity="0.24291"/><stop offset="1" stop-color="#fff" stop-opacity="0.25"/></linearGradient><linearGradient id="6390cda6-af39-452c-a41f-ee2b75ae40d3" x1="17.75381" y1="42.91826" x2="18.17734" y2="38.93002" gradientUnits="userSpaceOnUse"><stop offset="0" stop-color="#828282" stop-opacity="0"/><stop offset="0.99719" stop-opacity="0.2"/></linearGradient><linearGradient id="1c8305d8-1f23-4595-9a33-fad526e6849d" x1="11.01955" y1="3.76601" x2="42.38789" y2="43.91566" gradientUnits="userSpaceOnUse"><stop offset="0" stop-color="#fff" stop-opacity="0"/><stop offset="0.86247" stop-color="#5e5e5e" stop-opacity="0.06315"/><stop offset="1" stop-opacity="0.1"/></linearGradient><linearGradient id="d3db9815-daeb-42e2-aa3c-2b4b6487799c" x1="14" y1="39.1875" x2="14" y2="14.75839" gradientUnits="userSpaceOnUse"><stop offset="0" stop-color="#fff" stop-opacity="0"/><stop offset="0.52587" stop-color="#fff" stop-opacity="0.00735"/><stop offset="0.71529" stop-color="#fff" stop-opacity="0.03396"/><stop offset="0.8503" stop-color="#fff" stop-opacity="0.0803"/><stop offset="0.95875" stop-color="#fff" stop-opacity="0.14595"/><stop offset="1" stop-color="#fff" stop-opacity="0.18"/></linearGradient></defs><title>FileTypeIcons_Master_All_NEW</title><rect x="10" y="16" width="3" height="1" rx="0.5" ry="0.5" fill="#949494"/><rect x="9" y="43" width="4" height="1" rx="0.5" ry="0.5" fill="#949494"/><rect x="9" y="40" width="4" height="1" rx="0.5" ry="0.5" fill="#949494"/><polygon points="13 4 40 4 40 7 43 7 43 15 40 15 40 44 13 44 13 4" fill="#fff"/><path d="M40,4V7h3v8l-2,.00012H40V44H13V4H40m1-1H12V45H41V16.00012L44,16V6H41V3Z" fill="#949494"/><rect x="24" y="15" width="9" height="1" fill="#c8c8c8"/><rect x="24" y="18" width="9" height="1" fill="#c8c8c8"/><rect x="24" y="21" width="9" height="1" fill="#c8c8c8"/><polygon points="4 17 24 14 24 40 4 37 4 17" fill="#7719aa"/><path d="M19,33H16.47287l-4.5814-7.53975a10.99615,10.99615,0,0,1-.55814-.99581h-.031q.06177.63624.062,1.94142V33H9V21h2.69767l4.41086,7.30544q.30232.49386.55814.97908h.031a13.82343,13.82343,0,0,1-.062-1.64854V21H19Z" fill="#fff"/><rect x="41" y="18" width="3" height="6" fill="#949494"/><rect x="41" y="26" width="3" height="6" fill="#949494"/><rect x="41" y="34" width="3" height="6" fill="#949494"/><rect x="9" y="4" width="4" height="1" rx="0.5" ry="0.5" fill="#949494"/><rect x="9" y="7" width="4" height="1" rx="0.5" ry="0.5" fill="#949494"/><rect x="9" y="10" width="4" height="1" rx="0.5" ry="0.5" fill="#949494"/><rect x="9" y="13" width="4" height="1" rx="0.5" ry="0.5" fill="#949494"/><rect x="40.99974" y="17.99903" width="2.99992" height="6" fill="url(#23fbae4d-a108-4db8-9a24-5dd013008365)"/><rect x="40.99974" y="25.99903" width="2.99992" height="6" fill="url(#f8100a98-1256-42de-93cc-64c2d597a08a)"/><rect x="40.99974" y="33.99903" width="2.99992" height="6" fill="url(#538ab4c7-fc24-434d-90a9-e6b59e186727)"/><path d="M40,7h3v8.00012L40,15V44H13V4H40Zm1-4H12V45H41V16.00012L44,16V6H41V3Z" fill="url(#c1a675c9-4218-45bd-831d-e5689b40297f)"/><polygon points="24 43 12 43 12 38.2 24 40 24 43" fill="url(#6390cda6-af39-452c-a41f-ee2b75ae40d3)"/><path d="M41,3H12V45H41V16.00012L44,16V6H41V3Z" fill="url(#1c8305d8-1f23-4595-9a33-fad526e6849d)"/><polygon points="24 14 4 17 4 37 24 40 24 14" fill="url(#d3db9815-daeb-42e2-aa3c-2b4b6487799c)"/></svg>