<?xml version="1.0" encoding="utf-8"?>
<!-- Generator: Adobe Illustrator 21.1.0, SVG Export Plug-In . SVG Version: 6.00 Build 0)  -->
<svg version="1.1" xmlns="http://www.w3.org/2000/svg" xmlns:xlink="http://www.w3.org/1999/xlink" x="0px" y="0px"
	 viewBox="0 0 48 48" enable-background="new 0 0 48 48" xml:space="preserve">
<g id="TEMPLATE" display="none">
	<g display="inline">
		<path fill="#D0D0D0" d="M48,0v48H0V0H48 M49-1h-1H0h-1v1v48v1h1h48h1v-1V0V-1L49-1z"/>
	</g>
	<g display="inline" opacity="0.1">
		<path fill="#FF3A6D" d="M45,3v42H3V3H45 M48,0H0v48h48V0L48,0z"/>
	</g>
</g>
<g id="ICONS">
	<g>
		<polygon fill="#FFFFFF" points="39,44 9,44 9,4 30,4 39,13 		"/>
		<path fill="#949494" d="M30.0005,3H8v42h32V13L30.0005,3z M30,4.5l8.5,8.5H30V4.5z M39,44H9V4h20v10h10V44z"/>
	</g>
	<rect x="12" y="17" fill="#C8C8C8" width="24" height="1"/>
	<rect x="12" y="20" fill="#C8C8C8" width="24" height="1"/>
	<rect x="12" y="23" fill="#C8C8C8" width="24" height="1"/>
	<rect x="12" y="7" fill="#C8C8C8" width="8" height="1"/>
	<path fill="#D65532" d="M30,30v9H18v-9H30 M32,28H16v13h16V28L32,28z"/>
	<rect x="34" y="30" fill="#D65532" width="7" height="9"/>
	<rect x="7" y="30" fill="#D65532" width="7" height="9"/>
	<linearGradient id="SVGID_1_" gradientUnits="userSpaceOnUse" x1="4.5867" y1="5.8641" x2="38.4893" y2="46.2676">
		<stop  offset="0" style="stop-color:#FFFFFF;stop-opacity:0"/>
		<stop  offset="0.2264" style="stop-color:#FCFCFC;stop-opacity:0.0226"/>
		<stop  offset="0.3626" style="stop-color:#F4F4F4;stop-opacity:0.0363"/>
		<stop  offset="0.475" style="stop-color:#E6E6E6;stop-opacity:0.0475"/>
		<stop  offset="0.5744" style="stop-color:#D1D1D1;stop-opacity:0.0574"/>
		<stop  offset="0.6652" style="stop-color:#B7B7B7;stop-opacity:0.0665"/>
		<stop  offset="0.7498" style="stop-color:#979797;stop-opacity:0.075"/>
		<stop  offset="0.8297" style="stop-color:#707070;stop-opacity:0.083"/>
		<stop  offset="0.9057" style="stop-color:#444444;stop-opacity:0.0906"/>
		<stop  offset="0.9761" style="stop-color:#121212;stop-opacity:0.0976"/>
		<stop  offset="1" style="stop-color:#000000;stop-opacity:0.1"/>
	</linearGradient>
	<path fill="url(#SVGID_1_)" d="M41,30h-1V13L30,3H8v27H7v9h1v6h32v-6h1V30z"/>
	<linearGradient id="SVGID_2_" gradientUnits="userSpaceOnUse" x1="11" y1="41.7199" x2="11" y2="39.4412">
		<stop  offset="0" style="stop-color:#828282;stop-opacity:0"/>
		<stop  offset="0.1699" style="stop-color:#7E7E7E;stop-opacity:0.017"/>
		<stop  offset="0.346" style="stop-color:#717171;stop-opacity:0.0347"/>
		<stop  offset="0.5248" style="stop-color:#5D5D5D;stop-opacity:0.0526"/>
		<stop  offset="0.7057" style="stop-color:#404040;stop-opacity:0.0708"/>
		<stop  offset="0.8863" style="stop-color:#1B1B1B;stop-opacity:0.0889"/>
		<stop  offset="0.9972" style="stop-color:#000000;stop-opacity:0.1"/>
	</linearGradient>
	<rect x="8" y="39" fill="url(#SVGID_2_)" width="6" height="3"/>
	<linearGradient id="SVGID_3_" gradientUnits="userSpaceOnUse" x1="24" y1="43.7199" x2="24" y2="41.4412">
		<stop  offset="0" style="stop-color:#828282;stop-opacity:0"/>
		<stop  offset="0.1699" style="stop-color:#7E7E7E;stop-opacity:0.017"/>
		<stop  offset="0.346" style="stop-color:#717171;stop-opacity:0.0347"/>
		<stop  offset="0.5248" style="stop-color:#5D5D5D;stop-opacity:0.0526"/>
		<stop  offset="0.7057" style="stop-color:#404040;stop-opacity:0.0708"/>
		<stop  offset="0.8863" style="stop-color:#1B1B1B;stop-opacity:0.0889"/>
		<stop  offset="0.9972" style="stop-color:#000000;stop-opacity:0.1"/>
	</linearGradient>
	<rect x="16" y="41" fill="url(#SVGID_3_)" width="16" height="3"/>
	<linearGradient id="SVGID_4_" gradientUnits="userSpaceOnUse" x1="24" y1="32.7199" x2="24" y2="30.4412">
		<stop  offset="0" style="stop-color:#828282;stop-opacity:0"/>
		<stop  offset="0.1699" style="stop-color:#7E7E7E;stop-opacity:0.017"/>
		<stop  offset="0.346" style="stop-color:#717171;stop-opacity:0.0347"/>
		<stop  offset="0.5248" style="stop-color:#5D5D5D;stop-opacity:0.0526"/>
		<stop  offset="0.7057" style="stop-color:#404040;stop-opacity:0.0708"/>
		<stop  offset="0.8863" style="stop-color:#1B1B1B;stop-opacity:0.0889"/>
		<stop  offset="0.9972" style="stop-color:#000000;stop-opacity:0.1"/>
	</linearGradient>
	<rect x="18" y="30" fill="url(#SVGID_4_)" width="12" height="3"/>
	<linearGradient id="SVGID_5_" gradientUnits="userSpaceOnUse" x1="37" y1="41.7199" x2="37" y2="39.4412">
		<stop  offset="0" style="stop-color:#828282;stop-opacity:0"/>
		<stop  offset="0.1699" style="stop-color:#7E7E7E;stop-opacity:0.017"/>
		<stop  offset="0.346" style="stop-color:#717171;stop-opacity:0.0347"/>
		<stop  offset="0.5248" style="stop-color:#5D5D5D;stop-opacity:0.0526"/>
		<stop  offset="0.7057" style="stop-color:#404040;stop-opacity:0.0708"/>
		<stop  offset="0.8863" style="stop-color:#1B1B1B;stop-opacity:0.0889"/>
		<stop  offset="0.9972" style="stop-color:#000000;stop-opacity:0.1"/>
	</linearGradient>
	<rect x="34" y="39" fill="url(#SVGID_5_)" width="6" height="3"/>
	<linearGradient id="SVGID_6_" gradientUnits="userSpaceOnUse" x1="34" y1="16.9063" x2="34" y2="14.0875">
		<stop  offset="0" style="stop-color:#828282;stop-opacity:0"/>
		<stop  offset="0.2812" style="stop-color:#7F7F7F;stop-opacity:0.0281"/>
		<stop  offset="0.4503" style="stop-color:#777777;stop-opacity:0.045"/>
		<stop  offset="0.5899" style="stop-color:#696969;stop-opacity:0.059"/>
		<stop  offset="0.7133" style="stop-color:#545454;stop-opacity:0.0713"/>
		<stop  offset="0.8259" style="stop-color:#3A3A3A;stop-opacity:0.0826"/>
		<stop  offset="0.9294" style="stop-color:#1A1A1A;stop-opacity:0.0929"/>
		<stop  offset="1" style="stop-color:#000000;stop-opacity:0.1"/>
	</linearGradient>
	<rect x="29" y="14" fill="url(#SVGID_6_)" width="10" height="3"/>
	<linearGradient id="SVGID_7_" gradientUnits="userSpaceOnUse" x1="10.5" y1="34.5331" x2="10.5" y2="30.7353">
		<stop  offset="0" style="stop-color:#FFFFFF;stop-opacity:0"/>
		<stop  offset="1" style="stop-color:#FFFFFF;stop-opacity:0.15"/>
	</linearGradient>
	<rect x="7" y="30" fill="url(#SVGID_7_)" width="7" height="5"/>
	<linearGradient id="SVGID_8_" gradientUnits="userSpaceOnUse" x1="37.5" y1="34.5331" x2="37.5" y2="30.7353">
		<stop  offset="0" style="stop-color:#FFFFFF;stop-opacity:0"/>
		<stop  offset="1" style="stop-color:#FFFFFF;stop-opacity:0.15"/>
	</linearGradient>
	<rect x="34" y="30" fill="url(#SVGID_8_)" width="7" height="5"/>
	<linearGradient id="SVGID_9_" gradientUnits="userSpaceOnUse" x1="24" y1="40.8132" x2="24" y2="39.2941">
		<stop  offset="0" style="stop-color:#FFFFFF;stop-opacity:0"/>
		<stop  offset="1" style="stop-color:#FFFFFF;stop-opacity:0.15"/>
	</linearGradient>
	<rect x="18" y="39" fill="url(#SVGID_9_)" width="12" height="2"/>
	<linearGradient id="SVGID_10_" gradientUnits="userSpaceOnUse" x1="24" y1="34.3463" x2="24" y2="29.0294">
		<stop  offset="0" style="stop-color:#FFFFFF;stop-opacity:0"/>
		<stop  offset="1" style="stop-color:#FFFFFF;stop-opacity:0.15"/>
	</linearGradient>
	<polygon fill="url(#SVGID_10_)" points="32,35 30,35 30,30 18,30 18,35 16,35 16,28 32,28 	"/>
	<linearGradient id="SVGID_11_" gradientUnits="userSpaceOnUse" x1="27.27" y1="12.23" x2="33.2361" y2="6.2639">
		<stop  offset="0" style="stop-color:#FFFFFF;stop-opacity:0"/>
		<stop  offset="0.8537" style="stop-color:#FFFFFF;stop-opacity:0.2134"/>
		<stop  offset="1" style="stop-color:#FFFFFF;stop-opacity:0.25"/>
	</linearGradient>
	<polygon fill="url(#SVGID_11_)" points="8,3 8,4 29,4 29,14 39,14 39,28 40,28 40,13 30,3 	"/>
</g>
</svg>
