<svg id="f3b25f5e-b4bd-4d35-9e3a-25b00210a929" data-name="ICONS" xmlns="http://www.w3.org/2000/svg" xmlns:xlink="http://www.w3.org/1999/xlink" viewBox="0 0 48 48"><defs><linearGradient id="9548a2b1-35ff-4337-ab8c-395b00f126a9" x1="4.58668" y1="5.86411" x2="38.48928" y2="46.26765" gradientUnits="userSpaceOnUse"><stop offset="0" stop-color="#fff" stop-opacity="0"/><stop offset="0.86247" stop-color="#5e5e5e" stop-opacity="0.06315"/><stop offset="1" stop-opacity="0.1"/></linearGradient><linearGradient id="34b9c7c3-9dcd-45b5-bc59-73b8d4f90dba" x1="11" y1="41.71985" x2="11" y2="39.44118" gradientUnits="userSpaceOnUse"><stop offset="0" stop-color="#828282" stop-opacity="0"/><stop offset="0.99719" stop-opacity="0.1"/></linearGradient><linearGradient id="81cc5510-d180-4462-b80a-d34c87f3ac49" x1="24" y1="43.71985" x2="24" y2="41.44118" xlink:href="#34b9c7c3-9dcd-45b5-bc59-73b8d4f90dba"/><linearGradient id="3e040e72-589f-40b8-9c17-5252122431cf" x1="24" y1="32.71985" x2="24" y2="30.44118" xlink:href="#34b9c7c3-9dcd-45b5-bc59-73b8d4f90dba"/><linearGradient id="e87eccf6-96f9-482f-b289-41c473fc884e" x1="37" y1="41.71985" x2="37" y2="39.44118" xlink:href="#34b9c7c3-9dcd-45b5-bc59-73b8d4f90dba"/><linearGradient id="1e642463-cf4f-4290-adbf-2d5236b9b3b9" x1="34" y1="16.90625" x2="34" y2="14.08751" gradientUnits="userSpaceOnUse"><stop offset="0" stop-color="#828282" stop-opacity="0"/><stop offset="0.86247" stop-color="#303030" stop-opacity="0.06315"/><stop offset="1" stop-opacity="0.1"/></linearGradient><linearGradient id="36a67eaf-dfea-4c51-b585-5752c43af4e3" x1="10.5" y1="34.53309" x2="10.5" y2="30.73529" gradientUnits="userSpaceOnUse"><stop offset="0" stop-color="#fff" stop-opacity="0"/><stop offset="0.34281" stop-color="#fff" stop-opacity="0.03509"/><stop offset="0.90031" stop-color="#fff" stop-opacity="0.13008"/><stop offset="1" stop-color="#fff" stop-opacity="0.15"/></linearGradient><linearGradient id="d8840b41-14c5-466c-a279-d3b50b3152b0" x1="37.5" y1="34.53309" x2="37.5" y2="30.73529" xlink:href="#36a67eaf-dfea-4c51-b585-5752c43af4e3"/><linearGradient id="e3051840-ced3-4e0d-bd95-6e69f4e984e9" x1="24" y1="40.81324" x2="24" y2="39.29412" xlink:href="#36a67eaf-dfea-4c51-b585-5752c43af4e3"/><linearGradient id="5cd6d6cd-6e58-422c-b1e2-fabc5af36df9" x1="24" y1="34.34632" x2="24" y2="29.02941" xlink:href="#36a67eaf-dfea-4c51-b585-5752c43af4e3"/><linearGradient id="eee7c9e1-17ec-45a4-9790-c9006293e7aa" x1="27.27" y1="12.23" x2="33.23606" y2="6.26394" gradientUnits="userSpaceOnUse"><stop offset="0" stop-color="#fff" stop-opacity="0"/><stop offset="0.44604" stop-color="#fff" stop-opacity="0.00799"/><stop offset="0.63551" stop-color="#fff" stop-opacity="0.03616"/><stop offset="0.77636" stop-color="#fff" stop-opacity="0.08493"/><stop offset="0.8924" stop-color="#fff" stop-opacity="0.15385"/><stop offset="0.99328" stop-color="#fff" stop-opacity="0.24291"/><stop offset="1" stop-color="#fff" stop-opacity="0.25"/></linearGradient></defs><title>FileTypeIcons_Master_All_NEW</title><polygon points="39 44 9 44 9 4 30 4 39 13 39 44" fill="#fff"/><path d="M30.00049,3H8V45H40V13ZM30,4.5,38.5,13H30ZM39,44H9V4H29V14H39Z" fill="#949494"/><rect x="12" y="17" width="24" height="1" fill="#c8c8c8"/><rect x="12" y="20" width="24" height="1" fill="#c8c8c8"/><rect x="12" y="23" width="24" height="1" fill="#c8c8c8"/><rect x="12" y="7" width="8" height="1" fill="#c8c8c8"/><path d="M30,30v9H18V30H30m2-2H16V41H32V28Z" fill="#d65532"/><rect x="34" y="30" width="7" height="9" fill="#d65532"/><rect x="7" y="30" width="7" height="9" fill="#d65532"/><path d="M41,30H40V13L30,3H8V30H7v9H8v6H40V39h1Z" fill="url(#9548a2b1-35ff-4337-ab8c-395b00f126a9)"/><rect x="8" y="39" width="6" height="3" fill="url(#34b9c7c3-9dcd-45b5-bc59-73b8d4f90dba)"/><rect x="16" y="41" width="16" height="3" fill="url(#81cc5510-d180-4462-b80a-d34c87f3ac49)"/><rect x="18" y="30" width="12" height="3" fill="url(#3e040e72-589f-40b8-9c17-5252122431cf)"/><rect x="34" y="39" width="6" height="3" fill="url(#e87eccf6-96f9-482f-b289-41c473fc884e)"/><rect x="29" y="14" width="10" height="3" fill="url(#1e642463-cf4f-4290-adbf-2d5236b9b3b9)"/><rect x="7" y="30" width="7" height="5" fill="url(#36a67eaf-dfea-4c51-b585-5752c43af4e3)"/><rect x="34" y="30" width="7" height="5" fill="url(#d8840b41-14c5-466c-a279-d3b50b3152b0)"/><rect x="18" y="39" width="12" height="2" fill="url(#e3051840-ced3-4e0d-bd95-6e69f4e984e9)"/><polygon points="32 35 30 35 30 30 18 30 18 35 16 35 16 28 32 28 32 35" fill="url(#5cd6d6cd-6e58-422c-b1e2-fabc5af36df9)"/><polygon points="8 3 8 4 29 4 29 14 39 14 39 28 40 28 40 13 30 3 8 3" fill="url(#eee7c9e1-17ec-45a4-9790-c9006293e7aa)"/></svg>