<svg id="e4ff5297-ff88-49fe-bbfb-da4e1e319845" data-name="ICONS" xmlns="http://www.w3.org/2000/svg" xmlns:xlink="http://www.w3.org/1999/xlink" viewBox="0 0 48 48"><defs><linearGradient id="17270325-de34-4c08-9e4a-5ce2aa819229" x1="7.93725" y1="4.85716" x2="40.06275" y2="43.14284" gradientUnits="userSpaceOnUse"><stop offset="0" stop-color="#fff" stop-opacity="0"/><stop offset="0.86247" stop-color="#5e5e5e" stop-opacity="0.06315"/><stop offset="1" stop-opacity="0.1"/></linearGradient><linearGradient id="33c85875-618a-41a7-b8a6-cb51e8546ee3" x1="22.85417" y1="25.08966" x2="42.61458" y2="6.2979" gradientUnits="userSpaceOnUse"><stop offset="0" stop-color="#fff" stop-opacity="0"/><stop offset="0.44604" stop-color="#fff" stop-opacity="0.00799"/><stop offset="0.63551" stop-color="#fff" stop-opacity="0.03616"/><stop offset="0.77636" stop-color="#fff" stop-opacity="0.08493"/><stop offset="0.8924" stop-color="#fff" stop-opacity="0.15385"/><stop offset="0.99328" stop-color="#fff" stop-opacity="0.24291"/><stop offset="1" stop-color="#fff" stop-opacity="0.25"/></linearGradient></defs><title>FileTypeIcons_Master_All_NEW</title><rect x="4" y="10" width="40" height="28" fill="#fff"/><polygon points="44 35.707 44 34.293 31.5 21.793 25.5 27.793 14.5 16.793 4 27.293 4 28.707 14.5 18.207 24.793 28.5 25.5 29.207 34.293 38 35.707 38 26.207 28.5 31.5 23.207 44 35.707" fill="#7dbab2"/><path d="M37,14a3,3,0,1,0,3,3A3.00007,3.00007,0,0,0,37,14Zm0,5a2,2,0,1,1,2-2A2.00213,2.00213,0,0,1,37,19Z" fill="#f5ba9d"/><path d="M3,9V39H45V9ZM44,38H4V10H44Z" fill="#949494"/><rect x="3" y="9" width="42" height="30" fill="url(#17270325-de34-4c08-9e4a-5ce2aa819229)"/><polygon points="45 9 3 9 3 10 44 10 44 39 45 39 45 9" fill="url(#33c85875-618a-41a7-b8a6-cb51e8546ee3)"/></svg>