<?xml version="1.0" encoding="utf-8"?>
<!-- Generator: Adobe Illustrator 21.1.0, SVG Export Plug-In . SVG Version: 6.00 Build 0)  -->
<svg version="1.1" xmlns="http://www.w3.org/2000/svg" xmlns:xlink="http://www.w3.org/1999/xlink" x="0px" y="0px"
	 viewBox="0 0 48 48" enable-background="new 0 0 48 48" xml:space="preserve">
<g id="TEMPLATE" display="none">
	<g display="inline">
		<path fill="#D0D0D0" d="M48,0v48H0V0H48 M49-1h-1H0h-1v1v48v1h1h48h1v-1V0V-1L49-1z"/>
	</g>
	<g display="inline" opacity="0.1">
		<path fill="#FF3A6D" d="M45,3v42H3V3H45 M48,0H0v48h48V0L48,0z"/>
	</g>
</g>
<g id="ICONS">
	<g>
		<path fill="#949494" d="M37,20c1.6567,0,3-1.3433,3-3s-1.3433-3-3-3s-3,1.3433-3,3S35.3433,20,37,20z M37,15c1.103,0,2,0.8975,2,2
			s-0.897,2-2,2s-2-0.8975-2-2S35.897,15,37,15z"/>
		<path fill="#949494" d="M3,9v1v29h41h1V9H3z M4,38v-9.293l10.5-10.5L24.793,28.5l0.707,0.707L34.293,38H4z M44,38h-8.293l-9.5-9.5
			l5.293-5.293l12.5,12.5V38z M44,34.293l-12.5-12.5l-6,6l-11-11L4,27.293V10h40V34.293z"/>
	</g>
</g>
</svg>
