<svg id="d3bd5537-f7a1-4694-847f-987da9e658cc" data-name="ICONS" xmlns="http://www.w3.org/2000/svg" xmlns:xlink="http://www.w3.org/1999/xlink" viewBox="0 0 48 48"><defs><linearGradient id="a4d90680-f3b2-4e86-94c4-e13c8d2b4d6e" x1="14" y1="39.1875" x2="14" y2="14.75839" gradientUnits="userSpaceOnUse"><stop offset="0" stop-color="#fff" stop-opacity="0"/><stop offset="0.52587" stop-color="#fff" stop-opacity="0.00735"/><stop offset="0.71529" stop-color="#fff" stop-opacity="0.03396"/><stop offset="0.8503" stop-color="#fff" stop-opacity="0.0803"/><stop offset="0.95875" stop-color="#fff" stop-opacity="0.14595"/><stop offset="1" stop-color="#fff" stop-opacity="0.18"/></linearGradient><linearGradient id="50d6ff5d-dc9c-4de8-871d-6903f1d0b067" x1="17.75381" y1="42.91826" x2="18.17734" y2="38.93002" gradientUnits="userSpaceOnUse"><stop offset="0" stop-color="#828282" stop-opacity="0"/><stop offset="0.99719" stop-opacity="0.2"/></linearGradient><linearGradient id="6afdc0c4-b0d5-45e2-a1bc-036c6a0cc6c3" x1="12.99899" y1="8.2195" x2="40.00101" y2="42.7805" gradientUnits="userSpaceOnUse"><stop offset="0" stop-color="#fff" stop-opacity="0"/><stop offset="0.86247" stop-color="#5e5e5e" stop-opacity="0.06315"/><stop offset="1" stop-opacity="0.1"/></linearGradient><linearGradient id="b0730fc4-370d-49f7-8f8a-58dd3884df88" x1="23.42827" y1="18.72854" x2="43.9713" y2="45.02242" xlink:href="#6afdc0c4-b0d5-45e2-a1bc-036c6a0cc6c3"/><linearGradient id="678af977-0270-4cc8-a551-04e83540197c" x1="28" y1="44.90625" x2="28" y2="42.08751" gradientUnits="userSpaceOnUse"><stop offset="0" stop-color="#828282" stop-opacity="0"/><stop offset="0.86247" stop-color="#303030" stop-opacity="0.06315"/><stop offset="1" stop-opacity="0.1"/></linearGradient><linearGradient id="d3cf7aa2-70f3-418a-8e17-496c782038c2" x1="27.83875" y1="8.57677" x2="28.1656" y2="2.34018" gradientUnits="userSpaceOnUse"><stop offset="0" stop-color="#fff" stop-opacity="0"/><stop offset="0.44604" stop-color="#fff" stop-opacity="0.00799"/><stop offset="0.63551" stop-color="#fff" stop-opacity="0.03616"/><stop offset="0.77636" stop-color="#fff" stop-opacity="0.08493"/><stop offset="0.8924" stop-color="#fff" stop-opacity="0.15385"/><stop offset="0.99328" stop-color="#fff" stop-opacity="0.24291"/><stop offset="1" stop-color="#fff" stop-opacity="0.25"/></linearGradient></defs><title>FileTypeIcons_Master_All_NEW</title><polygon points="41 5 41 3 12 3 12 42 15 42 15 45 44 45 44 6 41 5" fill="#fff"/><polygon points="41 3 12 3 12 9 13 9 41 9 41 5 44 8 44 6 41 3" fill="#b7472a"/><polygon points="43 7 43 44 16 44 16 42 41 42 41 9 40 9 40 41 16 41 15 41 13 41 13 9 12 9 12 42 15 42 15 45 44 45 44 8 43 7" fill="#949494"/><path d="M28,12a7,7,0,0,1,7,7H28Z" fill="#f5ba9d"/><path d="M35,20a8,8,0,1,1-8-8v8Z" fill="#c8c8c8"/><rect x="24" y="34" width="13" height="1" fill="#c8c8c8"/><rect x="24" y="31" width="13" height="1" fill="#c8c8c8"/><rect x="24" y="37" width="13" height="1" fill="#c8c8c8"/><polygon points="4 17 24 14 24 40 4 37 4 17" fill="#b7472a"/><path d="M12.77385,28.86611V33H10V21h4.34542Q18.99972,21,19,24.82427A3.62976,3.62976,0,0,1,17.6646,27.749a5.38242,5.38242,0,0,1-3.56823,1.11716Zm0-5.7908V26.8159H13.8645q2.21565,0,2.21565-1.89121,0-1.84911-2.21565-1.84938Z" fill="#fff"/><polygon points="24 14 4 17 4 37 24 40 24 14" fill="url(#a4d90680-f3b2-4e86-94c4-e13c8d2b4d6e)"/><polygon points="24 43 12 43 12 38.2 24 40 24 43" fill="url(#50d6ff5d-dc9c-4de8-871d-6903f1d0b067)"/><rect x="12" y="9" width="29" height="33" fill="url(#6afdc0c4-b0d5-45e2-a1bc-036c6a0cc6c3)"/><polygon points="41 5 41 42 16 42 15 42 15 45 44 45 44 8 41 5" fill="url(#b0730fc4-370d-49f7-8f8a-58dd3884df88)"/><rect x="15" y="42" width="26" height="3" fill="url(#678af977-0270-4cc8-a551-04e83540197c)"/><polygon points="41 3 12 3 12 9 13 9 41 9 41 5 44 8 44 6 41 3" fill="url(#d3cf7aa2-70f3-418a-8e17-496c782038c2)"/></svg>