<?xml version="1.0" encoding="utf-8"?>
<!-- Generator: Adobe Illustrator 21.1.0, SVG Export Plug-In . SVG Version: 6.00 Build 0)  -->
<svg version="1.1" xmlns="http://www.w3.org/2000/svg" xmlns:xlink="http://www.w3.org/1999/xlink" x="0px" y="0px"
	 viewBox="0 0 48 48" enable-background="new 0 0 48 48" xml:space="preserve">
<g id="TEMPLATE" display="none">
	<g display="inline">
		<path fill="#D0D0D0" d="M48,0v48H0V0H48 M49-1h-1H0h-1v1v48v1h1h48h1v-1V0V-1L49-1z"/>
	</g>
	<g display="inline" opacity="0.1">
		<path fill="#FF3A6D" d="M45,3v42H3V3H45 M48,0H0v48h48V0L48,0z"/>
	</g>
</g>
<g id="ICONS">
	<polygon fill="#FFFFFF" points="41,5 41,3 12,3 12,42 15,42 15,45 44,45 44,6 	"/>
	<polygon fill="#B7472A" points="41,3 12,3 12,9 13,9 41,9 41,5 44,8 44,6 	"/>
	<polygon fill="#949494" points="43,7 43,44 16,44 16,42 41,42 41,9 40,9 40,41 16,41 15,41 13,41 13,9 12,9 12,42 15,42 15,45 
		44,45 44,8 	"/>
	<path fill="#F5BA9D" d="M28,12c3.866,0,7,3.134,7,7h-7V12z"/>
	<path fill="#C8C8C8" d="M35,20c0,4.4183-3.5817,8-8,8s-8-3.5817-8-8s3.5817-8,8-8v8H35z"/>
	<rect x="24" y="34" fill="#C8C8C8" width="13" height="1"/>
	<rect x="24" y="31" fill="#C8C8C8" width="13" height="1"/>
	<rect x="24" y="37" fill="#C8C8C8" width="13" height="1"/>
	<polygon fill="#B7472A" points="4,17 24,14 24,40 4,37 	"/>
	<g>
		<path fill="#FFFFFF" d="M12.7739,28.8661V33H10V21h4.3454C17.4483,21,19,22.2751,19,24.8243c0,1.205-0.4452,2.1799-1.3354,2.9247
			c-0.8904,0.7448-2.0799,1.1172-3.5682,1.1172H12.7739z M12.7739,23.0753v3.7406h1.0906c1.4771,0,2.2156-0.6302,2.2156-1.8912
			c0-1.2327-0.7385-1.8494-2.2156-1.8494H12.7739z"/>
	</g>
	<linearGradient id="SVGID_1_" gradientUnits="userSpaceOnUse" x1="14" y1="39.1875" x2="14" y2="14.7584">
		<stop  offset="0" style="stop-color:#FFFFFF;stop-opacity:0"/>
		<stop  offset="0.8587" style="stop-color:#FFFFFF;stop-opacity:0.1546"/>
		<stop  offset="1" style="stop-color:#FFFFFF;stop-opacity:0.18"/>
	</linearGradient>
	<polygon fill="url(#SVGID_1_)" points="24,14 4,17 4,37 24,40 	"/>
	<linearGradient id="SVGID_2_" gradientUnits="userSpaceOnUse" x1="17.7538" y1="42.9183" x2="18.1773" y2="38.93">
		<stop  offset="0" style="stop-color:#828282;stop-opacity:0"/>
		<stop  offset="0.1699" style="stop-color:#7E7E7E;stop-opacity:0.0341"/>
		<stop  offset="0.346" style="stop-color:#717171;stop-opacity:0.0694"/>
		<stop  offset="0.5248" style="stop-color:#5D5D5D;stop-opacity:0.1053"/>
		<stop  offset="0.7057" style="stop-color:#404040;stop-opacity:0.1415"/>
		<stop  offset="0.8863" style="stop-color:#1B1B1B;stop-opacity:0.1778"/>
		<stop  offset="0.9972" style="stop-color:#000000;stop-opacity:0.2"/>
	</linearGradient>
	<polygon fill="url(#SVGID_2_)" points="24,43 12,43 12,38.2 24,40 	"/>
	<linearGradient id="SVGID_3_" gradientUnits="userSpaceOnUse" x1="12.999" y1="8.2195" x2="40.001" y2="42.7805">
		<stop  offset="0" style="stop-color:#FFFFFF;stop-opacity:0"/>
		<stop  offset="0.2264" style="stop-color:#FCFCFC;stop-opacity:0.0226"/>
		<stop  offset="0.3626" style="stop-color:#F4F4F4;stop-opacity:0.0363"/>
		<stop  offset="0.475" style="stop-color:#E6E6E6;stop-opacity:0.0475"/>
		<stop  offset="0.5744" style="stop-color:#D1D1D1;stop-opacity:0.0574"/>
		<stop  offset="0.6652" style="stop-color:#B7B7B7;stop-opacity:0.0665"/>
		<stop  offset="0.7498" style="stop-color:#979797;stop-opacity:0.075"/>
		<stop  offset="0.8297" style="stop-color:#707070;stop-opacity:0.083"/>
		<stop  offset="0.9057" style="stop-color:#444444;stop-opacity:0.0906"/>
		<stop  offset="0.9761" style="stop-color:#121212;stop-opacity:0.0976"/>
		<stop  offset="1" style="stop-color:#000000;stop-opacity:0.1"/>
	</linearGradient>
	<rect x="12" y="9" fill="url(#SVGID_3_)" width="29" height="33"/>
	<linearGradient id="SVGID_4_" gradientUnits="userSpaceOnUse" x1="23.4283" y1="18.7285" x2="43.9713" y2="45.0224">
		<stop  offset="0" style="stop-color:#FFFFFF;stop-opacity:0"/>
		<stop  offset="0.2264" style="stop-color:#FCFCFC;stop-opacity:0.0226"/>
		<stop  offset="0.3626" style="stop-color:#F4F4F4;stop-opacity:0.0363"/>
		<stop  offset="0.475" style="stop-color:#E6E6E6;stop-opacity:0.0475"/>
		<stop  offset="0.5744" style="stop-color:#D1D1D1;stop-opacity:0.0574"/>
		<stop  offset="0.6652" style="stop-color:#B7B7B7;stop-opacity:0.0665"/>
		<stop  offset="0.7498" style="stop-color:#979797;stop-opacity:0.075"/>
		<stop  offset="0.8297" style="stop-color:#707070;stop-opacity:0.083"/>
		<stop  offset="0.9057" style="stop-color:#444444;stop-opacity:0.0906"/>
		<stop  offset="0.9761" style="stop-color:#121212;stop-opacity:0.0976"/>
		<stop  offset="1" style="stop-color:#000000;stop-opacity:0.1"/>
	</linearGradient>
	<polygon fill="url(#SVGID_4_)" points="41,5 41,42 16,42 15,42 15,45 44,45 44,8 	"/>
	<linearGradient id="SVGID_5_" gradientUnits="userSpaceOnUse" x1="28" y1="44.9063" x2="28" y2="42.0875">
		<stop  offset="0" style="stop-color:#828282;stop-opacity:0"/>
		<stop  offset="0.2812" style="stop-color:#7F7F7F;stop-opacity:0.0281"/>
		<stop  offset="0.4503" style="stop-color:#777777;stop-opacity:0.045"/>
		<stop  offset="0.5899" style="stop-color:#696969;stop-opacity:0.059"/>
		<stop  offset="0.7133" style="stop-color:#545454;stop-opacity:0.0713"/>
		<stop  offset="0.8259" style="stop-color:#3A3A3A;stop-opacity:0.0826"/>
		<stop  offset="0.9294" style="stop-color:#1A1A1A;stop-opacity:0.0929"/>
		<stop  offset="1" style="stop-color:#000000;stop-opacity:0.1"/>
	</linearGradient>
	<rect x="15" y="42" fill="url(#SVGID_5_)" width="26" height="3"/>
	<linearGradient id="SVGID_6_" gradientUnits="userSpaceOnUse" x1="27.8388" y1="8.5768" x2="28.1656" y2="2.3402">
		<stop  offset="0" style="stop-color:#FFFFFF;stop-opacity:0"/>
		<stop  offset="0.8537" style="stop-color:#FFFFFF;stop-opacity:0.2134"/>
		<stop  offset="1" style="stop-color:#FFFFFF;stop-opacity:0.25"/>
	</linearGradient>
	<polygon fill="url(#SVGID_6_)" points="41,3 12,3 12,9 13,9 41,9 41,5 44,8 44,6 	"/>
</g>
</svg>
