<svg id="4db648ed-2747-4057-8b80-c0879b96b143" data-name="ICONS" xmlns="http://www.w3.org/2000/svg" xmlns:xlink="http://www.w3.org/1999/xlink" viewBox="0 0 48 48"><defs><linearGradient id="ab76733c-eeec-4cf9-97a7-23abcd7393f1" x1="38" y1="16.90625" x2="38" y2="14.08751" gradientUnits="userSpaceOnUse"><stop offset="0" stop-color="#828282" stop-opacity="0"/><stop offset="0.86247" stop-color="#303030" stop-opacity="0.06315"/><stop offset="1" stop-opacity="0.1"/></linearGradient><linearGradient id="ef319fcc-00e8-4bbb-832e-e39baa44d073" x1="31.27" y1="12.23" x2="37.23606" y2="6.26394" gradientUnits="userSpaceOnUse"><stop offset="0" stop-color="#fff" stop-opacity="0"/><stop offset="0.44604" stop-color="#fff" stop-opacity="0.00799"/><stop offset="0.63551" stop-color="#fff" stop-opacity="0.03616"/><stop offset="0.77636" stop-color="#fff" stop-opacity="0.08493"/><stop offset="0.8924" stop-color="#fff" stop-opacity="0.15385"/><stop offset="0.99328" stop-color="#fff" stop-opacity="0.24291"/><stop offset="1" stop-color="#fff" stop-opacity="0.25"/></linearGradient><linearGradient id="b1e68834-1b19-4e76-b0b6-a48dd8173d37" x1="8.20076" y1="3.71801" x2="41.79794" y2="46.72044" gradientUnits="userSpaceOnUse"><stop offset="0" stop-color="#fff" stop-opacity="0"/><stop offset="0.86247" stop-color="#5e5e5e" stop-opacity="0.06315"/><stop offset="1" stop-opacity="0.1"/></linearGradient></defs><title>FileTypeIcons_Master_All_NEW</title><polygon points="34 3 12 3 12 7 5 7 4 7 4 8 5 8 5 26 13 26 13 29 10 29 10 30 13 30 13 33 8 38 8 40 12 36 12 45 14 45 14 44 17 44 17 45 44 45 44 13 34 3" fill="#fff"/><path d="M44,13,34.00049,3H12V7h1V4H33V14H43V44H17v1H44ZM34,13V4.5L42.5,13Z" fill="#949494"/><rect x="5.5" y="7.5" width="23" height="18" fill="#fff"/><path d="M28,8V25H6V8H28m1-1H5V26H29V7Z" fill="gray"/><rect x="4" y="7" width="26" height="1" fill="gray"/><rect x="16" y="25" width="1" height="5" fill="gray"/><rect x="8" y="11" width="2" height="11" fill="#c8c8c8"/><rect x="12" y="13" width="2" height="9" fill="#f5ba9d"/><rect x="16" y="15" width="2" height="7" fill="#c8c8c8"/><rect x="20" y="17" width="2" height="5" fill="#f5ba9d"/><rect x="24" y="19" width="2" height="3" fill="#c8c8c8"/><polygon points="18 38 13 33 8 38 8 40 12 36 12 45 14 45 14 36 18 40 18 38" fill="#d04727"/><rect x="10" y="29" width="13" height="1" fill="gray"/><rect x="33" y="14" width="10" height="3" fill="url(#ab76733c-eeec-4cf9-97a7-23abcd7393f1)"/><polygon points="12 3 12 4 33 4 33 14 43 14 43 28 44 28 44 13 34 3 12 3" fill="url(#ef319fcc-00e8-4bbb-832e-e39baa44d073)"/><polygon points="34 3 12 3 12 7 5 7 4 7 4 8 5 8 5 26 13 26 13 29 10 29 10 30 13 30 13 33 8 38 8 40 12 36 12 45 14 45 14 44 17 44 17 45 44 45 44 13 34 3" fill="url(#b1e68834-1b19-4e76-b0b6-a48dd8173d37)"/></svg>