<svg id="a9b6ea2c-86f1-44bc-bc73-88dad08d1782" data-name="ICONS" xmlns="http://www.w3.org/2000/svg" xmlns:xlink="http://www.w3.org/1999/xlink" viewBox="0 0 48 48"><defs><linearGradient id="b6260578-a13c-4716-bf4d-32fcbb1194cf" x1="8.58668" y1="5.86411" x2="42.48928" y2="46.26765" gradientUnits="userSpaceOnUse"><stop offset="0" stop-color="#fff" stop-opacity="0"/><stop offset="0.86247" stop-color="#5e5e5e" stop-opacity="0.06315"/><stop offset="1" stop-opacity="0.1"/></linearGradient><linearGradient id="37d55d52-03ce-4852-a034-6aa2cf15c975" x1="38" y1="16.90625" x2="38" y2="14.08751" gradientUnits="userSpaceOnUse"><stop offset="0" stop-color="#828282" stop-opacity="0"/><stop offset="0.86247" stop-color="#303030" stop-opacity="0.06315"/><stop offset="1" stop-opacity="0.1"/></linearGradient><linearGradient id="fe261d07-1dbf-4bce-80d0-563029b99394" x1="31.27" y1="12.23" x2="37.23606" y2="6.26394" gradientUnits="userSpaceOnUse"><stop offset="0" stop-color="#fff" stop-opacity="0"/><stop offset="0.44604" stop-color="#fff" stop-opacity="0.00799"/><stop offset="0.63551" stop-color="#fff" stop-opacity="0.03616"/><stop offset="0.77636" stop-color="#fff" stop-opacity="0.08493"/><stop offset="0.8924" stop-color="#fff" stop-opacity="0.15385"/><stop offset="0.99328" stop-color="#fff" stop-opacity="0.24291"/><stop offset="1" stop-color="#fff" stop-opacity="0.25"/></linearGradient><linearGradient id="a8cf5f52-dfed-44c2-ac5a-3f58ae42b367" x1="17.75381" y1="42.91826" x2="18.17734" y2="38.93002" gradientUnits="userSpaceOnUse"><stop offset="0" stop-color="#828282" stop-opacity="0"/><stop offset="0.99719" stop-opacity="0.2"/></linearGradient><linearGradient id="f8a89af7-bbae-49d1-85e4-a5a9802ab109" x1="14" y1="39.1875" x2="14" y2="14.75839" gradientUnits="userSpaceOnUse"><stop offset="0" stop-color="#fff" stop-opacity="0"/><stop offset="0.52587" stop-color="#fff" stop-opacity="0.00735"/><stop offset="0.71529" stop-color="#fff" stop-opacity="0.03396"/><stop offset="0.8503" stop-color="#fff" stop-opacity="0.0803"/><stop offset="0.95875" stop-color="#fff" stop-opacity="0.14595"/><stop offset="1" stop-color="#fff" stop-opacity="0.18"/></linearGradient></defs><title>FileTypeIcons_Master_All_NEW</title><polygon points="43 44 13 44 13 4 34 4 43 13 43 44" fill="#fff"/><path d="M29,10a8,8,0,0,1,8,8H29Z" fill="#f5ba9d"/><path d="M34.00049,3H12V45H44V13ZM34,4.5,42.5,13H34ZM43,44H13V4H33V14H43Z" fill="#949494"/><path d="M37,19a9,9,0,1,1-9-9v9Z" fill="#c8c8c8"/><rect x="24" y="35" width="16" height="1" fill="#c8c8c8"/><rect x="24" y="32" width="16" height="1" fill="#c8c8c8"/><rect x="24" y="38" width="16" height="1" fill="#c8c8c8"/><polygon points="4 17 24 14 24 40 4 37 4 17" fill="#b7472a"/><path d="M12.77385,28.86611V33H10V21h4.34542Q18.99972,21,19,24.82427A3.62976,3.62976,0,0,1,17.6646,27.749a5.38242,5.38242,0,0,1-3.56823,1.11716Zm0-5.7908V26.8159H13.8645q2.21565,0,2.21565-1.89121,0-1.84911-2.21565-1.84938Z" fill="#fff"/><polyline points="34 5 34 13 42 13 34 5" fill="#fff"/><path d="M44,13,34,3H12V45H44Z" fill="url(#b6260578-a13c-4716-bf4d-32fcbb1194cf)"/><rect x="33" y="14" width="10" height="3" fill="url(#37d55d52-03ce-4852-a034-6aa2cf15c975)"/><polygon points="12 3 12 4 33 4 33 14 43 14 43 28 44 28 44 13 34 3 12 3" fill="url(#fe261d07-1dbf-4bce-80d0-563029b99394)"/><polygon points="24 43 12 43 12 38.2 24 40 24 43" fill="url(#a8cf5f52-dfed-44c2-ac5a-3f58ae42b367)"/><polygon points="24 14 4 17 4 37 24 40 24 14" fill="url(#f8a89af7-bbae-49d1-85e4-a5a9802ab109)"/></svg>