<svg id="3add0b70-3467-4288-9f03-993576204dbb" data-name="ICONS" xmlns="http://www.w3.org/2000/svg" xmlns:xlink="http://www.w3.org/1999/xlink" viewBox="0 0 48 48"><defs><linearGradient id="c7d48fca-b855-4b54-9faa-3ee8f8dc45e0" x1="5.72143" y1="6.71645" x2="37.84693" y2="45.00213" gradientUnits="userSpaceOnUse"><stop offset="0" stop-color="#fff" stop-opacity="0"/><stop offset="0.86247" stop-color="#5e5e5e" stop-opacity="0.06315"/><stop offset="1" stop-opacity="0.1"/></linearGradient><linearGradient id="08053539-ac69-4457-968f-440b23fe62e9" x1="34.0684" y1="18.4316" x2="39.73481" y2="12.76519" gradientUnits="userSpaceOnUse"><stop offset="0" stop-color="#fff" stop-opacity="0"/><stop offset="0.44604" stop-color="#fff" stop-opacity="0.00799"/><stop offset="0.63551" stop-color="#fff" stop-opacity="0.03616"/><stop offset="0.77636" stop-color="#fff" stop-opacity="0.08493"/><stop offset="0.8924" stop-color="#fff" stop-opacity="0.15385"/><stop offset="0.99328" stop-color="#fff" stop-opacity="0.24291"/><stop offset="1" stop-color="#fff" stop-opacity="0.25"/></linearGradient><linearGradient id="8a1caae4-72c4-4a4b-938b-567515d6650b" x1="39.5" y1="21.90625" x2="39.5" y2="19.08751" gradientUnits="userSpaceOnUse"><stop offset="0" stop-color="#828282" stop-opacity="0"/><stop offset="0.86247" stop-color="#303030" stop-opacity="0.06315"/><stop offset="1" stop-opacity="0.1"/></linearGradient></defs><title>FileTypeIcons_Master_All_NEW</title><polygon points="44 38 4 38 4 10 35 10 36 10 44 18 44 19 44 38" fill="#fff"/><path d="M30,24h8.97473A9.48454,9.48454,0,0,0,30,15.02527Z" fill="#d14c32"/><path d="M30,25H29V15.02527A9.49379,9.49379,0,1,0,38.97473,25Z" fill="#c8c8c8"/><rect x="7" y="18" width="10" height="1" fill="#c8c8c8"/><rect x="7" y="15" width="10" height="1" fill="#c8c8c8"/><rect x="7" y="21" width="10" height="1" fill="#c8c8c8"/><rect x="7" y="24" width="10" height="1" fill="#c8c8c8"/><rect x="7" y="27" width="10" height="1" fill="#c8c8c8"/><rect x="7" y="30" width="10" height="1" fill="#c8c8c8"/><rect x="7" y="33" width="10" height="1" fill="#c8c8c8"/><path d="M36,9H3V39H45V18Zm0,1.54167L43.5,18H36ZM44,38H4V10H35v9h9Z" fill="#949494"/><polygon points="36 10.542 43.5 18 36 18 36 10.542" fill="#fff"/><path d="M45,18,36,9H3V39H45Z" fill="url(#c7d48fca-b855-4b54-9faa-3ee8f8dc45e0)"/><polygon points="12 9 12 10 35 10 35 19 44 19 44 39 45 39 45 18 36 9 12 9" fill="url(#08053539-ac69-4457-968f-440b23fe62e9)"/><rect x="35" y="19" width="9" height="3" fill="url(#8a1caae4-72c4-4a4b-938b-567515d6650b)"/></svg>