<svg id="0ca8a0cc-384e-415e-ae00-730d5b932c14" data-name="ICONS" xmlns="http://www.w3.org/2000/svg" xmlns:xlink="http://www.w3.org/1999/xlink" viewBox="0 0 48 48"><defs><linearGradient id="4b6fe6c1-22c5-4d09-a524-3b92773ef409" x1="4.58668" y1="5.86411" x2="38.48928" y2="46.26765" gradientUnits="userSpaceOnUse"><stop offset="0" stop-color="#fff" stop-opacity="0"/><stop offset="0.86247" stop-color="#5e5e5e" stop-opacity="0.06315"/><stop offset="1" stop-opacity="0.1"/></linearGradient><linearGradient id="e8d774c1-dc44-4c86-b432-e3a317e2bc51" x1="34" y1="16.90625" x2="34" y2="14.08751" gradientUnits="userSpaceOnUse"><stop offset="0" stop-color="#828282" stop-opacity="0"/><stop offset="0.86247" stop-color="#303030" stop-opacity="0.06315"/><stop offset="1" stop-opacity="0.1"/></linearGradient><linearGradient id="879eb7b4-1fc6-4123-8250-43f119754cbc" x1="28.92" y1="19.08" x2="37.48" y2="10.52" gradientUnits="userSpaceOnUse"><stop offset="0" stop-color="#fff" stop-opacity="0"/><stop offset="0.44604" stop-color="#fff" stop-opacity="0.00799"/><stop offset="0.63551" stop-color="#fff" stop-opacity="0.03616"/><stop offset="0.77636" stop-color="#fff" stop-opacity="0.08493"/><stop offset="0.8924" stop-color="#fff" stop-opacity="0.15385"/><stop offset="0.99328" stop-color="#fff" stop-opacity="0.24291"/><stop offset="1" stop-color="#fff" stop-opacity="0.25"/></linearGradient></defs><title>FileTypeIcons_Master_All_NEW</title><polygon points="39 44 9 44 9 4 30 4 39 13 39 44" fill="#fff"/><path d="M30.00049,3H8V45H40V13ZM30,4.5,38.5,13H30ZM39,44H9V4H29V14H39Z" fill="#949494"/><path d="M20.5205,7l-.75978,8.94589q-.05926.6265-.05917.82487a.8747.8747,0,0,0,.11066.48368.86015.86015,0,0,0,.38008.34118A2.09026,2.09026,0,0,0,21,17.70653L20.91893,18H16.9794l.08126-.29347h.16963a1.28856,1.28856,0,0,0,.78207-.222.966.966,0,0,0,.332-.49959,6.60634,6.60634,0,0,0,.15484-1.158l.118-1.3641h-2.8622l-1.018,1.48306a4.48266,4.48266,0,0,0-.43531.71778,1.09141,1.09141,0,0,0-.08856.40841.58029.58029,0,0,0,.19191.43618.954.954,0,0,0,.63434.19827L14.95824,18H12l.08107-.29347a1.514,1.514,0,0,0,.96274-.39251,9.70874,9.70874,0,0,0,1.243-1.57424L20.26231,7ZM19.05991,9.64105l-2.89927,4.24288h2.51564Z" fill="#0078d7"/><rect x="12" y="20" width="24" height="1" fill="#0078d7"/><rect x="12" y="23" width="12" height="1" fill="#c8c8c8"/><rect x="12" y="26" width="12" height="1" fill="#c8c8c8"/><rect x="12" y="29" width="12" height="1" fill="#c8c8c8"/><rect x="12" y="32" width="24" height="1" fill="#c8c8c8"/><rect x="12" y="35" width="24" height="1" fill="#c8c8c8"/><rect x="12" y="38" width="24" height="1" fill="#c8c8c8"/><rect x="23" y="17" width="13" height="1" fill="#69afe5"/><rect x="23" y="14" width="3" height="1" fill="#69afe5"/><rect x="26" y="23" width="10" height="7" fill="#69afe5"/><path d="M40,13,30,3H8V45H40Z" fill="url(#4b6fe6c1-22c5-4d09-a524-3b92773ef409)"/><rect x="29" y="14" width="10" height="3" fill="url(#e8d774c1-dc44-4c86-b432-e3a317e2bc51)"/><polygon points="8 3 8 4 29 4 29 14 39 14 39 45 40 45 40 13 30 3 8 3" fill="url(#879eb7b4-1fc6-4123-8250-43f119754cbc)"/></svg>