<svg id="fc7eabbe-a631-452b-9147-705475f19501" data-name="ICONS" xmlns="http://www.w3.org/2000/svg" xmlns:xlink="http://www.w3.org/1999/xlink" viewBox="0 0 48 48"><defs><linearGradient id="3f2a939e-ae75-4c9a-996b-53b2ab33e2b8" x1="10.39927" y1="7.79128" x2="40.06275" y2="43.14284" gradientUnits="userSpaceOnUse"><stop offset="0" stop-opacity="0"/><stop offset="0.86247" stop-opacity="0.12631"/><stop offset="1" stop-opacity="0.2"/></linearGradient><linearGradient id="557f2096-809c-4771-8d0a-3442a26639c2" x1="35.23094" y1="8.14532" x2="34.24116" y2="19.45854" gradientUnits="userSpaceOnUse"><stop offset="0" stop-color="#828282" stop-opacity="0"/><stop offset="0.85866" stop-color="#454545" stop-opacity="0.1171"/><stop offset="1" stop-opacity="0.25"/></linearGradient><linearGradient id="92224b5f-d8c5-4e68-889a-ddaa69c3303a" x1="9.5" y1="38.44792" x2="9.5" y2="33.53853" gradientUnits="userSpaceOnUse"><stop offset="0" stop-color="#828282" stop-opacity="0"/><stop offset="0.99719" stop-opacity="0.07"/></linearGradient><linearGradient id="0cc21a41-33d4-4dee-b06a-204b1c37c885" y1="32.46875" x2="9.5" y2="29.52312" xlink:href="#92224b5f-d8c5-4e68-889a-ddaa69c3303a"/><linearGradient id="bf4c6d41-4f67-40c4-9999-175334e1c481" x1="14.5" y1="33.44792" x2="14.5" y2="28.53853" xlink:href="#92224b5f-d8c5-4e68-889a-ddaa69c3303a"/><linearGradient id="060fd03b-e63b-4cca-87a9-8758cab43d29" x1="14.5" y1="27.46875" x2="14.5" y2="24.52312" xlink:href="#92224b5f-d8c5-4e68-889a-ddaa69c3303a"/><linearGradient id="6194a903-e14d-46c3-ab75-11c0f1b72bee" x1="6.5" y1="37.81324" x2="6.5" y2="36.29412" xlink:href="#92224b5f-d8c5-4e68-889a-ddaa69c3303a"/><linearGradient id="070f399f-20b7-4ae1-bab1-78b685b9b593" x1="12.5" y1="37.81324" x2="12.5" y2="36.29412" xlink:href="#92224b5f-d8c5-4e68-889a-ddaa69c3303a"/><linearGradient id="99b87535-8a25-4dc4-b41a-c441efb19759" x1="17.5" y1="32.81324" x2="17.5" y2="31.29412" xlink:href="#92224b5f-d8c5-4e68-889a-ddaa69c3303a"/><linearGradient id="7505f61f-575a-459a-815b-321b6a95962e" x1="14.5" y1="28.48438" x2="14.5" y2="23.53145" gradientUnits="userSpaceOnUse"><stop offset="0" stop-color="#fff" stop-opacity="0"/><stop offset="0.20669" stop-color="#fff" stop-opacity="0.01635"/><stop offset="0.4209" stop-color="#fff" stop-opacity="0.06512"/><stop offset="0.63854" stop-color="#fff" stop-opacity="0.14638"/><stop offset="0.85718" stop-color="#fff" stop-opacity="0.25942"/><stop offset="1" stop-color="#fff" stop-opacity="0.35"/></linearGradient><linearGradient id="5438d97a-fbb3-48b6-afc5-c75498a2941f" x1="9.5" y1="33.48438" x2="9.5" y2="28.53145" xlink:href="#7505f61f-575a-459a-815b-321b6a95962e"/></defs><title>FileTypeIcons_Master_All_NEW</title><polygon points="3 39 3 14 24 14 29 9 45 9 45 39 3 39" fill="#a6a6a6"/><polygon points="29 9 24 14 29 19 45 19 45 9 29 9" fill="#828282"/><polygon points="3 39 3 14 24 14 29 9 45 9 45 39 3 39" fill="url(#3f2a939e-ae75-4c9a-996b-53b2ab33e2b8)"/><polygon points="29 9 24 14 29 19 45 19 45 9 29 9" fill="url(#557f2096-809c-4771-8d0a-3442a26639c2)"/><polygon points="44.958 19 44.958 20 28.5 20 22.5 14 24 14 29 19 44.958 19" fill="#fff" opacity="0.15"/><path d="M11.11279,32.89575a2.5,2.5,0,1,0-3.22558,0A3.497,3.497,0,0,0,6,36H7a2.5,2.5,0,0,1,5,0h1A3.49681,3.49681,0,0,0,11.11279,32.89575ZM8,31a1.5,1.5,0,1,1,1.5,1.5A1.50164,1.50164,0,0,1,8,31Z" fill="#eaeaea"/><path d="M16.11279,27.89575a2.5,2.5,0,1,0-3.22558,0A3.497,3.497,0,0,0,11,31h1a2.5,2.5,0,0,1,5,0h1A3.49681,3.49681,0,0,0,16.11279,27.89575ZM13,26a1.5,1.5,0,1,1,1.5,1.5A1.50164,1.50164,0,0,1,13,26Z" fill="#eaeaea"/><circle cx="9.5" cy="36" r="2.5" fill="url(#92224b5f-d8c5-4e68-889a-ddaa69c3303a)"/><circle cx="9.5" cy="31" r="1.5" fill="url(#0cc21a41-33d4-4dee-b06a-204b1c37c885)"/><circle cx="14.5" cy="31" r="2.5" fill="url(#bf4c6d41-4f67-40c4-9999-175334e1c481)"/><circle cx="14.5" cy="26" r="1.5" fill="url(#060fd03b-e63b-4cca-87a9-8758cab43d29)"/><rect x="6" y="36" width="1" height="2" fill="url(#6194a903-e14d-46c3-ab75-11c0f1b72bee)"/><rect x="12" y="36" width="1" height="2" fill="url(#070f399f-20b7-4ae1-bab1-78b685b9b593)"/><rect x="17" y="31" width="1" height="2" fill="url(#99b87535-8a25-4dc4-b41a-c441efb19759)"/><path d="M14.5,24.5A1.5,1.5,0,1,1,13,26a1.50164,1.50164,0,0,1,1.5-1.5m0-1A2.5,2.5,0,1,0,17,26a2.5,2.5,0,0,0-2.5-2.5Z" fill="url(#7505f61f-575a-459a-815b-321b6a95962e)"/><path d="M9.5,29.5A1.5,1.5,0,1,1,8,31a1.50164,1.50164,0,0,1,1.5-1.5m0-1A2.5,2.5,0,1,0,12,31a2.5,2.5,0,0,0-2.5-2.5Z" fill="url(#5438d97a-fbb3-48b6-afc5-c75498a2941f)"/></svg>