<?xml version="1.0" encoding="utf-8"?>
<!-- Generator: Adobe Illustrator 21.1.0, SVG Export Plug-In . SVG Version: 6.00 Build 0)  -->
<svg version="1.1" xmlns="http://www.w3.org/2000/svg" xmlns:xlink="http://www.w3.org/1999/xlink" x="0px" y="0px"
	 viewBox="0 0 48 48" enable-background="new 0 0 48 48" xml:space="preserve">
<g id="TEMPLATE" display="none">
	<g display="inline">
		<path fill="#D0D0D0" d="M48,0v48H0V0H48 M49-1h-1H0h-1v1v48v1h1h48h1v-1V0V-1L49-1z"/>
	</g>
	<g display="inline" opacity="0.1">
		<path fill="#FF3A6D" d="M45,3v42H3V3H45 M48,0H0v48h48V0L48,0z"/>
	</g>
</g>
<g id="ICONS">
	<polygon fill="#A6A6A6" points="3,39 3,14 24,14 29,9 45,9 45,39 	"/>
	<polygon fill="#828282" points="29,9 24,14 29,19 45,19 45,9 	"/>
	<linearGradient id="SVGID_1_" gradientUnits="userSpaceOnUse" x1="10.3993" y1="7.7913" x2="40.0628" y2="43.1428">
		<stop  offset="0" style="stop-color:#000000;stop-opacity:0"/>
		<stop  offset="0.8625" style="stop-color:#000000;stop-opacity:0.1725"/>
		<stop  offset="1" style="stop-color:#000000;stop-opacity:0.2"/>
	</linearGradient>
	<polygon fill="url(#SVGID_1_)" points="3,39 3,14 24,14 29,9 45,9 45,39 	"/>
	<linearGradient id="SVGID_2_" gradientUnits="userSpaceOnUse" x1="35.2309" y1="8.1453" x2="34.2412" y2="19.4585">
		<stop  offset="0" style="stop-color:#828282;stop-opacity:0"/>
		<stop  offset="0.4267" style="stop-color:#808080;stop-opacity:0.1067"/>
		<stop  offset="0.5804" style="stop-color:#797979;stop-opacity:0.1451"/>
		<stop  offset="0.6899" style="stop-color:#6E6E6E;stop-opacity:0.1725"/>
		<stop  offset="0.7785" style="stop-color:#5D5D5D;stop-opacity:0.1946"/>
		<stop  offset="0.8543" style="stop-color:#474747;stop-opacity:0.2136"/>
		<stop  offset="0.9215" style="stop-color:#2B2B2B;stop-opacity:0.2304"/>
		<stop  offset="0.9808" style="stop-color:#0C0C0C;stop-opacity:0.2452"/>
		<stop  offset="1" style="stop-color:#000000;stop-opacity:0.25"/>
	</linearGradient>
	<polygon fill="url(#SVGID_2_)" points="29,9 24,14 29,19 45,19 45,9 	"/>
	<polygon opacity="0.15" fill="#FFFFFF" points="44.9583,19 44.9583,20 28.5,20 22.5,14 24,14 29,19 	"/>
	<path fill="#EAEAEA" d="M11.1128,32.8958C11.6512,32.437,12,31.7627,12,31c0-1.3806-1.1193-2.5-2.5-2.5S7,29.6194,7,31
		c0,0.7627,0.3489,1.437,0.8872,1.8958C6.7666,33.479,6,34.6489,6,36h1c0-1.3784,1.1215-2.5,2.5-2.5S12,34.6216,12,36h1
		C13,34.6489,12.2335,33.479,11.1128,32.8958z M8,31c0-0.8271,0.6729-1.5,1.5-1.5S11,30.1729,11,31s-0.6729,1.5-1.5,1.5
		S8,31.8271,8,31z"/>
	<path fill="#EAEAEA" d="M16.1128,27.8958C16.6512,27.437,17,26.7627,17,26c0-1.3806-1.1193-2.5-2.5-2.5S12,24.6194,12,26
		c0,0.7627,0.3489,1.437,0.8872,1.8958C11.7666,28.479,11,29.6489,11,31h1c0-1.3784,1.1215-2.5,2.5-2.5S17,29.6216,17,31h1
		C18,29.6489,17.2335,28.479,16.1128,27.8958z M13,26c0-0.8271,0.6729-1.5,1.5-1.5S16,25.1729,16,26s-0.6729,1.5-1.5,1.5
		S13,26.8271,13,26z"/>
	<linearGradient id="SVGID_3_" gradientUnits="userSpaceOnUse" x1="9.5" y1="38.4479" x2="9.5" y2="33.5385">
		<stop  offset="0" style="stop-color:#828282;stop-opacity:0"/>
		<stop  offset="0.1699" style="stop-color:#7E7E7E;stop-opacity:0.0119"/>
		<stop  offset="0.346" style="stop-color:#717171;stop-opacity:0.0243"/>
		<stop  offset="0.5248" style="stop-color:#5D5D5D;stop-opacity:0.0368"/>
		<stop  offset="0.7057" style="stop-color:#404040;stop-opacity:0.0495"/>
		<stop  offset="0.8863" style="stop-color:#1B1B1B;stop-opacity:0.0622"/>
		<stop  offset="0.9972" style="stop-color:#000000;stop-opacity:0.07"/>
	</linearGradient>
	<circle fill="url(#SVGID_3_)" cx="9.5" cy="36" r="2.5"/>
	<linearGradient id="SVGID_4_" gradientUnits="userSpaceOnUse" x1="9.5" y1="32.4688" x2="9.5" y2="29.5231">
		<stop  offset="0" style="stop-color:#828282;stop-opacity:0"/>
		<stop  offset="0.1699" style="stop-color:#7E7E7E;stop-opacity:0.0119"/>
		<stop  offset="0.346" style="stop-color:#717171;stop-opacity:0.0243"/>
		<stop  offset="0.5248" style="stop-color:#5D5D5D;stop-opacity:0.0368"/>
		<stop  offset="0.7057" style="stop-color:#404040;stop-opacity:0.0495"/>
		<stop  offset="0.8863" style="stop-color:#1B1B1B;stop-opacity:0.0622"/>
		<stop  offset="0.9972" style="stop-color:#000000;stop-opacity:0.07"/>
	</linearGradient>
	<circle fill="url(#SVGID_4_)" cx="9.5" cy="31" r="1.5"/>
	<linearGradient id="SVGID_5_" gradientUnits="userSpaceOnUse" x1="14.5" y1="33.4479" x2="14.5" y2="28.5385">
		<stop  offset="0" style="stop-color:#828282;stop-opacity:0"/>
		<stop  offset="0.1699" style="stop-color:#7E7E7E;stop-opacity:0.0119"/>
		<stop  offset="0.346" style="stop-color:#717171;stop-opacity:0.0243"/>
		<stop  offset="0.5248" style="stop-color:#5D5D5D;stop-opacity:0.0368"/>
		<stop  offset="0.7057" style="stop-color:#404040;stop-opacity:0.0495"/>
		<stop  offset="0.8863" style="stop-color:#1B1B1B;stop-opacity:0.0622"/>
		<stop  offset="0.9972" style="stop-color:#000000;stop-opacity:0.07"/>
	</linearGradient>
	<circle fill="url(#SVGID_5_)" cx="14.5" cy="31" r="2.5"/>
	<linearGradient id="SVGID_6_" gradientUnits="userSpaceOnUse" x1="14.5" y1="27.4688" x2="14.5" y2="24.5231">
		<stop  offset="0" style="stop-color:#828282;stop-opacity:0"/>
		<stop  offset="0.1699" style="stop-color:#7E7E7E;stop-opacity:0.0119"/>
		<stop  offset="0.346" style="stop-color:#717171;stop-opacity:0.0243"/>
		<stop  offset="0.5248" style="stop-color:#5D5D5D;stop-opacity:0.0368"/>
		<stop  offset="0.7057" style="stop-color:#404040;stop-opacity:0.0495"/>
		<stop  offset="0.8863" style="stop-color:#1B1B1B;stop-opacity:0.0622"/>
		<stop  offset="0.9972" style="stop-color:#000000;stop-opacity:0.07"/>
	</linearGradient>
	<circle fill="url(#SVGID_6_)" cx="14.5" cy="26" r="1.5"/>
	<linearGradient id="SVGID_7_" gradientUnits="userSpaceOnUse" x1="6.5" y1="37.8132" x2="6.5" y2="36.2941">
		<stop  offset="0" style="stop-color:#828282;stop-opacity:0"/>
		<stop  offset="0.1699" style="stop-color:#7E7E7E;stop-opacity:0.0119"/>
		<stop  offset="0.346" style="stop-color:#717171;stop-opacity:0.0243"/>
		<stop  offset="0.5248" style="stop-color:#5D5D5D;stop-opacity:0.0368"/>
		<stop  offset="0.7057" style="stop-color:#404040;stop-opacity:0.0495"/>
		<stop  offset="0.8863" style="stop-color:#1B1B1B;stop-opacity:0.0622"/>
		<stop  offset="0.9972" style="stop-color:#000000;stop-opacity:0.07"/>
	</linearGradient>
	<rect x="6" y="36" fill="url(#SVGID_7_)" width="1" height="2"/>
	<linearGradient id="SVGID_8_" gradientUnits="userSpaceOnUse" x1="12.5" y1="37.8132" x2="12.5" y2="36.2941">
		<stop  offset="0" style="stop-color:#828282;stop-opacity:0"/>
		<stop  offset="0.1699" style="stop-color:#7E7E7E;stop-opacity:0.0119"/>
		<stop  offset="0.346" style="stop-color:#717171;stop-opacity:0.0243"/>
		<stop  offset="0.5248" style="stop-color:#5D5D5D;stop-opacity:0.0368"/>
		<stop  offset="0.7057" style="stop-color:#404040;stop-opacity:0.0495"/>
		<stop  offset="0.8863" style="stop-color:#1B1B1B;stop-opacity:0.0622"/>
		<stop  offset="0.9972" style="stop-color:#000000;stop-opacity:0.07"/>
	</linearGradient>
	<rect x="12" y="36" fill="url(#SVGID_8_)" width="1" height="2"/>
	<linearGradient id="SVGID_9_" gradientUnits="userSpaceOnUse" x1="17.5" y1="32.8132" x2="17.5" y2="31.2941">
		<stop  offset="0" style="stop-color:#828282;stop-opacity:0"/>
		<stop  offset="0.1699" style="stop-color:#7E7E7E;stop-opacity:0.0119"/>
		<stop  offset="0.346" style="stop-color:#717171;stop-opacity:0.0243"/>
		<stop  offset="0.5248" style="stop-color:#5D5D5D;stop-opacity:0.0368"/>
		<stop  offset="0.7057" style="stop-color:#404040;stop-opacity:0.0495"/>
		<stop  offset="0.8863" style="stop-color:#1B1B1B;stop-opacity:0.0622"/>
		<stop  offset="0.9972" style="stop-color:#000000;stop-opacity:0.07"/>
	</linearGradient>
	<rect x="17" y="31" fill="url(#SVGID_9_)" width="1" height="2"/>
	<linearGradient id="SVGID_10_" gradientUnits="userSpaceOnUse" x1="14.5" y1="28.4844" x2="14.5" y2="23.5314">
		<stop  offset="0" style="stop-color:#FFFFFF;stop-opacity:0"/>
		<stop  offset="1" style="stop-color:#FFFFFF;stop-opacity:0.35"/>
	</linearGradient>
	<path fill="url(#SVGID_10_)" d="M14.5,24.5c0.8271,0,1.5,0.6729,1.5,1.5s-0.6729,1.5-1.5,1.5S13,26.8271,13,26
		S13.6729,24.5,14.5,24.5 M14.5,23.5c-1.3807,0-2.5,1.1194-2.5,2.5s1.1193,2.5,2.5,2.5S17,27.3806,17,26S15.8807,23.5,14.5,23.5
		L14.5,23.5z"/>
	<linearGradient id="SVGID_11_" gradientUnits="userSpaceOnUse" x1="9.5" y1="33.4844" x2="9.5" y2="28.5314">
		<stop  offset="0" style="stop-color:#FFFFFF;stop-opacity:0"/>
		<stop  offset="1" style="stop-color:#FFFFFF;stop-opacity:0.35"/>
	</linearGradient>
	<path fill="url(#SVGID_11_)" d="M9.5,29.5c0.8271,0,1.5,0.6729,1.5,1.5s-0.6729,1.5-1.5,1.5S8,31.8271,8,31S8.6729,29.5,9.5,29.5
		 M9.5,28.5C8.1193,28.5,7,29.6194,7,31s1.1193,2.5,2.5,2.5S12,32.3806,12,31S10.8807,28.5,9.5,28.5L9.5,28.5z"/>
</g>
</svg>
