<?xml version="1.0" encoding="utf-8"?>
<!-- Generator: Adobe Illustrator 21.1.0, SVG Export Plug-In . SVG Version: 6.00 Build 0)  -->
<svg version="1.1" xmlns="http://www.w3.org/2000/svg" xmlns:xlink="http://www.w3.org/1999/xlink" x="0px" y="0px"
	 viewBox="0 0 48 48" enable-background="new 0 0 48 48" xml:space="preserve">
<g id="TEMPLATE" display="none">
	<g display="inline">
		<path fill="#D0D0D0" d="M48,0v48H0V0H48 M49-1h-1H0h-1v1v48v1h1h48h1v-1V0V-1L49-1z"/>
	</g>
	<g display="inline" opacity="0.1">
		<path fill="#FF3A6D" d="M45,3v42H3V3H45 M48,0H0v48h48V0L48,0z"/>
	</g>
</g>
<g id="ICONS">
	<polygon fill="#FFFFFF" points="43,44 13,44 13,4 34,4 43,13 	"/>
	<path fill="#949494" d="M34.0005,3H12v42h32V13L34.0005,3z M34,4.5l8.5,8.5H34V4.5z M43,44H13V4h20v10h10V44z"/>
	<polygon fill="#0078D7" points="4,17 24,14 24,40 4,37 	"/>
	<g>
		<path fill="#FFFFFF" d="M10.066,32.3527v-2.5893c0.4705,0.394,0.9816,0.6893,1.5333,0.886
			c0.5516,0.1972,1.1086,0.2953,1.6712,0.2953c0.3298,0,0.6178-0.0293,0.864-0.089c0.2459-0.0592,0.4515-0.1416,0.6165-0.2468
			c0.1648-0.1052,0.288-0.2291,0.3691-0.3722c0.0811-0.1426,0.1217-0.2979,0.1217-0.4653c0-0.2266-0.0649-0.4289-0.1947-0.6069
			c-0.1298-0.178-0.307-0.3424-0.5314-0.4936c-0.2246-0.1507-0.4908-0.2964-0.7991-0.437
			c-0.3083-0.1401-0.6409-0.2832-0.9978-0.4289c-0.9086-0.3773-1.586-0.8385-2.0322-1.3837
			c-0.4462-0.5447-0.6693-1.2026-0.6693-1.9744c0-0.6038,0.1217-1.1232,0.3651-1.5577c0.2434-0.4339,0.5745-0.7915,0.9938-1.0722
			c0.4191-0.2802,0.9045-0.4865,1.4562-0.619C13.384,21.0663,13.9681,21,14.5847,21c0.6056,0,1.1423,0.0364,1.6103,0.1092
			c0.4677,0.0728,0.899,0.1851,1.2939,0.3358v2.4194c-0.1947-0.1345-0.4071-0.2534-0.6368-0.356
			c-0.2299-0.1022-0.4665-0.1871-0.7098-0.2549c-0.2434-0.0673-0.4855-0.1173-0.7261-0.1497
			c-0.2408-0.0324-0.4693-0.0485-0.6855-0.0485c-0.2976,0-0.5679,0.0283-0.8112,0.085c-0.2434,0.0566-0.449,0.1365-0.6165,0.2387
			c-0.1678,0.1027-0.2976,0.2256-0.3894,0.3682c-0.092,0.1431-0.1379,0.3034-0.1379,0.4815c0,0.1942,0.0512,0.3682,0.1541,0.5219
			c0.1027,0.1537,0.2487,0.2994,0.4381,0.437c0.1891,0.1376,0.4191,0.2726,0.6896,0.4046c0.2702,0.1325,0.576,0.2685,0.9167,0.4086
			c0.4649,0.1942,0.8827,0.4005,1.2534,0.619c0.3704,0.2185,0.688,0.4653,0.9532,0.7404c0.2649,0.2751,0.4677,0.5897,0.6084,0.9427
			C17.9295,28.6563,18,29.0674,18,29.5367c0,0.6473-0.1232,1.191-0.3691,1.6305c-0.2462,0.44-0.58,0.796-1.0019,1.0681
			c-0.4218,0.2726-0.9127,0.4683-1.4724,0.5867C14.5968,32.9403,14.0059,33,13.384,33c-0.6383,0-1.2453-0.0541-1.8212-0.1618
			C10.9868,32.7304,10.4879,32.5686,10.066,32.3527z"/>
	</g>
	<polyline fill="#FFFFFF" points="34,5 34,13 42,13 34,5 	"/>
	<g>
		<rect x="24" y="35" fill="#C8C8C8" width="16" height="1"/>
		<rect x="24" y="32" fill="#C8C8C8" width="16" height="1"/>
		<rect x="24" y="38" fill="#C8C8C8" width="16" height="1"/>
		<g>
			<rect x="24" y="17" fill="#B3D3E8" width="16" height="13"/>
		</g>
	</g>
	<linearGradient id="SVGID_1_" gradientUnits="userSpaceOnUse" x1="8.5867" y1="5.8641" x2="42.4893" y2="46.2676">
		<stop  offset="0" style="stop-color:#FFFFFF;stop-opacity:0"/>
		<stop  offset="0.2264" style="stop-color:#FCFCFC;stop-opacity:0.0226"/>
		<stop  offset="0.3626" style="stop-color:#F4F4F4;stop-opacity:0.0363"/>
		<stop  offset="0.475" style="stop-color:#E6E6E6;stop-opacity:0.0475"/>
		<stop  offset="0.5744" style="stop-color:#D1D1D1;stop-opacity:0.0574"/>
		<stop  offset="0.6652" style="stop-color:#B7B7B7;stop-opacity:0.0665"/>
		<stop  offset="0.7498" style="stop-color:#979797;stop-opacity:0.075"/>
		<stop  offset="0.8297" style="stop-color:#707070;stop-opacity:0.083"/>
		<stop  offset="0.9057" style="stop-color:#444444;stop-opacity:0.0906"/>
		<stop  offset="0.9761" style="stop-color:#121212;stop-opacity:0.0976"/>
		<stop  offset="1" style="stop-color:#000000;stop-opacity:0.1"/>
	</linearGradient>
	<path fill="url(#SVGID_1_)" d="M44,13L34,3H12v42h32V13z"/>
	<linearGradient id="SVGID_2_" gradientUnits="userSpaceOnUse" x1="38" y1="16.9063" x2="38" y2="14.0875">
		<stop  offset="0" style="stop-color:#828282;stop-opacity:0"/>
		<stop  offset="0.2812" style="stop-color:#7F7F7F;stop-opacity:0.0281"/>
		<stop  offset="0.4503" style="stop-color:#777777;stop-opacity:0.045"/>
		<stop  offset="0.5899" style="stop-color:#696969;stop-opacity:0.059"/>
		<stop  offset="0.7133" style="stop-color:#545454;stop-opacity:0.0713"/>
		<stop  offset="0.8259" style="stop-color:#3A3A3A;stop-opacity:0.0826"/>
		<stop  offset="0.9294" style="stop-color:#1A1A1A;stop-opacity:0.0929"/>
		<stop  offset="1" style="stop-color:#000000;stop-opacity:0.1"/>
	</linearGradient>
	<rect x="33" y="14" fill="url(#SVGID_2_)" width="10" height="3"/>
	<linearGradient id="SVGID_3_" gradientUnits="userSpaceOnUse" x1="31.27" y1="12.23" x2="37.2361" y2="6.2639">
		<stop  offset="0" style="stop-color:#FFFFFF;stop-opacity:0"/>
		<stop  offset="0.8537" style="stop-color:#FFFFFF;stop-opacity:0.2134"/>
		<stop  offset="1" style="stop-color:#FFFFFF;stop-opacity:0.25"/>
	</linearGradient>
	<polygon fill="url(#SVGID_3_)" points="12,3 12,4 33,4 33,14 43,14 43,28 44,28 44,13 34,3 	"/>
	<linearGradient id="SVGID_4_" gradientUnits="userSpaceOnUse" x1="14" y1="39.1875" x2="14" y2="14.7584">
		<stop  offset="0" style="stop-color:#FFFFFF;stop-opacity:0"/>
		<stop  offset="0.8587" style="stop-color:#FFFFFF;stop-opacity:0.1546"/>
		<stop  offset="1" style="stop-color:#FFFFFF;stop-opacity:0.18"/>
	</linearGradient>
	<polygon fill="url(#SVGID_4_)" points="24,14 4,17 4,37 24,40 	"/>
	<linearGradient id="SVGID_5_" gradientUnits="userSpaceOnUse" x1="17.7538" y1="42.9183" x2="18.1773" y2="38.93">
		<stop  offset="0" style="stop-color:#828282;stop-opacity:0"/>
		<stop  offset="0.1699" style="stop-color:#7E7E7E;stop-opacity:0.0341"/>
		<stop  offset="0.346" style="stop-color:#717171;stop-opacity:0.0694"/>
		<stop  offset="0.5248" style="stop-color:#5D5D5D;stop-opacity:0.1053"/>
		<stop  offset="0.7057" style="stop-color:#404040;stop-opacity:0.1415"/>
		<stop  offset="0.8863" style="stop-color:#1B1B1B;stop-opacity:0.1778"/>
		<stop  offset="0.9972" style="stop-color:#000000;stop-opacity:0.2"/>
	</linearGradient>
	<polygon fill="url(#SVGID_5_)" points="24,43 12,43 12,38.2 24,40 	"/>
</g>
</svg>
