<svg id="d2504816-5c76-4670-acdb-cc1c514a26a5" data-name="ICONS" xmlns="http://www.w3.org/2000/svg" xmlns:xlink="http://www.w3.org/1999/xlink" viewBox="0 0 48 48"><defs><linearGradient id="ca1be5d9-28e8-4770-8d28-e5ab62a048bc" x1="5.72143" y1="6.71645" x2="37.84693" y2="45.00213" gradientUnits="userSpaceOnUse"><stop offset="0" stop-color="#fff" stop-opacity="0"/><stop offset="0.86247" stop-color="#5e5e5e" stop-opacity="0.06315"/><stop offset="1" stop-opacity="0.1"/></linearGradient><linearGradient id="f3853639-88f1-4e43-8f6d-46ec088b4449" x1="34.0684" y1="18.4316" x2="39.73481" y2="12.76519" gradientUnits="userSpaceOnUse"><stop offset="0" stop-color="#fff" stop-opacity="0"/><stop offset="0.44604" stop-color="#fff" stop-opacity="0.00799"/><stop offset="0.63551" stop-color="#fff" stop-opacity="0.03616"/><stop offset="0.77636" stop-color="#fff" stop-opacity="0.08493"/><stop offset="0.8924" stop-color="#fff" stop-opacity="0.15385"/><stop offset="0.99328" stop-color="#fff" stop-opacity="0.24291"/><stop offset="1" stop-color="#fff" stop-opacity="0.25"/></linearGradient><linearGradient id="835cf510-bf20-4ee4-af61-6242ca94d1f6" x1="39.5" y1="21.90625" x2="39.5" y2="19.08751" gradientUnits="userSpaceOnUse"><stop offset="0" stop-color="#828282" stop-opacity="0"/><stop offset="0.86247" stop-color="#303030" stop-opacity="0.06315"/><stop offset="1" stop-opacity="0.1"/></linearGradient></defs><title>FileTypeIcons_Master_All_NEW</title><polygon points="44 38 4 38 4 10 35 10 36 10 44 18 44 19 44 38" fill="#fff"/><rect x="6.99997" y="32.99986" width="7.00012" height="2" transform="translate(21.00005 67.99971) rotate(-179.99998)" fill="#217346"/><rect x="6.99997" y="28.99986" width="7.00012" height="2" transform="translate(21.00005 59.99971) rotate(-179.99998)" fill="#217346"/><rect x="6.99997" y="24.99986" width="7.00012" height="2" transform="translate(21.00005 51.99971) rotate(-179.99998)" fill="#217346"/><rect x="6.99998" y="16.99986" width="7.00011" height="2" transform="translate(21.00006 35.99971) rotate(-179.99998)" fill="#217346"/><rect x="6.99998" y="12.99986" width="7.00011" height="2" transform="translate(21.00006 27.99971) rotate(-179.99998)" fill="#217346"/><rect x="6.99997" y="20.99986" width="7.00011" height="2" transform="translate(21.00006 43.99971) rotate(-179.99998)" fill="#217346"/><rect x="15.99997" y="32.99986" width="7.00012" height="2" transform="translate(39.00005 67.99972) rotate(-179.99998)" fill="#c8c8c8"/><rect x="15.99997" y="28.99986" width="7.00012" height="2" transform="translate(39.00005 59.99972) rotate(-179.99998)" fill="#c8c8c8"/><rect x="15.99997" y="24.99986" width="7.00012" height="2" transform="translate(39.00005 51.99972) rotate(-179.99998)" fill="#c8c8c8"/><rect x="15.99998" y="16.99986" width="7.00011" height="2" transform="translate(39.00006 35.99972) rotate(-179.99998)" fill="#c8c8c8"/><rect x="15.99998" y="12.99986" width="7.00011" height="2" transform="translate(39.00006 27.99972) rotate(-179.99998)" fill="#c8c8c8"/><rect x="15.99997" y="20.99986" width="7.00011" height="2" transform="translate(39.00006 43.99972) rotate(-179.99998)" fill="#c8c8c8"/><rect x="24.99997" y="32.99986" width="7.00012" height="2" transform="translate(57.00005 67.99972) rotate(-179.99998)" fill="#c8c8c8"/><rect x="24.99997" y="28.99986" width="7.00012" height="2" transform="translate(57.00005 59.99972) rotate(-179.99998)" fill="#c8c8c8"/><rect x="24.99997" y="24.99986" width="7.00012" height="2" transform="translate(57.00005 51.99972) rotate(-179.99998)" fill="#c8c8c8"/><rect x="24.99998" y="16.99986" width="7.00011" height="2" transform="translate(57.00006 35.99972) rotate(-179.99998)" fill="#c8c8c8"/><rect x="24.99998" y="12.99986" width="7.00011" height="2" transform="translate(57.00006 27.99972) rotate(-179.99998)" fill="#c8c8c8"/><rect x="24.99997" y="20.99986" width="7.00011" height="2" transform="translate(57.00006 43.99972) rotate(-179.99998)" fill="#c8c8c8"/><rect x="33.99997" y="32.99986" width="7.00012" height="2" transform="translate(75.00005 67.99972) rotate(-179.99998)" fill="#c8c8c8"/><rect x="33.99997" y="28.99986" width="7.00012" height="2" transform="translate(75.00005 59.99972) rotate(-179.99998)" fill="#c8c8c8"/><rect x="33.99997" y="24.99986" width="7.00012" height="2" transform="translate(75.00005 51.99972) rotate(-179.99998)" fill="#c8c8c8"/><rect x="34.10409" y="16.99973" width="1.89571" height="2" transform="matrix(-1, 0, 0, -1, 70.10387, 35.9995)" fill="#c8c8c8"/><rect x="34.10409" y="12.99973" width="1.89571" height="2" transform="matrix(-1, 0, 0, -1, 70.10387, 27.9995)" fill="#c8c8c8"/><rect x="33.99997" y="20.99986" width="7.00011" height="2" transform="translate(75.00006 43.99972) rotate(-179.99998)" fill="#c8c8c8"/><path d="M36,9H3V39H45V18Zm0,1.54167L43.5,18H36ZM44,38H4V10H35v9h9Z" fill="#949494"/><path d="M45,18,36,9H3V39H45Z" fill="url(#ca1be5d9-28e8-4770-8d28-e5ab62a048bc)"/><polygon points="12 9 12 10 35 10 35 19 44 19 44 39 45 39 45 18 36 9 12 9" fill="url(#f3853639-88f1-4e43-8f6d-46ec088b4449)"/><rect x="35" y="19" width="9" height="3" fill="url(#835cf510-bf20-4ee4-af61-6242ca94d1f6)"/></svg>