<svg id="93fb2d70-53ea-48a9-95e2-0ff90d326459" data-name="ICONS" xmlns="http://www.w3.org/2000/svg" xmlns:xlink="http://www.w3.org/1999/xlink" viewBox="0 0 48 48"><defs><linearGradient id="79f68e04-4207-4c2c-9fb3-b91ba1949963" x1="8.58668" y1="5.86411" x2="42.48928" y2="46.26765" gradientUnits="userSpaceOnUse"><stop offset="0" stop-color="#fff" stop-opacity="0"/><stop offset="0.86247" stop-color="#5e5e5e" stop-opacity="0.06315"/><stop offset="1" stop-opacity="0.1"/></linearGradient><linearGradient id="12b8469b-2a0d-41ce-9e93-24e0065227a6" x1="38" y1="16.90625" x2="38" y2="14.08751" gradientUnits="userSpaceOnUse"><stop offset="0" stop-color="#828282" stop-opacity="0"/><stop offset="0.86247" stop-color="#303030" stop-opacity="0.06315"/><stop offset="1" stop-opacity="0.1"/></linearGradient><linearGradient id="f1217537-655c-4d09-a7ea-9ff491d97956" x1="31.27" y1="12.23" x2="37.23606" y2="6.26394" gradientUnits="userSpaceOnUse"><stop offset="0" stop-color="#fff" stop-opacity="0"/><stop offset="0.44604" stop-color="#fff" stop-opacity="0.00799"/><stop offset="0.63551" stop-color="#fff" stop-opacity="0.03616"/><stop offset="0.77636" stop-color="#fff" stop-opacity="0.08493"/><stop offset="0.8924" stop-color="#fff" stop-opacity="0.15385"/><stop offset="0.99328" stop-color="#fff" stop-opacity="0.24291"/><stop offset="1" stop-color="#fff" stop-opacity="0.25"/></linearGradient><linearGradient id="138d7153-6484-4c4d-8f61-9491ab18b2ae" x1="14" y1="39.1875" x2="14" y2="14.75839" gradientUnits="userSpaceOnUse"><stop offset="0" stop-color="#fff" stop-opacity="0"/><stop offset="0.52587" stop-color="#fff" stop-opacity="0.00735"/><stop offset="0.71529" stop-color="#fff" stop-opacity="0.03396"/><stop offset="0.8503" stop-color="#fff" stop-opacity="0.0803"/><stop offset="0.95875" stop-color="#fff" stop-opacity="0.14595"/><stop offset="1" stop-color="#fff" stop-opacity="0.18"/></linearGradient><linearGradient id="beac9e56-cf33-40cc-886a-0f012fb51e76" x1="17.75381" y1="42.91826" x2="18.17734" y2="38.93002" gradientUnits="userSpaceOnUse"><stop offset="0" stop-color="#828282" stop-opacity="0"/><stop offset="0.99719" stop-opacity="0.2"/></linearGradient></defs><title>FileTypeIcons_Master_All_NEW</title><polygon points="43 44 13 44 13 4 34 4 43 13 43 44" fill="#fff"/><polygon points="26.5 20 18 30 35 30 26.5 20" fill="#99cdc7"/><path d="M34.00049,3H12V45H44V13ZM34,4.5,42.5,13H34ZM43,44H13V4H33V14H43Z" fill="#949494"/><polygon points="4 17 24 14 24 40 4 37 4 17" fill="#008272"/><path d="M10.066,32.35266V29.76332a4.98467,4.98467,0,0,0,1.53325.886,4.93135,4.93135,0,0,0,1.67117.29535,3.69819,3.69819,0,0,0,.864-.089,2.02516,2.02516,0,0,0,.61655-.2468,1.07768,1.07768,0,0,0,.36911-.37222.92541.92541,0,0,0,.12169-.46527,1.00406,1.00406,0,0,0-.1947-.60688,2.09725,2.09725,0,0,0-.53136-.49359,5.63242,5.63242,0,0,0-.79908-.437q-.46242-.21013-.99784-.42887a5.08614,5.08614,0,0,1-2.03217-1.38368,3.015,3.015,0,0,1-.66928-1.97437,3.13947,3.13947,0,0,1,.36506-1.55766,3.09853,3.09853,0,0,1,.99378-1.07215,4.47567,4.47567,0,0,1,1.45619-.619A7.50938,7.50938,0,0,1,14.58465,21a10.56779,10.56779,0,0,1,1.61033.10924,6.37235,6.37235,0,0,1,1.29393.3358v2.41942a3.96064,3.96064,0,0,0-.63682-.356,5.14476,5.14476,0,0,0-.70984-.25489,5.45675,5.45675,0,0,0-.72607-.1497,5.15574,5.15574,0,0,0-.6855-.04855,3.58216,3.58216,0,0,0-.81125.085,2.09235,2.09235,0,0,0-.61655.2387,1.19149,1.19149,0,0,0-.3894.36817.8708.8708,0,0,0-.13791.48146.91656.91656,0,0,0,.15414.52192,1.763,1.763,0,0,0,.43807.437,4.62327,4.62327,0,0,0,.68956.40458q.40538.19875.91671.40863a10.25014,10.25014,0,0,1,1.25338.619,4.46075,4.46075,0,0,1,.95321.74039,2.88975,2.88975,0,0,1,.60844.94268,3.75534,3.75534,0,0,1-.1582,2.86447,2.98726,2.98726,0,0,1-1.00189,1.0681,4.34043,4.34043,0,0,1-1.47241.58665A8.55408,8.55408,0,0,1,13.384,33a9.8943,9.8943,0,0,1-1.82125-.16183A5.496,5.496,0,0,1,10.066,32.35266Z" fill="#fff"/><polyline points="34 5 34 13 42 13 34 5" fill="#fff"/><rect x="24" y="32" width="7" height="1" fill="#c8c8c8"/><rect x="24" y="38" width="7" height="1" fill="#c8c8c8"/><rect x="32" y="32" width="8" height="1" fill="#c8c8c8"/><rect x="24" y="35" width="7" height="1" fill="#c8c8c8"/><rect x="32" y="35" width="8" height="1" fill="#c8c8c8"/><rect x="32" y="38" width="8" height="1" fill="#c8c8c8"/><rect x="37" y="17" width="3" height="3" rx="1.5" ry="1.5" fill="#99cdc7"/><polygon points="35 24 30 30 40 30 35 24" fill="#99cdc7"/><path d="M44,13,34,3H12V45H44Z" fill="url(#79f68e04-4207-4c2c-9fb3-b91ba1949963)"/><rect x="33" y="14" width="10" height="3" fill="url(#12b8469b-2a0d-41ce-9e93-24e0065227a6)"/><polygon points="12 3 12 4 33 4 33 14 43 14 43 28 44 28 44 13 34 3 12 3" fill="url(#f1217537-655c-4d09-a7ea-9ff491d97956)"/><polygon points="24 14 4 17 4 37 24 40 24 14" fill="url(#138d7153-6484-4c4d-8f61-9491ab18b2ae)"/><polygon points="24 43 12 43 12 38.2 24 40 24 43" fill="url(#beac9e56-cf33-40cc-886a-0f012fb51e76)"/></svg>