<svg id="0abb228d-32da-42a0-bf21-0d8dc905e539" data-name="ICONS" xmlns="http://www.w3.org/2000/svg" xmlns:xlink="http://www.w3.org/1999/xlink" viewBox="0 0 48 48"><defs><linearGradient id="f2349b63-290a-435e-aee2-d32b891c9dde" x1="4.58668" y1="5.86411" x2="38.48928" y2="46.26765" gradientUnits="userSpaceOnUse"><stop offset="0" stop-color="#fff" stop-opacity="0"/><stop offset="0.86247" stop-color="#5e5e5e" stop-opacity="0.06315"/><stop offset="1" stop-opacity="0.1"/></linearGradient><linearGradient id="f22265e3-cd2c-4a84-a858-15337c82d1b2" x1="34" y1="16.90625" x2="34" y2="14.08751" gradientUnits="userSpaceOnUse"><stop offset="0" stop-color="#828282" stop-opacity="0"/><stop offset="0.86247" stop-color="#303030" stop-opacity="0.06315"/><stop offset="1" stop-opacity="0.1"/></linearGradient><linearGradient id="5c83613e-b9de-49a7-b39b-deed64f16f2b" x1="28.92" y1="19.08" x2="37.48" y2="10.52" gradientUnits="userSpaceOnUse"><stop offset="0" stop-color="#fff" stop-opacity="0"/><stop offset="0.44604" stop-color="#fff" stop-opacity="0.00799"/><stop offset="0.63551" stop-color="#fff" stop-opacity="0.03616"/><stop offset="0.77636" stop-color="#fff" stop-opacity="0.08493"/><stop offset="0.8924" stop-color="#fff" stop-opacity="0.15385"/><stop offset="0.99328" stop-color="#fff" stop-opacity="0.24291"/><stop offset="1" stop-color="#fff" stop-opacity="0.25"/></linearGradient></defs><title>FileTypeIcons_Master_All_NEW</title><polygon points="39 44 9 44 9 4 30 4 39 13 39 44" fill="#fff"/><path d="M30.00049,3H8V45H40V13ZM30,4.5,38.5,13H30ZM39,44H9V4H29V14H39Z" fill="#949494"/><path d="M25.09185,22.23477q0,.06631.00368.13262t.00368.13261q0,.0663-.00368.13261t-.00368.13262L27,23.95138l-1.17141,2.8217-2.18812-.501q-.17682.19155-.36837.36837l.501,2.18812L20.95138,30l-1.18615-1.90815q-.06631,0-.13262.00368T19.5,28.09921q-.0663,0-.13261-.00368t-.13262-.00368L18.04862,30l-2.8217-1.17141.501-2.18812q-.19155-.17682-.36837-.36837l-2.18812.501L12,23.95138l1.90815-1.18615q0-.06631-.00368-.13262T13.90079,22.5q0-.0663.00368-.13261t.00368-.13262L12,21.04862l1.17141-2.8217,2.18812.501q.17682-.19155.36837-.36837l-.501-2.18812L18.04862,15l1.18615,1.90815q.06631,0,.13262-.00368T19.5,16.90079q.0663,0,.13261.00368t.13262.00368L20.95138,15l2.8217,1.17141-.501,2.18812q.19155.17682.36837.36837l2.18812-.501L27,21.04862Zm-.862.95776q.01475-.1768.02947-.34995t.01474-.35q0-.16944-.01474-.34626t-.02947-.34627l1.73871-1.083-.6336-1.53241-1.99656.46414a6.40247,6.40247,0,0,0-.46783-.51572q-.23944-.23575-.5194-.47151l.46414-1.99656-1.53241-.6336-1.09038,1.73871q-.16944-.01475-.34626-.02947T19.5,17.72593q-.17682,0-.34995.01474t-.34995.02947l-1.083-1.73871-1.53241.6336.46414,1.99656a6.40247,6.40247,0,0,0-.51572.46783q-.23575.23944-.47151.5194L13.665,19.18468l-.6336,1.53241,1.73871,1.09038q-.01474.1768-.02947.34995t-.01474.35q0,.16944.01474.34626t.02947.34627l-1.73871,1.083.6336,1.53241,1.99656-.46414a6.40247,6.40247,0,0,0,.46783.51572q.23944.23575.5194.47151L16.18468,28.335l1.53241.6336,1.09038-1.73871q.16944.01475.34626.02947t.34627.01474q.17682,0,.34995-.01474t.34995-.02947l1.083,1.73871,1.53241-.6336-.46414-1.99656a6.40247,6.40247,0,0,0,.51572-.46783q.23575-.23944.47151-.5194l1.99656.46414.6336-1.53241ZM19.5,19.72986a2.69945,2.69945,0,0,1,1.07932.21734,2.77322,2.77322,0,0,1,1.47348,1.47348,2.78865,2.78865,0,0,1,0,2.15864,2.77322,2.77322,0,0,1-1.47348,1.47348,2.78865,2.78865,0,0,1-2.15864,0,2.77322,2.77322,0,0,1-1.47348-1.47348,2.78865,2.78865,0,0,1,0-2.15864,2.77322,2.77322,0,0,1,1.47348-1.47348A2.69945,2.69945,0,0,1,19.5,19.72986Zm0,4.71513a1.91154,1.91154,0,0,0,.75884-.151A1.94144,1.94144,0,0,0,21.294,23.25884a1.98189,1.98189,0,0,0,0-1.51768A1.94144,1.94144,0,0,0,20.25884,20.706a1.98189,1.98189,0,0,0-1.51768,0A1.94144,1.94144,0,0,0,17.706,21.74116a1.98189,1.98189,0,0,0,0,1.51768A1.94144,1.94144,0,0,0,18.74116,24.294,1.91154,1.91154,0,0,0,19.5,24.445Z" fill="#c8c8c8"/><path d="M31.59569,31.40431a2.25658,2.25658,0,0,0-3.67434.71651,2.275,2.275,0,0,0,0,1.75884,2.25881,2.25881,0,0,0,1.199,1.199,2.27048,2.27048,0,0,0,1.75932,0,2.26312,2.26312,0,0,0,1.199-1.199,2.27048,2.27048,0,0,0,0-1.75932A2.28586,2.28586,0,0,0,31.59569,31.40431Zm-.13744,1.59593a1.44755,1.44755,0,0,1-.11245.5685,1.46075,1.46075,0,0,1-.77706.77658,1.49452,1.49452,0,0,1-1.13748,0,1.45775,1.45775,0,0,1-.77658-.77658,1.48861,1.48861,0,0,1,0-1.13748,1.45775,1.45775,0,0,1,.77658-.77658,1.48861,1.48861,0,0,1,1.13748,0,1.45775,1.45775,0,0,1,.77658.77658A1.44171,1.44171,0,0,1,31.45825,33.00024Z" fill="#c8c8c8"/><path d="M34.48144,33.10837q.00288-.05408.00288-.10813c0-.03652-.001-.07256-.00288-.10861-.00144-.02018-.00192-.03988-.0024-.06007L36,31.88631l-.97073-2.33791-1.743.39886c-.075-.08025-.1533-.15859-.23355-.234l.39886-1.7425L31.11369,27l-.94525,1.52144-.06007-.00288a2.04034,2.04034,0,0,0-.21674,0l-.06007.00288L28.88631,27l-2.33791.97073.39886,1.7425c-.08025.07544-.15859.15378-.234.234l-1.7425-.39886L24,31.88631l1.52144.94525-.00288.06007c-.00192.03605-.00288.07209-.00288.10861q0,.05406.00288.10813l.00288.06007L24,34.11369l.97073,2.33791,1.7425-.39886c.07544.08025.15378.15859.234.23355l-.39886,1.743L28.88631,39l.94525-1.521c.02019.00048.03989.001.06007.0024a2.04034,2.04034,0,0,0,.21674,0c.0197-.00144.03988-.00192.06007-.0024L31.11369,39l2.33791-.97073-.39886-1.743c.08025-.075.15859-.1533.23355-.23355l1.743.39886L36,34.11369l-1.521-.94525C34.47952,33.14825,34.48,33.12807,34.48144,33.10837ZM32.9672,35.19831c-.123.14609-.247.28257-.36762.40463a4.86586,4.86586,0,0,1-.40031.3633l-.03556.02931.36186,1.55653-1.09135.45124-.84434-1.35469-.32053.02691a3.17119,3.17119,0,0,1-.5363,0l-.31717-.02739-.84962,1.35517-1.09183-.45124.36186-1.556-.0346-.02884c-.14465-.12158-.28065-.24508-.40511-.36762a5.13882,5.13882,0,0,1-.3633-.40031l-.02883-.03556-1.556.36186-.45172-1.09135,1.35517-.84434-.02691-.31764c-.00769-.09083-.01154-.17973-.01154-.26623,0-.09131.00385-.18069.01154-.2696l.02691-.32053-1.35517-.84962.45172-1.09183,1.55508.36186.02932-.0346c.12158-.14465.24508-.28065.36762-.40511a5.13882,5.13882,0,0,1,.40031-.3633l.036-.02883-.36234-1.556,1.09183-.45172.84386,1.35517.32053-.02691a3.02222,3.02222,0,0,1,.53582,0l.31765.02691.84962-1.35517,1.09183.45172-.36186,1.55508.0346.02932c.14609.123.28257.24652.40463.36762a4.86586,4.86586,0,0,1,.3633.40031l.02931.036,1.55653-.36234.45124,1.09183-1.35469.84386.02691.31716c.00769.09131.01154.17973.01154.26671q0,.13625-.01154.2696l-.02691.32053,1.35469.84962-.45124,1.09183-1.556-.36186Z" fill="#c8c8c8"/><path d="M40,13,30,3H8V45H40Z" fill="url(#f2349b63-290a-435e-aee2-d32b891c9dde)"/><rect x="29" y="14" width="10" height="3" fill="url(#f22265e3-cd2c-4a84-a858-15337c82d1b2)"/><polygon points="8 3 8 4 29 4 29 14 39 14 39 45 40 45 40 13 30 3 8 3" fill="url(#5c83613e-b9de-49a7-b39b-deed64f16f2b)"/></svg>