<?xml version="1.0" encoding="utf-8"?>
<!-- Generator: Adobe Illustrator 21.1.0, SVG Export Plug-In . SVG Version: 6.00 Build 0)  -->
<svg version="1.1" xmlns="http://www.w3.org/2000/svg" xmlns:xlink="http://www.w3.org/1999/xlink" x="0px" y="0px"
	 viewBox="0 0 48 48" enable-background="new 0 0 48 48" xml:space="preserve">
<g id="TEMPLATE" display="none">
	<g display="inline">
		<path fill="#D0D0D0" d="M48,0v48H0V0H48 M49-1h-1H0h-1v1v48v1h1h48h1v-1V0V-1L49-1z"/>
	</g>
	<g display="inline" opacity="0.1">
		<path fill="#FF3A6D" d="M45,3v42H3V3H45 M48,0H0v48h48V0L48,0z"/>
	</g>
</g>
<g id="ICONS">
	<g>
		<polygon fill="#FFFFFF" points="39,44 9,44 9,4 30,4 39,13 		"/>
		<path fill="#949494" d="M30.0005,3H8v42h32V13L30.0005,3z M30,4.5l8.5,8.5H30V4.5z M39,44H9V4h20v10h10V44z"/>
	</g>
	<g>
		<path fill="#C8C8C8" d="M25.0918,22.2348c0,0.0442,0.0012,0.0884,0.0037,0.1326c0.0025,0.0442,0.0037,0.0884,0.0037,0.1326
			s-0.0012,0.0884-0.0037,0.1326c-0.0025,0.0442-0.0037,0.0884-0.0037,0.1326L27,23.9514l-1.1714,2.8217l-2.1881-0.501
			c-0.1179,0.1277-0.2407,0.2505-0.3684,0.3684l0.501,2.1881L20.9514,30l-1.1861-1.9082c-0.0442,0-0.0884,0.0012-0.1326,0.0037
			c-0.0442,0.0025-0.0884,0.0037-0.1326,0.0037s-0.0884-0.0012-0.1326-0.0037c-0.0442-0.0025-0.0884-0.0037-0.1326-0.0037
			L18.0486,30l-2.8217-1.1714l0.501-2.1881c-0.1277-0.1179-0.2505-0.2407-0.3684-0.3684l-2.1881,0.501L12,23.9514l1.9082-1.1861
			c0-0.0442-0.0012-0.0884-0.0037-0.1326c-0.0025-0.0442-0.0037-0.0884-0.0037-0.1326s0.0012-0.0884,0.0037-0.1326
			c0.0025-0.0442,0.0037-0.0884,0.0037-0.1326L12,21.0486l1.1714-2.8217l2.1881,0.501c0.1179-0.1277,0.2407-0.2505,0.3684-0.3684
			l-0.501-2.1881L18.0486,15l1.1861,1.9082c0.0442,0,0.0884-0.0012,0.1326-0.0037c0.0442-0.0025,0.0884-0.0037,0.1326-0.0037
			s0.0884,0.0012,0.1326,0.0037c0.0442,0.0025,0.0884,0.0037,0.1326,0.0037L20.9514,15l2.8217,1.1714l-0.501,2.1881
			c0.1277,0.1179,0.2505,0.2407,0.3684,0.3684l2.1881-0.501L27,21.0486L25.0918,22.2348z M24.2299,23.1925
			c0.0098-0.1179,0.0196-0.2345,0.0295-0.35c0.0098-0.1154,0.0147-0.2321,0.0147-0.35c0-0.113-0.0049-0.2284-0.0147-0.3463
			c-0.0098-0.1179-0.0196-0.2333-0.0295-0.3463l1.7387-1.083l-0.6336-1.5324l-1.9966,0.4641
			c-0.1523-0.1866-0.3082-0.3585-0.4678-0.5157c-0.1596-0.1572-0.3328-0.3143-0.5194-0.4715l0.4641-1.9966l-1.5324-0.6336
			l-1.0904,1.7387c-0.113-0.0098-0.2284-0.0196-0.3463-0.0295c-0.1179-0.0098-0.2333-0.0147-0.3463-0.0147
			c-0.1179,0-0.2345,0.0049-0.35,0.0147c-0.1154,0.0098-0.2321,0.0196-0.35,0.0295l-1.083-1.7387l-1.5324,0.6336l0.4641,1.9966
			c-0.1866,0.1523-0.3585,0.3082-0.5157,0.4678c-0.1572,0.1596-0.3143,0.3328-0.4715,0.5194l-1.9966-0.4641l-0.6336,1.5324
			l1.7387,1.0904c-0.0098,0.1179-0.0196,0.2345-0.0295,0.35c-0.0098,0.1154-0.0147,0.2321-0.0147,0.35
			c0,0.113,0.0049,0.2284,0.0147,0.3463c0.0098,0.1179,0.0196,0.2333,0.0295,0.3463l-1.7387,1.083l0.6336,1.5324l1.9966-0.4641
			c0.1523,0.1866,0.3082,0.3585,0.4678,0.5157c0.1596,0.1572,0.3328,0.3143,0.5194,0.4715l-0.4641,1.9966l1.5324,0.6336
			l1.0904-1.7387c0.113,0.0098,0.2284,0.0196,0.3463,0.0295c0.1179,0.0098,0.2333,0.0147,0.3463,0.0147
			c0.1179,0,0.2345-0.0049,0.35-0.0147c0.1154-0.0098,0.2321-0.0196,0.35-0.0295l1.083,1.7387l1.5324-0.6336l-0.4641-1.9966
			c0.1866-0.1523,0.3585-0.3082,0.5157-0.4678c0.1572-0.1596,0.3143-0.3328,0.4715-0.5194l1.9966,0.4641l0.6336-1.5324
			L24.2299,23.1925z M19.5,19.7299c0.3831,0,0.7429,0.0724,1.0793,0.2173c0.3364,0.1449,0.6299,0.3426,0.8804,0.5931
			c0.2505,0.2505,0.4482,0.544,0.5931,0.8804c0.1449,0.3364,0.2173,0.6962,0.2173,1.0793s-0.0724,0.7429-0.2173,1.0793
			c-0.1449,0.3364-0.3426,0.6299-0.5931,0.8804c-0.2505,0.2505-0.544,0.4482-0.8804,0.5931
			c-0.3364,0.1449-0.6962,0.2173-1.0793,0.2173s-0.7429-0.0724-1.0793-0.2173c-0.3364-0.1449-0.6299-0.3426-0.8804-0.5931
			c-0.2505-0.2505-0.4482-0.544-0.5931-0.8804c-0.1449-0.3364-0.2173-0.6962-0.2173-1.0793s0.0724-0.7429,0.2173-1.0793
			c0.1449-0.3364,0.3426-0.6299,0.5931-0.8804c0.2505-0.2505,0.544-0.4482,0.8804-0.5931
			C18.7571,19.8023,19.1169,19.7299,19.5,19.7299z M19.5,24.445c0.2701,0,0.5231-0.0503,0.7588-0.151s0.442-0.2394,0.6189-0.4163
			s0.3156-0.3831,0.4163-0.6189s0.151-0.4887,0.151-0.7588s-0.0503-0.5231-0.151-0.7588s-0.2394-0.442-0.4163-0.6189
			s-0.3831-0.3156-0.6189-0.4163s-0.4887-0.151-0.7588-0.151s-0.5231,0.0503-0.7588,0.151s-0.442,0.2394-0.6189,0.4163
			s-0.3156,0.3831-0.4163,0.6189s-0.151,0.4887-0.151,0.7588s0.0503,0.5231,0.151,0.7588s0.2394,0.442,0.4163,0.6189
			s0.3831,0.3156,0.6189,0.4163S19.2299,24.445,19.5,24.445z"/>
	</g>
	<g>
		<path fill="#C8C8C8" d="M31.5957,31.4043c-0.2023-0.2028-0.4431-0.3657-0.716-0.483c-0.5464-0.2355-1.2139-0.2345-1.7593,0
			c-0.2725,0.1173-0.5137,0.2802-0.716,0.4825c-0.2033,0.2033-0.3657,0.444-0.483,0.717c-0.1173,0.273-0.1768,0.569-0.1768,0.8794
			s0.0596,0.6065,0.1768,0.8794c0.1173,0.272,0.2797,0.5132,0.4825,0.716c0.2033,0.2033,0.444,0.3657,0.7165,0.483
			c0.273,0.1177,0.569,0.1773,0.8799,0.1773c0.3104,0,0.6065-0.0596,0.8794-0.1773c0.272-0.1173,0.5132-0.2797,0.716-0.483
			c0.2028-0.2023,0.3652-0.4431,0.483-0.716s0.1773-0.569,0.1773-0.8794s-0.0596-0.6065-0.1773-0.8799
			C31.9609,31.8479,31.7985,31.6066,31.5957,31.4043z M31.4583,33.0002c0,0.2014-0.038,0.3931-0.1125,0.5685
			c-0.0759,0.1764-0.1807,0.3325-0.3128,0.4642c-0.1322,0.1322-0.2883,0.2374-0.4642,0.3124c-0.3503,0.1499-0.7872,0.1499-1.1375,0
			c-0.1759-0.075-0.3321-0.1802-0.4642-0.3124c-0.1322-0.1322-0.2374-0.2883-0.3124-0.4642
			c-0.075-0.1754-0.1129-0.3667-0.1129-0.5685c0-0.2023,0.038-0.3941,0.1129-0.569c0.075-0.1759,0.1802-0.3321,0.3124-0.4642
			c0.1317-0.1317,0.2879-0.2369,0.4642-0.3124c0.1759-0.075,0.3671-0.1129,0.569-0.1129c0.2014,0,0.3931,0.038,0.5685,0.1129
			c0.1764,0.0754,0.3325,0.1807,0.4642,0.3124c0.1322,0.1317,0.2369,0.2879,0.3124,0.4642
			C31.4203,32.6071,31.4583,32.7984,31.4583,33.0002z"/>
		<path fill="#C8C8C8" d="M34.4814,33.1084c0.0019-0.036,0.0029-0.0721,0.0029-0.1081c0-0.0365-0.001-0.0726-0.0029-0.1086
			c-0.0014-0.0202-0.0019-0.0399-0.0024-0.0601L36,31.8863l-0.9707-2.3379l-1.743,0.3989c-0.075-0.0803-0.1533-0.1586-0.2336-0.234
			l0.3989-1.7425L31.1137,27l-0.9453,1.5214c-0.0202-0.001-0.0404-0.0019-0.0601-0.0029c-0.0721-0.0038-0.1446-0.0038-0.2167,0
			c-0.0202,0.001-0.0399,0.0019-0.0601,0.0029L28.8863,27l-2.3379,0.9707l0.3989,1.7425c-0.0803,0.0754-0.1586,0.1538-0.234,0.234
			l-1.7425-0.3989L24,31.8863l1.5214,0.9453c-0.001,0.0202-0.0019,0.0399-0.0029,0.0601c-0.0019,0.036-0.0029,0.0721-0.0029,0.1086
			c0,0.036,0.001,0.0721,0.0029,0.1081c0.001,0.0197,0.0019,0.0399,0.0029,0.0601L24,34.1137l0.9707,2.3379l1.7425-0.3989
			c0.0754,0.0803,0.1538,0.1586,0.234,0.2336l-0.3989,1.743L28.8863,39l0.9453-1.521c0.0202,0.0005,0.0399,0.001,0.0601,0.0024
			c0.0721,0.0038,0.1446,0.0038,0.2167,0c0.0197-0.0014,0.0399-0.0019,0.0601-0.0024L31.1137,39l2.3379-0.9707l-0.3989-1.743
			c0.0803-0.075,0.1586-0.1533,0.2336-0.2336l1.743,0.3989L36,34.1137l-1.521-0.9453C34.4795,33.1483,34.48,33.1281,34.4814,33.1084
			z M32.9672,35.1983c-0.123,0.1461-0.247,0.2826-0.3676,0.4046c-0.1206,0.123-0.2552,0.2451-0.4003,0.3633l-0.0356,0.0293
			l0.3619,1.5565l-1.0913,0.4512l-0.8443-1.3547l-0.3205,0.0269c-0.1749,0.0149-0.3508,0.0154-0.5363,0l-0.3172-0.0274
			l-0.8496,1.3552l-1.0918-0.4512l0.3619-1.556l-0.0346-0.0288c-0.1446-0.1216-0.2806-0.2451-0.4051-0.3676
			c-0.1221-0.1206-0.2446-0.2552-0.3633-0.4003l-0.0288-0.0356l-1.556,0.3619l-0.4517-1.0913l1.3552-0.8443l-0.0269-0.3176
			c-0.0077-0.0908-0.0115-0.1797-0.0115-0.2662c0-0.0913,0.0038-0.1807,0.0115-0.2696l0.0269-0.3205l-1.3552-0.8496l0.4517-1.0918
			l1.5551,0.3619l0.0293-0.0346c0.1216-0.1446,0.2451-0.2806,0.3676-0.4051c0.1206-0.1221,0.2552-0.2446,0.4003-0.3633l0.036-0.0288
			l-0.3623-1.556l1.0918-0.4517l0.8439,1.3552l0.3205-0.0269c0.174-0.0154,0.3503-0.0163,0.5358,0l0.3176,0.0269l0.8496-1.3552
			l1.0918,0.4517l-0.3619,1.5551l0.0346,0.0293c0.1461,0.123,0.2826,0.2465,0.4046,0.3676c0.123,0.1206,0.2451,0.2552,0.3633,0.4003
			l0.0293,0.036l1.5565-0.3623l0.4512,1.0918l-1.3547,0.8439l0.0269,0.3172c0.0077,0.0913,0.0115,0.1797,0.0115,0.2667
			c0,0.0908-0.0038,0.1807-0.0115,0.2696l-0.0269,0.3205l1.3547,0.8496l-0.4512,1.0918l-1.556-0.3619L32.9672,35.1983z"/>
	</g>
	<linearGradient id="SVGID_1_" gradientUnits="userSpaceOnUse" x1="4.5867" y1="5.8641" x2="38.4893" y2="46.2676">
		<stop  offset="0" style="stop-color:#FFFFFF;stop-opacity:0"/>
		<stop  offset="0.2264" style="stop-color:#FCFCFC;stop-opacity:0.0226"/>
		<stop  offset="0.3626" style="stop-color:#F4F4F4;stop-opacity:0.0363"/>
		<stop  offset="0.475" style="stop-color:#E6E6E6;stop-opacity:0.0475"/>
		<stop  offset="0.5744" style="stop-color:#D1D1D1;stop-opacity:0.0574"/>
		<stop  offset="0.6652" style="stop-color:#B7B7B7;stop-opacity:0.0665"/>
		<stop  offset="0.7498" style="stop-color:#979797;stop-opacity:0.075"/>
		<stop  offset="0.8297" style="stop-color:#707070;stop-opacity:0.083"/>
		<stop  offset="0.9057" style="stop-color:#444444;stop-opacity:0.0906"/>
		<stop  offset="0.9761" style="stop-color:#121212;stop-opacity:0.0976"/>
		<stop  offset="1" style="stop-color:#000000;stop-opacity:0.1"/>
	</linearGradient>
	<path fill="url(#SVGID_1_)" d="M40,13L30,3H8v42h32V13z"/>
	<linearGradient id="SVGID_2_" gradientUnits="userSpaceOnUse" x1="34" y1="16.9063" x2="34" y2="14.0875">
		<stop  offset="0" style="stop-color:#828282;stop-opacity:0"/>
		<stop  offset="0.2812" style="stop-color:#7F7F7F;stop-opacity:0.0281"/>
		<stop  offset="0.4503" style="stop-color:#777777;stop-opacity:0.045"/>
		<stop  offset="0.5899" style="stop-color:#696969;stop-opacity:0.059"/>
		<stop  offset="0.7133" style="stop-color:#545454;stop-opacity:0.0713"/>
		<stop  offset="0.8259" style="stop-color:#3A3A3A;stop-opacity:0.0826"/>
		<stop  offset="0.9294" style="stop-color:#1A1A1A;stop-opacity:0.0929"/>
		<stop  offset="1" style="stop-color:#000000;stop-opacity:0.1"/>
	</linearGradient>
	<rect x="29" y="14" fill="url(#SVGID_2_)" width="10" height="3"/>
	<linearGradient id="SVGID_3_" gradientUnits="userSpaceOnUse" x1="28.92" y1="19.08" x2="37.48" y2="10.52">
		<stop  offset="0" style="stop-color:#FFFFFF;stop-opacity:0"/>
		<stop  offset="0.8537" style="stop-color:#FFFFFF;stop-opacity:0.2134"/>
		<stop  offset="1" style="stop-color:#FFFFFF;stop-opacity:0.25"/>
	</linearGradient>
	<polygon fill="url(#SVGID_3_)" points="8,3 8,4 29,4 29,14 39,14 39,45 40,45 40,13 30,3 	"/>
</g>
</svg>
