<svg id="e2a90d55-53cf-4b55-8a7e-4e2547d73eb3" data-name="ICONS" xmlns="http://www.w3.org/2000/svg" xmlns:xlink="http://www.w3.org/1999/xlink" viewBox="0 0 48 48"><defs><linearGradient id="ed0edc52-a87c-48ba-a2f5-0501c262e771" x1="4.58668" y1="5.86411" x2="38.48928" y2="46.26765" gradientUnits="userSpaceOnUse"><stop offset="0" stop-color="#fff" stop-opacity="0"/><stop offset="0.86247" stop-color="#5e5e5e" stop-opacity="0.06315"/><stop offset="1" stop-opacity="0.1"/></linearGradient><linearGradient id="3b1cc90f-8e1f-4f88-a1aa-ce68663d461a" x1="34" y1="16.90625" x2="34" y2="14.08751" gradientUnits="userSpaceOnUse"><stop offset="0" stop-color="#828282" stop-opacity="0"/><stop offset="0.86247" stop-color="#303030" stop-opacity="0.06315"/><stop offset="1" stop-opacity="0.1"/></linearGradient><linearGradient id="d00b6570-2cac-44df-8741-eedae8f1dec9" x1="28.92" y1="19.08" x2="37.48" y2="10.52" gradientUnits="userSpaceOnUse"><stop offset="0" stop-color="#fff" stop-opacity="0"/><stop offset="0.44604" stop-color="#fff" stop-opacity="0.00799"/><stop offset="0.63551" stop-color="#fff" stop-opacity="0.03616"/><stop offset="0.77636" stop-color="#fff" stop-opacity="0.08493"/><stop offset="0.8924" stop-color="#fff" stop-opacity="0.15385"/><stop offset="0.99328" stop-color="#fff" stop-opacity="0.24291"/><stop offset="1" stop-color="#fff" stop-opacity="0.25"/></linearGradient></defs><title>FileTypeIcons_Master_All_NEW</title><polygon points="39 44 9 44 9 4 30 4 39 13 39 44" fill="#fff"/><path d="M30.00049,3H8V45H40V13ZM30,4.5,38.5,13H30ZM39,44H9V4H29V14H39Z" fill="#949494"/><path d="M17,36v4H13V36h4m1-1H12v6h6V35Z" fill="#0078d7"/><polygon points="30 35 29 41 24 29 36 34 30 35" fill="#0078d7"/><path d="M35,18v4H31V18h4m1-1H30v6h6V17Z" fill="#0078d7"/><circle cx="20" cy="25" r="3" fill="#0078d7"/><path d="M17.34766,29.22168a5.04668,5.04668,0,0,1-.79444-.61621A19.49441,19.49441,0,0,0,14.73438,33h1.03173A18.48993,18.48993,0,0,1,17.34766,29.22168Z" fill="#c8c8c8"/><path d="M24.16162,22.23682A18.53766,18.53766,0,0,1,28,20.49756V19.45605a19.48559,19.48559,0,0,0-4.47754,2.001A5.03193,5.03193,0,0,1,24.16162,22.23682Z" fill="#c8c8c8"/><path d="M40,13,30,3H8V45H40Z" fill="url(#ed0edc52-a87c-48ba-a2f5-0501c262e771)"/><rect x="29" y="14" width="10" height="3" fill="url(#3b1cc90f-8e1f-4f88-a1aa-ce68663d461a)"/><polygon points="8 3 8 4 29 4 29 14 39 14 39 45 40 45 40 13 30 3 8 3" fill="url(#d00b6570-2cac-44df-8741-eedae8f1dec9)"/></svg>