<svg id="065ea193-e1cd-4855-8ca6-a34600abf4d6" data-name="ICONS" xmlns="http://www.w3.org/2000/svg" viewBox="0 0 48 48"><title>FileTypeIcons_Master_All_NEW</title><path d="M3,9V39H45V9ZM44,38H4V10H44Z" fill="#949494"/><polygon points="18 17 18 31 31 24 18 17" fill="#949494"/><rect x="6" y="35" width="2" height="2" fill="#949494"/><rect x="6" y="31" width="2" height="2" fill="#949494"/><rect x="6" y="27" width="2" height="2" fill="#949494"/><rect x="6" y="23" width="2" height="2" fill="#949494"/><rect x="6" y="19" width="2" height="2" fill="#949494"/><rect x="6" y="15" width="2" height="2" fill="#949494"/><rect x="6" y="11" width="2" height="2" fill="#949494"/><rect x="40" y="35" width="2" height="2" fill="#949494"/><rect x="40" y="31" width="2" height="2" fill="#949494"/><rect x="40" y="27" width="2" height="2" fill="#949494"/><rect x="40" y="23" width="2" height="2" fill="#949494"/><rect x="40" y="19" width="2" height="2" fill="#949494"/><rect x="40" y="15" width="2" height="2" fill="#949494"/><rect x="40" y="11" width="2" height="2" fill="#949494"/></svg>