<svg id="14e87e69-a59c-4acd-a84a-80dc9091eac9" data-name="ICONS" xmlns="http://www.w3.org/2000/svg" xmlns:xlink="http://www.w3.org/1999/xlink" viewBox="0 0 48 48"><defs><linearGradient id="c778e561-6e3b-4a44-a11f-e048c6b77da9" x1="7.93725" y1="4.85716" x2="40.06275" y2="43.14284" gradientUnits="userSpaceOnUse"><stop offset="0" stop-color="#fff" stop-opacity="0"/><stop offset="0.86247" stop-color="#5e5e5e" stop-opacity="0.06315"/><stop offset="1" stop-opacity="0.1"/></linearGradient><linearGradient id="a63a7ce1-d7ef-44f5-9df4-0a02fba4596f" x1="22.85417" y1="25.08966" x2="42.61458" y2="6.2979" gradientUnits="userSpaceOnUse"><stop offset="0" stop-color="#fff" stop-opacity="0"/><stop offset="0.44604" stop-color="#fff" stop-opacity="0.00799"/><stop offset="0.63551" stop-color="#fff" stop-opacity="0.03616"/><stop offset="0.77636" stop-color="#fff" stop-opacity="0.08493"/><stop offset="0.8924" stop-color="#fff" stop-opacity="0.15385"/><stop offset="0.99328" stop-color="#fff" stop-opacity="0.24291"/><stop offset="1" stop-color="#fff" stop-opacity="0.25"/></linearGradient></defs><title>FileTypeIcons_Master_All_NEW</title><rect x="4" y="10" width="40" height="28" fill="#fff"/><rect x="3" y="9" width="42" height="30" fill="url(#c778e561-6e3b-4a44-a11f-e048c6b77da9)"/><path d="M3,9V39H45V9ZM44,38H4V10H44Z" fill="#949494"/><polygon points="18 17 18 31 31 24 18 17" fill="#69afe5"/><rect x="6" y="35" width="2" height="2" fill="#c8c8c8"/><rect x="6" y="31" width="2" height="2" fill="#c8c8c8"/><rect x="6" y="27" width="2" height="2" fill="#c8c8c8"/><rect x="6" y="23" width="2" height="2" fill="#c8c8c8"/><rect x="6" y="19" width="2" height="2" fill="#c8c8c8"/><rect x="6" y="15" width="2" height="2" fill="#c8c8c8"/><rect x="6" y="11" width="2" height="2" fill="#c8c8c8"/><rect x="40" y="35" width="2" height="2" fill="#c8c8c8"/><rect x="40" y="31" width="2" height="2" fill="#c8c8c8"/><rect x="40" y="27" width="2" height="2" fill="#c8c8c8"/><rect x="40" y="23" width="2" height="2" fill="#c8c8c8"/><rect x="40" y="19" width="2" height="2" fill="#c8c8c8"/><rect x="40" y="15" width="2" height="2" fill="#c8c8c8"/><rect x="40" y="11" width="2" height="2" fill="#c8c8c8"/><polygon points="45 9 3 9 3 10 44 10 44 39 45 39 45 9" fill="url(#a63a7ce1-d7ef-44f5-9df4-0a02fba4596f)"/></svg>