<?xml version="1.0" encoding="utf-8"?>
<!-- Generator: Adobe Illustrator 21.1.0, SVG Export Plug-In . SVG Version: 6.00 Build 0)  -->
<svg version="1.1" xmlns="http://www.w3.org/2000/svg" xmlns:xlink="http://www.w3.org/1999/xlink" x="0px" y="0px"
	 viewBox="0 0 48 48" enable-background="new 0 0 48 48" xml:space="preserve">
<g id="TEMPLATE" display="none">
	<g display="inline">
		<path fill="#D0D0D0" d="M48,0v48H0V0H48 M49-1h-1H0h-1v1v48v1h1h48h1v-1V0V-1L49-1z"/>
	</g>
	<g display="inline" opacity="0.1">
		<path fill="#FF3A6D" d="M45,3v42H3V3H45 M48,0H0v48h48V0L48,0z"/>
	</g>
</g>
<g id="ICONS">
	<path fill="#949494" d="M3,9v30h42V9H3z M44,38H4V10h40V38z"/>
	<polygon fill="#949494" points="18,17 18,31 31,24 	"/>
	<g>
		<rect x="6" y="35" fill="#949494" width="2" height="2"/>
		<rect x="6" y="31" fill="#949494" width="2" height="2"/>
		<rect x="6" y="27" fill="#949494" width="2" height="2"/>
		<rect x="6" y="23" fill="#949494" width="2" height="2"/>
		<rect x="6" y="19" fill="#949494" width="2" height="2"/>
		<rect x="6" y="15" fill="#949494" width="2" height="2"/>
		<rect x="6" y="11" fill="#949494" width="2" height="2"/>
	</g>
	<g>
		<rect x="40" y="35" fill="#949494" width="2" height="2"/>
		<rect x="40" y="31" fill="#949494" width="2" height="2"/>
		<rect x="40" y="27" fill="#949494" width="2" height="2"/>
		<rect x="40" y="23" fill="#949494" width="2" height="2"/>
		<rect x="40" y="19" fill="#949494" width="2" height="2"/>
		<rect x="40" y="15" fill="#949494" width="2" height="2"/>
		<rect x="40" y="11" fill="#949494" width="2" height="2"/>
	</g>
</g>
</svg>
