<svg id="f62f34b9-6e12-4158-9008-35845d6c938c" data-name="ICONS" xmlns="http://www.w3.org/2000/svg" xmlns:xlink="http://www.w3.org/1999/xlink" viewBox="0 0 48 48"><defs><linearGradient id="843946ac-64c7-4c13-9f7b-60d6b18afa4f" x1="11.0487" y1="3.79823" x2="44.9513" y2="44.20177" gradientUnits="userSpaceOnUse"><stop offset="0" stop-color="#fff" stop-opacity="0"/><stop offset="0.86247" stop-color="#5e5e5e" stop-opacity="0.06315"/><stop offset="1" stop-opacity="0.1"/></linearGradient><linearGradient id="abcd63cc-f615-4d7b-9db6-dcf96f4faf49" x1="33.67" y1="9.83" x2="42.23" y2="1.27" gradientUnits="userSpaceOnUse"><stop offset="0" stop-color="#fff" stop-opacity="0"/><stop offset="0.44604" stop-color="#fff" stop-opacity="0.00799"/><stop offset="0.63551" stop-color="#fff" stop-opacity="0.03616"/><stop offset="0.77636" stop-color="#fff" stop-opacity="0.08493"/><stop offset="0.8924" stop-color="#fff" stop-opacity="0.15385"/><stop offset="0.99328" stop-color="#fff" stop-opacity="0.24291"/><stop offset="1" stop-color="#fff" stop-opacity="0.25"/></linearGradient><linearGradient id="c7a914b3-e075-4234-ae41-412b2146d6ec" x1="17.75381" y1="42.91826" x2="18.17734" y2="38.93002" gradientUnits="userSpaceOnUse"><stop offset="0" stop-color="#828282" stop-opacity="0"/><stop offset="0.99719" stop-opacity="0.2"/></linearGradient><linearGradient id="b35dad42-47fc-4012-8892-191b3a3701c6" x1="14" y1="39.1875" x2="14" y2="14.75839" gradientUnits="userSpaceOnUse"><stop offset="0" stop-color="#fff" stop-opacity="0"/><stop offset="0.52587" stop-color="#fff" stop-opacity="0.00735"/><stop offset="0.71529" stop-color="#fff" stop-opacity="0.03396"/><stop offset="0.8503" stop-color="#fff" stop-opacity="0.0803"/><stop offset="0.95875" stop-color="#fff" stop-opacity="0.14595"/><stop offset="1" stop-color="#fff" stop-opacity="0.18"/></linearGradient></defs><title>FileTypeIcons_Master_All_NEW</title><rect x="13" y="4" width="30" height="40" fill="#fff"/><path d="M16,7V23H27V7H16ZM26,8V22H17V8Z" fill="#c8c8c8"/><path d="M16,25V41H27V25H16Zm10,1V40H17V26Z" fill="#c8c8c8"/><path d="M30.22222,7H29V23H40V7ZM39,22H30V8h9Z" fill="#c8c8c8"/><path d="M29,25V41H40V25H29Zm10,1V40H30V26Z" fill="#c8c8c8"/><path d="M12,3V45H44V3ZM43,44H13V4H43Z" fill="#949494"/><polygon points="4 17 24 14 24 40 4 37 4 17" fill="#3955a3"/><path d="M19,21,15.33531,33H12.62018L9,21h2.5816l2.2181,8.35146a6.66987,6.66987,0,0,1,.21514,1.19666h.04451a7.51814,7.51814,0,0,1,.23-1.23013L16.49258,21Z" fill="#fff"/><path d="M44,3H12V45H44Z" fill="url(#843946ac-64c7-4c13-9f7b-60d6b18afa4f)"/><polygon points="12 3 12 4 43 4 43 28 44 28 44 3 12 3" fill="url(#abcd63cc-f615-4d7b-9db6-dcf96f4faf49)"/><polygon points="24 43 12 43 12 38.2 24 40 24 43" fill="url(#c7a914b3-e075-4234-ae41-412b2146d6ec)"/><polygon points="24 14 4 17 4 37 24 40 24 14" fill="url(#b35dad42-47fc-4012-8892-191b3a3701c6)"/></svg>