<svg id="3fa9ab83-bf2b-431d-b1e0-6dc50a51f424" data-name="ICONS" xmlns="http://www.w3.org/2000/svg" xmlns:xlink="http://www.w3.org/1999/xlink" viewBox="0 0 48 48"><defs><linearGradient id="72c0a340-f71a-4c43-9db0-34259c2b34ae" x1="17.75381" y1="42.91826" x2="18.17734" y2="38.93002" gradientUnits="userSpaceOnUse"><stop offset="0" stop-color="#828282" stop-opacity="0"/><stop offset="0.99719" stop-opacity="0.2"/></linearGradient><linearGradient id="482651b7-9e70-4f6b-ac72-6a1b64e3b2bb" x1="12.99899" y1="8.2195" x2="40.00101" y2="42.7805" gradientUnits="userSpaceOnUse"><stop offset="0" stop-color="#fff" stop-opacity="0"/><stop offset="0.86247" stop-color="#5e5e5e" stop-opacity="0.06315"/><stop offset="1" stop-opacity="0.1"/></linearGradient><linearGradient id="e95ed3bd-3b7a-49f6-85d9-f3a7f297d1b3" x1="23.42827" y1="18.72854" x2="43.9713" y2="45.02242" xlink:href="#482651b7-9e70-4f6b-ac72-6a1b64e3b2bb"/><linearGradient id="141b648c-9371-4371-9a9d-f6b8bba9ee6c" x1="28" y1="44.90625" x2="28" y2="42.08751" gradientUnits="userSpaceOnUse"><stop offset="0" stop-color="#828282" stop-opacity="0"/><stop offset="0.86247" stop-color="#303030" stop-opacity="0.06315"/><stop offset="1" stop-opacity="0.1"/></linearGradient><linearGradient id="dfc1a796-e78c-469e-a67e-bde842a51c47" x1="27.83875" y1="8.57677" x2="28.1656" y2="2.34018" gradientUnits="userSpaceOnUse"><stop offset="0" stop-color="#fff" stop-opacity="0"/><stop offset="0.44604" stop-color="#fff" stop-opacity="0.00799"/><stop offset="0.63551" stop-color="#fff" stop-opacity="0.03616"/><stop offset="0.77636" stop-color="#fff" stop-opacity="0.08493"/><stop offset="0.8924" stop-color="#fff" stop-opacity="0.15385"/><stop offset="0.99328" stop-color="#fff" stop-opacity="0.24291"/><stop offset="1" stop-color="#fff" stop-opacity="0.25"/></linearGradient><linearGradient id="3fe1315d-7d65-438a-b76a-629c02014d97" x1="14" y1="39.1875" x2="14" y2="14.75839" gradientUnits="userSpaceOnUse"><stop offset="0" stop-color="#fff" stop-opacity="0"/><stop offset="0.52587" stop-color="#fff" stop-opacity="0.00735"/><stop offset="0.71529" stop-color="#fff" stop-opacity="0.03396"/><stop offset="0.8503" stop-color="#fff" stop-opacity="0.0803"/><stop offset="0.95875" stop-color="#fff" stop-opacity="0.14595"/><stop offset="1" stop-color="#fff" stop-opacity="0.18"/></linearGradient></defs><title>FileTypeIcons_Master_All_NEW</title><polygon points="41 6 41 3 12 3 12 42 15 42 15 45 44 45 44 6 41 6" fill="#fff"/><path d="M26,25v5H21V25h5m1-1H20v7h7V24Z" fill="#c8c8c8"/><polygon points="41 3 12 3 12 9 13 9 41 9 41 5 44 8 44 6 41 3" fill="#3955a3"/><polygon points="43 7 43 44 16 44 16 42 41 42 41 9 40 9 40 41 16 41 15 41 13 41 13 9 12 9 12 42 15 42 15 45 44 45 44 8 43 7" fill="#949494"/><path d="M33.5,32A2.5,2.5,0,1,1,31,34.5,2.50294,2.50294,0,0,1,33.5,32m0-1A3.5,3.5,0,1,0,37,34.5,3.49985,3.49985,0,0,0,33.5,31Z" fill="#c8c8c8"/><path d="M30.5,16A2.5,2.5,0,1,1,28,18.5,2.50294,2.50294,0,0,1,30.5,16m0-1A3.5,3.5,0,1,0,34,18.5,3.49985,3.49985,0,0,0,30.5,15Z" fill="#c8c8c8"/><polygon points="34 27 27 27 27 28 34 28 34 27 34 27" fill="#c8c8c8"/><polygon points="34 28 33 28 33 32 34 32 34 28 34 28" fill="#c8c8c8"/><polygon points="31 21 30 21 30 28 31 28 31 21 31 21" fill="#c8c8c8"/><path d="M16.5,12a.5.5,0,1,0,.5.5.49971.49971,0,0,0-.5-.5Z" fill="#c8c8c8"/><path d="M19.5,12a.5.5,0,1,0,.5.5.49971.49971,0,0,0-.5-.5Z" fill="#c8c8c8"/><path d="M22.5,12a.5.5,0,1,0,.5.5.49971.49971,0,0,0-.5-.5Z" fill="#c8c8c8"/><path d="M25.5,12a.5.5,0,1,0,.5.5.49971.49971,0,0,0-.5-.5Z" fill="#c8c8c8"/><path d="M28.5,12a.5.5,0,1,0,.5.5.49971.49971,0,0,0-.5-.5Z" fill="#c8c8c8"/><path d="M36.5,17a.5.5,0,1,0,.5.5.49971.49971,0,0,0-.5-.5Z" fill="#c8c8c8"/><path d="M36.5,20a.5.5,0,1,0,.5.5.49971.49971,0,0,0-.5-.5Z" fill="#c8c8c8"/><path d="M36.5,23a.5.5,0,1,0,.5.5.49971.49971,0,0,0-.5-.5Z" fill="#c8c8c8"/><path d="M36.5,26a.5.5,0,1,0,.5.5.49971.49971,0,0,0-.5-.5Z" fill="#c8c8c8"/><path d="M36.5,29a.5.5,0,1,0,.5.5.49971.49971,0,0,0-.5-.5Z" fill="#c8c8c8"/><path d="M28.5,37a.5.5,0,1,0,.5.5.49971.49971,0,0,0-.5-.5Z" fill="#c8c8c8"/><path d="M25.5,37a.5.5,0,1,0,.5.5.49971.49971,0,0,0-.5-.5Z" fill="#c8c8c8"/><polygon points="4 17 24 14 24 40 4 37 4 17" fill="#3955a3"/><path d="M19,21,15.33531,33H12.62018L9,21h2.5816l2.2181,8.35146a6.66987,6.66987,0,0,1,.21514,1.19666h.04451a7.51814,7.51814,0,0,1,.23-1.23013L16.49258,21Z" fill="#fff"/><polygon points="24 43 12 43 12 38.2 24 40 24 43" fill="url(#72c0a340-f71a-4c43-9db0-34259c2b34ae)"/><rect x="12" y="9" width="29" height="33" fill="url(#482651b7-9e70-4f6b-ac72-6a1b64e3b2bb)"/><polygon points="41 5 41 42 16 42 15 42 15 45 44 45 44 8 41 5" fill="url(#e95ed3bd-3b7a-49f6-85d9-f3a7f297d1b3)"/><rect x="15" y="42" width="26" height="3" fill="url(#141b648c-9371-4371-9a9d-f6b8bba9ee6c)"/><polygon points="41 3 12 3 12 9 13 9 41 9 41 5 44 8 44 6 41 3" fill="url(#dfc1a796-e78c-469e-a67e-bde842a51c47)"/><polygon points="24 14 4 17 4 37 24 40 24 14" fill="url(#3fe1315d-7d65-438a-b76a-629c02014d97)"/></svg>