<svg id="be2299f5-94dd-4c9a-8f39-c96b1793b796" data-name="ICONS" xmlns="http://www.w3.org/2000/svg" xmlns:xlink="http://www.w3.org/1999/xlink" viewBox="0 0 48 48"><defs><linearGradient id="36d6980b-d581-4781-857a-eeac04206711" x1="8.58668" y1="5.86411" x2="42.48928" y2="46.26765" gradientUnits="userSpaceOnUse"><stop offset="0" stop-color="#fff" stop-opacity="0"/><stop offset="0.86247" stop-color="#5e5e5e" stop-opacity="0.06315"/><stop offset="1" stop-opacity="0.1"/></linearGradient><linearGradient id="bb011b59-70ee-4488-9d8e-b51fa8644606" x1="38" y1="16.90625" x2="38" y2="14.08751" gradientUnits="userSpaceOnUse"><stop offset="0" stop-color="#828282" stop-opacity="0"/><stop offset="0.86247" stop-color="#303030" stop-opacity="0.06315"/><stop offset="1" stop-opacity="0.1"/></linearGradient><linearGradient id="04e169ff-3a63-4684-92fa-c8f84dd87fb3" x1="31.27" y1="12.23" x2="37.23606" y2="6.26394" gradientUnits="userSpaceOnUse"><stop offset="0" stop-color="#fff" stop-opacity="0"/><stop offset="0.44604" stop-color="#fff" stop-opacity="0.00799"/><stop offset="0.63551" stop-color="#fff" stop-opacity="0.03616"/><stop offset="0.77636" stop-color="#fff" stop-opacity="0.08493"/><stop offset="0.8924" stop-color="#fff" stop-opacity="0.15385"/><stop offset="0.99328" stop-color="#fff" stop-opacity="0.24291"/><stop offset="1" stop-color="#fff" stop-opacity="0.25"/></linearGradient><linearGradient id="a5bcf6f5-8aaf-4fdf-a6a9-53a578c5b147" x1="14" y1="39.1875" x2="14" y2="14.75839" gradientUnits="userSpaceOnUse"><stop offset="0" stop-color="#fff" stop-opacity="0"/><stop offset="0.52587" stop-color="#fff" stop-opacity="0.00735"/><stop offset="0.71529" stop-color="#fff" stop-opacity="0.03396"/><stop offset="0.8503" stop-color="#fff" stop-opacity="0.0803"/><stop offset="0.95875" stop-color="#fff" stop-opacity="0.14595"/><stop offset="1" stop-color="#fff" stop-opacity="0.18"/></linearGradient><linearGradient id="87d88991-81f9-45c8-ae5f-afd9535ee31e" x1="17.75381" y1="42.91826" x2="18.17734" y2="38.93002" gradientUnits="userSpaceOnUse"><stop offset="0" stop-color="#828282" stop-opacity="0"/><stop offset="0.99719" stop-opacity="0.2"/></linearGradient></defs><title>FileTypeIcons_Master_All_NEW</title><polygon points="43 44 13 44 13 4 34 4 43 13 43 44" fill="#fff"/><path d="M34.00049,3H12V45H44V13ZM34,4.5,42.5,13H34ZM43,44H13V4H33V14H43Z" fill="#949494"/><polygon points="4 17 24 14 24 40 4 37 4 17" fill="#217346"/><path d="M20,33H16.54176l-2.23025-3.90795a3.24011,3.24011,0,0,1-.26185-.80335h-.03612a5.81236,5.81236,0,0,1-.298.83682L11.4763,33H8l4.12641-6L8.35214,21h3.54854l1.851,3.59833A5.94275,5.94275,0,0,1,14.14,25.61088h.03612q.10836-.35147.40632-1.046L16.64108,21h3.25057L16.009,26.94979Z" fill="#fff"/><rect x="33" y="17" width="7" height="2" fill="#c8c8c8"/><rect x="24" y="17" width="7" height="2" fill="#c8c8c8"/><rect x="33" y="21" width="7" height="2" fill="#c8c8c8"/><rect x="24" y="21" width="7" height="2" fill="#c8c8c8"/><rect x="33" y="25" width="7" height="2" fill="#c8c8c8"/><rect x="24" y="25" width="7" height="2" fill="#c8c8c8"/><rect x="33" y="29" width="7" height="2" fill="#c8c8c8"/><rect x="24" y="29" width="7" height="2" fill="#c8c8c8"/><rect x="33" y="33" width="7" height="2" fill="#c8c8c8"/><rect x="24" y="33" width="7" height="2" fill="#c8c8c8"/><rect x="33" y="37" width="7" height="2" fill="#c8c8c8"/><rect x="24" y="37" width="7" height="2" fill="#c8c8c8"/><path d="M44,13,34,3H12V45H44Z" fill="url(#36d6980b-d581-4781-857a-eeac04206711)"/><rect x="33" y="14" width="10" height="3" fill="url(#bb011b59-70ee-4488-9d8e-b51fa8644606)"/><polygon points="12 3 12 4 33 4 33 14 43 14 43 28 44 28 44 13 34 3 12 3" fill="url(#04e169ff-3a63-4684-92fa-c8f84dd87fb3)"/><polygon points="24 14 4 17 4 37 24 40 24 14" fill="url(#a5bcf6f5-8aaf-4fdf-a6a9-53a578c5b147)"/><polygon points="24 43 12 43 12 38.2 24 40 24 43" fill="url(#87d88991-81f9-45c8-ae5f-afd9535ee31e)"/></svg>