<svg id="497e4a04-c74d-442a-b6e0-11b0f96a97d8" data-name="ICONS" xmlns="http://www.w3.org/2000/svg" xmlns:xlink="http://www.w3.org/1999/xlink" viewBox="0 0 48 48"><defs><linearGradient id="2d77292d-58c1-476e-95ab-b699c7710326" x1="14" y1="39.1875" x2="14" y2="14.75839" gradientUnits="userSpaceOnUse"><stop offset="0" stop-color="#fff" stop-opacity="0"/><stop offset="0.52587" stop-color="#fff" stop-opacity="0.00735"/><stop offset="0.71529" stop-color="#fff" stop-opacity="0.03396"/><stop offset="0.8503" stop-color="#fff" stop-opacity="0.0803"/><stop offset="0.95875" stop-color="#fff" stop-opacity="0.14595"/><stop offset="1" stop-color="#fff" stop-opacity="0.18"/></linearGradient><linearGradient id="55cb664c-0825-48b1-a79f-3c64a1477e1d" x1="17.75381" y1="42.91826" x2="18.17734" y2="38.93002" gradientUnits="userSpaceOnUse"><stop offset="0" stop-color="#828282" stop-opacity="0"/><stop offset="0.99719" stop-opacity="0.2"/></linearGradient><linearGradient id="04761146-e187-44f8-8a34-462acbedea71" x1="12.99899" y1="8.2195" x2="40.00101" y2="42.7805" gradientUnits="userSpaceOnUse"><stop offset="0" stop-color="#fff" stop-opacity="0"/><stop offset="0.86247" stop-color="#5e5e5e" stop-opacity="0.06315"/><stop offset="1" stop-opacity="0.1"/></linearGradient><linearGradient id="e83f6ba5-3273-4dc4-aa66-9129e175589d" x1="23.42827" y1="18.72854" x2="43.9713" y2="45.02242" xlink:href="#04761146-e187-44f8-8a34-462acbedea71"/><linearGradient id="c67e47be-c224-49ce-997d-27a3a9286f50" x1="28" y1="44.90625" x2="28" y2="42.08751" gradientUnits="userSpaceOnUse"><stop offset="0" stop-color="#828282" stop-opacity="0"/><stop offset="0.86247" stop-color="#303030" stop-opacity="0.06315"/><stop offset="1" stop-opacity="0.1"/></linearGradient><linearGradient id="3947b72b-db66-487f-9a10-944aee6de6d3" x1="27.83875" y1="8.57677" x2="28.1656" y2="2.34018" gradientUnits="userSpaceOnUse"><stop offset="0" stop-color="#fff" stop-opacity="0"/><stop offset="0.44604" stop-color="#fff" stop-opacity="0.00799"/><stop offset="0.63551" stop-color="#fff" stop-opacity="0.03616"/><stop offset="0.77636" stop-color="#fff" stop-opacity="0.08493"/><stop offset="0.8924" stop-color="#fff" stop-opacity="0.15385"/><stop offset="0.99328" stop-color="#fff" stop-opacity="0.24291"/><stop offset="1" stop-color="#fff" stop-opacity="0.25"/></linearGradient></defs><title>FileTypeIcons_Master_All_NEW</title><polygon points="41 6 41 3 12 3 12 42 15 42 15 45 44 45 44 6 41 6" fill="#fff"/><polygon points="41 3 12 3 12 9 13 9 41 9 41 5 44 8 44 6 41 3" fill="#217346"/><polygon points="43 7 43 44 16 44 16 42 41 42 41 9 40 9 40 41 16 41 15 41 13 41 13 9 12 9 12 42 15 42 15 45 44 45 44 8 43 7" fill="#949494"/><polygon points="4 17 24 14 24 40 4 37 4 17" fill="#217346"/><path d="M19,33H16.11813l-1.85854-3.90795a3.70538,3.70538,0,0,1-.21821-.80335h-.03009a6.61268,6.61268,0,0,1-.24831.83682L11.89691,33H9l3.43868-6L9.29345,21h2.95711l1.54252,3.59833a6.72,6.72,0,0,1,.32355,1.01255h.0301q.09028-.35147.3386-1.046L16.2009,21h2.70881l-3.23552,5.94979Z" fill="#fff"/><rect x="30" y="36" width="7" height="2" fill="#c8c8c8"/><rect x="24" y="36" width="4" height="2" fill="#c8c8c8"/><rect x="30" y="32" width="7" height="2" fill="#c8c8c8"/><rect x="24" y="32" width="4" height="2" fill="#c8c8c8"/><rect x="30" y="28" width="7" height="2" fill="#c8c8c8"/><rect x="24" y="28" width="4" height="2" fill="#c8c8c8"/><rect x="30" y="24" width="7" height="2" fill="#c8c8c8"/><rect x="24" y="24" width="4" height="2" fill="#c8c8c8"/><rect x="30" y="20" width="7" height="2" fill="#c8c8c8"/><rect x="24" y="20" width="4" height="2" fill="#c8c8c8"/><rect x="30" y="16" width="7" height="2" fill="#c8c8c8"/><rect x="24" y="16" width="4" height="2" fill="#c8c8c8"/><polygon points="24 14 4 17 4 37 24 40 24 14" fill="url(#2d77292d-58c1-476e-95ab-b699c7710326)"/><polygon points="24 43 12 43 12 38.2 24 40 24 43" fill="url(#55cb664c-0825-48b1-a79f-3c64a1477e1d)"/><rect x="12" y="9" width="29" height="33" fill="url(#04761146-e187-44f8-8a34-462acbedea71)"/><polygon points="41 5 41 42 16 42 15 42 15 45 44 45 44 8 41 5" fill="url(#e83f6ba5-3273-4dc4-aa66-9129e175589d)"/><rect x="15" y="42" width="26" height="3" fill="url(#c67e47be-c224-49ce-997d-27a3a9286f50)"/><polygon points="41 3 12 3 12 9 13 9 41 9 41 5 44 8 44 6 41 3" fill="url(#3947b72b-db66-487f-9a10-944aee6de6d3)"/></svg>