<?xml version="1.0" encoding="utf-8"?>
<!-- Generator: Adobe Illustrator 21.1.0, SVG Export Plug-In . SVG Version: 6.00 Build 0)  -->
<svg version="1.1" xmlns="http://www.w3.org/2000/svg" xmlns:xlink="http://www.w3.org/1999/xlink" x="0px" y="0px"
	 viewBox="0 0 48 48" enable-background="new 0 0 48 48" xml:space="preserve">
<g id="TEMPLATE" display="none">
	<g display="inline">
		<path fill="#D0D0D0" d="M48,0v48H0V0H48 M49-1h-1H0h-1v1v48v1h1h48h1v-1V0V-1L49-1z"/>
	</g>
	<g display="inline" opacity="0.1">
		<path fill="#FF3A6D" d="M45,3v42H3V3H45 M48,0H0v48h48V0L48,0z"/>
	</g>
</g>
<g id="ICONS">
	<g>
		<polygon fill="#FFFFFF" points="39,44 9,44 9,4 30,4 39,13 		"/>
		<path fill="#949494" d="M30.0005,3H8v42h32V13L30.0005,3z M30,4.5l8.5,8.5H30V4.5z M39,44H9V4h20v10h10V44z"/>
	</g>
	<rect x="12" y="35" fill="#C8C8C8" width="24" height="1"/>
	<rect x="12" y="38" fill="#C8C8C8" width="24" height="1"/>
	<polygon fill="#949494" points="33,28 32,28 35,24 32,20 33,20 36,24 	"/>
	<polygon fill="#949494" points="15,28 16,28 13,24 16,20 15,20 12,24 	"/>
	<g>
		<circle fill="#6CAEDF" cx="24" cy="24" r="6"/>
		<g>
			<path fill="#DEEBF8" d="M27.0455,18.8308c-0.0126-0.0074-0.0254-0.0145-0.0381-0.0219
				c-0.0011,0.0044-0.0007,0.0083-0.0022,0.0128C27.0197,18.8242,27.0317,18.828,27.0455,18.8308z"/>
			<path fill="#DEEBF8" d="M20.8649,23.5713c-0.0756-0.0179,0.023,0.3202,0.0829,0.354c0.1595-0.0164-0.0308-0.136,0.2246-0.0012
				c0.0673,0.0514,0.1402,0.0739,0.218,0.0668c-0.0059,0.011,0.0032,0.0156,0.0487-0.0073
				c0.0005-0.0014,0.0008-0.0032,0.0008-0.0032C21.487,23.7491,21.0447,23.6114,20.8649,23.5713z"/>
			<path fill="#DEEBF8" d="M20.6694,23.2988c-0.0406-0.1705-0.284-0.6309-0.5049-0.5343c-0.0528,0.3004,0.2322,0.537,0.2633,0.6429
				C20.5021,23.6637,20.839,23.345,20.6694,23.2988z"/>
			<path fill="#DEEBF8" d="M28.7896,20.3867c-0.0162-0.011-0.0317-0.0251-0.0481-0.0349c-0.0125,0.1786,0.014,0.4675-0.1925,0.4482
				c-0.0841-0.0081-0.1416,0.0639-0.2167-0.0059c-0.0533-0.0492-0.0592-0.1111-0.1316-0.1319
				c-0.0961-0.286-0.3166-0.0264-0.3542,0.173c0.0624,0.2221-0.2461,0.2446-0.2473,0.4127c-0.001,0.104-0.0641,0.1695-0.0714,0.2803
				c-0.0078,0.1157,0.1712,0.2899,0.1399,0.3395l-0.1096,0.5644c-0.0521,0.0675-0.0191,0.5881,0.0269,0.6936
				c0.0727,0.1663,0.2852,0.343,0.2419,0.5627c-0.0335,0.1751,0.0298,0.4448,0.2322,0.4536
				c0.1023,0.0925,0.1823,0.1497,0.3092,0.2322c0.009,0.079,0.1253,0.1739,0.1876,0.1982c0.1666,0.0457,0.2092,0.1106,0.3166-0.0705
				c0.0717-0.1209,0.3547-0.1984,0.3317-0.2738c0.0514-0.2958,0.2001-0.3919,0.4492-0.4249
				c0.1424-0.0188,0.1326,0.3168,0.1429,0.3919c0.002,0.0143,0.0961,0.1426,0.1877,0.2239C29.9934,24.2804,30,24.141,30,24
				C30,22.6431,29.5491,21.3918,28.7896,20.3867z"/>
			<path fill="#DEEBF8" d="M25.5892,18.2569c-0.1989-0.026-0.2503-0.0758-0.4836-0.022c-0.2493,0.0577,0.3675,0.3882,0.4533,0.4567
				c0.0741,0.0585,0.0917,0.126,0.1717,0.1903c0.0876-0.0154,0.1245,0.0323,0.1982,0.0585c0.101,0.0357,0.2087-0.0401,0.3266,0.002
				c0.0959,0.035,0.0763,0.1226,0.0969,0.2094c0.1708-0.0286-0.002-0.2699-0.0501-0.3334
				c-0.0742-0.0984-0.2601-0.0854-0.3501-0.2062c0.1194-0.0179,0.2297-0.1605,0.2593,0.0516
				c0.1003,0.0709,0.1727,0.0739,0.2659,0.1664c0.0511,0.0506,0.0959-0.0147,0.1277,0.0188
				c0.0218,0.0766,0.0658,0.205-0.0003,0.2808c-0.0903,0.1033-0.0017,0.2792,0.0076,0.3968
				c-0.0196,0.1003,0.1145,0.2625,0.0245,0.3493c-0.0663,0.0641,0.1397,0.1101,0.1849,0.1284
				c0.0766,0.0308,0.2684,0.1957,0.2583,0.2848c-0.0037,0.034-0.2075,0.1358-0.2485,0.1377
				c-0.1001,0.0042,0.0979,0.2574,0.1108,0.2985c0.0499,0.0922,0.1703,0.1637,0.2106,0.2495
				c0.0979,0.2084,0.0829-0.0144,0.1823,0.0666c0.0868,0.0714,0.1959-0.0291,0.2539-0.0873
				c0.0188-0.0724,0.0254-0.2197,0.0008-0.2867c-0.025-0.0692-0.092-0.0638-0.1355-0.0871
				c-0.0257-0.0634-0.0142-0.1796-0.0279-0.2495c-0.0262-0.1348-0.09-0.2224,0.0103-0.3645
				c0.0521-0.0741,0.3672,0.1209,0.4255,0.1747c0.0626,0.058,0.1466-0.1945-0.0722-0.2104c-0.08-0.0609-0.2478-0.1003-0.2791-0.1916
				c0.0827-0.1583,0.4235,0.3129,0.5629,0.2248c0.0176-0.0834-0.1316-0.1319-0.1417-0.2339
				c-0.0032-0.0318-0.0147-0.1277-0.0347-0.1646c-0.0244-0.0461-0.0655-0.1419-0.1064-0.2152
				c-0.2343-0.1913-0.4837-0.3646-0.7455-0.5192c-0.0138-0.0028-0.0258-0.0066-0.0403-0.0091
				c0.0015-0.0045,0.0011-0.0084,0.0022-0.0128c-0.2092-0.1214-0.4257-0.2316-0.6499-0.3275
				c-0.0713-0.0134-0.1351-0.0261-0.1821-0.0399C26.0369,18.4017,25.7318,18.2016,25.5892,18.2569z"/>
			<path fill="#DEEBF8" d="M26.2588,19.3911c-0.001-0.0066-0.5715-0.2716-0.5639-0.2571c0.0078,0.0152-0.0164,0-0.0027,0
				c-0.2126-0.0196,0.2375,0.2884,0.2478,0.2899c-0.1329,0.1074-0.0093,0.2359,0.0866,0.3357
				c0.0731,0.001,0.1448-0.2053,0.1448-0.2053c0.0773,0.034,0.2417,0.2241,0.3332,0.0895
				C26.6194,19.4752,26.3669,19.3874,26.2588,19.3911z"/>
			<path fill="#DEEBF8" d="M23.0131,29.1088c0.1925-0.0795,0.3753-0.5272,0.5749-0.5947c0.0164-0.3819,0.5468-0.2532,0.7591-0.308
				c0.2359-0.0595,0.3743-0.1776,0.4227-0.3773c0.0367-0.1499,0.056-0.2662,0.2256-0.3232
				c0.1138-0.1086,0.3378-0.2882,0.3307-0.4592c-0.0049-0.1079,0.0184-0.2635-0.1477-0.2471
				c-0.1495,0.0151-0.1813-0.1177-0.3073-0.1343c-0.161-0.0208-0.3234,0.0184-0.4797,0.0093
				c-0.1299-0.0693-0.1759-0.0893-0.3078-0.1336c-0.0922-0.0301-0.2581-0.2897-0.3183-0.3491
				c-0.0876-0.0866-0.1869-0.0244-0.2945-0.0237c-0.0952-0.081,0.1527-0.2189,0.0707-0.3308
				c-0.1248-0.0262-0.2229-0.158-0.3251-0.2669c-0.0147-0.0157-0.1899-0.1507-0.2121-0.1549c-0.194-0.036-0.3704,0.055-0.515-0.1023
				c-0.0193-0.021-0.2427-0.2165-0.2427-0.2165c0.0027-0.0223,0.1231-0.057,0.0107-0.0861
				c-0.0484-0.0619-0.0734-0.1062-0.1529-0.1077c-0.1355-0.059-0.0795-0.1783-0.2398-0.1142
				c-0.0206-0.0069-0.1654,0.0396-0.1879,0.0418c-0.07-0.0316-0.0722-0.1243-0.1656-0.113
				c-0.1522,0.0188-0.2305-0.1617-0.3949-0.1576c-0.011,0.113-0.1037,0.2119-0.2072,0.2097
				c-0.1497-0.0029-0.1358-0.2655-0.3366-0.1661c-0.0942,0.0465-0.0142,0.1541-0.1756,0.1553
				c-0.0915,0.0008-0.0869,0.0401-0.0869,0.0724c-0.1274-0.0387-0.2713-0.2753-0.3706-0.4098
				c-0.044-0.1607-0.3777-0.1972-0.3212-0.3814c0.0411-0.1346,0.092-0.4274,0.0017-0.5615
				c-0.0372-0.0555-0.0937-0.1852-0.1573-0.2165c-0.0548-0.0274,0.0455-0.0406,0.0171-0.1138
				c0.0709-0.0673,0.2003-0.4078,0.1847-0.5096c-0.2238-0.1627-0.2818,0.1184-0.4443,0.1304
				c-0.2644,0.0191-0.2415-0.138-0.2747-0.3046c-0.0335-0.1627-0.01-0.2987,0.0359-0.4819
				c0.0443-0.1769,0.3004-0.2498,0.3141-0.4692c0.0758-0.0316,0.2317-0.1088,0.317-0.0778
				c0.0952,0.0345,0.1991,0.1333,0.2899,0.1602c0.0548,0.0164,0.2219,0.0171,0.2845,0.0188
				c0.0643,0.0465,0.0445,0.113,0.1402,0.1231c0.0879,0.0093-0.0086,0.1497-0.0162,0.24c-0.0066,0.0785-0.1323,0.4788,0.057,0.4695
				c0.1284-0.0061,0.219-0.448,0.2329-0.5429c0.0232-0.158,0.1893-0.2459,0.3256-0.3071c0.1118-0.0504,0.4069-0.0947,0.4423-0.2229
				c0.0469-0.0709,0.0584-0.1091,0.0895-0.1979c0.0179-0.0514,0.1568-0.0609,0.2003-0.0898
				c0.1309-0.0871,0.3205-0.2469,0.4859-0.1996c0.1096,0.0311,0.2539-0.195,0.3939-0.2099
				c0.1099-0.0117,0.2638-0.0636,0.3702-0.0614c-0.0225,0.1032-0.1717,0.0837-0.171,0.2075
				c0.1257,0.0741,0.6064-0.1128,0.3797-0.1534c-0.2518-0.0452-0.1037-0.409-0.1443-0.4176
				c-0.2062-0.0426-0.0029-0.1412,0.1301-0.1145c0.0852,0.0169,0.2735,0.1233,0.3413,0.0753
				c0.3215-0.2265,0.124,0.2038,0.1186,0.2672c-0.0017,0.0215,0.2588,0.124,0.2762,0.106c0.0448-0.0462,0.1597-0.0059,0.1174-0.1211
				c-0.0548-0.0524-0.0961-0.0039-0.1441-0.0815c-0.0575-0.0927,0.0516-0.1989,0.0695-0.295
				c0.0137-0.0732,0.0061-0.104-0.0692-0.1204c-0.0262-0.0587,0.0345-0.1294,0.0005-0.1862
				c-0.0741-0.1245-0.1257-0.1683-0.1517-0.3212c-0.0502-0.296-0.2562-0.0695-0.424-0.2087
				c0.1059-0.1197-0.0027-0.2388-0.0886-0.2816c-0.0939-0.0467-0.2307-0.1438-0.2721,0.0345
				c-0.1277,0.0612-0.179,0.0487-0.2072,0.1996c-0.0357,0.1925-0.0169,0.1018-0.1289,0.1715
				c-0.16,0.0996-0.2251-0.022-0.2801,0.2077c-0.1377,0.047-0.3415,0.0607-0.1329-0.1514c0.2163-0.2204-0.4597-0.4161-0.0927-0.6772
				c0.1294-0.0918,0.3158-0.0729,0.4203-0.1522c0.0783-0.0054,0.0729-0.0254,0.183-0.0257
				c0.0582,0.0685,0.1769,0.0935,0.2652,0.0817c0.1094-0.0144,0.2341-0.1213,0.3415,0.025
				c0.1018,0.1394,0.0935,0.2013,0.2684,0.2065c0.2613-0.1382,0.4727-0.0896,0.5539-0.4269
				c0.067-0.2794-0.4313-0.2537-0.6038-0.3347c-0.1857-0.0866,0.275-0.0864,0.2816-0.0932l-0.0418-0.0282
				c-0.5948,0.0289-1.1665,0.1454-1.7035,0.3352c-0.1657,0.0661-0.3316,0.1421-0.4967,0.2344
				c-0.1595,0.0677-0.3251,0.1414-0.4903,0.2201c-1.1026,0.6344-1.9842,1.6084-2.5021,2.7801
				c0.0028,0.1248,0.0379,0.236-0.0101,0.351c-0.0565,0.137,0.0149,0.4724,0.0416,0.5891c0.0303,0.1336,0.0631,0.3099,0.1362,0.4306
				c0.0428,0.0712,0.1617-0.0338,0.2256-0.0044c0.1013,0.0465,0.1429,0.1974,0.1683,0.2769
				c0.034,0.1066,0.0827,0.1512,0.1027,0.2493c0.0448,0.0477,0.1942,0.0098,0.2104,0.0878
				c-0.0071,0.0893-0.0164,0.1052,0.0186,0.1891c0.047,0.1153-0.0301,0.3063,0.0607,0.5583
				c0.082,0.2268,0.1967,0.3048,0.3584,0.3863c0.0881,0.0442,0.1179,0.1492,0.1925,0.33c0.0364,0.0893,0.1397-0.0188,0.1438,0.1228
				c0.0025,0.0856,0.0215,0.1906-0.0007,0.2747c-0.0392,0.1495-0.342,0.2351-0.3278,0.4166
				c-0.011,0.0722,0.0869,0.0898,0.0974,0.1522c0.0071,0.0433-0.0064,0.1135-0.0032,0.1593
				c0.0078,0.1062,0.1495,0.1854,0.2138,0.2637c0.0756,0.092,0.1067,0.2322,0.1791,0.3237c0.1179,0.1492,0.2246,0.2879,0.2706,0.468
				c0.012,0.0472,0.5047,0.3672,0.5174,0.3655c0.2437,0.2667,0.2062,1.1376,0.1984,1.5283
				c-0.0023,0.1166,0.0102,0.2078,0.0339,0.2814c0.3501,0.1736,0.7194,0.314,1.1042,0.4172
				c0.0509-0.0459,0.108-0.0913,0.1275-0.1098C22.7264,29.5374,22.8282,29.1859,23.0131,29.1088z M21.4146,19.9317
				c-0.0722-0.2823,0.3308-0.3773,0.422-0.1299c0.0695,0.1847,0.1813,0.2865,0.1784,0.5062
				c-0.0015,0.093-0.125,0.1358-0.1703,0.2094c-0.3058-0.0347-0.159-0.0536-0.2195-0.2571c0.0145,0.0563-0.0482-0.024-0.0129-0.0134
				c-0.0952-0.0338-0.2209,0.1157-0.2762-0.0521C21.2972,20.0721,21.4415,20.0371,21.4146,19.9317z"/>
		</g>
	</g>
	<linearGradient id="SVGID_1_" gradientUnits="userSpaceOnUse" x1="34" y1="16.9063" x2="34" y2="14.0875">
		<stop  offset="0" style="stop-color:#828282;stop-opacity:0"/>
		<stop  offset="0.2812" style="stop-color:#7F7F7F;stop-opacity:0.0281"/>
		<stop  offset="0.4503" style="stop-color:#777777;stop-opacity:0.045"/>
		<stop  offset="0.5899" style="stop-color:#696969;stop-opacity:0.059"/>
		<stop  offset="0.7133" style="stop-color:#545454;stop-opacity:0.0713"/>
		<stop  offset="0.8259" style="stop-color:#3A3A3A;stop-opacity:0.0826"/>
		<stop  offset="0.9294" style="stop-color:#1A1A1A;stop-opacity:0.0929"/>
		<stop  offset="1" style="stop-color:#000000;stop-opacity:0.1"/>
	</linearGradient>
	<rect x="29" y="14" fill="url(#SVGID_1_)" width="10" height="3"/>
	<linearGradient id="SVGID_2_" gradientUnits="userSpaceOnUse" x1="27.27" y1="12.23" x2="33.2361" y2="6.2639">
		<stop  offset="0" style="stop-color:#FFFFFF;stop-opacity:0"/>
		<stop  offset="0.8537" style="stop-color:#FFFFFF;stop-opacity:0.2134"/>
		<stop  offset="1" style="stop-color:#FFFFFF;stop-opacity:0.25"/>
	</linearGradient>
	<polygon fill="url(#SVGID_2_)" points="8,3 8,4 29,4 29,14 39,14 39,28 40,28 40,13 30,3 	"/>
	<linearGradient id="SVGID_3_" gradientUnits="userSpaceOnUse" x1="4.5867" y1="5.8641" x2="38.4893" y2="46.2676">
		<stop  offset="0" style="stop-color:#FFFFFF;stop-opacity:0"/>
		<stop  offset="0.2264" style="stop-color:#FCFCFC;stop-opacity:0.0226"/>
		<stop  offset="0.3626" style="stop-color:#F4F4F4;stop-opacity:0.0363"/>
		<stop  offset="0.475" style="stop-color:#E6E6E6;stop-opacity:0.0475"/>
		<stop  offset="0.5744" style="stop-color:#D1D1D1;stop-opacity:0.0574"/>
		<stop  offset="0.6652" style="stop-color:#B7B7B7;stop-opacity:0.0665"/>
		<stop  offset="0.7498" style="stop-color:#979797;stop-opacity:0.075"/>
		<stop  offset="0.8297" style="stop-color:#707070;stop-opacity:0.083"/>
		<stop  offset="0.9057" style="stop-color:#444444;stop-opacity:0.0906"/>
		<stop  offset="0.9761" style="stop-color:#121212;stop-opacity:0.0976"/>
		<stop  offset="1" style="stop-color:#000000;stop-opacity:0.1"/>
	</linearGradient>
	<path fill="url(#SVGID_3_)" d="M40,13L30,3H8v42h32V13z"/>
</g>
</svg>
