<svg id="96c85209-5b53-4cc6-a175-107b712e94a5" data-name="ICONS" xmlns="http://www.w3.org/2000/svg" xmlns:xlink="http://www.w3.org/1999/xlink" viewBox="0 0 48 48"><defs><linearGradient id="e42300b7-24be-42b0-9aa1-b61d6e05346e" x1="34" y1="16.90625" x2="34" y2="14.08751" gradientUnits="userSpaceOnUse"><stop offset="0" stop-color="#828282" stop-opacity="0"/><stop offset="0.86247" stop-color="#303030" stop-opacity="0.06315"/><stop offset="1" stop-opacity="0.1"/></linearGradient><linearGradient id="5404764c-e1bc-4b6a-9805-1b7af969a542" x1="27.27" y1="12.23" x2="33.23606" y2="6.26394" gradientUnits="userSpaceOnUse"><stop offset="0" stop-color="#fff" stop-opacity="0"/><stop offset="0.44604" stop-color="#fff" stop-opacity="0.00799"/><stop offset="0.63551" stop-color="#fff" stop-opacity="0.03616"/><stop offset="0.77636" stop-color="#fff" stop-opacity="0.08493"/><stop offset="0.8924" stop-color="#fff" stop-opacity="0.15385"/><stop offset="0.99328" stop-color="#fff" stop-opacity="0.24291"/><stop offset="1" stop-color="#fff" stop-opacity="0.25"/></linearGradient><linearGradient id="44fc21fa-f49c-40c7-b345-b56dd6863c60" x1="4.58668" y1="5.86411" x2="38.48928" y2="46.26765" gradientUnits="userSpaceOnUse"><stop offset="0" stop-color="#fff" stop-opacity="0"/><stop offset="0.86247" stop-color="#5e5e5e" stop-opacity="0.06315"/><stop offset="1" stop-opacity="0.1"/></linearGradient></defs><title>FileTypeIcons_Master_All_NEW</title><polygon points="39 44 9 44 9 4 30 4 39 13 39 44" fill="#fff"/><path d="M30.00049,3H8V45H40V13ZM30,4.5,38.5,13H30ZM39,44H9V4H29V14H39Z" fill="#949494"/><rect x="12" y="35" width="24" height="1" fill="#c8c8c8"/><rect x="12" y="38" width="24" height="1" fill="#c8c8c8"/><polygon points="33 28 32 28 35 24 32 20 33 20 36 24 33 28" fill="#949494"/><polygon points="15 28 16 28 13 24 16 20 15 20 12 24 15 28" fill="#949494"/><circle cx="24" cy="24" r="6" fill="#6caedf"/><path d="M27.0455,18.83085l-.03808-.0219-.00222.01281C27.01971,18.82424,27.0317,18.828,27.0455,18.83085Z" fill="#deebf8"/><path d="M20.86487,23.57128c-.07559-.01786.023.32025.08294.354.15952-.01642-.03083-.136.2246-.00123a.30446.30446,0,0,0,.218.06677c-.00588.011.00317.01565.04867-.00733l.00077-.00319C21.487,23.74913,21.04469,23.6114,20.86487,23.57128Z" fill="#deebf8"/><path d="M20.66941,23.29875c-.04063-.17052-.284-.63093-.50494-.5343-.05285.3004.23215.537.26325.64292C20.50208,23.66375,20.839,23.345,20.66941,23.29875Z" fill="#deebf8"/><path d="M28.7896,20.38666c-.01621-.01095-.03168-.0251-.04815-.03492-.01247.17862.014.46754-.19254.4482-.08414-.00807-.14163.06387-.21674-.00585-.05333-.04917-.05922-.1111-.13163-.13188-.09613-.286-.31656-.02642-.35423.173.06239.22214-.24611.24463-.24734.41273-.001.104-.0641.1695-.07143.28035-.00785.11571.17124.28988.13993.33955l-.10961.56442a1.67778,1.67778,0,0,0,.02694.69356c.07266.16634.28522.343.24194.56269-.03353.17515.02984.44476.23216.45358a2.18684,2.18684,0,0,0,.30924.23216c.009.079.12525.17394.18765.19817.16659.04573.20916.11055.31656-.07046.07169-.12089.35474-.19843.33172-.27376a.45076.45076,0,0,1,.44917-.42495c.1424-.01884.1326.31682.1429.3919a1.02894,1.02894,0,0,0,.18768.22392C29.99339,24.28044,30,24.141,30,24A5.97271,5.97271,0,0,0,28.7896,20.38666Z" fill="#deebf8"/><path d="M25.5892,18.25688a.97469.97469,0,0,0-.48365-.022c-.2493.05774.36747.38823.45332.45672.07414.05849.09174.126.17175.19034.08759-.0154.12453.03232.19817.05849.101.03572.20866-.04014.32659.002.09591.035.07634.12255.09688.20942.17077-.02863-.002-.26986-.05014-.33345-.07415-.09836-.26007-.08538-.35008-.20624.11937-.01786.2297-.1605.2593.05162.10031.07094.17272.07389.26593.16637.05114.05064.0959-.01467.12771.01883.02176.07658.0658.205-.00026.28085-.09026.10325-.00169.27915.0076.39682-.01957.10029.11448.26249.02447.34935-.06629.06411.13968.11008.18495.12845.07656.0308.26837.19571.25833.28475-.00365.034-.20747.13578-.24854.13773-.10006.00417.09786.25735.11081.29847.04992.09224.17027.16367.21064.24953.09786.20844.08293-.01442.18227.06656.08683.07144.19594-.02914.25392-.08734a.638.638,0,0,0,.00076-.28674c-.025-.06924-.092-.06384-.13553-.08709a1.66186,1.66186,0,0,1-.0279-.24953c-.02619-.13482-.09-.22238.01026-.36451.05213-.07414.36721.12085.42545.17467.06261.058.14655-.19449-.07219-.21039-.08-.06091-.24781-.10031-.27911-.19156.08267-.1583.42346.31289.56293.22482.0176-.08343-.13163-.13187-.14167-.2339a.61243.61243,0,0,0-.03475-.16462c-.02444-.04609-.06546-.14188-.10641-.2152a6.01618,6.01618,0,0,0-.74551-.51918c-.0138-.00284-.02579-.00661-.0403-.00909l.00222-.01281a5.97824,5.97824,0,0,0-.64991-.32748c-.07126-.01344-.13509-.02614-.18214-.0399C26.03692,18.4017,25.73185,18.20157,25.5892,18.25688Z" fill="#deebf8"/><path d="M26.25881,19.39106c-.001-.00662-.5715-.27157-.56391-.25713.00785.01517-.01637,0-.00267,0-.21261-.01957.23754.28843.24781.28988-.13286.1074-.0093.23585.08661.33566.07313.001.14482-.20527.14482-.20527.07729.034.24171.22409.33319.08954C26.6194,19.47522,26.36694,19.38736,26.25881,19.39106Z" fill="#deebf8"/><path d="M23.0131,29.10883c.19254-.07952.37528-.52721.57493-.59473.01638-.3819.54677-.2532.75911-.308a.50808.50808,0,0,0,.42275-.37726c.03669-.15.056-.26616.22558-.32317.11376-.1086.33785-.2882.33074-.45919-.00489-.10789.01836-.26349-.14774-.24708-.1495.01514-.1813-.11766-.30729-.13433-.161-.0208-.32343.01837-.47975.00932a1.58644,1.58644,0,0,0-.30777-.13357c-.09223-.03011-.25808-.28968-.31827-.34914-.08759-.08659-.1869-.02445-.29455-.02372-.09518-.081.15265-.219.07071-.33077-.1248-.02617-.22288-.158-.32514-.26689a1.67158,1.67158,0,0,0-.21213-.15487c-.194-.036-.37036.055-.515-.10228-.01933-.021-.24267-.21649-.24267-.21649.00268-.02227.12305-.057.01073-.08611-.04844-.06189-.07339-.10618-.15288-.10765-.13552-.059-.07953-.17834-.23975-.11424a1.46689,1.46689,0,0,0-.1879.04182c-.07-.03156-.07216-.12428-.16561-.113-.15219.01883-.23046-.16174-.39487-.15758a.22458.22458,0,0,1-.20721.20967c-.14973-.00293-.13578-.26545-.33664-.16612-.09419.04649-.0142.15415-.17564.15535-.09149.00075-.08687.04012-.08687.07244-.12743-.03868-.2713-.27525-.37061-.4098-.044-.16073-.37773-.1972-.32124-.38139a.82428.82428,0,0,0,.0017-.56148c-.03716-.05552-.09369-.18519-.15728-.21649-.05481-.02741.0455-.04061.01713-.11378a1.06861,1.06861,0,0,0,.18469-.50956c-.22384-.16272-.28182.11838-.44428.13038-.26444.01907-.24145-.138-.27471-.3046a1.01376,1.01376,0,0,1,.03594-.48194c.04428-.17689.30044-.24978.31414-.46924.07584-.03155.23169-.10884.317-.07779.09519.03449.19915.13332.28993.16025a1.79031,1.79031,0,0,0,.2845.01884c.06434.04649.04454.113.14018.12305.08785.0093-.00856.14973-.01615.24-.00658.07852-.13235.47878.057.46948.12843-.00614.219-.448.23291-.54287.02325-.158.18935-.24589.3256-.30705.11182-.0504.40688-.09468.44234-.22287a.72411.72411,0,0,0,.08954-.19791c.01785-.05137.15682-.06092.20034-.08978.1309-.08708.32052-.24686.48589-.19962.10958.03107.25393-.195.39386-.20991a3.56637,3.56637,0,0,1,.37015-.06142c-.02249.10324-.17171.08369-.171.20746.12573.07414.60645-.11278.37969-.15339-.25176-.04525-.10373-.409-.14435-.4176-.20624-.04258-.00293-.14116.13014-.11449.08517.01688.27354.12331.3413.07534.32147-.22653.124.20379.11863.26715a.67381.67381,0,0,0,.27623.106c.04476-.04624.15974-.0059.11741-.1211-.0548-.05239-.09612-.004-.14409-.08149-.05748-.09273.05162-.19889.06947-.295.01372-.07317.00612-.104-.06922-.12038-.02617-.05871.0345-.12943.00048-.18617a.76573.76573,0,0,1-.15167-.32124c-.05017-.296-.25615-.06947-.424-.20866.10592-.11966-.00271-.23877-.08857-.28161-.09394-.04671-.23071-.14384-.27206.03449-.12768.06117-.17905.0487-.20721.19965-.03572.19254-.01688.10178-.12891.1715-.16.09957-.22508-.022-.28013.20768-.13774.047-.34151.0607-.13285-.15142.21629-.22041-.45969-.41613-.0927-.67716.12942-.09176.31581-.07292.42029-.15217a1.18141,1.18141,0,0,1,.183-.0257.316.316,0,0,0,.26518.08171c.10936-.01443.23411-.12133.34152.025.1018.13943.09348.20132.26837.20646.2613-.13821.47267-.08955.5539-.4269.067-.27937-.43131-.2537-.60378-.33468-.1857-.08659.275-.08637.28157-.09319l-.04176-.02823a5.975,5.975,0,0,0-1.70346.33523,4.19693,4.19693,0,0,0-.4967.23438c-.15954.06768-.32509.14144-.49034.22008A6.02175,6.02175,0,0,0,18.511,21.57726a.81348.81348,0,0,1-.01009.351,1.39263,1.39263,0,0,0,.0416.58911,1.52861,1.52861,0,0,0,.13625.43058c.04281.07119.16171-.03376.22558-.0044.10126.04647.14287.19741.16832.27693a2.52339,2.52339,0,0,1,.10273.2493c.04476.04768.19424.00976.21039.08781a.292.292,0,0,0,.01859.1891c.047.11525-.03008.3063.0607.5583a.61507.61507,0,0,0,.35839.38631c.08806.04424.11792.14922.19253.33.03645.08929.13968-.01884.14385.12281a1.023,1.023,0,0,1-.00072.27473c-.03916.14948-.342.23508-.32785.41663-.011.07216.08687.0898.09739.15217.00708.04329-.00637.1135-.00319.15927.00784.10616.14949.18545.21383.26371.07559.092.10665.23219.17909.32369a1.26842,1.26842,0,0,1,.27055.468,3.31693,3.31693,0,0,0,.51742.36548c.24368.26668.20623,1.13761.19842,1.52831a.86018.86018,0,0,0,.0339.28145,5.95617,5.95617,0,0,0,1.10419.41719c.05089-.04589.108-.09133.12746-.10979C22.7264,29.53743,22.82815,29.18588,23.0131,29.10883Zm-1.59853-9.17711a.22119.22119,0,0,1,.422-.12993c.06948.18472.18129.2865.17836.50618-.00149.093-.125.13578-.17026.20942-.30583-.03474-.159-.05359-.21947-.25713.01445.05627-.04819-.024-.01294-.01345-.09519-.03377-.22092.11571-.27623-.05211C21.29717,20.07212,21.44151,20.03713,21.41457,19.93172Z" fill="#deebf8"/><rect x="29" y="14" width="10" height="3" fill="url(#e42300b7-24be-42b0-9aa1-b61d6e05346e)"/><polygon points="8 3 8 4 29 4 29 14 39 14 39 28 40 28 40 13 30 3 8 3" fill="url(#5404764c-e1bc-4b6a-9805-1b7af969a542)"/><path d="M40,13,30,3H8V45H40Z" fill="url(#44fc21fa-f49c-40c7-b345-b56dd6863c60)"/></svg>