<svg id="d420a325-1173-47d5-92e8-f0d940780e61" data-name="ICONS" xmlns="http://www.w3.org/2000/svg" xmlns:xlink="http://www.w3.org/1999/xlink" viewBox="0 0 48 48"><defs><linearGradient id="21621d2e-f3dd-4bab-91fe-f979cf2b9001" x1="8.58668" y1="5.86411" x2="42.48928" y2="46.26765" gradientUnits="userSpaceOnUse"><stop offset="0" stop-color="#fff" stop-opacity="0"/><stop offset="0.86247" stop-color="#5e5e5e" stop-opacity="0.06315"/><stop offset="1" stop-opacity="0.1"/></linearGradient><linearGradient id="e8b0e70a-0430-482d-92d7-237e42c07c54" x1="38" y1="16.90625" x2="38" y2="14.08751" gradientUnits="userSpaceOnUse"><stop offset="0" stop-color="#828282" stop-opacity="0"/><stop offset="0.86247" stop-color="#303030" stop-opacity="0.06315"/><stop offset="1" stop-opacity="0.1"/></linearGradient><linearGradient id="98cf4bf3-b059-4803-8cd3-5f0ffced530a" x1="31.27" y1="12.23" x2="37.23606" y2="6.26394" gradientUnits="userSpaceOnUse"><stop offset="0" stop-color="#fff" stop-opacity="0"/><stop offset="0.44604" stop-color="#fff" stop-opacity="0.00799"/><stop offset="0.63551" stop-color="#fff" stop-opacity="0.03616"/><stop offset="0.77636" stop-color="#fff" stop-opacity="0.08493"/><stop offset="0.8924" stop-color="#fff" stop-opacity="0.15385"/><stop offset="0.99328" stop-color="#fff" stop-opacity="0.24291"/><stop offset="1" stop-color="#fff" stop-opacity="0.25"/></linearGradient><linearGradient id="8ec6109c-d0d7-49f0-94f3-492fa72e639f" x1="17.75381" y1="42.91826" x2="18.17734" y2="38.93002" gradientUnits="userSpaceOnUse"><stop offset="0" stop-color="#828282" stop-opacity="0"/><stop offset="0.99719" stop-opacity="0.2"/></linearGradient><linearGradient id="b3ccb78f-2935-4942-b591-0bd276deb343" x1="14" y1="39.1875" x2="14" y2="14.75839" gradientUnits="userSpaceOnUse"><stop offset="0" stop-color="#fff" stop-opacity="0"/><stop offset="0.52587" stop-color="#fff" stop-opacity="0.00735"/><stop offset="0.71529" stop-color="#fff" stop-opacity="0.03396"/><stop offset="0.8503" stop-color="#fff" stop-opacity="0.0803"/><stop offset="0.95875" stop-color="#fff" stop-opacity="0.14595"/><stop offset="1" stop-color="#fff" stop-opacity="0.18"/></linearGradient></defs><title>FileTypeIcons_Master_All_NEW</title><polygon points="43 44 13 44 13 4 34 4 43 13 43 44" fill="#fff"/><path d="M34.00049,3H12V45H44V13ZM34,4.5,42.5,13H34ZM43,44H13V4H33V14H43Z" fill="#949494"/><rect x="16" y="7" width="8" height="1" fill="#c8c8c8"/><polygon points="4 17 24 14 24 40 4 37 4 17" fill="#6a3889"/><path d="M15,33h-2.471V21H15Z" fill="#fff"/><polygon points="39 33 24 33 24 34 39 34 39 38 24 38 24 39 39 39 40 39 40 38 40 34 40 33 39 33" fill="#c8c8c8"/><polygon points="39 25 24 25 24 26 39 26 39 30 24 30 24 31 39 31 40 31 40 30 40 26 40 25 39 25" fill="#c8c8c8"/><polygon points="39 17 24 17 24 18 39 18 39 22 24 22 24 23 39 23 40 23 40 22 40 18 40 17 39 17" fill="#c8c8c8"/><rect x="24" y="19" width="14" height="2" fill="#c3a9d4"/><rect x="24" y="27" width="14" height="2" fill="#c3a9d4"/><rect x="24" y="35" width="14" height="2" fill="#c3a9d4"/><path d="M44,13,34,3H12V45H44Z" fill="url(#21621d2e-f3dd-4bab-91fe-f979cf2b9001)"/><rect x="33" y="14" width="10" height="3" fill="url(#e8b0e70a-0430-482d-92d7-237e42c07c54)"/><polygon points="12 3 12 4 33 4 33 14 43 14 43 28 44 28 44 13 34 3 12 3" fill="url(#98cf4bf3-b059-4803-8cd3-5f0ffced530a)"/><polygon points="24 43 12 43 12 38.2 24 40 24 43" fill="url(#8ec6109c-d0d7-49f0-94f3-492fa72e639f)"/><polygon points="24 14 4 17 4 37 24 40 24 14" fill="url(#b3ccb78f-2935-4942-b591-0bd276deb343)"/></svg>