<svg id="50b12dca-c3c8-4d3d-b89e-7985275b3be7" data-name="ICONS" xmlns="http://www.w3.org/2000/svg" xmlns:xlink="http://www.w3.org/1999/xlink" viewBox="0 0 48 48"><defs><linearGradient id="0ccf3073-0351-4e41-ba32-d68606b593cc" x1="10.39927" y1="7.79128" x2="40.06275" y2="43.14284" gradientUnits="userSpaceOnUse"><stop offset="0" stop-opacity="0"/><stop offset="0.86247" stop-opacity="0.12631"/><stop offset="1" stop-opacity="0.2"/></linearGradient><linearGradient id="ca63ec32-f8eb-483c-af69-47a0646195f2" x1="35.23094" y1="8.14532" x2="34.24116" y2="19.45854" gradientUnits="userSpaceOnUse"><stop offset="0" stop-color="#828282" stop-opacity="0"/><stop offset="0.85866" stop-color="#454545" stop-opacity="0.1171"/><stop offset="1" stop-opacity="0.25"/></linearGradient><linearGradient id="0fbad676-391b-45d0-8956-f9b3370cba78" x1="8.5" y1="22.81324" x2="8.5" y2="21.29412" gradientUnits="userSpaceOnUse"><stop offset="0" stop-color="#828282" stop-opacity="0"/><stop offset="0.99719" stop-opacity="0.07"/></linearGradient><linearGradient id="0c63421f-faba-4c5e-b7cb-7b207d9256e3" y1="29.81324" y2="28.29412" xlink:href="#0fbad676-391b-45d0-8956-f9b3370cba78"/><linearGradient id="a2510840-2f26-45e2-be69-f058c958ead7" y1="32.81324" y2="31.29412" xlink:href="#0fbad676-391b-45d0-8956-f9b3370cba78"/><linearGradient id="55bfa3e5-923d-487d-a2dd-461175681ea2" y1="35.81324" y2="34.29412" xlink:href="#0fbad676-391b-45d0-8956-f9b3370cba78"/><linearGradient id="62d658b7-3c3f-418a-920f-24fc1ea41737" y1="38.81324" y2="37.29412" xlink:href="#0fbad676-391b-45d0-8956-f9b3370cba78"/><linearGradient id="df062e61-c9cc-4917-8331-2ced7688e1a0" y1="26.81324" y2="25.29412" xlink:href="#0fbad676-391b-45d0-8956-f9b3370cba78"/><linearGradient id="8f366877-4e87-41e0-90e3-1a4830c42538" y1="15.90662" y2="15.14706" xlink:href="#0fbad676-391b-45d0-8956-f9b3370cba78"/><linearGradient id="e00277f7-c768-473e-81f7-76c8c720275e" x1="8.5" y1="14.90662" x2="8.5" y2="14.14706" gradientUnits="userSpaceOnUse"><stop offset="0" stop-color="#fff" stop-opacity="0"/><stop offset="0.20669" stop-color="#fff" stop-opacity="0.01635"/><stop offset="0.4209" stop-color="#fff" stop-opacity="0.06512"/><stop offset="0.63854" stop-color="#fff" stop-opacity="0.14638"/><stop offset="0.85718" stop-color="#fff" stop-opacity="0.25942"/><stop offset="1" stop-color="#fff" stop-opacity="0.35"/></linearGradient><linearGradient id="7f89b600-c7f1-43c5-8236-80525d2df898" x1="6.5" y1="16.81324" x2="6.5" y2="15.29412" xlink:href="#e00277f7-c768-473e-81f7-76c8c720275e"/><linearGradient id="d309cb1c-f5f5-48ef-9689-28fbeedb4931" y1="17.81324" y2="16.29412" xlink:href="#e00277f7-c768-473e-81f7-76c8c720275e"/><linearGradient id="065ac2f0-d041-4149-8337-3c3478707e7b" y1="24.90662" y2="24.14706" xlink:href="#e00277f7-c768-473e-81f7-76c8c720275e"/><linearGradient id="5fdc58d1-81bd-4472-a5be-8b5243e4e29f" y1="27.90662" y2="27.14706" xlink:href="#e00277f7-c768-473e-81f7-76c8c720275e"/><linearGradient id="b847c55c-0748-47d5-b4ad-d827c3d58dbc" y1="30.90662" y2="30.14706" xlink:href="#e00277f7-c768-473e-81f7-76c8c720275e"/><linearGradient id="374ee94c-5833-4a48-9180-3c0a7f73ec39" y1="33.90662" y2="33.14706" xlink:href="#e00277f7-c768-473e-81f7-76c8c720275e"/><linearGradient id="69b0f530-0f4a-4096-9b92-e2380c9666c2" y1="36.90662" y2="36.14706" xlink:href="#e00277f7-c768-473e-81f7-76c8c720275e"/><linearGradient id="55525ac1-f028-4c3b-a9f3-aa4d4f93c700" x1="10.5" y1="16.81324" x2="10.5" y2="15.29412" xlink:href="#e00277f7-c768-473e-81f7-76c8c720275e"/></defs><title>FileTypeIcons_Master_All_NEW</title><polygon points="3 39 3 14 24 14 29 9 45 9 45 39 3 39" fill="#a6a6a6"/><polygon points="29 9 24 14 29 19 45 19 45 9 29 9" fill="#828282"/><polygon points="3 39 3 14 24 14 29 9 45 9 45 39 3 39" fill="url(#0ccf3073-0351-4e41-ba32-d68606b593cc)"/><polygon points="29 9 24 14 29 19 45 19 45 9 29 9" fill="url(#ca63ec32-f8eb-483c-af69-47a0646195f2)"/><polygon points="44.958 19 44.958 20 28.5 20 22.5 14 24 14 29 19 44.958 19" fill="#fff" opacity="0.15"/><rect x="7" y="14" width="3" height="1" fill="#eaeaea"/><rect x="7" y="27" width="3" height="1" fill="#eaeaea"/><rect x="7" y="30" width="3" height="1" fill="#eaeaea"/><rect x="7" y="33" width="3" height="1" fill="#eaeaea"/><rect x="7" y="36" width="3" height="1" fill="#eaeaea"/><path d="M10,15v1H7V15H6V25h5V15Zm0,9H7V21h3Z" fill="#eaeaea"/><rect x="7" y="21" width="3" height="2" fill="url(#0fbad676-391b-45d0-8956-f9b3370cba78)"/><rect x="7" y="28" width="3" height="2" fill="url(#0c63421f-faba-4c5e-b7cb-7b207d9256e3)"/><rect x="7" y="31" width="3" height="2" fill="url(#a2510840-2f26-45e2-be69-f058c958ead7)"/><rect x="7" y="34" width="3" height="2" fill="url(#55bfa3e5-923d-487d-a2dd-461175681ea2)"/><rect x="7" y="37" width="3" height="2" fill="url(#62d658b7-3c3f-418a-920f-24fc1ea41737)"/><rect x="6" y="25" width="5" height="2" fill="url(#df062e61-c9cc-4917-8331-2ced7688e1a0)"/><rect x="7" y="15" width="3" height="1" fill="url(#8f366877-4e87-41e0-90e3-1a4830c42538)"/><rect x="7" y="14" width="3" height="1" fill="url(#e00277f7-c768-473e-81f7-76c8c720275e)"/><rect x="6" y="15" width="1" height="2" fill="url(#7f89b600-c7f1-43c5-8236-80525d2df898)"/><rect x="7" y="16" width="3" height="2" fill="url(#d309cb1c-f5f5-48ef-9689-28fbeedb4931)"/><rect x="7" y="24" width="3" height="1" fill="url(#065ac2f0-d041-4149-8337-3c3478707e7b)"/><rect x="7" y="27" width="3" height="1" fill="url(#5fdc58d1-81bd-4472-a5be-8b5243e4e29f)"/><rect x="7" y="30" width="3" height="1" fill="url(#b847c55c-0748-47d5-b4ad-d827c3d58dbc)"/><rect x="7" y="33" width="3" height="1" fill="url(#374ee94c-5833-4a48-9180-3c0a7f73ec39)"/><rect x="7" y="36" width="3" height="1" fill="url(#69b0f530-0f4a-4096-9b92-e2380c9666c2)"/><rect x="10" y="15" width="1" height="2" fill="url(#55525ac1-f028-4c3b-a9f3-aa4d4f93c700)"/></svg>