<svg width="240" height="240" viewBox="0 0 240 240" xmlns="http://www.w3.org/2000/svg">
  <path d="M173 45v142.5c0 7.266-1.387 14.082-4.16 20.45-2.774 6.366-6.524 11.913-11.25 16.64-4.727 4.726-10.274 8.476-16.64 11.25-6.368 2.773-13.184 4.16-20.45 4.16s-14.082-1.387-20.45-4.16c-6.366-2.774-11.913-6.524-16.64-11.25-4.726-4.727-8.476-10.274-11.25-16.64-2.773-6.368-4.16-13.184-4.16-20.45v-150c0-5.156.996-10 2.988-14.531 1.992-4.532 4.688-8.496 8.086-11.895 3.399-3.398 7.363-6.094 11.895-8.086C95.5.996 100.344 0 105.5 0c5.156 0 10 .996 14.531 2.988 4.532 1.992 8.496 4.688 11.895 8.086 3.398 3.399 6.094 7.363 8.086 11.895C142.004 27.5 143 32.344 143 37.5v150c0 3.125-.586 6.055-1.758 8.79-1.172 2.733-2.773 5.116-4.804 7.148-2.032 2.03-4.415 3.632-7.149 4.804-2.734 1.172-5.664 1.758-8.789 1.758s-6.055-.586-8.79-1.758c-2.733-1.172-5.116-2.773-7.147-4.804-2.032-2.032-3.633-4.415-4.805-7.149C98.586 193.555 98 190.625 98 187.5V60h15v127.5c0 2.031.742 3.79 2.227 5.273 1.484 1.485 3.242 2.227 5.273 2.227 2.031 0 3.79-.742 5.273-2.227 1.485-1.484 2.227-3.242 2.227-5.273v-150c0-3.125-.586-6.055-1.758-8.79-1.172-2.733-2.773-5.116-4.805-7.148-2.03-2.03-4.414-3.632-7.148-4.804C111.555 15.586 108.625 15 105.5 15s-6.055.586-8.79 1.758c-2.733 1.172-5.116 2.773-7.147 4.805-2.032 2.03-3.633 4.414-4.805 7.148C83.586 31.445 83 34.375 83 37.5v150c0 5.156.996 10 2.988 14.531 1.992 4.532 4.688 8.496 8.086 11.895 3.399 3.398 7.363 6.094 11.895 8.086C110.5 224.004 115.344 225 120.5 225c5.156 0 10-.996 14.531-2.988 4.532-1.992 8.496-4.688 11.895-8.086 3.398-3.399 6.094-7.363 8.086-11.895C157.004 197.5 158 192.656 158 187.5V45h15z" fill-rule="evenodd"/>
</svg>
