<svg width="240" height="240" viewBox="0 0 240 240" xmlns="http://www.w3.org/2000/svg">
  <path d="M90 90h15v15H90V90zm45 90h15v15h-15v-15zm45-90h15v15h-15V90zm-45 0h15v15h-15V90zm-45 30h15v15H90v-15zm-45 0h15v15H45v-15zm135 0h15v15h-15v-15zm-45 0h15v15h-15v-15zm-45 30h15v15H90v-15zm-45 0h15v15H45v-15zm135 0h15v15h-15v-15zm-45 0h15v15h-15v-15zm-45 30h15v15H90v-15zm-45 0h15v15H45v-15zM240 15v210H0V15h45V0h15v15h120V0h15v15h45zM15 30v30h210V30h-30v15h-15V30H60v15H45V30H15zm210 180V75H15v135h210z" fill-rule="evenodd"/>
</svg>
