<svg width="240" height="240" viewBox="0 0 240 240" xmlns="http://www.w3.org/2000/svg">
  <path d="M240 30v180H0V30h64.336l15-15h81.328l15 15H240zm-15 15h-55.664l-15-15H85.664l-15 15H15v150h210V45zM120 60c8.281 0 16.074 1.562 23.379 4.688 7.305 3.125 13.672 7.402 19.101 12.832 5.43 5.43 9.707 11.796 12.833 19.101C178.438 103.926 180 111.72 180 120s-1.562 16.074-4.688 23.379c-3.125 7.305-7.402 13.672-12.832 19.101-5.43 5.43-11.796 9.707-19.101 12.833C136.074 178.438 128.28 180 120 180s-16.074-1.562-23.379-4.688c-7.305-3.125-13.672-7.402-19.101-12.832-5.43-5.43-9.707-11.796-12.832-19.101C61.562 136.074 60 128.28 60 120s1.562-16.074 4.688-23.379C67.813 89.316 72.09 82.95 77.52 77.52c5.43-5.43 11.796-9.707 19.101-12.832C103.926 61.562 111.72 60 120 60zm0 105c6.172 0 11.992-1.191 17.46-3.574 5.47-2.383 10.235-5.606 14.298-9.668 4.062-4.063 7.285-8.828 9.668-14.297C163.809 131.992 165 126.17 165 120c0-6.172-1.191-11.992-3.574-17.46-2.383-5.47-5.606-10.235-9.668-14.298-4.063-4.062-8.828-7.285-14.297-9.668C131.992 76.191 126.17 75 120 75c-6.172 0-11.992 1.191-17.46 3.574-5.47 2.383-10.235 5.606-14.298 9.668-4.062 4.063-7.285 8.828-9.668 14.297C76.191 108.008 75 113.83 75 120c0 6.172 1.191 11.992 3.574 17.46 2.383 5.47 5.606 10.235 9.668 14.298 4.063 4.062 8.828 7.285 14.297 9.668C108.008 163.809 113.83 165 120 165zM37.5 60c2.031 0 3.79.742 5.273 2.227C44.258 63.71 45 65.469 45 67.5c0 2.031-.742 3.79-2.227 5.273C41.29 74.258 39.531 75 37.5 75c-2.031 0-3.79-.742-5.273-2.227C30.742 71.29 30 69.531 30 67.5c0-2.031.742-3.79 2.227-5.273C33.71 60.742 35.469 60 37.5 60z" fill-rule="evenodd"/>
</svg>
