<svg width="240" height="240" viewBox="0 0 240 240" xmlns="http://www.w3.org/2000/svg">
  <path d="M130 181.09V58.619l52.438 53.02a24.95 24.95 0 0 0-1.438 8.36c0 3.015.533 5.904 1.511 8.579L130 181.09zm-72.393-52.861a24.94 24.94 0 0 0 1.393-8.23c0-2.967-.52-5.813-1.469-8.454L110 59.652V180.62l-52.393-52.392zM206 94.999c-3.51 0-6.849.728-9.88 2.033l-52.697-53.283a24.953 24.953 0 0 0 1.577-8.75c0-13.806-11.193-25-25-25S95 21.194 95 35c0 3.366.669 6.574 1.875 9.505L43.8 96.996A24.913 24.913 0 0 0 34 95c-13.807 0-25 11.193-25 25s11.193 25 25 25c3.559 0 6.941-.748 10.006-2.09l52.788 52.79A24.927 24.927 0 0 0 95 205c0 13.807 11.193 25 25 25s25-11.193 25-25c0-3.16-.592-6.181-1.662-8.964l52.98-52.981A24.927 24.927 0 0 0 206 145c13.807 0 25-11.193 25-25s-11.193-25-25-25z" fill-rule="evenodd"/>
</svg>
