<svg width="240" height="240" viewBox="0 0 240 240" xmlns="http://www.w3.org/2000/svg">
  <path d="M165.938 146.953L195 240l-75-57.656L45 240l29.063-93.047L0 90h91.875L120 0l28.125 90H240l-74.063 56.953zm.585 52.266a8821.945 8821.945 0 0 0-8.906-28.887c-2.969-9.57-6.015-19.2-9.14-28.887a1461.468 1461.468 0 0 0 23.789-18.164A3122.223 3122.223 0 0 1 195.938 105h-58.829L120 50.273 102.89 105H44.063a3122.229 3122.229 0 0 1 23.672 18.281 1461.472 1461.472 0 0 0 23.79 18.164 2693.237 2693.237 0 0 0-9.141 28.887c-2.969 9.57-5.938 19.2-8.906 28.887L120 163.359l46.523 35.86z" fill-rule="evenodd"/>
</svg>
