<svg width="240" height="240" viewBox="0 0 240 240" xmlns="http://www.w3.org/2000/svg" xmlns:xlink="http://www.w3.org/1999/xlink"><defs><path d="M.01 182.628L0 15.267C0 6.837 6.832 0 15.26 0h30.693C54.385 0 61.22 6.835 61.22 15.267c0 8.432-6.835 15.267-15.267 15.267h-15.43l.01 137.402h15.268c8.432 0 15.267 6.835 15.267 15.267 0 8.432-6.835 15.267-15.267 15.267H15.273c-.485 0-.966-.023-1.44-.066C6.075 197.68 0 191.152 0 183.204c0-.193.004-.386.01-.576zm146.418-98.66l-27.446-27.38c-5.975-5.96-5.974-15.62 0-21.58 5.977-5.961 15.664-5.966 21.648-.015l42.815 42.59 12.99 13.05c4.772 4.794 4.745 12.54-.062 17.303l-13.005 12.88-42.755 42.652c-5.974 5.957-15.658 5.956-21.631-.001-5.974-5.96-5.975-15.62 0-21.58l27.45-27.385H65.817c-5.993 0-10.855-6.835-10.855-15.267 0-8.432 4.86-15.267 10.857-15.267h80.61z" id="a"/></defs><use fill-rule="nonzero" xlink:href="#a" transform="translate(20 21)"/></svg>