<svg width="240" height="240" viewBox="0 0 240 240" xmlns="http://www.w3.org/2000/svg">
  <path d="M82.11 90.5c-.684-6.25-2.54-12.012-5.176-17.578C72.344 63.547 70 54.172 70 43.625c0-4.297 1.758-8.203 4.59-11.035C77.422 29.758 81.328 28 85.625 28c4.688 0 7.617 1.953 10.84 5.176l60.742 60.644c5.957 5.957 13.574 9.18 22.07 9.18H220v87.5h-43.75c-10.156 0-19.434 1.953-28.809 5.762-10.84 4.492-22.07 6.738-33.691 6.738h-50a18.726 18.726 0 0 1-17.773-12.793l-25-75c-.684-1.855-.977-3.906-.977-5.957 0-5.176 2.05-9.863 5.469-13.281C28.984 92.55 33.672 90.5 38.75 90.5h43.36z" fill-rule="evenodd"/>
</svg>
