<svg xmlns="http://www.w3.org/2000/svg" width="240" height="240">
  <path fill-rule="evenodd" d="M120 89.929c4.14 0 8.027.781 11.66 2.344 3.633 1.562 6.817 3.71 9.55 6.445 2.735 2.734 4.884 5.918 6.446 9.55 1.563 3.634 2.344 7.52 2.344 11.66 0 4.142-.781 8.028-2.344 11.661-1.562 3.633-3.71 6.816-6.445 9.55-2.734 2.735-5.918 4.884-9.55 6.446-3.634 1.563-7.52 2.344-11.661 2.344-4.14 0-8.027-.781-11.66-2.344-3.633-1.562-6.817-3.71-9.55-6.445-2.735-2.735-4.884-5.918-6.446-9.551-1.563-3.633-2.344-7.52-2.344-11.66 0-4.14.781-8.027 2.344-11.66 1.562-3.633 3.71-6.817 6.445-9.551 2.734-2.734 5.918-4.883 9.55-6.445 3.634-1.563 7.52-2.344 11.661-2.344zm0 45c-2.11 0-4.062-.39-5.86-1.172a15.244 15.244 0 0 1-4.745-3.223 15.244 15.244 0 0 1-3.223-4.746c-.781-1.797-1.172-3.75-1.172-5.86 0-2.109.39-4.062 1.172-5.859a15.244 15.244 0 0 1 3.223-4.746 15.244 15.244 0 0 1 4.746-3.222c1.797-.782 3.75-1.172 5.859-1.172 2.11 0 4.062.39 5.86 1.172a15.244 15.244 0 0 1 4.745 3.222 15.244 15.244 0 0 1 3.223 4.746c.781 1.797 1.172 3.75 1.172 5.86 0 2.11-.39 4.062-1.172 5.86a15.244 15.244 0 0 1-3.223 4.745 15.244 15.244 0 0 1-4.746 3.223c-1.797.781-3.75 1.172-5.859 1.172zM77.65 77.552l-.013.014c-5.43 5.43-9.727 11.777-12.89 19.043-3.165 7.265-4.747 15.039-4.747 23.32 0 8.047 1.504 15.703 4.512 22.969 3.008 7.265 7.363 13.75 13.066 19.453l-10.664 10.664c-7.11-7.11-12.539-15.235-16.289-24.375C46.875 139.5 45 129.929 45 119.929c0-10.39 1.953-20.137 5.86-29.238 3.906-9.102 9.257-17.051 16.054-23.848l.017-.017L77.65 77.552zM45.843 45.726l-.023.023a105.8 105.8 0 0 0-16.465 21.27c-4.57 7.773-8.105 16.132-10.605 25.078-2.5 8.945-3.75 18.222-3.75 27.832 0 9.687 1.25 18.984 3.75 27.89 2.5 8.907 6.035 17.247 10.605 25.02a105.8 105.8 0 0 0 16.465 21.27L35.098 204.83a119.165 119.165 0 0 1-18.75-24.316c-5.196-8.906-9.22-18.477-12.07-28.711C1.425 141.569 0 130.944 0 119.929c0-11.016 1.426-21.64 4.277-31.875 2.852-10.235 6.875-19.805 12.07-28.711a119.165 119.165 0 0 1 18.75-24.316l.027-.027 10.72 10.726zM162.35 77.552l10.72-10.726.016.017c6.797 6.797 12.148 14.746 16.055 23.848 3.906 9.101 5.859 18.847 5.859 29.238 0 10-1.875 19.57-5.625 28.71-3.75 9.141-9.18 17.266-16.29 24.376l-10.663-10.664c5.703-5.703 10.058-12.188 13.066-19.453 3.008-7.266 4.512-14.922 4.512-22.97 0-8.28-1.582-16.054-4.746-23.32-3.164-7.265-7.461-13.613-12.89-19.042l-.014-.014zm31.807-31.826L204.876 35l.026.027a119.165 119.165 0 0 1 18.75 24.316c5.196 8.906 9.22 18.476 12.07 28.71 2.852 10.235 4.278 20.86 4.278 31.876 0 11.016-1.426 21.64-4.277 31.875-2.852 10.234-6.875 19.805-12.07 28.71a119.165 119.165 0 0 1-18.75 24.317L194.18 194.11a105.8 105.8 0 0 0 16.465-21.27c4.57-7.773 8.105-16.113 10.605-25.02 2.5-8.906 3.75-18.203 3.75-27.89 0-9.61-1.25-18.887-3.75-27.832-2.5-8.946-6.035-17.305-10.605-25.078a105.8 105.8 0 0 0-16.465-21.27l-.023-.023z"/>
</svg>
