<svg width="240" height="240" viewBox="0 0 240 240" xmlns="http://www.w3.org/2000/svg">
  <path d="M0 90c1.094 0 2.598.04 4.512.117 1.914.078 3.77.117 5.566.117.86 0 1.66-.02 2.402-.058.743-.04 1.348-.098 1.817-.176L225 52.5a17.122 17.122 0 0 1 1.875-.176c.781-.039 1.64-.058 2.578-.058 1.875 0 3.828.039 5.86.117 2.03.078 3.593.117 4.687.117v135c-1.094 0-2.617.02-4.57.059-1.953.039-3.867.058-5.743.058h-3.515c-1.016 0-1.836-.078-2.461-.234l-89.414-15.938c-.781 4.453-2.285 8.594-4.512 12.422-2.226 3.828-4.98 7.11-8.262 9.844-3.28 2.734-6.972 4.883-11.074 6.445-4.101 1.563-8.418 2.344-12.949 2.344-5.156 0-10.02-.977-14.59-2.93-4.57-1.953-8.555-4.629-11.953-8.027-3.398-3.398-6.074-7.383-8.027-11.953C60.977 175.02 60 170.156 60 165c0-2.188.234-4.414.703-6.68L14.297 150a28.823 28.823 0 0 0-2.05-.176 45.878 45.878 0 0 0-2.403-.058c-1.719 0-3.457.039-5.215.117-1.758.078-3.3.117-4.629.117V90zm97.5 97.5c2.734 0 5.352-.469 7.852-1.406 2.5-.938 4.726-2.246 6.68-3.926a23.253 23.253 0 0 0 4.921-5.918c1.328-2.266 2.227-4.766 2.695-7.5l-44.296-7.852A24.936 24.936 0 0 0 75 165c0 3.125.586 6.055 1.758 8.79 1.172 2.733 2.773 5.116 4.805 7.148 2.03 2.03 4.414 3.632 7.148 4.804 2.734 1.172 5.664 1.758 8.789 1.758zM225 67.617L15 105v30c.547 0 .977.04 1.29.117L225 172.383V67.617z" fill-rule="evenodd"/>
</svg>
