<svg width="240" height="240" viewBox="0 0 240 240" xmlns="http://www.w3.org/2000/svg">
  <path d="M120 195c2.11 0 4.062.39 5.86 1.172a15.244 15.244 0 0 1 4.745 3.223 15.244 15.244 0 0 1 3.223 4.746c.781 1.797 1.172 3.75 1.172 5.859 0 2.11-.39 4.062-1.172 5.86a15.244 15.244 0 0 1-3.223 4.745 15.244 15.244 0 0 1-4.746 3.223c-1.797.781-3.75 1.172-5.859 1.172-2.11 0-4.062-.39-5.86-1.172a15.244 15.244 0 0 1-4.745-3.223 15.244 15.244 0 0 1-3.223-4.746C105.39 214.062 105 212.11 105 210c0-2.11.39-4.062 1.172-5.86a15.244 15.244 0 0 1 3.223-4.745 15.244 15.244 0 0 1 4.746-3.223c1.797-.781 3.75-1.172 5.859-1.172zm0-90c2.11 0 4.062.39 5.86 1.172a15.244 15.244 0 0 1 4.745 3.223 15.244 15.244 0 0 1 3.223 4.746c.781 1.797 1.172 3.75 1.172 5.859 0 2.11-.39 4.062-1.172 5.86a15.244 15.244 0 0 1-3.223 4.745 15.244 15.244 0 0 1-4.746 3.223c-1.797.781-3.75 1.172-5.859 1.172-2.11 0-4.062-.39-5.86-1.172a15.244 15.244 0 0 1-4.745-3.223 15.244 15.244 0 0 1-3.223-4.746C105.39 124.062 105 122.11 105 120c0-2.11.39-4.062 1.172-5.86a15.244 15.244 0 0 1 3.223-4.745 15.244 15.244 0 0 1 4.746-3.223c1.797-.781 3.75-1.172 5.859-1.172zm0-60c-2.11 0-4.062-.39-5.86-1.172a15.244 15.244 0 0 1-4.745-3.223 15.244 15.244 0 0 1-3.223-4.746C105.39 34.062 105 32.11 105 30c0-2.11.39-4.062 1.172-5.86a15.244 15.244 0 0 1 3.223-4.745 15.244 15.244 0 0 1 4.746-3.223C115.938 15.39 117.89 15 120 15c2.11 0 4.062.39 5.86 1.172a15.244 15.244 0 0 1 4.745 3.223 15.244 15.244 0 0 1 3.223 4.746C134.61 25.938 135 27.89 135 30c0 2.11-.39 4.062-1.172 5.86a15.244 15.244 0 0 1-3.223 4.745 15.244 15.244 0 0 1-4.746 3.223C124.062 44.61 122.11 45 120 45z" fill-rule="evenodd"/>
</svg>
