<svg width="240" height="240" viewBox="0 0 240 240" xmlns="http://www.w3.org/2000/svg">
  <path d="M221.953 97.5c1.016 0 1.777.488 2.285 1.465.508.976.762 1.894.762 2.754v29.062c0 .86-.254 1.778-.762 2.754-.508.977-1.27 1.465-2.285 1.465H217.5V97.5h4.453zm0 45c1.016 0 1.777.488 2.285 1.465.508.976.762 1.894.762 2.754v29.062c0 .86-.254 1.778-.762 2.754-.508.977-1.27 1.465-2.285 1.465H217.5v-37.5h4.453zM15 35.977l120-20.274v208.594L15 204.023V35.977zm33.398 121.289l11.954.586V105c0-.469.078-.898.234-1.29.156-.39.234-.78.234-1.17a.887.887 0 0 0 .586.644c.313.117.547.332.703.644.391.86.801 1.719 1.23 2.578.43.86.88 1.719 1.349 2.578l27.421 50.625 15.938.938V77.344l-14.883.937v52.852a12.86 12.86 0 0 0 .469 3.398h-.235a629.334 629.334 0 0 0-14.648-27.363 1968.594 1968.594 0 0 1-15.117-27.129l-15.235.586v76.64zM225 87.539c0 1.016-.117 1.68-.352 1.992-.234.313-.898.469-1.992.469H210v106.523c0 .547-.098 1.172-.293 1.875a7.79 7.79 0 0 1-.82 1.934 6.07 6.07 0 0 1-1.29 1.523c-.507.43-1.074.645-1.699.645H142.5V180h45v-7.5h-45v-15h45V150h-45v-15h45v-7.5h-45v-15h45V105h-45V90h45v-7.5h-45v-15h45V60h-45V37.5h63.398c1.563 0 2.637.664 3.223 1.992.586 1.328.879 2.656.879 3.985V52.5h12.656c1.094 0 1.758.137 1.992.41.235.274.352.957.352 2.05v32.58z" fill-rule="evenodd"/>
</svg>
