<svg width="240" height="240" viewBox="0 0 240 240" xmlns="http://www.w3.org/2000/svg">
  <path d="M193.837 209.699c-47.134 2.773-87.136-13.607-118.564-48.566-30.748-34.203-46.023-72.54-45.245-114.31.174-9.3 7.732-16.733 16.986-16.822L82.951 30a6.864 6.864 0 0 1 6.627 5.068l10.56 39.018c.99 3.655-1.176 6.035-4.837 8.408-.007.002-6.323 4.008-18.949 12.019 5.907 17.161 9.642 28.692 23.772 44.41 14.532 16.164 26.132 20.808 44.799 26.513l12.505-20.718c2.383-3.688 4.767-5.85 8.428-4.863l39.07 10.546A6.858 6.858 0 0 1 210 157.02v35.889c-.167 8.87-7.146 16.26-16.163 16.79z" fill-rule="nonzero"/>
</svg>
