<svg width="240" height="240" viewBox="0 0 240 240" xmlns="http://www.w3.org/2000/svg">
  <path d="M187.5 105c-2.11 0-4.062.39-5.86 1.172a15.244 15.244 0 0 0-4.745 3.223 15.244 15.244 0 0 0-3.223 4.746c-.781 1.797-1.172 3.75-1.172 5.859 0 2.11.39 4.062 1.172 5.86a15.244 15.244 0 0 0 3.223 4.745 15.244 15.244 0 0 0 4.746 3.223c1.797.781 3.75 1.172 5.859 1.172H210v60h-45v7.5c0 4.14-.781 8.027-2.344 11.66-1.562 3.633-3.71 6.817-6.445 9.55-2.734 2.735-5.918 4.884-9.55 6.446-3.634 1.563-7.52 2.344-11.661 2.344-4.14 0-8.027-.781-11.66-2.344-3.633-1.562-6.817-3.71-9.55-6.445-2.735-2.734-4.884-5.918-6.446-9.55-1.563-3.634-2.344-7.52-2.344-11.661V195H60v-45h-7.5c-4.14 0-8.027-.781-11.66-2.344-3.633-1.562-6.817-3.71-9.55-6.445-2.735-2.734-4.884-5.918-6.446-9.55C23.28 128.026 22.5 124.14 22.5 120c0-4.14.781-8.027 2.344-11.66 1.562-3.633 3.71-6.817 6.445-9.55 2.734-2.735 5.918-4.884 9.55-6.446C44.474 90.78 48.36 90 52.5 90H60V45h45v-7.5c0-4.14.781-8.027 2.344-11.66 1.562-3.633 3.71-6.817 6.445-9.55 2.734-2.735 5.918-4.884 9.55-6.446C126.974 8.28 130.86 7.5 135 7.5c4.14 0 8.027.781 11.66 2.344 3.633 1.562 6.817 3.71 9.55 6.445 2.735 2.734 4.884 5.918 6.446 9.55C164.22 29.474 165 33.36 165 37.5V45h45v60h-22.5zm0 45c-4.14 0-8.027-.781-11.66-2.344-3.633-1.562-6.817-3.71-9.55-6.445-2.735-2.734-4.884-5.918-6.446-9.55-1.563-3.634-2.344-7.52-2.344-11.661 0-4.14.781-8.027 2.344-11.66 1.562-3.633 3.71-6.817 6.445-9.55 2.734-2.735 5.918-4.884 9.55-6.446C179.474 90.78 183.36 90 187.5 90h7.5V60h-45V37.5c0-2.11-.39-4.062-1.172-5.86a15.244 15.244 0 0 0-3.223-4.745 15.244 15.244 0 0 0-4.746-3.223c-1.797-.781-3.75-1.172-5.859-1.172-2.11 0-4.062.39-5.86 1.172a15.244 15.244 0 0 0-4.745 3.223 15.244 15.244 0 0 0-3.223 4.746C120.39 33.438 120 35.39 120 37.5V60H75v45H52.5c-2.11 0-4.062.39-5.86 1.172a15.244 15.244 0 0 0-4.745 3.223 15.244 15.244 0 0 0-3.223 4.746c-.781 1.797-1.172 3.75-1.172 5.859 0 2.11.39 4.062 1.172 5.86a15.244 15.244 0 0 0 3.223 4.745 15.244 15.244 0 0 0 4.746 3.223c1.797.781 3.75 1.172 5.859 1.172H75v45h45v22.5c0 2.11.39 4.062 1.172 5.86a15.244 15.244 0 0 0 3.223 4.745 15.244 15.244 0 0 0 4.746 3.223c1.797.781 3.75 1.172 5.859 1.172 2.11 0 4.062-.39 5.86-1.172a15.244 15.244 0 0 0 4.745-3.223 15.244 15.244 0 0 0 3.223-4.746c.781-1.797 1.172-3.75 1.172-5.859V180h45v-30h-7.5z" fill-rule="evenodd"/>
</svg>
