<?xml version="1.0" encoding="utf-8"?>
<!-- Generator: Adobe Illustrator 19.2.1, SVG Export Plug-In . SVG Version: 6.00 Build 0)  -->
<svg version="1.1" id="Layer_1" xmlns="http://www.w3.org/2000/svg" xmlns:xlink="http://www.w3.org/1999/xlink" x="0px" y="0px"
	 viewBox="0 0 14.2 14.1" style="enable-background:new 0 0 14.2 14.1;" xml:space="preserve">
<style type="text/css">
	.st0{fill:#EC008C;}
</style>
<g>
	<polygon class="st0" points="11,1.1 11,2.1 13.2,2.1 13.2,9.9 4.5,9.9 2.5,11.9 2.5,9.9 1,9.9 1,2.1 3.1,2.1 3.1,1.1 0,1.1 0,10.8 
		1.5,10.8 1.6,14.1 5,10.8 14.2,10.8 14.2,1.1 	"/>
	<path class="st0" d="M5.4,2.6c0.2-1,0.7-1.6,1.6-1.6c0.5,0,0.8,0.1,1.1,0.4c0.3,0.3,0.4,0.6,0.4,1.1c0,0.2-0.1,0.4-0.2,0.6
		C8.2,3.4,8,3.7,7.5,4c-0.5,0.4-0.8,0.8-1,1.1C6.4,5.5,6.3,6.1,6.3,6.8v0.1h1.2V6.8c0-0.5,0.1-0.9,0.2-1.2c0.1-0.2,0.4-0.5,0.9-0.9
		c0.5-0.4,0.8-0.8,1-1.1c0.2-0.3,0.3-0.7,0.3-1.1c0-0.7-0.3-1.3-0.8-1.8C8.5,0.2,7.8,0,7,0c-0.8,0-1.5,0.2-2,0.7
		C4.4,1.2,4.1,1.8,4,2.6l0,0.1L5.4,2.6L5.4,2.6z"/>
	<rect x="6.2" y="7.6" class="st0" width="1.4" height="1.4"/>
</g>
</svg>
