<svg width="240" height="240" viewBox="0 0 240 240" xmlns="http://www.w3.org/2000/svg">
  <path stroke="null" d="m131.966674,51.866664c7.479167,5.982222 11.966667,13.459999 11.966667,22.433332c0,10.468888 -2.991667,17.946666 -8.975001,23.928887c-5.983334,5.982222 -14.958334,10.468888 -25.429168,11.964444l0,17.946666l-14.958334,0l0,-20.937776c0,-2.991111 2.991667,-5.982222 5.983334,-7.477777c8.975001,-1.495555 16.454168,-4.486666 20.941668,-7.477777c5.983334,-2.991111 7.479167,-8.973333 7.479167,-16.45111c0,-5.982222 -1.495833,-10.468888 -5.983334,-14.955555c-7.479167,-2.991111 -13.462501,-4.486666 -22.437501,-4.486666c-7.479167,0 -14.958334,2.991111 -19.445834,7.477777c-5.983334,4.486666 -8.975001,10.468888 -10.470834,17.946666l-11.966667,-7.477777c1.495833,-10.468888 5.983334,-17.946666 13.462501,-22.433332c8.975001,-5.982222 17.950001,-8.973333 29.916668,-8.973333c11.966667,0 20.941668,2.991111 29.916668,8.973333z" id="svg_3"/>
  <rect stroke="null" x="91.579172" y="135.61777" width="14.958334" height="11.964444" id="svg_4"/>
  <path stroke="null" d="m54.183336,231.333319l0,-58.326663c-29.916668,-14.955555 -53.850003,-44.866664 -53.850003,-77.768884c0,-49.35333 43.379169,-88.237772 98.725006,-88.237772c53.850003,0 98.725006,38.884442 98.725006,88.237772c0,23.928887 -10.470834,44.866664 -28.420835,61.317774c-17.950001,16.45111 -40.387502,25.424443 -64.320837,25.424443l-50.858336,49.35333zm44.875003,-210.87332c-46.370836,0 -85.262505,32.90222 -85.262505,74.777773c0,28.415554 19.445834,55.335552 49.362503,67.299996l5.983334,1.495555l0,34.397776l29.916668,-29.911109l1.495833,0c22.437501,0 43.379169,-8.973333 58.337503,-22.433332c14.958334,-13.459999 23.933335,-32.90222 23.933335,-52.344441c1.495833,-40.379997 -37.395836,-73.282218 -83.766672,-73.282218z" id="svg_5"/>
  <path stroke="null" d="m184.320844,228.342209l-49.362503,-31.406665l7.479167,-11.964444l28.420835,19.442221l1.495833,-25.424443l4.4875,-1.495555c29.916668,-11.964444 49.362503,-37.388887 49.362503,-67.299996c0,-19.442221 -8.975001,-38.884442 -23.933335,-52.344441l8.975001,-10.468888c17.950001,16.45111 28.420835,38.884442 28.420835,62.813329c0,32.90222 -20.941668,62.813329 -53.850003,77.768884l-1.495833,40.379997z" id="svg_6"/>
</svg>