<svg width="240" height="240" viewBox="0 0 240 240" xmlns="http://www.w3.org/2000/svg">
  <g fill-rule="evenodd">
    <path d="M186.138 19.08v16.839h37.044v131.33H76.738l-33.661 33.696v-33.696H17.83V35.92h35.344v-16.84H1v163.326h25.263l1.666 55.587 57.241-55.587h154.826V19.079z"/>
    <path d="M91.947 44.229c3.369-16.85 11.79-26.959 26.948-26.959 8.42 0 13.473 1.685 18.526 6.74 5.053 5.054 6.737 10.11 6.737 18.534 0 3.37-1.684 6.74-3.369 10.109-1.684 5.055-5.052 10.11-13.473 15.164-8.421 6.74-13.474 13.48-16.842 18.534-1.685 6.74-3.369 16.849-3.369 28.643v1.685h20.21v-1.685c0-8.424 1.685-15.164 3.37-20.219 1.683-3.37 6.736-8.424 15.157-15.164s13.474-13.479 16.842-18.534c3.369-5.054 5.053-11.794 5.053-18.533 0-11.795-5.053-21.904-13.474-30.329C144.158 3.791 132.368.421 118.895.421c-13.474 0-25.263 3.37-33.684 11.794C75.105 20.64 70.053 30.75 68.368 44.23v1.684l23.58-1.684zM105.421 152.062H129v-23.589h-23.579z"/>
  </g>
</svg>
