<svg width="240" height="240" viewBox="0 0 240 240" xmlns="http://www.w3.org/2000/svg">
  <path d="M120 0c11.016 0 21.64 1.426 31.875 4.277 10.234 2.852 19.785 6.895 28.652 12.13a121.582 121.582 0 0 1 24.258 18.808 121.582 121.582 0 0 1 18.809 24.258c5.234 8.867 9.277 18.418 12.129 28.652C238.574 98.359 240 108.985 240 120c0 11.016-1.426 21.64-4.277 31.875-2.852 10.234-6.895 19.785-12.13 28.652a121.582 121.582 0 0 1-18.808 24.258 121.582 121.582 0 0 1-24.258 18.809c-8.867 5.234-18.418 9.277-28.652 12.129C141.641 238.574 131.015 240 120 240c-11.016 0-21.64-1.426-31.875-4.277-10.234-2.852-19.785-6.895-28.652-12.13a121.582 121.582 0 0 1-24.258-18.808 121.582 121.582 0 0 1-18.809-24.258c-5.234-8.867-9.277-18.418-12.129-28.652C1.426 141.641 0 131.015 0 120c0-11.016 1.426-21.64 4.277-31.875 2.852-10.234 6.895-19.785 12.13-28.652a121.582 121.582 0 0 1 18.808-24.258 121.582 121.582 0 0 1 24.258-18.809C68.34 11.172 77.89 7.13 88.125 4.277 98.359 1.426 108.985 0 120 0zm37.617 170.273c1.719 0 3.34-.332 4.863-.996a13.03 13.03 0 0 0 4.043-2.754 13.03 13.03 0 0 0 2.754-4.043c.664-1.523.996-3.144.996-4.863 0-3.515-1.25-6.523-3.75-9.023l-33.867-33.867V53.32c0-1.718-.332-3.36-.996-4.922-.664-1.562-1.562-2.91-2.695-4.043-1.133-1.132-2.48-2.03-4.043-2.695a12.455 12.455 0 0 0-4.922-.996c-1.797 0-3.457.332-4.98.996a12.817 12.817 0 0 0-3.985 2.695c-1.133 1.133-2.031 2.48-2.695 4.043a12.455 12.455 0 0 0-.996 4.922V120c0 1.64.312 3.262.937 4.863a11.954 11.954 0 0 0 2.696 4.16l37.617 37.5c2.5 2.5 5.508 3.75 9.023 3.75z" fill-rule="evenodd"/>
</svg>
