<svg width="240" height="240" viewBox="0 0 240 240" xmlns="http://www.w3.org/2000/svg" xmlns:xlink="http://www.w3.org/1999/xlink"><defs><path d="M0 102.5C0 159.11 45.89 205 102.5 205S205 159.11 205 102.5 159.11 0 102.5 0 0 45.89 0 102.5zm175.714 0c0 40.435-32.78 73.214-73.214 73.214-40.435 0-73.214-32.78-73.214-73.214 0-40.435 32.78-73.214 73.214-73.214 40.435 0 73.214 32.78 73.214 73.214zm-65.893-41c0-5.66-4.589-10.25-10.25-10.25-5.66 0-10.25 4.59-10.25 10.25v38.071a10.22 10.22 0 0 0 2.904 7.15 10.279 10.279 0 0 0 2.312 1.818l38.044 21.964c4.902 2.83 11.17 1.15 14.001-3.751 2.83-4.903 1.151-11.172-3.751-14.002l-33.01-19.058V61.5z" id="a"/></defs><use fill-rule="nonzero" xlink:href="#a" transform="translate(17 17)"/></svg>