<svg width="240" height="240" viewBox="0 0 240 240" xmlns="http://www.w3.org/2000/svg">
  <path d="M195 0v135c0 10.39-1.953 20.137-5.86 29.238-3.906 9.102-9.257 17.051-16.054 23.848-6.797 6.797-14.746 12.148-23.848 16.055C140.137 208.047 130.391 210 120 210c-10.39 0-20.137-1.953-29.238-5.86-9.102-3.906-17.051-9.257-23.848-16.054-6.797-6.797-12.148-14.746-16.055-23.848C46.953 155.137 45 145.391 45 135V0h15v135c0 8.281 1.582 16.055 4.746 23.32 3.164 7.266 7.461 13.614 12.89 19.043 5.43 5.43 11.778 9.727 19.044 12.89C103.945 193.419 111.719 195 120 195s16.055-1.582 23.32-4.746c7.266-3.164 13.614-7.461 19.043-12.89 5.43-5.43 9.727-11.778 12.89-19.044C178.419 151.055 180 143.281 180 135V0h15zM45 225h150v15H45v-15z" fill-rule="evenodd"/>
</svg>
