<svg width="240" height="240" viewBox="0 0 240 240" xmlns="http://www.w3.org/2000/svg">
  <path d="M121.875 110.86a88.721 88.721 0 0 1 20.684 11.132c6.367 4.61 12.011 9.903 16.933 15.88a89.049 89.049 0 0 1 9.306 13.73c-8.048 7.685-7.704 7.393-11.152 10.958a72.331 72.331 0 0 0-3.662-6.7c-4.53-7.344-10.058-13.672-16.582-18.985-6.523-5.313-13.828-9.453-21.914-12.422C107.402 121.484 98.906 120 90 120c-6.875 0-13.516.898-19.922 2.695-6.406 1.797-12.383 4.317-17.93 7.559a74.666 74.666 0 0 0-15.175 11.719 74.666 74.666 0 0 0-11.72 15.175c-3.241 5.547-5.76 11.524-7.558 17.93C15.898 181.484 15 188.125 15 195H0c0-9.375 1.387-18.398 4.16-27.07 2.774-8.672 6.7-16.68 11.777-24.024 5.079-7.344 11.192-13.867 18.34-19.57 7.149-5.703 15.098-10.195 23.848-13.477-8.828-5.78-15.723-13.046-20.684-21.796C32.481 80.313 30 70.624 30 60c0-8.281 1.562-16.074 4.688-23.379C37.813 29.316 42.09 22.95 47.52 17.52c5.43-5.43 11.796-9.707 19.101-12.832C73.926 1.562 81.72 0 90 0s16.074 1.562 23.379 4.688c7.305 3.125 13.672 7.402 19.101 12.832 5.43 5.43 9.707 11.796 12.833 19.101C148.438 43.926 150 51.72 150 60c0 5.156-.645 10.195-1.934 15.117a60.124 60.124 0 0 1-5.566 13.945 60.654 60.654 0 0 1-8.848 12.13 58.662 58.662 0 0 1-11.777 9.667zM45 60c0-6.172 1.172-11.992 3.516-17.46 2.343-5.47 5.566-10.255 9.668-14.356 4.101-4.102 8.867-7.325 14.296-9.668C77.91 16.172 83.75 15 90 15c6.172 0 11.992 1.172 17.46 3.516 5.47 2.343 10.255 5.566 14.356 9.668 4.102 4.101 7.325 8.886 9.668 14.355C133.828 48.008 135 53.83 135 60c0 6.25-1.172 12.09-3.516 17.52-2.343 5.43-5.566 10.195-9.668 14.296-4.101 4.102-8.886 7.325-14.355 9.668C101.992 103.828 96.17 105 90 105c-6.25 0-12.09-1.172-17.52-3.516-5.43-2.343-10.195-5.566-14.296-9.668-4.102-4.101-7.325-8.867-9.668-14.296C46.172 72.09 45 66.25 45 60zm168.164 142.5l26.484 26.602-10.546 10.546-26.602-26.484-26.602 26.602-10.546-10.664 26.601-26.602-26.601-26.602 10.546-10.546 26.602 26.601 26.602-26.601 10.546 10.664-26.484 26.484z" fill-rule="evenodd"/>
</svg>
