<svg width="240" height="240" viewBox="0 0 240 240" xmlns="http://www.w3.org/2000/svg">
  <path d="M240 45v150H0V45h75V30c0-2.11.39-4.062 1.172-5.86a15.244 15.244 0 0 1 3.223-4.745 15.244 15.244 0 0 1 4.746-3.223C85.938 15.39 87.89 15 90 15h60c2.11 0 4.062.39 5.86 1.172a15.244 15.244 0 0 1 4.745 3.223 15.244 15.244 0 0 1 3.223 4.746C164.61 25.938 165 27.89 165 30v15h75zM90 45h60V30H90v15zM15 60v21.68l75 37.382V105h60v14.063l75-37.383V60H15zm90 60v15h30v-15h-30zm120 60V98.32l-75 37.618V150H90v-14.063L15 98.32V180h210z" fill-rule="evenodd"/>
</svg>
