<svg width="240" height="240" viewBox="0 0 240 240" xmlns="http://www.w3.org/2000/svg">
  <path d="M240 62v150H0V62h75V47c0-2.11.39-4.062 1.172-5.86a15.244 15.244 0 0 1 3.223-4.745 15.244 15.244 0 0 1 4.746-3.223C85.938 32.39 87.89 32 90 32h60c2.11 0 4.062.39 5.86 1.172a15.244 15.244 0 0 1 4.745 3.223 15.244 15.244 0 0 1 3.223 4.746C164.61 42.938 165 44.89 165 47v15h75zM90 62h60V47H90v15zM15 77v21.68l75 37.382V122h60v14.063l75-37.383V77H15zm90 60v15h30v-15h-30zm120 60v-81.68l-75 37.618V167H90v-14.063L15 115.32V197h210z" fill-rule="evenodd"/>
</svg>
